M48
;DRILL file {Pcbnew (2012-01-19 BZR 3256)-stable} date 16/09/2012 01:08:55
;FORMAT={-:-/ absolute / inch / decimal}
FMAT,2
INCH,TZ
T1C0.015
T2C0.032
T3C0.035
T4C0.040
T5C0.047
T6C0.067
%
G90
G05
M72
T1
X6.460Y4.650
X6.600Y3.600
X6.750Y4.300
X6.750Y4.340
X6.750Y4.380
X6.840Y4.400
X6.840Y5.100
X6.880Y4.650
X7.080Y5.100
X7.140Y5.110
X7.190Y4.820
X7.230Y5.250
X7.260Y4.120
X7.260Y4.960
X7.270Y4.370
X7.270Y4.440
X7.430Y4.310
X7.430Y4.350
X7.440Y4.670
X7.440Y4.850
X7.440Y4.890
X7.450Y3.660
X7.450Y4.380
X7.450Y4.630
X7.470Y4.410
X7.470Y4.690
X7.475Y4.805
X7.475Y4.840
X7.490Y5.040
X7.500Y4.610
X7.500Y4.710
X7.500Y5.080
X7.510Y4.410
X7.530Y5.110
X7.560Y5.090
X7.630Y4.520
X7.700Y3.690
X7.700Y4.080
X7.700Y4.120
X7.700Y4.280
X7.700Y5.180
X7.700Y5.220
X7.720Y5.270
X7.740Y5.180
X7.750Y3.690
X7.760Y5.210
X7.770Y5.250
X7.780Y4.110
X7.780Y4.150
X7.810Y5.270
X7.840Y5.170
X7.860Y4.870
X7.860Y5.140
X7.900Y4.100
X7.920Y4.130
X7.940Y4.100
X7.960Y4.070
X7.990Y4.020
X7.990Y4.710
X8.000Y4.070
X8.020Y4.630
X8.030Y4.020
X8.040Y4.280
X8.040Y4.930
X8.050Y4.600
X8.060Y5.020
X8.070Y4.020
X8.070Y4.310
X8.080Y4.650
X8.100Y4.570
X8.110Y4.060
X8.110Y4.630
X8.120Y4.160
X8.140Y5.280
X8.150Y4.830
X8.170Y4.510
X8.180Y4.080
X8.180Y4.140
X8.240Y3.610
X8.240Y4.080
X8.270Y4.100
X8.280Y4.710
X8.300Y4.780
X8.300Y5.170
X8.300Y5.280
X8.310Y3.650
X8.320Y5.140
X8.360Y4.690
X8.390Y3.650
X8.390Y5.170
X8.420Y3.620
X8.440Y5.100
X8.480Y5.100
X8.490Y4.770
X8.500Y3.610
X8.500Y4.410
X8.500Y4.810
X8.500Y5.070
X8.510Y4.550
X8.510Y4.650
X8.520Y4.750
X8.520Y5.100
X8.530Y4.430
X8.530Y4.830
X8.540Y4.670
X8.550Y4.550
X8.560Y4.450
X8.560Y4.850
X8.570Y4.690
X8.570Y4.730
X8.590Y3.670
X8.590Y4.550
X8.610Y4.520
X8.610Y4.610
X8.900Y5.690
X8.940Y5.690
T2
X6.550Y3.450
X6.550Y3.550
X6.550Y5.750
X6.550Y5.850
X6.650Y3.450
X6.650Y3.550
X6.650Y5.750
X6.650Y5.850
X6.750Y3.450
X6.750Y3.550
X6.750Y5.750
X6.750Y5.850
X6.850Y3.450
X6.850Y3.550
X6.850Y5.750
X6.850Y5.850
X6.950Y3.450
X6.950Y3.550
X6.950Y5.750
X6.950Y5.850
X7.050Y3.450
X7.050Y3.550
X7.050Y5.750
X7.050Y5.850
X7.100Y4.430
X7.150Y3.450
X7.150Y3.550
X7.150Y5.750
X7.150Y5.850
X7.200Y4.430
X7.250Y3.450
X7.250Y3.550
X7.250Y5.750
X7.250Y5.850
X7.350Y3.450
X7.350Y3.550
X7.350Y5.750
X7.350Y5.850
X7.450Y3.450
X7.450Y3.550
X7.450Y5.750
X7.450Y5.850
X7.550Y3.450
X7.550Y3.550
X7.550Y5.750
X7.550Y5.850
X7.650Y3.450
X7.650Y3.550
X7.650Y5.750
X7.650Y5.850
X7.750Y3.450
X7.750Y3.550
X7.750Y5.750
X7.750Y5.850
X7.850Y3.450
X7.850Y3.550
X7.850Y5.750
X7.850Y5.850
X7.950Y3.450
X7.950Y3.550
X7.950Y5.750
X7.950Y5.850
X8.050Y3.450
X8.050Y3.550
X8.050Y5.750
X8.050Y5.850
X8.150Y3.450
X8.150Y3.550
X8.150Y5.750
X8.150Y5.850
X8.250Y3.450
X8.250Y3.550
X8.250Y5.750
X8.250Y5.850
X8.350Y3.450
X8.350Y3.550
X8.350Y5.750
X8.350Y5.850
X8.450Y3.450
X8.450Y3.550
X8.450Y5.750
X8.450Y5.850
X8.550Y3.450
X8.550Y3.550
X8.550Y5.750
X8.550Y5.850
X8.650Y3.450
X8.650Y3.550
X8.650Y5.750
X8.650Y5.850
X8.750Y3.450
X8.750Y3.550
X8.750Y5.750
X8.750Y5.850
X8.850Y3.450
X8.850Y3.550
X8.850Y5.750
X8.850Y5.850
X8.950Y3.450
X8.950Y3.550
X8.950Y5.750
X8.950Y5.850
X9.050Y3.450
X9.050Y3.550
X9.050Y5.750
X9.050Y5.850
X9.150Y3.450
X9.150Y3.550
X9.150Y5.750
X9.150Y5.850
X9.250Y3.450
X9.250Y3.550
X9.250Y5.750
X9.250Y5.850
X9.350Y3.450
X9.350Y3.550
X9.350Y5.750
X9.350Y5.850
X9.450Y3.450
X9.450Y3.550
X9.450Y5.750
X9.450Y5.850
X9.550Y3.450
X9.550Y3.550
X9.550Y5.750
X9.550Y5.850
X9.650Y3.450
X9.650Y3.550
X9.650Y5.750
X9.650Y5.850
T3
X6.150Y4.950
X6.150Y5.050
X6.150Y5.150
X6.150Y5.250
X6.150Y5.350
X6.150Y5.450
X6.150Y5.550
X6.150Y5.650
X6.150Y5.750
X6.150Y5.850
X6.250Y4.950
X6.250Y5.050
X6.250Y5.150
X6.250Y5.250
X6.250Y5.350
X6.250Y5.450
X6.250Y5.550
X6.250Y5.650
X6.250Y5.750
X6.250Y5.850
X7.150Y4.754
X7.150Y4.946
T4
X7.000Y4.170
X7.000Y4.270
X7.100Y4.170
X7.100Y4.270
X7.200Y4.170
X7.200Y4.270
X9.650Y4.200
X9.650Y4.300
X9.750Y4.200
X9.750Y4.300
T5
X6.126Y3.411
X6.126Y3.589
X6.126Y3.861
X6.126Y4.039
T6
X6.234Y3.362
X6.234Y3.638
X6.234Y3.812
X6.234Y4.088
T0
M30
