G04 (created by PCBNEW-RS274X (2012-01-19 BZR 3256)-stable) date 16/09/2012 01:08:52*
G01*
G70*
G90*
%MOIN*%
G04 Gerber Fmt 3.4, Leading zero omitted, Abs format*
%FSLAX34Y34*%
G04 APERTURE LIST*
%ADD10C,0.006000*%
%ADD11C,0.012000*%
%ADD12C,0.015000*%
%ADD13C,0.005000*%
G04 APERTURE END LIST*
G54D10*
G54D11*
X100615Y-43987D02*
X100615Y-44387D01*
X99815Y-44130D01*
X99815Y-44929D02*
X99815Y-44586D01*
X99815Y-44758D02*
X100615Y-44758D01*
X100501Y-44701D01*
X100425Y-44643D01*
X100387Y-44586D01*
X99891Y-45186D02*
X99853Y-45214D01*
X99815Y-45186D01*
X99853Y-45157D01*
X99891Y-45186D01*
X99815Y-45186D01*
X99815Y-45786D02*
X99815Y-45443D01*
X99815Y-45615D02*
X100615Y-45615D01*
X100501Y-45558D01*
X100425Y-45500D01*
X100387Y-45443D01*
X100539Y-46014D02*
X100577Y-46043D01*
X100615Y-46100D01*
X100615Y-46243D01*
X100577Y-46300D01*
X100539Y-46329D01*
X100463Y-46357D01*
X100387Y-46357D01*
X100272Y-46329D01*
X99815Y-45986D01*
X99815Y-46357D01*
X100615Y-46728D02*
X100615Y-46785D01*
X100577Y-46842D01*
X100539Y-46871D01*
X100463Y-46900D01*
X100310Y-46928D01*
X100120Y-46928D01*
X99968Y-46900D01*
X99891Y-46871D01*
X99853Y-46842D01*
X99815Y-46785D01*
X99815Y-46728D01*
X99853Y-46671D01*
X99891Y-46642D01*
X99968Y-46614D01*
X100120Y-46585D01*
X100310Y-46585D01*
X100463Y-46614D01*
X100539Y-46642D01*
X100577Y-46671D01*
X100615Y-46728D01*
X99815Y-47642D02*
X100349Y-47642D01*
X100272Y-47642D02*
X100310Y-47670D01*
X100349Y-47728D01*
X100349Y-47813D01*
X100310Y-47870D01*
X100234Y-47899D01*
X99815Y-47899D01*
X100234Y-47899D02*
X100310Y-47928D01*
X100349Y-47985D01*
X100349Y-48070D01*
X100310Y-48128D01*
X100234Y-48156D01*
X99815Y-48156D01*
X99815Y-48442D02*
X100349Y-48442D01*
X100272Y-48442D02*
X100310Y-48470D01*
X100349Y-48528D01*
X100349Y-48613D01*
X100310Y-48670D01*
X100234Y-48699D01*
X99815Y-48699D01*
X100234Y-48699D02*
X100310Y-48728D01*
X100349Y-48785D01*
X100349Y-48870D01*
X100310Y-48928D01*
X100234Y-48956D01*
X99815Y-48956D01*
X99499Y-32500D02*
X99499Y-60500D01*
X98500Y-32500D02*
X100779Y-32500D01*
X98500Y-60500D02*
X100779Y-60500D01*
X99499Y-60500D02*
X99269Y-60057D01*
X99499Y-60500D02*
X99729Y-60057D01*
X99499Y-32500D02*
X99269Y-32943D01*
X99499Y-32500D02*
X99729Y-32943D01*
X77072Y-31185D02*
X77187Y-31185D01*
X77244Y-31147D01*
X77272Y-31109D01*
X77330Y-30994D01*
X77358Y-30842D01*
X77358Y-30537D01*
X77330Y-30461D01*
X77301Y-30423D01*
X77244Y-30385D01*
X77130Y-30385D01*
X77072Y-30423D01*
X77044Y-30461D01*
X77015Y-30537D01*
X77015Y-30728D01*
X77044Y-30804D01*
X77072Y-30842D01*
X77130Y-30880D01*
X77244Y-30880D01*
X77301Y-30842D01*
X77330Y-30804D01*
X77358Y-30728D01*
X77872Y-30385D02*
X77758Y-30385D01*
X77701Y-30423D01*
X77672Y-30461D01*
X77615Y-30575D01*
X77586Y-30728D01*
X77586Y-31032D01*
X77615Y-31109D01*
X77643Y-31147D01*
X77701Y-31185D01*
X77815Y-31185D01*
X77872Y-31147D01*
X77901Y-31109D01*
X77929Y-31032D01*
X77929Y-30842D01*
X77901Y-30766D01*
X77872Y-30728D01*
X77815Y-30690D01*
X77701Y-30690D01*
X77643Y-30728D01*
X77615Y-30766D01*
X77586Y-30842D01*
X78186Y-31109D02*
X78214Y-31147D01*
X78186Y-31185D01*
X78157Y-31147D01*
X78186Y-31109D01*
X78186Y-31185D01*
X78758Y-30385D02*
X78472Y-30385D01*
X78443Y-30766D01*
X78472Y-30728D01*
X78529Y-30690D01*
X78672Y-30690D01*
X78729Y-30728D01*
X78758Y-30766D01*
X78786Y-30842D01*
X78786Y-31032D01*
X78758Y-31109D01*
X78729Y-31147D01*
X78672Y-31185D01*
X78529Y-31185D01*
X78472Y-31147D01*
X78443Y-31109D01*
X79014Y-30461D02*
X79043Y-30423D01*
X79100Y-30385D01*
X79243Y-30385D01*
X79300Y-30423D01*
X79329Y-30461D01*
X79357Y-30537D01*
X79357Y-30613D01*
X79329Y-30728D01*
X78986Y-31185D01*
X79357Y-31185D01*
X79728Y-30385D02*
X79785Y-30385D01*
X79842Y-30423D01*
X79871Y-30461D01*
X79900Y-30537D01*
X79928Y-30690D01*
X79928Y-30880D01*
X79900Y-31032D01*
X79871Y-31109D01*
X79842Y-31147D01*
X79785Y-31185D01*
X79728Y-31185D01*
X79671Y-31147D01*
X79642Y-31109D01*
X79614Y-31032D01*
X79585Y-30880D01*
X79585Y-30690D01*
X79614Y-30537D01*
X79642Y-30461D01*
X79671Y-30423D01*
X79728Y-30385D01*
X80642Y-31185D02*
X80642Y-30651D01*
X80642Y-30728D02*
X80670Y-30690D01*
X80728Y-30651D01*
X80813Y-30651D01*
X80870Y-30690D01*
X80899Y-30766D01*
X80899Y-31185D01*
X80899Y-30766D02*
X80928Y-30690D01*
X80985Y-30651D01*
X81070Y-30651D01*
X81128Y-30690D01*
X81156Y-30766D01*
X81156Y-31185D01*
X81442Y-31185D02*
X81442Y-30651D01*
X81442Y-30728D02*
X81470Y-30690D01*
X81528Y-30651D01*
X81613Y-30651D01*
X81670Y-30690D01*
X81699Y-30766D01*
X81699Y-31185D01*
X81699Y-30766D02*
X81728Y-30690D01*
X81785Y-30651D01*
X81870Y-30651D01*
X81928Y-30690D01*
X81956Y-30766D01*
X81956Y-31185D01*
X60500Y-31501D02*
X98500Y-31501D01*
X60500Y-32500D02*
X60500Y-30221D01*
X98500Y-32500D02*
X98500Y-30221D01*
X98500Y-31501D02*
X98057Y-31731D01*
X98500Y-31501D02*
X98057Y-31271D01*
X60500Y-31501D02*
X60943Y-31731D01*
X60500Y-31501D02*
X60943Y-31271D01*
G54D12*
X98500Y-32500D02*
X60500Y-32500D01*
X98500Y-60500D02*
X98500Y-32500D01*
X60500Y-60500D02*
X98500Y-60500D01*
X60500Y-32500D02*
X60500Y-60500D01*
G54D13*
X63173Y-45366D02*
X63169Y-45400D01*
X63159Y-45433D01*
X63143Y-45463D01*
X63121Y-45490D01*
X63094Y-45512D01*
X63064Y-45529D01*
X63031Y-45539D01*
X62997Y-45542D01*
X62963Y-45539D01*
X62930Y-45530D01*
X62900Y-45514D01*
X62873Y-45492D01*
X62850Y-45465D01*
X62834Y-45435D01*
X62823Y-45402D01*
X62820Y-45368D01*
X62822Y-45335D01*
X62832Y-45301D01*
X62848Y-45271D01*
X62869Y-45244D01*
X62895Y-45221D01*
X62926Y-45204D01*
X62958Y-45194D01*
X62993Y-45190D01*
X63026Y-45192D01*
X63060Y-45201D01*
X63090Y-45217D01*
X63118Y-45238D01*
X63140Y-45264D01*
X63157Y-45295D01*
X63168Y-45327D01*
X63172Y-45362D01*
X63173Y-45366D01*
X63173Y-43634D02*
X63169Y-43668D01*
X63159Y-43701D01*
X63143Y-43731D01*
X63121Y-43758D01*
X63094Y-43780D01*
X63064Y-43797D01*
X63031Y-43807D01*
X62997Y-43810D01*
X62963Y-43807D01*
X62930Y-43798D01*
X62900Y-43782D01*
X62873Y-43760D01*
X62850Y-43733D01*
X62834Y-43703D01*
X62823Y-43670D01*
X62820Y-43636D01*
X62822Y-43603D01*
X62832Y-43569D01*
X62848Y-43539D01*
X62869Y-43512D01*
X62895Y-43489D01*
X62926Y-43472D01*
X62958Y-43462D01*
X62993Y-43458D01*
X63026Y-43460D01*
X63060Y-43469D01*
X63090Y-43485D01*
X63118Y-43506D01*
X63140Y-43532D01*
X63157Y-43563D01*
X63168Y-43595D01*
X63172Y-43630D01*
X63173Y-43634D01*
M02*
