G04 (created by PCBNEW-RS274X (2012-01-19 BZR 3256)-stable) date 16/09/2012 01:08:52*
G01*
G70*
G90*
%MOIN*%
G04 Gerber Fmt 3.4, Leading zero omitted, Abs format*
%FSLAX34Y34*%
G04 APERTURE LIST*
%ADD10C,0.006000*%
%ADD11C,0.060000*%
%ADD12R,0.060000X0.060000*%
%ADD13C,0.086600*%
%ADD14C,0.066900*%
%ADD15C,0.025000*%
%ADD16C,0.008000*%
%ADD17C,0.020000*%
%ADD18C,0.010000*%
G04 APERTURE END LIST*
G54D10*
G54D11*
X61500Y-58500D03*
X62500Y-57500D03*
G54D12*
X62500Y-58500D03*
G54D11*
X61500Y-57500D03*
X62500Y-56500D03*
X61500Y-56500D03*
X62500Y-55500D03*
X61500Y-55500D03*
X62500Y-54500D03*
X61500Y-54500D03*
X62500Y-53500D03*
X61500Y-53500D03*
X62500Y-52500D03*
X61500Y-52500D03*
X62500Y-51500D03*
X61500Y-51500D03*
X62500Y-50500D03*
X61500Y-50500D03*
X62500Y-49500D03*
X61500Y-49500D03*
X71500Y-47539D03*
X71500Y-49461D03*
X71000Y-44300D03*
X72000Y-44300D03*
G54D12*
X70000Y-41700D03*
G54D11*
X71000Y-41700D03*
X72000Y-41700D03*
G54D12*
X70000Y-42700D03*
G54D11*
X71000Y-42700D03*
X72000Y-42700D03*
G54D13*
X62341Y-33622D03*
X62341Y-36378D03*
G54D14*
X61258Y-34114D03*
X61258Y-35886D03*
G54D13*
X62341Y-38122D03*
X62341Y-40878D03*
G54D14*
X61258Y-38614D03*
X61258Y-40386D03*
G54D12*
X96500Y-34500D03*
G54D11*
X96500Y-35500D03*
X95500Y-34500D03*
X95500Y-35500D03*
X94500Y-34500D03*
X94500Y-35500D03*
X93500Y-34500D03*
X93500Y-35500D03*
X92500Y-34500D03*
X92500Y-35500D03*
X91500Y-34500D03*
X91500Y-35500D03*
X90500Y-34500D03*
X90500Y-35500D03*
X89500Y-34500D03*
X89500Y-35500D03*
X88500Y-34500D03*
X88500Y-35500D03*
X87500Y-34500D03*
X87500Y-35500D03*
X86500Y-34500D03*
X86500Y-35500D03*
X85500Y-34500D03*
X85500Y-35500D03*
X84500Y-34500D03*
X84500Y-35500D03*
X83500Y-34500D03*
X83500Y-35500D03*
X82500Y-34500D03*
X82500Y-35500D03*
X81500Y-34500D03*
X81500Y-35500D03*
X80500Y-34500D03*
X80500Y-35500D03*
X79500Y-34500D03*
X79500Y-35500D03*
X78500Y-34500D03*
X78500Y-35500D03*
X77500Y-34500D03*
X77500Y-35500D03*
X76500Y-34500D03*
X76500Y-35500D03*
X75500Y-34500D03*
X75500Y-35500D03*
X74500Y-34500D03*
X74500Y-35500D03*
X73500Y-34500D03*
X73500Y-35500D03*
X72500Y-34500D03*
X72500Y-35500D03*
X71500Y-34500D03*
X71500Y-35500D03*
X70500Y-34500D03*
X70500Y-35500D03*
X69500Y-34500D03*
X69500Y-35500D03*
X68500Y-34500D03*
X68500Y-35500D03*
X67500Y-34500D03*
X67500Y-35500D03*
X66500Y-34500D03*
X66500Y-35500D03*
X65500Y-34500D03*
X65500Y-35500D03*
G54D12*
X65500Y-58500D03*
G54D11*
X65500Y-57500D03*
X66500Y-58500D03*
X66500Y-57500D03*
X67500Y-58500D03*
X67500Y-57500D03*
X68500Y-58500D03*
X68500Y-57500D03*
X69500Y-58500D03*
X69500Y-57500D03*
X70500Y-58500D03*
X70500Y-57500D03*
X71500Y-58500D03*
X71500Y-57500D03*
X72500Y-58500D03*
X72500Y-57500D03*
X73500Y-58500D03*
X73500Y-57500D03*
X74500Y-58500D03*
X74500Y-57500D03*
X75500Y-58500D03*
X75500Y-57500D03*
X76500Y-58500D03*
X76500Y-57500D03*
X77500Y-58500D03*
X77500Y-57500D03*
X78500Y-58500D03*
X78500Y-57500D03*
X79500Y-58500D03*
X79500Y-57500D03*
X80500Y-58500D03*
X80500Y-57500D03*
X81500Y-58500D03*
X81500Y-57500D03*
X82500Y-58500D03*
X82500Y-57500D03*
X83500Y-58500D03*
X83500Y-57500D03*
X84500Y-58500D03*
X84500Y-57500D03*
X85500Y-58500D03*
X85500Y-57500D03*
X86500Y-58500D03*
X86500Y-57500D03*
X87500Y-58500D03*
X87500Y-57500D03*
X88500Y-58500D03*
X88500Y-57500D03*
X89500Y-58500D03*
X89500Y-57500D03*
X90500Y-58500D03*
X90500Y-57500D03*
X91500Y-58500D03*
X91500Y-57500D03*
X92500Y-58500D03*
X92500Y-57500D03*
X93500Y-58500D03*
X93500Y-57500D03*
X94500Y-58500D03*
X94500Y-57500D03*
X95500Y-58500D03*
X95500Y-57500D03*
X96500Y-58500D03*
X96500Y-57500D03*
G54D12*
X97500Y-43000D03*
G54D11*
X96500Y-43000D03*
X97500Y-42000D03*
X96500Y-42000D03*
G54D15*
X68400Y-51000D03*
X68400Y-44000D03*
X74500Y-46300D03*
X74400Y-46700D03*
X74700Y-46900D03*
X75000Y-47100D03*
X72600Y-41200D03*
X66000Y-36000D03*
X80200Y-46300D03*
X77000Y-51800D03*
X85700Y-47300D03*
X85700Y-46900D03*
X85400Y-46700D03*
X85100Y-46500D03*
X85600Y-48500D03*
X85300Y-48300D03*
X85000Y-48100D03*
X74300Y-43500D03*
X74500Y-43800D03*
X74700Y-44100D03*
X75100Y-44100D03*
X74300Y-43100D03*
X79600Y-40700D03*
X79400Y-41000D03*
X81800Y-41400D03*
X84900Y-47700D03*
X85200Y-47500D03*
X82700Y-41000D03*
X82400Y-40800D03*
X77800Y-41500D03*
X80700Y-40200D03*
X89400Y-56900D03*
X80300Y-40200D03*
X79900Y-40200D03*
X80000Y-40700D03*
X77000Y-41200D03*
X81800Y-40800D03*
X89000Y-56900D03*
X77000Y-40800D03*
X81100Y-40600D03*
X81200Y-41600D03*
X81100Y-46300D03*
X80800Y-46500D03*
X74750Y-48050D03*
X74750Y-48400D03*
X74400Y-48500D03*
X74400Y-48900D03*
X77000Y-36900D03*
X77700Y-52500D03*
X78100Y-52700D03*
X77500Y-36900D03*
X85100Y-45500D03*
X85500Y-45500D03*
X83000Y-51700D03*
X83200Y-51400D03*
X85000Y-36100D03*
X71400Y-51100D03*
X85600Y-44500D03*
X77600Y-52100D03*
X74500Y-36600D03*
X85300Y-44300D03*
X78400Y-51700D03*
X85000Y-44100D03*
X78600Y-51400D03*
X77800Y-41100D03*
X77400Y-51800D03*
X84200Y-36200D03*
X83900Y-36500D03*
X85900Y-45500D03*
X86100Y-45200D03*
X85000Y-50700D03*
X85200Y-51000D03*
X84400Y-51000D03*
X84800Y-51000D03*
X82400Y-36100D03*
X80500Y-46000D03*
X81000Y-45700D03*
X77000Y-52200D03*
X74900Y-50400D03*
X75000Y-50800D03*
X75600Y-50900D03*
X75300Y-51100D03*
X67500Y-43000D03*
X67500Y-43400D03*
X67500Y-43800D03*
X79900Y-47100D03*
X86100Y-46100D03*
X77000Y-42800D03*
X81400Y-52800D03*
X83000Y-52800D03*
X83600Y-46900D03*
X83000Y-47800D03*
X85900Y-36700D03*
X72700Y-44400D03*
X80700Y-43100D03*
X80400Y-49300D03*
X71900Y-48200D03*
X77200Y-52700D03*
X79200Y-41300D03*
X75000Y-46100D03*
X72700Y-43700D03*
X72600Y-49600D03*
X83100Y-36500D03*
X64600Y-46500D03*
X81700Y-45100D03*
X76300Y-45200D03*
X81500Y-48300D03*
X83900Y-51700D03*
X78600Y-48700D03*
X82800Y-47100D03*
X72300Y-52500D03*
X80600Y-50200D03*
X79000Y-41000D03*
X70800Y-51000D03*
X68800Y-46500D03*
X80400Y-42800D03*
G54D16*
X76900Y-51700D02*
X76900Y-45100D01*
X77000Y-51800D02*
X76900Y-51700D01*
X71000Y-35700D02*
X73600Y-38300D01*
X71000Y-35300D02*
X71000Y-35700D01*
X68500Y-34500D02*
X69000Y-35000D01*
X69000Y-35000D02*
X70700Y-35000D01*
X76900Y-45100D02*
X73600Y-41800D01*
X70700Y-35000D02*
X71000Y-35300D01*
X73600Y-38300D02*
X73600Y-41800D01*
X74200Y-43600D02*
X74200Y-44400D01*
X75900Y-46100D02*
X75900Y-56100D01*
X74300Y-43500D02*
X74200Y-43600D01*
X74200Y-44400D02*
X75900Y-46100D01*
X75900Y-56100D02*
X74500Y-57500D01*
X76100Y-56200D02*
X75000Y-57300D01*
X74400Y-43900D02*
X74400Y-44300D01*
X75000Y-57300D02*
X75000Y-58000D01*
X76100Y-46000D02*
X76100Y-56200D01*
X74400Y-43900D02*
X74500Y-43800D01*
X74400Y-44300D02*
X76100Y-46000D01*
X75000Y-58000D02*
X75500Y-58500D01*
X74700Y-44300D02*
X76300Y-45900D01*
X76300Y-45900D02*
X76300Y-56700D01*
X74700Y-44100D02*
X74700Y-44300D01*
X76300Y-56700D02*
X75500Y-57500D01*
X76000Y-58000D02*
X76500Y-58500D01*
X76500Y-56800D02*
X76000Y-57300D01*
X75100Y-44400D02*
X76500Y-45800D01*
X75100Y-44100D02*
X75100Y-44400D01*
X76000Y-57300D02*
X76000Y-58000D01*
X76500Y-45800D02*
X76500Y-56800D01*
X76700Y-57300D02*
X76700Y-45200D01*
X76700Y-45200D02*
X74600Y-43100D01*
X74600Y-43100D02*
X74300Y-43100D01*
X76700Y-57300D02*
X76500Y-57500D01*
X77000Y-36900D02*
X77300Y-37200D01*
X77300Y-44000D02*
X77900Y-44600D01*
X77800Y-52400D02*
X78800Y-52400D01*
X77700Y-52500D02*
X77800Y-52400D01*
X79100Y-52100D02*
X79100Y-51200D01*
X77900Y-50000D02*
X77900Y-44600D01*
X79100Y-51200D02*
X77900Y-50000D01*
X77300Y-37200D02*
X77300Y-44000D01*
X78800Y-52400D02*
X79100Y-52100D01*
X78100Y-49900D02*
X78100Y-44500D01*
X78900Y-52600D02*
X79300Y-52200D01*
X78100Y-52700D02*
X78200Y-52600D01*
X79300Y-51100D02*
X78100Y-49900D01*
X79300Y-52200D02*
X79300Y-51100D01*
X78200Y-52600D02*
X78900Y-52600D01*
X77500Y-43900D02*
X77500Y-36900D01*
X78100Y-44500D02*
X77500Y-43900D01*
X85900Y-44700D02*
X85900Y-40000D01*
X77000Y-35700D02*
X77300Y-36000D01*
X77300Y-36000D02*
X81900Y-36000D01*
X76500Y-34500D02*
X77000Y-35000D01*
X77000Y-35700D02*
X77000Y-35000D01*
X81900Y-36000D02*
X85900Y-40000D01*
X85100Y-45500D02*
X85900Y-44700D01*
X82700Y-34000D02*
X83000Y-34300D01*
X83500Y-37300D02*
X86100Y-39900D01*
X86100Y-44800D02*
X86100Y-39900D01*
X76000Y-34300D02*
X76300Y-34000D01*
X76300Y-34000D02*
X82700Y-34000D01*
X76500Y-35500D02*
X76000Y-35000D01*
X76000Y-35000D02*
X76000Y-34300D01*
X83500Y-35500D02*
X83500Y-37300D01*
X83000Y-34300D02*
X83000Y-35000D01*
X83000Y-35000D02*
X83500Y-35500D01*
X85500Y-45400D02*
X86100Y-44800D01*
X85500Y-45500D02*
X85500Y-45400D01*
X92500Y-34500D02*
X93000Y-35000D01*
X93000Y-35700D02*
X92500Y-36200D01*
X83300Y-51700D02*
X86900Y-48100D01*
X87500Y-36200D02*
X92500Y-36200D01*
X93000Y-35000D02*
X93000Y-35700D01*
X86900Y-36800D02*
X87500Y-36200D01*
X83000Y-51700D02*
X83300Y-51700D01*
X86900Y-48100D02*
X86900Y-36800D01*
X92500Y-35500D02*
X92000Y-36000D01*
X86700Y-48000D02*
X86700Y-36700D01*
X83300Y-51400D02*
X86700Y-48000D01*
X83200Y-51400D02*
X83300Y-51400D01*
X87400Y-36000D02*
X92000Y-36000D01*
X86700Y-36700D02*
X87400Y-36000D01*
X75000Y-35000D02*
X75700Y-35000D01*
X81800Y-36200D02*
X85600Y-40000D01*
X76000Y-35700D02*
X76500Y-36200D01*
X75000Y-35000D02*
X74500Y-34500D01*
X76500Y-36200D02*
X81800Y-36200D01*
X76000Y-35300D02*
X76000Y-35700D01*
X75700Y-35000D02*
X76000Y-35300D01*
X85600Y-40000D02*
X85600Y-44500D01*
X78900Y-52000D02*
X78900Y-51300D01*
X78700Y-52200D02*
X78900Y-52000D01*
X77700Y-52200D02*
X78700Y-52200D01*
X77600Y-52100D02*
X77700Y-52200D01*
X74500Y-41500D02*
X74500Y-36600D01*
X78900Y-51300D02*
X77700Y-50100D01*
X77700Y-50100D02*
X77700Y-44700D01*
X77700Y-44700D02*
X74500Y-41500D01*
X75700Y-36400D02*
X81700Y-36400D01*
X81700Y-36400D02*
X85300Y-40000D01*
X74700Y-35000D02*
X75000Y-35300D01*
X85300Y-40000D02*
X85300Y-44300D01*
X75000Y-35700D02*
X75700Y-36400D01*
X73500Y-34500D02*
X74000Y-35000D01*
X74000Y-35000D02*
X74700Y-35000D01*
X75000Y-35300D02*
X75000Y-35700D01*
X77500Y-44800D02*
X74200Y-41500D01*
X78400Y-51700D02*
X77500Y-50800D01*
X74200Y-36200D02*
X74200Y-41500D01*
X77500Y-50800D02*
X77500Y-44800D01*
X73500Y-35500D02*
X74200Y-36200D01*
X81600Y-36600D02*
X85000Y-40000D01*
X74000Y-35700D02*
X74900Y-36600D01*
X74000Y-35300D02*
X74000Y-35700D01*
X74900Y-36600D02*
X81600Y-36600D01*
X73700Y-35000D02*
X74000Y-35300D01*
X72500Y-34500D02*
X73000Y-35000D01*
X73000Y-35000D02*
X73700Y-35000D01*
X85000Y-40000D02*
X85000Y-44100D01*
X74000Y-37000D02*
X74000Y-41600D01*
X78300Y-52000D02*
X77300Y-51000D01*
X78700Y-51800D02*
X78500Y-52000D01*
X78500Y-52000D02*
X78300Y-52000D01*
X78700Y-51500D02*
X78700Y-51800D01*
X77300Y-44900D02*
X74000Y-41600D01*
X77300Y-51000D02*
X77300Y-44900D01*
X78600Y-51400D02*
X78700Y-51500D01*
X72500Y-35500D02*
X74000Y-37000D01*
X72000Y-35300D02*
X72000Y-35700D01*
X71700Y-35000D02*
X72000Y-35300D01*
X72000Y-35700D02*
X73800Y-37500D01*
X70500Y-34500D02*
X71000Y-35000D01*
X73800Y-37500D02*
X73800Y-41700D01*
X71000Y-35000D02*
X71700Y-35000D01*
X77100Y-45000D02*
X73800Y-41700D01*
X77100Y-51500D02*
X77100Y-45000D01*
X77400Y-51800D02*
X77100Y-51500D01*
X86000Y-35000D02*
X85500Y-34500D01*
X86200Y-45500D02*
X86500Y-45200D01*
X86500Y-36200D02*
X86000Y-35700D01*
X86000Y-35700D02*
X86000Y-35000D01*
X85900Y-45500D02*
X86200Y-45500D01*
X86500Y-45200D02*
X86500Y-36200D01*
X86300Y-45000D02*
X86300Y-36300D01*
X86100Y-45200D02*
X86300Y-45000D01*
X86300Y-36300D02*
X85500Y-35500D01*
X85000Y-50600D02*
X87300Y-48300D01*
X87300Y-48300D02*
X87300Y-37000D01*
X87700Y-36600D02*
X95100Y-36600D01*
X85000Y-50700D02*
X85000Y-50600D01*
X95500Y-34500D02*
X96000Y-35000D01*
X96000Y-35000D02*
X96000Y-35700D01*
X87300Y-37000D02*
X87700Y-36600D01*
X96000Y-35700D02*
X95100Y-36600D01*
X87500Y-37100D02*
X87800Y-36800D01*
X85300Y-50900D02*
X85300Y-50600D01*
X85200Y-51000D02*
X85300Y-50900D01*
X87500Y-48400D02*
X87500Y-37100D01*
X87800Y-36800D02*
X95200Y-36800D01*
X96500Y-35500D02*
X95200Y-36800D01*
X85300Y-50600D02*
X87500Y-48400D01*
X84400Y-50900D02*
X87100Y-48200D01*
X87100Y-48200D02*
X87100Y-36900D01*
X95500Y-35500D02*
X94600Y-36400D01*
X87100Y-36900D02*
X87600Y-36400D01*
X87600Y-36400D02*
X94600Y-36400D01*
X84400Y-51000D02*
X84400Y-50900D01*
X87700Y-37200D02*
X87900Y-37000D01*
X97000Y-35700D02*
X95700Y-37000D01*
X84800Y-51000D02*
X85100Y-51300D01*
X96500Y-34500D02*
X97000Y-35000D01*
X85500Y-50700D02*
X87700Y-48500D01*
X87900Y-37000D02*
X95700Y-37000D01*
X85100Y-51300D02*
X85300Y-51300D01*
X85500Y-51100D02*
X85500Y-50700D01*
X97000Y-35000D02*
X97000Y-35700D01*
X85300Y-51300D02*
X85500Y-51100D01*
X87700Y-48500D02*
X87700Y-37200D01*
X83600Y-46900D02*
X83600Y-47200D01*
X79300Y-41300D02*
X80700Y-42700D01*
X83600Y-47200D02*
X83000Y-47800D01*
X64600Y-41956D02*
X61258Y-38614D01*
X83600Y-46000D02*
X83600Y-46900D01*
X81500Y-49300D02*
X80400Y-49300D01*
X86100Y-46100D02*
X84400Y-46100D01*
X64600Y-46500D02*
X64600Y-41956D01*
G54D17*
X91800Y-52800D02*
X96500Y-57500D01*
X83000Y-52800D02*
X91800Y-52800D01*
G54D16*
X84400Y-46100D02*
X83600Y-46900D01*
X81500Y-49300D02*
X83000Y-47800D01*
X80700Y-43100D02*
X83600Y-46000D01*
X79200Y-41300D02*
X79300Y-41300D01*
X80700Y-42700D02*
X80700Y-43100D01*
G54D10*
G36*
X77010Y-43600D02*
X74790Y-41380D01*
X74790Y-36868D01*
X74899Y-36889D01*
X74900Y-36890D01*
X76625Y-36890D01*
X76625Y-36974D01*
X76682Y-37112D01*
X76787Y-37217D01*
X76925Y-37275D01*
X76965Y-37275D01*
X77010Y-37320D01*
X77010Y-40425D01*
X76926Y-40425D01*
X76788Y-40482D01*
X76683Y-40587D01*
X76625Y-40725D01*
X76625Y-40874D01*
X76677Y-41000D01*
X76625Y-41125D01*
X76625Y-41274D01*
X76682Y-41412D01*
X76787Y-41517D01*
X76925Y-41575D01*
X77010Y-41575D01*
X77010Y-43600D01*
X77010Y-43600D01*
G37*
G54D18*
X77010Y-43600D02*
X74790Y-41380D01*
X74790Y-36868D01*
X74899Y-36889D01*
X74900Y-36890D01*
X76625Y-36890D01*
X76625Y-36974D01*
X76682Y-37112D01*
X76787Y-37217D01*
X76925Y-37275D01*
X76965Y-37275D01*
X77010Y-37320D01*
X77010Y-40425D01*
X76926Y-40425D01*
X76788Y-40482D01*
X76683Y-40587D01*
X76625Y-40725D01*
X76625Y-40874D01*
X76677Y-41000D01*
X76625Y-41125D01*
X76625Y-41274D01*
X76682Y-41412D01*
X76787Y-41517D01*
X76925Y-41575D01*
X77010Y-41575D01*
X77010Y-43600D01*
G54D10*
G36*
X83210Y-36900D02*
X82670Y-36360D01*
X82717Y-36313D01*
X82775Y-36175D01*
X82775Y-36026D01*
X82758Y-35986D01*
X82811Y-35965D01*
X82965Y-35811D01*
X83000Y-35726D01*
X83035Y-35811D01*
X83189Y-35965D01*
X83210Y-35973D01*
X83210Y-36900D01*
X83210Y-36900D01*
G37*
G54D18*
X83210Y-36900D02*
X82670Y-36360D01*
X82717Y-36313D01*
X82775Y-36175D01*
X82775Y-36026D01*
X82758Y-35986D01*
X82811Y-35965D01*
X82965Y-35811D01*
X83000Y-35726D01*
X83035Y-35811D01*
X83189Y-35965D01*
X83210Y-35973D01*
X83210Y-36900D01*
G54D10*
G36*
X86010Y-39400D02*
X83790Y-37180D01*
X83790Y-36860D01*
X83825Y-36875D01*
X83974Y-36875D01*
X84112Y-36818D01*
X84217Y-36713D01*
X84274Y-36575D01*
X84275Y-36575D01*
X84275Y-36574D01*
X84412Y-36518D01*
X84517Y-36413D01*
X84575Y-36275D01*
X84575Y-36126D01*
X84543Y-36049D01*
X84609Y-36049D01*
X84625Y-36042D01*
X84625Y-36174D01*
X84682Y-36312D01*
X84787Y-36417D01*
X84925Y-36475D01*
X85074Y-36475D01*
X85212Y-36418D01*
X85317Y-36313D01*
X85375Y-36175D01*
X85375Y-36042D01*
X85391Y-36049D01*
X85609Y-36049D01*
X85630Y-36040D01*
X86010Y-36420D01*
X86010Y-39400D01*
X86010Y-39400D01*
G37*
G54D18*
X86010Y-39400D02*
X83790Y-37180D01*
X83790Y-36860D01*
X83825Y-36875D01*
X83974Y-36875D01*
X84112Y-36818D01*
X84217Y-36713D01*
X84274Y-36575D01*
X84275Y-36575D01*
X84275Y-36574D01*
X84412Y-36518D01*
X84517Y-36413D01*
X84575Y-36275D01*
X84575Y-36126D01*
X84543Y-36049D01*
X84609Y-36049D01*
X84625Y-36042D01*
X84625Y-36174D01*
X84682Y-36312D01*
X84787Y-36417D01*
X84925Y-36475D01*
X85074Y-36475D01*
X85212Y-36418D01*
X85317Y-36313D01*
X85375Y-36175D01*
X85375Y-36042D01*
X85391Y-36049D01*
X85609Y-36049D01*
X85630Y-36040D01*
X86010Y-36420D01*
X86010Y-39400D01*
G54D10*
G36*
X98175Y-60175D02*
X98049Y-60175D01*
X98049Y-43350D01*
X98049Y-43251D01*
X98049Y-42651D01*
X98011Y-42559D01*
X97941Y-42489D01*
X97850Y-42451D01*
X97825Y-42451D01*
X97965Y-42311D01*
X98049Y-42109D01*
X98049Y-41891D01*
X97965Y-41689D01*
X97811Y-41535D01*
X97609Y-41451D01*
X97391Y-41451D01*
X97290Y-41493D01*
X97290Y-35700D01*
X97290Y-35000D01*
X97268Y-34889D01*
X97205Y-34795D01*
X97049Y-34639D01*
X97049Y-34151D01*
X97011Y-34059D01*
X96941Y-33989D01*
X96850Y-33951D01*
X96751Y-33951D01*
X96151Y-33951D01*
X96059Y-33989D01*
X95989Y-34059D01*
X95951Y-34150D01*
X95951Y-34175D01*
X95811Y-34035D01*
X95609Y-33951D01*
X95391Y-33951D01*
X95189Y-34035D01*
X95035Y-34189D01*
X95000Y-34273D01*
X94965Y-34189D01*
X94811Y-34035D01*
X94609Y-33951D01*
X94391Y-33951D01*
X94189Y-34035D01*
X94035Y-34189D01*
X94000Y-34273D01*
X93965Y-34189D01*
X93811Y-34035D01*
X93609Y-33951D01*
X93391Y-33951D01*
X93189Y-34035D01*
X93035Y-34189D01*
X93000Y-34273D01*
X92965Y-34189D01*
X92811Y-34035D01*
X92609Y-33951D01*
X92391Y-33951D01*
X92189Y-34035D01*
X92035Y-34189D01*
X92000Y-34273D01*
X91965Y-34189D01*
X91811Y-34035D01*
X91609Y-33951D01*
X91391Y-33951D01*
X91189Y-34035D01*
X91035Y-34189D01*
X91000Y-34273D01*
X90965Y-34189D01*
X90811Y-34035D01*
X90609Y-33951D01*
X90391Y-33951D01*
X90189Y-34035D01*
X90035Y-34189D01*
X90000Y-34273D01*
X89965Y-34189D01*
X89811Y-34035D01*
X89609Y-33951D01*
X89391Y-33951D01*
X89189Y-34035D01*
X89035Y-34189D01*
X89000Y-34273D01*
X88965Y-34189D01*
X88811Y-34035D01*
X88609Y-33951D01*
X88391Y-33951D01*
X88189Y-34035D01*
X88035Y-34189D01*
X88000Y-34273D01*
X87965Y-34189D01*
X87811Y-34035D01*
X87609Y-33951D01*
X87391Y-33951D01*
X87189Y-34035D01*
X87035Y-34189D01*
X87000Y-34273D01*
X86965Y-34189D01*
X86811Y-34035D01*
X86609Y-33951D01*
X86391Y-33951D01*
X86189Y-34035D01*
X86035Y-34189D01*
X86000Y-34273D01*
X85965Y-34189D01*
X85811Y-34035D01*
X85609Y-33951D01*
X85391Y-33951D01*
X85189Y-34035D01*
X85035Y-34189D01*
X85000Y-34273D01*
X84965Y-34189D01*
X84811Y-34035D01*
X84609Y-33951D01*
X84391Y-33951D01*
X84189Y-34035D01*
X84035Y-34189D01*
X84000Y-34273D01*
X83965Y-34189D01*
X83811Y-34035D01*
X83609Y-33951D01*
X83391Y-33951D01*
X83189Y-34035D01*
X83167Y-34057D01*
X82905Y-33795D01*
X82811Y-33732D01*
X82700Y-33710D01*
X76300Y-33710D01*
X76189Y-33732D01*
X76095Y-33795D01*
X75833Y-34057D01*
X75811Y-34035D01*
X75609Y-33951D01*
X75391Y-33951D01*
X75189Y-34035D01*
X75035Y-34189D01*
X75000Y-34273D01*
X74965Y-34189D01*
X74811Y-34035D01*
X74609Y-33951D01*
X74391Y-33951D01*
X74189Y-34035D01*
X74035Y-34189D01*
X74000Y-34273D01*
X73965Y-34189D01*
X73811Y-34035D01*
X73609Y-33951D01*
X73391Y-33951D01*
X73189Y-34035D01*
X73035Y-34189D01*
X73000Y-34273D01*
X72965Y-34189D01*
X72811Y-34035D01*
X72609Y-33951D01*
X72391Y-33951D01*
X72189Y-34035D01*
X72035Y-34189D01*
X72000Y-34273D01*
X71965Y-34189D01*
X71811Y-34035D01*
X71609Y-33951D01*
X71391Y-33951D01*
X71189Y-34035D01*
X71035Y-34189D01*
X71000Y-34273D01*
X70965Y-34189D01*
X70811Y-34035D01*
X70609Y-33951D01*
X70391Y-33951D01*
X70189Y-34035D01*
X70035Y-34189D01*
X69997Y-34280D01*
X69972Y-34219D01*
X69878Y-34192D01*
X69808Y-34262D01*
X69808Y-34122D01*
X69781Y-34028D01*
X69579Y-33957D01*
X69366Y-33968D01*
X69219Y-34028D01*
X69192Y-34122D01*
X69500Y-34429D01*
X69808Y-34122D01*
X69808Y-34262D01*
X69571Y-34500D01*
X69500Y-34571D01*
X69429Y-34500D01*
X69394Y-34465D01*
X69122Y-34192D01*
X69028Y-34219D01*
X69004Y-34284D01*
X68965Y-34189D01*
X68811Y-34035D01*
X68609Y-33951D01*
X68391Y-33951D01*
X68189Y-34035D01*
X68035Y-34189D01*
X68000Y-34273D01*
X67965Y-34189D01*
X67811Y-34035D01*
X67609Y-33951D01*
X67391Y-33951D01*
X67189Y-34035D01*
X67035Y-34189D01*
X67000Y-34273D01*
X66965Y-34189D01*
X66811Y-34035D01*
X66609Y-33951D01*
X66391Y-33951D01*
X66189Y-34035D01*
X66035Y-34189D01*
X66000Y-34273D01*
X65965Y-34189D01*
X65811Y-34035D01*
X65609Y-33951D01*
X65391Y-33951D01*
X65189Y-34035D01*
X65035Y-34189D01*
X64951Y-34391D01*
X64951Y-34609D01*
X65035Y-34811D01*
X65189Y-34965D01*
X65273Y-35000D01*
X65189Y-35035D01*
X65035Y-35189D01*
X64951Y-35391D01*
X64951Y-35609D01*
X65035Y-35811D01*
X65189Y-35965D01*
X65391Y-36049D01*
X65609Y-36049D01*
X65625Y-36042D01*
X65625Y-36074D01*
X65682Y-36212D01*
X65787Y-36317D01*
X65925Y-36375D01*
X66074Y-36375D01*
X66212Y-36318D01*
X66317Y-36213D01*
X66375Y-36075D01*
X66375Y-36042D01*
X66391Y-36049D01*
X66609Y-36049D01*
X66811Y-35965D01*
X66965Y-35811D01*
X67000Y-35726D01*
X67035Y-35811D01*
X67189Y-35965D01*
X67391Y-36049D01*
X67609Y-36049D01*
X67811Y-35965D01*
X67965Y-35811D01*
X68000Y-35726D01*
X68035Y-35811D01*
X68189Y-35965D01*
X68391Y-36049D01*
X68609Y-36049D01*
X68811Y-35965D01*
X68965Y-35811D01*
X69002Y-35719D01*
X69028Y-35781D01*
X69122Y-35808D01*
X69394Y-35535D01*
X69429Y-35500D01*
X69500Y-35429D01*
X69571Y-35500D01*
X69606Y-35535D01*
X69878Y-35808D01*
X69972Y-35781D01*
X69995Y-35715D01*
X70035Y-35811D01*
X70189Y-35965D01*
X70391Y-36049D01*
X70609Y-36049D01*
X70811Y-35965D01*
X70833Y-35943D01*
X73310Y-38420D01*
X73310Y-41800D01*
X73332Y-41911D01*
X73395Y-42005D01*
X74147Y-42757D01*
X74088Y-42782D01*
X73983Y-42887D01*
X73925Y-43025D01*
X73925Y-43174D01*
X73977Y-43300D01*
X73925Y-43425D01*
X73925Y-43524D01*
X73910Y-43600D01*
X73910Y-44400D01*
X73932Y-44511D01*
X73995Y-44605D01*
X75610Y-46220D01*
X75610Y-50525D01*
X75526Y-50525D01*
X75388Y-50582D01*
X75375Y-50594D01*
X75375Y-47175D01*
X75375Y-47026D01*
X75318Y-46888D01*
X75213Y-46783D01*
X75075Y-46725D01*
X75033Y-46725D01*
X75018Y-46688D01*
X74913Y-46583D01*
X74796Y-46533D01*
X74817Y-46513D01*
X74875Y-46375D01*
X74875Y-46226D01*
X74818Y-46088D01*
X74713Y-45983D01*
X74575Y-45925D01*
X74426Y-45925D01*
X74288Y-45982D01*
X74183Y-46087D01*
X74125Y-46225D01*
X74125Y-46374D01*
X74145Y-46424D01*
X74083Y-46487D01*
X74025Y-46625D01*
X74025Y-46774D01*
X74082Y-46912D01*
X74187Y-47017D01*
X74325Y-47075D01*
X74366Y-47075D01*
X74382Y-47112D01*
X74487Y-47217D01*
X74625Y-47275D01*
X74666Y-47275D01*
X74682Y-47312D01*
X74787Y-47417D01*
X74925Y-47475D01*
X75074Y-47475D01*
X75212Y-47418D01*
X75317Y-47313D01*
X75375Y-47175D01*
X75375Y-50594D01*
X75336Y-50633D01*
X75318Y-50588D01*
X75254Y-50524D01*
X75275Y-50475D01*
X75275Y-50326D01*
X75218Y-50188D01*
X75125Y-50095D01*
X75125Y-48475D01*
X75125Y-48326D01*
X75083Y-48224D01*
X75125Y-48125D01*
X75125Y-47976D01*
X75068Y-47838D01*
X74963Y-47733D01*
X74825Y-47675D01*
X74676Y-47675D01*
X74538Y-47732D01*
X74433Y-47837D01*
X74375Y-47975D01*
X74375Y-48124D01*
X74375Y-48125D01*
X74326Y-48125D01*
X74188Y-48182D01*
X74083Y-48287D01*
X74025Y-48425D01*
X74025Y-48574D01*
X74077Y-48700D01*
X74025Y-48825D01*
X74025Y-48974D01*
X74082Y-49112D01*
X74187Y-49217D01*
X74325Y-49275D01*
X74474Y-49275D01*
X74612Y-49218D01*
X74717Y-49113D01*
X74775Y-48975D01*
X74775Y-48826D01*
X74753Y-48775D01*
X74824Y-48775D01*
X74962Y-48718D01*
X75067Y-48613D01*
X75125Y-48475D01*
X75125Y-50095D01*
X75113Y-50083D01*
X74975Y-50025D01*
X74826Y-50025D01*
X74688Y-50082D01*
X74583Y-50187D01*
X74525Y-50325D01*
X74525Y-50474D01*
X74582Y-50612D01*
X74645Y-50675D01*
X74625Y-50725D01*
X74625Y-50874D01*
X74682Y-51012D01*
X74787Y-51117D01*
X74925Y-51175D01*
X74982Y-51312D01*
X75087Y-51417D01*
X75225Y-51475D01*
X75374Y-51475D01*
X75512Y-51418D01*
X75610Y-51320D01*
X75610Y-55980D01*
X74630Y-56959D01*
X74609Y-56951D01*
X74391Y-56951D01*
X74189Y-57035D01*
X74035Y-57189D01*
X74000Y-57273D01*
X73965Y-57189D01*
X73811Y-57035D01*
X73609Y-56951D01*
X73391Y-56951D01*
X73189Y-57035D01*
X73035Y-57189D01*
X73000Y-57273D01*
X72975Y-57213D01*
X72975Y-41275D01*
X72975Y-41126D01*
X72918Y-40988D01*
X72813Y-40883D01*
X72675Y-40825D01*
X72526Y-40825D01*
X72388Y-40882D01*
X72283Y-40987D01*
X72225Y-41125D01*
X72225Y-41199D01*
X72109Y-41151D01*
X71891Y-41151D01*
X71689Y-41235D01*
X71535Y-41389D01*
X71500Y-41473D01*
X71465Y-41389D01*
X71311Y-41235D01*
X71109Y-41151D01*
X70891Y-41151D01*
X70689Y-41235D01*
X70549Y-41375D01*
X70549Y-41351D01*
X70511Y-41259D01*
X70441Y-41189D01*
X70350Y-41151D01*
X70251Y-41151D01*
X69808Y-41151D01*
X69808Y-35878D01*
X69500Y-35571D01*
X69192Y-35878D01*
X69219Y-35972D01*
X69421Y-36043D01*
X69634Y-36032D01*
X69781Y-35972D01*
X69808Y-35878D01*
X69808Y-41151D01*
X69651Y-41151D01*
X69559Y-41189D01*
X69489Y-41259D01*
X69451Y-41350D01*
X69451Y-41449D01*
X69451Y-42049D01*
X69489Y-42141D01*
X69548Y-42200D01*
X69489Y-42259D01*
X69451Y-42350D01*
X69451Y-42449D01*
X69451Y-43049D01*
X69489Y-43141D01*
X69559Y-43211D01*
X69650Y-43249D01*
X69749Y-43249D01*
X70349Y-43249D01*
X70441Y-43211D01*
X70511Y-43141D01*
X70549Y-43050D01*
X70549Y-43025D01*
X70689Y-43165D01*
X70891Y-43249D01*
X71109Y-43249D01*
X71311Y-43165D01*
X71465Y-43011D01*
X71500Y-42926D01*
X71535Y-43011D01*
X71689Y-43165D01*
X71891Y-43249D01*
X72109Y-43249D01*
X72311Y-43165D01*
X72465Y-43011D01*
X72549Y-42809D01*
X72549Y-42591D01*
X72465Y-42389D01*
X72311Y-42235D01*
X72226Y-42200D01*
X72311Y-42165D01*
X72465Y-42011D01*
X72549Y-41809D01*
X72549Y-41591D01*
X72542Y-41575D01*
X72674Y-41575D01*
X72812Y-41518D01*
X72917Y-41413D01*
X72975Y-41275D01*
X72975Y-57213D01*
X72965Y-57189D01*
X72811Y-57035D01*
X72675Y-56978D01*
X72675Y-52575D01*
X72675Y-52426D01*
X72618Y-52288D01*
X72549Y-52219D01*
X72549Y-44409D01*
X72549Y-44191D01*
X72465Y-43989D01*
X72311Y-43835D01*
X72109Y-43751D01*
X71891Y-43751D01*
X71689Y-43835D01*
X71535Y-43989D01*
X71500Y-44073D01*
X71465Y-43989D01*
X71311Y-43835D01*
X71109Y-43751D01*
X70891Y-43751D01*
X70689Y-43835D01*
X70535Y-43989D01*
X70451Y-44191D01*
X70451Y-44409D01*
X70535Y-44611D01*
X70689Y-44765D01*
X70891Y-44849D01*
X71109Y-44849D01*
X71311Y-44765D01*
X71465Y-44611D01*
X71500Y-44526D01*
X71535Y-44611D01*
X71689Y-44765D01*
X71891Y-44849D01*
X72109Y-44849D01*
X72311Y-44765D01*
X72465Y-44611D01*
X72549Y-44409D01*
X72549Y-52219D01*
X72513Y-52183D01*
X72375Y-52125D01*
X72226Y-52125D01*
X72088Y-52182D01*
X72049Y-52221D01*
X72049Y-49570D01*
X72049Y-49352D01*
X72049Y-47648D01*
X72049Y-47430D01*
X71965Y-47228D01*
X71811Y-47074D01*
X71609Y-46990D01*
X71391Y-46990D01*
X71189Y-47074D01*
X71035Y-47228D01*
X70951Y-47430D01*
X70951Y-47648D01*
X71035Y-47850D01*
X71189Y-48004D01*
X71391Y-48088D01*
X71609Y-48088D01*
X71811Y-48004D01*
X71965Y-47850D01*
X72049Y-47648D01*
X72049Y-49352D01*
X71965Y-49150D01*
X71811Y-48996D01*
X71609Y-48912D01*
X71391Y-48912D01*
X71189Y-48996D01*
X71035Y-49150D01*
X70951Y-49352D01*
X70951Y-49570D01*
X71035Y-49772D01*
X71189Y-49926D01*
X71391Y-50010D01*
X71609Y-50010D01*
X71811Y-49926D01*
X71965Y-49772D01*
X72049Y-49570D01*
X72049Y-52221D01*
X71983Y-52287D01*
X71925Y-52425D01*
X71925Y-52574D01*
X71982Y-52712D01*
X72087Y-52817D01*
X72225Y-52875D01*
X72374Y-52875D01*
X72512Y-52818D01*
X72617Y-52713D01*
X72675Y-52575D01*
X72675Y-56978D01*
X72609Y-56951D01*
X72391Y-56951D01*
X72189Y-57035D01*
X72035Y-57189D01*
X72000Y-57273D01*
X71965Y-57189D01*
X71811Y-57035D01*
X71775Y-57020D01*
X71775Y-51175D01*
X71775Y-51026D01*
X71718Y-50888D01*
X71613Y-50783D01*
X71475Y-50725D01*
X71326Y-50725D01*
X71188Y-50782D01*
X71136Y-50833D01*
X71118Y-50788D01*
X71013Y-50683D01*
X70875Y-50625D01*
X70726Y-50625D01*
X70588Y-50682D01*
X70483Y-50787D01*
X70425Y-50925D01*
X70425Y-51074D01*
X70482Y-51212D01*
X70587Y-51317D01*
X70725Y-51375D01*
X70874Y-51375D01*
X71012Y-51318D01*
X71063Y-51266D01*
X71082Y-51312D01*
X71187Y-51417D01*
X71325Y-51475D01*
X71474Y-51475D01*
X71612Y-51418D01*
X71717Y-51313D01*
X71775Y-51175D01*
X71775Y-57020D01*
X71609Y-56951D01*
X71391Y-56951D01*
X71189Y-57035D01*
X71035Y-57189D01*
X71000Y-57273D01*
X70965Y-57189D01*
X70811Y-57035D01*
X70609Y-56951D01*
X70391Y-56951D01*
X70189Y-57035D01*
X70035Y-57189D01*
X70000Y-57273D01*
X69965Y-57189D01*
X69811Y-57035D01*
X69609Y-56951D01*
X69391Y-56951D01*
X69189Y-57035D01*
X69175Y-57049D01*
X69175Y-46575D01*
X69175Y-46426D01*
X69118Y-46288D01*
X69013Y-46183D01*
X68875Y-46125D01*
X68775Y-46125D01*
X68775Y-44075D01*
X68775Y-43926D01*
X68718Y-43788D01*
X68613Y-43683D01*
X68475Y-43625D01*
X68326Y-43625D01*
X68188Y-43682D01*
X68083Y-43787D01*
X68025Y-43925D01*
X68025Y-44074D01*
X68082Y-44212D01*
X68187Y-44317D01*
X68325Y-44375D01*
X68474Y-44375D01*
X68612Y-44318D01*
X68717Y-44213D01*
X68775Y-44075D01*
X68775Y-46125D01*
X68726Y-46125D01*
X68588Y-46182D01*
X68483Y-46287D01*
X68425Y-46425D01*
X68425Y-46574D01*
X68482Y-46712D01*
X68587Y-46817D01*
X68725Y-46875D01*
X68874Y-46875D01*
X69012Y-46818D01*
X69117Y-46713D01*
X69175Y-46575D01*
X69175Y-57049D01*
X69035Y-57189D01*
X69000Y-57273D01*
X68965Y-57189D01*
X68811Y-57035D01*
X68775Y-57020D01*
X68775Y-51075D01*
X68775Y-50926D01*
X68718Y-50788D01*
X68613Y-50683D01*
X68475Y-50625D01*
X68326Y-50625D01*
X68188Y-50682D01*
X68083Y-50787D01*
X68025Y-50925D01*
X68025Y-51074D01*
X68082Y-51212D01*
X68187Y-51317D01*
X68325Y-51375D01*
X68474Y-51375D01*
X68612Y-51318D01*
X68717Y-51213D01*
X68775Y-51075D01*
X68775Y-57020D01*
X68609Y-56951D01*
X68391Y-56951D01*
X68189Y-57035D01*
X68035Y-57189D01*
X68000Y-57273D01*
X67965Y-57189D01*
X67875Y-57099D01*
X67875Y-43875D01*
X67875Y-43726D01*
X67822Y-43599D01*
X67875Y-43475D01*
X67875Y-43326D01*
X67822Y-43199D01*
X67875Y-43075D01*
X67875Y-42926D01*
X67818Y-42788D01*
X67713Y-42683D01*
X67575Y-42625D01*
X67426Y-42625D01*
X67288Y-42682D01*
X67183Y-42787D01*
X67125Y-42925D01*
X67125Y-43074D01*
X67177Y-43200D01*
X67125Y-43325D01*
X67125Y-43474D01*
X67177Y-43600D01*
X67125Y-43725D01*
X67125Y-43874D01*
X67182Y-44012D01*
X67287Y-44117D01*
X67425Y-44175D01*
X67574Y-44175D01*
X67712Y-44118D01*
X67817Y-44013D01*
X67875Y-43875D01*
X67875Y-57099D01*
X67811Y-57035D01*
X67609Y-56951D01*
X67391Y-56951D01*
X67189Y-57035D01*
X67035Y-57189D01*
X67000Y-57273D01*
X66965Y-57189D01*
X66811Y-57035D01*
X66609Y-56951D01*
X66391Y-56951D01*
X66189Y-57035D01*
X66035Y-57189D01*
X66000Y-57273D01*
X65965Y-57189D01*
X65811Y-57035D01*
X65609Y-56951D01*
X65391Y-56951D01*
X65189Y-57035D01*
X65035Y-57189D01*
X64951Y-57391D01*
X64951Y-57609D01*
X65035Y-57811D01*
X65175Y-57951D01*
X65151Y-57951D01*
X65059Y-57989D01*
X64989Y-58059D01*
X64951Y-58150D01*
X64951Y-58249D01*
X64951Y-58849D01*
X64989Y-58941D01*
X65059Y-59011D01*
X65150Y-59049D01*
X65249Y-59049D01*
X65849Y-59049D01*
X65941Y-59011D01*
X66011Y-58941D01*
X66049Y-58850D01*
X66049Y-58825D01*
X66189Y-58965D01*
X66391Y-59049D01*
X66609Y-59049D01*
X66811Y-58965D01*
X66965Y-58811D01*
X67000Y-58726D01*
X67035Y-58811D01*
X67189Y-58965D01*
X67391Y-59049D01*
X67609Y-59049D01*
X67811Y-58965D01*
X67965Y-58811D01*
X68000Y-58726D01*
X68035Y-58811D01*
X68189Y-58965D01*
X68391Y-59049D01*
X68609Y-59049D01*
X68811Y-58965D01*
X68965Y-58811D01*
X69000Y-58726D01*
X69035Y-58811D01*
X69189Y-58965D01*
X69391Y-59049D01*
X69609Y-59049D01*
X69811Y-58965D01*
X69965Y-58811D01*
X70000Y-58726D01*
X70035Y-58811D01*
X70189Y-58965D01*
X70391Y-59049D01*
X70609Y-59049D01*
X70811Y-58965D01*
X70965Y-58811D01*
X71000Y-58726D01*
X71035Y-58811D01*
X71189Y-58965D01*
X71391Y-59049D01*
X71609Y-59049D01*
X71811Y-58965D01*
X71965Y-58811D01*
X72000Y-58726D01*
X72035Y-58811D01*
X72189Y-58965D01*
X72391Y-59049D01*
X72609Y-59049D01*
X72811Y-58965D01*
X72965Y-58811D01*
X73000Y-58726D01*
X73035Y-58811D01*
X73189Y-58965D01*
X73391Y-59049D01*
X73609Y-59049D01*
X73811Y-58965D01*
X73965Y-58811D01*
X74000Y-58726D01*
X74035Y-58811D01*
X74189Y-58965D01*
X74391Y-59049D01*
X74609Y-59049D01*
X74811Y-58965D01*
X74965Y-58811D01*
X75000Y-58726D01*
X75035Y-58811D01*
X75189Y-58965D01*
X75391Y-59049D01*
X75609Y-59049D01*
X75811Y-58965D01*
X75965Y-58811D01*
X76000Y-58726D01*
X76035Y-58811D01*
X76189Y-58965D01*
X76391Y-59049D01*
X76609Y-59049D01*
X76811Y-58965D01*
X76965Y-58811D01*
X77000Y-58726D01*
X77035Y-58811D01*
X77189Y-58965D01*
X77391Y-59049D01*
X77609Y-59049D01*
X77811Y-58965D01*
X77965Y-58811D01*
X78000Y-58726D01*
X78035Y-58811D01*
X78189Y-58965D01*
X78391Y-59049D01*
X78609Y-59049D01*
X78811Y-58965D01*
X78965Y-58811D01*
X79000Y-58726D01*
X79035Y-58811D01*
X79189Y-58965D01*
X79391Y-59049D01*
X79609Y-59049D01*
X79811Y-58965D01*
X79965Y-58811D01*
X80000Y-58726D01*
X80035Y-58811D01*
X80189Y-58965D01*
X80391Y-59049D01*
X80609Y-59049D01*
X80811Y-58965D01*
X80965Y-58811D01*
X81000Y-58726D01*
X81035Y-58811D01*
X81189Y-58965D01*
X81391Y-59049D01*
X81609Y-59049D01*
X81811Y-58965D01*
X81965Y-58811D01*
X82000Y-58726D01*
X82035Y-58811D01*
X82189Y-58965D01*
X82391Y-59049D01*
X82609Y-59049D01*
X82811Y-58965D01*
X82965Y-58811D01*
X83000Y-58726D01*
X83035Y-58811D01*
X83189Y-58965D01*
X83391Y-59049D01*
X83609Y-59049D01*
X83811Y-58965D01*
X83965Y-58811D01*
X84000Y-58726D01*
X84035Y-58811D01*
X84189Y-58965D01*
X84391Y-59049D01*
X84609Y-59049D01*
X84811Y-58965D01*
X84965Y-58811D01*
X85000Y-58726D01*
X85035Y-58811D01*
X85189Y-58965D01*
X85391Y-59049D01*
X85609Y-59049D01*
X85811Y-58965D01*
X85965Y-58811D01*
X86000Y-58726D01*
X86035Y-58811D01*
X86189Y-58965D01*
X86391Y-59049D01*
X86609Y-59049D01*
X86811Y-58965D01*
X86965Y-58811D01*
X87000Y-58726D01*
X87035Y-58811D01*
X87189Y-58965D01*
X87391Y-59049D01*
X87609Y-59049D01*
X87811Y-58965D01*
X87965Y-58811D01*
X88000Y-58726D01*
X88035Y-58811D01*
X88189Y-58965D01*
X88391Y-59049D01*
X88609Y-59049D01*
X88811Y-58965D01*
X88965Y-58811D01*
X89000Y-58726D01*
X89035Y-58811D01*
X89189Y-58965D01*
X89391Y-59049D01*
X89609Y-59049D01*
X89811Y-58965D01*
X89965Y-58811D01*
X90000Y-58726D01*
X90035Y-58811D01*
X90189Y-58965D01*
X90391Y-59049D01*
X90609Y-59049D01*
X90811Y-58965D01*
X90965Y-58811D01*
X91000Y-58726D01*
X91035Y-58811D01*
X91189Y-58965D01*
X91391Y-59049D01*
X91609Y-59049D01*
X91811Y-58965D01*
X91965Y-58811D01*
X92000Y-58726D01*
X92035Y-58811D01*
X92189Y-58965D01*
X92391Y-59049D01*
X92609Y-59049D01*
X92811Y-58965D01*
X92965Y-58811D01*
X93000Y-58726D01*
X93035Y-58811D01*
X93189Y-58965D01*
X93391Y-59049D01*
X93609Y-59049D01*
X93811Y-58965D01*
X93965Y-58811D01*
X94000Y-58726D01*
X94035Y-58811D01*
X94189Y-58965D01*
X94391Y-59049D01*
X94609Y-59049D01*
X94811Y-58965D01*
X94965Y-58811D01*
X95000Y-58726D01*
X95035Y-58811D01*
X95189Y-58965D01*
X95391Y-59049D01*
X95609Y-59049D01*
X95811Y-58965D01*
X95965Y-58811D01*
X96000Y-58726D01*
X96035Y-58811D01*
X96189Y-58965D01*
X96391Y-59049D01*
X96609Y-59049D01*
X96811Y-58965D01*
X96965Y-58811D01*
X97049Y-58609D01*
X97049Y-58391D01*
X97043Y-58376D01*
X97043Y-57579D01*
X97032Y-57366D01*
X96972Y-57219D01*
X96878Y-57192D01*
X96808Y-57262D01*
X96808Y-57122D01*
X96781Y-57028D01*
X96579Y-56957D01*
X96366Y-56968D01*
X96219Y-57028D01*
X96192Y-57122D01*
X96500Y-57429D01*
X96808Y-57122D01*
X96808Y-57262D01*
X96571Y-57500D01*
X96878Y-57808D01*
X96972Y-57781D01*
X97043Y-57579D01*
X97043Y-58376D01*
X96965Y-58189D01*
X96811Y-58035D01*
X96719Y-57997D01*
X96781Y-57972D01*
X96808Y-57878D01*
X96500Y-57571D01*
X96192Y-57878D01*
X96219Y-57972D01*
X96284Y-57995D01*
X96189Y-58035D01*
X96035Y-58189D01*
X96000Y-58273D01*
X95965Y-58189D01*
X95811Y-58035D01*
X95726Y-58000D01*
X95811Y-57965D01*
X95965Y-57811D01*
X96002Y-57719D01*
X96028Y-57781D01*
X96122Y-57808D01*
X96429Y-57500D01*
X96122Y-57192D01*
X96028Y-57219D01*
X96004Y-57284D01*
X95965Y-57189D01*
X95811Y-57035D01*
X95609Y-56951D01*
X95391Y-56951D01*
X95189Y-57035D01*
X95035Y-57189D01*
X95000Y-57273D01*
X94965Y-57189D01*
X94811Y-57035D01*
X94609Y-56951D01*
X94391Y-56951D01*
X94189Y-57035D01*
X94035Y-57189D01*
X94000Y-57273D01*
X93965Y-57189D01*
X93811Y-57035D01*
X93609Y-56951D01*
X93391Y-56951D01*
X93189Y-57035D01*
X93035Y-57189D01*
X93000Y-57273D01*
X92965Y-57189D01*
X92811Y-57035D01*
X92609Y-56951D01*
X92391Y-56951D01*
X92189Y-57035D01*
X92035Y-57189D01*
X92000Y-57273D01*
X91965Y-57189D01*
X91811Y-57035D01*
X91609Y-56951D01*
X91391Y-56951D01*
X91189Y-57035D01*
X91035Y-57189D01*
X91000Y-57273D01*
X90965Y-57189D01*
X90811Y-57035D01*
X90609Y-56951D01*
X90391Y-56951D01*
X90189Y-57035D01*
X90035Y-57189D01*
X90000Y-57273D01*
X89965Y-57189D01*
X89811Y-57035D01*
X89758Y-57013D01*
X89775Y-56975D01*
X89775Y-56826D01*
X89718Y-56688D01*
X89613Y-56583D01*
X89475Y-56525D01*
X89326Y-56525D01*
X89199Y-56577D01*
X89075Y-56525D01*
X88926Y-56525D01*
X88788Y-56582D01*
X88683Y-56687D01*
X88625Y-56825D01*
X88625Y-56957D01*
X88609Y-56951D01*
X88391Y-56951D01*
X88189Y-57035D01*
X88035Y-57189D01*
X88000Y-57273D01*
X87965Y-57189D01*
X87811Y-57035D01*
X87609Y-56951D01*
X87391Y-56951D01*
X87189Y-57035D01*
X87035Y-57189D01*
X87000Y-57273D01*
X86965Y-57189D01*
X86811Y-57035D01*
X86609Y-56951D01*
X86391Y-56951D01*
X86189Y-57035D01*
X86035Y-57189D01*
X86000Y-57273D01*
X85965Y-57189D01*
X85811Y-57035D01*
X85609Y-56951D01*
X85391Y-56951D01*
X85189Y-57035D01*
X85035Y-57189D01*
X85000Y-57273D01*
X84965Y-57189D01*
X84811Y-57035D01*
X84609Y-56951D01*
X84391Y-56951D01*
X84189Y-57035D01*
X84035Y-57189D01*
X84000Y-57273D01*
X83965Y-57189D01*
X83811Y-57035D01*
X83609Y-56951D01*
X83391Y-56951D01*
X83189Y-57035D01*
X83035Y-57189D01*
X83000Y-57273D01*
X82965Y-57189D01*
X82811Y-57035D01*
X82609Y-56951D01*
X82391Y-56951D01*
X82189Y-57035D01*
X82075Y-57149D01*
X82075Y-45175D01*
X82075Y-45026D01*
X82018Y-44888D01*
X81913Y-44783D01*
X81775Y-44725D01*
X81626Y-44725D01*
X81488Y-44782D01*
X81383Y-44887D01*
X81325Y-45025D01*
X81325Y-45174D01*
X81382Y-45312D01*
X81487Y-45417D01*
X81625Y-45475D01*
X81774Y-45475D01*
X81912Y-45418D01*
X82017Y-45313D01*
X82075Y-45175D01*
X82075Y-57149D01*
X82035Y-57189D01*
X82000Y-57273D01*
X81965Y-57189D01*
X81875Y-57099D01*
X81875Y-48375D01*
X81875Y-48226D01*
X81818Y-48088D01*
X81713Y-47983D01*
X81575Y-47925D01*
X81475Y-47925D01*
X81475Y-46375D01*
X81475Y-46226D01*
X81418Y-46088D01*
X81313Y-45983D01*
X81266Y-45963D01*
X81317Y-45913D01*
X81375Y-45775D01*
X81375Y-45626D01*
X81318Y-45488D01*
X81213Y-45383D01*
X81075Y-45325D01*
X80926Y-45325D01*
X80788Y-45382D01*
X80775Y-45395D01*
X80775Y-42875D01*
X80775Y-42726D01*
X80718Y-42588D01*
X80613Y-42483D01*
X80475Y-42425D01*
X80326Y-42425D01*
X80188Y-42482D01*
X80083Y-42587D01*
X80025Y-42725D01*
X80025Y-42874D01*
X80082Y-43012D01*
X80187Y-43117D01*
X80325Y-43175D01*
X80474Y-43175D01*
X80612Y-43118D01*
X80717Y-43013D01*
X80775Y-42875D01*
X80775Y-45395D01*
X80683Y-45487D01*
X80625Y-45625D01*
X80625Y-45646D01*
X80575Y-45625D01*
X80426Y-45625D01*
X80288Y-45682D01*
X80183Y-45787D01*
X80125Y-45925D01*
X79988Y-45982D01*
X79883Y-46087D01*
X79825Y-46225D01*
X79825Y-46374D01*
X79882Y-46512D01*
X79987Y-46617D01*
X80125Y-46675D01*
X80274Y-46675D01*
X80412Y-46618D01*
X80434Y-46595D01*
X80482Y-46712D01*
X80587Y-46817D01*
X80725Y-46875D01*
X80874Y-46875D01*
X81012Y-46818D01*
X81117Y-46713D01*
X81132Y-46675D01*
X81174Y-46675D01*
X81312Y-46618D01*
X81417Y-46513D01*
X81475Y-46375D01*
X81475Y-47925D01*
X81426Y-47925D01*
X81288Y-47982D01*
X81183Y-48087D01*
X81125Y-48225D01*
X81125Y-48374D01*
X81182Y-48512D01*
X81287Y-48617D01*
X81425Y-48675D01*
X81574Y-48675D01*
X81712Y-48618D01*
X81817Y-48513D01*
X81875Y-48375D01*
X81875Y-57099D01*
X81811Y-57035D01*
X81609Y-56951D01*
X81391Y-56951D01*
X81189Y-57035D01*
X81035Y-57189D01*
X81000Y-57273D01*
X80975Y-57213D01*
X80975Y-50275D01*
X80975Y-50126D01*
X80918Y-49988D01*
X80813Y-49883D01*
X80675Y-49825D01*
X80526Y-49825D01*
X80388Y-49882D01*
X80283Y-49987D01*
X80275Y-50006D01*
X80275Y-47175D01*
X80275Y-47026D01*
X80218Y-46888D01*
X80113Y-46783D01*
X79975Y-46725D01*
X79826Y-46725D01*
X79688Y-46782D01*
X79583Y-46887D01*
X79525Y-47025D01*
X79525Y-47174D01*
X79582Y-47312D01*
X79687Y-47417D01*
X79825Y-47475D01*
X79974Y-47475D01*
X80112Y-47418D01*
X80217Y-47313D01*
X80275Y-47175D01*
X80275Y-50006D01*
X80225Y-50125D01*
X80225Y-50274D01*
X80282Y-50412D01*
X80387Y-50517D01*
X80525Y-50575D01*
X80674Y-50575D01*
X80812Y-50518D01*
X80917Y-50413D01*
X80975Y-50275D01*
X80975Y-57213D01*
X80965Y-57189D01*
X80811Y-57035D01*
X80609Y-56951D01*
X80391Y-56951D01*
X80189Y-57035D01*
X80035Y-57189D01*
X80000Y-57273D01*
X79965Y-57189D01*
X79811Y-57035D01*
X79609Y-56951D01*
X79391Y-56951D01*
X79189Y-57035D01*
X79035Y-57189D01*
X79000Y-57273D01*
X78965Y-57189D01*
X78811Y-57035D01*
X78609Y-56951D01*
X78391Y-56951D01*
X78189Y-57035D01*
X78035Y-57189D01*
X78000Y-57273D01*
X77965Y-57189D01*
X77811Y-57035D01*
X77609Y-56951D01*
X77391Y-56951D01*
X77189Y-57035D01*
X77035Y-57189D01*
X77000Y-57273D01*
X76990Y-57249D01*
X76990Y-52575D01*
X77074Y-52575D01*
X77212Y-52518D01*
X77317Y-52413D01*
X77336Y-52366D01*
X77345Y-52375D01*
X77325Y-52425D01*
X77325Y-52574D01*
X77382Y-52712D01*
X77487Y-52817D01*
X77625Y-52875D01*
X77766Y-52875D01*
X77782Y-52912D01*
X77887Y-53017D01*
X78025Y-53075D01*
X78174Y-53075D01*
X78312Y-53018D01*
X78417Y-52913D01*
X78426Y-52890D01*
X78900Y-52890D01*
X79011Y-52868D01*
X79105Y-52805D01*
X79505Y-52406D01*
X79505Y-52405D01*
X79568Y-52312D01*
X79568Y-52311D01*
X79571Y-52293D01*
X79589Y-52200D01*
X79590Y-52200D01*
X79590Y-51100D01*
X79568Y-50989D01*
X79505Y-50895D01*
X78390Y-49780D01*
X78390Y-49018D01*
X78525Y-49075D01*
X78674Y-49075D01*
X78812Y-49018D01*
X78917Y-48913D01*
X78975Y-48775D01*
X78975Y-48626D01*
X78918Y-48488D01*
X78813Y-48383D01*
X78675Y-48325D01*
X78526Y-48325D01*
X78390Y-48381D01*
X78390Y-44500D01*
X78368Y-44389D01*
X78305Y-44295D01*
X77790Y-43780D01*
X77790Y-41875D01*
X77874Y-41875D01*
X78012Y-41818D01*
X78117Y-41713D01*
X78175Y-41575D01*
X78175Y-41426D01*
X78122Y-41299D01*
X78175Y-41175D01*
X78175Y-41026D01*
X78118Y-40888D01*
X78013Y-40783D01*
X77875Y-40725D01*
X77790Y-40725D01*
X77790Y-37140D01*
X77817Y-37113D01*
X77875Y-36975D01*
X77875Y-36890D01*
X81480Y-36890D01*
X84710Y-40120D01*
X84710Y-43860D01*
X84683Y-43887D01*
X84625Y-44025D01*
X84625Y-44174D01*
X84682Y-44312D01*
X84787Y-44417D01*
X84925Y-44475D01*
X84966Y-44475D01*
X84982Y-44512D01*
X85087Y-44617D01*
X85225Y-44675D01*
X85266Y-44675D01*
X85282Y-44712D01*
X85380Y-44810D01*
X85065Y-45125D01*
X85026Y-45125D01*
X84888Y-45182D01*
X84783Y-45287D01*
X84725Y-45425D01*
X84725Y-45574D01*
X84782Y-45712D01*
X84887Y-45817D01*
X85025Y-45875D01*
X85174Y-45875D01*
X85300Y-45822D01*
X85425Y-45875D01*
X85574Y-45875D01*
X85700Y-45822D01*
X85825Y-45875D01*
X85974Y-45875D01*
X86112Y-45818D01*
X86140Y-45790D01*
X86200Y-45790D01*
X86311Y-45768D01*
X86405Y-45705D01*
X86410Y-45700D01*
X86410Y-47880D01*
X85942Y-48347D01*
X85918Y-48288D01*
X85813Y-48183D01*
X85675Y-48125D01*
X85633Y-48125D01*
X85618Y-48088D01*
X85513Y-47983D01*
X85375Y-47925D01*
X85333Y-47925D01*
X85318Y-47888D01*
X85295Y-47865D01*
X85412Y-47818D01*
X85517Y-47713D01*
X85546Y-47642D01*
X85625Y-47675D01*
X85774Y-47675D01*
X85912Y-47618D01*
X86017Y-47513D01*
X86075Y-47375D01*
X86075Y-47226D01*
X86022Y-47099D01*
X86075Y-46975D01*
X86075Y-46826D01*
X86018Y-46688D01*
X85913Y-46583D01*
X85775Y-46525D01*
X85733Y-46525D01*
X85718Y-46488D01*
X85613Y-46383D01*
X85475Y-46325D01*
X85433Y-46325D01*
X85418Y-46288D01*
X85313Y-46183D01*
X85175Y-46125D01*
X85026Y-46125D01*
X84888Y-46182D01*
X84783Y-46287D01*
X84725Y-46425D01*
X84725Y-46574D01*
X84782Y-46712D01*
X84887Y-46817D01*
X85025Y-46875D01*
X85066Y-46875D01*
X85082Y-46912D01*
X85187Y-47017D01*
X85325Y-47075D01*
X85366Y-47075D01*
X85377Y-47100D01*
X85353Y-47157D01*
X85275Y-47125D01*
X85126Y-47125D01*
X84988Y-47182D01*
X84883Y-47287D01*
X84867Y-47325D01*
X84826Y-47325D01*
X84688Y-47382D01*
X84583Y-47487D01*
X84525Y-47625D01*
X84525Y-47774D01*
X84582Y-47912D01*
X84645Y-47975D01*
X84625Y-48025D01*
X84625Y-48174D01*
X84682Y-48312D01*
X84787Y-48417D01*
X84925Y-48475D01*
X84966Y-48475D01*
X84982Y-48512D01*
X85087Y-48617D01*
X85225Y-48675D01*
X85266Y-48675D01*
X85282Y-48712D01*
X85387Y-48817D01*
X85447Y-48842D01*
X83265Y-51025D01*
X83175Y-51025D01*
X83175Y-47175D01*
X83175Y-47026D01*
X83118Y-46888D01*
X83075Y-46845D01*
X83075Y-41075D01*
X83075Y-40926D01*
X83018Y-40788D01*
X82913Y-40683D01*
X82775Y-40625D01*
X82733Y-40625D01*
X82718Y-40588D01*
X82613Y-40483D01*
X82475Y-40425D01*
X82326Y-40425D01*
X82188Y-40482D01*
X82100Y-40570D01*
X82013Y-40483D01*
X81875Y-40425D01*
X81726Y-40425D01*
X81588Y-40482D01*
X81483Y-40587D01*
X81475Y-40606D01*
X81475Y-40526D01*
X81418Y-40388D01*
X81313Y-40283D01*
X81175Y-40225D01*
X81075Y-40225D01*
X81075Y-40126D01*
X81018Y-39988D01*
X80913Y-39883D01*
X80775Y-39825D01*
X80626Y-39825D01*
X80499Y-39877D01*
X80375Y-39825D01*
X80226Y-39825D01*
X80099Y-39877D01*
X79975Y-39825D01*
X79826Y-39825D01*
X79688Y-39882D01*
X79583Y-39987D01*
X79525Y-40125D01*
X79525Y-40274D01*
X79546Y-40325D01*
X79526Y-40325D01*
X79388Y-40382D01*
X79283Y-40487D01*
X79225Y-40625D01*
X79225Y-40666D01*
X79199Y-40677D01*
X79075Y-40625D01*
X78926Y-40625D01*
X78788Y-40682D01*
X78683Y-40787D01*
X78625Y-40925D01*
X78625Y-41074D01*
X78682Y-41212D01*
X78787Y-41317D01*
X78925Y-41375D01*
X79074Y-41375D01*
X79200Y-41322D01*
X79325Y-41375D01*
X79474Y-41375D01*
X79612Y-41318D01*
X79717Y-41213D01*
X79775Y-41075D01*
X79775Y-41033D01*
X79800Y-41022D01*
X79925Y-41075D01*
X80074Y-41075D01*
X80212Y-41018D01*
X80317Y-40913D01*
X80375Y-40775D01*
X80375Y-40626D01*
X80353Y-40575D01*
X80374Y-40575D01*
X80500Y-40522D01*
X80625Y-40575D01*
X80725Y-40575D01*
X80725Y-40674D01*
X80782Y-40812D01*
X80887Y-40917D01*
X81025Y-40975D01*
X81174Y-40975D01*
X81312Y-40918D01*
X81417Y-40813D01*
X81425Y-40793D01*
X81425Y-40874D01*
X81482Y-41012D01*
X81570Y-41100D01*
X81483Y-41187D01*
X81433Y-41303D01*
X81413Y-41283D01*
X81275Y-41225D01*
X81126Y-41225D01*
X80988Y-41282D01*
X80883Y-41387D01*
X80825Y-41525D01*
X80825Y-41674D01*
X80882Y-41812D01*
X80987Y-41917D01*
X81125Y-41975D01*
X81274Y-41975D01*
X81412Y-41918D01*
X81517Y-41813D01*
X81566Y-41696D01*
X81587Y-41717D01*
X81725Y-41775D01*
X81874Y-41775D01*
X82012Y-41718D01*
X82117Y-41613D01*
X82175Y-41475D01*
X82175Y-41326D01*
X82118Y-41188D01*
X82030Y-41100D01*
X82100Y-41030D01*
X82187Y-41117D01*
X82325Y-41175D01*
X82366Y-41175D01*
X82382Y-41212D01*
X82487Y-41317D01*
X82625Y-41375D01*
X82774Y-41375D01*
X82912Y-41318D01*
X83017Y-41213D01*
X83075Y-41075D01*
X83075Y-46845D01*
X83013Y-46783D01*
X82875Y-46725D01*
X82726Y-46725D01*
X82588Y-46782D01*
X82483Y-46887D01*
X82425Y-47025D01*
X82425Y-47174D01*
X82482Y-47312D01*
X82587Y-47417D01*
X82725Y-47475D01*
X82874Y-47475D01*
X83012Y-47418D01*
X83117Y-47313D01*
X83175Y-47175D01*
X83175Y-51025D01*
X83126Y-51025D01*
X82988Y-51082D01*
X82883Y-51187D01*
X82825Y-51325D01*
X82825Y-51366D01*
X82788Y-51382D01*
X82683Y-51487D01*
X82625Y-51625D01*
X82625Y-51774D01*
X82682Y-51912D01*
X82787Y-52017D01*
X82925Y-52075D01*
X83074Y-52075D01*
X83212Y-52018D01*
X83240Y-51990D01*
X83300Y-51990D01*
X83411Y-51968D01*
X83505Y-51905D01*
X83557Y-51852D01*
X83582Y-51912D01*
X83687Y-52017D01*
X83825Y-52075D01*
X83974Y-52075D01*
X84112Y-52018D01*
X84217Y-51913D01*
X84275Y-51775D01*
X84275Y-51626D01*
X84218Y-51488D01*
X84113Y-51383D01*
X84052Y-51357D01*
X84140Y-51270D01*
X84187Y-51317D01*
X84325Y-51375D01*
X84474Y-51375D01*
X84600Y-51322D01*
X84725Y-51375D01*
X84765Y-51375D01*
X84895Y-51505D01*
X84989Y-51568D01*
X85100Y-51590D01*
X85300Y-51590D01*
X85411Y-51568D01*
X85505Y-51505D01*
X85704Y-51306D01*
X85704Y-51305D01*
X85705Y-51305D01*
X85767Y-51212D01*
X85768Y-51211D01*
X85789Y-51101D01*
X85790Y-51100D01*
X85790Y-50820D01*
X87905Y-48705D01*
X87968Y-48611D01*
X87990Y-48500D01*
X87990Y-37320D01*
X88020Y-37290D01*
X95700Y-37290D01*
X95811Y-37268D01*
X95905Y-37205D01*
X97205Y-35905D01*
X97268Y-35811D01*
X97290Y-35700D01*
X97290Y-41493D01*
X97189Y-41535D01*
X97035Y-41689D01*
X97000Y-41773D01*
X96965Y-41689D01*
X96811Y-41535D01*
X96609Y-41451D01*
X96391Y-41451D01*
X96189Y-41535D01*
X96035Y-41689D01*
X95951Y-41891D01*
X95951Y-42109D01*
X96035Y-42311D01*
X96189Y-42465D01*
X96273Y-42500D01*
X96189Y-42535D01*
X96035Y-42689D01*
X95951Y-42891D01*
X95951Y-43109D01*
X96035Y-43311D01*
X96189Y-43465D01*
X96391Y-43549D01*
X96609Y-43549D01*
X96811Y-43465D01*
X96951Y-43325D01*
X96951Y-43349D01*
X96989Y-43441D01*
X97059Y-43511D01*
X97150Y-43549D01*
X97249Y-43549D01*
X97849Y-43549D01*
X97941Y-43511D01*
X98011Y-43441D01*
X98049Y-43350D01*
X98049Y-60175D01*
X63330Y-60175D01*
X63330Y-45700D01*
X63330Y-45033D01*
X63330Y-43967D01*
X63330Y-43300D01*
X62663Y-43300D01*
X62663Y-43967D01*
X63330Y-43967D01*
X63330Y-45033D01*
X62663Y-45033D01*
X62663Y-45700D01*
X63330Y-45700D01*
X63330Y-60175D01*
X63049Y-60175D01*
X63049Y-58850D01*
X63049Y-58751D01*
X63049Y-58151D01*
X63011Y-58059D01*
X62941Y-57989D01*
X62850Y-57951D01*
X62825Y-57951D01*
X62965Y-57811D01*
X63049Y-57609D01*
X63049Y-57391D01*
X62965Y-57189D01*
X62811Y-57035D01*
X62726Y-57000D01*
X62811Y-56965D01*
X62965Y-56811D01*
X63049Y-56609D01*
X63049Y-56391D01*
X62965Y-56189D01*
X62811Y-56035D01*
X62726Y-56000D01*
X62811Y-55965D01*
X62965Y-55811D01*
X63049Y-55609D01*
X63049Y-55391D01*
X62965Y-55189D01*
X62811Y-55035D01*
X62726Y-55000D01*
X62811Y-54965D01*
X62965Y-54811D01*
X63049Y-54609D01*
X63049Y-54391D01*
X62965Y-54189D01*
X62811Y-54035D01*
X62726Y-54000D01*
X62811Y-53965D01*
X62965Y-53811D01*
X63049Y-53609D01*
X63049Y-53391D01*
X62965Y-53189D01*
X62811Y-53035D01*
X62726Y-53000D01*
X62811Y-52965D01*
X62965Y-52811D01*
X63049Y-52609D01*
X63049Y-52391D01*
X62965Y-52189D01*
X62811Y-52035D01*
X62726Y-52000D01*
X62811Y-51965D01*
X62965Y-51811D01*
X63049Y-51609D01*
X63049Y-51391D01*
X62965Y-51189D01*
X62811Y-51035D01*
X62726Y-51000D01*
X62811Y-50965D01*
X62965Y-50811D01*
X63049Y-50609D01*
X63049Y-50391D01*
X62965Y-50189D01*
X62811Y-50035D01*
X62726Y-50000D01*
X62811Y-49965D01*
X62965Y-49811D01*
X63049Y-49609D01*
X63049Y-49391D01*
X62965Y-49189D01*
X62811Y-49035D01*
X62609Y-48951D01*
X62391Y-48951D01*
X62189Y-49035D01*
X62035Y-49189D01*
X61997Y-49280D01*
X61972Y-49219D01*
X61878Y-49192D01*
X61808Y-49262D01*
X61808Y-49122D01*
X61781Y-49028D01*
X61579Y-48957D01*
X61366Y-48968D01*
X61219Y-49028D01*
X61192Y-49122D01*
X61500Y-49429D01*
X61808Y-49122D01*
X61808Y-49262D01*
X61571Y-49500D01*
X61878Y-49808D01*
X61972Y-49781D01*
X61995Y-49715D01*
X62035Y-49811D01*
X62189Y-49965D01*
X62273Y-50000D01*
X62189Y-50035D01*
X62035Y-50189D01*
X61997Y-50280D01*
X61972Y-50219D01*
X61878Y-50192D01*
X61808Y-50262D01*
X61808Y-50122D01*
X61781Y-50028D01*
X61707Y-50002D01*
X61781Y-49972D01*
X61808Y-49878D01*
X61500Y-49571D01*
X61429Y-49641D01*
X61429Y-49500D01*
X61122Y-49192D01*
X61028Y-49219D01*
X60957Y-49421D01*
X60968Y-49634D01*
X61028Y-49781D01*
X61122Y-49808D01*
X61429Y-49500D01*
X61429Y-49641D01*
X61192Y-49878D01*
X61219Y-49972D01*
X61292Y-49997D01*
X61219Y-50028D01*
X61192Y-50122D01*
X61500Y-50429D01*
X61808Y-50122D01*
X61808Y-50262D01*
X61571Y-50500D01*
X61878Y-50808D01*
X61972Y-50781D01*
X61995Y-50715D01*
X62035Y-50811D01*
X62189Y-50965D01*
X62273Y-51000D01*
X62189Y-51035D01*
X62035Y-51189D01*
X61997Y-51280D01*
X61972Y-51219D01*
X61878Y-51192D01*
X61808Y-51262D01*
X61808Y-51122D01*
X61781Y-51028D01*
X61707Y-51002D01*
X61781Y-50972D01*
X61808Y-50878D01*
X61500Y-50571D01*
X61429Y-50641D01*
X61429Y-50500D01*
X61122Y-50192D01*
X61028Y-50219D01*
X60957Y-50421D01*
X60968Y-50634D01*
X61028Y-50781D01*
X61122Y-50808D01*
X61429Y-50500D01*
X61429Y-50641D01*
X61192Y-50878D01*
X61219Y-50972D01*
X61292Y-50997D01*
X61219Y-51028D01*
X61192Y-51122D01*
X61500Y-51429D01*
X61808Y-51122D01*
X61808Y-51262D01*
X61571Y-51500D01*
X61878Y-51808D01*
X61972Y-51781D01*
X61995Y-51715D01*
X62035Y-51811D01*
X62189Y-51965D01*
X62273Y-52000D01*
X62189Y-52035D01*
X62035Y-52189D01*
X61997Y-52280D01*
X61972Y-52219D01*
X61878Y-52192D01*
X61808Y-52262D01*
X61808Y-52122D01*
X61781Y-52028D01*
X61707Y-52002D01*
X61781Y-51972D01*
X61808Y-51878D01*
X61500Y-51571D01*
X61429Y-51641D01*
X61429Y-51500D01*
X61122Y-51192D01*
X61028Y-51219D01*
X60957Y-51421D01*
X60968Y-51634D01*
X61028Y-51781D01*
X61122Y-51808D01*
X61429Y-51500D01*
X61429Y-51641D01*
X61192Y-51878D01*
X61219Y-51972D01*
X61292Y-51997D01*
X61219Y-52028D01*
X61192Y-52122D01*
X61500Y-52429D01*
X61808Y-52122D01*
X61808Y-52262D01*
X61571Y-52500D01*
X61878Y-52808D01*
X61972Y-52781D01*
X61995Y-52715D01*
X62035Y-52811D01*
X62189Y-52965D01*
X62273Y-53000D01*
X62189Y-53035D01*
X62035Y-53189D01*
X61997Y-53280D01*
X61972Y-53219D01*
X61878Y-53192D01*
X61808Y-53262D01*
X61808Y-53122D01*
X61781Y-53028D01*
X61707Y-53002D01*
X61781Y-52972D01*
X61808Y-52878D01*
X61500Y-52571D01*
X61429Y-52641D01*
X61429Y-52500D01*
X61122Y-52192D01*
X61028Y-52219D01*
X60957Y-52421D01*
X60968Y-52634D01*
X61028Y-52781D01*
X61122Y-52808D01*
X61429Y-52500D01*
X61429Y-52641D01*
X61192Y-52878D01*
X61219Y-52972D01*
X61292Y-52997D01*
X61219Y-53028D01*
X61192Y-53122D01*
X61500Y-53429D01*
X61808Y-53122D01*
X61808Y-53262D01*
X61571Y-53500D01*
X61878Y-53808D01*
X61972Y-53781D01*
X61995Y-53715D01*
X62035Y-53811D01*
X62189Y-53965D01*
X62273Y-54000D01*
X62189Y-54035D01*
X62035Y-54189D01*
X61997Y-54280D01*
X61972Y-54219D01*
X61878Y-54192D01*
X61808Y-54262D01*
X61808Y-54122D01*
X61781Y-54028D01*
X61707Y-54002D01*
X61781Y-53972D01*
X61808Y-53878D01*
X61500Y-53571D01*
X61429Y-53641D01*
X61429Y-53500D01*
X61122Y-53192D01*
X61028Y-53219D01*
X60957Y-53421D01*
X60968Y-53634D01*
X61028Y-53781D01*
X61122Y-53808D01*
X61429Y-53500D01*
X61429Y-53641D01*
X61192Y-53878D01*
X61219Y-53972D01*
X61292Y-53997D01*
X61219Y-54028D01*
X61192Y-54122D01*
X61500Y-54429D01*
X61808Y-54122D01*
X61808Y-54262D01*
X61571Y-54500D01*
X61878Y-54808D01*
X61972Y-54781D01*
X61995Y-54715D01*
X62035Y-54811D01*
X62189Y-54965D01*
X62273Y-55000D01*
X62189Y-55035D01*
X62035Y-55189D01*
X61997Y-55280D01*
X61972Y-55219D01*
X61878Y-55192D01*
X61808Y-55262D01*
X61808Y-55122D01*
X61781Y-55028D01*
X61707Y-55002D01*
X61781Y-54972D01*
X61808Y-54878D01*
X61500Y-54571D01*
X61429Y-54641D01*
X61429Y-54500D01*
X61122Y-54192D01*
X61028Y-54219D01*
X60957Y-54421D01*
X60968Y-54634D01*
X61028Y-54781D01*
X61122Y-54808D01*
X61429Y-54500D01*
X61429Y-54641D01*
X61192Y-54878D01*
X61219Y-54972D01*
X61292Y-54997D01*
X61219Y-55028D01*
X61192Y-55122D01*
X61500Y-55429D01*
X61808Y-55122D01*
X61808Y-55262D01*
X61571Y-55500D01*
X61878Y-55808D01*
X61972Y-55781D01*
X61995Y-55715D01*
X62035Y-55811D01*
X62189Y-55965D01*
X62273Y-56000D01*
X62189Y-56035D01*
X62035Y-56189D01*
X61997Y-56280D01*
X61972Y-56219D01*
X61878Y-56192D01*
X61808Y-56262D01*
X61808Y-56122D01*
X61781Y-56028D01*
X61707Y-56002D01*
X61781Y-55972D01*
X61808Y-55878D01*
X61500Y-55571D01*
X61429Y-55641D01*
X61429Y-55500D01*
X61122Y-55192D01*
X61028Y-55219D01*
X60957Y-55421D01*
X60968Y-55634D01*
X61028Y-55781D01*
X61122Y-55808D01*
X61429Y-55500D01*
X61429Y-55641D01*
X61192Y-55878D01*
X61219Y-55972D01*
X61292Y-55997D01*
X61219Y-56028D01*
X61192Y-56122D01*
X61500Y-56429D01*
X61808Y-56122D01*
X61808Y-56262D01*
X61571Y-56500D01*
X61878Y-56808D01*
X61972Y-56781D01*
X61995Y-56715D01*
X62035Y-56811D01*
X62189Y-56965D01*
X62273Y-57000D01*
X62189Y-57035D01*
X62035Y-57189D01*
X61997Y-57280D01*
X61972Y-57219D01*
X61878Y-57192D01*
X61808Y-57262D01*
X61808Y-57122D01*
X61781Y-57028D01*
X61707Y-57002D01*
X61781Y-56972D01*
X61808Y-56878D01*
X61500Y-56571D01*
X61429Y-56641D01*
X61429Y-56500D01*
X61122Y-56192D01*
X61028Y-56219D01*
X60957Y-56421D01*
X60968Y-56634D01*
X61028Y-56781D01*
X61122Y-56808D01*
X61429Y-56500D01*
X61429Y-56641D01*
X61192Y-56878D01*
X61219Y-56972D01*
X61292Y-56997D01*
X61219Y-57028D01*
X61192Y-57122D01*
X61500Y-57429D01*
X61808Y-57122D01*
X61808Y-57262D01*
X61571Y-57500D01*
X61878Y-57808D01*
X61972Y-57781D01*
X61995Y-57715D01*
X62035Y-57811D01*
X62175Y-57951D01*
X62151Y-57951D01*
X62059Y-57989D01*
X61989Y-58059D01*
X61951Y-58150D01*
X61951Y-58175D01*
X61811Y-58035D01*
X61719Y-57997D01*
X61781Y-57972D01*
X61808Y-57878D01*
X61500Y-57571D01*
X61429Y-57641D01*
X61429Y-57500D01*
X61122Y-57192D01*
X61028Y-57219D01*
X60957Y-57421D01*
X60968Y-57634D01*
X61028Y-57781D01*
X61122Y-57808D01*
X61429Y-57500D01*
X61429Y-57641D01*
X61192Y-57878D01*
X61219Y-57972D01*
X61284Y-57995D01*
X61189Y-58035D01*
X61035Y-58189D01*
X60951Y-58391D01*
X60951Y-58609D01*
X61035Y-58811D01*
X61189Y-58965D01*
X61391Y-59049D01*
X61609Y-59049D01*
X61811Y-58965D01*
X61951Y-58825D01*
X61951Y-58849D01*
X61989Y-58941D01*
X62059Y-59011D01*
X62150Y-59049D01*
X62249Y-59049D01*
X62849Y-59049D01*
X62941Y-59011D01*
X63011Y-58941D01*
X63049Y-58850D01*
X63049Y-60175D01*
X60825Y-60175D01*
X60825Y-40779D01*
X60927Y-40881D01*
X61142Y-40970D01*
X61374Y-40970D01*
X61589Y-40881D01*
X61658Y-40812D01*
X61658Y-41013D01*
X61762Y-41264D01*
X61954Y-41456D01*
X62204Y-41561D01*
X62476Y-41561D01*
X62727Y-41457D01*
X62919Y-41265D01*
X63024Y-41015D01*
X63024Y-40743D01*
X63024Y-38259D01*
X63024Y-37987D01*
X62920Y-37736D01*
X62728Y-37544D01*
X62478Y-37439D01*
X62206Y-37439D01*
X61955Y-37543D01*
X61763Y-37735D01*
X61658Y-37985D01*
X61658Y-38174D01*
X61607Y-38123D01*
X61572Y-38157D01*
X61559Y-38115D01*
X61345Y-38038D01*
X61118Y-38048D01*
X60957Y-38115D01*
X60926Y-38212D01*
X61223Y-38508D01*
X61258Y-38543D01*
X61329Y-38614D01*
X61364Y-38649D01*
X61660Y-38946D01*
X61757Y-38915D01*
X61834Y-38701D01*
X61828Y-38574D01*
X61954Y-38700D01*
X62204Y-38805D01*
X62476Y-38805D01*
X62727Y-38701D01*
X62919Y-38509D01*
X63024Y-38259D01*
X63024Y-40743D01*
X62920Y-40492D01*
X62728Y-40300D01*
X62478Y-40195D01*
X62206Y-40195D01*
X61955Y-40299D01*
X61842Y-40412D01*
X61842Y-40270D01*
X61753Y-40055D01*
X61590Y-39892D01*
X61590Y-39016D01*
X61258Y-38685D01*
X60926Y-39016D01*
X60957Y-39113D01*
X61171Y-39190D01*
X61398Y-39180D01*
X61559Y-39113D01*
X61590Y-39016D01*
X61590Y-39892D01*
X61589Y-39891D01*
X61374Y-39802D01*
X61142Y-39802D01*
X60927Y-39891D01*
X60825Y-39993D01*
X60825Y-38936D01*
X60856Y-38946D01*
X61187Y-38614D01*
X60856Y-38282D01*
X60825Y-38291D01*
X60825Y-36279D01*
X60927Y-36381D01*
X61142Y-36470D01*
X61374Y-36470D01*
X61589Y-36381D01*
X61658Y-36312D01*
X61658Y-36513D01*
X61762Y-36764D01*
X61954Y-36956D01*
X62204Y-37061D01*
X62476Y-37061D01*
X62727Y-36957D01*
X62919Y-36765D01*
X63024Y-36515D01*
X63024Y-36243D01*
X62920Y-35992D01*
X62728Y-35800D01*
X62478Y-35695D01*
X62206Y-35695D01*
X61955Y-35799D01*
X61842Y-35912D01*
X61842Y-35770D01*
X61753Y-35555D01*
X61589Y-35391D01*
X61374Y-35302D01*
X61142Y-35302D01*
X60927Y-35391D01*
X60825Y-35493D01*
X60825Y-34507D01*
X60927Y-34609D01*
X61142Y-34698D01*
X61374Y-34698D01*
X61589Y-34609D01*
X61753Y-34445D01*
X61842Y-34230D01*
X61842Y-34088D01*
X61954Y-34200D01*
X62204Y-34305D01*
X62476Y-34305D01*
X62727Y-34201D01*
X62919Y-34009D01*
X63024Y-33759D01*
X63024Y-33487D01*
X62920Y-33236D01*
X62728Y-33044D01*
X62478Y-32939D01*
X62206Y-32939D01*
X61955Y-33043D01*
X61763Y-33235D01*
X61658Y-33485D01*
X61658Y-33688D01*
X61589Y-33619D01*
X61374Y-33530D01*
X61142Y-33530D01*
X60927Y-33619D01*
X60825Y-33721D01*
X60825Y-32825D01*
X98175Y-32825D01*
X98175Y-60175D01*
X98175Y-60175D01*
G37*
G54D18*
X98175Y-60175D02*
X98049Y-60175D01*
X98049Y-43350D01*
X98049Y-43251D01*
X98049Y-42651D01*
X98011Y-42559D01*
X97941Y-42489D01*
X97850Y-42451D01*
X97825Y-42451D01*
X97965Y-42311D01*
X98049Y-42109D01*
X98049Y-41891D01*
X97965Y-41689D01*
X97811Y-41535D01*
X97609Y-41451D01*
X97391Y-41451D01*
X97290Y-41493D01*
X97290Y-35700D01*
X97290Y-35000D01*
X97268Y-34889D01*
X97205Y-34795D01*
X97049Y-34639D01*
X97049Y-34151D01*
X97011Y-34059D01*
X96941Y-33989D01*
X96850Y-33951D01*
X96751Y-33951D01*
X96151Y-33951D01*
X96059Y-33989D01*
X95989Y-34059D01*
X95951Y-34150D01*
X95951Y-34175D01*
X95811Y-34035D01*
X95609Y-33951D01*
X95391Y-33951D01*
X95189Y-34035D01*
X95035Y-34189D01*
X95000Y-34273D01*
X94965Y-34189D01*
X94811Y-34035D01*
X94609Y-33951D01*
X94391Y-33951D01*
X94189Y-34035D01*
X94035Y-34189D01*
X94000Y-34273D01*
X93965Y-34189D01*
X93811Y-34035D01*
X93609Y-33951D01*
X93391Y-33951D01*
X93189Y-34035D01*
X93035Y-34189D01*
X93000Y-34273D01*
X92965Y-34189D01*
X92811Y-34035D01*
X92609Y-33951D01*
X92391Y-33951D01*
X92189Y-34035D01*
X92035Y-34189D01*
X92000Y-34273D01*
X91965Y-34189D01*
X91811Y-34035D01*
X91609Y-33951D01*
X91391Y-33951D01*
X91189Y-34035D01*
X91035Y-34189D01*
X91000Y-34273D01*
X90965Y-34189D01*
X90811Y-34035D01*
X90609Y-33951D01*
X90391Y-33951D01*
X90189Y-34035D01*
X90035Y-34189D01*
X90000Y-34273D01*
X89965Y-34189D01*
X89811Y-34035D01*
X89609Y-33951D01*
X89391Y-33951D01*
X89189Y-34035D01*
X89035Y-34189D01*
X89000Y-34273D01*
X88965Y-34189D01*
X88811Y-34035D01*
X88609Y-33951D01*
X88391Y-33951D01*
X88189Y-34035D01*
X88035Y-34189D01*
X88000Y-34273D01*
X87965Y-34189D01*
X87811Y-34035D01*
X87609Y-33951D01*
X87391Y-33951D01*
X87189Y-34035D01*
X87035Y-34189D01*
X87000Y-34273D01*
X86965Y-34189D01*
X86811Y-34035D01*
X86609Y-33951D01*
X86391Y-33951D01*
X86189Y-34035D01*
X86035Y-34189D01*
X86000Y-34273D01*
X85965Y-34189D01*
X85811Y-34035D01*
X85609Y-33951D01*
X85391Y-33951D01*
X85189Y-34035D01*
X85035Y-34189D01*
X85000Y-34273D01*
X84965Y-34189D01*
X84811Y-34035D01*
X84609Y-33951D01*
X84391Y-33951D01*
X84189Y-34035D01*
X84035Y-34189D01*
X84000Y-34273D01*
X83965Y-34189D01*
X83811Y-34035D01*
X83609Y-33951D01*
X83391Y-33951D01*
X83189Y-34035D01*
X83167Y-34057D01*
X82905Y-33795D01*
X82811Y-33732D01*
X82700Y-33710D01*
X76300Y-33710D01*
X76189Y-33732D01*
X76095Y-33795D01*
X75833Y-34057D01*
X75811Y-34035D01*
X75609Y-33951D01*
X75391Y-33951D01*
X75189Y-34035D01*
X75035Y-34189D01*
X75000Y-34273D01*
X74965Y-34189D01*
X74811Y-34035D01*
X74609Y-33951D01*
X74391Y-33951D01*
X74189Y-34035D01*
X74035Y-34189D01*
X74000Y-34273D01*
X73965Y-34189D01*
X73811Y-34035D01*
X73609Y-33951D01*
X73391Y-33951D01*
X73189Y-34035D01*
X73035Y-34189D01*
X73000Y-34273D01*
X72965Y-34189D01*
X72811Y-34035D01*
X72609Y-33951D01*
X72391Y-33951D01*
X72189Y-34035D01*
X72035Y-34189D01*
X72000Y-34273D01*
X71965Y-34189D01*
X71811Y-34035D01*
X71609Y-33951D01*
X71391Y-33951D01*
X71189Y-34035D01*
X71035Y-34189D01*
X71000Y-34273D01*
X70965Y-34189D01*
X70811Y-34035D01*
X70609Y-33951D01*
X70391Y-33951D01*
X70189Y-34035D01*
X70035Y-34189D01*
X69997Y-34280D01*
X69972Y-34219D01*
X69878Y-34192D01*
X69808Y-34262D01*
X69808Y-34122D01*
X69781Y-34028D01*
X69579Y-33957D01*
X69366Y-33968D01*
X69219Y-34028D01*
X69192Y-34122D01*
X69500Y-34429D01*
X69808Y-34122D01*
X69808Y-34262D01*
X69571Y-34500D01*
X69500Y-34571D01*
X69429Y-34500D01*
X69394Y-34465D01*
X69122Y-34192D01*
X69028Y-34219D01*
X69004Y-34284D01*
X68965Y-34189D01*
X68811Y-34035D01*
X68609Y-33951D01*
X68391Y-33951D01*
X68189Y-34035D01*
X68035Y-34189D01*
X68000Y-34273D01*
X67965Y-34189D01*
X67811Y-34035D01*
X67609Y-33951D01*
X67391Y-33951D01*
X67189Y-34035D01*
X67035Y-34189D01*
X67000Y-34273D01*
X66965Y-34189D01*
X66811Y-34035D01*
X66609Y-33951D01*
X66391Y-33951D01*
X66189Y-34035D01*
X66035Y-34189D01*
X66000Y-34273D01*
X65965Y-34189D01*
X65811Y-34035D01*
X65609Y-33951D01*
X65391Y-33951D01*
X65189Y-34035D01*
X65035Y-34189D01*
X64951Y-34391D01*
X64951Y-34609D01*
X65035Y-34811D01*
X65189Y-34965D01*
X65273Y-35000D01*
X65189Y-35035D01*
X65035Y-35189D01*
X64951Y-35391D01*
X64951Y-35609D01*
X65035Y-35811D01*
X65189Y-35965D01*
X65391Y-36049D01*
X65609Y-36049D01*
X65625Y-36042D01*
X65625Y-36074D01*
X65682Y-36212D01*
X65787Y-36317D01*
X65925Y-36375D01*
X66074Y-36375D01*
X66212Y-36318D01*
X66317Y-36213D01*
X66375Y-36075D01*
X66375Y-36042D01*
X66391Y-36049D01*
X66609Y-36049D01*
X66811Y-35965D01*
X66965Y-35811D01*
X67000Y-35726D01*
X67035Y-35811D01*
X67189Y-35965D01*
X67391Y-36049D01*
X67609Y-36049D01*
X67811Y-35965D01*
X67965Y-35811D01*
X68000Y-35726D01*
X68035Y-35811D01*
X68189Y-35965D01*
X68391Y-36049D01*
X68609Y-36049D01*
X68811Y-35965D01*
X68965Y-35811D01*
X69002Y-35719D01*
X69028Y-35781D01*
X69122Y-35808D01*
X69394Y-35535D01*
X69429Y-35500D01*
X69500Y-35429D01*
X69571Y-35500D01*
X69606Y-35535D01*
X69878Y-35808D01*
X69972Y-35781D01*
X69995Y-35715D01*
X70035Y-35811D01*
X70189Y-35965D01*
X70391Y-36049D01*
X70609Y-36049D01*
X70811Y-35965D01*
X70833Y-35943D01*
X73310Y-38420D01*
X73310Y-41800D01*
X73332Y-41911D01*
X73395Y-42005D01*
X74147Y-42757D01*
X74088Y-42782D01*
X73983Y-42887D01*
X73925Y-43025D01*
X73925Y-43174D01*
X73977Y-43300D01*
X73925Y-43425D01*
X73925Y-43524D01*
X73910Y-43600D01*
X73910Y-44400D01*
X73932Y-44511D01*
X73995Y-44605D01*
X75610Y-46220D01*
X75610Y-50525D01*
X75526Y-50525D01*
X75388Y-50582D01*
X75375Y-50594D01*
X75375Y-47175D01*
X75375Y-47026D01*
X75318Y-46888D01*
X75213Y-46783D01*
X75075Y-46725D01*
X75033Y-46725D01*
X75018Y-46688D01*
X74913Y-46583D01*
X74796Y-46533D01*
X74817Y-46513D01*
X74875Y-46375D01*
X74875Y-46226D01*
X74818Y-46088D01*
X74713Y-45983D01*
X74575Y-45925D01*
X74426Y-45925D01*
X74288Y-45982D01*
X74183Y-46087D01*
X74125Y-46225D01*
X74125Y-46374D01*
X74145Y-46424D01*
X74083Y-46487D01*
X74025Y-46625D01*
X74025Y-46774D01*
X74082Y-46912D01*
X74187Y-47017D01*
X74325Y-47075D01*
X74366Y-47075D01*
X74382Y-47112D01*
X74487Y-47217D01*
X74625Y-47275D01*
X74666Y-47275D01*
X74682Y-47312D01*
X74787Y-47417D01*
X74925Y-47475D01*
X75074Y-47475D01*
X75212Y-47418D01*
X75317Y-47313D01*
X75375Y-47175D01*
X75375Y-50594D01*
X75336Y-50633D01*
X75318Y-50588D01*
X75254Y-50524D01*
X75275Y-50475D01*
X75275Y-50326D01*
X75218Y-50188D01*
X75125Y-50095D01*
X75125Y-48475D01*
X75125Y-48326D01*
X75083Y-48224D01*
X75125Y-48125D01*
X75125Y-47976D01*
X75068Y-47838D01*
X74963Y-47733D01*
X74825Y-47675D01*
X74676Y-47675D01*
X74538Y-47732D01*
X74433Y-47837D01*
X74375Y-47975D01*
X74375Y-48124D01*
X74375Y-48125D01*
X74326Y-48125D01*
X74188Y-48182D01*
X74083Y-48287D01*
X74025Y-48425D01*
X74025Y-48574D01*
X74077Y-48700D01*
X74025Y-48825D01*
X74025Y-48974D01*
X74082Y-49112D01*
X74187Y-49217D01*
X74325Y-49275D01*
X74474Y-49275D01*
X74612Y-49218D01*
X74717Y-49113D01*
X74775Y-48975D01*
X74775Y-48826D01*
X74753Y-48775D01*
X74824Y-48775D01*
X74962Y-48718D01*
X75067Y-48613D01*
X75125Y-48475D01*
X75125Y-50095D01*
X75113Y-50083D01*
X74975Y-50025D01*
X74826Y-50025D01*
X74688Y-50082D01*
X74583Y-50187D01*
X74525Y-50325D01*
X74525Y-50474D01*
X74582Y-50612D01*
X74645Y-50675D01*
X74625Y-50725D01*
X74625Y-50874D01*
X74682Y-51012D01*
X74787Y-51117D01*
X74925Y-51175D01*
X74982Y-51312D01*
X75087Y-51417D01*
X75225Y-51475D01*
X75374Y-51475D01*
X75512Y-51418D01*
X75610Y-51320D01*
X75610Y-55980D01*
X74630Y-56959D01*
X74609Y-56951D01*
X74391Y-56951D01*
X74189Y-57035D01*
X74035Y-57189D01*
X74000Y-57273D01*
X73965Y-57189D01*
X73811Y-57035D01*
X73609Y-56951D01*
X73391Y-56951D01*
X73189Y-57035D01*
X73035Y-57189D01*
X73000Y-57273D01*
X72975Y-57213D01*
X72975Y-41275D01*
X72975Y-41126D01*
X72918Y-40988D01*
X72813Y-40883D01*
X72675Y-40825D01*
X72526Y-40825D01*
X72388Y-40882D01*
X72283Y-40987D01*
X72225Y-41125D01*
X72225Y-41199D01*
X72109Y-41151D01*
X71891Y-41151D01*
X71689Y-41235D01*
X71535Y-41389D01*
X71500Y-41473D01*
X71465Y-41389D01*
X71311Y-41235D01*
X71109Y-41151D01*
X70891Y-41151D01*
X70689Y-41235D01*
X70549Y-41375D01*
X70549Y-41351D01*
X70511Y-41259D01*
X70441Y-41189D01*
X70350Y-41151D01*
X70251Y-41151D01*
X69808Y-41151D01*
X69808Y-35878D01*
X69500Y-35571D01*
X69192Y-35878D01*
X69219Y-35972D01*
X69421Y-36043D01*
X69634Y-36032D01*
X69781Y-35972D01*
X69808Y-35878D01*
X69808Y-41151D01*
X69651Y-41151D01*
X69559Y-41189D01*
X69489Y-41259D01*
X69451Y-41350D01*
X69451Y-41449D01*
X69451Y-42049D01*
X69489Y-42141D01*
X69548Y-42200D01*
X69489Y-42259D01*
X69451Y-42350D01*
X69451Y-42449D01*
X69451Y-43049D01*
X69489Y-43141D01*
X69559Y-43211D01*
X69650Y-43249D01*
X69749Y-43249D01*
X70349Y-43249D01*
X70441Y-43211D01*
X70511Y-43141D01*
X70549Y-43050D01*
X70549Y-43025D01*
X70689Y-43165D01*
X70891Y-43249D01*
X71109Y-43249D01*
X71311Y-43165D01*
X71465Y-43011D01*
X71500Y-42926D01*
X71535Y-43011D01*
X71689Y-43165D01*
X71891Y-43249D01*
X72109Y-43249D01*
X72311Y-43165D01*
X72465Y-43011D01*
X72549Y-42809D01*
X72549Y-42591D01*
X72465Y-42389D01*
X72311Y-42235D01*
X72226Y-42200D01*
X72311Y-42165D01*
X72465Y-42011D01*
X72549Y-41809D01*
X72549Y-41591D01*
X72542Y-41575D01*
X72674Y-41575D01*
X72812Y-41518D01*
X72917Y-41413D01*
X72975Y-41275D01*
X72975Y-57213D01*
X72965Y-57189D01*
X72811Y-57035D01*
X72675Y-56978D01*
X72675Y-52575D01*
X72675Y-52426D01*
X72618Y-52288D01*
X72549Y-52219D01*
X72549Y-44409D01*
X72549Y-44191D01*
X72465Y-43989D01*
X72311Y-43835D01*
X72109Y-43751D01*
X71891Y-43751D01*
X71689Y-43835D01*
X71535Y-43989D01*
X71500Y-44073D01*
X71465Y-43989D01*
X71311Y-43835D01*
X71109Y-43751D01*
X70891Y-43751D01*
X70689Y-43835D01*
X70535Y-43989D01*
X70451Y-44191D01*
X70451Y-44409D01*
X70535Y-44611D01*
X70689Y-44765D01*
X70891Y-44849D01*
X71109Y-44849D01*
X71311Y-44765D01*
X71465Y-44611D01*
X71500Y-44526D01*
X71535Y-44611D01*
X71689Y-44765D01*
X71891Y-44849D01*
X72109Y-44849D01*
X72311Y-44765D01*
X72465Y-44611D01*
X72549Y-44409D01*
X72549Y-52219D01*
X72513Y-52183D01*
X72375Y-52125D01*
X72226Y-52125D01*
X72088Y-52182D01*
X72049Y-52221D01*
X72049Y-49570D01*
X72049Y-49352D01*
X72049Y-47648D01*
X72049Y-47430D01*
X71965Y-47228D01*
X71811Y-47074D01*
X71609Y-46990D01*
X71391Y-46990D01*
X71189Y-47074D01*
X71035Y-47228D01*
X70951Y-47430D01*
X70951Y-47648D01*
X71035Y-47850D01*
X71189Y-48004D01*
X71391Y-48088D01*
X71609Y-48088D01*
X71811Y-48004D01*
X71965Y-47850D01*
X72049Y-47648D01*
X72049Y-49352D01*
X71965Y-49150D01*
X71811Y-48996D01*
X71609Y-48912D01*
X71391Y-48912D01*
X71189Y-48996D01*
X71035Y-49150D01*
X70951Y-49352D01*
X70951Y-49570D01*
X71035Y-49772D01*
X71189Y-49926D01*
X71391Y-50010D01*
X71609Y-50010D01*
X71811Y-49926D01*
X71965Y-49772D01*
X72049Y-49570D01*
X72049Y-52221D01*
X71983Y-52287D01*
X71925Y-52425D01*
X71925Y-52574D01*
X71982Y-52712D01*
X72087Y-52817D01*
X72225Y-52875D01*
X72374Y-52875D01*
X72512Y-52818D01*
X72617Y-52713D01*
X72675Y-52575D01*
X72675Y-56978D01*
X72609Y-56951D01*
X72391Y-56951D01*
X72189Y-57035D01*
X72035Y-57189D01*
X72000Y-57273D01*
X71965Y-57189D01*
X71811Y-57035D01*
X71775Y-57020D01*
X71775Y-51175D01*
X71775Y-51026D01*
X71718Y-50888D01*
X71613Y-50783D01*
X71475Y-50725D01*
X71326Y-50725D01*
X71188Y-50782D01*
X71136Y-50833D01*
X71118Y-50788D01*
X71013Y-50683D01*
X70875Y-50625D01*
X70726Y-50625D01*
X70588Y-50682D01*
X70483Y-50787D01*
X70425Y-50925D01*
X70425Y-51074D01*
X70482Y-51212D01*
X70587Y-51317D01*
X70725Y-51375D01*
X70874Y-51375D01*
X71012Y-51318D01*
X71063Y-51266D01*
X71082Y-51312D01*
X71187Y-51417D01*
X71325Y-51475D01*
X71474Y-51475D01*
X71612Y-51418D01*
X71717Y-51313D01*
X71775Y-51175D01*
X71775Y-57020D01*
X71609Y-56951D01*
X71391Y-56951D01*
X71189Y-57035D01*
X71035Y-57189D01*
X71000Y-57273D01*
X70965Y-57189D01*
X70811Y-57035D01*
X70609Y-56951D01*
X70391Y-56951D01*
X70189Y-57035D01*
X70035Y-57189D01*
X70000Y-57273D01*
X69965Y-57189D01*
X69811Y-57035D01*
X69609Y-56951D01*
X69391Y-56951D01*
X69189Y-57035D01*
X69175Y-57049D01*
X69175Y-46575D01*
X69175Y-46426D01*
X69118Y-46288D01*
X69013Y-46183D01*
X68875Y-46125D01*
X68775Y-46125D01*
X68775Y-44075D01*
X68775Y-43926D01*
X68718Y-43788D01*
X68613Y-43683D01*
X68475Y-43625D01*
X68326Y-43625D01*
X68188Y-43682D01*
X68083Y-43787D01*
X68025Y-43925D01*
X68025Y-44074D01*
X68082Y-44212D01*
X68187Y-44317D01*
X68325Y-44375D01*
X68474Y-44375D01*
X68612Y-44318D01*
X68717Y-44213D01*
X68775Y-44075D01*
X68775Y-46125D01*
X68726Y-46125D01*
X68588Y-46182D01*
X68483Y-46287D01*
X68425Y-46425D01*
X68425Y-46574D01*
X68482Y-46712D01*
X68587Y-46817D01*
X68725Y-46875D01*
X68874Y-46875D01*
X69012Y-46818D01*
X69117Y-46713D01*
X69175Y-46575D01*
X69175Y-57049D01*
X69035Y-57189D01*
X69000Y-57273D01*
X68965Y-57189D01*
X68811Y-57035D01*
X68775Y-57020D01*
X68775Y-51075D01*
X68775Y-50926D01*
X68718Y-50788D01*
X68613Y-50683D01*
X68475Y-50625D01*
X68326Y-50625D01*
X68188Y-50682D01*
X68083Y-50787D01*
X68025Y-50925D01*
X68025Y-51074D01*
X68082Y-51212D01*
X68187Y-51317D01*
X68325Y-51375D01*
X68474Y-51375D01*
X68612Y-51318D01*
X68717Y-51213D01*
X68775Y-51075D01*
X68775Y-57020D01*
X68609Y-56951D01*
X68391Y-56951D01*
X68189Y-57035D01*
X68035Y-57189D01*
X68000Y-57273D01*
X67965Y-57189D01*
X67875Y-57099D01*
X67875Y-43875D01*
X67875Y-43726D01*
X67822Y-43599D01*
X67875Y-43475D01*
X67875Y-43326D01*
X67822Y-43199D01*
X67875Y-43075D01*
X67875Y-42926D01*
X67818Y-42788D01*
X67713Y-42683D01*
X67575Y-42625D01*
X67426Y-42625D01*
X67288Y-42682D01*
X67183Y-42787D01*
X67125Y-42925D01*
X67125Y-43074D01*
X67177Y-43200D01*
X67125Y-43325D01*
X67125Y-43474D01*
X67177Y-43600D01*
X67125Y-43725D01*
X67125Y-43874D01*
X67182Y-44012D01*
X67287Y-44117D01*
X67425Y-44175D01*
X67574Y-44175D01*
X67712Y-44118D01*
X67817Y-44013D01*
X67875Y-43875D01*
X67875Y-57099D01*
X67811Y-57035D01*
X67609Y-56951D01*
X67391Y-56951D01*
X67189Y-57035D01*
X67035Y-57189D01*
X67000Y-57273D01*
X66965Y-57189D01*
X66811Y-57035D01*
X66609Y-56951D01*
X66391Y-56951D01*
X66189Y-57035D01*
X66035Y-57189D01*
X66000Y-57273D01*
X65965Y-57189D01*
X65811Y-57035D01*
X65609Y-56951D01*
X65391Y-56951D01*
X65189Y-57035D01*
X65035Y-57189D01*
X64951Y-57391D01*
X64951Y-57609D01*
X65035Y-57811D01*
X65175Y-57951D01*
X65151Y-57951D01*
X65059Y-57989D01*
X64989Y-58059D01*
X64951Y-58150D01*
X64951Y-58249D01*
X64951Y-58849D01*
X64989Y-58941D01*
X65059Y-59011D01*
X65150Y-59049D01*
X65249Y-59049D01*
X65849Y-59049D01*
X65941Y-59011D01*
X66011Y-58941D01*
X66049Y-58850D01*
X66049Y-58825D01*
X66189Y-58965D01*
X66391Y-59049D01*
X66609Y-59049D01*
X66811Y-58965D01*
X66965Y-58811D01*
X67000Y-58726D01*
X67035Y-58811D01*
X67189Y-58965D01*
X67391Y-59049D01*
X67609Y-59049D01*
X67811Y-58965D01*
X67965Y-58811D01*
X68000Y-58726D01*
X68035Y-58811D01*
X68189Y-58965D01*
X68391Y-59049D01*
X68609Y-59049D01*
X68811Y-58965D01*
X68965Y-58811D01*
X69000Y-58726D01*
X69035Y-58811D01*
X69189Y-58965D01*
X69391Y-59049D01*
X69609Y-59049D01*
X69811Y-58965D01*
X69965Y-58811D01*
X70000Y-58726D01*
X70035Y-58811D01*
X70189Y-58965D01*
X70391Y-59049D01*
X70609Y-59049D01*
X70811Y-58965D01*
X70965Y-58811D01*
X71000Y-58726D01*
X71035Y-58811D01*
X71189Y-58965D01*
X71391Y-59049D01*
X71609Y-59049D01*
X71811Y-58965D01*
X71965Y-58811D01*
X72000Y-58726D01*
X72035Y-58811D01*
X72189Y-58965D01*
X72391Y-59049D01*
X72609Y-59049D01*
X72811Y-58965D01*
X72965Y-58811D01*
X73000Y-58726D01*
X73035Y-58811D01*
X73189Y-58965D01*
X73391Y-59049D01*
X73609Y-59049D01*
X73811Y-58965D01*
X73965Y-58811D01*
X74000Y-58726D01*
X74035Y-58811D01*
X74189Y-58965D01*
X74391Y-59049D01*
X74609Y-59049D01*
X74811Y-58965D01*
X74965Y-58811D01*
X75000Y-58726D01*
X75035Y-58811D01*
X75189Y-58965D01*
X75391Y-59049D01*
X75609Y-59049D01*
X75811Y-58965D01*
X75965Y-58811D01*
X76000Y-58726D01*
X76035Y-58811D01*
X76189Y-58965D01*
X76391Y-59049D01*
X76609Y-59049D01*
X76811Y-58965D01*
X76965Y-58811D01*
X77000Y-58726D01*
X77035Y-58811D01*
X77189Y-58965D01*
X77391Y-59049D01*
X77609Y-59049D01*
X77811Y-58965D01*
X77965Y-58811D01*
X78000Y-58726D01*
X78035Y-58811D01*
X78189Y-58965D01*
X78391Y-59049D01*
X78609Y-59049D01*
X78811Y-58965D01*
X78965Y-58811D01*
X79000Y-58726D01*
X79035Y-58811D01*
X79189Y-58965D01*
X79391Y-59049D01*
X79609Y-59049D01*
X79811Y-58965D01*
X79965Y-58811D01*
X80000Y-58726D01*
X80035Y-58811D01*
X80189Y-58965D01*
X80391Y-59049D01*
X80609Y-59049D01*
X80811Y-58965D01*
X80965Y-58811D01*
X81000Y-58726D01*
X81035Y-58811D01*
X81189Y-58965D01*
X81391Y-59049D01*
X81609Y-59049D01*
X81811Y-58965D01*
X81965Y-58811D01*
X82000Y-58726D01*
X82035Y-58811D01*
X82189Y-58965D01*
X82391Y-59049D01*
X82609Y-59049D01*
X82811Y-58965D01*
X82965Y-58811D01*
X83000Y-58726D01*
X83035Y-58811D01*
X83189Y-58965D01*
X83391Y-59049D01*
X83609Y-59049D01*
X83811Y-58965D01*
X83965Y-58811D01*
X84000Y-58726D01*
X84035Y-58811D01*
X84189Y-58965D01*
X84391Y-59049D01*
X84609Y-59049D01*
X84811Y-58965D01*
X84965Y-58811D01*
X85000Y-58726D01*
X85035Y-58811D01*
X85189Y-58965D01*
X85391Y-59049D01*
X85609Y-59049D01*
X85811Y-58965D01*
X85965Y-58811D01*
X86000Y-58726D01*
X86035Y-58811D01*
X86189Y-58965D01*
X86391Y-59049D01*
X86609Y-59049D01*
X86811Y-58965D01*
X86965Y-58811D01*
X87000Y-58726D01*
X87035Y-58811D01*
X87189Y-58965D01*
X87391Y-59049D01*
X87609Y-59049D01*
X87811Y-58965D01*
X87965Y-58811D01*
X88000Y-58726D01*
X88035Y-58811D01*
X88189Y-58965D01*
X88391Y-59049D01*
X88609Y-59049D01*
X88811Y-58965D01*
X88965Y-58811D01*
X89000Y-58726D01*
X89035Y-58811D01*
X89189Y-58965D01*
X89391Y-59049D01*
X89609Y-59049D01*
X89811Y-58965D01*
X89965Y-58811D01*
X90000Y-58726D01*
X90035Y-58811D01*
X90189Y-58965D01*
X90391Y-59049D01*
X90609Y-59049D01*
X90811Y-58965D01*
X90965Y-58811D01*
X91000Y-58726D01*
X91035Y-58811D01*
X91189Y-58965D01*
X91391Y-59049D01*
X91609Y-59049D01*
X91811Y-58965D01*
X91965Y-58811D01*
X92000Y-58726D01*
X92035Y-58811D01*
X92189Y-58965D01*
X92391Y-59049D01*
X92609Y-59049D01*
X92811Y-58965D01*
X92965Y-58811D01*
X93000Y-58726D01*
X93035Y-58811D01*
X93189Y-58965D01*
X93391Y-59049D01*
X93609Y-59049D01*
X93811Y-58965D01*
X93965Y-58811D01*
X94000Y-58726D01*
X94035Y-58811D01*
X94189Y-58965D01*
X94391Y-59049D01*
X94609Y-59049D01*
X94811Y-58965D01*
X94965Y-58811D01*
X95000Y-58726D01*
X95035Y-58811D01*
X95189Y-58965D01*
X95391Y-59049D01*
X95609Y-59049D01*
X95811Y-58965D01*
X95965Y-58811D01*
X96000Y-58726D01*
X96035Y-58811D01*
X96189Y-58965D01*
X96391Y-59049D01*
X96609Y-59049D01*
X96811Y-58965D01*
X96965Y-58811D01*
X97049Y-58609D01*
X97049Y-58391D01*
X97043Y-58376D01*
X97043Y-57579D01*
X97032Y-57366D01*
X96972Y-57219D01*
X96878Y-57192D01*
X96808Y-57262D01*
X96808Y-57122D01*
X96781Y-57028D01*
X96579Y-56957D01*
X96366Y-56968D01*
X96219Y-57028D01*
X96192Y-57122D01*
X96500Y-57429D01*
X96808Y-57122D01*
X96808Y-57262D01*
X96571Y-57500D01*
X96878Y-57808D01*
X96972Y-57781D01*
X97043Y-57579D01*
X97043Y-58376D01*
X96965Y-58189D01*
X96811Y-58035D01*
X96719Y-57997D01*
X96781Y-57972D01*
X96808Y-57878D01*
X96500Y-57571D01*
X96192Y-57878D01*
X96219Y-57972D01*
X96284Y-57995D01*
X96189Y-58035D01*
X96035Y-58189D01*
X96000Y-58273D01*
X95965Y-58189D01*
X95811Y-58035D01*
X95726Y-58000D01*
X95811Y-57965D01*
X95965Y-57811D01*
X96002Y-57719D01*
X96028Y-57781D01*
X96122Y-57808D01*
X96429Y-57500D01*
X96122Y-57192D01*
X96028Y-57219D01*
X96004Y-57284D01*
X95965Y-57189D01*
X95811Y-57035D01*
X95609Y-56951D01*
X95391Y-56951D01*
X95189Y-57035D01*
X95035Y-57189D01*
X95000Y-57273D01*
X94965Y-57189D01*
X94811Y-57035D01*
X94609Y-56951D01*
X94391Y-56951D01*
X94189Y-57035D01*
X94035Y-57189D01*
X94000Y-57273D01*
X93965Y-57189D01*
X93811Y-57035D01*
X93609Y-56951D01*
X93391Y-56951D01*
X93189Y-57035D01*
X93035Y-57189D01*
X93000Y-57273D01*
X92965Y-57189D01*
X92811Y-57035D01*
X92609Y-56951D01*
X92391Y-56951D01*
X92189Y-57035D01*
X92035Y-57189D01*
X92000Y-57273D01*
X91965Y-57189D01*
X91811Y-57035D01*
X91609Y-56951D01*
X91391Y-56951D01*
X91189Y-57035D01*
X91035Y-57189D01*
X91000Y-57273D01*
X90965Y-57189D01*
X90811Y-57035D01*
X90609Y-56951D01*
X90391Y-56951D01*
X90189Y-57035D01*
X90035Y-57189D01*
X90000Y-57273D01*
X89965Y-57189D01*
X89811Y-57035D01*
X89758Y-57013D01*
X89775Y-56975D01*
X89775Y-56826D01*
X89718Y-56688D01*
X89613Y-56583D01*
X89475Y-56525D01*
X89326Y-56525D01*
X89199Y-56577D01*
X89075Y-56525D01*
X88926Y-56525D01*
X88788Y-56582D01*
X88683Y-56687D01*
X88625Y-56825D01*
X88625Y-56957D01*
X88609Y-56951D01*
X88391Y-56951D01*
X88189Y-57035D01*
X88035Y-57189D01*
X88000Y-57273D01*
X87965Y-57189D01*
X87811Y-57035D01*
X87609Y-56951D01*
X87391Y-56951D01*
X87189Y-57035D01*
X87035Y-57189D01*
X87000Y-57273D01*
X86965Y-57189D01*
X86811Y-57035D01*
X86609Y-56951D01*
X86391Y-56951D01*
X86189Y-57035D01*
X86035Y-57189D01*
X86000Y-57273D01*
X85965Y-57189D01*
X85811Y-57035D01*
X85609Y-56951D01*
X85391Y-56951D01*
X85189Y-57035D01*
X85035Y-57189D01*
X85000Y-57273D01*
X84965Y-57189D01*
X84811Y-57035D01*
X84609Y-56951D01*
X84391Y-56951D01*
X84189Y-57035D01*
X84035Y-57189D01*
X84000Y-57273D01*
X83965Y-57189D01*
X83811Y-57035D01*
X83609Y-56951D01*
X83391Y-56951D01*
X83189Y-57035D01*
X83035Y-57189D01*
X83000Y-57273D01*
X82965Y-57189D01*
X82811Y-57035D01*
X82609Y-56951D01*
X82391Y-56951D01*
X82189Y-57035D01*
X82075Y-57149D01*
X82075Y-45175D01*
X82075Y-45026D01*
X82018Y-44888D01*
X81913Y-44783D01*
X81775Y-44725D01*
X81626Y-44725D01*
X81488Y-44782D01*
X81383Y-44887D01*
X81325Y-45025D01*
X81325Y-45174D01*
X81382Y-45312D01*
X81487Y-45417D01*
X81625Y-45475D01*
X81774Y-45475D01*
X81912Y-45418D01*
X82017Y-45313D01*
X82075Y-45175D01*
X82075Y-57149D01*
X82035Y-57189D01*
X82000Y-57273D01*
X81965Y-57189D01*
X81875Y-57099D01*
X81875Y-48375D01*
X81875Y-48226D01*
X81818Y-48088D01*
X81713Y-47983D01*
X81575Y-47925D01*
X81475Y-47925D01*
X81475Y-46375D01*
X81475Y-46226D01*
X81418Y-46088D01*
X81313Y-45983D01*
X81266Y-45963D01*
X81317Y-45913D01*
X81375Y-45775D01*
X81375Y-45626D01*
X81318Y-45488D01*
X81213Y-45383D01*
X81075Y-45325D01*
X80926Y-45325D01*
X80788Y-45382D01*
X80775Y-45395D01*
X80775Y-42875D01*
X80775Y-42726D01*
X80718Y-42588D01*
X80613Y-42483D01*
X80475Y-42425D01*
X80326Y-42425D01*
X80188Y-42482D01*
X80083Y-42587D01*
X80025Y-42725D01*
X80025Y-42874D01*
X80082Y-43012D01*
X80187Y-43117D01*
X80325Y-43175D01*
X80474Y-43175D01*
X80612Y-43118D01*
X80717Y-43013D01*
X80775Y-42875D01*
X80775Y-45395D01*
X80683Y-45487D01*
X80625Y-45625D01*
X80625Y-45646D01*
X80575Y-45625D01*
X80426Y-45625D01*
X80288Y-45682D01*
X80183Y-45787D01*
X80125Y-45925D01*
X79988Y-45982D01*
X79883Y-46087D01*
X79825Y-46225D01*
X79825Y-46374D01*
X79882Y-46512D01*
X79987Y-46617D01*
X80125Y-46675D01*
X80274Y-46675D01*
X80412Y-46618D01*
X80434Y-46595D01*
X80482Y-46712D01*
X80587Y-46817D01*
X80725Y-46875D01*
X80874Y-46875D01*
X81012Y-46818D01*
X81117Y-46713D01*
X81132Y-46675D01*
X81174Y-46675D01*
X81312Y-46618D01*
X81417Y-46513D01*
X81475Y-46375D01*
X81475Y-47925D01*
X81426Y-47925D01*
X81288Y-47982D01*
X81183Y-48087D01*
X81125Y-48225D01*
X81125Y-48374D01*
X81182Y-48512D01*
X81287Y-48617D01*
X81425Y-48675D01*
X81574Y-48675D01*
X81712Y-48618D01*
X81817Y-48513D01*
X81875Y-48375D01*
X81875Y-57099D01*
X81811Y-57035D01*
X81609Y-56951D01*
X81391Y-56951D01*
X81189Y-57035D01*
X81035Y-57189D01*
X81000Y-57273D01*
X80975Y-57213D01*
X80975Y-50275D01*
X80975Y-50126D01*
X80918Y-49988D01*
X80813Y-49883D01*
X80675Y-49825D01*
X80526Y-49825D01*
X80388Y-49882D01*
X80283Y-49987D01*
X80275Y-50006D01*
X80275Y-47175D01*
X80275Y-47026D01*
X80218Y-46888D01*
X80113Y-46783D01*
X79975Y-46725D01*
X79826Y-46725D01*
X79688Y-46782D01*
X79583Y-46887D01*
X79525Y-47025D01*
X79525Y-47174D01*
X79582Y-47312D01*
X79687Y-47417D01*
X79825Y-47475D01*
X79974Y-47475D01*
X80112Y-47418D01*
X80217Y-47313D01*
X80275Y-47175D01*
X80275Y-50006D01*
X80225Y-50125D01*
X80225Y-50274D01*
X80282Y-50412D01*
X80387Y-50517D01*
X80525Y-50575D01*
X80674Y-50575D01*
X80812Y-50518D01*
X80917Y-50413D01*
X80975Y-50275D01*
X80975Y-57213D01*
X80965Y-57189D01*
X80811Y-57035D01*
X80609Y-56951D01*
X80391Y-56951D01*
X80189Y-57035D01*
X80035Y-57189D01*
X80000Y-57273D01*
X79965Y-57189D01*
X79811Y-57035D01*
X79609Y-56951D01*
X79391Y-56951D01*
X79189Y-57035D01*
X79035Y-57189D01*
X79000Y-57273D01*
X78965Y-57189D01*
X78811Y-57035D01*
X78609Y-56951D01*
X78391Y-56951D01*
X78189Y-57035D01*
X78035Y-57189D01*
X78000Y-57273D01*
X77965Y-57189D01*
X77811Y-57035D01*
X77609Y-56951D01*
X77391Y-56951D01*
X77189Y-57035D01*
X77035Y-57189D01*
X77000Y-57273D01*
X76990Y-57249D01*
X76990Y-52575D01*
X77074Y-52575D01*
X77212Y-52518D01*
X77317Y-52413D01*
X77336Y-52366D01*
X77345Y-52375D01*
X77325Y-52425D01*
X77325Y-52574D01*
X77382Y-52712D01*
X77487Y-52817D01*
X77625Y-52875D01*
X77766Y-52875D01*
X77782Y-52912D01*
X77887Y-53017D01*
X78025Y-53075D01*
X78174Y-53075D01*
X78312Y-53018D01*
X78417Y-52913D01*
X78426Y-52890D01*
X78900Y-52890D01*
X79011Y-52868D01*
X79105Y-52805D01*
X79505Y-52406D01*
X79505Y-52405D01*
X79568Y-52312D01*
X79568Y-52311D01*
X79571Y-52293D01*
X79589Y-52200D01*
X79590Y-52200D01*
X79590Y-51100D01*
X79568Y-50989D01*
X79505Y-50895D01*
X78390Y-49780D01*
X78390Y-49018D01*
X78525Y-49075D01*
X78674Y-49075D01*
X78812Y-49018D01*
X78917Y-48913D01*
X78975Y-48775D01*
X78975Y-48626D01*
X78918Y-48488D01*
X78813Y-48383D01*
X78675Y-48325D01*
X78526Y-48325D01*
X78390Y-48381D01*
X78390Y-44500D01*
X78368Y-44389D01*
X78305Y-44295D01*
X77790Y-43780D01*
X77790Y-41875D01*
X77874Y-41875D01*
X78012Y-41818D01*
X78117Y-41713D01*
X78175Y-41575D01*
X78175Y-41426D01*
X78122Y-41299D01*
X78175Y-41175D01*
X78175Y-41026D01*
X78118Y-40888D01*
X78013Y-40783D01*
X77875Y-40725D01*
X77790Y-40725D01*
X77790Y-37140D01*
X77817Y-37113D01*
X77875Y-36975D01*
X77875Y-36890D01*
X81480Y-36890D01*
X84710Y-40120D01*
X84710Y-43860D01*
X84683Y-43887D01*
X84625Y-44025D01*
X84625Y-44174D01*
X84682Y-44312D01*
X84787Y-44417D01*
X84925Y-44475D01*
X84966Y-44475D01*
X84982Y-44512D01*
X85087Y-44617D01*
X85225Y-44675D01*
X85266Y-44675D01*
X85282Y-44712D01*
X85380Y-44810D01*
X85065Y-45125D01*
X85026Y-45125D01*
X84888Y-45182D01*
X84783Y-45287D01*
X84725Y-45425D01*
X84725Y-45574D01*
X84782Y-45712D01*
X84887Y-45817D01*
X85025Y-45875D01*
X85174Y-45875D01*
X85300Y-45822D01*
X85425Y-45875D01*
X85574Y-45875D01*
X85700Y-45822D01*
X85825Y-45875D01*
X85974Y-45875D01*
X86112Y-45818D01*
X86140Y-45790D01*
X86200Y-45790D01*
X86311Y-45768D01*
X86405Y-45705D01*
X86410Y-45700D01*
X86410Y-47880D01*
X85942Y-48347D01*
X85918Y-48288D01*
X85813Y-48183D01*
X85675Y-48125D01*
X85633Y-48125D01*
X85618Y-48088D01*
X85513Y-47983D01*
X85375Y-47925D01*
X85333Y-47925D01*
X85318Y-47888D01*
X85295Y-47865D01*
X85412Y-47818D01*
X85517Y-47713D01*
X85546Y-47642D01*
X85625Y-47675D01*
X85774Y-47675D01*
X85912Y-47618D01*
X86017Y-47513D01*
X86075Y-47375D01*
X86075Y-47226D01*
X86022Y-47099D01*
X86075Y-46975D01*
X86075Y-46826D01*
X86018Y-46688D01*
X85913Y-46583D01*
X85775Y-46525D01*
X85733Y-46525D01*
X85718Y-46488D01*
X85613Y-46383D01*
X85475Y-46325D01*
X85433Y-46325D01*
X85418Y-46288D01*
X85313Y-46183D01*
X85175Y-46125D01*
X85026Y-46125D01*
X84888Y-46182D01*
X84783Y-46287D01*
X84725Y-46425D01*
X84725Y-46574D01*
X84782Y-46712D01*
X84887Y-46817D01*
X85025Y-46875D01*
X85066Y-46875D01*
X85082Y-46912D01*
X85187Y-47017D01*
X85325Y-47075D01*
X85366Y-47075D01*
X85377Y-47100D01*
X85353Y-47157D01*
X85275Y-47125D01*
X85126Y-47125D01*
X84988Y-47182D01*
X84883Y-47287D01*
X84867Y-47325D01*
X84826Y-47325D01*
X84688Y-47382D01*
X84583Y-47487D01*
X84525Y-47625D01*
X84525Y-47774D01*
X84582Y-47912D01*
X84645Y-47975D01*
X84625Y-48025D01*
X84625Y-48174D01*
X84682Y-48312D01*
X84787Y-48417D01*
X84925Y-48475D01*
X84966Y-48475D01*
X84982Y-48512D01*
X85087Y-48617D01*
X85225Y-48675D01*
X85266Y-48675D01*
X85282Y-48712D01*
X85387Y-48817D01*
X85447Y-48842D01*
X83265Y-51025D01*
X83175Y-51025D01*
X83175Y-47175D01*
X83175Y-47026D01*
X83118Y-46888D01*
X83075Y-46845D01*
X83075Y-41075D01*
X83075Y-40926D01*
X83018Y-40788D01*
X82913Y-40683D01*
X82775Y-40625D01*
X82733Y-40625D01*
X82718Y-40588D01*
X82613Y-40483D01*
X82475Y-40425D01*
X82326Y-40425D01*
X82188Y-40482D01*
X82100Y-40570D01*
X82013Y-40483D01*
X81875Y-40425D01*
X81726Y-40425D01*
X81588Y-40482D01*
X81483Y-40587D01*
X81475Y-40606D01*
X81475Y-40526D01*
X81418Y-40388D01*
X81313Y-40283D01*
X81175Y-40225D01*
X81075Y-40225D01*
X81075Y-40126D01*
X81018Y-39988D01*
X80913Y-39883D01*
X80775Y-39825D01*
X80626Y-39825D01*
X80499Y-39877D01*
X80375Y-39825D01*
X80226Y-39825D01*
X80099Y-39877D01*
X79975Y-39825D01*
X79826Y-39825D01*
X79688Y-39882D01*
X79583Y-39987D01*
X79525Y-40125D01*
X79525Y-40274D01*
X79546Y-40325D01*
X79526Y-40325D01*
X79388Y-40382D01*
X79283Y-40487D01*
X79225Y-40625D01*
X79225Y-40666D01*
X79199Y-40677D01*
X79075Y-40625D01*
X78926Y-40625D01*
X78788Y-40682D01*
X78683Y-40787D01*
X78625Y-40925D01*
X78625Y-41074D01*
X78682Y-41212D01*
X78787Y-41317D01*
X78925Y-41375D01*
X79074Y-41375D01*
X79200Y-41322D01*
X79325Y-41375D01*
X79474Y-41375D01*
X79612Y-41318D01*
X79717Y-41213D01*
X79775Y-41075D01*
X79775Y-41033D01*
X79800Y-41022D01*
X79925Y-41075D01*
X80074Y-41075D01*
X80212Y-41018D01*
X80317Y-40913D01*
X80375Y-40775D01*
X80375Y-40626D01*
X80353Y-40575D01*
X80374Y-40575D01*
X80500Y-40522D01*
X80625Y-40575D01*
X80725Y-40575D01*
X80725Y-40674D01*
X80782Y-40812D01*
X80887Y-40917D01*
X81025Y-40975D01*
X81174Y-40975D01*
X81312Y-40918D01*
X81417Y-40813D01*
X81425Y-40793D01*
X81425Y-40874D01*
X81482Y-41012D01*
X81570Y-41100D01*
X81483Y-41187D01*
X81433Y-41303D01*
X81413Y-41283D01*
X81275Y-41225D01*
X81126Y-41225D01*
X80988Y-41282D01*
X80883Y-41387D01*
X80825Y-41525D01*
X80825Y-41674D01*
X80882Y-41812D01*
X80987Y-41917D01*
X81125Y-41975D01*
X81274Y-41975D01*
X81412Y-41918D01*
X81517Y-41813D01*
X81566Y-41696D01*
X81587Y-41717D01*
X81725Y-41775D01*
X81874Y-41775D01*
X82012Y-41718D01*
X82117Y-41613D01*
X82175Y-41475D01*
X82175Y-41326D01*
X82118Y-41188D01*
X82030Y-41100D01*
X82100Y-41030D01*
X82187Y-41117D01*
X82325Y-41175D01*
X82366Y-41175D01*
X82382Y-41212D01*
X82487Y-41317D01*
X82625Y-41375D01*
X82774Y-41375D01*
X82912Y-41318D01*
X83017Y-41213D01*
X83075Y-41075D01*
X83075Y-46845D01*
X83013Y-46783D01*
X82875Y-46725D01*
X82726Y-46725D01*
X82588Y-46782D01*
X82483Y-46887D01*
X82425Y-47025D01*
X82425Y-47174D01*
X82482Y-47312D01*
X82587Y-47417D01*
X82725Y-47475D01*
X82874Y-47475D01*
X83012Y-47418D01*
X83117Y-47313D01*
X83175Y-47175D01*
X83175Y-51025D01*
X83126Y-51025D01*
X82988Y-51082D01*
X82883Y-51187D01*
X82825Y-51325D01*
X82825Y-51366D01*
X82788Y-51382D01*
X82683Y-51487D01*
X82625Y-51625D01*
X82625Y-51774D01*
X82682Y-51912D01*
X82787Y-52017D01*
X82925Y-52075D01*
X83074Y-52075D01*
X83212Y-52018D01*
X83240Y-51990D01*
X83300Y-51990D01*
X83411Y-51968D01*
X83505Y-51905D01*
X83557Y-51852D01*
X83582Y-51912D01*
X83687Y-52017D01*
X83825Y-52075D01*
X83974Y-52075D01*
X84112Y-52018D01*
X84217Y-51913D01*
X84275Y-51775D01*
X84275Y-51626D01*
X84218Y-51488D01*
X84113Y-51383D01*
X84052Y-51357D01*
X84140Y-51270D01*
X84187Y-51317D01*
X84325Y-51375D01*
X84474Y-51375D01*
X84600Y-51322D01*
X84725Y-51375D01*
X84765Y-51375D01*
X84895Y-51505D01*
X84989Y-51568D01*
X85100Y-51590D01*
X85300Y-51590D01*
X85411Y-51568D01*
X85505Y-51505D01*
X85704Y-51306D01*
X85704Y-51305D01*
X85705Y-51305D01*
X85767Y-51212D01*
X85768Y-51211D01*
X85789Y-51101D01*
X85790Y-51100D01*
X85790Y-50820D01*
X87905Y-48705D01*
X87968Y-48611D01*
X87990Y-48500D01*
X87990Y-37320D01*
X88020Y-37290D01*
X95700Y-37290D01*
X95811Y-37268D01*
X95905Y-37205D01*
X97205Y-35905D01*
X97268Y-35811D01*
X97290Y-35700D01*
X97290Y-41493D01*
X97189Y-41535D01*
X97035Y-41689D01*
X97000Y-41773D01*
X96965Y-41689D01*
X96811Y-41535D01*
X96609Y-41451D01*
X96391Y-41451D01*
X96189Y-41535D01*
X96035Y-41689D01*
X95951Y-41891D01*
X95951Y-42109D01*
X96035Y-42311D01*
X96189Y-42465D01*
X96273Y-42500D01*
X96189Y-42535D01*
X96035Y-42689D01*
X95951Y-42891D01*
X95951Y-43109D01*
X96035Y-43311D01*
X96189Y-43465D01*
X96391Y-43549D01*
X96609Y-43549D01*
X96811Y-43465D01*
X96951Y-43325D01*
X96951Y-43349D01*
X96989Y-43441D01*
X97059Y-43511D01*
X97150Y-43549D01*
X97249Y-43549D01*
X97849Y-43549D01*
X97941Y-43511D01*
X98011Y-43441D01*
X98049Y-43350D01*
X98049Y-60175D01*
X63330Y-60175D01*
X63330Y-45700D01*
X63330Y-45033D01*
X63330Y-43967D01*
X63330Y-43300D01*
X62663Y-43300D01*
X62663Y-43967D01*
X63330Y-43967D01*
X63330Y-45033D01*
X62663Y-45033D01*
X62663Y-45700D01*
X63330Y-45700D01*
X63330Y-60175D01*
X63049Y-60175D01*
X63049Y-58850D01*
X63049Y-58751D01*
X63049Y-58151D01*
X63011Y-58059D01*
X62941Y-57989D01*
X62850Y-57951D01*
X62825Y-57951D01*
X62965Y-57811D01*
X63049Y-57609D01*
X63049Y-57391D01*
X62965Y-57189D01*
X62811Y-57035D01*
X62726Y-57000D01*
X62811Y-56965D01*
X62965Y-56811D01*
X63049Y-56609D01*
X63049Y-56391D01*
X62965Y-56189D01*
X62811Y-56035D01*
X62726Y-56000D01*
X62811Y-55965D01*
X62965Y-55811D01*
X63049Y-55609D01*
X63049Y-55391D01*
X62965Y-55189D01*
X62811Y-55035D01*
X62726Y-55000D01*
X62811Y-54965D01*
X62965Y-54811D01*
X63049Y-54609D01*
X63049Y-54391D01*
X62965Y-54189D01*
X62811Y-54035D01*
X62726Y-54000D01*
X62811Y-53965D01*
X62965Y-53811D01*
X63049Y-53609D01*
X63049Y-53391D01*
X62965Y-53189D01*
X62811Y-53035D01*
X62726Y-53000D01*
X62811Y-52965D01*
X62965Y-52811D01*
X63049Y-52609D01*
X63049Y-52391D01*
X62965Y-52189D01*
X62811Y-52035D01*
X62726Y-52000D01*
X62811Y-51965D01*
X62965Y-51811D01*
X63049Y-51609D01*
X63049Y-51391D01*
X62965Y-51189D01*
X62811Y-51035D01*
X62726Y-51000D01*
X62811Y-50965D01*
X62965Y-50811D01*
X63049Y-50609D01*
X63049Y-50391D01*
X62965Y-50189D01*
X62811Y-50035D01*
X62726Y-50000D01*
X62811Y-49965D01*
X62965Y-49811D01*
X63049Y-49609D01*
X63049Y-49391D01*
X62965Y-49189D01*
X62811Y-49035D01*
X62609Y-48951D01*
X62391Y-48951D01*
X62189Y-49035D01*
X62035Y-49189D01*
X61997Y-49280D01*
X61972Y-49219D01*
X61878Y-49192D01*
X61808Y-49262D01*
X61808Y-49122D01*
X61781Y-49028D01*
X61579Y-48957D01*
X61366Y-48968D01*
X61219Y-49028D01*
X61192Y-49122D01*
X61500Y-49429D01*
X61808Y-49122D01*
X61808Y-49262D01*
X61571Y-49500D01*
X61878Y-49808D01*
X61972Y-49781D01*
X61995Y-49715D01*
X62035Y-49811D01*
X62189Y-49965D01*
X62273Y-50000D01*
X62189Y-50035D01*
X62035Y-50189D01*
X61997Y-50280D01*
X61972Y-50219D01*
X61878Y-50192D01*
X61808Y-50262D01*
X61808Y-50122D01*
X61781Y-50028D01*
X61707Y-50002D01*
X61781Y-49972D01*
X61808Y-49878D01*
X61500Y-49571D01*
X61429Y-49641D01*
X61429Y-49500D01*
X61122Y-49192D01*
X61028Y-49219D01*
X60957Y-49421D01*
X60968Y-49634D01*
X61028Y-49781D01*
X61122Y-49808D01*
X61429Y-49500D01*
X61429Y-49641D01*
X61192Y-49878D01*
X61219Y-49972D01*
X61292Y-49997D01*
X61219Y-50028D01*
X61192Y-50122D01*
X61500Y-50429D01*
X61808Y-50122D01*
X61808Y-50262D01*
X61571Y-50500D01*
X61878Y-50808D01*
X61972Y-50781D01*
X61995Y-50715D01*
X62035Y-50811D01*
X62189Y-50965D01*
X62273Y-51000D01*
X62189Y-51035D01*
X62035Y-51189D01*
X61997Y-51280D01*
X61972Y-51219D01*
X61878Y-51192D01*
X61808Y-51262D01*
X61808Y-51122D01*
X61781Y-51028D01*
X61707Y-51002D01*
X61781Y-50972D01*
X61808Y-50878D01*
X61500Y-50571D01*
X61429Y-50641D01*
X61429Y-50500D01*
X61122Y-50192D01*
X61028Y-50219D01*
X60957Y-50421D01*
X60968Y-50634D01*
X61028Y-50781D01*
X61122Y-50808D01*
X61429Y-50500D01*
X61429Y-50641D01*
X61192Y-50878D01*
X61219Y-50972D01*
X61292Y-50997D01*
X61219Y-51028D01*
X61192Y-51122D01*
X61500Y-51429D01*
X61808Y-51122D01*
X61808Y-51262D01*
X61571Y-51500D01*
X61878Y-51808D01*
X61972Y-51781D01*
X61995Y-51715D01*
X62035Y-51811D01*
X62189Y-51965D01*
X62273Y-52000D01*
X62189Y-52035D01*
X62035Y-52189D01*
X61997Y-52280D01*
X61972Y-52219D01*
X61878Y-52192D01*
X61808Y-52262D01*
X61808Y-52122D01*
X61781Y-52028D01*
X61707Y-52002D01*
X61781Y-51972D01*
X61808Y-51878D01*
X61500Y-51571D01*
X61429Y-51641D01*
X61429Y-51500D01*
X61122Y-51192D01*
X61028Y-51219D01*
X60957Y-51421D01*
X60968Y-51634D01*
X61028Y-51781D01*
X61122Y-51808D01*
X61429Y-51500D01*
X61429Y-51641D01*
X61192Y-51878D01*
X61219Y-51972D01*
X61292Y-51997D01*
X61219Y-52028D01*
X61192Y-52122D01*
X61500Y-52429D01*
X61808Y-52122D01*
X61808Y-52262D01*
X61571Y-52500D01*
X61878Y-52808D01*
X61972Y-52781D01*
X61995Y-52715D01*
X62035Y-52811D01*
X62189Y-52965D01*
X62273Y-53000D01*
X62189Y-53035D01*
X62035Y-53189D01*
X61997Y-53280D01*
X61972Y-53219D01*
X61878Y-53192D01*
X61808Y-53262D01*
X61808Y-53122D01*
X61781Y-53028D01*
X61707Y-53002D01*
X61781Y-52972D01*
X61808Y-52878D01*
X61500Y-52571D01*
X61429Y-52641D01*
X61429Y-52500D01*
X61122Y-52192D01*
X61028Y-52219D01*
X60957Y-52421D01*
X60968Y-52634D01*
X61028Y-52781D01*
X61122Y-52808D01*
X61429Y-52500D01*
X61429Y-52641D01*
X61192Y-52878D01*
X61219Y-52972D01*
X61292Y-52997D01*
X61219Y-53028D01*
X61192Y-53122D01*
X61500Y-53429D01*
X61808Y-53122D01*
X61808Y-53262D01*
X61571Y-53500D01*
X61878Y-53808D01*
X61972Y-53781D01*
X61995Y-53715D01*
X62035Y-53811D01*
X62189Y-53965D01*
X62273Y-54000D01*
X62189Y-54035D01*
X62035Y-54189D01*
X61997Y-54280D01*
X61972Y-54219D01*
X61878Y-54192D01*
X61808Y-54262D01*
X61808Y-54122D01*
X61781Y-54028D01*
X61707Y-54002D01*
X61781Y-53972D01*
X61808Y-53878D01*
X61500Y-53571D01*
X61429Y-53641D01*
X61429Y-53500D01*
X61122Y-53192D01*
X61028Y-53219D01*
X60957Y-53421D01*
X60968Y-53634D01*
X61028Y-53781D01*
X61122Y-53808D01*
X61429Y-53500D01*
X61429Y-53641D01*
X61192Y-53878D01*
X61219Y-53972D01*
X61292Y-53997D01*
X61219Y-54028D01*
X61192Y-54122D01*
X61500Y-54429D01*
X61808Y-54122D01*
X61808Y-54262D01*
X61571Y-54500D01*
X61878Y-54808D01*
X61972Y-54781D01*
X61995Y-54715D01*
X62035Y-54811D01*
X62189Y-54965D01*
X62273Y-55000D01*
X62189Y-55035D01*
X62035Y-55189D01*
X61997Y-55280D01*
X61972Y-55219D01*
X61878Y-55192D01*
X61808Y-55262D01*
X61808Y-55122D01*
X61781Y-55028D01*
X61707Y-55002D01*
X61781Y-54972D01*
X61808Y-54878D01*
X61500Y-54571D01*
X61429Y-54641D01*
X61429Y-54500D01*
X61122Y-54192D01*
X61028Y-54219D01*
X60957Y-54421D01*
X60968Y-54634D01*
X61028Y-54781D01*
X61122Y-54808D01*
X61429Y-54500D01*
X61429Y-54641D01*
X61192Y-54878D01*
X61219Y-54972D01*
X61292Y-54997D01*
X61219Y-55028D01*
X61192Y-55122D01*
X61500Y-55429D01*
X61808Y-55122D01*
X61808Y-55262D01*
X61571Y-55500D01*
X61878Y-55808D01*
X61972Y-55781D01*
X61995Y-55715D01*
X62035Y-55811D01*
X62189Y-55965D01*
X62273Y-56000D01*
X62189Y-56035D01*
X62035Y-56189D01*
X61997Y-56280D01*
X61972Y-56219D01*
X61878Y-56192D01*
X61808Y-56262D01*
X61808Y-56122D01*
X61781Y-56028D01*
X61707Y-56002D01*
X61781Y-55972D01*
X61808Y-55878D01*
X61500Y-55571D01*
X61429Y-55641D01*
X61429Y-55500D01*
X61122Y-55192D01*
X61028Y-55219D01*
X60957Y-55421D01*
X60968Y-55634D01*
X61028Y-55781D01*
X61122Y-55808D01*
X61429Y-55500D01*
X61429Y-55641D01*
X61192Y-55878D01*
X61219Y-55972D01*
X61292Y-55997D01*
X61219Y-56028D01*
X61192Y-56122D01*
X61500Y-56429D01*
X61808Y-56122D01*
X61808Y-56262D01*
X61571Y-56500D01*
X61878Y-56808D01*
X61972Y-56781D01*
X61995Y-56715D01*
X62035Y-56811D01*
X62189Y-56965D01*
X62273Y-57000D01*
X62189Y-57035D01*
X62035Y-57189D01*
X61997Y-57280D01*
X61972Y-57219D01*
X61878Y-57192D01*
X61808Y-57262D01*
X61808Y-57122D01*
X61781Y-57028D01*
X61707Y-57002D01*
X61781Y-56972D01*
X61808Y-56878D01*
X61500Y-56571D01*
X61429Y-56641D01*
X61429Y-56500D01*
X61122Y-56192D01*
X61028Y-56219D01*
X60957Y-56421D01*
X60968Y-56634D01*
X61028Y-56781D01*
X61122Y-56808D01*
X61429Y-56500D01*
X61429Y-56641D01*
X61192Y-56878D01*
X61219Y-56972D01*
X61292Y-56997D01*
X61219Y-57028D01*
X61192Y-57122D01*
X61500Y-57429D01*
X61808Y-57122D01*
X61808Y-57262D01*
X61571Y-57500D01*
X61878Y-57808D01*
X61972Y-57781D01*
X61995Y-57715D01*
X62035Y-57811D01*
X62175Y-57951D01*
X62151Y-57951D01*
X62059Y-57989D01*
X61989Y-58059D01*
X61951Y-58150D01*
X61951Y-58175D01*
X61811Y-58035D01*
X61719Y-57997D01*
X61781Y-57972D01*
X61808Y-57878D01*
X61500Y-57571D01*
X61429Y-57641D01*
X61429Y-57500D01*
X61122Y-57192D01*
X61028Y-57219D01*
X60957Y-57421D01*
X60968Y-57634D01*
X61028Y-57781D01*
X61122Y-57808D01*
X61429Y-57500D01*
X61429Y-57641D01*
X61192Y-57878D01*
X61219Y-57972D01*
X61284Y-57995D01*
X61189Y-58035D01*
X61035Y-58189D01*
X60951Y-58391D01*
X60951Y-58609D01*
X61035Y-58811D01*
X61189Y-58965D01*
X61391Y-59049D01*
X61609Y-59049D01*
X61811Y-58965D01*
X61951Y-58825D01*
X61951Y-58849D01*
X61989Y-58941D01*
X62059Y-59011D01*
X62150Y-59049D01*
X62249Y-59049D01*
X62849Y-59049D01*
X62941Y-59011D01*
X63011Y-58941D01*
X63049Y-58850D01*
X63049Y-60175D01*
X60825Y-60175D01*
X60825Y-40779D01*
X60927Y-40881D01*
X61142Y-40970D01*
X61374Y-40970D01*
X61589Y-40881D01*
X61658Y-40812D01*
X61658Y-41013D01*
X61762Y-41264D01*
X61954Y-41456D01*
X62204Y-41561D01*
X62476Y-41561D01*
X62727Y-41457D01*
X62919Y-41265D01*
X63024Y-41015D01*
X63024Y-40743D01*
X63024Y-38259D01*
X63024Y-37987D01*
X62920Y-37736D01*
X62728Y-37544D01*
X62478Y-37439D01*
X62206Y-37439D01*
X61955Y-37543D01*
X61763Y-37735D01*
X61658Y-37985D01*
X61658Y-38174D01*
X61607Y-38123D01*
X61572Y-38157D01*
X61559Y-38115D01*
X61345Y-38038D01*
X61118Y-38048D01*
X60957Y-38115D01*
X60926Y-38212D01*
X61223Y-38508D01*
X61258Y-38543D01*
X61329Y-38614D01*
X61364Y-38649D01*
X61660Y-38946D01*
X61757Y-38915D01*
X61834Y-38701D01*
X61828Y-38574D01*
X61954Y-38700D01*
X62204Y-38805D01*
X62476Y-38805D01*
X62727Y-38701D01*
X62919Y-38509D01*
X63024Y-38259D01*
X63024Y-40743D01*
X62920Y-40492D01*
X62728Y-40300D01*
X62478Y-40195D01*
X62206Y-40195D01*
X61955Y-40299D01*
X61842Y-40412D01*
X61842Y-40270D01*
X61753Y-40055D01*
X61590Y-39892D01*
X61590Y-39016D01*
X61258Y-38685D01*
X60926Y-39016D01*
X60957Y-39113D01*
X61171Y-39190D01*
X61398Y-39180D01*
X61559Y-39113D01*
X61590Y-39016D01*
X61590Y-39892D01*
X61589Y-39891D01*
X61374Y-39802D01*
X61142Y-39802D01*
X60927Y-39891D01*
X60825Y-39993D01*
X60825Y-38936D01*
X60856Y-38946D01*
X61187Y-38614D01*
X60856Y-38282D01*
X60825Y-38291D01*
X60825Y-36279D01*
X60927Y-36381D01*
X61142Y-36470D01*
X61374Y-36470D01*
X61589Y-36381D01*
X61658Y-36312D01*
X61658Y-36513D01*
X61762Y-36764D01*
X61954Y-36956D01*
X62204Y-37061D01*
X62476Y-37061D01*
X62727Y-36957D01*
X62919Y-36765D01*
X63024Y-36515D01*
X63024Y-36243D01*
X62920Y-35992D01*
X62728Y-35800D01*
X62478Y-35695D01*
X62206Y-35695D01*
X61955Y-35799D01*
X61842Y-35912D01*
X61842Y-35770D01*
X61753Y-35555D01*
X61589Y-35391D01*
X61374Y-35302D01*
X61142Y-35302D01*
X60927Y-35391D01*
X60825Y-35493D01*
X60825Y-34507D01*
X60927Y-34609D01*
X61142Y-34698D01*
X61374Y-34698D01*
X61589Y-34609D01*
X61753Y-34445D01*
X61842Y-34230D01*
X61842Y-34088D01*
X61954Y-34200D01*
X62204Y-34305D01*
X62476Y-34305D01*
X62727Y-34201D01*
X62919Y-34009D01*
X63024Y-33759D01*
X63024Y-33487D01*
X62920Y-33236D01*
X62728Y-33044D01*
X62478Y-32939D01*
X62206Y-32939D01*
X61955Y-33043D01*
X61763Y-33235D01*
X61658Y-33485D01*
X61658Y-33688D01*
X61589Y-33619D01*
X61374Y-33530D01*
X61142Y-33530D01*
X60927Y-33619D01*
X60825Y-33721D01*
X60825Y-32825D01*
X98175Y-32825D01*
X98175Y-60175D01*
M02*
