G04 (created by PCBNEW-RS274X (2012-01-19 BZR 3256)-stable) date 16/09/2012 01:08:52*
G01*
G70*
G90*
%MOIN*%
G04 Gerber Fmt 3.4, Leading zero omitted, Abs format*
%FSLAX34Y34*%
G04 APERTURE LIST*
%ADD10C,0.006000*%
%ADD11C,0.060000*%
%ADD12R,0.060000X0.060000*%
%ADD13C,0.086600*%
%ADD14C,0.066900*%
%ADD15C,0.025000*%
%ADD16C,0.008000*%
%ADD17C,0.020000*%
%ADD18C,0.010000*%
G04 APERTURE END LIST*
G54D10*
G54D11*
X61500Y-58500D03*
X62500Y-57500D03*
G54D12*
X62500Y-58500D03*
G54D11*
X61500Y-57500D03*
X62500Y-56500D03*
X61500Y-56500D03*
X62500Y-55500D03*
X61500Y-55500D03*
X62500Y-54500D03*
X61500Y-54500D03*
X62500Y-53500D03*
X61500Y-53500D03*
X62500Y-52500D03*
X61500Y-52500D03*
X62500Y-51500D03*
X61500Y-51500D03*
X62500Y-50500D03*
X61500Y-50500D03*
X62500Y-49500D03*
X61500Y-49500D03*
X71500Y-47539D03*
X71500Y-49461D03*
X71000Y-44300D03*
X72000Y-44300D03*
G54D12*
X70000Y-41700D03*
G54D11*
X71000Y-41700D03*
X72000Y-41700D03*
G54D12*
X70000Y-42700D03*
G54D11*
X71000Y-42700D03*
X72000Y-42700D03*
G54D13*
X62341Y-33622D03*
X62341Y-36378D03*
G54D14*
X61258Y-34114D03*
X61258Y-35886D03*
G54D13*
X62341Y-38122D03*
X62341Y-40878D03*
G54D14*
X61258Y-38614D03*
X61258Y-40386D03*
G54D12*
X96500Y-34500D03*
G54D11*
X96500Y-35500D03*
X95500Y-34500D03*
X95500Y-35500D03*
X94500Y-34500D03*
X94500Y-35500D03*
X93500Y-34500D03*
X93500Y-35500D03*
X92500Y-34500D03*
X92500Y-35500D03*
X91500Y-34500D03*
X91500Y-35500D03*
X90500Y-34500D03*
X90500Y-35500D03*
X89500Y-34500D03*
X89500Y-35500D03*
X88500Y-34500D03*
X88500Y-35500D03*
X87500Y-34500D03*
X87500Y-35500D03*
X86500Y-34500D03*
X86500Y-35500D03*
X85500Y-34500D03*
X85500Y-35500D03*
X84500Y-34500D03*
X84500Y-35500D03*
X83500Y-34500D03*
X83500Y-35500D03*
X82500Y-34500D03*
X82500Y-35500D03*
X81500Y-34500D03*
X81500Y-35500D03*
X80500Y-34500D03*
X80500Y-35500D03*
X79500Y-34500D03*
X79500Y-35500D03*
X78500Y-34500D03*
X78500Y-35500D03*
X77500Y-34500D03*
X77500Y-35500D03*
X76500Y-34500D03*
X76500Y-35500D03*
X75500Y-34500D03*
X75500Y-35500D03*
X74500Y-34500D03*
X74500Y-35500D03*
X73500Y-34500D03*
X73500Y-35500D03*
X72500Y-34500D03*
X72500Y-35500D03*
X71500Y-34500D03*
X71500Y-35500D03*
X70500Y-34500D03*
X70500Y-35500D03*
X69500Y-34500D03*
X69500Y-35500D03*
X68500Y-34500D03*
X68500Y-35500D03*
X67500Y-34500D03*
X67500Y-35500D03*
X66500Y-34500D03*
X66500Y-35500D03*
X65500Y-34500D03*
X65500Y-35500D03*
G54D12*
X65500Y-58500D03*
G54D11*
X65500Y-57500D03*
X66500Y-58500D03*
X66500Y-57500D03*
X67500Y-58500D03*
X67500Y-57500D03*
X68500Y-58500D03*
X68500Y-57500D03*
X69500Y-58500D03*
X69500Y-57500D03*
X70500Y-58500D03*
X70500Y-57500D03*
X71500Y-58500D03*
X71500Y-57500D03*
X72500Y-58500D03*
X72500Y-57500D03*
X73500Y-58500D03*
X73500Y-57500D03*
X74500Y-58500D03*
X74500Y-57500D03*
X75500Y-58500D03*
X75500Y-57500D03*
X76500Y-58500D03*
X76500Y-57500D03*
X77500Y-58500D03*
X77500Y-57500D03*
X78500Y-58500D03*
X78500Y-57500D03*
X79500Y-58500D03*
X79500Y-57500D03*
X80500Y-58500D03*
X80500Y-57500D03*
X81500Y-58500D03*
X81500Y-57500D03*
X82500Y-58500D03*
X82500Y-57500D03*
X83500Y-58500D03*
X83500Y-57500D03*
X84500Y-58500D03*
X84500Y-57500D03*
X85500Y-58500D03*
X85500Y-57500D03*
X86500Y-58500D03*
X86500Y-57500D03*
X87500Y-58500D03*
X87500Y-57500D03*
X88500Y-58500D03*
X88500Y-57500D03*
X89500Y-58500D03*
X89500Y-57500D03*
X90500Y-58500D03*
X90500Y-57500D03*
X91500Y-58500D03*
X91500Y-57500D03*
X92500Y-58500D03*
X92500Y-57500D03*
X93500Y-58500D03*
X93500Y-57500D03*
X94500Y-58500D03*
X94500Y-57500D03*
X95500Y-58500D03*
X95500Y-57500D03*
X96500Y-58500D03*
X96500Y-57500D03*
G54D12*
X97500Y-43000D03*
G54D11*
X96500Y-43000D03*
X97500Y-42000D03*
X96500Y-42000D03*
G54D15*
X68400Y-51000D03*
X68400Y-44000D03*
X74500Y-46300D03*
X74400Y-46700D03*
X74700Y-46900D03*
X75000Y-47100D03*
X72600Y-41200D03*
X66000Y-36000D03*
X80200Y-46300D03*
X77000Y-51800D03*
X85700Y-47300D03*
X85700Y-46900D03*
X85400Y-46700D03*
X85100Y-46500D03*
X85600Y-48500D03*
X85300Y-48300D03*
X85000Y-48100D03*
X74300Y-43500D03*
X74500Y-43800D03*
X74700Y-44100D03*
X75100Y-44100D03*
X74300Y-43100D03*
X79600Y-40700D03*
X79400Y-41000D03*
X81800Y-41400D03*
X84900Y-47700D03*
X85200Y-47500D03*
X82700Y-41000D03*
X82400Y-40800D03*
X77800Y-41500D03*
X80700Y-40200D03*
X89400Y-56900D03*
X80300Y-40200D03*
X79900Y-40200D03*
X80000Y-40700D03*
X77000Y-41200D03*
X81800Y-40800D03*
X89000Y-56900D03*
X77000Y-40800D03*
X81100Y-40600D03*
X81200Y-41600D03*
X81100Y-46300D03*
X80800Y-46500D03*
X74750Y-48050D03*
X74750Y-48400D03*
X74400Y-48500D03*
X74400Y-48900D03*
X77000Y-36900D03*
X77700Y-52500D03*
X78100Y-52700D03*
X77500Y-36900D03*
X85100Y-45500D03*
X85500Y-45500D03*
X83000Y-51700D03*
X83200Y-51400D03*
X85000Y-36100D03*
X71400Y-51100D03*
X85600Y-44500D03*
X77600Y-52100D03*
X74500Y-36600D03*
X85300Y-44300D03*
X78400Y-51700D03*
X85000Y-44100D03*
X78600Y-51400D03*
X77800Y-41100D03*
X77400Y-51800D03*
X84200Y-36200D03*
X83900Y-36500D03*
X85900Y-45500D03*
X86100Y-45200D03*
X85000Y-50700D03*
X85200Y-51000D03*
X84400Y-51000D03*
X84800Y-51000D03*
X82400Y-36100D03*
X80500Y-46000D03*
X81000Y-45700D03*
X77000Y-52200D03*
X74900Y-50400D03*
X75000Y-50800D03*
X75600Y-50900D03*
X75300Y-51100D03*
X67500Y-43000D03*
X67500Y-43400D03*
X67500Y-43800D03*
X79900Y-47100D03*
X86100Y-46100D03*
X77000Y-42800D03*
X81400Y-52800D03*
X83000Y-52800D03*
X83600Y-46900D03*
X83000Y-47800D03*
X85900Y-36700D03*
X72700Y-44400D03*
X80700Y-43100D03*
X80400Y-49300D03*
X71900Y-48200D03*
X77200Y-52700D03*
X79200Y-41300D03*
X75000Y-46100D03*
X72700Y-43700D03*
X72600Y-49600D03*
X83100Y-36500D03*
X64600Y-46500D03*
X81700Y-45100D03*
X76300Y-45200D03*
X81500Y-48300D03*
X83900Y-51700D03*
X78600Y-48700D03*
X82800Y-47100D03*
X72300Y-52500D03*
X80600Y-50200D03*
X79000Y-41000D03*
X70800Y-51000D03*
X68800Y-46500D03*
X80400Y-42800D03*
G54D16*
X72600Y-41200D02*
X73200Y-41800D01*
X80200Y-46300D02*
X79800Y-46300D01*
X79800Y-46300D02*
X75300Y-41800D01*
X73200Y-41800D02*
X75300Y-41800D01*
X86000Y-47000D02*
X86000Y-46400D01*
X71000Y-58000D02*
X71500Y-58500D01*
X71000Y-57300D02*
X71000Y-58000D01*
X72600Y-55700D02*
X71000Y-57300D01*
X84400Y-46200D02*
X84400Y-46800D01*
X84800Y-45800D02*
X84400Y-46200D01*
X86000Y-47000D02*
X85700Y-47300D01*
X75500Y-55700D02*
X72600Y-55700D01*
X86000Y-46400D02*
X85400Y-45800D01*
X85400Y-45800D02*
X84800Y-45800D01*
X84400Y-46800D02*
X75500Y-55700D01*
X85700Y-46400D02*
X85300Y-46000D01*
X75600Y-55900D02*
X73100Y-55900D01*
X84600Y-46900D02*
X75600Y-55900D01*
X84600Y-46300D02*
X84600Y-46900D01*
X85300Y-46000D02*
X84900Y-46000D01*
X71500Y-57500D02*
X73100Y-55900D01*
X85700Y-46900D02*
X85700Y-46400D01*
X84900Y-46000D02*
X84600Y-46300D01*
X85400Y-46700D02*
X85400Y-46400D01*
X73200Y-56100D02*
X72000Y-57300D01*
X72000Y-57300D02*
X72000Y-58000D01*
X84800Y-47000D02*
X75700Y-56100D01*
X72000Y-58000D02*
X72500Y-58500D01*
X85200Y-46200D02*
X85000Y-46200D01*
X85000Y-46200D02*
X84800Y-46400D01*
X84800Y-46400D02*
X84800Y-47000D01*
X85400Y-46400D02*
X85200Y-46200D01*
X75700Y-56100D02*
X73200Y-56100D01*
X72500Y-57500D02*
X73700Y-56300D01*
X85100Y-46500D02*
X85100Y-47000D01*
X85100Y-47000D02*
X75800Y-56300D01*
X75800Y-56300D02*
X73700Y-56300D01*
X83800Y-48600D02*
X75900Y-56500D01*
X73800Y-56500D02*
X73000Y-57300D01*
X85600Y-48500D02*
X85500Y-48600D01*
X85500Y-48600D02*
X83800Y-48600D01*
X75900Y-56500D02*
X73800Y-56500D01*
X73000Y-58000D02*
X73500Y-58500D01*
X73000Y-57300D02*
X73000Y-58000D01*
X85700Y-48200D02*
X85900Y-48400D01*
X85300Y-48300D02*
X85400Y-48200D01*
X85900Y-48600D02*
X85700Y-48800D01*
X76000Y-56700D02*
X74300Y-56700D01*
X73500Y-57500D02*
X74300Y-56700D01*
X85900Y-48400D02*
X85900Y-48600D01*
X85700Y-48800D02*
X83900Y-48800D01*
X85400Y-48200D02*
X85700Y-48200D01*
X83900Y-48800D02*
X76000Y-56700D01*
X85800Y-48000D02*
X86100Y-48300D01*
X86100Y-48300D02*
X86100Y-48700D01*
X74300Y-57000D02*
X74000Y-57300D01*
X85800Y-49000D02*
X84000Y-49000D01*
X86100Y-48700D02*
X85800Y-49000D01*
X74000Y-57300D02*
X74000Y-58000D01*
X84000Y-49000D02*
X76000Y-57000D01*
X85100Y-48000D02*
X85800Y-48000D01*
X76000Y-57000D02*
X74300Y-57000D01*
X74000Y-58000D02*
X74500Y-58500D01*
X85000Y-48100D02*
X85100Y-48000D01*
X87000Y-57300D02*
X86900Y-57200D01*
X86500Y-58500D02*
X87000Y-58000D01*
X87000Y-58000D02*
X87000Y-57300D01*
X82100Y-41700D02*
X83500Y-41700D01*
X81800Y-41400D02*
X82100Y-41700D01*
X83500Y-41700D02*
X86900Y-45100D01*
X86900Y-57200D02*
X86900Y-45100D01*
X84900Y-47700D02*
X85000Y-47800D01*
X85000Y-47800D02*
X85900Y-47800D01*
X86300Y-48800D02*
X85900Y-49200D01*
X78000Y-58000D02*
X78500Y-58500D01*
X78000Y-55300D02*
X78000Y-58000D01*
X85900Y-47800D02*
X86300Y-48200D01*
X85900Y-49200D02*
X84100Y-49200D01*
X86300Y-48200D02*
X86300Y-48800D01*
X84100Y-49200D02*
X78000Y-55300D01*
X78500Y-55100D02*
X78500Y-57500D01*
X86500Y-48100D02*
X86500Y-48900D01*
X85300Y-47600D02*
X86000Y-47600D01*
X86000Y-47600D02*
X86500Y-48100D01*
X85200Y-47500D02*
X85300Y-47600D01*
X84200Y-49400D02*
X78500Y-55100D01*
X86500Y-48900D02*
X86000Y-49400D01*
X86000Y-49400D02*
X84200Y-49400D01*
X81900Y-41100D02*
X82300Y-41500D01*
X81300Y-41100D02*
X81900Y-41100D01*
X80300Y-42100D02*
X81300Y-41100D01*
X87100Y-57100D02*
X87500Y-57500D01*
X79000Y-42100D02*
X80300Y-42100D01*
X87100Y-45000D02*
X87100Y-57100D01*
X82300Y-41500D02*
X83600Y-41500D01*
X83600Y-41500D02*
X87100Y-45000D01*
X77800Y-41500D02*
X78400Y-41500D01*
X78400Y-41500D02*
X79000Y-42100D01*
X88100Y-44500D02*
X88100Y-55400D01*
X83500Y-39900D02*
X88100Y-44500D01*
X80700Y-40200D02*
X81000Y-39900D01*
X89400Y-56700D02*
X89400Y-56900D01*
X81000Y-39900D02*
X83500Y-39900D01*
X88100Y-55400D02*
X89400Y-56700D01*
X90500Y-57500D02*
X88300Y-55300D01*
X83600Y-39700D02*
X88300Y-44400D01*
X88300Y-44400D02*
X88300Y-55300D01*
X80800Y-39700D02*
X83600Y-39700D01*
X80300Y-40200D02*
X80800Y-39700D01*
X91500Y-58500D02*
X91000Y-58000D01*
X91000Y-58000D02*
X91000Y-57300D01*
X80600Y-39500D02*
X83700Y-39500D01*
X83700Y-39500D02*
X88500Y-44300D01*
X88500Y-44300D02*
X88500Y-54800D01*
X79900Y-40200D02*
X80600Y-39500D01*
X91000Y-57300D02*
X88500Y-54800D01*
X91500Y-57500D02*
X88700Y-54700D01*
X83800Y-39300D02*
X88700Y-44200D01*
X80000Y-40700D02*
X79600Y-40300D01*
X79600Y-40100D02*
X80400Y-39300D01*
X79600Y-40300D02*
X79600Y-40100D01*
X80400Y-39300D02*
X83800Y-39300D01*
X88700Y-44200D02*
X88700Y-54700D01*
X87500Y-56500D02*
X87500Y-44800D01*
X83200Y-40500D02*
X87500Y-44800D01*
X77400Y-40800D02*
X78000Y-40800D01*
X77000Y-41200D02*
X77400Y-40800D01*
X81600Y-40500D02*
X83200Y-40500D01*
X79100Y-41900D02*
X80200Y-41900D01*
X78000Y-40800D02*
X79100Y-41900D01*
X80200Y-41900D02*
X81600Y-40500D01*
X88500Y-57500D02*
X87500Y-56500D01*
X88000Y-57300D02*
X88000Y-58000D01*
X81900Y-40800D02*
X82400Y-41300D01*
X82400Y-41300D02*
X83700Y-41300D01*
X87300Y-56600D02*
X88000Y-57300D01*
X83700Y-41300D02*
X87300Y-44900D01*
X81800Y-40800D02*
X81900Y-40800D01*
X87300Y-44900D02*
X87300Y-56600D01*
X88000Y-58000D02*
X87500Y-58500D01*
X80100Y-41700D02*
X80700Y-41100D01*
X78100Y-40600D02*
X79200Y-41700D01*
X87900Y-44600D02*
X87900Y-55800D01*
X79200Y-41700D02*
X80100Y-41700D01*
X77000Y-40800D02*
X77200Y-40600D01*
X87900Y-55800D02*
X89000Y-56900D01*
X83400Y-40100D02*
X87900Y-44600D01*
X81200Y-40100D02*
X83400Y-40100D01*
X77200Y-40600D02*
X78100Y-40600D01*
X80700Y-41100D02*
X80700Y-40600D01*
X80700Y-40600D02*
X81200Y-40100D01*
X81400Y-40300D02*
X81100Y-40600D01*
X89000Y-57300D02*
X87700Y-56000D01*
X83300Y-40300D02*
X87700Y-44700D01*
X87700Y-56000D02*
X87700Y-44700D01*
X81400Y-40300D02*
X83300Y-40300D01*
X89000Y-58000D02*
X89000Y-57300D01*
X89000Y-58000D02*
X88500Y-58500D01*
X83400Y-41900D02*
X86700Y-45200D01*
X86700Y-45200D02*
X86700Y-57300D01*
X81500Y-41900D02*
X83400Y-41900D01*
X81200Y-41600D02*
X81500Y-41900D01*
X86500Y-57500D02*
X86700Y-57300D01*
X73000Y-42000D02*
X75200Y-42000D01*
X71500Y-41200D02*
X72200Y-41200D01*
X81100Y-46300D02*
X81000Y-46200D01*
X79800Y-46600D02*
X75200Y-42000D01*
X80700Y-46200D02*
X80300Y-46600D01*
X80300Y-46600D02*
X79800Y-46600D01*
X81000Y-46200D02*
X80700Y-46200D01*
X71000Y-41700D02*
X71500Y-41200D01*
X72200Y-41200D02*
X73000Y-42000D01*
X80800Y-46500D02*
X80500Y-46800D01*
X71500Y-42200D02*
X75100Y-42200D01*
X79700Y-46800D02*
X75100Y-42200D01*
X80500Y-46800D02*
X79700Y-46800D01*
X71000Y-42700D02*
X71500Y-42200D01*
X63000Y-54000D02*
X62500Y-54500D01*
X72300Y-43400D02*
X68300Y-43400D01*
X63000Y-48700D02*
X63000Y-54000D01*
X73100Y-42600D02*
X74900Y-42600D01*
X79700Y-47400D02*
X74900Y-42600D01*
X68300Y-43400D02*
X63000Y-48700D01*
X81200Y-46000D02*
X81400Y-46200D01*
X80400Y-47400D02*
X79700Y-47400D01*
X81400Y-46200D02*
X81400Y-46400D01*
X80500Y-46000D02*
X81200Y-46000D01*
X72300Y-43400D02*
X73100Y-42600D01*
X81400Y-46400D02*
X80400Y-47400D01*
X81200Y-45700D02*
X81600Y-46100D01*
X68400Y-43600D02*
X63200Y-48800D01*
X73200Y-42800D02*
X74800Y-42800D01*
X72400Y-43600D02*
X68400Y-43600D01*
X81600Y-46100D02*
X81600Y-46500D01*
X72400Y-43600D02*
X73200Y-42800D01*
X63200Y-54800D02*
X62500Y-55500D01*
X80500Y-47600D02*
X79600Y-47600D01*
X81600Y-46500D02*
X80500Y-47600D01*
X63200Y-48800D02*
X63200Y-54800D01*
X79600Y-47600D02*
X74800Y-42800D01*
X81000Y-45700D02*
X81200Y-45700D01*
X67700Y-42800D02*
X67500Y-43000D01*
X68900Y-42800D02*
X67700Y-42800D01*
X70000Y-41700D02*
X68900Y-42800D01*
X69700Y-43000D02*
X67900Y-43000D01*
X67500Y-43400D02*
X67900Y-43000D01*
X70000Y-42700D02*
X69700Y-43000D01*
X67500Y-43800D02*
X68100Y-43200D01*
X75000Y-42400D02*
X79700Y-47100D01*
X72200Y-43200D02*
X73000Y-42400D01*
X73000Y-42400D02*
X75000Y-42400D01*
X68100Y-43200D02*
X72200Y-43200D01*
X79700Y-47100D02*
X79900Y-47100D01*
X81700Y-45100D02*
X80400Y-43800D01*
G54D17*
X68800Y-49000D02*
X70800Y-51000D01*
G54D16*
X78200Y-42800D02*
X80400Y-42800D01*
X75500Y-36250D02*
X77000Y-37750D01*
X81500Y-48300D02*
X81500Y-49300D01*
X80400Y-43800D02*
X80400Y-42800D01*
X68500Y-52500D02*
X72300Y-52500D01*
X76700Y-41300D02*
X78200Y-42800D01*
X77000Y-37750D02*
X93250Y-37750D01*
X93250Y-37750D02*
X97500Y-42000D01*
X78600Y-48700D02*
X80100Y-50200D01*
X81500Y-48300D02*
X81600Y-48300D01*
X74700Y-34000D02*
X75000Y-34300D01*
X61344Y-34200D02*
X64800Y-34200D01*
X81600Y-48300D02*
X82800Y-47100D01*
X78600Y-48700D02*
X78600Y-47500D01*
X64800Y-34200D02*
X65000Y-34000D01*
G54D17*
X70100Y-45200D02*
X68800Y-46500D01*
G54D16*
X82800Y-47100D02*
X82800Y-46200D01*
X97500Y-57500D02*
X96500Y-58500D01*
X97500Y-43000D02*
X97500Y-57500D01*
X61258Y-34114D02*
X61344Y-34200D01*
X74700Y-34000D02*
X65000Y-34000D01*
X75000Y-34300D02*
X75000Y-35000D01*
X81500Y-49300D02*
X80600Y-50200D01*
X62500Y-58500D02*
X68500Y-52500D01*
G54D17*
X68800Y-46500D02*
X68800Y-49000D01*
G54D16*
X77000Y-40400D02*
X76700Y-40700D01*
X75500Y-35500D02*
X75000Y-35000D01*
X97500Y-42000D02*
X97500Y-43000D01*
X79000Y-41000D02*
X78400Y-40400D01*
X78400Y-40400D02*
X77000Y-40400D01*
X78600Y-47500D02*
X76300Y-45200D01*
X76700Y-40700D02*
X76700Y-41300D01*
X82800Y-46200D02*
X81700Y-45100D01*
X80100Y-50200D02*
X80600Y-50200D01*
X75500Y-35500D02*
X75500Y-36250D01*
G54D17*
X76300Y-45200D02*
X70100Y-45200D01*
G54D10*
G36*
X86410Y-56951D02*
X86391Y-56951D01*
X86189Y-57035D01*
X86035Y-57189D01*
X86000Y-57273D01*
X85965Y-57189D01*
X85811Y-57035D01*
X85609Y-56951D01*
X85575Y-56951D01*
X85575Y-51075D01*
X85575Y-50926D01*
X85518Y-50788D01*
X85413Y-50683D01*
X85375Y-50667D01*
X85375Y-50626D01*
X85318Y-50488D01*
X85213Y-50383D01*
X85075Y-50325D01*
X84926Y-50325D01*
X84788Y-50382D01*
X84683Y-50487D01*
X84625Y-50625D01*
X84625Y-50666D01*
X84599Y-50677D01*
X84475Y-50625D01*
X84326Y-50625D01*
X84188Y-50682D01*
X84083Y-50787D01*
X84025Y-50925D01*
X84025Y-51074D01*
X84082Y-51212D01*
X84187Y-51317D01*
X84325Y-51375D01*
X84474Y-51375D01*
X84600Y-51322D01*
X84725Y-51375D01*
X84874Y-51375D01*
X85000Y-51322D01*
X85125Y-51375D01*
X85274Y-51375D01*
X85412Y-51318D01*
X85517Y-51213D01*
X85575Y-51075D01*
X85575Y-56951D01*
X85391Y-56951D01*
X85189Y-57035D01*
X85035Y-57189D01*
X85000Y-57273D01*
X84965Y-57189D01*
X84811Y-57035D01*
X84609Y-56951D01*
X84391Y-56951D01*
X84189Y-57035D01*
X84035Y-57189D01*
X84000Y-57273D01*
X83965Y-57189D01*
X83811Y-57035D01*
X83609Y-56951D01*
X83575Y-56951D01*
X83575Y-51475D01*
X83575Y-51326D01*
X83518Y-51188D01*
X83413Y-51083D01*
X83275Y-51025D01*
X83126Y-51025D01*
X82988Y-51082D01*
X82883Y-51187D01*
X82825Y-51325D01*
X82825Y-51366D01*
X82788Y-51382D01*
X82683Y-51487D01*
X82625Y-51625D01*
X82625Y-51774D01*
X82682Y-51912D01*
X82787Y-52017D01*
X82925Y-52075D01*
X83074Y-52075D01*
X83212Y-52018D01*
X83317Y-51913D01*
X83375Y-51775D01*
X83375Y-51733D01*
X83412Y-51718D01*
X83517Y-51613D01*
X83575Y-51475D01*
X83575Y-56951D01*
X83391Y-56951D01*
X83375Y-56957D01*
X83375Y-52875D01*
X83375Y-52726D01*
X83318Y-52588D01*
X83213Y-52483D01*
X83075Y-52425D01*
X82926Y-52425D01*
X82788Y-52482D01*
X82683Y-52587D01*
X82625Y-52725D01*
X82625Y-52874D01*
X82682Y-53012D01*
X82787Y-53117D01*
X82925Y-53175D01*
X83074Y-53175D01*
X83212Y-53118D01*
X83317Y-53013D01*
X83375Y-52875D01*
X83375Y-56957D01*
X83189Y-57035D01*
X83035Y-57189D01*
X83000Y-57273D01*
X82965Y-57189D01*
X82811Y-57035D01*
X82609Y-56951D01*
X82391Y-56951D01*
X82189Y-57035D01*
X82035Y-57189D01*
X82000Y-57273D01*
X81965Y-57189D01*
X81811Y-57035D01*
X81609Y-56951D01*
X81391Y-56951D01*
X81189Y-57035D01*
X81035Y-57189D01*
X81000Y-57273D01*
X80965Y-57189D01*
X80811Y-57035D01*
X80609Y-56951D01*
X80391Y-56951D01*
X80189Y-57035D01*
X80035Y-57189D01*
X80000Y-57273D01*
X79965Y-57189D01*
X79811Y-57035D01*
X79609Y-56951D01*
X79391Y-56951D01*
X79189Y-57035D01*
X79035Y-57189D01*
X79000Y-57273D01*
X78965Y-57189D01*
X78811Y-57035D01*
X78790Y-57026D01*
X78790Y-55220D01*
X81057Y-52952D01*
X81082Y-53012D01*
X81187Y-53117D01*
X81325Y-53175D01*
X81474Y-53175D01*
X81612Y-53118D01*
X81717Y-53013D01*
X81775Y-52875D01*
X81775Y-52726D01*
X81718Y-52588D01*
X81613Y-52483D01*
X81552Y-52457D01*
X84320Y-49690D01*
X86000Y-49690D01*
X86111Y-49668D01*
X86205Y-49605D01*
X86410Y-49400D01*
X86410Y-56951D01*
X86410Y-56951D01*
G37*
G54D18*
X86410Y-56951D02*
X86391Y-56951D01*
X86189Y-57035D01*
X86035Y-57189D01*
X86000Y-57273D01*
X85965Y-57189D01*
X85811Y-57035D01*
X85609Y-56951D01*
X85575Y-56951D01*
X85575Y-51075D01*
X85575Y-50926D01*
X85518Y-50788D01*
X85413Y-50683D01*
X85375Y-50667D01*
X85375Y-50626D01*
X85318Y-50488D01*
X85213Y-50383D01*
X85075Y-50325D01*
X84926Y-50325D01*
X84788Y-50382D01*
X84683Y-50487D01*
X84625Y-50625D01*
X84625Y-50666D01*
X84599Y-50677D01*
X84475Y-50625D01*
X84326Y-50625D01*
X84188Y-50682D01*
X84083Y-50787D01*
X84025Y-50925D01*
X84025Y-51074D01*
X84082Y-51212D01*
X84187Y-51317D01*
X84325Y-51375D01*
X84474Y-51375D01*
X84600Y-51322D01*
X84725Y-51375D01*
X84874Y-51375D01*
X85000Y-51322D01*
X85125Y-51375D01*
X85274Y-51375D01*
X85412Y-51318D01*
X85517Y-51213D01*
X85575Y-51075D01*
X85575Y-56951D01*
X85391Y-56951D01*
X85189Y-57035D01*
X85035Y-57189D01*
X85000Y-57273D01*
X84965Y-57189D01*
X84811Y-57035D01*
X84609Y-56951D01*
X84391Y-56951D01*
X84189Y-57035D01*
X84035Y-57189D01*
X84000Y-57273D01*
X83965Y-57189D01*
X83811Y-57035D01*
X83609Y-56951D01*
X83575Y-56951D01*
X83575Y-51475D01*
X83575Y-51326D01*
X83518Y-51188D01*
X83413Y-51083D01*
X83275Y-51025D01*
X83126Y-51025D01*
X82988Y-51082D01*
X82883Y-51187D01*
X82825Y-51325D01*
X82825Y-51366D01*
X82788Y-51382D01*
X82683Y-51487D01*
X82625Y-51625D01*
X82625Y-51774D01*
X82682Y-51912D01*
X82787Y-52017D01*
X82925Y-52075D01*
X83074Y-52075D01*
X83212Y-52018D01*
X83317Y-51913D01*
X83375Y-51775D01*
X83375Y-51733D01*
X83412Y-51718D01*
X83517Y-51613D01*
X83575Y-51475D01*
X83575Y-56951D01*
X83391Y-56951D01*
X83375Y-56957D01*
X83375Y-52875D01*
X83375Y-52726D01*
X83318Y-52588D01*
X83213Y-52483D01*
X83075Y-52425D01*
X82926Y-52425D01*
X82788Y-52482D01*
X82683Y-52587D01*
X82625Y-52725D01*
X82625Y-52874D01*
X82682Y-53012D01*
X82787Y-53117D01*
X82925Y-53175D01*
X83074Y-53175D01*
X83212Y-53118D01*
X83317Y-53013D01*
X83375Y-52875D01*
X83375Y-56957D01*
X83189Y-57035D01*
X83035Y-57189D01*
X83000Y-57273D01*
X82965Y-57189D01*
X82811Y-57035D01*
X82609Y-56951D01*
X82391Y-56951D01*
X82189Y-57035D01*
X82035Y-57189D01*
X82000Y-57273D01*
X81965Y-57189D01*
X81811Y-57035D01*
X81609Y-56951D01*
X81391Y-56951D01*
X81189Y-57035D01*
X81035Y-57189D01*
X81000Y-57273D01*
X80965Y-57189D01*
X80811Y-57035D01*
X80609Y-56951D01*
X80391Y-56951D01*
X80189Y-57035D01*
X80035Y-57189D01*
X80000Y-57273D01*
X79965Y-57189D01*
X79811Y-57035D01*
X79609Y-56951D01*
X79391Y-56951D01*
X79189Y-57035D01*
X79035Y-57189D01*
X79000Y-57273D01*
X78965Y-57189D01*
X78811Y-57035D01*
X78790Y-57026D01*
X78790Y-55220D01*
X81057Y-52952D01*
X81082Y-53012D01*
X81187Y-53117D01*
X81325Y-53175D01*
X81474Y-53175D01*
X81612Y-53118D01*
X81717Y-53013D01*
X81775Y-52875D01*
X81775Y-52726D01*
X81718Y-52588D01*
X81613Y-52483D01*
X81552Y-52457D01*
X84320Y-49690D01*
X86000Y-49690D01*
X86111Y-49668D01*
X86205Y-49605D01*
X86410Y-49400D01*
X86410Y-56951D01*
G54D10*
G36*
X98175Y-60175D02*
X98050Y-60175D01*
X98050Y-43112D01*
X98050Y-42888D01*
X98049Y-42651D01*
X98043Y-42636D01*
X98043Y-42079D01*
X98032Y-41866D01*
X97972Y-41719D01*
X97878Y-41692D01*
X97808Y-41762D01*
X97808Y-41622D01*
X97781Y-41528D01*
X97579Y-41457D01*
X97366Y-41468D01*
X97219Y-41528D01*
X97192Y-41622D01*
X97500Y-41929D01*
X97808Y-41622D01*
X97808Y-41762D01*
X97571Y-42000D01*
X97878Y-42308D01*
X97972Y-42281D01*
X98043Y-42079D01*
X98043Y-42636D01*
X98011Y-42559D01*
X97941Y-42489D01*
X97850Y-42451D01*
X97787Y-42451D01*
X97808Y-42378D01*
X97500Y-42071D01*
X97192Y-42378D01*
X97212Y-42451D01*
X97150Y-42451D01*
X97059Y-42489D01*
X96989Y-42559D01*
X96951Y-42651D01*
X96950Y-42674D01*
X96811Y-42535D01*
X96726Y-42500D01*
X96811Y-42465D01*
X96965Y-42311D01*
X97002Y-42219D01*
X97028Y-42281D01*
X97122Y-42308D01*
X97429Y-42000D01*
X97122Y-41692D01*
X97049Y-41712D01*
X97049Y-35609D01*
X97049Y-35391D01*
X96965Y-35189D01*
X96825Y-35049D01*
X96849Y-35049D01*
X96941Y-35011D01*
X97011Y-34941D01*
X97049Y-34850D01*
X97049Y-34751D01*
X97049Y-34151D01*
X97011Y-34059D01*
X96941Y-33989D01*
X96850Y-33951D01*
X96751Y-33951D01*
X96151Y-33951D01*
X96059Y-33989D01*
X95989Y-34059D01*
X95951Y-34150D01*
X95951Y-34175D01*
X95811Y-34035D01*
X95609Y-33951D01*
X95391Y-33951D01*
X95189Y-34035D01*
X95035Y-34189D01*
X95000Y-34273D01*
X94965Y-34189D01*
X94811Y-34035D01*
X94609Y-33951D01*
X94391Y-33951D01*
X94189Y-34035D01*
X94035Y-34189D01*
X94000Y-34273D01*
X93965Y-34189D01*
X93811Y-34035D01*
X93609Y-33951D01*
X93391Y-33951D01*
X93189Y-34035D01*
X93035Y-34189D01*
X93000Y-34273D01*
X92965Y-34189D01*
X92811Y-34035D01*
X92609Y-33951D01*
X92391Y-33951D01*
X92189Y-34035D01*
X92035Y-34189D01*
X92000Y-34273D01*
X91965Y-34189D01*
X91811Y-34035D01*
X91609Y-33951D01*
X91391Y-33951D01*
X91189Y-34035D01*
X91035Y-34189D01*
X91000Y-34273D01*
X90965Y-34189D01*
X90811Y-34035D01*
X90609Y-33951D01*
X90391Y-33951D01*
X90189Y-34035D01*
X90035Y-34189D01*
X90000Y-34273D01*
X89965Y-34189D01*
X89811Y-34035D01*
X89609Y-33951D01*
X89391Y-33951D01*
X89189Y-34035D01*
X89035Y-34189D01*
X89000Y-34273D01*
X88965Y-34189D01*
X88811Y-34035D01*
X88609Y-33951D01*
X88391Y-33951D01*
X88189Y-34035D01*
X88035Y-34189D01*
X88000Y-34273D01*
X87965Y-34189D01*
X87811Y-34035D01*
X87609Y-33951D01*
X87391Y-33951D01*
X87189Y-34035D01*
X87035Y-34189D01*
X87000Y-34273D01*
X86965Y-34189D01*
X86811Y-34035D01*
X86609Y-33951D01*
X86391Y-33951D01*
X86189Y-34035D01*
X86035Y-34189D01*
X86000Y-34273D01*
X85965Y-34189D01*
X85811Y-34035D01*
X85609Y-33951D01*
X85391Y-33951D01*
X85189Y-34035D01*
X85035Y-34189D01*
X85000Y-34273D01*
X84965Y-34189D01*
X84811Y-34035D01*
X84609Y-33951D01*
X84391Y-33951D01*
X84189Y-34035D01*
X84035Y-34189D01*
X84000Y-34273D01*
X83965Y-34189D01*
X83811Y-34035D01*
X83609Y-33951D01*
X83391Y-33951D01*
X83189Y-34035D01*
X83035Y-34189D01*
X83000Y-34273D01*
X82965Y-34189D01*
X82811Y-34035D01*
X82609Y-33951D01*
X82391Y-33951D01*
X82189Y-34035D01*
X82035Y-34189D01*
X82000Y-34273D01*
X81965Y-34189D01*
X81811Y-34035D01*
X81609Y-33951D01*
X81391Y-33951D01*
X81189Y-34035D01*
X81035Y-34189D01*
X81000Y-34273D01*
X80965Y-34189D01*
X80811Y-34035D01*
X80609Y-33951D01*
X80391Y-33951D01*
X80189Y-34035D01*
X80035Y-34189D01*
X80000Y-34273D01*
X79965Y-34189D01*
X79811Y-34035D01*
X79609Y-33951D01*
X79391Y-33951D01*
X79189Y-34035D01*
X79035Y-34189D01*
X79000Y-34273D01*
X78965Y-34189D01*
X78811Y-34035D01*
X78609Y-33951D01*
X78391Y-33951D01*
X78189Y-34035D01*
X78035Y-34189D01*
X78000Y-34273D01*
X77965Y-34189D01*
X77811Y-34035D01*
X77609Y-33951D01*
X77391Y-33951D01*
X77189Y-34035D01*
X77035Y-34189D01*
X77000Y-34273D01*
X76965Y-34189D01*
X76811Y-34035D01*
X76609Y-33951D01*
X76391Y-33951D01*
X76189Y-34035D01*
X76035Y-34189D01*
X76000Y-34273D01*
X75965Y-34189D01*
X75811Y-34035D01*
X75609Y-33951D01*
X75391Y-33951D01*
X75189Y-34035D01*
X75035Y-34189D01*
X75000Y-34273D01*
X74965Y-34189D01*
X74811Y-34035D01*
X74609Y-33951D01*
X74391Y-33951D01*
X74189Y-34035D01*
X74035Y-34189D01*
X74000Y-34273D01*
X73965Y-34189D01*
X73811Y-34035D01*
X73609Y-33951D01*
X73391Y-33951D01*
X73189Y-34035D01*
X73035Y-34189D01*
X73000Y-34273D01*
X72965Y-34189D01*
X72811Y-34035D01*
X72609Y-33951D01*
X72391Y-33951D01*
X72189Y-34035D01*
X72035Y-34189D01*
X72000Y-34273D01*
X71965Y-34189D01*
X71811Y-34035D01*
X71609Y-33951D01*
X71391Y-33951D01*
X71189Y-34035D01*
X71035Y-34189D01*
X71000Y-34273D01*
X70965Y-34189D01*
X70811Y-34035D01*
X70609Y-33951D01*
X70391Y-33951D01*
X70189Y-34035D01*
X70035Y-34189D01*
X70000Y-34273D01*
X69965Y-34189D01*
X69811Y-34035D01*
X69609Y-33951D01*
X69391Y-33951D01*
X69189Y-34035D01*
X69035Y-34189D01*
X69000Y-34273D01*
X68965Y-34189D01*
X68811Y-34035D01*
X68609Y-33951D01*
X68391Y-33951D01*
X68189Y-34035D01*
X68035Y-34189D01*
X68000Y-34273D01*
X67965Y-34189D01*
X67811Y-34035D01*
X67609Y-33951D01*
X67391Y-33951D01*
X67189Y-34035D01*
X67035Y-34189D01*
X67000Y-34273D01*
X66965Y-34189D01*
X66811Y-34035D01*
X66609Y-33951D01*
X66391Y-33951D01*
X66189Y-34035D01*
X66035Y-34189D01*
X66000Y-34273D01*
X65965Y-34189D01*
X65811Y-34035D01*
X65609Y-33951D01*
X65391Y-33951D01*
X65189Y-34035D01*
X65035Y-34189D01*
X64951Y-34391D01*
X64951Y-34609D01*
X65035Y-34811D01*
X65189Y-34965D01*
X65273Y-35000D01*
X65189Y-35035D01*
X65035Y-35189D01*
X64951Y-35391D01*
X64951Y-35609D01*
X65035Y-35811D01*
X65189Y-35965D01*
X65391Y-36049D01*
X65609Y-36049D01*
X65625Y-36042D01*
X65625Y-36074D01*
X65682Y-36212D01*
X65787Y-36317D01*
X65925Y-36375D01*
X66074Y-36375D01*
X66212Y-36318D01*
X66317Y-36213D01*
X66375Y-36075D01*
X66375Y-36042D01*
X66391Y-36049D01*
X66609Y-36049D01*
X66811Y-35965D01*
X66965Y-35811D01*
X67000Y-35726D01*
X67035Y-35811D01*
X67189Y-35965D01*
X67391Y-36049D01*
X67609Y-36049D01*
X67811Y-35965D01*
X67965Y-35811D01*
X68000Y-35726D01*
X68035Y-35811D01*
X68189Y-35965D01*
X68391Y-36049D01*
X68609Y-36049D01*
X68811Y-35965D01*
X68965Y-35811D01*
X69000Y-35726D01*
X69035Y-35811D01*
X69189Y-35965D01*
X69391Y-36049D01*
X69609Y-36049D01*
X69811Y-35965D01*
X69965Y-35811D01*
X70000Y-35726D01*
X70035Y-35811D01*
X70189Y-35965D01*
X70391Y-36049D01*
X70609Y-36049D01*
X70811Y-35965D01*
X70965Y-35811D01*
X71000Y-35726D01*
X71035Y-35811D01*
X71189Y-35965D01*
X71391Y-36049D01*
X71609Y-36049D01*
X71811Y-35965D01*
X71965Y-35811D01*
X72000Y-35726D01*
X72035Y-35811D01*
X72189Y-35965D01*
X72391Y-36049D01*
X72609Y-36049D01*
X72811Y-35965D01*
X72965Y-35811D01*
X73000Y-35726D01*
X73035Y-35811D01*
X73189Y-35965D01*
X73391Y-36049D01*
X73609Y-36049D01*
X73811Y-35965D01*
X73965Y-35811D01*
X74000Y-35726D01*
X74035Y-35811D01*
X74189Y-35965D01*
X74391Y-36049D01*
X74609Y-36049D01*
X74811Y-35965D01*
X74965Y-35811D01*
X75002Y-35719D01*
X75028Y-35781D01*
X75122Y-35808D01*
X75429Y-35500D01*
X75122Y-35192D01*
X75028Y-35219D01*
X75004Y-35284D01*
X74965Y-35189D01*
X74811Y-35035D01*
X74726Y-35000D01*
X74811Y-34965D01*
X74965Y-34811D01*
X75000Y-34726D01*
X75035Y-34811D01*
X75189Y-34965D01*
X75280Y-35002D01*
X75219Y-35028D01*
X75192Y-35122D01*
X75500Y-35429D01*
X75808Y-35122D01*
X75781Y-35028D01*
X75715Y-35004D01*
X75811Y-34965D01*
X75965Y-34811D01*
X76000Y-34726D01*
X76035Y-34811D01*
X76189Y-34965D01*
X76273Y-35000D01*
X76189Y-35035D01*
X76035Y-35189D01*
X75997Y-35280D01*
X75972Y-35219D01*
X75878Y-35192D01*
X75571Y-35500D01*
X75878Y-35808D01*
X75972Y-35781D01*
X75995Y-35715D01*
X76035Y-35811D01*
X76189Y-35965D01*
X76391Y-36049D01*
X76609Y-36049D01*
X76811Y-35965D01*
X76965Y-35811D01*
X77000Y-35726D01*
X77035Y-35811D01*
X77189Y-35965D01*
X77391Y-36049D01*
X77609Y-36049D01*
X77811Y-35965D01*
X77965Y-35811D01*
X78000Y-35726D01*
X78035Y-35811D01*
X78189Y-35965D01*
X78391Y-36049D01*
X78609Y-36049D01*
X78811Y-35965D01*
X78965Y-35811D01*
X79000Y-35726D01*
X79035Y-35811D01*
X79189Y-35965D01*
X79391Y-36049D01*
X79609Y-36049D01*
X79811Y-35965D01*
X79965Y-35811D01*
X80000Y-35726D01*
X80035Y-35811D01*
X80189Y-35965D01*
X80391Y-36049D01*
X80609Y-36049D01*
X80811Y-35965D01*
X80965Y-35811D01*
X81000Y-35726D01*
X81035Y-35811D01*
X81189Y-35965D01*
X81391Y-36049D01*
X81609Y-36049D01*
X81811Y-35965D01*
X81965Y-35811D01*
X82000Y-35726D01*
X82035Y-35811D01*
X82097Y-35873D01*
X82083Y-35887D01*
X82025Y-36025D01*
X82025Y-36174D01*
X82082Y-36312D01*
X82187Y-36417D01*
X82325Y-36475D01*
X82474Y-36475D01*
X82612Y-36418D01*
X82717Y-36313D01*
X82775Y-36175D01*
X82775Y-36026D01*
X82758Y-35986D01*
X82811Y-35965D01*
X82965Y-35811D01*
X83000Y-35726D01*
X83035Y-35811D01*
X83189Y-35965D01*
X83391Y-36049D01*
X83609Y-36049D01*
X83811Y-35965D01*
X83965Y-35811D01*
X84000Y-35726D01*
X84035Y-35811D01*
X84071Y-35847D01*
X83988Y-35882D01*
X83883Y-35987D01*
X83825Y-36125D01*
X83688Y-36182D01*
X83583Y-36287D01*
X83525Y-36425D01*
X83525Y-36574D01*
X83582Y-36712D01*
X83687Y-36817D01*
X83825Y-36875D01*
X83974Y-36875D01*
X84112Y-36818D01*
X84217Y-36713D01*
X84274Y-36575D01*
X84275Y-36575D01*
X84275Y-36574D01*
X84412Y-36518D01*
X84517Y-36413D01*
X84575Y-36275D01*
X84575Y-36126D01*
X84543Y-36049D01*
X84609Y-36049D01*
X84625Y-36042D01*
X84625Y-36174D01*
X84682Y-36312D01*
X84787Y-36417D01*
X84925Y-36475D01*
X85074Y-36475D01*
X85212Y-36418D01*
X85317Y-36313D01*
X85375Y-36175D01*
X85375Y-36042D01*
X85391Y-36049D01*
X85609Y-36049D01*
X85811Y-35965D01*
X85965Y-35811D01*
X86000Y-35726D01*
X86035Y-35811D01*
X86189Y-35965D01*
X86391Y-36049D01*
X86609Y-36049D01*
X86811Y-35965D01*
X86965Y-35811D01*
X87000Y-35726D01*
X87035Y-35811D01*
X87189Y-35965D01*
X87391Y-36049D01*
X87609Y-36049D01*
X87811Y-35965D01*
X87965Y-35811D01*
X88000Y-35726D01*
X88035Y-35811D01*
X88189Y-35965D01*
X88391Y-36049D01*
X88609Y-36049D01*
X88811Y-35965D01*
X88965Y-35811D01*
X89000Y-35726D01*
X89035Y-35811D01*
X89189Y-35965D01*
X89391Y-36049D01*
X89609Y-36049D01*
X89811Y-35965D01*
X89965Y-35811D01*
X90000Y-35726D01*
X90035Y-35811D01*
X90189Y-35965D01*
X90391Y-36049D01*
X90609Y-36049D01*
X90811Y-35965D01*
X90965Y-35811D01*
X91000Y-35726D01*
X91035Y-35811D01*
X91189Y-35965D01*
X91391Y-36049D01*
X91609Y-36049D01*
X91811Y-35965D01*
X91965Y-35811D01*
X92000Y-35726D01*
X92035Y-35811D01*
X92189Y-35965D01*
X92391Y-36049D01*
X92609Y-36049D01*
X92811Y-35965D01*
X92965Y-35811D01*
X93000Y-35726D01*
X93035Y-35811D01*
X93189Y-35965D01*
X93391Y-36049D01*
X93609Y-36049D01*
X93811Y-35965D01*
X93965Y-35811D01*
X94000Y-35726D01*
X94035Y-35811D01*
X94189Y-35965D01*
X94391Y-36049D01*
X94609Y-36049D01*
X94811Y-35965D01*
X94965Y-35811D01*
X95000Y-35726D01*
X95035Y-35811D01*
X95189Y-35965D01*
X95391Y-36049D01*
X95609Y-36049D01*
X95811Y-35965D01*
X95965Y-35811D01*
X96000Y-35726D01*
X96035Y-35811D01*
X96189Y-35965D01*
X96391Y-36049D01*
X96609Y-36049D01*
X96811Y-35965D01*
X96965Y-35811D01*
X97049Y-35609D01*
X97049Y-41712D01*
X97028Y-41719D01*
X97004Y-41784D01*
X96965Y-41689D01*
X96811Y-41535D01*
X96609Y-41451D01*
X96391Y-41451D01*
X96189Y-41535D01*
X96035Y-41689D01*
X95951Y-41891D01*
X95951Y-42109D01*
X96035Y-42311D01*
X96189Y-42465D01*
X96273Y-42500D01*
X96189Y-42535D01*
X96035Y-42689D01*
X95951Y-42891D01*
X95951Y-43109D01*
X96035Y-43311D01*
X96189Y-43465D01*
X96391Y-43549D01*
X96609Y-43549D01*
X96811Y-43465D01*
X96950Y-43325D01*
X96951Y-43349D01*
X96989Y-43441D01*
X97059Y-43511D01*
X97150Y-43549D01*
X97249Y-43549D01*
X97388Y-43550D01*
X97450Y-43488D01*
X97450Y-43100D01*
X97450Y-43050D01*
X97450Y-42950D01*
X97550Y-42950D01*
X97600Y-42950D01*
X97988Y-42950D01*
X98050Y-42888D01*
X98050Y-43112D01*
X97988Y-43050D01*
X97550Y-43050D01*
X97550Y-43488D01*
X97612Y-43550D01*
X97751Y-43549D01*
X97850Y-43549D01*
X97941Y-43511D01*
X98011Y-43441D01*
X98049Y-43349D01*
X98050Y-43112D01*
X98050Y-60175D01*
X97049Y-60175D01*
X97049Y-57609D01*
X97049Y-57391D01*
X96965Y-57189D01*
X96811Y-57035D01*
X96609Y-56951D01*
X96391Y-56951D01*
X96189Y-57035D01*
X96035Y-57189D01*
X96000Y-57273D01*
X95965Y-57189D01*
X95811Y-57035D01*
X95609Y-56951D01*
X95391Y-56951D01*
X95189Y-57035D01*
X95035Y-57189D01*
X95000Y-57273D01*
X94965Y-57189D01*
X94811Y-57035D01*
X94609Y-56951D01*
X94391Y-56951D01*
X94189Y-57035D01*
X94035Y-57189D01*
X94000Y-57273D01*
X93965Y-57189D01*
X93811Y-57035D01*
X93609Y-56951D01*
X93391Y-56951D01*
X93189Y-57035D01*
X93035Y-57189D01*
X93000Y-57273D01*
X92965Y-57189D01*
X92811Y-57035D01*
X92609Y-56951D01*
X92391Y-56951D01*
X92189Y-57035D01*
X92035Y-57189D01*
X92000Y-57273D01*
X91965Y-57189D01*
X91811Y-57035D01*
X91609Y-56951D01*
X91391Y-56951D01*
X91369Y-56959D01*
X88990Y-54580D01*
X88990Y-44200D01*
X88968Y-44089D01*
X88905Y-43995D01*
X88905Y-43994D01*
X86275Y-41364D01*
X86275Y-36775D01*
X86275Y-36626D01*
X86218Y-36488D01*
X86113Y-36383D01*
X85975Y-36325D01*
X85826Y-36325D01*
X85688Y-36382D01*
X85583Y-36487D01*
X85525Y-36625D01*
X85525Y-36774D01*
X85582Y-36912D01*
X85687Y-37017D01*
X85825Y-37075D01*
X85974Y-37075D01*
X86112Y-37018D01*
X86217Y-36913D01*
X86275Y-36775D01*
X86275Y-41364D01*
X84005Y-39095D01*
X83911Y-39032D01*
X83800Y-39010D01*
X83475Y-39010D01*
X83475Y-36575D01*
X83475Y-36426D01*
X83418Y-36288D01*
X83313Y-36183D01*
X83175Y-36125D01*
X83026Y-36125D01*
X82888Y-36182D01*
X82783Y-36287D01*
X82725Y-36425D01*
X82725Y-36574D01*
X82782Y-36712D01*
X82887Y-36817D01*
X83025Y-36875D01*
X83174Y-36875D01*
X83312Y-36818D01*
X83417Y-36713D01*
X83475Y-36575D01*
X83475Y-39010D01*
X80400Y-39010D01*
X80289Y-39032D01*
X80195Y-39095D01*
X79395Y-39895D01*
X79332Y-39989D01*
X79310Y-40100D01*
X79310Y-40300D01*
X79332Y-40411D01*
X79342Y-40427D01*
X79283Y-40487D01*
X79225Y-40625D01*
X79225Y-40666D01*
X79188Y-40682D01*
X79083Y-40787D01*
X79025Y-40925D01*
X79025Y-40966D01*
X78988Y-40982D01*
X78940Y-41029D01*
X78305Y-40395D01*
X78211Y-40332D01*
X78100Y-40310D01*
X77875Y-40310D01*
X77875Y-36975D01*
X77875Y-36826D01*
X77818Y-36688D01*
X77713Y-36583D01*
X77575Y-36525D01*
X77426Y-36525D01*
X77288Y-36582D01*
X77250Y-36620D01*
X77213Y-36583D01*
X77075Y-36525D01*
X76926Y-36525D01*
X76788Y-36582D01*
X76683Y-36687D01*
X76625Y-36825D01*
X76625Y-36974D01*
X76682Y-37112D01*
X76787Y-37217D01*
X76925Y-37275D01*
X77074Y-37275D01*
X77212Y-37218D01*
X77250Y-37180D01*
X77287Y-37217D01*
X77425Y-37275D01*
X77574Y-37275D01*
X77712Y-37218D01*
X77817Y-37113D01*
X77875Y-36975D01*
X77875Y-40310D01*
X77200Y-40310D01*
X77089Y-40332D01*
X76995Y-40395D01*
X76994Y-40395D01*
X76994Y-40396D01*
X76965Y-40425D01*
X76926Y-40425D01*
X76788Y-40482D01*
X76683Y-40587D01*
X76625Y-40725D01*
X76625Y-40874D01*
X76677Y-41000D01*
X76625Y-41125D01*
X76625Y-41274D01*
X76682Y-41412D01*
X76787Y-41517D01*
X76925Y-41575D01*
X77074Y-41575D01*
X77212Y-41518D01*
X77317Y-41413D01*
X77375Y-41275D01*
X77375Y-41235D01*
X77428Y-41182D01*
X77477Y-41300D01*
X77425Y-41425D01*
X77425Y-41574D01*
X77482Y-41712D01*
X77587Y-41817D01*
X77725Y-41875D01*
X77874Y-41875D01*
X78012Y-41818D01*
X78040Y-41790D01*
X78280Y-41790D01*
X78795Y-42305D01*
X78889Y-42368D01*
X79000Y-42390D01*
X80300Y-42390D01*
X80411Y-42368D01*
X80505Y-42305D01*
X80940Y-41870D01*
X80987Y-41917D01*
X81125Y-41975D01*
X81165Y-41975D01*
X81295Y-42105D01*
X81389Y-42168D01*
X81500Y-42190D01*
X83280Y-42190D01*
X84847Y-43757D01*
X84788Y-43782D01*
X84683Y-43887D01*
X84625Y-44025D01*
X84625Y-44174D01*
X84682Y-44312D01*
X84787Y-44417D01*
X84925Y-44475D01*
X84966Y-44475D01*
X84982Y-44512D01*
X85087Y-44617D01*
X85225Y-44675D01*
X85266Y-44675D01*
X85282Y-44712D01*
X85387Y-44817D01*
X85525Y-44875D01*
X85674Y-44875D01*
X85812Y-44818D01*
X85860Y-44770D01*
X85947Y-44857D01*
X85888Y-44882D01*
X85783Y-44987D01*
X85725Y-45125D01*
X85725Y-45166D01*
X85699Y-45177D01*
X85575Y-45125D01*
X85426Y-45125D01*
X85299Y-45177D01*
X85175Y-45125D01*
X85026Y-45125D01*
X84888Y-45182D01*
X84783Y-45287D01*
X84725Y-45425D01*
X84725Y-45524D01*
X84706Y-45528D01*
X84688Y-45532D01*
X84594Y-45595D01*
X84195Y-45995D01*
X84132Y-46089D01*
X84110Y-46200D01*
X84110Y-46680D01*
X83971Y-46818D01*
X83918Y-46688D01*
X83813Y-46583D01*
X83675Y-46525D01*
X83526Y-46525D01*
X83388Y-46582D01*
X83283Y-46687D01*
X83225Y-46825D01*
X83225Y-46974D01*
X83282Y-47112D01*
X83387Y-47217D01*
X83517Y-47272D01*
X83260Y-47530D01*
X83213Y-47483D01*
X83075Y-47425D01*
X82926Y-47425D01*
X82788Y-47482D01*
X82683Y-47587D01*
X82625Y-47725D01*
X82625Y-47874D01*
X82682Y-48012D01*
X82730Y-48060D01*
X81890Y-48900D01*
X81890Y-46500D01*
X81890Y-46100D01*
X81871Y-46006D01*
X81868Y-45989D01*
X81868Y-45988D01*
X81805Y-45895D01*
X81805Y-45894D01*
X81405Y-45495D01*
X81311Y-45432D01*
X81249Y-45419D01*
X81213Y-45383D01*
X81075Y-45325D01*
X81075Y-43175D01*
X81075Y-43026D01*
X81018Y-42888D01*
X80913Y-42783D01*
X80775Y-42725D01*
X80626Y-42725D01*
X80488Y-42782D01*
X80383Y-42887D01*
X80325Y-43025D01*
X80325Y-43174D01*
X80382Y-43312D01*
X80487Y-43417D01*
X80625Y-43475D01*
X80774Y-43475D01*
X80912Y-43418D01*
X81017Y-43313D01*
X81075Y-43175D01*
X81075Y-45325D01*
X80926Y-45325D01*
X80788Y-45382D01*
X80683Y-45487D01*
X80625Y-45625D01*
X80625Y-45646D01*
X80575Y-45625D01*
X80426Y-45625D01*
X80288Y-45682D01*
X80183Y-45787D01*
X80125Y-45925D01*
X79988Y-45982D01*
X79960Y-46010D01*
X79920Y-46010D01*
X77081Y-43171D01*
X77212Y-43118D01*
X77317Y-43013D01*
X77375Y-42875D01*
X77375Y-42726D01*
X77318Y-42588D01*
X77213Y-42483D01*
X77075Y-42425D01*
X76926Y-42425D01*
X76788Y-42482D01*
X76683Y-42587D01*
X76627Y-42717D01*
X75808Y-41898D01*
X75808Y-35878D01*
X75500Y-35571D01*
X75192Y-35878D01*
X75219Y-35972D01*
X75421Y-36043D01*
X75634Y-36032D01*
X75781Y-35972D01*
X75808Y-35878D01*
X75808Y-41898D01*
X75505Y-41595D01*
X75411Y-41532D01*
X75300Y-41510D01*
X74875Y-41510D01*
X74875Y-36675D01*
X74875Y-36526D01*
X74818Y-36388D01*
X74713Y-36283D01*
X74575Y-36225D01*
X74426Y-36225D01*
X74288Y-36282D01*
X74183Y-36387D01*
X74125Y-36525D01*
X74125Y-36674D01*
X74182Y-36812D01*
X74287Y-36917D01*
X74425Y-36975D01*
X74574Y-36975D01*
X74712Y-36918D01*
X74817Y-36813D01*
X74875Y-36675D01*
X74875Y-41510D01*
X73320Y-41510D01*
X72975Y-41165D01*
X72975Y-41126D01*
X72918Y-40988D01*
X72813Y-40883D01*
X72675Y-40825D01*
X72526Y-40825D01*
X72388Y-40882D01*
X72327Y-40942D01*
X72311Y-40932D01*
X72200Y-40910D01*
X71500Y-40910D01*
X71389Y-40932D01*
X71295Y-40995D01*
X71130Y-41159D01*
X71109Y-41151D01*
X70891Y-41151D01*
X70689Y-41235D01*
X70549Y-41375D01*
X70549Y-41351D01*
X70511Y-41259D01*
X70441Y-41189D01*
X70350Y-41151D01*
X70251Y-41151D01*
X69651Y-41151D01*
X69559Y-41189D01*
X69489Y-41259D01*
X69451Y-41350D01*
X69451Y-41449D01*
X69451Y-41838D01*
X68779Y-42510D01*
X67700Y-42510D01*
X67589Y-42532D01*
X67495Y-42595D01*
X67494Y-42595D01*
X67494Y-42596D01*
X67465Y-42625D01*
X67426Y-42625D01*
X67288Y-42682D01*
X67183Y-42787D01*
X67125Y-42925D01*
X67125Y-43074D01*
X67177Y-43200D01*
X67125Y-43325D01*
X67125Y-43474D01*
X67177Y-43600D01*
X67125Y-43725D01*
X67125Y-43874D01*
X67182Y-44012D01*
X67230Y-44060D01*
X64942Y-46347D01*
X64918Y-46288D01*
X64813Y-46183D01*
X64675Y-46125D01*
X64526Y-46125D01*
X64388Y-46182D01*
X64283Y-46287D01*
X64225Y-46425D01*
X64225Y-46574D01*
X64282Y-46712D01*
X64387Y-46817D01*
X64447Y-46842D01*
X63330Y-47960D01*
X63330Y-45700D01*
X63330Y-45033D01*
X63330Y-43967D01*
X63330Y-43300D01*
X62663Y-43300D01*
X62663Y-43967D01*
X63330Y-43967D01*
X63330Y-45033D01*
X62663Y-45033D01*
X62663Y-45700D01*
X63330Y-45700D01*
X63330Y-47960D01*
X62795Y-48495D01*
X62732Y-48589D01*
X62710Y-48700D01*
X62710Y-48993D01*
X62609Y-48951D01*
X62391Y-48951D01*
X62189Y-49035D01*
X62035Y-49189D01*
X62000Y-49273D01*
X61965Y-49189D01*
X61811Y-49035D01*
X61609Y-48951D01*
X61391Y-48951D01*
X61189Y-49035D01*
X61035Y-49189D01*
X60951Y-49391D01*
X60951Y-49609D01*
X61035Y-49811D01*
X61189Y-49965D01*
X61273Y-50000D01*
X61189Y-50035D01*
X61035Y-50189D01*
X60951Y-50391D01*
X60951Y-50609D01*
X61035Y-50811D01*
X61189Y-50965D01*
X61273Y-51000D01*
X61189Y-51035D01*
X61035Y-51189D01*
X60951Y-51391D01*
X60951Y-51609D01*
X61035Y-51811D01*
X61189Y-51965D01*
X61273Y-52000D01*
X61189Y-52035D01*
X61035Y-52189D01*
X60951Y-52391D01*
X60951Y-52609D01*
X61035Y-52811D01*
X61189Y-52965D01*
X61273Y-53000D01*
X61189Y-53035D01*
X61035Y-53189D01*
X60951Y-53391D01*
X60951Y-53609D01*
X61035Y-53811D01*
X61189Y-53965D01*
X61273Y-54000D01*
X61189Y-54035D01*
X61035Y-54189D01*
X60951Y-54391D01*
X60951Y-54609D01*
X61035Y-54811D01*
X61189Y-54965D01*
X61273Y-55000D01*
X61189Y-55035D01*
X61035Y-55189D01*
X60951Y-55391D01*
X60951Y-55609D01*
X61035Y-55811D01*
X61189Y-55965D01*
X61273Y-56000D01*
X61189Y-56035D01*
X61035Y-56189D01*
X60951Y-56391D01*
X60951Y-56609D01*
X61035Y-56811D01*
X61189Y-56965D01*
X61273Y-57000D01*
X61189Y-57035D01*
X61035Y-57189D01*
X60951Y-57391D01*
X60951Y-57609D01*
X61035Y-57811D01*
X61189Y-57965D01*
X61273Y-58000D01*
X61189Y-58035D01*
X61035Y-58189D01*
X60951Y-58391D01*
X60951Y-58609D01*
X61035Y-58811D01*
X61189Y-58965D01*
X61391Y-59049D01*
X61609Y-59049D01*
X61811Y-58965D01*
X61950Y-58825D01*
X61951Y-58849D01*
X61989Y-58941D01*
X62059Y-59011D01*
X62150Y-59049D01*
X62249Y-59049D01*
X62388Y-59050D01*
X62450Y-58988D01*
X62450Y-58600D01*
X62450Y-58550D01*
X62450Y-58450D01*
X62550Y-58450D01*
X62600Y-58450D01*
X62988Y-58450D01*
X63050Y-58388D01*
X63049Y-58151D01*
X63011Y-58059D01*
X62941Y-57989D01*
X62850Y-57951D01*
X62825Y-57951D01*
X62965Y-57811D01*
X63049Y-57609D01*
X63049Y-57391D01*
X62965Y-57189D01*
X62811Y-57035D01*
X62726Y-57000D01*
X62811Y-56965D01*
X62965Y-56811D01*
X63049Y-56609D01*
X63049Y-56391D01*
X62965Y-56189D01*
X62811Y-56035D01*
X62726Y-56000D01*
X62811Y-55965D01*
X62965Y-55811D01*
X63049Y-55609D01*
X63049Y-55391D01*
X63040Y-55369D01*
X63330Y-55080D01*
X63404Y-55006D01*
X63404Y-55005D01*
X63405Y-55005D01*
X63467Y-54912D01*
X63468Y-54911D01*
X63489Y-54801D01*
X63490Y-54800D01*
X63490Y-48920D01*
X68140Y-44270D01*
X68187Y-44317D01*
X68325Y-44375D01*
X68474Y-44375D01*
X68612Y-44318D01*
X68717Y-44213D01*
X68775Y-44075D01*
X68775Y-43926D01*
X68760Y-43890D01*
X70634Y-43890D01*
X70535Y-43989D01*
X70451Y-44191D01*
X70451Y-44409D01*
X70535Y-44611D01*
X70689Y-44765D01*
X70891Y-44849D01*
X71109Y-44849D01*
X71311Y-44765D01*
X71465Y-44611D01*
X71500Y-44526D01*
X71535Y-44611D01*
X71689Y-44765D01*
X71891Y-44849D01*
X72109Y-44849D01*
X72311Y-44765D01*
X72423Y-44653D01*
X72487Y-44717D01*
X72625Y-44775D01*
X72774Y-44775D01*
X72912Y-44718D01*
X73017Y-44613D01*
X73075Y-44475D01*
X73075Y-44326D01*
X73018Y-44188D01*
X72913Y-44083D01*
X72834Y-44050D01*
X72912Y-44018D01*
X73017Y-43913D01*
X73075Y-43775D01*
X73075Y-43626D01*
X73018Y-43488D01*
X72970Y-43440D01*
X73320Y-43090D01*
X73925Y-43090D01*
X73925Y-43174D01*
X73977Y-43300D01*
X73925Y-43425D01*
X73925Y-43574D01*
X73982Y-43712D01*
X74087Y-43817D01*
X74125Y-43832D01*
X74125Y-43874D01*
X74182Y-44012D01*
X74287Y-44117D01*
X74325Y-44132D01*
X74325Y-44174D01*
X74382Y-44312D01*
X74487Y-44417D01*
X74625Y-44475D01*
X74774Y-44475D01*
X74900Y-44422D01*
X75025Y-44475D01*
X75174Y-44475D01*
X75312Y-44418D01*
X75417Y-44313D01*
X75475Y-44175D01*
X75475Y-44026D01*
X75418Y-43888D01*
X75313Y-43783D01*
X75175Y-43725D01*
X75026Y-43725D01*
X74899Y-43777D01*
X74875Y-43767D01*
X74875Y-43726D01*
X74818Y-43588D01*
X74713Y-43483D01*
X74675Y-43467D01*
X74675Y-43426D01*
X74622Y-43299D01*
X74675Y-43175D01*
X74675Y-43090D01*
X74680Y-43090D01*
X79395Y-47805D01*
X79489Y-47868D01*
X79600Y-47890D01*
X80500Y-47890D01*
X80611Y-47868D01*
X80705Y-47805D01*
X81805Y-46706D01*
X81805Y-46705D01*
X81868Y-46611D01*
X81889Y-46500D01*
X81890Y-46500D01*
X81890Y-48900D01*
X80775Y-50015D01*
X80775Y-49375D01*
X80775Y-49226D01*
X80718Y-49088D01*
X80613Y-48983D01*
X80475Y-48925D01*
X80326Y-48925D01*
X80188Y-48982D01*
X80083Y-49087D01*
X80025Y-49225D01*
X80025Y-49374D01*
X80082Y-49512D01*
X80187Y-49617D01*
X80325Y-49675D01*
X80474Y-49675D01*
X80612Y-49618D01*
X80717Y-49513D01*
X80775Y-49375D01*
X80775Y-50015D01*
X78975Y-51815D01*
X78975Y-51475D01*
X78975Y-51326D01*
X78918Y-51188D01*
X78813Y-51083D01*
X78675Y-51025D01*
X78526Y-51025D01*
X78388Y-51082D01*
X78283Y-51187D01*
X78225Y-51325D01*
X78225Y-51366D01*
X78188Y-51382D01*
X78083Y-51487D01*
X78025Y-51625D01*
X78025Y-51774D01*
X78082Y-51912D01*
X78187Y-52017D01*
X78325Y-52075D01*
X78474Y-52075D01*
X78612Y-52018D01*
X78717Y-51913D01*
X78775Y-51775D01*
X78775Y-51733D01*
X78812Y-51718D01*
X78917Y-51613D01*
X78975Y-51475D01*
X78975Y-51815D01*
X78360Y-52430D01*
X78313Y-52383D01*
X78175Y-52325D01*
X78033Y-52325D01*
X78018Y-52288D01*
X77954Y-52224D01*
X77975Y-52175D01*
X77975Y-52026D01*
X77918Y-51888D01*
X77813Y-51783D01*
X77775Y-51767D01*
X77775Y-51726D01*
X77718Y-51588D01*
X77613Y-51483D01*
X77475Y-51425D01*
X77326Y-51425D01*
X77199Y-51477D01*
X77075Y-51425D01*
X76926Y-51425D01*
X76788Y-51482D01*
X76683Y-51587D01*
X76625Y-51725D01*
X76625Y-51874D01*
X76677Y-52000D01*
X76625Y-52125D01*
X76625Y-52274D01*
X76682Y-52412D01*
X76787Y-52517D01*
X76857Y-52546D01*
X76825Y-52625D01*
X76825Y-52774D01*
X76882Y-52912D01*
X76987Y-53017D01*
X77125Y-53075D01*
X77274Y-53075D01*
X77412Y-53018D01*
X77517Y-52913D01*
X77546Y-52842D01*
X77625Y-52875D01*
X77766Y-52875D01*
X77782Y-52912D01*
X77830Y-52960D01*
X75975Y-54815D01*
X75975Y-50975D01*
X75975Y-50826D01*
X75918Y-50688D01*
X75813Y-50583D01*
X75675Y-50525D01*
X75526Y-50525D01*
X75388Y-50582D01*
X75375Y-50594D01*
X75375Y-47175D01*
X75375Y-47026D01*
X75318Y-46888D01*
X75213Y-46783D01*
X75075Y-46725D01*
X75033Y-46725D01*
X75018Y-46688D01*
X74913Y-46583D01*
X74796Y-46533D01*
X74817Y-46513D01*
X74846Y-46442D01*
X74925Y-46475D01*
X75074Y-46475D01*
X75212Y-46418D01*
X75317Y-46313D01*
X75375Y-46175D01*
X75375Y-46026D01*
X75318Y-45888D01*
X75213Y-45783D01*
X75075Y-45725D01*
X74926Y-45725D01*
X74788Y-45782D01*
X74683Y-45887D01*
X74653Y-45957D01*
X74575Y-45925D01*
X74426Y-45925D01*
X74288Y-45982D01*
X74183Y-46087D01*
X74125Y-46225D01*
X74125Y-46374D01*
X74145Y-46424D01*
X74083Y-46487D01*
X74025Y-46625D01*
X74025Y-46774D01*
X74082Y-46912D01*
X74187Y-47017D01*
X74325Y-47075D01*
X74366Y-47075D01*
X74382Y-47112D01*
X74487Y-47217D01*
X74625Y-47275D01*
X74666Y-47275D01*
X74682Y-47312D01*
X74787Y-47417D01*
X74925Y-47475D01*
X75074Y-47475D01*
X75212Y-47418D01*
X75317Y-47313D01*
X75375Y-47175D01*
X75375Y-50594D01*
X75336Y-50633D01*
X75318Y-50588D01*
X75254Y-50524D01*
X75275Y-50475D01*
X75275Y-50326D01*
X75218Y-50188D01*
X75125Y-50095D01*
X75125Y-48475D01*
X75125Y-48326D01*
X75083Y-48224D01*
X75125Y-48125D01*
X75125Y-47976D01*
X75068Y-47838D01*
X74963Y-47733D01*
X74825Y-47675D01*
X74676Y-47675D01*
X74538Y-47732D01*
X74433Y-47837D01*
X74375Y-47975D01*
X74375Y-48124D01*
X74375Y-48125D01*
X74326Y-48125D01*
X74188Y-48182D01*
X74083Y-48287D01*
X74025Y-48425D01*
X74025Y-48574D01*
X74077Y-48700D01*
X74025Y-48825D01*
X74025Y-48974D01*
X74082Y-49112D01*
X74187Y-49217D01*
X74325Y-49275D01*
X74474Y-49275D01*
X74612Y-49218D01*
X74717Y-49113D01*
X74775Y-48975D01*
X74775Y-48826D01*
X74753Y-48775D01*
X74824Y-48775D01*
X74962Y-48718D01*
X75067Y-48613D01*
X75125Y-48475D01*
X75125Y-50095D01*
X75113Y-50083D01*
X74975Y-50025D01*
X74826Y-50025D01*
X74688Y-50082D01*
X74583Y-50187D01*
X74525Y-50325D01*
X74525Y-50474D01*
X74582Y-50612D01*
X74645Y-50675D01*
X74625Y-50725D01*
X74625Y-50874D01*
X74682Y-51012D01*
X74787Y-51117D01*
X74925Y-51175D01*
X74982Y-51312D01*
X75087Y-51417D01*
X75225Y-51475D01*
X75374Y-51475D01*
X75512Y-51418D01*
X75617Y-51313D01*
X75632Y-51275D01*
X75674Y-51275D01*
X75812Y-51218D01*
X75917Y-51113D01*
X75975Y-50975D01*
X75975Y-54815D01*
X75380Y-55410D01*
X72975Y-55410D01*
X72975Y-49675D01*
X72975Y-49526D01*
X72918Y-49388D01*
X72813Y-49283D01*
X72675Y-49225D01*
X72526Y-49225D01*
X72388Y-49282D01*
X72283Y-49387D01*
X72275Y-49406D01*
X72275Y-48275D01*
X72275Y-48126D01*
X72218Y-47988D01*
X72113Y-47883D01*
X71975Y-47825D01*
X72049Y-47648D01*
X72049Y-47430D01*
X71965Y-47228D01*
X71811Y-47074D01*
X71609Y-46990D01*
X71391Y-46990D01*
X71189Y-47074D01*
X71035Y-47228D01*
X70951Y-47430D01*
X70951Y-47648D01*
X71035Y-47850D01*
X71189Y-48004D01*
X71391Y-48088D01*
X71540Y-48088D01*
X71525Y-48125D01*
X71525Y-48274D01*
X71582Y-48412D01*
X71687Y-48517D01*
X71825Y-48575D01*
X71974Y-48575D01*
X72112Y-48518D01*
X72217Y-48413D01*
X72275Y-48275D01*
X72275Y-49406D01*
X72225Y-49525D01*
X72225Y-49674D01*
X72282Y-49812D01*
X72387Y-49917D01*
X72525Y-49975D01*
X72674Y-49975D01*
X72812Y-49918D01*
X72917Y-49813D01*
X72975Y-49675D01*
X72975Y-55410D01*
X72600Y-55410D01*
X72489Y-55432D01*
X72457Y-55453D01*
X72394Y-55495D01*
X72049Y-55839D01*
X72049Y-49570D01*
X72049Y-49352D01*
X71965Y-49150D01*
X71811Y-48996D01*
X71609Y-48912D01*
X71391Y-48912D01*
X71189Y-48996D01*
X71035Y-49150D01*
X70951Y-49352D01*
X70951Y-49570D01*
X71035Y-49772D01*
X71189Y-49926D01*
X71391Y-50010D01*
X71609Y-50010D01*
X71811Y-49926D01*
X71965Y-49772D01*
X72049Y-49570D01*
X72049Y-55839D01*
X71775Y-56113D01*
X71775Y-51175D01*
X71775Y-51026D01*
X71718Y-50888D01*
X71613Y-50783D01*
X71475Y-50725D01*
X71326Y-50725D01*
X71188Y-50782D01*
X71083Y-50887D01*
X71025Y-51025D01*
X71025Y-51174D01*
X71082Y-51312D01*
X71187Y-51417D01*
X71325Y-51475D01*
X71474Y-51475D01*
X71612Y-51418D01*
X71717Y-51313D01*
X71775Y-51175D01*
X71775Y-56113D01*
X70832Y-57056D01*
X70811Y-57035D01*
X70609Y-56951D01*
X70391Y-56951D01*
X70189Y-57035D01*
X70035Y-57189D01*
X70000Y-57273D01*
X69965Y-57189D01*
X69811Y-57035D01*
X69609Y-56951D01*
X69391Y-56951D01*
X69189Y-57035D01*
X69035Y-57189D01*
X69000Y-57273D01*
X68965Y-57189D01*
X68811Y-57035D01*
X68775Y-57020D01*
X68775Y-51075D01*
X68775Y-50926D01*
X68718Y-50788D01*
X68613Y-50683D01*
X68475Y-50625D01*
X68326Y-50625D01*
X68188Y-50682D01*
X68083Y-50787D01*
X68025Y-50925D01*
X68025Y-51074D01*
X68082Y-51212D01*
X68187Y-51317D01*
X68325Y-51375D01*
X68474Y-51375D01*
X68612Y-51318D01*
X68717Y-51213D01*
X68775Y-51075D01*
X68775Y-57020D01*
X68609Y-56951D01*
X68391Y-56951D01*
X68189Y-57035D01*
X68035Y-57189D01*
X68000Y-57273D01*
X67965Y-57189D01*
X67811Y-57035D01*
X67609Y-56951D01*
X67391Y-56951D01*
X67189Y-57035D01*
X67035Y-57189D01*
X67000Y-57273D01*
X66965Y-57189D01*
X66811Y-57035D01*
X66609Y-56951D01*
X66391Y-56951D01*
X66189Y-57035D01*
X66035Y-57189D01*
X66000Y-57273D01*
X65965Y-57189D01*
X65811Y-57035D01*
X65609Y-56951D01*
X65391Y-56951D01*
X65189Y-57035D01*
X65035Y-57189D01*
X64951Y-57391D01*
X64951Y-57609D01*
X65035Y-57811D01*
X65175Y-57951D01*
X65151Y-57951D01*
X65059Y-57989D01*
X64989Y-58059D01*
X64951Y-58150D01*
X64951Y-58249D01*
X64951Y-58849D01*
X64989Y-58941D01*
X65059Y-59011D01*
X65150Y-59049D01*
X65249Y-59049D01*
X65849Y-59049D01*
X65941Y-59011D01*
X66011Y-58941D01*
X66049Y-58850D01*
X66049Y-58825D01*
X66189Y-58965D01*
X66391Y-59049D01*
X66609Y-59049D01*
X66811Y-58965D01*
X66965Y-58811D01*
X67000Y-58726D01*
X67035Y-58811D01*
X67189Y-58965D01*
X67391Y-59049D01*
X67609Y-59049D01*
X67811Y-58965D01*
X67965Y-58811D01*
X68000Y-58726D01*
X68035Y-58811D01*
X68189Y-58965D01*
X68391Y-59049D01*
X68609Y-59049D01*
X68811Y-58965D01*
X68965Y-58811D01*
X69000Y-58726D01*
X69035Y-58811D01*
X69189Y-58965D01*
X69391Y-59049D01*
X69609Y-59049D01*
X69811Y-58965D01*
X69965Y-58811D01*
X70000Y-58726D01*
X70035Y-58811D01*
X70189Y-58965D01*
X70391Y-59049D01*
X70609Y-59049D01*
X70811Y-58965D01*
X70965Y-58811D01*
X71000Y-58726D01*
X71035Y-58811D01*
X71189Y-58965D01*
X71391Y-59049D01*
X71609Y-59049D01*
X71811Y-58965D01*
X71965Y-58811D01*
X72000Y-58726D01*
X72035Y-58811D01*
X72189Y-58965D01*
X72391Y-59049D01*
X72609Y-59049D01*
X72811Y-58965D01*
X72965Y-58811D01*
X73000Y-58726D01*
X73035Y-58811D01*
X73189Y-58965D01*
X73391Y-59049D01*
X73609Y-59049D01*
X73811Y-58965D01*
X73965Y-58811D01*
X74000Y-58726D01*
X74035Y-58811D01*
X74189Y-58965D01*
X74391Y-59049D01*
X74609Y-59049D01*
X74811Y-58965D01*
X74965Y-58811D01*
X75000Y-58726D01*
X75035Y-58811D01*
X75189Y-58965D01*
X75391Y-59049D01*
X75609Y-59049D01*
X75811Y-58965D01*
X75965Y-58811D01*
X76000Y-58726D01*
X76035Y-58811D01*
X76189Y-58965D01*
X76391Y-59049D01*
X76609Y-59049D01*
X76811Y-58965D01*
X76965Y-58811D01*
X77000Y-58726D01*
X77035Y-58811D01*
X77189Y-58965D01*
X77391Y-59049D01*
X77609Y-59049D01*
X77811Y-58965D01*
X77965Y-58811D01*
X78000Y-58726D01*
X78035Y-58811D01*
X78189Y-58965D01*
X78391Y-59049D01*
X78609Y-59049D01*
X78811Y-58965D01*
X78965Y-58811D01*
X79000Y-58726D01*
X79035Y-58811D01*
X79189Y-58965D01*
X79391Y-59049D01*
X79609Y-59049D01*
X79811Y-58965D01*
X79965Y-58811D01*
X80000Y-58726D01*
X80035Y-58811D01*
X80189Y-58965D01*
X80391Y-59049D01*
X80609Y-59049D01*
X80811Y-58965D01*
X80965Y-58811D01*
X81000Y-58726D01*
X81035Y-58811D01*
X81189Y-58965D01*
X81391Y-59049D01*
X81609Y-59049D01*
X81811Y-58965D01*
X81965Y-58811D01*
X82000Y-58726D01*
X82035Y-58811D01*
X82189Y-58965D01*
X82391Y-59049D01*
X82609Y-59049D01*
X82811Y-58965D01*
X82965Y-58811D01*
X83000Y-58726D01*
X83035Y-58811D01*
X83189Y-58965D01*
X83391Y-59049D01*
X83609Y-59049D01*
X83811Y-58965D01*
X83965Y-58811D01*
X84000Y-58726D01*
X84035Y-58811D01*
X84189Y-58965D01*
X84391Y-59049D01*
X84609Y-59049D01*
X84811Y-58965D01*
X84965Y-58811D01*
X85000Y-58726D01*
X85035Y-58811D01*
X85189Y-58965D01*
X85391Y-59049D01*
X85609Y-59049D01*
X85811Y-58965D01*
X85965Y-58811D01*
X86000Y-58726D01*
X86035Y-58811D01*
X86189Y-58965D01*
X86391Y-59049D01*
X86609Y-59049D01*
X86811Y-58965D01*
X86965Y-58811D01*
X87000Y-58726D01*
X87035Y-58811D01*
X87189Y-58965D01*
X87391Y-59049D01*
X87609Y-59049D01*
X87811Y-58965D01*
X87965Y-58811D01*
X88000Y-58726D01*
X88035Y-58811D01*
X88189Y-58965D01*
X88391Y-59049D01*
X88609Y-59049D01*
X88811Y-58965D01*
X88965Y-58811D01*
X89000Y-58726D01*
X89035Y-58811D01*
X89189Y-58965D01*
X89391Y-59049D01*
X89609Y-59049D01*
X89811Y-58965D01*
X89965Y-58811D01*
X90000Y-58726D01*
X90035Y-58811D01*
X90189Y-58965D01*
X90391Y-59049D01*
X90609Y-59049D01*
X90811Y-58965D01*
X90965Y-58811D01*
X91000Y-58726D01*
X91035Y-58811D01*
X91189Y-58965D01*
X91391Y-59049D01*
X91609Y-59049D01*
X91811Y-58965D01*
X91965Y-58811D01*
X92000Y-58726D01*
X92035Y-58811D01*
X92189Y-58965D01*
X92391Y-59049D01*
X92609Y-59049D01*
X92811Y-58965D01*
X92965Y-58811D01*
X93000Y-58726D01*
X93035Y-58811D01*
X93189Y-58965D01*
X93391Y-59049D01*
X93609Y-59049D01*
X93811Y-58965D01*
X93965Y-58811D01*
X94000Y-58726D01*
X94035Y-58811D01*
X94189Y-58965D01*
X94391Y-59049D01*
X94609Y-59049D01*
X94811Y-58965D01*
X94965Y-58811D01*
X95000Y-58726D01*
X95035Y-58811D01*
X95189Y-58965D01*
X95391Y-59049D01*
X95609Y-59049D01*
X95811Y-58965D01*
X95965Y-58811D01*
X96002Y-58719D01*
X96028Y-58781D01*
X96122Y-58808D01*
X96429Y-58500D01*
X96122Y-58192D01*
X96028Y-58219D01*
X96004Y-58284D01*
X95965Y-58189D01*
X95811Y-58035D01*
X95726Y-58000D01*
X95811Y-57965D01*
X95965Y-57811D01*
X96000Y-57726D01*
X96035Y-57811D01*
X96189Y-57965D01*
X96280Y-58002D01*
X96219Y-58028D01*
X96192Y-58122D01*
X96500Y-58429D01*
X96808Y-58122D01*
X96781Y-58028D01*
X96715Y-58004D01*
X96811Y-57965D01*
X96965Y-57811D01*
X97049Y-57609D01*
X97049Y-60175D01*
X97043Y-60175D01*
X97043Y-58579D01*
X97032Y-58366D01*
X96972Y-58219D01*
X96878Y-58192D01*
X96571Y-58500D01*
X96878Y-58808D01*
X96972Y-58781D01*
X97043Y-58579D01*
X97043Y-60175D01*
X96808Y-60175D01*
X96808Y-58878D01*
X96500Y-58571D01*
X96192Y-58878D01*
X96219Y-58972D01*
X96421Y-59043D01*
X96634Y-59032D01*
X96781Y-58972D01*
X96808Y-58878D01*
X96808Y-60175D01*
X63330Y-60175D01*
X63050Y-60175D01*
X63050Y-58612D01*
X62988Y-58550D01*
X62550Y-58550D01*
X62550Y-58988D01*
X62612Y-59050D01*
X62751Y-59049D01*
X62850Y-59049D01*
X62941Y-59011D01*
X63011Y-58941D01*
X63049Y-58849D01*
X63050Y-58612D01*
X63050Y-60175D01*
X60825Y-60175D01*
X60825Y-40779D01*
X60927Y-40881D01*
X61142Y-40970D01*
X61374Y-40970D01*
X61589Y-40881D01*
X61658Y-40812D01*
X61658Y-41013D01*
X61762Y-41264D01*
X61954Y-41456D01*
X62204Y-41561D01*
X62476Y-41561D01*
X62727Y-41457D01*
X62919Y-41265D01*
X63024Y-41015D01*
X63024Y-40743D01*
X62920Y-40492D01*
X62728Y-40300D01*
X62478Y-40195D01*
X62206Y-40195D01*
X61955Y-40299D01*
X61842Y-40412D01*
X61842Y-40270D01*
X61753Y-40055D01*
X61589Y-39891D01*
X61374Y-39802D01*
X61142Y-39802D01*
X60927Y-39891D01*
X60825Y-39993D01*
X60825Y-39007D01*
X60927Y-39109D01*
X61142Y-39198D01*
X61374Y-39198D01*
X61589Y-39109D01*
X61753Y-38945D01*
X61842Y-38730D01*
X61842Y-38588D01*
X61954Y-38700D01*
X62204Y-38805D01*
X62476Y-38805D01*
X62727Y-38701D01*
X62919Y-38509D01*
X63024Y-38259D01*
X63024Y-37987D01*
X62920Y-37736D01*
X62728Y-37544D01*
X62478Y-37439D01*
X62206Y-37439D01*
X61955Y-37543D01*
X61763Y-37735D01*
X61658Y-37985D01*
X61658Y-38188D01*
X61589Y-38119D01*
X61374Y-38030D01*
X61142Y-38030D01*
X60927Y-38119D01*
X60825Y-38221D01*
X60825Y-36279D01*
X60927Y-36381D01*
X61142Y-36470D01*
X61374Y-36470D01*
X61589Y-36381D01*
X61658Y-36312D01*
X61658Y-36513D01*
X61762Y-36764D01*
X61954Y-36956D01*
X62204Y-37061D01*
X62476Y-37061D01*
X62727Y-36957D01*
X62919Y-36765D01*
X63024Y-36515D01*
X63024Y-36243D01*
X63024Y-33759D01*
X63024Y-33487D01*
X62920Y-33236D01*
X62728Y-33044D01*
X62478Y-32939D01*
X62206Y-32939D01*
X61955Y-33043D01*
X61763Y-33235D01*
X61658Y-33485D01*
X61658Y-33674D01*
X61607Y-33623D01*
X61572Y-33657D01*
X61559Y-33615D01*
X61345Y-33538D01*
X61118Y-33548D01*
X60957Y-33615D01*
X60926Y-33712D01*
X61223Y-34008D01*
X61258Y-34043D01*
X61329Y-34114D01*
X61364Y-34149D01*
X61660Y-34446D01*
X61757Y-34415D01*
X61834Y-34201D01*
X61828Y-34074D01*
X61954Y-34200D01*
X62204Y-34305D01*
X62476Y-34305D01*
X62727Y-34201D01*
X62919Y-34009D01*
X63024Y-33759D01*
X63024Y-36243D01*
X62920Y-35992D01*
X62728Y-35800D01*
X62478Y-35695D01*
X62206Y-35695D01*
X61955Y-35799D01*
X61842Y-35912D01*
X61842Y-35770D01*
X61753Y-35555D01*
X61590Y-35392D01*
X61590Y-34516D01*
X61258Y-34185D01*
X60926Y-34516D01*
X60957Y-34613D01*
X61171Y-34690D01*
X61398Y-34680D01*
X61559Y-34613D01*
X61590Y-34516D01*
X61590Y-35392D01*
X61589Y-35391D01*
X61374Y-35302D01*
X61142Y-35302D01*
X60927Y-35391D01*
X60825Y-35493D01*
X60825Y-34436D01*
X60856Y-34446D01*
X61187Y-34114D01*
X60856Y-33782D01*
X60825Y-33791D01*
X60825Y-32825D01*
X98175Y-32825D01*
X98175Y-60175D01*
X98175Y-60175D01*
G37*
G54D18*
X98175Y-60175D02*
X98050Y-60175D01*
X98050Y-43112D01*
X98050Y-42888D01*
X98049Y-42651D01*
X98043Y-42636D01*
X98043Y-42079D01*
X98032Y-41866D01*
X97972Y-41719D01*
X97878Y-41692D01*
X97808Y-41762D01*
X97808Y-41622D01*
X97781Y-41528D01*
X97579Y-41457D01*
X97366Y-41468D01*
X97219Y-41528D01*
X97192Y-41622D01*
X97500Y-41929D01*
X97808Y-41622D01*
X97808Y-41762D01*
X97571Y-42000D01*
X97878Y-42308D01*
X97972Y-42281D01*
X98043Y-42079D01*
X98043Y-42636D01*
X98011Y-42559D01*
X97941Y-42489D01*
X97850Y-42451D01*
X97787Y-42451D01*
X97808Y-42378D01*
X97500Y-42071D01*
X97192Y-42378D01*
X97212Y-42451D01*
X97150Y-42451D01*
X97059Y-42489D01*
X96989Y-42559D01*
X96951Y-42651D01*
X96950Y-42674D01*
X96811Y-42535D01*
X96726Y-42500D01*
X96811Y-42465D01*
X96965Y-42311D01*
X97002Y-42219D01*
X97028Y-42281D01*
X97122Y-42308D01*
X97429Y-42000D01*
X97122Y-41692D01*
X97049Y-41712D01*
X97049Y-35609D01*
X97049Y-35391D01*
X96965Y-35189D01*
X96825Y-35049D01*
X96849Y-35049D01*
X96941Y-35011D01*
X97011Y-34941D01*
X97049Y-34850D01*
X97049Y-34751D01*
X97049Y-34151D01*
X97011Y-34059D01*
X96941Y-33989D01*
X96850Y-33951D01*
X96751Y-33951D01*
X96151Y-33951D01*
X96059Y-33989D01*
X95989Y-34059D01*
X95951Y-34150D01*
X95951Y-34175D01*
X95811Y-34035D01*
X95609Y-33951D01*
X95391Y-33951D01*
X95189Y-34035D01*
X95035Y-34189D01*
X95000Y-34273D01*
X94965Y-34189D01*
X94811Y-34035D01*
X94609Y-33951D01*
X94391Y-33951D01*
X94189Y-34035D01*
X94035Y-34189D01*
X94000Y-34273D01*
X93965Y-34189D01*
X93811Y-34035D01*
X93609Y-33951D01*
X93391Y-33951D01*
X93189Y-34035D01*
X93035Y-34189D01*
X93000Y-34273D01*
X92965Y-34189D01*
X92811Y-34035D01*
X92609Y-33951D01*
X92391Y-33951D01*
X92189Y-34035D01*
X92035Y-34189D01*
X92000Y-34273D01*
X91965Y-34189D01*
X91811Y-34035D01*
X91609Y-33951D01*
X91391Y-33951D01*
X91189Y-34035D01*
X91035Y-34189D01*
X91000Y-34273D01*
X90965Y-34189D01*
X90811Y-34035D01*
X90609Y-33951D01*
X90391Y-33951D01*
X90189Y-34035D01*
X90035Y-34189D01*
X90000Y-34273D01*
X89965Y-34189D01*
X89811Y-34035D01*
X89609Y-33951D01*
X89391Y-33951D01*
X89189Y-34035D01*
X89035Y-34189D01*
X89000Y-34273D01*
X88965Y-34189D01*
X88811Y-34035D01*
X88609Y-33951D01*
X88391Y-33951D01*
X88189Y-34035D01*
X88035Y-34189D01*
X88000Y-34273D01*
X87965Y-34189D01*
X87811Y-34035D01*
X87609Y-33951D01*
X87391Y-33951D01*
X87189Y-34035D01*
X87035Y-34189D01*
X87000Y-34273D01*
X86965Y-34189D01*
X86811Y-34035D01*
X86609Y-33951D01*
X86391Y-33951D01*
X86189Y-34035D01*
X86035Y-34189D01*
X86000Y-34273D01*
X85965Y-34189D01*
X85811Y-34035D01*
X85609Y-33951D01*
X85391Y-33951D01*
X85189Y-34035D01*
X85035Y-34189D01*
X85000Y-34273D01*
X84965Y-34189D01*
X84811Y-34035D01*
X84609Y-33951D01*
X84391Y-33951D01*
X84189Y-34035D01*
X84035Y-34189D01*
X84000Y-34273D01*
X83965Y-34189D01*
X83811Y-34035D01*
X83609Y-33951D01*
X83391Y-33951D01*
X83189Y-34035D01*
X83035Y-34189D01*
X83000Y-34273D01*
X82965Y-34189D01*
X82811Y-34035D01*
X82609Y-33951D01*
X82391Y-33951D01*
X82189Y-34035D01*
X82035Y-34189D01*
X82000Y-34273D01*
X81965Y-34189D01*
X81811Y-34035D01*
X81609Y-33951D01*
X81391Y-33951D01*
X81189Y-34035D01*
X81035Y-34189D01*
X81000Y-34273D01*
X80965Y-34189D01*
X80811Y-34035D01*
X80609Y-33951D01*
X80391Y-33951D01*
X80189Y-34035D01*
X80035Y-34189D01*
X80000Y-34273D01*
X79965Y-34189D01*
X79811Y-34035D01*
X79609Y-33951D01*
X79391Y-33951D01*
X79189Y-34035D01*
X79035Y-34189D01*
X79000Y-34273D01*
X78965Y-34189D01*
X78811Y-34035D01*
X78609Y-33951D01*
X78391Y-33951D01*
X78189Y-34035D01*
X78035Y-34189D01*
X78000Y-34273D01*
X77965Y-34189D01*
X77811Y-34035D01*
X77609Y-33951D01*
X77391Y-33951D01*
X77189Y-34035D01*
X77035Y-34189D01*
X77000Y-34273D01*
X76965Y-34189D01*
X76811Y-34035D01*
X76609Y-33951D01*
X76391Y-33951D01*
X76189Y-34035D01*
X76035Y-34189D01*
X76000Y-34273D01*
X75965Y-34189D01*
X75811Y-34035D01*
X75609Y-33951D01*
X75391Y-33951D01*
X75189Y-34035D01*
X75035Y-34189D01*
X75000Y-34273D01*
X74965Y-34189D01*
X74811Y-34035D01*
X74609Y-33951D01*
X74391Y-33951D01*
X74189Y-34035D01*
X74035Y-34189D01*
X74000Y-34273D01*
X73965Y-34189D01*
X73811Y-34035D01*
X73609Y-33951D01*
X73391Y-33951D01*
X73189Y-34035D01*
X73035Y-34189D01*
X73000Y-34273D01*
X72965Y-34189D01*
X72811Y-34035D01*
X72609Y-33951D01*
X72391Y-33951D01*
X72189Y-34035D01*
X72035Y-34189D01*
X72000Y-34273D01*
X71965Y-34189D01*
X71811Y-34035D01*
X71609Y-33951D01*
X71391Y-33951D01*
X71189Y-34035D01*
X71035Y-34189D01*
X71000Y-34273D01*
X70965Y-34189D01*
X70811Y-34035D01*
X70609Y-33951D01*
X70391Y-33951D01*
X70189Y-34035D01*
X70035Y-34189D01*
X70000Y-34273D01*
X69965Y-34189D01*
X69811Y-34035D01*
X69609Y-33951D01*
X69391Y-33951D01*
X69189Y-34035D01*
X69035Y-34189D01*
X69000Y-34273D01*
X68965Y-34189D01*
X68811Y-34035D01*
X68609Y-33951D01*
X68391Y-33951D01*
X68189Y-34035D01*
X68035Y-34189D01*
X68000Y-34273D01*
X67965Y-34189D01*
X67811Y-34035D01*
X67609Y-33951D01*
X67391Y-33951D01*
X67189Y-34035D01*
X67035Y-34189D01*
X67000Y-34273D01*
X66965Y-34189D01*
X66811Y-34035D01*
X66609Y-33951D01*
X66391Y-33951D01*
X66189Y-34035D01*
X66035Y-34189D01*
X66000Y-34273D01*
X65965Y-34189D01*
X65811Y-34035D01*
X65609Y-33951D01*
X65391Y-33951D01*
X65189Y-34035D01*
X65035Y-34189D01*
X64951Y-34391D01*
X64951Y-34609D01*
X65035Y-34811D01*
X65189Y-34965D01*
X65273Y-35000D01*
X65189Y-35035D01*
X65035Y-35189D01*
X64951Y-35391D01*
X64951Y-35609D01*
X65035Y-35811D01*
X65189Y-35965D01*
X65391Y-36049D01*
X65609Y-36049D01*
X65625Y-36042D01*
X65625Y-36074D01*
X65682Y-36212D01*
X65787Y-36317D01*
X65925Y-36375D01*
X66074Y-36375D01*
X66212Y-36318D01*
X66317Y-36213D01*
X66375Y-36075D01*
X66375Y-36042D01*
X66391Y-36049D01*
X66609Y-36049D01*
X66811Y-35965D01*
X66965Y-35811D01*
X67000Y-35726D01*
X67035Y-35811D01*
X67189Y-35965D01*
X67391Y-36049D01*
X67609Y-36049D01*
X67811Y-35965D01*
X67965Y-35811D01*
X68000Y-35726D01*
X68035Y-35811D01*
X68189Y-35965D01*
X68391Y-36049D01*
X68609Y-36049D01*
X68811Y-35965D01*
X68965Y-35811D01*
X69000Y-35726D01*
X69035Y-35811D01*
X69189Y-35965D01*
X69391Y-36049D01*
X69609Y-36049D01*
X69811Y-35965D01*
X69965Y-35811D01*
X70000Y-35726D01*
X70035Y-35811D01*
X70189Y-35965D01*
X70391Y-36049D01*
X70609Y-36049D01*
X70811Y-35965D01*
X70965Y-35811D01*
X71000Y-35726D01*
X71035Y-35811D01*
X71189Y-35965D01*
X71391Y-36049D01*
X71609Y-36049D01*
X71811Y-35965D01*
X71965Y-35811D01*
X72000Y-35726D01*
X72035Y-35811D01*
X72189Y-35965D01*
X72391Y-36049D01*
X72609Y-36049D01*
X72811Y-35965D01*
X72965Y-35811D01*
X73000Y-35726D01*
X73035Y-35811D01*
X73189Y-35965D01*
X73391Y-36049D01*
X73609Y-36049D01*
X73811Y-35965D01*
X73965Y-35811D01*
X74000Y-35726D01*
X74035Y-35811D01*
X74189Y-35965D01*
X74391Y-36049D01*
X74609Y-36049D01*
X74811Y-35965D01*
X74965Y-35811D01*
X75002Y-35719D01*
X75028Y-35781D01*
X75122Y-35808D01*
X75429Y-35500D01*
X75122Y-35192D01*
X75028Y-35219D01*
X75004Y-35284D01*
X74965Y-35189D01*
X74811Y-35035D01*
X74726Y-35000D01*
X74811Y-34965D01*
X74965Y-34811D01*
X75000Y-34726D01*
X75035Y-34811D01*
X75189Y-34965D01*
X75280Y-35002D01*
X75219Y-35028D01*
X75192Y-35122D01*
X75500Y-35429D01*
X75808Y-35122D01*
X75781Y-35028D01*
X75715Y-35004D01*
X75811Y-34965D01*
X75965Y-34811D01*
X76000Y-34726D01*
X76035Y-34811D01*
X76189Y-34965D01*
X76273Y-35000D01*
X76189Y-35035D01*
X76035Y-35189D01*
X75997Y-35280D01*
X75972Y-35219D01*
X75878Y-35192D01*
X75571Y-35500D01*
X75878Y-35808D01*
X75972Y-35781D01*
X75995Y-35715D01*
X76035Y-35811D01*
X76189Y-35965D01*
X76391Y-36049D01*
X76609Y-36049D01*
X76811Y-35965D01*
X76965Y-35811D01*
X77000Y-35726D01*
X77035Y-35811D01*
X77189Y-35965D01*
X77391Y-36049D01*
X77609Y-36049D01*
X77811Y-35965D01*
X77965Y-35811D01*
X78000Y-35726D01*
X78035Y-35811D01*
X78189Y-35965D01*
X78391Y-36049D01*
X78609Y-36049D01*
X78811Y-35965D01*
X78965Y-35811D01*
X79000Y-35726D01*
X79035Y-35811D01*
X79189Y-35965D01*
X79391Y-36049D01*
X79609Y-36049D01*
X79811Y-35965D01*
X79965Y-35811D01*
X80000Y-35726D01*
X80035Y-35811D01*
X80189Y-35965D01*
X80391Y-36049D01*
X80609Y-36049D01*
X80811Y-35965D01*
X80965Y-35811D01*
X81000Y-35726D01*
X81035Y-35811D01*
X81189Y-35965D01*
X81391Y-36049D01*
X81609Y-36049D01*
X81811Y-35965D01*
X81965Y-35811D01*
X82000Y-35726D01*
X82035Y-35811D01*
X82097Y-35873D01*
X82083Y-35887D01*
X82025Y-36025D01*
X82025Y-36174D01*
X82082Y-36312D01*
X82187Y-36417D01*
X82325Y-36475D01*
X82474Y-36475D01*
X82612Y-36418D01*
X82717Y-36313D01*
X82775Y-36175D01*
X82775Y-36026D01*
X82758Y-35986D01*
X82811Y-35965D01*
X82965Y-35811D01*
X83000Y-35726D01*
X83035Y-35811D01*
X83189Y-35965D01*
X83391Y-36049D01*
X83609Y-36049D01*
X83811Y-35965D01*
X83965Y-35811D01*
X84000Y-35726D01*
X84035Y-35811D01*
X84071Y-35847D01*
X83988Y-35882D01*
X83883Y-35987D01*
X83825Y-36125D01*
X83688Y-36182D01*
X83583Y-36287D01*
X83525Y-36425D01*
X83525Y-36574D01*
X83582Y-36712D01*
X83687Y-36817D01*
X83825Y-36875D01*
X83974Y-36875D01*
X84112Y-36818D01*
X84217Y-36713D01*
X84274Y-36575D01*
X84275Y-36575D01*
X84275Y-36574D01*
X84412Y-36518D01*
X84517Y-36413D01*
X84575Y-36275D01*
X84575Y-36126D01*
X84543Y-36049D01*
X84609Y-36049D01*
X84625Y-36042D01*
X84625Y-36174D01*
X84682Y-36312D01*
X84787Y-36417D01*
X84925Y-36475D01*
X85074Y-36475D01*
X85212Y-36418D01*
X85317Y-36313D01*
X85375Y-36175D01*
X85375Y-36042D01*
X85391Y-36049D01*
X85609Y-36049D01*
X85811Y-35965D01*
X85965Y-35811D01*
X86000Y-35726D01*
X86035Y-35811D01*
X86189Y-35965D01*
X86391Y-36049D01*
X86609Y-36049D01*
X86811Y-35965D01*
X86965Y-35811D01*
X87000Y-35726D01*
X87035Y-35811D01*
X87189Y-35965D01*
X87391Y-36049D01*
X87609Y-36049D01*
X87811Y-35965D01*
X87965Y-35811D01*
X88000Y-35726D01*
X88035Y-35811D01*
X88189Y-35965D01*
X88391Y-36049D01*
X88609Y-36049D01*
X88811Y-35965D01*
X88965Y-35811D01*
X89000Y-35726D01*
X89035Y-35811D01*
X89189Y-35965D01*
X89391Y-36049D01*
X89609Y-36049D01*
X89811Y-35965D01*
X89965Y-35811D01*
X90000Y-35726D01*
X90035Y-35811D01*
X90189Y-35965D01*
X90391Y-36049D01*
X90609Y-36049D01*
X90811Y-35965D01*
X90965Y-35811D01*
X91000Y-35726D01*
X91035Y-35811D01*
X91189Y-35965D01*
X91391Y-36049D01*
X91609Y-36049D01*
X91811Y-35965D01*
X91965Y-35811D01*
X92000Y-35726D01*
X92035Y-35811D01*
X92189Y-35965D01*
X92391Y-36049D01*
X92609Y-36049D01*
X92811Y-35965D01*
X92965Y-35811D01*
X93000Y-35726D01*
X93035Y-35811D01*
X93189Y-35965D01*
X93391Y-36049D01*
X93609Y-36049D01*
X93811Y-35965D01*
X93965Y-35811D01*
X94000Y-35726D01*
X94035Y-35811D01*
X94189Y-35965D01*
X94391Y-36049D01*
X94609Y-36049D01*
X94811Y-35965D01*
X94965Y-35811D01*
X95000Y-35726D01*
X95035Y-35811D01*
X95189Y-35965D01*
X95391Y-36049D01*
X95609Y-36049D01*
X95811Y-35965D01*
X95965Y-35811D01*
X96000Y-35726D01*
X96035Y-35811D01*
X96189Y-35965D01*
X96391Y-36049D01*
X96609Y-36049D01*
X96811Y-35965D01*
X96965Y-35811D01*
X97049Y-35609D01*
X97049Y-41712D01*
X97028Y-41719D01*
X97004Y-41784D01*
X96965Y-41689D01*
X96811Y-41535D01*
X96609Y-41451D01*
X96391Y-41451D01*
X96189Y-41535D01*
X96035Y-41689D01*
X95951Y-41891D01*
X95951Y-42109D01*
X96035Y-42311D01*
X96189Y-42465D01*
X96273Y-42500D01*
X96189Y-42535D01*
X96035Y-42689D01*
X95951Y-42891D01*
X95951Y-43109D01*
X96035Y-43311D01*
X96189Y-43465D01*
X96391Y-43549D01*
X96609Y-43549D01*
X96811Y-43465D01*
X96950Y-43325D01*
X96951Y-43349D01*
X96989Y-43441D01*
X97059Y-43511D01*
X97150Y-43549D01*
X97249Y-43549D01*
X97388Y-43550D01*
X97450Y-43488D01*
X97450Y-43100D01*
X97450Y-43050D01*
X97450Y-42950D01*
X97550Y-42950D01*
X97600Y-42950D01*
X97988Y-42950D01*
X98050Y-42888D01*
X98050Y-43112D01*
X97988Y-43050D01*
X97550Y-43050D01*
X97550Y-43488D01*
X97612Y-43550D01*
X97751Y-43549D01*
X97850Y-43549D01*
X97941Y-43511D01*
X98011Y-43441D01*
X98049Y-43349D01*
X98050Y-43112D01*
X98050Y-60175D01*
X97049Y-60175D01*
X97049Y-57609D01*
X97049Y-57391D01*
X96965Y-57189D01*
X96811Y-57035D01*
X96609Y-56951D01*
X96391Y-56951D01*
X96189Y-57035D01*
X96035Y-57189D01*
X96000Y-57273D01*
X95965Y-57189D01*
X95811Y-57035D01*
X95609Y-56951D01*
X95391Y-56951D01*
X95189Y-57035D01*
X95035Y-57189D01*
X95000Y-57273D01*
X94965Y-57189D01*
X94811Y-57035D01*
X94609Y-56951D01*
X94391Y-56951D01*
X94189Y-57035D01*
X94035Y-57189D01*
X94000Y-57273D01*
X93965Y-57189D01*
X93811Y-57035D01*
X93609Y-56951D01*
X93391Y-56951D01*
X93189Y-57035D01*
X93035Y-57189D01*
X93000Y-57273D01*
X92965Y-57189D01*
X92811Y-57035D01*
X92609Y-56951D01*
X92391Y-56951D01*
X92189Y-57035D01*
X92035Y-57189D01*
X92000Y-57273D01*
X91965Y-57189D01*
X91811Y-57035D01*
X91609Y-56951D01*
X91391Y-56951D01*
X91369Y-56959D01*
X88990Y-54580D01*
X88990Y-44200D01*
X88968Y-44089D01*
X88905Y-43995D01*
X88905Y-43994D01*
X86275Y-41364D01*
X86275Y-36775D01*
X86275Y-36626D01*
X86218Y-36488D01*
X86113Y-36383D01*
X85975Y-36325D01*
X85826Y-36325D01*
X85688Y-36382D01*
X85583Y-36487D01*
X85525Y-36625D01*
X85525Y-36774D01*
X85582Y-36912D01*
X85687Y-37017D01*
X85825Y-37075D01*
X85974Y-37075D01*
X86112Y-37018D01*
X86217Y-36913D01*
X86275Y-36775D01*
X86275Y-41364D01*
X84005Y-39095D01*
X83911Y-39032D01*
X83800Y-39010D01*
X83475Y-39010D01*
X83475Y-36575D01*
X83475Y-36426D01*
X83418Y-36288D01*
X83313Y-36183D01*
X83175Y-36125D01*
X83026Y-36125D01*
X82888Y-36182D01*
X82783Y-36287D01*
X82725Y-36425D01*
X82725Y-36574D01*
X82782Y-36712D01*
X82887Y-36817D01*
X83025Y-36875D01*
X83174Y-36875D01*
X83312Y-36818D01*
X83417Y-36713D01*
X83475Y-36575D01*
X83475Y-39010D01*
X80400Y-39010D01*
X80289Y-39032D01*
X80195Y-39095D01*
X79395Y-39895D01*
X79332Y-39989D01*
X79310Y-40100D01*
X79310Y-40300D01*
X79332Y-40411D01*
X79342Y-40427D01*
X79283Y-40487D01*
X79225Y-40625D01*
X79225Y-40666D01*
X79188Y-40682D01*
X79083Y-40787D01*
X79025Y-40925D01*
X79025Y-40966D01*
X78988Y-40982D01*
X78940Y-41029D01*
X78305Y-40395D01*
X78211Y-40332D01*
X78100Y-40310D01*
X77875Y-40310D01*
X77875Y-36975D01*
X77875Y-36826D01*
X77818Y-36688D01*
X77713Y-36583D01*
X77575Y-36525D01*
X77426Y-36525D01*
X77288Y-36582D01*
X77250Y-36620D01*
X77213Y-36583D01*
X77075Y-36525D01*
X76926Y-36525D01*
X76788Y-36582D01*
X76683Y-36687D01*
X76625Y-36825D01*
X76625Y-36974D01*
X76682Y-37112D01*
X76787Y-37217D01*
X76925Y-37275D01*
X77074Y-37275D01*
X77212Y-37218D01*
X77250Y-37180D01*
X77287Y-37217D01*
X77425Y-37275D01*
X77574Y-37275D01*
X77712Y-37218D01*
X77817Y-37113D01*
X77875Y-36975D01*
X77875Y-40310D01*
X77200Y-40310D01*
X77089Y-40332D01*
X76995Y-40395D01*
X76994Y-40395D01*
X76994Y-40396D01*
X76965Y-40425D01*
X76926Y-40425D01*
X76788Y-40482D01*
X76683Y-40587D01*
X76625Y-40725D01*
X76625Y-40874D01*
X76677Y-41000D01*
X76625Y-41125D01*
X76625Y-41274D01*
X76682Y-41412D01*
X76787Y-41517D01*
X76925Y-41575D01*
X77074Y-41575D01*
X77212Y-41518D01*
X77317Y-41413D01*
X77375Y-41275D01*
X77375Y-41235D01*
X77428Y-41182D01*
X77477Y-41300D01*
X77425Y-41425D01*
X77425Y-41574D01*
X77482Y-41712D01*
X77587Y-41817D01*
X77725Y-41875D01*
X77874Y-41875D01*
X78012Y-41818D01*
X78040Y-41790D01*
X78280Y-41790D01*
X78795Y-42305D01*
X78889Y-42368D01*
X79000Y-42390D01*
X80300Y-42390D01*
X80411Y-42368D01*
X80505Y-42305D01*
X80940Y-41870D01*
X80987Y-41917D01*
X81125Y-41975D01*
X81165Y-41975D01*
X81295Y-42105D01*
X81389Y-42168D01*
X81500Y-42190D01*
X83280Y-42190D01*
X84847Y-43757D01*
X84788Y-43782D01*
X84683Y-43887D01*
X84625Y-44025D01*
X84625Y-44174D01*
X84682Y-44312D01*
X84787Y-44417D01*
X84925Y-44475D01*
X84966Y-44475D01*
X84982Y-44512D01*
X85087Y-44617D01*
X85225Y-44675D01*
X85266Y-44675D01*
X85282Y-44712D01*
X85387Y-44817D01*
X85525Y-44875D01*
X85674Y-44875D01*
X85812Y-44818D01*
X85860Y-44770D01*
X85947Y-44857D01*
X85888Y-44882D01*
X85783Y-44987D01*
X85725Y-45125D01*
X85725Y-45166D01*
X85699Y-45177D01*
X85575Y-45125D01*
X85426Y-45125D01*
X85299Y-45177D01*
X85175Y-45125D01*
X85026Y-45125D01*
X84888Y-45182D01*
X84783Y-45287D01*
X84725Y-45425D01*
X84725Y-45524D01*
X84706Y-45528D01*
X84688Y-45532D01*
X84594Y-45595D01*
X84195Y-45995D01*
X84132Y-46089D01*
X84110Y-46200D01*
X84110Y-46680D01*
X83971Y-46818D01*
X83918Y-46688D01*
X83813Y-46583D01*
X83675Y-46525D01*
X83526Y-46525D01*
X83388Y-46582D01*
X83283Y-46687D01*
X83225Y-46825D01*
X83225Y-46974D01*
X83282Y-47112D01*
X83387Y-47217D01*
X83517Y-47272D01*
X83260Y-47530D01*
X83213Y-47483D01*
X83075Y-47425D01*
X82926Y-47425D01*
X82788Y-47482D01*
X82683Y-47587D01*
X82625Y-47725D01*
X82625Y-47874D01*
X82682Y-48012D01*
X82730Y-48060D01*
X81890Y-48900D01*
X81890Y-46500D01*
X81890Y-46100D01*
X81871Y-46006D01*
X81868Y-45989D01*
X81868Y-45988D01*
X81805Y-45895D01*
X81805Y-45894D01*
X81405Y-45495D01*
X81311Y-45432D01*
X81249Y-45419D01*
X81213Y-45383D01*
X81075Y-45325D01*
X81075Y-43175D01*
X81075Y-43026D01*
X81018Y-42888D01*
X80913Y-42783D01*
X80775Y-42725D01*
X80626Y-42725D01*
X80488Y-42782D01*
X80383Y-42887D01*
X80325Y-43025D01*
X80325Y-43174D01*
X80382Y-43312D01*
X80487Y-43417D01*
X80625Y-43475D01*
X80774Y-43475D01*
X80912Y-43418D01*
X81017Y-43313D01*
X81075Y-43175D01*
X81075Y-45325D01*
X80926Y-45325D01*
X80788Y-45382D01*
X80683Y-45487D01*
X80625Y-45625D01*
X80625Y-45646D01*
X80575Y-45625D01*
X80426Y-45625D01*
X80288Y-45682D01*
X80183Y-45787D01*
X80125Y-45925D01*
X79988Y-45982D01*
X79960Y-46010D01*
X79920Y-46010D01*
X77081Y-43171D01*
X77212Y-43118D01*
X77317Y-43013D01*
X77375Y-42875D01*
X77375Y-42726D01*
X77318Y-42588D01*
X77213Y-42483D01*
X77075Y-42425D01*
X76926Y-42425D01*
X76788Y-42482D01*
X76683Y-42587D01*
X76627Y-42717D01*
X75808Y-41898D01*
X75808Y-35878D01*
X75500Y-35571D01*
X75192Y-35878D01*
X75219Y-35972D01*
X75421Y-36043D01*
X75634Y-36032D01*
X75781Y-35972D01*
X75808Y-35878D01*
X75808Y-41898D01*
X75505Y-41595D01*
X75411Y-41532D01*
X75300Y-41510D01*
X74875Y-41510D01*
X74875Y-36675D01*
X74875Y-36526D01*
X74818Y-36388D01*
X74713Y-36283D01*
X74575Y-36225D01*
X74426Y-36225D01*
X74288Y-36282D01*
X74183Y-36387D01*
X74125Y-36525D01*
X74125Y-36674D01*
X74182Y-36812D01*
X74287Y-36917D01*
X74425Y-36975D01*
X74574Y-36975D01*
X74712Y-36918D01*
X74817Y-36813D01*
X74875Y-36675D01*
X74875Y-41510D01*
X73320Y-41510D01*
X72975Y-41165D01*
X72975Y-41126D01*
X72918Y-40988D01*
X72813Y-40883D01*
X72675Y-40825D01*
X72526Y-40825D01*
X72388Y-40882D01*
X72327Y-40942D01*
X72311Y-40932D01*
X72200Y-40910D01*
X71500Y-40910D01*
X71389Y-40932D01*
X71295Y-40995D01*
X71130Y-41159D01*
X71109Y-41151D01*
X70891Y-41151D01*
X70689Y-41235D01*
X70549Y-41375D01*
X70549Y-41351D01*
X70511Y-41259D01*
X70441Y-41189D01*
X70350Y-41151D01*
X70251Y-41151D01*
X69651Y-41151D01*
X69559Y-41189D01*
X69489Y-41259D01*
X69451Y-41350D01*
X69451Y-41449D01*
X69451Y-41838D01*
X68779Y-42510D01*
X67700Y-42510D01*
X67589Y-42532D01*
X67495Y-42595D01*
X67494Y-42595D01*
X67494Y-42596D01*
X67465Y-42625D01*
X67426Y-42625D01*
X67288Y-42682D01*
X67183Y-42787D01*
X67125Y-42925D01*
X67125Y-43074D01*
X67177Y-43200D01*
X67125Y-43325D01*
X67125Y-43474D01*
X67177Y-43600D01*
X67125Y-43725D01*
X67125Y-43874D01*
X67182Y-44012D01*
X67230Y-44060D01*
X64942Y-46347D01*
X64918Y-46288D01*
X64813Y-46183D01*
X64675Y-46125D01*
X64526Y-46125D01*
X64388Y-46182D01*
X64283Y-46287D01*
X64225Y-46425D01*
X64225Y-46574D01*
X64282Y-46712D01*
X64387Y-46817D01*
X64447Y-46842D01*
X63330Y-47960D01*
X63330Y-45700D01*
X63330Y-45033D01*
X63330Y-43967D01*
X63330Y-43300D01*
X62663Y-43300D01*
X62663Y-43967D01*
X63330Y-43967D01*
X63330Y-45033D01*
X62663Y-45033D01*
X62663Y-45700D01*
X63330Y-45700D01*
X63330Y-47960D01*
X62795Y-48495D01*
X62732Y-48589D01*
X62710Y-48700D01*
X62710Y-48993D01*
X62609Y-48951D01*
X62391Y-48951D01*
X62189Y-49035D01*
X62035Y-49189D01*
X62000Y-49273D01*
X61965Y-49189D01*
X61811Y-49035D01*
X61609Y-48951D01*
X61391Y-48951D01*
X61189Y-49035D01*
X61035Y-49189D01*
X60951Y-49391D01*
X60951Y-49609D01*
X61035Y-49811D01*
X61189Y-49965D01*
X61273Y-50000D01*
X61189Y-50035D01*
X61035Y-50189D01*
X60951Y-50391D01*
X60951Y-50609D01*
X61035Y-50811D01*
X61189Y-50965D01*
X61273Y-51000D01*
X61189Y-51035D01*
X61035Y-51189D01*
X60951Y-51391D01*
X60951Y-51609D01*
X61035Y-51811D01*
X61189Y-51965D01*
X61273Y-52000D01*
X61189Y-52035D01*
X61035Y-52189D01*
X60951Y-52391D01*
X60951Y-52609D01*
X61035Y-52811D01*
X61189Y-52965D01*
X61273Y-53000D01*
X61189Y-53035D01*
X61035Y-53189D01*
X60951Y-53391D01*
X60951Y-53609D01*
X61035Y-53811D01*
X61189Y-53965D01*
X61273Y-54000D01*
X61189Y-54035D01*
X61035Y-54189D01*
X60951Y-54391D01*
X60951Y-54609D01*
X61035Y-54811D01*
X61189Y-54965D01*
X61273Y-55000D01*
X61189Y-55035D01*
X61035Y-55189D01*
X60951Y-55391D01*
X60951Y-55609D01*
X61035Y-55811D01*
X61189Y-55965D01*
X61273Y-56000D01*
X61189Y-56035D01*
X61035Y-56189D01*
X60951Y-56391D01*
X60951Y-56609D01*
X61035Y-56811D01*
X61189Y-56965D01*
X61273Y-57000D01*
X61189Y-57035D01*
X61035Y-57189D01*
X60951Y-57391D01*
X60951Y-57609D01*
X61035Y-57811D01*
X61189Y-57965D01*
X61273Y-58000D01*
X61189Y-58035D01*
X61035Y-58189D01*
X60951Y-58391D01*
X60951Y-58609D01*
X61035Y-58811D01*
X61189Y-58965D01*
X61391Y-59049D01*
X61609Y-59049D01*
X61811Y-58965D01*
X61950Y-58825D01*
X61951Y-58849D01*
X61989Y-58941D01*
X62059Y-59011D01*
X62150Y-59049D01*
X62249Y-59049D01*
X62388Y-59050D01*
X62450Y-58988D01*
X62450Y-58600D01*
X62450Y-58550D01*
X62450Y-58450D01*
X62550Y-58450D01*
X62600Y-58450D01*
X62988Y-58450D01*
X63050Y-58388D01*
X63049Y-58151D01*
X63011Y-58059D01*
X62941Y-57989D01*
X62850Y-57951D01*
X62825Y-57951D01*
X62965Y-57811D01*
X63049Y-57609D01*
X63049Y-57391D01*
X62965Y-57189D01*
X62811Y-57035D01*
X62726Y-57000D01*
X62811Y-56965D01*
X62965Y-56811D01*
X63049Y-56609D01*
X63049Y-56391D01*
X62965Y-56189D01*
X62811Y-56035D01*
X62726Y-56000D01*
X62811Y-55965D01*
X62965Y-55811D01*
X63049Y-55609D01*
X63049Y-55391D01*
X63040Y-55369D01*
X63330Y-55080D01*
X63404Y-55006D01*
X63404Y-55005D01*
X63405Y-55005D01*
X63467Y-54912D01*
X63468Y-54911D01*
X63489Y-54801D01*
X63490Y-54800D01*
X63490Y-48920D01*
X68140Y-44270D01*
X68187Y-44317D01*
X68325Y-44375D01*
X68474Y-44375D01*
X68612Y-44318D01*
X68717Y-44213D01*
X68775Y-44075D01*
X68775Y-43926D01*
X68760Y-43890D01*
X70634Y-43890D01*
X70535Y-43989D01*
X70451Y-44191D01*
X70451Y-44409D01*
X70535Y-44611D01*
X70689Y-44765D01*
X70891Y-44849D01*
X71109Y-44849D01*
X71311Y-44765D01*
X71465Y-44611D01*
X71500Y-44526D01*
X71535Y-44611D01*
X71689Y-44765D01*
X71891Y-44849D01*
X72109Y-44849D01*
X72311Y-44765D01*
X72423Y-44653D01*
X72487Y-44717D01*
X72625Y-44775D01*
X72774Y-44775D01*
X72912Y-44718D01*
X73017Y-44613D01*
X73075Y-44475D01*
X73075Y-44326D01*
X73018Y-44188D01*
X72913Y-44083D01*
X72834Y-44050D01*
X72912Y-44018D01*
X73017Y-43913D01*
X73075Y-43775D01*
X73075Y-43626D01*
X73018Y-43488D01*
X72970Y-43440D01*
X73320Y-43090D01*
X73925Y-43090D01*
X73925Y-43174D01*
X73977Y-43300D01*
X73925Y-43425D01*
X73925Y-43574D01*
X73982Y-43712D01*
X74087Y-43817D01*
X74125Y-43832D01*
X74125Y-43874D01*
X74182Y-44012D01*
X74287Y-44117D01*
X74325Y-44132D01*
X74325Y-44174D01*
X74382Y-44312D01*
X74487Y-44417D01*
X74625Y-44475D01*
X74774Y-44475D01*
X74900Y-44422D01*
X75025Y-44475D01*
X75174Y-44475D01*
X75312Y-44418D01*
X75417Y-44313D01*
X75475Y-44175D01*
X75475Y-44026D01*
X75418Y-43888D01*
X75313Y-43783D01*
X75175Y-43725D01*
X75026Y-43725D01*
X74899Y-43777D01*
X74875Y-43767D01*
X74875Y-43726D01*
X74818Y-43588D01*
X74713Y-43483D01*
X74675Y-43467D01*
X74675Y-43426D01*
X74622Y-43299D01*
X74675Y-43175D01*
X74675Y-43090D01*
X74680Y-43090D01*
X79395Y-47805D01*
X79489Y-47868D01*
X79600Y-47890D01*
X80500Y-47890D01*
X80611Y-47868D01*
X80705Y-47805D01*
X81805Y-46706D01*
X81805Y-46705D01*
X81868Y-46611D01*
X81889Y-46500D01*
X81890Y-46500D01*
X81890Y-48900D01*
X80775Y-50015D01*
X80775Y-49375D01*
X80775Y-49226D01*
X80718Y-49088D01*
X80613Y-48983D01*
X80475Y-48925D01*
X80326Y-48925D01*
X80188Y-48982D01*
X80083Y-49087D01*
X80025Y-49225D01*
X80025Y-49374D01*
X80082Y-49512D01*
X80187Y-49617D01*
X80325Y-49675D01*
X80474Y-49675D01*
X80612Y-49618D01*
X80717Y-49513D01*
X80775Y-49375D01*
X80775Y-50015D01*
X78975Y-51815D01*
X78975Y-51475D01*
X78975Y-51326D01*
X78918Y-51188D01*
X78813Y-51083D01*
X78675Y-51025D01*
X78526Y-51025D01*
X78388Y-51082D01*
X78283Y-51187D01*
X78225Y-51325D01*
X78225Y-51366D01*
X78188Y-51382D01*
X78083Y-51487D01*
X78025Y-51625D01*
X78025Y-51774D01*
X78082Y-51912D01*
X78187Y-52017D01*
X78325Y-52075D01*
X78474Y-52075D01*
X78612Y-52018D01*
X78717Y-51913D01*
X78775Y-51775D01*
X78775Y-51733D01*
X78812Y-51718D01*
X78917Y-51613D01*
X78975Y-51475D01*
X78975Y-51815D01*
X78360Y-52430D01*
X78313Y-52383D01*
X78175Y-52325D01*
X78033Y-52325D01*
X78018Y-52288D01*
X77954Y-52224D01*
X77975Y-52175D01*
X77975Y-52026D01*
X77918Y-51888D01*
X77813Y-51783D01*
X77775Y-51767D01*
X77775Y-51726D01*
X77718Y-51588D01*
X77613Y-51483D01*
X77475Y-51425D01*
X77326Y-51425D01*
X77199Y-51477D01*
X77075Y-51425D01*
X76926Y-51425D01*
X76788Y-51482D01*
X76683Y-51587D01*
X76625Y-51725D01*
X76625Y-51874D01*
X76677Y-52000D01*
X76625Y-52125D01*
X76625Y-52274D01*
X76682Y-52412D01*
X76787Y-52517D01*
X76857Y-52546D01*
X76825Y-52625D01*
X76825Y-52774D01*
X76882Y-52912D01*
X76987Y-53017D01*
X77125Y-53075D01*
X77274Y-53075D01*
X77412Y-53018D01*
X77517Y-52913D01*
X77546Y-52842D01*
X77625Y-52875D01*
X77766Y-52875D01*
X77782Y-52912D01*
X77830Y-52960D01*
X75975Y-54815D01*
X75975Y-50975D01*
X75975Y-50826D01*
X75918Y-50688D01*
X75813Y-50583D01*
X75675Y-50525D01*
X75526Y-50525D01*
X75388Y-50582D01*
X75375Y-50594D01*
X75375Y-47175D01*
X75375Y-47026D01*
X75318Y-46888D01*
X75213Y-46783D01*
X75075Y-46725D01*
X75033Y-46725D01*
X75018Y-46688D01*
X74913Y-46583D01*
X74796Y-46533D01*
X74817Y-46513D01*
X74846Y-46442D01*
X74925Y-46475D01*
X75074Y-46475D01*
X75212Y-46418D01*
X75317Y-46313D01*
X75375Y-46175D01*
X75375Y-46026D01*
X75318Y-45888D01*
X75213Y-45783D01*
X75075Y-45725D01*
X74926Y-45725D01*
X74788Y-45782D01*
X74683Y-45887D01*
X74653Y-45957D01*
X74575Y-45925D01*
X74426Y-45925D01*
X74288Y-45982D01*
X74183Y-46087D01*
X74125Y-46225D01*
X74125Y-46374D01*
X74145Y-46424D01*
X74083Y-46487D01*
X74025Y-46625D01*
X74025Y-46774D01*
X74082Y-46912D01*
X74187Y-47017D01*
X74325Y-47075D01*
X74366Y-47075D01*
X74382Y-47112D01*
X74487Y-47217D01*
X74625Y-47275D01*
X74666Y-47275D01*
X74682Y-47312D01*
X74787Y-47417D01*
X74925Y-47475D01*
X75074Y-47475D01*
X75212Y-47418D01*
X75317Y-47313D01*
X75375Y-47175D01*
X75375Y-50594D01*
X75336Y-50633D01*
X75318Y-50588D01*
X75254Y-50524D01*
X75275Y-50475D01*
X75275Y-50326D01*
X75218Y-50188D01*
X75125Y-50095D01*
X75125Y-48475D01*
X75125Y-48326D01*
X75083Y-48224D01*
X75125Y-48125D01*
X75125Y-47976D01*
X75068Y-47838D01*
X74963Y-47733D01*
X74825Y-47675D01*
X74676Y-47675D01*
X74538Y-47732D01*
X74433Y-47837D01*
X74375Y-47975D01*
X74375Y-48124D01*
X74375Y-48125D01*
X74326Y-48125D01*
X74188Y-48182D01*
X74083Y-48287D01*
X74025Y-48425D01*
X74025Y-48574D01*
X74077Y-48700D01*
X74025Y-48825D01*
X74025Y-48974D01*
X74082Y-49112D01*
X74187Y-49217D01*
X74325Y-49275D01*
X74474Y-49275D01*
X74612Y-49218D01*
X74717Y-49113D01*
X74775Y-48975D01*
X74775Y-48826D01*
X74753Y-48775D01*
X74824Y-48775D01*
X74962Y-48718D01*
X75067Y-48613D01*
X75125Y-48475D01*
X75125Y-50095D01*
X75113Y-50083D01*
X74975Y-50025D01*
X74826Y-50025D01*
X74688Y-50082D01*
X74583Y-50187D01*
X74525Y-50325D01*
X74525Y-50474D01*
X74582Y-50612D01*
X74645Y-50675D01*
X74625Y-50725D01*
X74625Y-50874D01*
X74682Y-51012D01*
X74787Y-51117D01*
X74925Y-51175D01*
X74982Y-51312D01*
X75087Y-51417D01*
X75225Y-51475D01*
X75374Y-51475D01*
X75512Y-51418D01*
X75617Y-51313D01*
X75632Y-51275D01*
X75674Y-51275D01*
X75812Y-51218D01*
X75917Y-51113D01*
X75975Y-50975D01*
X75975Y-54815D01*
X75380Y-55410D01*
X72975Y-55410D01*
X72975Y-49675D01*
X72975Y-49526D01*
X72918Y-49388D01*
X72813Y-49283D01*
X72675Y-49225D01*
X72526Y-49225D01*
X72388Y-49282D01*
X72283Y-49387D01*
X72275Y-49406D01*
X72275Y-48275D01*
X72275Y-48126D01*
X72218Y-47988D01*
X72113Y-47883D01*
X71975Y-47825D01*
X72049Y-47648D01*
X72049Y-47430D01*
X71965Y-47228D01*
X71811Y-47074D01*
X71609Y-46990D01*
X71391Y-46990D01*
X71189Y-47074D01*
X71035Y-47228D01*
X70951Y-47430D01*
X70951Y-47648D01*
X71035Y-47850D01*
X71189Y-48004D01*
X71391Y-48088D01*
X71540Y-48088D01*
X71525Y-48125D01*
X71525Y-48274D01*
X71582Y-48412D01*
X71687Y-48517D01*
X71825Y-48575D01*
X71974Y-48575D01*
X72112Y-48518D01*
X72217Y-48413D01*
X72275Y-48275D01*
X72275Y-49406D01*
X72225Y-49525D01*
X72225Y-49674D01*
X72282Y-49812D01*
X72387Y-49917D01*
X72525Y-49975D01*
X72674Y-49975D01*
X72812Y-49918D01*
X72917Y-49813D01*
X72975Y-49675D01*
X72975Y-55410D01*
X72600Y-55410D01*
X72489Y-55432D01*
X72457Y-55453D01*
X72394Y-55495D01*
X72049Y-55839D01*
X72049Y-49570D01*
X72049Y-49352D01*
X71965Y-49150D01*
X71811Y-48996D01*
X71609Y-48912D01*
X71391Y-48912D01*
X71189Y-48996D01*
X71035Y-49150D01*
X70951Y-49352D01*
X70951Y-49570D01*
X71035Y-49772D01*
X71189Y-49926D01*
X71391Y-50010D01*
X71609Y-50010D01*
X71811Y-49926D01*
X71965Y-49772D01*
X72049Y-49570D01*
X72049Y-55839D01*
X71775Y-56113D01*
X71775Y-51175D01*
X71775Y-51026D01*
X71718Y-50888D01*
X71613Y-50783D01*
X71475Y-50725D01*
X71326Y-50725D01*
X71188Y-50782D01*
X71083Y-50887D01*
X71025Y-51025D01*
X71025Y-51174D01*
X71082Y-51312D01*
X71187Y-51417D01*
X71325Y-51475D01*
X71474Y-51475D01*
X71612Y-51418D01*
X71717Y-51313D01*
X71775Y-51175D01*
X71775Y-56113D01*
X70832Y-57056D01*
X70811Y-57035D01*
X70609Y-56951D01*
X70391Y-56951D01*
X70189Y-57035D01*
X70035Y-57189D01*
X70000Y-57273D01*
X69965Y-57189D01*
X69811Y-57035D01*
X69609Y-56951D01*
X69391Y-56951D01*
X69189Y-57035D01*
X69035Y-57189D01*
X69000Y-57273D01*
X68965Y-57189D01*
X68811Y-57035D01*
X68775Y-57020D01*
X68775Y-51075D01*
X68775Y-50926D01*
X68718Y-50788D01*
X68613Y-50683D01*
X68475Y-50625D01*
X68326Y-50625D01*
X68188Y-50682D01*
X68083Y-50787D01*
X68025Y-50925D01*
X68025Y-51074D01*
X68082Y-51212D01*
X68187Y-51317D01*
X68325Y-51375D01*
X68474Y-51375D01*
X68612Y-51318D01*
X68717Y-51213D01*
X68775Y-51075D01*
X68775Y-57020D01*
X68609Y-56951D01*
X68391Y-56951D01*
X68189Y-57035D01*
X68035Y-57189D01*
X68000Y-57273D01*
X67965Y-57189D01*
X67811Y-57035D01*
X67609Y-56951D01*
X67391Y-56951D01*
X67189Y-57035D01*
X67035Y-57189D01*
X67000Y-57273D01*
X66965Y-57189D01*
X66811Y-57035D01*
X66609Y-56951D01*
X66391Y-56951D01*
X66189Y-57035D01*
X66035Y-57189D01*
X66000Y-57273D01*
X65965Y-57189D01*
X65811Y-57035D01*
X65609Y-56951D01*
X65391Y-56951D01*
X65189Y-57035D01*
X65035Y-57189D01*
X64951Y-57391D01*
X64951Y-57609D01*
X65035Y-57811D01*
X65175Y-57951D01*
X65151Y-57951D01*
X65059Y-57989D01*
X64989Y-58059D01*
X64951Y-58150D01*
X64951Y-58249D01*
X64951Y-58849D01*
X64989Y-58941D01*
X65059Y-59011D01*
X65150Y-59049D01*
X65249Y-59049D01*
X65849Y-59049D01*
X65941Y-59011D01*
X66011Y-58941D01*
X66049Y-58850D01*
X66049Y-58825D01*
X66189Y-58965D01*
X66391Y-59049D01*
X66609Y-59049D01*
X66811Y-58965D01*
X66965Y-58811D01*
X67000Y-58726D01*
X67035Y-58811D01*
X67189Y-58965D01*
X67391Y-59049D01*
X67609Y-59049D01*
X67811Y-58965D01*
X67965Y-58811D01*
X68000Y-58726D01*
X68035Y-58811D01*
X68189Y-58965D01*
X68391Y-59049D01*
X68609Y-59049D01*
X68811Y-58965D01*
X68965Y-58811D01*
X69000Y-58726D01*
X69035Y-58811D01*
X69189Y-58965D01*
X69391Y-59049D01*
X69609Y-59049D01*
X69811Y-58965D01*
X69965Y-58811D01*
X70000Y-58726D01*
X70035Y-58811D01*
X70189Y-58965D01*
X70391Y-59049D01*
X70609Y-59049D01*
X70811Y-58965D01*
X70965Y-58811D01*
X71000Y-58726D01*
X71035Y-58811D01*
X71189Y-58965D01*
X71391Y-59049D01*
X71609Y-59049D01*
X71811Y-58965D01*
X71965Y-58811D01*
X72000Y-58726D01*
X72035Y-58811D01*
X72189Y-58965D01*
X72391Y-59049D01*
X72609Y-59049D01*
X72811Y-58965D01*
X72965Y-58811D01*
X73000Y-58726D01*
X73035Y-58811D01*
X73189Y-58965D01*
X73391Y-59049D01*
X73609Y-59049D01*
X73811Y-58965D01*
X73965Y-58811D01*
X74000Y-58726D01*
X74035Y-58811D01*
X74189Y-58965D01*
X74391Y-59049D01*
X74609Y-59049D01*
X74811Y-58965D01*
X74965Y-58811D01*
X75000Y-58726D01*
X75035Y-58811D01*
X75189Y-58965D01*
X75391Y-59049D01*
X75609Y-59049D01*
X75811Y-58965D01*
X75965Y-58811D01*
X76000Y-58726D01*
X76035Y-58811D01*
X76189Y-58965D01*
X76391Y-59049D01*
X76609Y-59049D01*
X76811Y-58965D01*
X76965Y-58811D01*
X77000Y-58726D01*
X77035Y-58811D01*
X77189Y-58965D01*
X77391Y-59049D01*
X77609Y-59049D01*
X77811Y-58965D01*
X77965Y-58811D01*
X78000Y-58726D01*
X78035Y-58811D01*
X78189Y-58965D01*
X78391Y-59049D01*
X78609Y-59049D01*
X78811Y-58965D01*
X78965Y-58811D01*
X79000Y-58726D01*
X79035Y-58811D01*
X79189Y-58965D01*
X79391Y-59049D01*
X79609Y-59049D01*
X79811Y-58965D01*
X79965Y-58811D01*
X80000Y-58726D01*
X80035Y-58811D01*
X80189Y-58965D01*
X80391Y-59049D01*
X80609Y-59049D01*
X80811Y-58965D01*
X80965Y-58811D01*
X81000Y-58726D01*
X81035Y-58811D01*
X81189Y-58965D01*
X81391Y-59049D01*
X81609Y-59049D01*
X81811Y-58965D01*
X81965Y-58811D01*
X82000Y-58726D01*
X82035Y-58811D01*
X82189Y-58965D01*
X82391Y-59049D01*
X82609Y-59049D01*
X82811Y-58965D01*
X82965Y-58811D01*
X83000Y-58726D01*
X83035Y-58811D01*
X83189Y-58965D01*
X83391Y-59049D01*
X83609Y-59049D01*
X83811Y-58965D01*
X83965Y-58811D01*
X84000Y-58726D01*
X84035Y-58811D01*
X84189Y-58965D01*
X84391Y-59049D01*
X84609Y-59049D01*
X84811Y-58965D01*
X84965Y-58811D01*
X85000Y-58726D01*
X85035Y-58811D01*
X85189Y-58965D01*
X85391Y-59049D01*
X85609Y-59049D01*
X85811Y-58965D01*
X85965Y-58811D01*
X86000Y-58726D01*
X86035Y-58811D01*
X86189Y-58965D01*
X86391Y-59049D01*
X86609Y-59049D01*
X86811Y-58965D01*
X86965Y-58811D01*
X87000Y-58726D01*
X87035Y-58811D01*
X87189Y-58965D01*
X87391Y-59049D01*
X87609Y-59049D01*
X87811Y-58965D01*
X87965Y-58811D01*
X88000Y-58726D01*
X88035Y-58811D01*
X88189Y-58965D01*
X88391Y-59049D01*
X88609Y-59049D01*
X88811Y-58965D01*
X88965Y-58811D01*
X89000Y-58726D01*
X89035Y-58811D01*
X89189Y-58965D01*
X89391Y-59049D01*
X89609Y-59049D01*
X89811Y-58965D01*
X89965Y-58811D01*
X90000Y-58726D01*
X90035Y-58811D01*
X90189Y-58965D01*
X90391Y-59049D01*
X90609Y-59049D01*
X90811Y-58965D01*
X90965Y-58811D01*
X91000Y-58726D01*
X91035Y-58811D01*
X91189Y-58965D01*
X91391Y-59049D01*
X91609Y-59049D01*
X91811Y-58965D01*
X91965Y-58811D01*
X92000Y-58726D01*
X92035Y-58811D01*
X92189Y-58965D01*
X92391Y-59049D01*
X92609Y-59049D01*
X92811Y-58965D01*
X92965Y-58811D01*
X93000Y-58726D01*
X93035Y-58811D01*
X93189Y-58965D01*
X93391Y-59049D01*
X93609Y-59049D01*
X93811Y-58965D01*
X93965Y-58811D01*
X94000Y-58726D01*
X94035Y-58811D01*
X94189Y-58965D01*
X94391Y-59049D01*
X94609Y-59049D01*
X94811Y-58965D01*
X94965Y-58811D01*
X95000Y-58726D01*
X95035Y-58811D01*
X95189Y-58965D01*
X95391Y-59049D01*
X95609Y-59049D01*
X95811Y-58965D01*
X95965Y-58811D01*
X96002Y-58719D01*
X96028Y-58781D01*
X96122Y-58808D01*
X96429Y-58500D01*
X96122Y-58192D01*
X96028Y-58219D01*
X96004Y-58284D01*
X95965Y-58189D01*
X95811Y-58035D01*
X95726Y-58000D01*
X95811Y-57965D01*
X95965Y-57811D01*
X96000Y-57726D01*
X96035Y-57811D01*
X96189Y-57965D01*
X96280Y-58002D01*
X96219Y-58028D01*
X96192Y-58122D01*
X96500Y-58429D01*
X96808Y-58122D01*
X96781Y-58028D01*
X96715Y-58004D01*
X96811Y-57965D01*
X96965Y-57811D01*
X97049Y-57609D01*
X97049Y-60175D01*
X97043Y-60175D01*
X97043Y-58579D01*
X97032Y-58366D01*
X96972Y-58219D01*
X96878Y-58192D01*
X96571Y-58500D01*
X96878Y-58808D01*
X96972Y-58781D01*
X97043Y-58579D01*
X97043Y-60175D01*
X96808Y-60175D01*
X96808Y-58878D01*
X96500Y-58571D01*
X96192Y-58878D01*
X96219Y-58972D01*
X96421Y-59043D01*
X96634Y-59032D01*
X96781Y-58972D01*
X96808Y-58878D01*
X96808Y-60175D01*
X63330Y-60175D01*
X63050Y-60175D01*
X63050Y-58612D01*
X62988Y-58550D01*
X62550Y-58550D01*
X62550Y-58988D01*
X62612Y-59050D01*
X62751Y-59049D01*
X62850Y-59049D01*
X62941Y-59011D01*
X63011Y-58941D01*
X63049Y-58849D01*
X63050Y-58612D01*
X63050Y-60175D01*
X60825Y-60175D01*
X60825Y-40779D01*
X60927Y-40881D01*
X61142Y-40970D01*
X61374Y-40970D01*
X61589Y-40881D01*
X61658Y-40812D01*
X61658Y-41013D01*
X61762Y-41264D01*
X61954Y-41456D01*
X62204Y-41561D01*
X62476Y-41561D01*
X62727Y-41457D01*
X62919Y-41265D01*
X63024Y-41015D01*
X63024Y-40743D01*
X62920Y-40492D01*
X62728Y-40300D01*
X62478Y-40195D01*
X62206Y-40195D01*
X61955Y-40299D01*
X61842Y-40412D01*
X61842Y-40270D01*
X61753Y-40055D01*
X61589Y-39891D01*
X61374Y-39802D01*
X61142Y-39802D01*
X60927Y-39891D01*
X60825Y-39993D01*
X60825Y-39007D01*
X60927Y-39109D01*
X61142Y-39198D01*
X61374Y-39198D01*
X61589Y-39109D01*
X61753Y-38945D01*
X61842Y-38730D01*
X61842Y-38588D01*
X61954Y-38700D01*
X62204Y-38805D01*
X62476Y-38805D01*
X62727Y-38701D01*
X62919Y-38509D01*
X63024Y-38259D01*
X63024Y-37987D01*
X62920Y-37736D01*
X62728Y-37544D01*
X62478Y-37439D01*
X62206Y-37439D01*
X61955Y-37543D01*
X61763Y-37735D01*
X61658Y-37985D01*
X61658Y-38188D01*
X61589Y-38119D01*
X61374Y-38030D01*
X61142Y-38030D01*
X60927Y-38119D01*
X60825Y-38221D01*
X60825Y-36279D01*
X60927Y-36381D01*
X61142Y-36470D01*
X61374Y-36470D01*
X61589Y-36381D01*
X61658Y-36312D01*
X61658Y-36513D01*
X61762Y-36764D01*
X61954Y-36956D01*
X62204Y-37061D01*
X62476Y-37061D01*
X62727Y-36957D01*
X62919Y-36765D01*
X63024Y-36515D01*
X63024Y-36243D01*
X63024Y-33759D01*
X63024Y-33487D01*
X62920Y-33236D01*
X62728Y-33044D01*
X62478Y-32939D01*
X62206Y-32939D01*
X61955Y-33043D01*
X61763Y-33235D01*
X61658Y-33485D01*
X61658Y-33674D01*
X61607Y-33623D01*
X61572Y-33657D01*
X61559Y-33615D01*
X61345Y-33538D01*
X61118Y-33548D01*
X60957Y-33615D01*
X60926Y-33712D01*
X61223Y-34008D01*
X61258Y-34043D01*
X61329Y-34114D01*
X61364Y-34149D01*
X61660Y-34446D01*
X61757Y-34415D01*
X61834Y-34201D01*
X61828Y-34074D01*
X61954Y-34200D01*
X62204Y-34305D01*
X62476Y-34305D01*
X62727Y-34201D01*
X62919Y-34009D01*
X63024Y-33759D01*
X63024Y-36243D01*
X62920Y-35992D01*
X62728Y-35800D01*
X62478Y-35695D01*
X62206Y-35695D01*
X61955Y-35799D01*
X61842Y-35912D01*
X61842Y-35770D01*
X61753Y-35555D01*
X61590Y-35392D01*
X61590Y-34516D01*
X61258Y-34185D01*
X60926Y-34516D01*
X60957Y-34613D01*
X61171Y-34690D01*
X61398Y-34680D01*
X61559Y-34613D01*
X61590Y-34516D01*
X61590Y-35392D01*
X61589Y-35391D01*
X61374Y-35302D01*
X61142Y-35302D01*
X60927Y-35391D01*
X60825Y-35493D01*
X60825Y-34436D01*
X60856Y-34446D01*
X61187Y-34114D01*
X60856Y-33782D01*
X60825Y-33791D01*
X60825Y-32825D01*
X98175Y-32825D01*
X98175Y-60175D01*
M02*
