G04 (created by PCBNEW-RS274X (2012-01-19 BZR 3256)-stable) date 16/09/2012 01:08:52*
G01*
G70*
G90*
%MOIN*%
G04 Gerber Fmt 3.4, Leading zero omitted, Abs format*
%FSLAX34Y34*%
G04 APERTURE LIST*
%ADD10C,0.006000*%
%ADD11C,0.010000*%
%ADD12C,0.015000*%
%ADD13C,0.012000*%
%ADD14C,0.008000*%
%ADD15C,0.005000*%
%ADD16C,0.000100*%
G04 APERTURE END LIST*
G54D10*
G54D11*
X95702Y-55564D02*
X95202Y-55564D01*
X95702Y-55335D01*
X95202Y-55335D01*
X95655Y-54916D02*
X95679Y-54935D01*
X95702Y-54992D01*
X95702Y-55030D01*
X95679Y-55088D01*
X95631Y-55126D01*
X95583Y-55145D01*
X95488Y-55164D01*
X95417Y-55164D01*
X95321Y-55145D01*
X95274Y-55126D01*
X95226Y-55088D01*
X95202Y-55030D01*
X95202Y-54992D01*
X95226Y-54935D01*
X95250Y-54916D01*
X95702Y-54064D02*
X95202Y-54064D01*
X95702Y-53835D01*
X95202Y-53835D01*
X95655Y-53416D02*
X95679Y-53435D01*
X95702Y-53492D01*
X95702Y-53530D01*
X95679Y-53588D01*
X95631Y-53626D01*
X95583Y-53645D01*
X95488Y-53664D01*
X95417Y-53664D01*
X95321Y-53645D01*
X95274Y-53626D01*
X95226Y-53588D01*
X95202Y-53530D01*
X95202Y-53492D01*
X95226Y-53435D01*
X95250Y-53416D01*
X94702Y-55564D02*
X94202Y-55564D01*
X94702Y-55335D01*
X94202Y-55335D01*
X94655Y-54916D02*
X94679Y-54935D01*
X94702Y-54992D01*
X94702Y-55030D01*
X94679Y-55088D01*
X94631Y-55126D01*
X94583Y-55145D01*
X94488Y-55164D01*
X94417Y-55164D01*
X94321Y-55145D01*
X94274Y-55126D01*
X94226Y-55088D01*
X94202Y-55030D01*
X94202Y-54992D01*
X94226Y-54935D01*
X94250Y-54916D01*
X94702Y-54064D02*
X94202Y-54064D01*
X94702Y-53835D01*
X94202Y-53835D01*
X94655Y-53416D02*
X94679Y-53435D01*
X94702Y-53492D01*
X94702Y-53530D01*
X94679Y-53588D01*
X94631Y-53626D01*
X94583Y-53645D01*
X94488Y-53664D01*
X94417Y-53664D01*
X94321Y-53645D01*
X94274Y-53626D01*
X94226Y-53588D01*
X94202Y-53530D01*
X94202Y-53492D01*
X94226Y-53435D01*
X94250Y-53416D01*
X92655Y-54007D02*
X92679Y-54026D01*
X92702Y-54083D01*
X92702Y-54121D01*
X92679Y-54179D01*
X92631Y-54217D01*
X92583Y-54236D01*
X92488Y-54255D01*
X92417Y-54255D01*
X92321Y-54236D01*
X92274Y-54217D01*
X92226Y-54179D01*
X92202Y-54121D01*
X92202Y-54083D01*
X92226Y-54026D01*
X92250Y-54007D01*
X92679Y-53855D02*
X92702Y-53798D01*
X92702Y-53702D01*
X92679Y-53664D01*
X92655Y-53645D01*
X92607Y-53626D01*
X92560Y-53626D01*
X92512Y-53645D01*
X92488Y-53664D01*
X92464Y-53702D01*
X92440Y-53779D01*
X92417Y-53817D01*
X92393Y-53836D01*
X92345Y-53855D01*
X92298Y-53855D01*
X92250Y-53836D01*
X92226Y-53817D01*
X92202Y-53779D01*
X92202Y-53683D01*
X92226Y-53626D01*
X92202Y-53264D02*
X92202Y-53455D01*
X92440Y-53474D01*
X92417Y-53455D01*
X92393Y-53417D01*
X92393Y-53321D01*
X92417Y-53283D01*
X92440Y-53264D01*
X92488Y-53245D01*
X92607Y-53245D01*
X92655Y-53264D01*
X92679Y-53283D01*
X92702Y-53321D01*
X92702Y-53417D01*
X92679Y-53455D01*
X92655Y-53474D01*
X92655Y-55507D02*
X92679Y-55526D01*
X92702Y-55583D01*
X92702Y-55621D01*
X92679Y-55679D01*
X92631Y-55717D01*
X92583Y-55736D01*
X92488Y-55755D01*
X92417Y-55755D01*
X92321Y-55736D01*
X92274Y-55717D01*
X92226Y-55679D01*
X92202Y-55621D01*
X92202Y-55583D01*
X92226Y-55526D01*
X92250Y-55507D01*
X92679Y-55355D02*
X92702Y-55298D01*
X92702Y-55202D01*
X92679Y-55164D01*
X92655Y-55145D01*
X92607Y-55126D01*
X92560Y-55126D01*
X92512Y-55145D01*
X92488Y-55164D01*
X92464Y-55202D01*
X92440Y-55279D01*
X92417Y-55317D01*
X92393Y-55336D01*
X92345Y-55355D01*
X92298Y-55355D01*
X92250Y-55336D01*
X92226Y-55317D01*
X92202Y-55279D01*
X92202Y-55183D01*
X92226Y-55126D01*
X92369Y-54783D02*
X92702Y-54783D01*
X92179Y-54879D02*
X92536Y-54974D01*
X92536Y-54726D01*
G54D12*
X89500Y-40000D02*
X89500Y-38500D01*
X88500Y-40000D02*
X88500Y-38500D01*
X88500Y-38500D02*
X88500Y-37000D01*
X87500Y-38500D02*
X87500Y-37000D01*
X97000Y-56000D02*
X65000Y-56000D01*
X65000Y-54500D02*
X97000Y-54500D01*
X97000Y-53000D02*
X65000Y-53000D01*
X87250Y-40250D02*
X91750Y-40250D01*
G54D11*
X87298Y-38936D02*
X87798Y-38936D01*
X87298Y-39165D01*
X87798Y-39165D01*
X87345Y-39584D02*
X87321Y-39565D01*
X87298Y-39508D01*
X87298Y-39470D01*
X87321Y-39412D01*
X87369Y-39374D01*
X87417Y-39355D01*
X87512Y-39336D01*
X87583Y-39336D01*
X87679Y-39355D01*
X87726Y-39374D01*
X87774Y-39412D01*
X87798Y-39470D01*
X87798Y-39508D01*
X87774Y-39565D01*
X87750Y-39584D01*
X87345Y-37674D02*
X87321Y-37655D01*
X87298Y-37598D01*
X87298Y-37560D01*
X87321Y-37502D01*
X87369Y-37464D01*
X87417Y-37445D01*
X87512Y-37426D01*
X87583Y-37426D01*
X87679Y-37445D01*
X87726Y-37464D01*
X87774Y-37502D01*
X87798Y-37560D01*
X87798Y-37598D01*
X87774Y-37655D01*
X87750Y-37674D01*
X87298Y-37845D02*
X87798Y-37845D01*
X87798Y-37940D01*
X87774Y-37998D01*
X87726Y-38036D01*
X87679Y-38055D01*
X87583Y-38074D01*
X87512Y-38074D01*
X87417Y-38055D01*
X87369Y-38036D01*
X87321Y-37998D01*
X87298Y-37940D01*
X87298Y-37845D01*
X88298Y-39279D02*
X88536Y-39145D01*
X88298Y-39050D02*
X88798Y-39050D01*
X88798Y-39203D01*
X88774Y-39241D01*
X88750Y-39260D01*
X88702Y-39279D01*
X88631Y-39279D01*
X88583Y-39260D01*
X88560Y-39241D01*
X88536Y-39203D01*
X88536Y-39050D01*
X88298Y-39450D02*
X88798Y-39450D01*
X88298Y-37255D02*
X88798Y-37255D01*
X88798Y-37350D01*
X88774Y-37408D01*
X88726Y-37446D01*
X88679Y-37465D01*
X88583Y-37484D01*
X88512Y-37484D01*
X88417Y-37465D01*
X88369Y-37446D01*
X88321Y-37408D01*
X88298Y-37350D01*
X88298Y-37255D01*
X88321Y-37636D02*
X88298Y-37693D01*
X88298Y-37789D01*
X88321Y-37827D01*
X88345Y-37846D01*
X88393Y-37865D01*
X88440Y-37865D01*
X88488Y-37846D01*
X88512Y-37827D01*
X88536Y-37789D01*
X88560Y-37712D01*
X88583Y-37674D01*
X88607Y-37655D01*
X88655Y-37636D01*
X88702Y-37636D01*
X88750Y-37655D01*
X88774Y-37674D01*
X88798Y-37712D01*
X88798Y-37808D01*
X88774Y-37865D01*
X88298Y-38265D02*
X88536Y-38131D01*
X88298Y-38036D02*
X88798Y-38036D01*
X88798Y-38189D01*
X88774Y-38227D01*
X88750Y-38246D01*
X88702Y-38265D01*
X88631Y-38265D01*
X88583Y-38246D01*
X88560Y-38227D01*
X88536Y-38189D01*
X88536Y-38036D01*
G54D12*
X65000Y-38500D02*
X97000Y-38500D01*
X97000Y-37000D02*
X65000Y-37000D01*
X97000Y-40000D02*
X97000Y-37000D01*
X65000Y-40000D02*
X97000Y-40000D01*
G54D11*
X71688Y-40952D02*
X71688Y-40452D01*
X71841Y-40452D01*
X71879Y-40476D01*
X71898Y-40500D01*
X71917Y-40548D01*
X71917Y-40619D01*
X71898Y-40667D01*
X71879Y-40690D01*
X71841Y-40714D01*
X71688Y-40714D01*
X72050Y-40452D02*
X72145Y-40952D01*
X72222Y-40595D01*
X72298Y-40952D01*
X72393Y-40452D01*
X72545Y-40952D02*
X72545Y-40452D01*
X72679Y-40810D01*
X72812Y-40452D01*
X72812Y-40952D01*
X69867Y-40740D02*
X69733Y-40740D01*
X69733Y-41002D02*
X69733Y-40502D01*
X69924Y-40502D01*
X70057Y-40979D02*
X70114Y-41002D01*
X70210Y-41002D01*
X70248Y-40979D01*
X70267Y-40955D01*
X70286Y-40907D01*
X70286Y-40860D01*
X70267Y-40812D01*
X70248Y-40788D01*
X70210Y-40764D01*
X70133Y-40740D01*
X70095Y-40717D01*
X70076Y-40693D01*
X70057Y-40645D01*
X70057Y-40598D01*
X70076Y-40550D01*
X70095Y-40526D01*
X70133Y-40502D01*
X70229Y-40502D01*
X70286Y-40526D01*
X67243Y-42402D02*
X67243Y-42807D01*
X67262Y-42855D01*
X67281Y-42879D01*
X67319Y-42902D01*
X67396Y-42902D01*
X67434Y-42879D01*
X67453Y-42855D01*
X67472Y-42807D01*
X67472Y-42402D01*
X67643Y-42879D02*
X67700Y-42902D01*
X67796Y-42902D01*
X67834Y-42879D01*
X67853Y-42855D01*
X67872Y-42807D01*
X67872Y-42760D01*
X67853Y-42712D01*
X67834Y-42688D01*
X67796Y-42664D01*
X67719Y-42640D01*
X67681Y-42617D01*
X67662Y-42593D01*
X67643Y-42545D01*
X67643Y-42498D01*
X67662Y-42450D01*
X67681Y-42426D01*
X67719Y-42402D01*
X67815Y-42402D01*
X67872Y-42426D01*
X68177Y-42640D02*
X68234Y-42664D01*
X68253Y-42688D01*
X68272Y-42736D01*
X68272Y-42807D01*
X68253Y-42855D01*
X68234Y-42879D01*
X68196Y-42902D01*
X68043Y-42902D01*
X68043Y-42402D01*
X68177Y-42402D01*
X68215Y-42426D01*
X68234Y-42450D01*
X68253Y-42498D01*
X68253Y-42545D01*
X68234Y-42593D01*
X68215Y-42617D01*
X68177Y-42640D01*
X68043Y-42640D01*
X68348Y-42950D02*
X68653Y-42950D01*
X68748Y-42902D02*
X68748Y-42402D01*
X68843Y-42402D01*
X68901Y-42426D01*
X68939Y-42474D01*
X68958Y-42521D01*
X68977Y-42617D01*
X68977Y-42688D01*
X68958Y-42783D01*
X68939Y-42831D01*
X68901Y-42879D01*
X68843Y-42902D01*
X68748Y-42902D01*
X69148Y-42902D02*
X69148Y-42402D01*
X69301Y-42402D01*
X69339Y-42426D01*
X69358Y-42450D01*
X69377Y-42498D01*
X69377Y-42569D01*
X69358Y-42617D01*
X69339Y-42640D01*
X69301Y-42664D01*
X69148Y-42664D01*
X72633Y-42902D02*
X72633Y-42402D01*
X72786Y-42402D01*
X72824Y-42426D01*
X72843Y-42450D01*
X72862Y-42498D01*
X72862Y-42569D01*
X72843Y-42617D01*
X72824Y-42640D01*
X72786Y-42664D01*
X72633Y-42664D01*
X72995Y-42402D02*
X73090Y-42902D01*
X73167Y-42545D01*
X73243Y-42902D01*
X73338Y-42402D01*
X73490Y-42902D02*
X73490Y-42402D01*
X73624Y-42760D01*
X73757Y-42402D01*
X73757Y-42902D01*
X73852Y-42950D02*
X74157Y-42950D01*
X74195Y-42402D02*
X74424Y-42402D01*
X74309Y-42902D02*
X74309Y-42402D01*
X74786Y-42902D02*
X74652Y-42664D01*
X74557Y-42902D02*
X74557Y-42402D01*
X74710Y-42402D01*
X74748Y-42426D01*
X74767Y-42450D01*
X74786Y-42498D01*
X74786Y-42569D01*
X74767Y-42617D01*
X74748Y-42640D01*
X74710Y-42664D01*
X74557Y-42664D01*
X75167Y-42426D02*
X75129Y-42402D01*
X75072Y-42402D01*
X75014Y-42426D01*
X74976Y-42474D01*
X74957Y-42521D01*
X74938Y-42617D01*
X74938Y-42688D01*
X74957Y-42783D01*
X74976Y-42831D01*
X75014Y-42879D01*
X75072Y-42902D01*
X75110Y-42902D01*
X75167Y-42879D01*
X75186Y-42855D01*
X75186Y-42688D01*
X75110Y-42688D01*
X81298Y-38936D02*
X81798Y-38936D01*
X81298Y-39165D01*
X81798Y-39165D01*
X81345Y-39584D02*
X81321Y-39565D01*
X81298Y-39508D01*
X81298Y-39470D01*
X81321Y-39412D01*
X81369Y-39374D01*
X81417Y-39355D01*
X81512Y-39336D01*
X81583Y-39336D01*
X81679Y-39355D01*
X81726Y-39374D01*
X81774Y-39412D01*
X81798Y-39470D01*
X81798Y-39508D01*
X81774Y-39565D01*
X81750Y-39584D01*
G54D12*
X83750Y-40250D02*
X81250Y-40250D01*
G54D11*
X82321Y-38726D02*
X82298Y-38783D01*
X82298Y-38879D01*
X82321Y-38917D01*
X82345Y-38936D01*
X82393Y-38955D01*
X82440Y-38955D01*
X82488Y-38936D01*
X82512Y-38917D01*
X82536Y-38879D01*
X82560Y-38802D01*
X82583Y-38764D01*
X82607Y-38745D01*
X82655Y-38726D01*
X82702Y-38726D01*
X82750Y-38745D01*
X82774Y-38764D01*
X82798Y-38802D01*
X82798Y-38898D01*
X82774Y-38955D01*
X82298Y-39126D02*
X82798Y-39126D01*
X82798Y-39221D01*
X82774Y-39279D01*
X82726Y-39317D01*
X82679Y-39336D01*
X82583Y-39355D01*
X82512Y-39355D01*
X82417Y-39336D01*
X82369Y-39317D01*
X82321Y-39279D01*
X82298Y-39221D01*
X82298Y-39126D01*
X82798Y-39602D02*
X82798Y-39679D01*
X82774Y-39717D01*
X82726Y-39755D01*
X82631Y-39774D01*
X82464Y-39774D01*
X82369Y-39755D01*
X82321Y-39717D01*
X82298Y-39679D01*
X82298Y-39602D01*
X82321Y-39564D01*
X82369Y-39526D01*
X82464Y-39507D01*
X82631Y-39507D01*
X82726Y-39526D01*
X82774Y-39564D01*
X82798Y-39602D01*
G54D12*
X81500Y-37000D02*
X81500Y-38500D01*
G54D11*
X75798Y-38717D02*
X75298Y-38850D01*
X75798Y-38984D01*
X75345Y-39346D02*
X75321Y-39327D01*
X75298Y-39270D01*
X75298Y-39232D01*
X75321Y-39174D01*
X75369Y-39136D01*
X75417Y-39117D01*
X75512Y-39098D01*
X75583Y-39098D01*
X75679Y-39117D01*
X75726Y-39136D01*
X75774Y-39174D01*
X75798Y-39232D01*
X75798Y-39270D01*
X75774Y-39327D01*
X75750Y-39346D01*
X75345Y-39746D02*
X75321Y-39727D01*
X75298Y-39670D01*
X75298Y-39632D01*
X75321Y-39574D01*
X75369Y-39536D01*
X75417Y-39517D01*
X75512Y-39498D01*
X75583Y-39498D01*
X75679Y-39517D01*
X75726Y-39536D01*
X75774Y-39574D01*
X75798Y-39632D01*
X75798Y-39670D01*
X75774Y-39727D01*
X75750Y-39746D01*
X67214Y-41402D02*
X67214Y-41807D01*
X67233Y-41855D01*
X67252Y-41879D01*
X67290Y-41902D01*
X67367Y-41902D01*
X67405Y-41879D01*
X67424Y-41855D01*
X67443Y-41807D01*
X67443Y-41402D01*
X67614Y-41879D02*
X67671Y-41902D01*
X67767Y-41902D01*
X67805Y-41879D01*
X67824Y-41855D01*
X67843Y-41807D01*
X67843Y-41760D01*
X67824Y-41712D01*
X67805Y-41688D01*
X67767Y-41664D01*
X67690Y-41640D01*
X67652Y-41617D01*
X67633Y-41593D01*
X67614Y-41545D01*
X67614Y-41498D01*
X67633Y-41450D01*
X67652Y-41426D01*
X67690Y-41402D01*
X67786Y-41402D01*
X67843Y-41426D01*
X68148Y-41640D02*
X68205Y-41664D01*
X68224Y-41688D01*
X68243Y-41736D01*
X68243Y-41807D01*
X68224Y-41855D01*
X68205Y-41879D01*
X68167Y-41902D01*
X68014Y-41902D01*
X68014Y-41402D01*
X68148Y-41402D01*
X68186Y-41426D01*
X68205Y-41450D01*
X68224Y-41498D01*
X68224Y-41545D01*
X68205Y-41593D01*
X68186Y-41617D01*
X68148Y-41640D01*
X68014Y-41640D01*
X68319Y-41950D02*
X68624Y-41950D01*
X68719Y-41902D02*
X68719Y-41402D01*
X68814Y-41402D01*
X68872Y-41426D01*
X68910Y-41474D01*
X68929Y-41521D01*
X68948Y-41617D01*
X68948Y-41688D01*
X68929Y-41783D01*
X68910Y-41831D01*
X68872Y-41879D01*
X68814Y-41902D01*
X68719Y-41902D01*
X69119Y-41902D02*
X69119Y-41402D01*
X69253Y-41760D01*
X69386Y-41402D01*
X69386Y-41902D01*
X72695Y-41902D02*
X72695Y-41402D01*
X72848Y-41402D01*
X72886Y-41426D01*
X72905Y-41450D01*
X72924Y-41498D01*
X72924Y-41569D01*
X72905Y-41617D01*
X72886Y-41640D01*
X72848Y-41664D01*
X72695Y-41664D01*
X73057Y-41402D02*
X73152Y-41902D01*
X73229Y-41545D01*
X73305Y-41902D01*
X73400Y-41402D01*
X73552Y-41902D02*
X73552Y-41402D01*
X73686Y-41760D01*
X73819Y-41402D01*
X73819Y-41902D01*
X73914Y-41950D02*
X74219Y-41950D01*
X74543Y-41855D02*
X74524Y-41879D01*
X74467Y-41902D01*
X74429Y-41902D01*
X74371Y-41879D01*
X74333Y-41831D01*
X74314Y-41783D01*
X74295Y-41688D01*
X74295Y-41617D01*
X74314Y-41521D01*
X74333Y-41474D01*
X74371Y-41426D01*
X74429Y-41402D01*
X74467Y-41402D01*
X74524Y-41426D01*
X74543Y-41450D01*
X74886Y-41569D02*
X74886Y-41902D01*
X74790Y-41379D02*
X74695Y-41736D01*
X74943Y-41736D01*
G54D12*
X68500Y-38500D02*
X68500Y-40000D01*
X65500Y-37000D02*
X65500Y-40000D01*
X67750Y-40250D02*
X66250Y-40250D01*
X68750Y-40250D02*
X68250Y-40250D01*
X74750Y-40250D02*
X70250Y-40250D01*
X76250Y-40250D02*
X79750Y-40250D01*
X84250Y-40250D02*
X86750Y-40250D01*
X92250Y-40250D02*
X92750Y-40250D01*
X93250Y-40250D02*
X94750Y-40250D01*
X95250Y-40250D02*
X96750Y-40250D01*
G54D11*
X97560Y-38139D02*
X97560Y-38005D01*
X97298Y-38005D02*
X97798Y-38005D01*
X97798Y-38196D01*
X97798Y-38348D02*
X97393Y-38348D01*
X97345Y-38367D01*
X97321Y-38386D01*
X97298Y-38424D01*
X97298Y-38501D01*
X97321Y-38539D01*
X97345Y-38558D01*
X97393Y-38577D01*
X97798Y-38577D01*
X97298Y-38767D02*
X97798Y-38767D01*
X97298Y-38996D01*
X97798Y-38996D01*
X64440Y-54881D02*
X64440Y-54747D01*
X64702Y-54690D02*
X64702Y-54881D01*
X64202Y-54881D01*
X64202Y-54690D01*
X64440Y-54385D02*
X64464Y-54328D01*
X64488Y-54309D01*
X64536Y-54290D01*
X64607Y-54290D01*
X64655Y-54309D01*
X64679Y-54328D01*
X64702Y-54366D01*
X64702Y-54519D01*
X64202Y-54519D01*
X64202Y-54385D01*
X64226Y-54347D01*
X64250Y-54328D01*
X64298Y-54309D01*
X64345Y-54309D01*
X64393Y-54328D01*
X64417Y-54347D01*
X64440Y-54385D01*
X64440Y-54519D01*
X64702Y-54119D02*
X64202Y-54119D01*
X65440Y-40276D02*
X65440Y-40467D01*
X65298Y-40238D02*
X65798Y-40371D01*
X65298Y-40505D01*
X65345Y-40867D02*
X65321Y-40848D01*
X65298Y-40791D01*
X65298Y-40753D01*
X65321Y-40695D01*
X65369Y-40657D01*
X65417Y-40638D01*
X65512Y-40619D01*
X65583Y-40619D01*
X65679Y-40638D01*
X65726Y-40657D01*
X65774Y-40695D01*
X65798Y-40753D01*
X65798Y-40791D01*
X65774Y-40848D01*
X65750Y-40867D01*
X65298Y-41038D02*
X65798Y-41038D01*
X65440Y-41172D01*
X65798Y-41305D01*
X65298Y-41305D01*
X65298Y-41495D02*
X65798Y-41495D01*
X65798Y-41648D01*
X65774Y-41686D01*
X65750Y-41705D01*
X65702Y-41724D01*
X65631Y-41724D01*
X65583Y-41705D01*
X65560Y-41686D01*
X65536Y-41648D01*
X65536Y-41495D01*
X66705Y-40810D02*
X66896Y-40810D01*
X66667Y-40952D02*
X66800Y-40452D01*
X66934Y-40952D01*
X67067Y-40952D02*
X67067Y-40452D01*
X67162Y-40452D01*
X67220Y-40476D01*
X67258Y-40524D01*
X67277Y-40571D01*
X67296Y-40667D01*
X67296Y-40738D01*
X67277Y-40833D01*
X67258Y-40881D01*
X67220Y-40929D01*
X67162Y-40952D01*
X67067Y-40952D01*
X68224Y-40952D02*
X68224Y-40452D01*
X68319Y-40452D01*
X68377Y-40476D01*
X68415Y-40524D01*
X68434Y-40571D01*
X68453Y-40667D01*
X68453Y-40738D01*
X68434Y-40833D01*
X68415Y-40881D01*
X68377Y-40929D01*
X68319Y-40952D01*
X68224Y-40952D01*
X68605Y-40810D02*
X68796Y-40810D01*
X68567Y-40952D02*
X68700Y-40452D01*
X68834Y-40952D01*
X77601Y-40476D02*
X77563Y-40452D01*
X77506Y-40452D01*
X77448Y-40476D01*
X77410Y-40524D01*
X77391Y-40571D01*
X77372Y-40667D01*
X77372Y-40738D01*
X77391Y-40833D01*
X77410Y-40881D01*
X77448Y-40929D01*
X77506Y-40952D01*
X77544Y-40952D01*
X77601Y-40929D01*
X77620Y-40905D01*
X77620Y-40738D01*
X77544Y-40738D01*
X77791Y-40952D02*
X77791Y-40452D01*
X77944Y-40452D01*
X77982Y-40476D01*
X78001Y-40500D01*
X78020Y-40548D01*
X78020Y-40619D01*
X78001Y-40667D01*
X77982Y-40690D01*
X77944Y-40714D01*
X77791Y-40714D01*
X78191Y-40952D02*
X78191Y-40452D01*
X78457Y-40452D02*
X78534Y-40452D01*
X78572Y-40476D01*
X78610Y-40524D01*
X78629Y-40619D01*
X78629Y-40786D01*
X78610Y-40881D01*
X78572Y-40929D01*
X78534Y-40952D01*
X78457Y-40952D01*
X78419Y-40929D01*
X78381Y-40881D01*
X78362Y-40786D01*
X78362Y-40619D01*
X78381Y-40524D01*
X78419Y-40476D01*
X78457Y-40452D01*
X80345Y-40743D02*
X80321Y-40724D01*
X80298Y-40667D01*
X80298Y-40629D01*
X80321Y-40571D01*
X80369Y-40533D01*
X80417Y-40514D01*
X80512Y-40495D01*
X80583Y-40495D01*
X80679Y-40514D01*
X80726Y-40533D01*
X80774Y-40571D01*
X80798Y-40629D01*
X80798Y-40667D01*
X80774Y-40724D01*
X80750Y-40743D01*
X80440Y-40895D02*
X80440Y-41086D01*
X80298Y-40857D02*
X80798Y-40990D01*
X80298Y-41124D01*
X80298Y-41257D02*
X80798Y-41257D01*
X80298Y-41486D01*
X80798Y-41486D01*
X82869Y-40952D02*
X82869Y-40452D01*
X83040Y-40500D02*
X83059Y-40476D01*
X83097Y-40452D01*
X83193Y-40452D01*
X83231Y-40476D01*
X83250Y-40500D01*
X83269Y-40548D01*
X83269Y-40595D01*
X83250Y-40667D01*
X83021Y-40952D01*
X83269Y-40952D01*
X83421Y-40929D02*
X83478Y-40952D01*
X83574Y-40952D01*
X83612Y-40929D01*
X83631Y-40905D01*
X83650Y-40857D01*
X83650Y-40810D01*
X83631Y-40762D01*
X83612Y-40738D01*
X83574Y-40714D01*
X83497Y-40690D01*
X83459Y-40667D01*
X83440Y-40643D01*
X83421Y-40595D01*
X83421Y-40548D01*
X83440Y-40500D01*
X83459Y-40476D01*
X83497Y-40452D01*
X83593Y-40452D01*
X83650Y-40476D01*
X84881Y-40929D02*
X84938Y-40952D01*
X85034Y-40952D01*
X85072Y-40929D01*
X85091Y-40905D01*
X85110Y-40857D01*
X85110Y-40810D01*
X85091Y-40762D01*
X85072Y-40738D01*
X85034Y-40714D01*
X84957Y-40690D01*
X84919Y-40667D01*
X84900Y-40643D01*
X84881Y-40595D01*
X84881Y-40548D01*
X84900Y-40500D01*
X84919Y-40476D01*
X84957Y-40452D01*
X85053Y-40452D01*
X85110Y-40476D01*
X85281Y-40952D02*
X85281Y-40452D01*
X85376Y-40452D01*
X85434Y-40476D01*
X85472Y-40524D01*
X85491Y-40571D01*
X85510Y-40667D01*
X85510Y-40738D01*
X85491Y-40833D01*
X85472Y-40881D01*
X85434Y-40929D01*
X85376Y-40952D01*
X85281Y-40952D01*
X85681Y-40952D02*
X85681Y-40452D01*
X85947Y-40452D02*
X86024Y-40452D01*
X86062Y-40476D01*
X86100Y-40524D01*
X86119Y-40619D01*
X86119Y-40786D01*
X86100Y-40881D01*
X86062Y-40929D01*
X86024Y-40952D01*
X85947Y-40952D01*
X85909Y-40929D01*
X85871Y-40881D01*
X85852Y-40786D01*
X85852Y-40619D01*
X85871Y-40524D01*
X85909Y-40476D01*
X85947Y-40452D01*
X88671Y-40452D02*
X88671Y-40857D01*
X88690Y-40905D01*
X88709Y-40929D01*
X88747Y-40952D01*
X88824Y-40952D01*
X88862Y-40929D01*
X88881Y-40905D01*
X88900Y-40857D01*
X88900Y-40452D01*
X89071Y-40929D02*
X89128Y-40952D01*
X89224Y-40952D01*
X89262Y-40929D01*
X89281Y-40905D01*
X89300Y-40857D01*
X89300Y-40810D01*
X89281Y-40762D01*
X89262Y-40738D01*
X89224Y-40714D01*
X89147Y-40690D01*
X89109Y-40667D01*
X89090Y-40643D01*
X89071Y-40595D01*
X89071Y-40548D01*
X89090Y-40500D01*
X89109Y-40476D01*
X89147Y-40452D01*
X89243Y-40452D01*
X89300Y-40476D01*
X89452Y-40810D02*
X89643Y-40810D01*
X89414Y-40952D02*
X89547Y-40452D01*
X89681Y-40952D01*
X90043Y-40952D02*
X89909Y-40714D01*
X89814Y-40952D02*
X89814Y-40452D01*
X89967Y-40452D01*
X90005Y-40476D01*
X90024Y-40500D01*
X90043Y-40548D01*
X90043Y-40619D01*
X90024Y-40667D01*
X90005Y-40690D01*
X89967Y-40714D01*
X89814Y-40714D01*
X90157Y-40452D02*
X90386Y-40452D01*
X90271Y-40952D02*
X90271Y-40452D01*
X92205Y-40952D02*
X92205Y-40452D01*
X92395Y-40952D02*
X92395Y-40452D01*
X92814Y-40905D02*
X92795Y-40929D01*
X92738Y-40952D01*
X92700Y-40952D01*
X92642Y-40929D01*
X92604Y-40881D01*
X92585Y-40833D01*
X92566Y-40738D01*
X92566Y-40667D01*
X92585Y-40571D01*
X92604Y-40524D01*
X92642Y-40476D01*
X92700Y-40452D01*
X92738Y-40452D01*
X92795Y-40476D01*
X92814Y-40500D01*
X93400Y-40929D02*
X93457Y-40952D01*
X93553Y-40952D01*
X93591Y-40929D01*
X93610Y-40905D01*
X93629Y-40857D01*
X93629Y-40810D01*
X93610Y-40762D01*
X93591Y-40738D01*
X93553Y-40714D01*
X93476Y-40690D01*
X93438Y-40667D01*
X93419Y-40643D01*
X93400Y-40595D01*
X93400Y-40548D01*
X93419Y-40500D01*
X93438Y-40476D01*
X93476Y-40452D01*
X93572Y-40452D01*
X93629Y-40476D01*
X93800Y-40952D02*
X93800Y-40452D01*
X93953Y-40452D01*
X93991Y-40476D01*
X94010Y-40500D01*
X94029Y-40548D01*
X94029Y-40619D01*
X94010Y-40667D01*
X93991Y-40690D01*
X93953Y-40714D01*
X93800Y-40714D01*
X94200Y-40952D02*
X94200Y-40452D01*
X94600Y-40952D02*
X94371Y-40952D01*
X94485Y-40952D02*
X94485Y-40452D01*
X94447Y-40524D01*
X94409Y-40571D01*
X94371Y-40595D01*
X95400Y-40929D02*
X95457Y-40952D01*
X95553Y-40952D01*
X95591Y-40929D01*
X95610Y-40905D01*
X95629Y-40857D01*
X95629Y-40810D01*
X95610Y-40762D01*
X95591Y-40738D01*
X95553Y-40714D01*
X95476Y-40690D01*
X95438Y-40667D01*
X95419Y-40643D01*
X95400Y-40595D01*
X95400Y-40548D01*
X95419Y-40500D01*
X95438Y-40476D01*
X95476Y-40452D01*
X95572Y-40452D01*
X95629Y-40476D01*
X95800Y-40952D02*
X95800Y-40452D01*
X95953Y-40452D01*
X95991Y-40476D01*
X96010Y-40500D01*
X96029Y-40548D01*
X96029Y-40619D01*
X96010Y-40667D01*
X95991Y-40690D01*
X95953Y-40714D01*
X95800Y-40714D01*
X96200Y-40952D02*
X96200Y-40452D01*
X96466Y-40452D02*
X96505Y-40452D01*
X96543Y-40476D01*
X96562Y-40500D01*
X96581Y-40548D01*
X96600Y-40643D01*
X96600Y-40762D01*
X96581Y-40857D01*
X96562Y-40905D01*
X96543Y-40929D01*
X96505Y-40952D01*
X96466Y-40952D01*
X96428Y-40929D01*
X96409Y-40905D01*
X96390Y-40857D01*
X96371Y-40762D01*
X96371Y-40643D01*
X96390Y-40548D01*
X96409Y-40500D01*
X96428Y-40476D01*
X96466Y-40452D01*
G54D13*
X89258Y-46524D02*
X89458Y-47324D01*
X89658Y-46524D01*
X89829Y-47286D02*
X89915Y-47324D01*
X90058Y-47324D01*
X90115Y-47286D01*
X90144Y-47248D01*
X90172Y-47171D01*
X90172Y-47095D01*
X90144Y-47019D01*
X90115Y-46981D01*
X90058Y-46943D01*
X89944Y-46905D01*
X89886Y-46867D01*
X89858Y-46829D01*
X89829Y-46752D01*
X89829Y-46676D01*
X89858Y-46600D01*
X89886Y-46562D01*
X89944Y-46524D01*
X90086Y-46524D01*
X90172Y-46562D01*
X90629Y-46905D02*
X90429Y-46905D01*
X90429Y-47324D02*
X90429Y-46524D01*
X90715Y-46524D01*
X91400Y-46905D02*
X91600Y-46905D01*
X91686Y-47324D02*
X91400Y-47324D01*
X91400Y-46524D01*
X91686Y-46524D01*
X91943Y-47324D02*
X91943Y-46790D01*
X91943Y-46867D02*
X91971Y-46829D01*
X92029Y-46790D01*
X92114Y-46790D01*
X92171Y-46829D01*
X92200Y-46905D01*
X92200Y-47324D01*
X92200Y-46905D02*
X92229Y-46829D01*
X92286Y-46790D01*
X92371Y-46790D01*
X92429Y-46829D01*
X92457Y-46905D01*
X92457Y-47324D01*
X92743Y-47324D02*
X92743Y-46524D01*
X92743Y-46829D02*
X92800Y-46790D01*
X92914Y-46790D01*
X92971Y-46829D01*
X93000Y-46867D01*
X93029Y-46943D01*
X93029Y-47171D01*
X93000Y-47248D01*
X92971Y-47286D01*
X92914Y-47324D01*
X92800Y-47324D01*
X92743Y-47286D01*
X93514Y-47286D02*
X93457Y-47324D01*
X93343Y-47324D01*
X93286Y-47286D01*
X93257Y-47210D01*
X93257Y-46905D01*
X93286Y-46829D01*
X93343Y-46790D01*
X93457Y-46790D01*
X93514Y-46829D01*
X93543Y-46905D01*
X93543Y-46981D01*
X93257Y-47057D01*
X94057Y-47324D02*
X94057Y-46524D01*
X94057Y-47286D02*
X94000Y-47324D01*
X93886Y-47324D01*
X93828Y-47286D01*
X93800Y-47248D01*
X93771Y-47171D01*
X93771Y-46943D01*
X93800Y-46867D01*
X93828Y-46829D01*
X93886Y-46790D01*
X94000Y-46790D01*
X94057Y-46829D01*
X94600Y-47324D02*
X94600Y-46524D01*
X94600Y-47286D02*
X94543Y-47324D01*
X94429Y-47324D01*
X94371Y-47286D01*
X94343Y-47248D01*
X94314Y-47171D01*
X94314Y-46943D01*
X94343Y-46867D01*
X94371Y-46829D01*
X94429Y-46790D01*
X94543Y-46790D01*
X94600Y-46829D01*
X95114Y-47286D02*
X95057Y-47324D01*
X94943Y-47324D01*
X94886Y-47286D01*
X94857Y-47210D01*
X94857Y-46905D01*
X94886Y-46829D01*
X94943Y-46790D01*
X95057Y-46790D01*
X95114Y-46829D01*
X95143Y-46905D01*
X95143Y-46981D01*
X94857Y-47057D01*
X95657Y-47324D02*
X95657Y-46524D01*
X95657Y-47286D02*
X95600Y-47324D01*
X95486Y-47324D01*
X95428Y-47286D01*
X95400Y-47248D01*
X95371Y-47171D01*
X95371Y-46943D01*
X95400Y-46867D01*
X95428Y-46829D01*
X95486Y-46790D01*
X95600Y-46790D01*
X95657Y-46829D01*
X88243Y-48030D02*
X88357Y-48564D01*
X88471Y-48183D01*
X88586Y-48564D01*
X88700Y-48030D01*
X88872Y-48030D02*
X88986Y-48564D01*
X89100Y-48183D01*
X89215Y-48564D01*
X89329Y-48030D01*
X89501Y-48030D02*
X89615Y-48564D01*
X89729Y-48183D01*
X89844Y-48564D01*
X89958Y-48030D01*
X90187Y-48488D02*
X90215Y-48526D01*
X90187Y-48564D01*
X90158Y-48526D01*
X90187Y-48488D01*
X90187Y-48564D01*
X90387Y-47764D02*
X90587Y-48564D01*
X90787Y-47764D01*
X91215Y-48526D02*
X91158Y-48564D01*
X91044Y-48564D01*
X90987Y-48526D01*
X90958Y-48450D01*
X90958Y-48145D01*
X90987Y-48069D01*
X91044Y-48030D01*
X91158Y-48030D01*
X91215Y-48069D01*
X91244Y-48145D01*
X91244Y-48221D01*
X90958Y-48297D01*
X91501Y-48564D02*
X91501Y-48030D01*
X91501Y-48183D02*
X91529Y-48107D01*
X91558Y-48069D01*
X91615Y-48030D01*
X91672Y-48030D01*
X91843Y-48526D02*
X91900Y-48564D01*
X92015Y-48564D01*
X92072Y-48526D01*
X92100Y-48450D01*
X92100Y-48411D01*
X92072Y-48335D01*
X92015Y-48297D01*
X91929Y-48297D01*
X91872Y-48259D01*
X91843Y-48183D01*
X91843Y-48145D01*
X91872Y-48069D01*
X91929Y-48030D01*
X92015Y-48030D01*
X92072Y-48069D01*
X92615Y-48564D02*
X92615Y-48145D01*
X92586Y-48069D01*
X92529Y-48030D01*
X92415Y-48030D01*
X92358Y-48069D01*
X92615Y-48526D02*
X92558Y-48564D01*
X92415Y-48564D01*
X92358Y-48526D01*
X92329Y-48450D01*
X92329Y-48373D01*
X92358Y-48297D01*
X92415Y-48259D01*
X92558Y-48259D01*
X92615Y-48221D01*
X92987Y-48564D02*
X92929Y-48526D01*
X92901Y-48450D01*
X92901Y-47764D01*
X93301Y-48564D02*
X93243Y-48526D01*
X93215Y-48488D01*
X93186Y-48411D01*
X93186Y-48183D01*
X93215Y-48107D01*
X93243Y-48069D01*
X93301Y-48030D01*
X93386Y-48030D01*
X93443Y-48069D01*
X93472Y-48107D01*
X93501Y-48183D01*
X93501Y-48411D01*
X93472Y-48488D01*
X93443Y-48526D01*
X93386Y-48564D01*
X93301Y-48564D01*
X93844Y-48564D02*
X93786Y-48526D01*
X93758Y-48488D01*
X93729Y-48411D01*
X93729Y-48183D01*
X93758Y-48107D01*
X93786Y-48069D01*
X93844Y-48030D01*
X93929Y-48030D01*
X93986Y-48069D01*
X94015Y-48107D01*
X94044Y-48183D01*
X94044Y-48411D01*
X94015Y-48488D01*
X93986Y-48526D01*
X93929Y-48564D01*
X93844Y-48564D01*
X94301Y-48030D02*
X94301Y-48564D01*
X94301Y-48107D02*
X94329Y-48069D01*
X94387Y-48030D01*
X94472Y-48030D01*
X94529Y-48069D01*
X94558Y-48145D01*
X94558Y-48564D01*
X94844Y-48488D02*
X94872Y-48526D01*
X94844Y-48564D01*
X94815Y-48526D01*
X94844Y-48488D01*
X94844Y-48564D01*
X95387Y-48526D02*
X95330Y-48564D01*
X95216Y-48564D01*
X95158Y-48526D01*
X95130Y-48488D01*
X95101Y-48411D01*
X95101Y-48183D01*
X95130Y-48107D01*
X95158Y-48069D01*
X95216Y-48030D01*
X95330Y-48030D01*
X95387Y-48069D01*
X95730Y-48564D02*
X95672Y-48526D01*
X95644Y-48488D01*
X95615Y-48411D01*
X95615Y-48183D01*
X95644Y-48107D01*
X95672Y-48069D01*
X95730Y-48030D01*
X95815Y-48030D01*
X95872Y-48069D01*
X95901Y-48107D01*
X95930Y-48183D01*
X95930Y-48411D01*
X95901Y-48488D01*
X95872Y-48526D01*
X95815Y-48564D01*
X95730Y-48564D01*
X96187Y-48564D02*
X96187Y-48030D01*
X96187Y-48107D02*
X96215Y-48069D01*
X96273Y-48030D01*
X96358Y-48030D01*
X96415Y-48069D01*
X96444Y-48145D01*
X96444Y-48564D01*
X96444Y-48145D02*
X96473Y-48069D01*
X96530Y-48030D01*
X96615Y-48030D01*
X96673Y-48069D01*
X96701Y-48145D01*
X96701Y-48564D01*
X90044Y-50320D02*
X90073Y-50282D01*
X90130Y-50244D01*
X90273Y-50244D01*
X90330Y-50282D01*
X90359Y-50320D01*
X90387Y-50396D01*
X90387Y-50472D01*
X90359Y-50587D01*
X90016Y-51044D01*
X90387Y-51044D01*
X90758Y-50244D02*
X90815Y-50244D01*
X90872Y-50282D01*
X90901Y-50320D01*
X90930Y-50396D01*
X90958Y-50549D01*
X90958Y-50739D01*
X90930Y-50891D01*
X90901Y-50968D01*
X90872Y-51006D01*
X90815Y-51044D01*
X90758Y-51044D01*
X90701Y-51006D01*
X90672Y-50968D01*
X90644Y-50891D01*
X90615Y-50739D01*
X90615Y-50549D01*
X90644Y-50396D01*
X90672Y-50320D01*
X90701Y-50282D01*
X90758Y-50244D01*
X91529Y-51044D02*
X91186Y-51044D01*
X91358Y-51044D02*
X91358Y-50244D01*
X91301Y-50358D01*
X91243Y-50434D01*
X91186Y-50472D01*
X91757Y-50320D02*
X91786Y-50282D01*
X91843Y-50244D01*
X91986Y-50244D01*
X92043Y-50282D01*
X92072Y-50320D01*
X92100Y-50396D01*
X92100Y-50472D01*
X92072Y-50587D01*
X91729Y-51044D01*
X92100Y-51044D01*
X92357Y-50968D02*
X92385Y-51006D01*
X92357Y-51044D01*
X92328Y-51006D01*
X92357Y-50968D01*
X92357Y-51044D01*
X92757Y-50244D02*
X92814Y-50244D01*
X92871Y-50282D01*
X92900Y-50320D01*
X92929Y-50396D01*
X92957Y-50549D01*
X92957Y-50739D01*
X92929Y-50891D01*
X92900Y-50968D01*
X92871Y-51006D01*
X92814Y-51044D01*
X92757Y-51044D01*
X92700Y-51006D01*
X92671Y-50968D01*
X92643Y-50891D01*
X92614Y-50739D01*
X92614Y-50549D01*
X92643Y-50396D01*
X92671Y-50320D01*
X92700Y-50282D01*
X92757Y-50244D01*
X93300Y-50587D02*
X93242Y-50549D01*
X93214Y-50510D01*
X93185Y-50434D01*
X93185Y-50396D01*
X93214Y-50320D01*
X93242Y-50282D01*
X93300Y-50244D01*
X93414Y-50244D01*
X93471Y-50282D01*
X93500Y-50320D01*
X93528Y-50396D01*
X93528Y-50434D01*
X93500Y-50510D01*
X93471Y-50549D01*
X93414Y-50587D01*
X93300Y-50587D01*
X93242Y-50625D01*
X93214Y-50663D01*
X93185Y-50739D01*
X93185Y-50891D01*
X93214Y-50968D01*
X93242Y-51006D01*
X93300Y-51044D01*
X93414Y-51044D01*
X93471Y-51006D01*
X93500Y-50968D01*
X93528Y-50891D01*
X93528Y-50739D01*
X93500Y-50663D01*
X93471Y-50625D01*
X93414Y-50587D01*
X93785Y-50968D02*
X93813Y-51006D01*
X93785Y-51044D01*
X93756Y-51006D01*
X93785Y-50968D01*
X93785Y-51044D01*
X94014Y-50244D02*
X94385Y-50244D01*
X94185Y-50549D01*
X94271Y-50549D01*
X94328Y-50587D01*
X94357Y-50625D01*
X94385Y-50701D01*
X94385Y-50891D01*
X94357Y-50968D01*
X94328Y-51006D01*
X94271Y-51044D01*
X94099Y-51044D01*
X94042Y-51006D01*
X94014Y-50968D01*
X94956Y-51044D02*
X94613Y-51044D01*
X94785Y-51044D02*
X94785Y-50244D01*
X94728Y-50358D01*
X94670Y-50434D01*
X94613Y-50472D01*
X89714Y-51865D02*
X89800Y-51903D01*
X89828Y-51941D01*
X89857Y-52017D01*
X89857Y-52131D01*
X89828Y-52208D01*
X89800Y-52246D01*
X89742Y-52284D01*
X89514Y-52284D01*
X89514Y-51484D01*
X89714Y-51484D01*
X89771Y-51522D01*
X89800Y-51560D01*
X89828Y-51636D01*
X89828Y-51712D01*
X89800Y-51789D01*
X89771Y-51827D01*
X89714Y-51865D01*
X89514Y-51865D01*
X90057Y-51750D02*
X90200Y-52284D01*
X90342Y-51750D02*
X90200Y-52284D01*
X90142Y-52474D01*
X90114Y-52512D01*
X90057Y-52550D01*
X90999Y-52246D02*
X91085Y-52284D01*
X91228Y-52284D01*
X91285Y-52246D01*
X91314Y-52208D01*
X91342Y-52131D01*
X91342Y-52055D01*
X91314Y-51979D01*
X91285Y-51941D01*
X91228Y-51903D01*
X91114Y-51865D01*
X91056Y-51827D01*
X91028Y-51789D01*
X90999Y-51712D01*
X90999Y-51636D01*
X91028Y-51560D01*
X91056Y-51522D01*
X91114Y-51484D01*
X91256Y-51484D01*
X91342Y-51522D01*
X91599Y-52284D02*
X91599Y-51750D01*
X91599Y-51484D02*
X91570Y-51522D01*
X91599Y-51560D01*
X91627Y-51522D01*
X91599Y-51484D01*
X91599Y-51560D01*
X91885Y-52284D02*
X91885Y-51750D01*
X91885Y-51827D02*
X91913Y-51789D01*
X91971Y-51750D01*
X92056Y-51750D01*
X92113Y-51789D01*
X92142Y-51865D01*
X92142Y-52284D01*
X92142Y-51865D02*
X92171Y-51789D01*
X92228Y-51750D01*
X92313Y-51750D01*
X92371Y-51789D01*
X92399Y-51865D01*
X92399Y-52284D01*
X92771Y-52284D02*
X92713Y-52246D01*
X92685Y-52208D01*
X92656Y-52131D01*
X92656Y-51903D01*
X92685Y-51827D01*
X92713Y-51789D01*
X92771Y-51750D01*
X92856Y-51750D01*
X92913Y-51789D01*
X92942Y-51827D01*
X92971Y-51903D01*
X92971Y-52131D01*
X92942Y-52208D01*
X92913Y-52246D01*
X92856Y-52284D01*
X92771Y-52284D01*
X93228Y-51750D02*
X93228Y-52284D01*
X93228Y-51827D02*
X93256Y-51789D01*
X93314Y-51750D01*
X93399Y-51750D01*
X93456Y-51789D01*
X93485Y-51865D01*
X93485Y-52284D01*
X94171Y-52360D02*
X94114Y-52322D01*
X94057Y-52246D01*
X93971Y-52131D01*
X93914Y-52093D01*
X93857Y-52093D01*
X93885Y-52284D02*
X93828Y-52246D01*
X93771Y-52170D01*
X93742Y-52017D01*
X93742Y-51750D01*
X93771Y-51598D01*
X93828Y-51522D01*
X93885Y-51484D01*
X93999Y-51484D01*
X94057Y-51522D01*
X94114Y-51598D01*
X94142Y-51750D01*
X94142Y-52017D01*
X94114Y-52170D01*
X94057Y-52246D01*
X93999Y-52284D01*
X93885Y-52284D01*
X94400Y-52284D02*
X94400Y-51750D01*
X94400Y-51484D02*
X94371Y-51522D01*
X94400Y-51560D01*
X94428Y-51522D01*
X94400Y-51484D01*
X94400Y-51560D01*
X94943Y-52284D02*
X94943Y-51865D01*
X94914Y-51789D01*
X94857Y-51750D01*
X94743Y-51750D01*
X94686Y-51789D01*
X94943Y-52246D02*
X94886Y-52284D01*
X94743Y-52284D01*
X94686Y-52246D01*
X94657Y-52170D01*
X94657Y-52093D01*
X94686Y-52017D01*
X94743Y-51979D01*
X94886Y-51979D01*
X94943Y-51941D01*
X95229Y-51750D02*
X95229Y-52284D01*
X95229Y-51827D02*
X95257Y-51789D01*
X95315Y-51750D01*
X95400Y-51750D01*
X95457Y-51789D01*
X95486Y-51865D01*
X95486Y-52284D01*
G54D11*
X96226Y-54054D02*
X96202Y-54092D01*
X96202Y-54149D01*
X96226Y-54207D01*
X96274Y-54245D01*
X96321Y-54264D01*
X96417Y-54283D01*
X96488Y-54283D01*
X96583Y-54264D01*
X96631Y-54245D01*
X96679Y-54207D01*
X96702Y-54149D01*
X96702Y-54111D01*
X96679Y-54054D01*
X96655Y-54035D01*
X96488Y-54035D01*
X96488Y-54111D01*
X96702Y-53864D02*
X96202Y-53864D01*
X96702Y-53635D01*
X96202Y-53635D01*
X96702Y-53445D02*
X96202Y-53445D01*
X96202Y-53350D01*
X96226Y-53292D01*
X96274Y-53254D01*
X96321Y-53235D01*
X96417Y-53216D01*
X96488Y-53216D01*
X96583Y-53235D01*
X96631Y-53254D01*
X96679Y-53292D01*
X96702Y-53350D01*
X96702Y-53445D01*
X96202Y-55783D02*
X96702Y-55650D01*
X96202Y-55516D01*
X96655Y-55154D02*
X96679Y-55173D01*
X96702Y-55230D01*
X96702Y-55268D01*
X96679Y-55326D01*
X96631Y-55364D01*
X96583Y-55383D01*
X96488Y-55402D01*
X96417Y-55402D01*
X96321Y-55383D01*
X96274Y-55364D01*
X96226Y-55326D01*
X96202Y-55268D01*
X96202Y-55230D01*
X96226Y-55173D01*
X96250Y-55154D01*
X96655Y-54754D02*
X96679Y-54773D01*
X96702Y-54830D01*
X96702Y-54868D01*
X96679Y-54926D01*
X96631Y-54964D01*
X96583Y-54983D01*
X96488Y-55002D01*
X96417Y-55002D01*
X96321Y-54983D01*
X96274Y-54964D01*
X96226Y-54926D01*
X96202Y-54868D01*
X96202Y-54830D01*
X96226Y-54773D01*
X96250Y-54754D01*
X93202Y-54264D02*
X93702Y-54169D01*
X93345Y-54092D01*
X93702Y-54016D01*
X93202Y-53921D01*
X93202Y-53826D02*
X93202Y-53597D01*
X93702Y-53712D02*
X93202Y-53712D01*
X93702Y-53254D02*
X93702Y-53483D01*
X93702Y-53369D02*
X93202Y-53369D01*
X93274Y-53407D01*
X93321Y-53445D01*
X93345Y-53483D01*
X93202Y-55764D02*
X93702Y-55669D01*
X93345Y-55592D01*
X93702Y-55516D01*
X93202Y-55421D01*
X93202Y-55326D02*
X93202Y-55097D01*
X93702Y-55212D02*
X93202Y-55212D01*
X93202Y-54888D02*
X93202Y-54849D01*
X93226Y-54811D01*
X93250Y-54792D01*
X93298Y-54773D01*
X93393Y-54754D01*
X93512Y-54754D01*
X93607Y-54773D01*
X93655Y-54792D01*
X93679Y-54811D01*
X93702Y-54849D01*
X93702Y-54888D01*
X93679Y-54926D01*
X93655Y-54945D01*
X93607Y-54964D01*
X93512Y-54983D01*
X93393Y-54983D01*
X93298Y-54964D01*
X93250Y-54945D01*
X93226Y-54926D01*
X93202Y-54888D01*
X89702Y-54064D02*
X89202Y-54064D01*
X89702Y-53835D01*
X89202Y-53835D01*
X89655Y-53416D02*
X89679Y-53435D01*
X89702Y-53492D01*
X89702Y-53530D01*
X89679Y-53588D01*
X89631Y-53626D01*
X89583Y-53645D01*
X89488Y-53664D01*
X89417Y-53664D01*
X89321Y-53645D01*
X89274Y-53626D01*
X89226Y-53588D01*
X89202Y-53530D01*
X89202Y-53492D01*
X89226Y-53435D01*
X89250Y-53416D01*
X91655Y-55507D02*
X91679Y-55526D01*
X91702Y-55583D01*
X91702Y-55621D01*
X91679Y-55679D01*
X91631Y-55717D01*
X91583Y-55736D01*
X91488Y-55755D01*
X91417Y-55755D01*
X91321Y-55736D01*
X91274Y-55717D01*
X91226Y-55679D01*
X91202Y-55621D01*
X91202Y-55583D01*
X91226Y-55526D01*
X91250Y-55507D01*
X91679Y-55355D02*
X91702Y-55298D01*
X91702Y-55202D01*
X91679Y-55164D01*
X91655Y-55145D01*
X91607Y-55126D01*
X91560Y-55126D01*
X91512Y-55145D01*
X91488Y-55164D01*
X91464Y-55202D01*
X91440Y-55279D01*
X91417Y-55317D01*
X91393Y-55336D01*
X91345Y-55355D01*
X91298Y-55355D01*
X91250Y-55336D01*
X91226Y-55317D01*
X91202Y-55279D01*
X91202Y-55183D01*
X91226Y-55126D01*
X91250Y-54974D02*
X91226Y-54955D01*
X91202Y-54917D01*
X91202Y-54821D01*
X91226Y-54783D01*
X91250Y-54764D01*
X91298Y-54745D01*
X91345Y-54745D01*
X91417Y-54764D01*
X91702Y-54993D01*
X91702Y-54745D01*
X90655Y-54007D02*
X90679Y-54026D01*
X90702Y-54083D01*
X90702Y-54121D01*
X90679Y-54179D01*
X90631Y-54217D01*
X90583Y-54236D01*
X90488Y-54255D01*
X90417Y-54255D01*
X90321Y-54236D01*
X90274Y-54217D01*
X90226Y-54179D01*
X90202Y-54121D01*
X90202Y-54083D01*
X90226Y-54026D01*
X90250Y-54007D01*
X90679Y-53855D02*
X90702Y-53798D01*
X90702Y-53702D01*
X90679Y-53664D01*
X90655Y-53645D01*
X90607Y-53626D01*
X90560Y-53626D01*
X90512Y-53645D01*
X90488Y-53664D01*
X90464Y-53702D01*
X90440Y-53779D01*
X90417Y-53817D01*
X90393Y-53836D01*
X90345Y-53855D01*
X90298Y-53855D01*
X90250Y-53836D01*
X90226Y-53817D01*
X90202Y-53779D01*
X90202Y-53683D01*
X90226Y-53626D01*
X90702Y-53245D02*
X90702Y-53474D01*
X90702Y-53360D02*
X90202Y-53360D01*
X90274Y-53398D01*
X90321Y-53436D01*
X90345Y-53474D01*
X90655Y-55507D02*
X90679Y-55526D01*
X90702Y-55583D01*
X90702Y-55621D01*
X90679Y-55679D01*
X90631Y-55717D01*
X90583Y-55736D01*
X90488Y-55755D01*
X90417Y-55755D01*
X90321Y-55736D01*
X90274Y-55717D01*
X90226Y-55679D01*
X90202Y-55621D01*
X90202Y-55583D01*
X90226Y-55526D01*
X90250Y-55507D01*
X90679Y-55355D02*
X90702Y-55298D01*
X90702Y-55202D01*
X90679Y-55164D01*
X90655Y-55145D01*
X90607Y-55126D01*
X90560Y-55126D01*
X90512Y-55145D01*
X90488Y-55164D01*
X90464Y-55202D01*
X90440Y-55279D01*
X90417Y-55317D01*
X90393Y-55336D01*
X90345Y-55355D01*
X90298Y-55355D01*
X90250Y-55336D01*
X90226Y-55317D01*
X90202Y-55279D01*
X90202Y-55183D01*
X90226Y-55126D01*
X90202Y-54879D02*
X90202Y-54840D01*
X90226Y-54802D01*
X90250Y-54783D01*
X90298Y-54764D01*
X90393Y-54745D01*
X90512Y-54745D01*
X90607Y-54764D01*
X90655Y-54783D01*
X90679Y-54802D01*
X90702Y-54840D01*
X90702Y-54879D01*
X90679Y-54917D01*
X90655Y-54936D01*
X90607Y-54955D01*
X90512Y-54974D01*
X90393Y-54974D01*
X90298Y-54955D01*
X90250Y-54936D01*
X90226Y-54917D01*
X90202Y-54879D01*
X91655Y-54007D02*
X91679Y-54026D01*
X91702Y-54083D01*
X91702Y-54121D01*
X91679Y-54179D01*
X91631Y-54217D01*
X91583Y-54236D01*
X91488Y-54255D01*
X91417Y-54255D01*
X91321Y-54236D01*
X91274Y-54217D01*
X91226Y-54179D01*
X91202Y-54121D01*
X91202Y-54083D01*
X91226Y-54026D01*
X91250Y-54007D01*
X91679Y-53855D02*
X91702Y-53798D01*
X91702Y-53702D01*
X91679Y-53664D01*
X91655Y-53645D01*
X91607Y-53626D01*
X91560Y-53626D01*
X91512Y-53645D01*
X91488Y-53664D01*
X91464Y-53702D01*
X91440Y-53779D01*
X91417Y-53817D01*
X91393Y-53836D01*
X91345Y-53855D01*
X91298Y-53855D01*
X91250Y-53836D01*
X91226Y-53817D01*
X91202Y-53779D01*
X91202Y-53683D01*
X91226Y-53626D01*
X91202Y-53493D02*
X91202Y-53245D01*
X91393Y-53379D01*
X91393Y-53321D01*
X91417Y-53283D01*
X91440Y-53264D01*
X91488Y-53245D01*
X91607Y-53245D01*
X91655Y-53264D01*
X91679Y-53283D01*
X91702Y-53321D01*
X91702Y-53436D01*
X91679Y-53474D01*
X91655Y-53493D01*
X89702Y-55774D02*
X89202Y-55774D01*
X89702Y-55545D01*
X89202Y-55545D01*
X89202Y-55355D02*
X89607Y-55355D01*
X89655Y-55336D01*
X89679Y-55317D01*
X89702Y-55279D01*
X89702Y-55202D01*
X89679Y-55164D01*
X89655Y-55145D01*
X89607Y-55126D01*
X89202Y-55126D01*
X89440Y-54802D02*
X89464Y-54745D01*
X89488Y-54726D01*
X89536Y-54707D01*
X89607Y-54707D01*
X89655Y-54726D01*
X89679Y-54745D01*
X89702Y-54783D01*
X89702Y-54936D01*
X89202Y-54936D01*
X89202Y-54802D01*
X89226Y-54764D01*
X89250Y-54745D01*
X89298Y-54726D01*
X89345Y-54726D01*
X89393Y-54745D01*
X89417Y-54764D01*
X89440Y-54802D01*
X89440Y-54936D01*
X88702Y-54226D02*
X88202Y-54226D01*
X88702Y-53997D01*
X88202Y-53997D01*
X88702Y-53616D02*
X88702Y-53807D01*
X88202Y-53807D01*
X88440Y-53349D02*
X88464Y-53292D01*
X88488Y-53273D01*
X88536Y-53254D01*
X88607Y-53254D01*
X88655Y-53273D01*
X88679Y-53292D01*
X88702Y-53330D01*
X88702Y-53483D01*
X88202Y-53483D01*
X88202Y-53349D01*
X88226Y-53311D01*
X88250Y-53292D01*
X88298Y-53273D01*
X88345Y-53273D01*
X88393Y-53292D01*
X88417Y-53311D01*
X88440Y-53349D01*
X88440Y-53483D01*
X88202Y-55745D02*
X88702Y-55650D01*
X88345Y-55573D01*
X88702Y-55497D01*
X88202Y-55402D01*
X88560Y-55269D02*
X88560Y-55078D01*
X88702Y-55307D02*
X88202Y-55174D01*
X88702Y-55040D01*
X88202Y-54964D02*
X88202Y-54735D01*
X88702Y-54850D02*
X88202Y-54850D01*
X87560Y-54217D02*
X87560Y-54026D01*
X87702Y-54255D02*
X87202Y-54122D01*
X87702Y-53988D01*
X87702Y-53855D02*
X87202Y-53855D01*
X87202Y-53760D01*
X87226Y-53702D01*
X87274Y-53664D01*
X87321Y-53645D01*
X87417Y-53626D01*
X87488Y-53626D01*
X87583Y-53645D01*
X87631Y-53664D01*
X87679Y-53702D01*
X87702Y-53760D01*
X87702Y-53855D01*
X87202Y-53512D02*
X87702Y-53379D01*
X87202Y-53245D01*
X87702Y-55755D02*
X87202Y-55755D01*
X87702Y-55526D01*
X87202Y-55526D01*
X87202Y-55260D02*
X87202Y-55183D01*
X87226Y-55145D01*
X87274Y-55107D01*
X87369Y-55088D01*
X87536Y-55088D01*
X87631Y-55107D01*
X87679Y-55145D01*
X87702Y-55183D01*
X87702Y-55260D01*
X87679Y-55298D01*
X87631Y-55336D01*
X87536Y-55355D01*
X87369Y-55355D01*
X87274Y-55336D01*
X87226Y-55298D01*
X87202Y-55260D01*
X87440Y-54917D02*
X87440Y-54783D01*
X87702Y-54726D02*
X87702Y-54917D01*
X87202Y-54917D01*
X87202Y-54726D01*
X86702Y-54274D02*
X86202Y-54274D01*
X86702Y-54045D01*
X86202Y-54045D01*
X86202Y-53893D02*
X86702Y-53798D01*
X86345Y-53721D01*
X86702Y-53645D01*
X86202Y-53550D01*
X86440Y-53398D02*
X86440Y-53264D01*
X86702Y-53207D02*
X86702Y-53398D01*
X86202Y-53398D01*
X86202Y-53207D01*
X86655Y-55488D02*
X86679Y-55507D01*
X86702Y-55564D01*
X86702Y-55602D01*
X86679Y-55660D01*
X86631Y-55698D01*
X86583Y-55717D01*
X86488Y-55736D01*
X86417Y-55736D01*
X86321Y-55717D01*
X86274Y-55698D01*
X86226Y-55660D01*
X86202Y-55602D01*
X86202Y-55564D01*
X86226Y-55507D01*
X86250Y-55488D01*
X86702Y-55126D02*
X86702Y-55317D01*
X86202Y-55317D01*
X86702Y-54993D02*
X86202Y-54993D01*
X86702Y-54764D02*
X86417Y-54936D01*
X86202Y-54764D02*
X86488Y-54993D01*
X85702Y-54236D02*
X85202Y-54236D01*
X85202Y-54141D01*
X85226Y-54083D01*
X85274Y-54045D01*
X85321Y-54026D01*
X85417Y-54007D01*
X85488Y-54007D01*
X85583Y-54026D01*
X85631Y-54045D01*
X85679Y-54083D01*
X85702Y-54141D01*
X85702Y-54236D01*
X85702Y-53626D02*
X85702Y-53855D01*
X85702Y-53741D02*
X85202Y-53741D01*
X85274Y-53779D01*
X85321Y-53817D01*
X85345Y-53855D01*
X85202Y-53264D02*
X85202Y-53455D01*
X85440Y-53474D01*
X85417Y-53455D01*
X85393Y-53417D01*
X85393Y-53321D01*
X85417Y-53283D01*
X85440Y-53264D01*
X85488Y-53245D01*
X85607Y-53245D01*
X85655Y-53264D01*
X85679Y-53283D01*
X85702Y-53321D01*
X85702Y-53417D01*
X85679Y-53455D01*
X85655Y-53474D01*
X85702Y-55736D02*
X85202Y-55736D01*
X85202Y-55641D01*
X85226Y-55583D01*
X85274Y-55545D01*
X85321Y-55526D01*
X85417Y-55507D01*
X85488Y-55507D01*
X85583Y-55526D01*
X85631Y-55545D01*
X85679Y-55583D01*
X85702Y-55641D01*
X85702Y-55736D01*
X85702Y-55126D02*
X85702Y-55355D01*
X85702Y-55241D02*
X85202Y-55241D01*
X85274Y-55279D01*
X85321Y-55317D01*
X85345Y-55355D01*
X85369Y-54783D02*
X85702Y-54783D01*
X85179Y-54879D02*
X85536Y-54974D01*
X85536Y-54726D01*
X84702Y-54236D02*
X84202Y-54236D01*
X84202Y-54141D01*
X84226Y-54083D01*
X84274Y-54045D01*
X84321Y-54026D01*
X84417Y-54007D01*
X84488Y-54007D01*
X84583Y-54026D01*
X84631Y-54045D01*
X84679Y-54083D01*
X84702Y-54141D01*
X84702Y-54236D01*
X84702Y-53626D02*
X84702Y-53855D01*
X84702Y-53741D02*
X84202Y-53741D01*
X84274Y-53779D01*
X84321Y-53817D01*
X84345Y-53855D01*
X84202Y-53493D02*
X84202Y-53245D01*
X84393Y-53379D01*
X84393Y-53321D01*
X84417Y-53283D01*
X84440Y-53264D01*
X84488Y-53245D01*
X84607Y-53245D01*
X84655Y-53264D01*
X84679Y-53283D01*
X84702Y-53321D01*
X84702Y-53436D01*
X84679Y-53474D01*
X84655Y-53493D01*
X84702Y-55736D02*
X84202Y-55736D01*
X84202Y-55641D01*
X84226Y-55583D01*
X84274Y-55545D01*
X84321Y-55526D01*
X84417Y-55507D01*
X84488Y-55507D01*
X84583Y-55526D01*
X84631Y-55545D01*
X84679Y-55583D01*
X84702Y-55641D01*
X84702Y-55736D01*
X84702Y-55126D02*
X84702Y-55355D01*
X84702Y-55241D02*
X84202Y-55241D01*
X84274Y-55279D01*
X84321Y-55317D01*
X84345Y-55355D01*
X84250Y-54974D02*
X84226Y-54955D01*
X84202Y-54917D01*
X84202Y-54821D01*
X84226Y-54783D01*
X84250Y-54764D01*
X84298Y-54745D01*
X84345Y-54745D01*
X84417Y-54764D01*
X84702Y-54993D01*
X84702Y-54745D01*
X83702Y-54236D02*
X83202Y-54236D01*
X83202Y-54141D01*
X83226Y-54083D01*
X83274Y-54045D01*
X83321Y-54026D01*
X83417Y-54007D01*
X83488Y-54007D01*
X83583Y-54026D01*
X83631Y-54045D01*
X83679Y-54083D01*
X83702Y-54141D01*
X83702Y-54236D01*
X83702Y-53626D02*
X83702Y-53855D01*
X83702Y-53741D02*
X83202Y-53741D01*
X83274Y-53779D01*
X83321Y-53817D01*
X83345Y-53855D01*
X83702Y-53245D02*
X83702Y-53474D01*
X83702Y-53360D02*
X83202Y-53360D01*
X83274Y-53398D01*
X83321Y-53436D01*
X83345Y-53474D01*
X83702Y-55736D02*
X83202Y-55736D01*
X83202Y-55641D01*
X83226Y-55583D01*
X83274Y-55545D01*
X83321Y-55526D01*
X83417Y-55507D01*
X83488Y-55507D01*
X83583Y-55526D01*
X83631Y-55545D01*
X83679Y-55583D01*
X83702Y-55641D01*
X83702Y-55736D01*
X83702Y-55126D02*
X83702Y-55355D01*
X83702Y-55241D02*
X83202Y-55241D01*
X83274Y-55279D01*
X83321Y-55317D01*
X83345Y-55355D01*
X83202Y-54879D02*
X83202Y-54840D01*
X83226Y-54802D01*
X83250Y-54783D01*
X83298Y-54764D01*
X83393Y-54745D01*
X83512Y-54745D01*
X83607Y-54764D01*
X83655Y-54783D01*
X83679Y-54802D01*
X83702Y-54840D01*
X83702Y-54879D01*
X83679Y-54917D01*
X83655Y-54936D01*
X83607Y-54955D01*
X83512Y-54974D01*
X83393Y-54974D01*
X83298Y-54955D01*
X83250Y-54936D01*
X83226Y-54917D01*
X83202Y-54879D01*
X82702Y-54045D02*
X82202Y-54045D01*
X82202Y-53950D01*
X82226Y-53892D01*
X82274Y-53854D01*
X82321Y-53835D01*
X82417Y-53816D01*
X82488Y-53816D01*
X82583Y-53835D01*
X82631Y-53854D01*
X82679Y-53892D01*
X82702Y-53950D01*
X82702Y-54045D01*
X82702Y-53626D02*
X82702Y-53550D01*
X82679Y-53511D01*
X82655Y-53492D01*
X82583Y-53454D01*
X82488Y-53435D01*
X82298Y-53435D01*
X82250Y-53454D01*
X82226Y-53473D01*
X82202Y-53511D01*
X82202Y-53588D01*
X82226Y-53626D01*
X82250Y-53645D01*
X82298Y-53664D01*
X82417Y-53664D01*
X82464Y-53645D01*
X82488Y-53626D01*
X82512Y-53588D01*
X82512Y-53511D01*
X82488Y-53473D01*
X82464Y-53454D01*
X82417Y-53435D01*
X82702Y-55545D02*
X82202Y-55545D01*
X82202Y-55450D01*
X82226Y-55392D01*
X82274Y-55354D01*
X82321Y-55335D01*
X82417Y-55316D01*
X82488Y-55316D01*
X82583Y-55335D01*
X82631Y-55354D01*
X82679Y-55392D01*
X82702Y-55450D01*
X82702Y-55545D01*
X82417Y-55088D02*
X82393Y-55126D01*
X82369Y-55145D01*
X82321Y-55164D01*
X82298Y-55164D01*
X82250Y-55145D01*
X82226Y-55126D01*
X82202Y-55088D01*
X82202Y-55011D01*
X82226Y-54973D01*
X82250Y-54954D01*
X82298Y-54935D01*
X82321Y-54935D01*
X82369Y-54954D01*
X82393Y-54973D01*
X82417Y-55011D01*
X82417Y-55088D01*
X82440Y-55126D01*
X82464Y-55145D01*
X82512Y-55164D01*
X82607Y-55164D01*
X82655Y-55145D01*
X82679Y-55126D01*
X82702Y-55088D01*
X82702Y-55011D01*
X82679Y-54973D01*
X82655Y-54954D01*
X82607Y-54935D01*
X82512Y-54935D01*
X82464Y-54954D01*
X82440Y-54973D01*
X82417Y-55011D01*
X81702Y-54045D02*
X81202Y-54045D01*
X81202Y-53950D01*
X81226Y-53892D01*
X81274Y-53854D01*
X81321Y-53835D01*
X81417Y-53816D01*
X81488Y-53816D01*
X81583Y-53835D01*
X81631Y-53854D01*
X81679Y-53892D01*
X81702Y-53950D01*
X81702Y-54045D01*
X81202Y-53683D02*
X81202Y-53416D01*
X81702Y-53588D01*
X81702Y-55545D02*
X81202Y-55545D01*
X81202Y-55450D01*
X81226Y-55392D01*
X81274Y-55354D01*
X81321Y-55335D01*
X81417Y-55316D01*
X81488Y-55316D01*
X81583Y-55335D01*
X81631Y-55354D01*
X81679Y-55392D01*
X81702Y-55450D01*
X81702Y-55545D01*
X81202Y-54973D02*
X81202Y-55050D01*
X81226Y-55088D01*
X81250Y-55107D01*
X81321Y-55145D01*
X81417Y-55164D01*
X81607Y-55164D01*
X81655Y-55145D01*
X81679Y-55126D01*
X81702Y-55088D01*
X81702Y-55011D01*
X81679Y-54973D01*
X81655Y-54954D01*
X81607Y-54935D01*
X81488Y-54935D01*
X81440Y-54954D01*
X81417Y-54973D01*
X81393Y-55011D01*
X81393Y-55088D01*
X81417Y-55126D01*
X81440Y-55145D01*
X81488Y-55164D01*
X80702Y-54045D02*
X80202Y-54045D01*
X80202Y-53950D01*
X80226Y-53892D01*
X80274Y-53854D01*
X80321Y-53835D01*
X80417Y-53816D01*
X80488Y-53816D01*
X80583Y-53835D01*
X80631Y-53854D01*
X80679Y-53892D01*
X80702Y-53950D01*
X80702Y-54045D01*
X80202Y-53454D02*
X80202Y-53645D01*
X80440Y-53664D01*
X80417Y-53645D01*
X80393Y-53607D01*
X80393Y-53511D01*
X80417Y-53473D01*
X80440Y-53454D01*
X80488Y-53435D01*
X80607Y-53435D01*
X80655Y-53454D01*
X80679Y-53473D01*
X80702Y-53511D01*
X80702Y-53607D01*
X80679Y-53645D01*
X80655Y-53664D01*
X80702Y-55545D02*
X80202Y-55545D01*
X80202Y-55450D01*
X80226Y-55392D01*
X80274Y-55354D01*
X80321Y-55335D01*
X80417Y-55316D01*
X80488Y-55316D01*
X80583Y-55335D01*
X80631Y-55354D01*
X80679Y-55392D01*
X80702Y-55450D01*
X80702Y-55545D01*
X80369Y-54973D02*
X80702Y-54973D01*
X80179Y-55069D02*
X80536Y-55164D01*
X80536Y-54916D01*
X79702Y-54045D02*
X79202Y-54045D01*
X79202Y-53950D01*
X79226Y-53892D01*
X79274Y-53854D01*
X79321Y-53835D01*
X79417Y-53816D01*
X79488Y-53816D01*
X79583Y-53835D01*
X79631Y-53854D01*
X79679Y-53892D01*
X79702Y-53950D01*
X79702Y-54045D01*
X79202Y-53683D02*
X79202Y-53435D01*
X79393Y-53569D01*
X79393Y-53511D01*
X79417Y-53473D01*
X79440Y-53454D01*
X79488Y-53435D01*
X79607Y-53435D01*
X79655Y-53454D01*
X79679Y-53473D01*
X79702Y-53511D01*
X79702Y-53626D01*
X79679Y-53664D01*
X79655Y-53683D01*
X79702Y-55545D02*
X79202Y-55545D01*
X79202Y-55450D01*
X79226Y-55392D01*
X79274Y-55354D01*
X79321Y-55335D01*
X79417Y-55316D01*
X79488Y-55316D01*
X79583Y-55335D01*
X79631Y-55354D01*
X79679Y-55392D01*
X79702Y-55450D01*
X79702Y-55545D01*
X79250Y-55164D02*
X79226Y-55145D01*
X79202Y-55107D01*
X79202Y-55011D01*
X79226Y-54973D01*
X79250Y-54954D01*
X79298Y-54935D01*
X79345Y-54935D01*
X79417Y-54954D01*
X79702Y-55183D01*
X79702Y-54935D01*
X78702Y-54045D02*
X78202Y-54045D01*
X78202Y-53950D01*
X78226Y-53892D01*
X78274Y-53854D01*
X78321Y-53835D01*
X78417Y-53816D01*
X78488Y-53816D01*
X78583Y-53835D01*
X78631Y-53854D01*
X78679Y-53892D01*
X78702Y-53950D01*
X78702Y-54045D01*
X78702Y-53435D02*
X78702Y-53664D01*
X78702Y-53550D02*
X78202Y-53550D01*
X78274Y-53588D01*
X78321Y-53626D01*
X78345Y-53664D01*
X78702Y-55545D02*
X78202Y-55545D01*
X78202Y-55450D01*
X78226Y-55392D01*
X78274Y-55354D01*
X78321Y-55335D01*
X78417Y-55316D01*
X78488Y-55316D01*
X78583Y-55335D01*
X78631Y-55354D01*
X78679Y-55392D01*
X78702Y-55450D01*
X78702Y-55545D01*
X78202Y-55069D02*
X78202Y-55030D01*
X78226Y-54992D01*
X78250Y-54973D01*
X78298Y-54954D01*
X78393Y-54935D01*
X78512Y-54935D01*
X78607Y-54954D01*
X78655Y-54973D01*
X78679Y-54992D01*
X78702Y-55030D01*
X78702Y-55069D01*
X78679Y-55107D01*
X78655Y-55126D01*
X78607Y-55145D01*
X78512Y-55164D01*
X78393Y-55164D01*
X78298Y-55145D01*
X78250Y-55126D01*
X78226Y-55107D01*
X78202Y-55069D01*
X77560Y-54226D02*
X77560Y-54035D01*
X77702Y-54264D02*
X77202Y-54131D01*
X77702Y-53997D01*
X77250Y-53883D02*
X77226Y-53864D01*
X77202Y-53826D01*
X77202Y-53730D01*
X77226Y-53692D01*
X77250Y-53673D01*
X77298Y-53654D01*
X77345Y-53654D01*
X77417Y-53673D01*
X77702Y-53902D01*
X77702Y-53654D01*
X77202Y-53292D02*
X77202Y-53483D01*
X77440Y-53502D01*
X77417Y-53483D01*
X77393Y-53445D01*
X77393Y-53349D01*
X77417Y-53311D01*
X77440Y-53292D01*
X77488Y-53273D01*
X77607Y-53273D01*
X77655Y-53292D01*
X77679Y-53311D01*
X77702Y-53349D01*
X77702Y-53445D01*
X77679Y-53483D01*
X77655Y-53502D01*
X77560Y-55726D02*
X77560Y-55535D01*
X77702Y-55764D02*
X77202Y-55631D01*
X77702Y-55497D01*
X77250Y-55383D02*
X77226Y-55364D01*
X77202Y-55326D01*
X77202Y-55230D01*
X77226Y-55192D01*
X77250Y-55173D01*
X77298Y-55154D01*
X77345Y-55154D01*
X77417Y-55173D01*
X77702Y-55402D01*
X77702Y-55154D01*
X77369Y-54811D02*
X77702Y-54811D01*
X77179Y-54907D02*
X77536Y-55002D01*
X77536Y-54754D01*
X76560Y-54226D02*
X76560Y-54035D01*
X76702Y-54264D02*
X76202Y-54131D01*
X76702Y-53997D01*
X76250Y-53883D02*
X76226Y-53864D01*
X76202Y-53826D01*
X76202Y-53730D01*
X76226Y-53692D01*
X76250Y-53673D01*
X76298Y-53654D01*
X76345Y-53654D01*
X76417Y-53673D01*
X76702Y-53902D01*
X76702Y-53654D01*
X76202Y-53521D02*
X76202Y-53273D01*
X76393Y-53407D01*
X76393Y-53349D01*
X76417Y-53311D01*
X76440Y-53292D01*
X76488Y-53273D01*
X76607Y-53273D01*
X76655Y-53292D01*
X76679Y-53311D01*
X76702Y-53349D01*
X76702Y-53464D01*
X76679Y-53502D01*
X76655Y-53521D01*
X76560Y-55726D02*
X76560Y-55535D01*
X76702Y-55764D02*
X76202Y-55631D01*
X76702Y-55497D01*
X76250Y-55383D02*
X76226Y-55364D01*
X76202Y-55326D01*
X76202Y-55230D01*
X76226Y-55192D01*
X76250Y-55173D01*
X76298Y-55154D01*
X76345Y-55154D01*
X76417Y-55173D01*
X76702Y-55402D01*
X76702Y-55154D01*
X76250Y-55002D02*
X76226Y-54983D01*
X76202Y-54945D01*
X76202Y-54849D01*
X76226Y-54811D01*
X76250Y-54792D01*
X76298Y-54773D01*
X76345Y-54773D01*
X76417Y-54792D01*
X76702Y-55021D01*
X76702Y-54773D01*
X75560Y-54226D02*
X75560Y-54035D01*
X75702Y-54264D02*
X75202Y-54131D01*
X75702Y-53997D01*
X75250Y-53883D02*
X75226Y-53864D01*
X75202Y-53826D01*
X75202Y-53730D01*
X75226Y-53692D01*
X75250Y-53673D01*
X75298Y-53654D01*
X75345Y-53654D01*
X75417Y-53673D01*
X75702Y-53902D01*
X75702Y-53654D01*
X75702Y-53273D02*
X75702Y-53502D01*
X75702Y-53388D02*
X75202Y-53388D01*
X75274Y-53426D01*
X75321Y-53464D01*
X75345Y-53502D01*
X75560Y-55726D02*
X75560Y-55535D01*
X75702Y-55764D02*
X75202Y-55631D01*
X75702Y-55497D01*
X75250Y-55383D02*
X75226Y-55364D01*
X75202Y-55326D01*
X75202Y-55230D01*
X75226Y-55192D01*
X75250Y-55173D01*
X75298Y-55154D01*
X75345Y-55154D01*
X75417Y-55173D01*
X75702Y-55402D01*
X75702Y-55154D01*
X75202Y-54907D02*
X75202Y-54868D01*
X75226Y-54830D01*
X75250Y-54811D01*
X75298Y-54792D01*
X75393Y-54773D01*
X75512Y-54773D01*
X75607Y-54792D01*
X75655Y-54811D01*
X75679Y-54830D01*
X75702Y-54868D01*
X75702Y-54907D01*
X75679Y-54945D01*
X75655Y-54964D01*
X75607Y-54983D01*
X75512Y-55002D01*
X75393Y-55002D01*
X75298Y-54983D01*
X75250Y-54964D01*
X75226Y-54945D01*
X75202Y-54907D01*
X74560Y-54226D02*
X74560Y-54035D01*
X74702Y-54264D02*
X74202Y-54131D01*
X74702Y-53997D01*
X74702Y-53654D02*
X74702Y-53883D01*
X74702Y-53769D02*
X74202Y-53769D01*
X74274Y-53807D01*
X74321Y-53845D01*
X74345Y-53883D01*
X74702Y-53464D02*
X74702Y-53388D01*
X74679Y-53349D01*
X74655Y-53330D01*
X74583Y-53292D01*
X74488Y-53273D01*
X74298Y-53273D01*
X74250Y-53292D01*
X74226Y-53311D01*
X74202Y-53349D01*
X74202Y-53426D01*
X74226Y-53464D01*
X74250Y-53483D01*
X74298Y-53502D01*
X74417Y-53502D01*
X74464Y-53483D01*
X74488Y-53464D01*
X74512Y-53426D01*
X74512Y-53349D01*
X74488Y-53311D01*
X74464Y-53292D01*
X74417Y-53273D01*
X74560Y-55726D02*
X74560Y-55535D01*
X74702Y-55764D02*
X74202Y-55631D01*
X74702Y-55497D01*
X74702Y-55154D02*
X74702Y-55383D01*
X74702Y-55269D02*
X74202Y-55269D01*
X74274Y-55307D01*
X74321Y-55345D01*
X74345Y-55383D01*
X74417Y-54926D02*
X74393Y-54964D01*
X74369Y-54983D01*
X74321Y-55002D01*
X74298Y-55002D01*
X74250Y-54983D01*
X74226Y-54964D01*
X74202Y-54926D01*
X74202Y-54849D01*
X74226Y-54811D01*
X74250Y-54792D01*
X74298Y-54773D01*
X74321Y-54773D01*
X74369Y-54792D01*
X74393Y-54811D01*
X74417Y-54849D01*
X74417Y-54926D01*
X74440Y-54964D01*
X74464Y-54983D01*
X74512Y-55002D01*
X74607Y-55002D01*
X74655Y-54983D01*
X74679Y-54964D01*
X74702Y-54926D01*
X74702Y-54849D01*
X74679Y-54811D01*
X74655Y-54792D01*
X74607Y-54773D01*
X74512Y-54773D01*
X74464Y-54792D01*
X74440Y-54811D01*
X74417Y-54849D01*
X73560Y-54226D02*
X73560Y-54035D01*
X73702Y-54264D02*
X73202Y-54131D01*
X73702Y-53997D01*
X73702Y-53654D02*
X73702Y-53883D01*
X73702Y-53769D02*
X73202Y-53769D01*
X73274Y-53807D01*
X73321Y-53845D01*
X73345Y-53883D01*
X73202Y-53521D02*
X73202Y-53254D01*
X73702Y-53426D01*
X73560Y-55726D02*
X73560Y-55535D01*
X73702Y-55764D02*
X73202Y-55631D01*
X73702Y-55497D01*
X73702Y-55154D02*
X73702Y-55383D01*
X73702Y-55269D02*
X73202Y-55269D01*
X73274Y-55307D01*
X73321Y-55345D01*
X73345Y-55383D01*
X73202Y-54811D02*
X73202Y-54888D01*
X73226Y-54926D01*
X73250Y-54945D01*
X73321Y-54983D01*
X73417Y-55002D01*
X73607Y-55002D01*
X73655Y-54983D01*
X73679Y-54964D01*
X73702Y-54926D01*
X73702Y-54849D01*
X73679Y-54811D01*
X73655Y-54792D01*
X73607Y-54773D01*
X73488Y-54773D01*
X73440Y-54792D01*
X73417Y-54811D01*
X73393Y-54849D01*
X73393Y-54926D01*
X73417Y-54964D01*
X73440Y-54983D01*
X73488Y-55002D01*
X72560Y-54226D02*
X72560Y-54035D01*
X72702Y-54264D02*
X72202Y-54131D01*
X72702Y-53997D01*
X72702Y-53654D02*
X72702Y-53883D01*
X72702Y-53769D02*
X72202Y-53769D01*
X72274Y-53807D01*
X72321Y-53845D01*
X72345Y-53883D01*
X72202Y-53292D02*
X72202Y-53483D01*
X72440Y-53502D01*
X72417Y-53483D01*
X72393Y-53445D01*
X72393Y-53349D01*
X72417Y-53311D01*
X72440Y-53292D01*
X72488Y-53273D01*
X72607Y-53273D01*
X72655Y-53292D01*
X72679Y-53311D01*
X72702Y-53349D01*
X72702Y-53445D01*
X72679Y-53483D01*
X72655Y-53502D01*
X72560Y-55726D02*
X72560Y-55535D01*
X72702Y-55764D02*
X72202Y-55631D01*
X72702Y-55497D01*
X72702Y-55154D02*
X72702Y-55383D01*
X72702Y-55269D02*
X72202Y-55269D01*
X72274Y-55307D01*
X72321Y-55345D01*
X72345Y-55383D01*
X72369Y-54811D02*
X72702Y-54811D01*
X72179Y-54907D02*
X72536Y-55002D01*
X72536Y-54754D01*
X71560Y-54226D02*
X71560Y-54035D01*
X71702Y-54264D02*
X71202Y-54131D01*
X71702Y-53997D01*
X71702Y-53654D02*
X71702Y-53883D01*
X71702Y-53769D02*
X71202Y-53769D01*
X71274Y-53807D01*
X71321Y-53845D01*
X71345Y-53883D01*
X71202Y-53521D02*
X71202Y-53273D01*
X71393Y-53407D01*
X71393Y-53349D01*
X71417Y-53311D01*
X71440Y-53292D01*
X71488Y-53273D01*
X71607Y-53273D01*
X71655Y-53292D01*
X71679Y-53311D01*
X71702Y-53349D01*
X71702Y-53464D01*
X71679Y-53502D01*
X71655Y-53521D01*
X71560Y-55726D02*
X71560Y-55535D01*
X71702Y-55764D02*
X71202Y-55631D01*
X71702Y-55497D01*
X71702Y-55154D02*
X71702Y-55383D01*
X71702Y-55269D02*
X71202Y-55269D01*
X71274Y-55307D01*
X71321Y-55345D01*
X71345Y-55383D01*
X71250Y-55002D02*
X71226Y-54983D01*
X71202Y-54945D01*
X71202Y-54849D01*
X71226Y-54811D01*
X71250Y-54792D01*
X71298Y-54773D01*
X71345Y-54773D01*
X71417Y-54792D01*
X71702Y-55021D01*
X71702Y-54773D01*
X70560Y-54226D02*
X70560Y-54035D01*
X70702Y-54264D02*
X70202Y-54131D01*
X70702Y-53997D01*
X70702Y-53654D02*
X70702Y-53883D01*
X70702Y-53769D02*
X70202Y-53769D01*
X70274Y-53807D01*
X70321Y-53845D01*
X70345Y-53883D01*
X70702Y-53273D02*
X70702Y-53502D01*
X70702Y-53388D02*
X70202Y-53388D01*
X70274Y-53426D01*
X70321Y-53464D01*
X70345Y-53502D01*
X70560Y-55726D02*
X70560Y-55535D01*
X70702Y-55764D02*
X70202Y-55631D01*
X70702Y-55497D01*
X70702Y-55154D02*
X70702Y-55383D01*
X70702Y-55269D02*
X70202Y-55269D01*
X70274Y-55307D01*
X70321Y-55345D01*
X70345Y-55383D01*
X70202Y-54907D02*
X70202Y-54868D01*
X70226Y-54830D01*
X70250Y-54811D01*
X70298Y-54792D01*
X70393Y-54773D01*
X70512Y-54773D01*
X70607Y-54792D01*
X70655Y-54811D01*
X70679Y-54830D01*
X70702Y-54868D01*
X70702Y-54907D01*
X70679Y-54945D01*
X70655Y-54964D01*
X70607Y-54983D01*
X70512Y-55002D01*
X70393Y-55002D01*
X70298Y-54983D01*
X70250Y-54964D01*
X70226Y-54945D01*
X70202Y-54907D01*
X69560Y-54036D02*
X69560Y-53845D01*
X69702Y-54074D02*
X69202Y-53941D01*
X69702Y-53807D01*
X69702Y-53655D02*
X69702Y-53579D01*
X69679Y-53540D01*
X69655Y-53521D01*
X69583Y-53483D01*
X69488Y-53464D01*
X69298Y-53464D01*
X69250Y-53483D01*
X69226Y-53502D01*
X69202Y-53540D01*
X69202Y-53617D01*
X69226Y-53655D01*
X69250Y-53674D01*
X69298Y-53693D01*
X69417Y-53693D01*
X69464Y-53674D01*
X69488Y-53655D01*
X69512Y-53617D01*
X69512Y-53540D01*
X69488Y-53502D01*
X69464Y-53483D01*
X69417Y-53464D01*
X69560Y-55536D02*
X69560Y-55345D01*
X69702Y-55574D02*
X69202Y-55441D01*
X69702Y-55307D01*
X69417Y-55117D02*
X69393Y-55155D01*
X69369Y-55174D01*
X69321Y-55193D01*
X69298Y-55193D01*
X69250Y-55174D01*
X69226Y-55155D01*
X69202Y-55117D01*
X69202Y-55040D01*
X69226Y-55002D01*
X69250Y-54983D01*
X69298Y-54964D01*
X69321Y-54964D01*
X69369Y-54983D01*
X69393Y-55002D01*
X69417Y-55040D01*
X69417Y-55117D01*
X69440Y-55155D01*
X69464Y-55174D01*
X69512Y-55193D01*
X69607Y-55193D01*
X69655Y-55174D01*
X69679Y-55155D01*
X69702Y-55117D01*
X69702Y-55040D01*
X69679Y-55002D01*
X69655Y-54983D01*
X69607Y-54964D01*
X69512Y-54964D01*
X69464Y-54983D01*
X69440Y-55002D01*
X69417Y-55040D01*
X68560Y-54036D02*
X68560Y-53845D01*
X68702Y-54074D02*
X68202Y-53941D01*
X68702Y-53807D01*
X68202Y-53712D02*
X68202Y-53445D01*
X68702Y-53617D01*
X68560Y-55536D02*
X68560Y-55345D01*
X68702Y-55574D02*
X68202Y-55441D01*
X68702Y-55307D01*
X68202Y-55002D02*
X68202Y-55079D01*
X68226Y-55117D01*
X68250Y-55136D01*
X68321Y-55174D01*
X68417Y-55193D01*
X68607Y-55193D01*
X68655Y-55174D01*
X68679Y-55155D01*
X68702Y-55117D01*
X68702Y-55040D01*
X68679Y-55002D01*
X68655Y-54983D01*
X68607Y-54964D01*
X68488Y-54964D01*
X68440Y-54983D01*
X68417Y-55002D01*
X68393Y-55040D01*
X68393Y-55117D01*
X68417Y-55155D01*
X68440Y-55174D01*
X68488Y-55193D01*
X67560Y-54036D02*
X67560Y-53845D01*
X67702Y-54074D02*
X67202Y-53941D01*
X67702Y-53807D01*
X67202Y-53483D02*
X67202Y-53674D01*
X67440Y-53693D01*
X67417Y-53674D01*
X67393Y-53636D01*
X67393Y-53540D01*
X67417Y-53502D01*
X67440Y-53483D01*
X67488Y-53464D01*
X67607Y-53464D01*
X67655Y-53483D01*
X67679Y-53502D01*
X67702Y-53540D01*
X67702Y-53636D01*
X67679Y-53674D01*
X67655Y-53693D01*
X67560Y-55536D02*
X67560Y-55345D01*
X67702Y-55574D02*
X67202Y-55441D01*
X67702Y-55307D01*
X67369Y-55002D02*
X67702Y-55002D01*
X67179Y-55098D02*
X67536Y-55193D01*
X67536Y-54945D01*
X66560Y-54036D02*
X66560Y-53845D01*
X66702Y-54074D02*
X66202Y-53941D01*
X66702Y-53807D01*
X66202Y-53712D02*
X66202Y-53464D01*
X66393Y-53598D01*
X66393Y-53540D01*
X66417Y-53502D01*
X66440Y-53483D01*
X66488Y-53464D01*
X66607Y-53464D01*
X66655Y-53483D01*
X66679Y-53502D01*
X66702Y-53540D01*
X66702Y-53655D01*
X66679Y-53693D01*
X66655Y-53712D01*
X66560Y-55536D02*
X66560Y-55345D01*
X66702Y-55574D02*
X66202Y-55441D01*
X66702Y-55307D01*
X66250Y-55193D02*
X66226Y-55174D01*
X66202Y-55136D01*
X66202Y-55040D01*
X66226Y-55002D01*
X66250Y-54983D01*
X66298Y-54964D01*
X66345Y-54964D01*
X66417Y-54983D01*
X66702Y-55212D01*
X66702Y-54964D01*
X65560Y-54036D02*
X65560Y-53845D01*
X65702Y-54074D02*
X65202Y-53941D01*
X65702Y-53807D01*
X65702Y-53464D02*
X65702Y-53693D01*
X65702Y-53579D02*
X65202Y-53579D01*
X65274Y-53617D01*
X65321Y-53655D01*
X65345Y-53693D01*
X65560Y-55536D02*
X65560Y-55345D01*
X65702Y-55574D02*
X65202Y-55441D01*
X65702Y-55307D01*
X65202Y-55098D02*
X65202Y-55059D01*
X65226Y-55021D01*
X65250Y-55002D01*
X65298Y-54983D01*
X65393Y-54964D01*
X65512Y-54964D01*
X65607Y-54983D01*
X65655Y-55002D01*
X65679Y-55021D01*
X65702Y-55059D01*
X65702Y-55098D01*
X65679Y-55136D01*
X65655Y-55155D01*
X65607Y-55174D01*
X65512Y-55193D01*
X65393Y-55193D01*
X65298Y-55174D01*
X65250Y-55155D01*
X65226Y-55136D01*
X65202Y-55098D01*
X66440Y-38764D02*
X66440Y-38955D01*
X66298Y-38726D02*
X66798Y-38859D01*
X66298Y-38993D01*
X66298Y-39126D02*
X66798Y-39126D01*
X66798Y-39221D01*
X66774Y-39279D01*
X66726Y-39317D01*
X66679Y-39336D01*
X66583Y-39355D01*
X66512Y-39355D01*
X66417Y-39336D01*
X66369Y-39317D01*
X66321Y-39279D01*
X66298Y-39221D01*
X66298Y-39126D01*
X66798Y-39488D02*
X66798Y-39736D01*
X66607Y-39602D01*
X66607Y-39660D01*
X66583Y-39698D01*
X66560Y-39717D01*
X66512Y-39736D01*
X66393Y-39736D01*
X66345Y-39717D01*
X66321Y-39698D01*
X66298Y-39660D01*
X66298Y-39545D01*
X66321Y-39507D01*
X66345Y-39488D01*
X66440Y-37264D02*
X66440Y-37455D01*
X66298Y-37226D02*
X66798Y-37359D01*
X66298Y-37493D01*
X66298Y-37626D02*
X66798Y-37626D01*
X66798Y-37721D01*
X66774Y-37779D01*
X66726Y-37817D01*
X66679Y-37836D01*
X66583Y-37855D01*
X66512Y-37855D01*
X66417Y-37836D01*
X66369Y-37817D01*
X66321Y-37779D01*
X66298Y-37721D01*
X66298Y-37626D01*
X66750Y-38007D02*
X66774Y-38026D01*
X66798Y-38064D01*
X66798Y-38160D01*
X66774Y-38198D01*
X66750Y-38217D01*
X66702Y-38236D01*
X66655Y-38236D01*
X66583Y-38217D01*
X66298Y-37988D01*
X66298Y-38236D01*
X67440Y-38764D02*
X67440Y-38955D01*
X67298Y-38726D02*
X67798Y-38859D01*
X67298Y-38993D01*
X67298Y-39126D02*
X67798Y-39126D01*
X67798Y-39221D01*
X67774Y-39279D01*
X67726Y-39317D01*
X67679Y-39336D01*
X67583Y-39355D01*
X67512Y-39355D01*
X67417Y-39336D01*
X67369Y-39317D01*
X67321Y-39279D01*
X67298Y-39221D01*
X67298Y-39126D01*
X67298Y-39736D02*
X67298Y-39507D01*
X67298Y-39621D02*
X67798Y-39621D01*
X67726Y-39583D01*
X67679Y-39545D01*
X67655Y-39507D01*
X67440Y-37264D02*
X67440Y-37455D01*
X67298Y-37226D02*
X67798Y-37359D01*
X67298Y-37493D01*
X67298Y-37626D02*
X67798Y-37626D01*
X67798Y-37721D01*
X67774Y-37779D01*
X67726Y-37817D01*
X67679Y-37836D01*
X67583Y-37855D01*
X67512Y-37855D01*
X67417Y-37836D01*
X67369Y-37817D01*
X67321Y-37779D01*
X67298Y-37721D01*
X67298Y-37626D01*
X67798Y-38102D02*
X67798Y-38141D01*
X67774Y-38179D01*
X67750Y-38198D01*
X67702Y-38217D01*
X67607Y-38236D01*
X67488Y-38236D01*
X67393Y-38217D01*
X67345Y-38198D01*
X67321Y-38179D01*
X67298Y-38141D01*
X67298Y-38102D01*
X67321Y-38064D01*
X67345Y-38045D01*
X67393Y-38026D01*
X67488Y-38007D01*
X67607Y-38007D01*
X67702Y-38026D01*
X67750Y-38045D01*
X67774Y-38064D01*
X67798Y-38102D01*
X68298Y-38783D02*
X68798Y-38783D01*
X68798Y-38878D01*
X68774Y-38936D01*
X68726Y-38974D01*
X68679Y-38993D01*
X68583Y-39012D01*
X68512Y-39012D01*
X68417Y-38993D01*
X68369Y-38974D01*
X68321Y-38936D01*
X68298Y-38878D01*
X68298Y-38783D01*
X68440Y-39164D02*
X68440Y-39355D01*
X68298Y-39126D02*
X68798Y-39259D01*
X68298Y-39393D01*
X68298Y-39736D02*
X68298Y-39507D01*
X68298Y-39621D02*
X68798Y-39621D01*
X68726Y-39583D01*
X68679Y-39545D01*
X68655Y-39507D01*
X68298Y-37283D02*
X68798Y-37283D01*
X68798Y-37378D01*
X68774Y-37436D01*
X68726Y-37474D01*
X68679Y-37493D01*
X68583Y-37512D01*
X68512Y-37512D01*
X68417Y-37493D01*
X68369Y-37474D01*
X68321Y-37436D01*
X68298Y-37378D01*
X68298Y-37283D01*
X68440Y-37664D02*
X68440Y-37855D01*
X68298Y-37626D02*
X68798Y-37759D01*
X68298Y-37893D01*
X68798Y-38102D02*
X68798Y-38141D01*
X68774Y-38179D01*
X68750Y-38198D01*
X68702Y-38217D01*
X68607Y-38236D01*
X68488Y-38236D01*
X68393Y-38217D01*
X68345Y-38198D01*
X68321Y-38179D01*
X68298Y-38141D01*
X68298Y-38102D01*
X68321Y-38064D01*
X68345Y-38045D01*
X68393Y-38026D01*
X68488Y-38007D01*
X68607Y-38007D01*
X68702Y-38026D01*
X68750Y-38045D01*
X68774Y-38064D01*
X68798Y-38102D01*
X69774Y-38946D02*
X69798Y-38908D01*
X69798Y-38851D01*
X69774Y-38793D01*
X69726Y-38755D01*
X69679Y-38736D01*
X69583Y-38717D01*
X69512Y-38717D01*
X69417Y-38736D01*
X69369Y-38755D01*
X69321Y-38793D01*
X69298Y-38851D01*
X69298Y-38889D01*
X69321Y-38946D01*
X69345Y-38965D01*
X69512Y-38965D01*
X69512Y-38889D01*
X69298Y-39136D02*
X69798Y-39136D01*
X69298Y-39365D01*
X69798Y-39365D01*
X69298Y-39555D02*
X69798Y-39555D01*
X69798Y-39650D01*
X69774Y-39708D01*
X69726Y-39746D01*
X69679Y-39765D01*
X69583Y-39784D01*
X69512Y-39784D01*
X69417Y-39765D01*
X69369Y-39746D01*
X69321Y-39708D01*
X69298Y-39650D01*
X69298Y-39555D01*
X69774Y-37446D02*
X69798Y-37408D01*
X69798Y-37351D01*
X69774Y-37293D01*
X69726Y-37255D01*
X69679Y-37236D01*
X69583Y-37217D01*
X69512Y-37217D01*
X69417Y-37236D01*
X69369Y-37255D01*
X69321Y-37293D01*
X69298Y-37351D01*
X69298Y-37389D01*
X69321Y-37446D01*
X69345Y-37465D01*
X69512Y-37465D01*
X69512Y-37389D01*
X69298Y-37636D02*
X69798Y-37636D01*
X69298Y-37865D01*
X69798Y-37865D01*
X69298Y-38055D02*
X69798Y-38055D01*
X69798Y-38150D01*
X69774Y-38208D01*
X69726Y-38246D01*
X69679Y-38265D01*
X69583Y-38284D01*
X69512Y-38284D01*
X69417Y-38265D01*
X69369Y-38246D01*
X69321Y-38208D01*
X69298Y-38150D01*
X69298Y-38055D01*
X70298Y-39041D02*
X70798Y-39041D01*
X70298Y-39231D02*
X70798Y-39231D01*
X70298Y-39460D01*
X70798Y-39460D01*
X70798Y-37350D02*
X70798Y-37427D01*
X70774Y-37465D01*
X70726Y-37503D01*
X70631Y-37522D01*
X70464Y-37522D01*
X70369Y-37503D01*
X70321Y-37465D01*
X70298Y-37427D01*
X70298Y-37350D01*
X70321Y-37312D01*
X70369Y-37274D01*
X70464Y-37255D01*
X70631Y-37255D01*
X70726Y-37274D01*
X70774Y-37312D01*
X70798Y-37350D01*
X70798Y-37693D02*
X70393Y-37693D01*
X70345Y-37712D01*
X70321Y-37731D01*
X70298Y-37769D01*
X70298Y-37846D01*
X70321Y-37884D01*
X70345Y-37903D01*
X70393Y-37922D01*
X70798Y-37922D01*
X70798Y-38055D02*
X70798Y-38284D01*
X70298Y-38169D02*
X70798Y-38169D01*
X71798Y-38697D02*
X71679Y-38697D01*
X71726Y-38602D02*
X71679Y-38697D01*
X71726Y-38793D01*
X71583Y-38640D02*
X71679Y-38697D01*
X71583Y-38755D01*
X71798Y-38888D02*
X71798Y-39117D01*
X71298Y-39002D02*
X71798Y-39002D01*
X71298Y-39479D02*
X71536Y-39345D01*
X71298Y-39250D02*
X71798Y-39250D01*
X71798Y-39403D01*
X71774Y-39441D01*
X71750Y-39460D01*
X71702Y-39479D01*
X71631Y-39479D01*
X71583Y-39460D01*
X71560Y-39441D01*
X71536Y-39403D01*
X71536Y-39250D01*
X71774Y-39860D02*
X71798Y-39822D01*
X71798Y-39765D01*
X71774Y-39707D01*
X71726Y-39669D01*
X71679Y-39650D01*
X71583Y-39631D01*
X71512Y-39631D01*
X71417Y-39650D01*
X71369Y-39669D01*
X71321Y-39707D01*
X71298Y-39765D01*
X71298Y-39803D01*
X71321Y-39860D01*
X71345Y-39879D01*
X71512Y-39879D01*
X71512Y-39803D01*
X71798Y-37359D02*
X71679Y-37359D01*
X71726Y-37264D02*
X71679Y-37359D01*
X71726Y-37455D01*
X71583Y-37302D02*
X71679Y-37359D01*
X71583Y-37417D01*
X71345Y-37836D02*
X71321Y-37817D01*
X71298Y-37760D01*
X71298Y-37722D01*
X71321Y-37664D01*
X71369Y-37626D01*
X71417Y-37607D01*
X71512Y-37588D01*
X71583Y-37588D01*
X71679Y-37607D01*
X71726Y-37626D01*
X71774Y-37664D01*
X71798Y-37722D01*
X71798Y-37760D01*
X71774Y-37817D01*
X71750Y-37836D01*
X71631Y-38179D02*
X71298Y-38179D01*
X71821Y-38083D02*
X71464Y-37988D01*
X71464Y-38236D01*
X72345Y-38974D02*
X72321Y-38955D01*
X72298Y-38898D01*
X72298Y-38860D01*
X72321Y-38802D01*
X72369Y-38764D01*
X72417Y-38745D01*
X72512Y-38726D01*
X72583Y-38726D01*
X72679Y-38745D01*
X72726Y-38764D01*
X72774Y-38802D01*
X72798Y-38860D01*
X72798Y-38898D01*
X72774Y-38955D01*
X72750Y-38974D01*
X72798Y-39107D02*
X72798Y-39355D01*
X72607Y-39221D01*
X72607Y-39279D01*
X72583Y-39317D01*
X72560Y-39336D01*
X72512Y-39355D01*
X72393Y-39355D01*
X72345Y-39336D01*
X72321Y-39317D01*
X72298Y-39279D01*
X72298Y-39164D01*
X72321Y-39126D01*
X72345Y-39107D01*
X72298Y-39526D02*
X72798Y-39526D01*
X72298Y-39755D01*
X72798Y-39755D01*
X72345Y-37684D02*
X72321Y-37665D01*
X72298Y-37608D01*
X72298Y-37570D01*
X72321Y-37512D01*
X72369Y-37474D01*
X72417Y-37455D01*
X72512Y-37436D01*
X72583Y-37436D01*
X72679Y-37455D01*
X72726Y-37474D01*
X72774Y-37512D01*
X72798Y-37570D01*
X72798Y-37608D01*
X72774Y-37665D01*
X72750Y-37684D01*
X72798Y-37817D02*
X72798Y-38065D01*
X72607Y-37931D01*
X72607Y-37989D01*
X72583Y-38027D01*
X72560Y-38046D01*
X72512Y-38065D01*
X72393Y-38065D01*
X72345Y-38046D01*
X72321Y-38027D01*
X72298Y-37989D01*
X72298Y-37874D01*
X72321Y-37836D01*
X72345Y-37817D01*
X73345Y-38974D02*
X73321Y-38955D01*
X73298Y-38898D01*
X73298Y-38860D01*
X73321Y-38802D01*
X73369Y-38764D01*
X73417Y-38745D01*
X73512Y-38726D01*
X73583Y-38726D01*
X73679Y-38745D01*
X73726Y-38764D01*
X73774Y-38802D01*
X73798Y-38860D01*
X73798Y-38898D01*
X73774Y-38955D01*
X73750Y-38974D01*
X73750Y-39126D02*
X73774Y-39145D01*
X73798Y-39183D01*
X73798Y-39279D01*
X73774Y-39317D01*
X73750Y-39336D01*
X73702Y-39355D01*
X73655Y-39355D01*
X73583Y-39336D01*
X73298Y-39107D01*
X73298Y-39355D01*
X73298Y-39526D02*
X73798Y-39526D01*
X73298Y-39755D01*
X73798Y-39755D01*
X73345Y-37684D02*
X73321Y-37665D01*
X73298Y-37608D01*
X73298Y-37570D01*
X73321Y-37512D01*
X73369Y-37474D01*
X73417Y-37455D01*
X73512Y-37436D01*
X73583Y-37436D01*
X73679Y-37455D01*
X73726Y-37474D01*
X73774Y-37512D01*
X73798Y-37570D01*
X73798Y-37608D01*
X73774Y-37665D01*
X73750Y-37684D01*
X73750Y-37836D02*
X73774Y-37855D01*
X73798Y-37893D01*
X73798Y-37989D01*
X73774Y-38027D01*
X73750Y-38046D01*
X73702Y-38065D01*
X73655Y-38065D01*
X73583Y-38046D01*
X73298Y-37817D01*
X73298Y-38065D01*
X74345Y-38974D02*
X74321Y-38955D01*
X74298Y-38898D01*
X74298Y-38860D01*
X74321Y-38802D01*
X74369Y-38764D01*
X74417Y-38745D01*
X74512Y-38726D01*
X74583Y-38726D01*
X74679Y-38745D01*
X74726Y-38764D01*
X74774Y-38802D01*
X74798Y-38860D01*
X74798Y-38898D01*
X74774Y-38955D01*
X74750Y-38974D01*
X74298Y-39355D02*
X74298Y-39126D01*
X74298Y-39240D02*
X74798Y-39240D01*
X74726Y-39202D01*
X74679Y-39164D01*
X74655Y-39126D01*
X74298Y-39526D02*
X74798Y-39526D01*
X74298Y-39755D01*
X74798Y-39755D01*
X74345Y-37684D02*
X74321Y-37665D01*
X74298Y-37608D01*
X74298Y-37570D01*
X74321Y-37512D01*
X74369Y-37474D01*
X74417Y-37455D01*
X74512Y-37436D01*
X74583Y-37436D01*
X74679Y-37455D01*
X74726Y-37474D01*
X74774Y-37512D01*
X74798Y-37570D01*
X74798Y-37608D01*
X74774Y-37665D01*
X74750Y-37684D01*
X74298Y-38065D02*
X74298Y-37836D01*
X74298Y-37950D02*
X74798Y-37950D01*
X74726Y-37912D01*
X74679Y-37874D01*
X74655Y-37836D01*
X75798Y-37674D02*
X75798Y-37483D01*
X75560Y-37464D01*
X75583Y-37483D01*
X75607Y-37521D01*
X75607Y-37617D01*
X75583Y-37655D01*
X75560Y-37674D01*
X75512Y-37693D01*
X75393Y-37693D01*
X75345Y-37674D01*
X75321Y-37655D01*
X75298Y-37617D01*
X75298Y-37521D01*
X75321Y-37483D01*
X75345Y-37464D01*
X75798Y-37807D02*
X75298Y-37940D01*
X75798Y-38074D01*
X76298Y-38955D02*
X76798Y-38955D01*
X76798Y-39108D01*
X76774Y-39146D01*
X76750Y-39165D01*
X76702Y-39184D01*
X76631Y-39184D01*
X76583Y-39165D01*
X76560Y-39146D01*
X76536Y-39108D01*
X76536Y-38955D01*
X76798Y-39317D02*
X76798Y-39584D01*
X76298Y-39412D01*
X76298Y-37455D02*
X76798Y-37455D01*
X76798Y-37608D01*
X76774Y-37646D01*
X76750Y-37665D01*
X76702Y-37684D01*
X76631Y-37684D01*
X76583Y-37665D01*
X76560Y-37646D01*
X76536Y-37608D01*
X76536Y-37455D01*
X76798Y-38027D02*
X76798Y-37950D01*
X76774Y-37912D01*
X76750Y-37893D01*
X76679Y-37855D01*
X76583Y-37836D01*
X76393Y-37836D01*
X76345Y-37855D01*
X76321Y-37874D01*
X76298Y-37912D01*
X76298Y-37989D01*
X76321Y-38027D01*
X76345Y-38046D01*
X76393Y-38065D01*
X76512Y-38065D01*
X76560Y-38046D01*
X76583Y-38027D01*
X76607Y-37989D01*
X76607Y-37912D01*
X76583Y-37874D01*
X76560Y-37855D01*
X76512Y-37836D01*
X77298Y-38955D02*
X77798Y-38955D01*
X77798Y-39108D01*
X77774Y-39146D01*
X77750Y-39165D01*
X77702Y-39184D01*
X77631Y-39184D01*
X77583Y-39165D01*
X77560Y-39146D01*
X77536Y-39108D01*
X77536Y-38955D01*
X77798Y-39546D02*
X77798Y-39355D01*
X77560Y-39336D01*
X77583Y-39355D01*
X77607Y-39393D01*
X77607Y-39489D01*
X77583Y-39527D01*
X77560Y-39546D01*
X77512Y-39565D01*
X77393Y-39565D01*
X77345Y-39546D01*
X77321Y-39527D01*
X77298Y-39489D01*
X77298Y-39393D01*
X77321Y-39355D01*
X77345Y-39336D01*
X77298Y-37455D02*
X77798Y-37455D01*
X77798Y-37608D01*
X77774Y-37646D01*
X77750Y-37665D01*
X77702Y-37684D01*
X77631Y-37684D01*
X77583Y-37665D01*
X77560Y-37646D01*
X77536Y-37608D01*
X77536Y-37455D01*
X77631Y-38027D02*
X77298Y-38027D01*
X77821Y-37931D02*
X77464Y-37836D01*
X77464Y-38084D01*
X78298Y-38955D02*
X78798Y-38955D01*
X78798Y-39108D01*
X78774Y-39146D01*
X78750Y-39165D01*
X78702Y-39184D01*
X78631Y-39184D01*
X78583Y-39165D01*
X78560Y-39146D01*
X78536Y-39108D01*
X78536Y-38955D01*
X78798Y-39317D02*
X78798Y-39565D01*
X78607Y-39431D01*
X78607Y-39489D01*
X78583Y-39527D01*
X78560Y-39546D01*
X78512Y-39565D01*
X78393Y-39565D01*
X78345Y-39546D01*
X78321Y-39527D01*
X78298Y-39489D01*
X78298Y-39374D01*
X78321Y-39336D01*
X78345Y-39317D01*
X78298Y-37455D02*
X78798Y-37455D01*
X78798Y-37608D01*
X78774Y-37646D01*
X78750Y-37665D01*
X78702Y-37684D01*
X78631Y-37684D01*
X78583Y-37665D01*
X78560Y-37646D01*
X78536Y-37608D01*
X78536Y-37455D01*
X78750Y-37836D02*
X78774Y-37855D01*
X78798Y-37893D01*
X78798Y-37989D01*
X78774Y-38027D01*
X78750Y-38046D01*
X78702Y-38065D01*
X78655Y-38065D01*
X78583Y-38046D01*
X78298Y-37817D01*
X78298Y-38065D01*
X79298Y-38955D02*
X79798Y-38955D01*
X79798Y-39108D01*
X79774Y-39146D01*
X79750Y-39165D01*
X79702Y-39184D01*
X79631Y-39184D01*
X79583Y-39165D01*
X79560Y-39146D01*
X79536Y-39108D01*
X79536Y-38955D01*
X79298Y-39565D02*
X79298Y-39336D01*
X79298Y-39450D02*
X79798Y-39450D01*
X79726Y-39412D01*
X79679Y-39374D01*
X79655Y-39336D01*
X79298Y-37455D02*
X79798Y-37455D01*
X79798Y-37608D01*
X79774Y-37646D01*
X79750Y-37665D01*
X79702Y-37684D01*
X79631Y-37684D01*
X79583Y-37665D01*
X79560Y-37646D01*
X79536Y-37608D01*
X79536Y-37455D01*
X79798Y-37931D02*
X79798Y-37970D01*
X79774Y-38008D01*
X79750Y-38027D01*
X79702Y-38046D01*
X79607Y-38065D01*
X79488Y-38065D01*
X79393Y-38046D01*
X79345Y-38027D01*
X79321Y-38008D01*
X79298Y-37970D01*
X79298Y-37931D01*
X79321Y-37893D01*
X79345Y-37874D01*
X79393Y-37855D01*
X79488Y-37836D01*
X79607Y-37836D01*
X79702Y-37855D01*
X79750Y-37874D01*
X79774Y-37893D01*
X79798Y-37931D01*
X80298Y-39184D02*
X80536Y-39050D01*
X80298Y-38955D02*
X80798Y-38955D01*
X80798Y-39108D01*
X80774Y-39146D01*
X80750Y-39165D01*
X80702Y-39184D01*
X80631Y-39184D01*
X80583Y-39165D01*
X80560Y-39146D01*
X80536Y-39108D01*
X80536Y-38955D01*
X80798Y-39317D02*
X80298Y-39584D01*
X80798Y-39584D02*
X80298Y-39317D01*
X80798Y-37445D02*
X80798Y-37674D01*
X80298Y-37559D02*
X80798Y-37559D01*
X80798Y-37769D02*
X80298Y-38036D01*
X80798Y-38036D02*
X80298Y-37769D01*
X82798Y-37388D02*
X82298Y-37483D01*
X82655Y-37560D01*
X82298Y-37636D01*
X82798Y-37731D01*
X82321Y-37864D02*
X82298Y-37921D01*
X82298Y-38017D01*
X82321Y-38055D01*
X82345Y-38074D01*
X82393Y-38093D01*
X82440Y-38093D01*
X82488Y-38074D01*
X82512Y-38055D01*
X82536Y-38017D01*
X82560Y-37940D01*
X82583Y-37902D01*
X82607Y-37883D01*
X82655Y-37864D01*
X82702Y-37864D01*
X82750Y-37883D01*
X82774Y-37902D01*
X82798Y-37940D01*
X82798Y-38036D01*
X82774Y-38093D01*
X81321Y-37341D02*
X81298Y-37398D01*
X81298Y-37494D01*
X81321Y-37532D01*
X81345Y-37551D01*
X81393Y-37570D01*
X81440Y-37570D01*
X81488Y-37551D01*
X81512Y-37532D01*
X81536Y-37494D01*
X81560Y-37417D01*
X81583Y-37379D01*
X81607Y-37360D01*
X81655Y-37341D01*
X81702Y-37341D01*
X81750Y-37360D01*
X81774Y-37379D01*
X81798Y-37417D01*
X81798Y-37513D01*
X81774Y-37570D01*
X81298Y-37741D02*
X81798Y-37741D01*
X81798Y-37836D01*
X81774Y-37894D01*
X81726Y-37932D01*
X81679Y-37951D01*
X81583Y-37970D01*
X81512Y-37970D01*
X81417Y-37951D01*
X81369Y-37932D01*
X81321Y-37894D01*
X81298Y-37836D01*
X81298Y-37741D01*
X81298Y-38141D02*
X81798Y-38141D01*
X83298Y-38717D02*
X83798Y-38717D01*
X83440Y-38851D01*
X83798Y-38984D01*
X83298Y-38984D01*
X83345Y-39403D02*
X83321Y-39384D01*
X83298Y-39327D01*
X83298Y-39289D01*
X83321Y-39231D01*
X83369Y-39193D01*
X83417Y-39174D01*
X83512Y-39155D01*
X83583Y-39155D01*
X83679Y-39174D01*
X83726Y-39193D01*
X83774Y-39231D01*
X83798Y-39289D01*
X83798Y-39327D01*
X83774Y-39384D01*
X83750Y-39403D01*
X83298Y-39574D02*
X83798Y-39574D01*
X83298Y-39803D02*
X83583Y-39631D01*
X83798Y-39803D02*
X83512Y-39574D01*
X83345Y-37674D02*
X83321Y-37655D01*
X83298Y-37598D01*
X83298Y-37560D01*
X83321Y-37502D01*
X83369Y-37464D01*
X83417Y-37445D01*
X83512Y-37426D01*
X83583Y-37426D01*
X83679Y-37445D01*
X83726Y-37464D01*
X83774Y-37502D01*
X83798Y-37560D01*
X83798Y-37598D01*
X83774Y-37655D01*
X83750Y-37674D01*
X83298Y-37845D02*
X83798Y-37845D01*
X83298Y-38074D02*
X83583Y-37902D01*
X83798Y-38074D02*
X83512Y-37845D01*
X84298Y-38955D02*
X84798Y-38955D01*
X84798Y-39050D01*
X84774Y-39108D01*
X84726Y-39146D01*
X84679Y-39165D01*
X84583Y-39184D01*
X84512Y-39184D01*
X84417Y-39165D01*
X84369Y-39146D01*
X84321Y-39108D01*
X84298Y-39050D01*
X84298Y-38955D01*
X84798Y-39317D02*
X84798Y-39565D01*
X84607Y-39431D01*
X84607Y-39489D01*
X84583Y-39527D01*
X84560Y-39546D01*
X84512Y-39565D01*
X84393Y-39565D01*
X84345Y-39546D01*
X84321Y-39527D01*
X84298Y-39489D01*
X84298Y-39374D01*
X84321Y-39336D01*
X84345Y-39317D01*
X84298Y-37455D02*
X84798Y-37455D01*
X84798Y-37550D01*
X84774Y-37608D01*
X84726Y-37646D01*
X84679Y-37665D01*
X84583Y-37684D01*
X84512Y-37684D01*
X84417Y-37665D01*
X84369Y-37646D01*
X84321Y-37608D01*
X84298Y-37550D01*
X84298Y-37455D01*
X84750Y-37836D02*
X84774Y-37855D01*
X84798Y-37893D01*
X84798Y-37989D01*
X84774Y-38027D01*
X84750Y-38046D01*
X84702Y-38065D01*
X84655Y-38065D01*
X84583Y-38046D01*
X84298Y-37817D01*
X84298Y-38065D01*
X85298Y-38955D02*
X85798Y-38955D01*
X85798Y-39050D01*
X85774Y-39108D01*
X85726Y-39146D01*
X85679Y-39165D01*
X85583Y-39184D01*
X85512Y-39184D01*
X85417Y-39165D01*
X85369Y-39146D01*
X85321Y-39108D01*
X85298Y-39050D01*
X85298Y-38955D01*
X85298Y-39565D02*
X85298Y-39336D01*
X85298Y-39450D02*
X85798Y-39450D01*
X85726Y-39412D01*
X85679Y-39374D01*
X85655Y-39336D01*
X85298Y-37455D02*
X85798Y-37455D01*
X85798Y-37550D01*
X85774Y-37608D01*
X85726Y-37646D01*
X85679Y-37665D01*
X85583Y-37684D01*
X85512Y-37684D01*
X85417Y-37665D01*
X85369Y-37646D01*
X85321Y-37608D01*
X85298Y-37550D01*
X85298Y-37455D01*
X85798Y-37931D02*
X85798Y-37970D01*
X85774Y-38008D01*
X85750Y-38027D01*
X85702Y-38046D01*
X85607Y-38065D01*
X85488Y-38065D01*
X85393Y-38046D01*
X85345Y-38027D01*
X85321Y-38008D01*
X85298Y-37970D01*
X85298Y-37931D01*
X85321Y-37893D01*
X85345Y-37874D01*
X85393Y-37855D01*
X85488Y-37836D01*
X85607Y-37836D01*
X85702Y-37855D01*
X85750Y-37874D01*
X85774Y-37893D01*
X85798Y-37931D01*
X86345Y-38946D02*
X86321Y-38927D01*
X86298Y-38870D01*
X86298Y-38832D01*
X86321Y-38774D01*
X86369Y-38736D01*
X86417Y-38717D01*
X86512Y-38698D01*
X86583Y-38698D01*
X86679Y-38717D01*
X86726Y-38736D01*
X86774Y-38774D01*
X86798Y-38832D01*
X86798Y-38870D01*
X86774Y-38927D01*
X86750Y-38946D01*
X86298Y-39117D02*
X86798Y-39117D01*
X86440Y-39251D01*
X86798Y-39384D01*
X86298Y-39384D01*
X86298Y-39574D02*
X86798Y-39574D01*
X86798Y-39669D01*
X86774Y-39727D01*
X86726Y-39765D01*
X86679Y-39784D01*
X86583Y-39803D01*
X86512Y-39803D01*
X86417Y-39784D01*
X86369Y-39765D01*
X86321Y-39727D01*
X86298Y-39669D01*
X86298Y-39574D01*
X86345Y-37512D02*
X86321Y-37493D01*
X86298Y-37436D01*
X86298Y-37398D01*
X86321Y-37340D01*
X86369Y-37302D01*
X86417Y-37283D01*
X86512Y-37264D01*
X86583Y-37264D01*
X86679Y-37283D01*
X86726Y-37302D01*
X86774Y-37340D01*
X86798Y-37398D01*
X86798Y-37436D01*
X86774Y-37493D01*
X86750Y-37512D01*
X86298Y-37874D02*
X86298Y-37683D01*
X86798Y-37683D01*
X86298Y-38007D02*
X86798Y-38007D01*
X86298Y-38236D02*
X86583Y-38064D01*
X86798Y-38236D02*
X86512Y-38007D01*
X89298Y-38793D02*
X89798Y-38793D01*
X89798Y-38888D01*
X89774Y-38946D01*
X89726Y-38984D01*
X89679Y-39003D01*
X89583Y-39022D01*
X89512Y-39022D01*
X89417Y-39003D01*
X89369Y-38984D01*
X89321Y-38946D01*
X89298Y-38888D01*
X89298Y-38793D01*
X89798Y-39136D02*
X89798Y-39365D01*
X89298Y-39250D02*
X89798Y-39250D01*
X89298Y-39727D02*
X89536Y-39593D01*
X89298Y-39498D02*
X89798Y-39498D01*
X89798Y-39651D01*
X89774Y-39689D01*
X89750Y-39708D01*
X89702Y-39727D01*
X89631Y-39727D01*
X89583Y-39708D01*
X89560Y-39689D01*
X89536Y-39651D01*
X89536Y-39498D01*
X89298Y-37531D02*
X89536Y-37397D01*
X89298Y-37302D02*
X89798Y-37302D01*
X89798Y-37455D01*
X89774Y-37493D01*
X89750Y-37512D01*
X89702Y-37531D01*
X89631Y-37531D01*
X89583Y-37512D01*
X89560Y-37493D01*
X89536Y-37455D01*
X89536Y-37302D01*
X89798Y-37645D02*
X89798Y-37874D01*
X89298Y-37759D02*
X89798Y-37759D01*
X89321Y-37988D02*
X89298Y-38045D01*
X89298Y-38141D01*
X89321Y-38179D01*
X89345Y-38198D01*
X89393Y-38217D01*
X89440Y-38217D01*
X89488Y-38198D01*
X89512Y-38179D01*
X89536Y-38141D01*
X89560Y-38064D01*
X89583Y-38026D01*
X89607Y-38007D01*
X89655Y-37988D01*
X89702Y-37988D01*
X89750Y-38007D01*
X89774Y-38026D01*
X89798Y-38064D01*
X89798Y-38160D01*
X89774Y-38217D01*
X90345Y-39031D02*
X90321Y-39012D01*
X90298Y-38955D01*
X90298Y-38917D01*
X90321Y-38859D01*
X90369Y-38821D01*
X90417Y-38802D01*
X90512Y-38783D01*
X90583Y-38783D01*
X90679Y-38802D01*
X90726Y-38821D01*
X90774Y-38859D01*
X90798Y-38917D01*
X90798Y-38955D01*
X90774Y-39012D01*
X90750Y-39031D01*
X90798Y-39145D02*
X90798Y-39374D01*
X90298Y-39259D02*
X90798Y-39259D01*
X90321Y-39488D02*
X90298Y-39545D01*
X90298Y-39641D01*
X90321Y-39679D01*
X90345Y-39698D01*
X90393Y-39717D01*
X90440Y-39717D01*
X90488Y-39698D01*
X90512Y-39679D01*
X90536Y-39641D01*
X90560Y-39564D01*
X90583Y-39526D01*
X90607Y-39507D01*
X90655Y-39488D01*
X90702Y-39488D01*
X90750Y-39507D01*
X90774Y-39526D01*
X90798Y-39564D01*
X90798Y-39660D01*
X90774Y-39717D01*
X90345Y-37674D02*
X90321Y-37655D01*
X90298Y-37598D01*
X90298Y-37560D01*
X90321Y-37502D01*
X90369Y-37464D01*
X90417Y-37445D01*
X90512Y-37426D01*
X90583Y-37426D01*
X90679Y-37445D01*
X90726Y-37464D01*
X90774Y-37502D01*
X90798Y-37560D01*
X90798Y-37598D01*
X90774Y-37655D01*
X90750Y-37674D01*
X90298Y-37845D02*
X90798Y-37845D01*
X90298Y-38074D02*
X90583Y-37902D01*
X90798Y-38074D02*
X90512Y-37845D01*
X65440Y-38726D02*
X65440Y-38917D01*
X65298Y-38688D02*
X65798Y-38821D01*
X65298Y-38955D01*
X65345Y-39317D02*
X65321Y-39298D01*
X65298Y-39241D01*
X65298Y-39203D01*
X65321Y-39145D01*
X65369Y-39107D01*
X65417Y-39088D01*
X65512Y-39069D01*
X65583Y-39069D01*
X65679Y-39088D01*
X65726Y-39107D01*
X65774Y-39145D01*
X65798Y-39203D01*
X65798Y-39241D01*
X65774Y-39298D01*
X65750Y-39317D01*
X65298Y-39488D02*
X65798Y-39488D01*
X65440Y-39622D01*
X65798Y-39755D01*
X65298Y-39755D01*
X65440Y-37255D02*
X65440Y-37446D01*
X65298Y-37217D02*
X65798Y-37350D01*
X65298Y-37484D01*
X65345Y-37846D02*
X65321Y-37827D01*
X65298Y-37770D01*
X65298Y-37732D01*
X65321Y-37674D01*
X65369Y-37636D01*
X65417Y-37617D01*
X65512Y-37598D01*
X65583Y-37598D01*
X65679Y-37617D01*
X65726Y-37636D01*
X65774Y-37674D01*
X65798Y-37732D01*
X65798Y-37770D01*
X65774Y-37827D01*
X65750Y-37846D01*
X65298Y-38017D02*
X65798Y-38017D01*
X65798Y-38170D01*
X65774Y-38208D01*
X65750Y-38227D01*
X65702Y-38246D01*
X65631Y-38246D01*
X65583Y-38227D01*
X65560Y-38208D01*
X65536Y-38170D01*
X65536Y-38017D01*
X91298Y-38984D02*
X91536Y-38850D01*
X91298Y-38755D02*
X91798Y-38755D01*
X91798Y-38908D01*
X91774Y-38946D01*
X91750Y-38965D01*
X91702Y-38984D01*
X91631Y-38984D01*
X91583Y-38965D01*
X91560Y-38946D01*
X91536Y-38908D01*
X91536Y-38755D01*
X91798Y-39117D02*
X91298Y-39384D01*
X91798Y-39384D02*
X91298Y-39117D01*
X91298Y-39536D02*
X91798Y-39536D01*
X91798Y-39631D01*
X91774Y-39689D01*
X91726Y-39727D01*
X91679Y-39746D01*
X91583Y-39765D01*
X91512Y-39765D01*
X91417Y-39746D01*
X91369Y-39727D01*
X91321Y-39689D01*
X91298Y-39631D01*
X91298Y-39536D01*
X91798Y-37245D02*
X91798Y-37474D01*
X91298Y-37359D02*
X91798Y-37359D01*
X91798Y-37569D02*
X91298Y-37836D01*
X91798Y-37836D02*
X91298Y-37569D01*
X91298Y-37988D02*
X91798Y-37988D01*
X91798Y-38083D01*
X91774Y-38141D01*
X91726Y-38179D01*
X91679Y-38198D01*
X91583Y-38217D01*
X91512Y-38217D01*
X91417Y-38198D01*
X91369Y-38179D01*
X91321Y-38141D01*
X91298Y-38083D01*
X91298Y-37988D01*
G54D12*
X65000Y-37000D02*
X65000Y-40000D01*
X97000Y-56000D02*
X97000Y-53000D01*
X65000Y-56000D02*
X65000Y-53000D01*
G54D11*
X92321Y-38764D02*
X92298Y-38821D01*
X92298Y-38917D01*
X92321Y-38955D01*
X92345Y-38974D01*
X92393Y-38993D01*
X92440Y-38993D01*
X92488Y-38974D01*
X92512Y-38955D01*
X92536Y-38917D01*
X92560Y-38840D01*
X92583Y-38802D01*
X92607Y-38783D01*
X92655Y-38764D01*
X92702Y-38764D01*
X92750Y-38783D01*
X92774Y-38802D01*
X92798Y-38840D01*
X92798Y-38936D01*
X92774Y-38993D01*
X92298Y-39164D02*
X92798Y-39164D01*
X92798Y-39259D01*
X92774Y-39317D01*
X92726Y-39355D01*
X92679Y-39374D01*
X92583Y-39393D01*
X92512Y-39393D01*
X92417Y-39374D01*
X92369Y-39355D01*
X92321Y-39317D01*
X92298Y-39259D01*
X92298Y-39164D01*
X92440Y-39545D02*
X92440Y-39736D01*
X92298Y-39507D02*
X92798Y-39640D01*
X92298Y-39774D01*
X92321Y-37274D02*
X92298Y-37331D01*
X92298Y-37427D01*
X92321Y-37465D01*
X92345Y-37484D01*
X92393Y-37503D01*
X92440Y-37503D01*
X92488Y-37484D01*
X92512Y-37465D01*
X92536Y-37427D01*
X92560Y-37350D01*
X92583Y-37312D01*
X92607Y-37293D01*
X92655Y-37274D01*
X92702Y-37274D01*
X92750Y-37293D01*
X92774Y-37312D01*
X92798Y-37350D01*
X92798Y-37446D01*
X92774Y-37503D01*
X92345Y-37903D02*
X92321Y-37884D01*
X92298Y-37827D01*
X92298Y-37789D01*
X92321Y-37731D01*
X92369Y-37693D01*
X92417Y-37674D01*
X92512Y-37655D01*
X92583Y-37655D01*
X92679Y-37674D01*
X92726Y-37693D01*
X92774Y-37731D01*
X92798Y-37789D01*
X92798Y-37827D01*
X92774Y-37884D01*
X92750Y-37903D01*
X92298Y-38265D02*
X92298Y-38074D01*
X92798Y-38074D01*
X93345Y-38993D02*
X93321Y-38974D01*
X93298Y-38917D01*
X93298Y-38879D01*
X93321Y-38821D01*
X93369Y-38783D01*
X93417Y-38764D01*
X93512Y-38745D01*
X93583Y-38745D01*
X93679Y-38764D01*
X93726Y-38783D01*
X93774Y-38821D01*
X93798Y-38879D01*
X93798Y-38917D01*
X93774Y-38974D01*
X93750Y-38993D01*
X93321Y-39145D02*
X93298Y-39202D01*
X93298Y-39298D01*
X93321Y-39336D01*
X93345Y-39355D01*
X93393Y-39374D01*
X93440Y-39374D01*
X93488Y-39355D01*
X93512Y-39336D01*
X93536Y-39298D01*
X93560Y-39221D01*
X93583Y-39183D01*
X93607Y-39164D01*
X93655Y-39145D01*
X93702Y-39145D01*
X93750Y-39164D01*
X93774Y-39183D01*
X93798Y-39221D01*
X93798Y-39317D01*
X93774Y-39374D01*
X93298Y-39755D02*
X93298Y-39526D01*
X93298Y-39640D02*
X93798Y-39640D01*
X93726Y-39602D01*
X93679Y-39564D01*
X93655Y-39526D01*
X93321Y-37350D02*
X93298Y-37407D01*
X93298Y-37503D01*
X93321Y-37541D01*
X93345Y-37560D01*
X93393Y-37579D01*
X93440Y-37579D01*
X93488Y-37560D01*
X93512Y-37541D01*
X93536Y-37503D01*
X93560Y-37426D01*
X93583Y-37388D01*
X93607Y-37369D01*
X93655Y-37350D01*
X93702Y-37350D01*
X93750Y-37369D01*
X93774Y-37388D01*
X93798Y-37426D01*
X93798Y-37522D01*
X93774Y-37579D01*
X93298Y-37750D02*
X93798Y-37750D01*
X93298Y-38150D02*
X93298Y-37921D01*
X93298Y-38035D02*
X93798Y-38035D01*
X93726Y-37997D01*
X93679Y-37959D01*
X93655Y-37921D01*
X94321Y-38736D02*
X94298Y-38793D01*
X94298Y-38889D01*
X94321Y-38927D01*
X94345Y-38946D01*
X94393Y-38965D01*
X94440Y-38965D01*
X94488Y-38946D01*
X94512Y-38927D01*
X94536Y-38889D01*
X94560Y-38812D01*
X94583Y-38774D01*
X94607Y-38755D01*
X94655Y-38736D01*
X94702Y-38736D01*
X94750Y-38755D01*
X94774Y-38774D01*
X94798Y-38812D01*
X94798Y-38908D01*
X94774Y-38965D01*
X94798Y-39212D02*
X94798Y-39289D01*
X94774Y-39327D01*
X94726Y-39365D01*
X94631Y-39384D01*
X94464Y-39384D01*
X94369Y-39365D01*
X94321Y-39327D01*
X94298Y-39289D01*
X94298Y-39212D01*
X94321Y-39174D01*
X94369Y-39136D01*
X94464Y-39117D01*
X94631Y-39117D01*
X94726Y-39136D01*
X94774Y-39174D01*
X94798Y-39212D01*
X94298Y-39765D02*
X94298Y-39536D01*
X94298Y-39650D02*
X94798Y-39650D01*
X94726Y-39612D01*
X94679Y-39574D01*
X94655Y-39536D01*
X94321Y-37245D02*
X94298Y-37302D01*
X94298Y-37398D01*
X94321Y-37436D01*
X94345Y-37455D01*
X94393Y-37474D01*
X94440Y-37474D01*
X94488Y-37455D01*
X94512Y-37436D01*
X94536Y-37398D01*
X94560Y-37321D01*
X94583Y-37283D01*
X94607Y-37264D01*
X94655Y-37245D01*
X94702Y-37245D01*
X94750Y-37264D01*
X94774Y-37283D01*
X94798Y-37321D01*
X94798Y-37417D01*
X94774Y-37474D01*
X94298Y-37645D02*
X94798Y-37645D01*
X94298Y-37874D02*
X94583Y-37702D01*
X94798Y-37874D02*
X94512Y-37645D01*
X94298Y-38255D02*
X94298Y-38026D01*
X94298Y-38140D02*
X94798Y-38140D01*
X94726Y-38102D01*
X94679Y-38064D01*
X94655Y-38026D01*
X95345Y-38993D02*
X95321Y-38974D01*
X95298Y-38917D01*
X95298Y-38879D01*
X95321Y-38821D01*
X95369Y-38783D01*
X95417Y-38764D01*
X95512Y-38745D01*
X95583Y-38745D01*
X95679Y-38764D01*
X95726Y-38783D01*
X95774Y-38821D01*
X95798Y-38879D01*
X95798Y-38917D01*
X95774Y-38974D01*
X95750Y-38993D01*
X95321Y-39145D02*
X95298Y-39202D01*
X95298Y-39298D01*
X95321Y-39336D01*
X95345Y-39355D01*
X95393Y-39374D01*
X95440Y-39374D01*
X95488Y-39355D01*
X95512Y-39336D01*
X95536Y-39298D01*
X95560Y-39221D01*
X95583Y-39183D01*
X95607Y-39164D01*
X95655Y-39145D01*
X95702Y-39145D01*
X95750Y-39164D01*
X95774Y-39183D01*
X95798Y-39221D01*
X95798Y-39317D01*
X95774Y-39374D01*
X95798Y-39621D02*
X95798Y-39660D01*
X95774Y-39698D01*
X95750Y-39717D01*
X95702Y-39736D01*
X95607Y-39755D01*
X95488Y-39755D01*
X95393Y-39736D01*
X95345Y-39717D01*
X95321Y-39698D01*
X95298Y-39660D01*
X95298Y-39621D01*
X95321Y-39583D01*
X95345Y-39564D01*
X95393Y-39545D01*
X95488Y-39526D01*
X95607Y-39526D01*
X95702Y-39545D01*
X95750Y-39564D01*
X95774Y-39583D01*
X95798Y-39621D01*
X95321Y-37350D02*
X95298Y-37407D01*
X95298Y-37503D01*
X95321Y-37541D01*
X95345Y-37560D01*
X95393Y-37579D01*
X95440Y-37579D01*
X95488Y-37560D01*
X95512Y-37541D01*
X95536Y-37503D01*
X95560Y-37426D01*
X95583Y-37388D01*
X95607Y-37369D01*
X95655Y-37350D01*
X95702Y-37350D01*
X95750Y-37369D01*
X95774Y-37388D01*
X95798Y-37426D01*
X95798Y-37522D01*
X95774Y-37579D01*
X95298Y-37750D02*
X95798Y-37750D01*
X95798Y-38016D02*
X95798Y-38055D01*
X95774Y-38093D01*
X95750Y-38112D01*
X95702Y-38131D01*
X95607Y-38150D01*
X95488Y-38150D01*
X95393Y-38131D01*
X95345Y-38112D01*
X95321Y-38093D01*
X95298Y-38055D01*
X95298Y-38016D01*
X95321Y-37978D01*
X95345Y-37959D01*
X95393Y-37940D01*
X95488Y-37921D01*
X95607Y-37921D01*
X95702Y-37940D01*
X95750Y-37959D01*
X95774Y-37978D01*
X95798Y-38016D01*
X96321Y-38736D02*
X96298Y-38793D01*
X96298Y-38889D01*
X96321Y-38927D01*
X96345Y-38946D01*
X96393Y-38965D01*
X96440Y-38965D01*
X96488Y-38946D01*
X96512Y-38927D01*
X96536Y-38889D01*
X96560Y-38812D01*
X96583Y-38774D01*
X96607Y-38755D01*
X96655Y-38736D01*
X96702Y-38736D01*
X96750Y-38755D01*
X96774Y-38774D01*
X96798Y-38812D01*
X96798Y-38908D01*
X96774Y-38965D01*
X96798Y-39212D02*
X96798Y-39289D01*
X96774Y-39327D01*
X96726Y-39365D01*
X96631Y-39384D01*
X96464Y-39384D01*
X96369Y-39365D01*
X96321Y-39327D01*
X96298Y-39289D01*
X96298Y-39212D01*
X96321Y-39174D01*
X96369Y-39136D01*
X96464Y-39117D01*
X96631Y-39117D01*
X96726Y-39136D01*
X96774Y-39174D01*
X96798Y-39212D01*
X96798Y-39631D02*
X96798Y-39670D01*
X96774Y-39708D01*
X96750Y-39727D01*
X96702Y-39746D01*
X96607Y-39765D01*
X96488Y-39765D01*
X96393Y-39746D01*
X96345Y-39727D01*
X96321Y-39708D01*
X96298Y-39670D01*
X96298Y-39631D01*
X96321Y-39593D01*
X96345Y-39574D01*
X96393Y-39555D01*
X96488Y-39536D01*
X96607Y-39536D01*
X96702Y-39555D01*
X96750Y-39574D01*
X96774Y-39593D01*
X96798Y-39631D01*
X96321Y-37245D02*
X96298Y-37302D01*
X96298Y-37398D01*
X96321Y-37436D01*
X96345Y-37455D01*
X96393Y-37474D01*
X96440Y-37474D01*
X96488Y-37455D01*
X96512Y-37436D01*
X96536Y-37398D01*
X96560Y-37321D01*
X96583Y-37283D01*
X96607Y-37264D01*
X96655Y-37245D01*
X96702Y-37245D01*
X96750Y-37264D01*
X96774Y-37283D01*
X96798Y-37321D01*
X96798Y-37417D01*
X96774Y-37474D01*
X96298Y-37645D02*
X96798Y-37645D01*
X96298Y-37874D02*
X96583Y-37702D01*
X96798Y-37874D02*
X96512Y-37645D01*
X96798Y-38121D02*
X96798Y-38160D01*
X96774Y-38198D01*
X96750Y-38217D01*
X96702Y-38236D01*
X96607Y-38255D01*
X96488Y-38255D01*
X96393Y-38236D01*
X96345Y-38217D01*
X96321Y-38198D01*
X96298Y-38160D01*
X96298Y-38121D01*
X96321Y-38083D01*
X96345Y-38064D01*
X96393Y-38045D01*
X96488Y-38026D01*
X96607Y-38026D01*
X96702Y-38045D01*
X96750Y-38064D01*
X96774Y-38083D01*
X96798Y-38121D01*
G54D13*
X63008Y-42074D02*
X62808Y-41693D01*
X62665Y-42074D02*
X62665Y-41274D01*
X62893Y-41274D01*
X62951Y-41312D01*
X62979Y-41350D01*
X63008Y-41426D01*
X63008Y-41540D01*
X62979Y-41617D01*
X62951Y-41655D01*
X62893Y-41693D01*
X62665Y-41693D01*
X63493Y-42036D02*
X63436Y-42074D01*
X63322Y-42074D01*
X63265Y-42036D01*
X63236Y-41960D01*
X63236Y-41655D01*
X63265Y-41579D01*
X63322Y-41540D01*
X63436Y-41540D01*
X63493Y-41579D01*
X63522Y-41655D01*
X63522Y-41731D01*
X63236Y-41807D01*
X63750Y-42036D02*
X63807Y-42074D01*
X63922Y-42074D01*
X63979Y-42036D01*
X64007Y-41960D01*
X64007Y-41921D01*
X63979Y-41845D01*
X63922Y-41807D01*
X63836Y-41807D01*
X63779Y-41769D01*
X63750Y-41693D01*
X63750Y-41655D01*
X63779Y-41579D01*
X63836Y-41540D01*
X63922Y-41540D01*
X63979Y-41579D01*
X64493Y-42036D02*
X64436Y-42074D01*
X64322Y-42074D01*
X64265Y-42036D01*
X64236Y-41960D01*
X64236Y-41655D01*
X64265Y-41579D01*
X64322Y-41540D01*
X64436Y-41540D01*
X64493Y-41579D01*
X64522Y-41655D01*
X64522Y-41731D01*
X64236Y-41807D01*
X64693Y-41540D02*
X64922Y-41540D01*
X64779Y-41274D02*
X64779Y-41960D01*
X64807Y-42036D01*
X64865Y-42074D01*
X64922Y-42074D01*
X62665Y-37574D02*
X62665Y-36774D01*
X62922Y-37536D02*
X63008Y-37574D01*
X63151Y-37574D01*
X63208Y-37536D01*
X63237Y-37498D01*
X63265Y-37421D01*
X63265Y-37345D01*
X63237Y-37269D01*
X63208Y-37231D01*
X63151Y-37193D01*
X63037Y-37155D01*
X62979Y-37117D01*
X62951Y-37079D01*
X62922Y-37002D01*
X62922Y-36926D01*
X62951Y-36850D01*
X62979Y-36812D01*
X63037Y-36774D01*
X63179Y-36774D01*
X63265Y-36812D01*
X63522Y-37574D02*
X63522Y-36774D01*
X63750Y-36774D01*
X63808Y-36812D01*
X63836Y-36850D01*
X63865Y-36926D01*
X63865Y-37040D01*
X63836Y-37117D01*
X63808Y-37155D01*
X63750Y-37193D01*
X63522Y-37193D01*
X77000Y-43250D02*
X76995Y-43298D01*
X76981Y-43345D01*
X76958Y-43388D01*
X76927Y-43426D01*
X76889Y-43457D01*
X76846Y-43480D01*
X76800Y-43494D01*
X76751Y-43499D01*
X76704Y-43495D01*
X76657Y-43481D01*
X76614Y-43459D01*
X76576Y-43428D01*
X76544Y-43391D01*
X76521Y-43348D01*
X76506Y-43301D01*
X76501Y-43253D01*
X76505Y-43205D01*
X76518Y-43158D01*
X76540Y-43115D01*
X76571Y-43077D01*
X76608Y-43045D01*
X76650Y-43021D01*
X76697Y-43006D01*
X76745Y-43001D01*
X76793Y-43004D01*
X76840Y-43017D01*
X76883Y-43039D01*
X76922Y-43069D01*
X76954Y-43106D01*
X76978Y-43149D01*
X76993Y-43195D01*
X76999Y-43244D01*
X77000Y-43250D01*
X76300Y-43100D02*
X76300Y-43010D01*
X76300Y-43010D02*
X76000Y-43010D01*
X76000Y-43100D02*
X76300Y-43100D01*
X76000Y-50250D02*
X76250Y-50500D01*
X76250Y-50500D02*
X83750Y-50500D01*
X83750Y-50500D02*
X84000Y-50250D01*
X84000Y-50250D02*
X84000Y-42750D01*
X84000Y-42750D02*
X83750Y-42500D01*
X83750Y-42500D02*
X76250Y-42500D01*
X76250Y-42500D02*
X76000Y-42750D01*
X76000Y-42750D02*
X76000Y-50250D01*
G54D14*
X66900Y-47600D02*
X65700Y-47600D01*
X65700Y-47600D02*
X65700Y-50400D01*
X65700Y-50400D02*
X66900Y-50400D01*
X68100Y-47600D02*
X68400Y-47600D01*
X68400Y-47600D02*
X69300Y-48200D01*
X69300Y-48200D02*
X69300Y-49800D01*
X69300Y-49800D02*
X68400Y-50400D01*
X68400Y-50400D02*
X68100Y-50400D01*
G54D15*
X68220Y-50850D02*
X68218Y-50863D01*
X68214Y-50876D01*
X68208Y-50888D01*
X68199Y-50899D01*
X68189Y-50908D01*
X68177Y-50914D01*
X68164Y-50918D01*
X68150Y-50919D01*
X68137Y-50918D01*
X68124Y-50914D01*
X68112Y-50908D01*
X68102Y-50900D01*
X68093Y-50889D01*
X68086Y-50877D01*
X68082Y-50864D01*
X68081Y-50850D01*
X68082Y-50838D01*
X68085Y-50825D01*
X68092Y-50813D01*
X68100Y-50802D01*
X68111Y-50793D01*
X68122Y-50786D01*
X68135Y-50782D01*
X68149Y-50781D01*
X68162Y-50782D01*
X68175Y-50785D01*
X68187Y-50791D01*
X68198Y-50800D01*
X68207Y-50810D01*
X68213Y-50822D01*
X68218Y-50835D01*
X68219Y-50849D01*
X68220Y-50850D01*
X66650Y-50900D02*
X65900Y-50900D01*
X65900Y-50900D02*
X65900Y-52100D01*
X65900Y-52100D02*
X66650Y-52100D01*
X67300Y-52100D02*
X68100Y-52100D01*
X68100Y-52100D02*
X68100Y-50900D01*
X68100Y-50900D02*
X67300Y-50900D01*
X68220Y-45850D02*
X68218Y-45863D01*
X68214Y-45876D01*
X68208Y-45888D01*
X68199Y-45899D01*
X68189Y-45908D01*
X68177Y-45914D01*
X68164Y-45918D01*
X68150Y-45919D01*
X68137Y-45918D01*
X68124Y-45914D01*
X68112Y-45908D01*
X68102Y-45900D01*
X68093Y-45889D01*
X68086Y-45877D01*
X68082Y-45864D01*
X68081Y-45850D01*
X68082Y-45838D01*
X68085Y-45825D01*
X68092Y-45813D01*
X68100Y-45802D01*
X68111Y-45793D01*
X68122Y-45786D01*
X68135Y-45782D01*
X68149Y-45781D01*
X68162Y-45782D01*
X68175Y-45785D01*
X68187Y-45791D01*
X68198Y-45800D01*
X68207Y-45810D01*
X68213Y-45822D01*
X68218Y-45835D01*
X68219Y-45849D01*
X68220Y-45850D01*
X66650Y-45900D02*
X65900Y-45900D01*
X65900Y-45900D02*
X65900Y-47100D01*
X65900Y-47100D02*
X66650Y-47100D01*
X67300Y-47100D02*
X68100Y-47100D01*
X68100Y-47100D02*
X68100Y-45900D01*
X68100Y-45900D02*
X67300Y-45900D01*
X73300Y-52150D02*
X72800Y-52150D01*
X72800Y-52150D02*
X72800Y-52850D01*
X72800Y-52850D02*
X73300Y-52850D01*
X73700Y-52150D02*
X74200Y-52150D01*
X74200Y-52150D02*
X74200Y-52850D01*
X74200Y-52850D02*
X73700Y-52850D01*
X74200Y-41250D02*
X74700Y-41250D01*
X74700Y-41250D02*
X74700Y-40550D01*
X74700Y-40550D02*
X74200Y-40550D01*
X73800Y-41250D02*
X73300Y-41250D01*
X73300Y-41250D02*
X73300Y-40550D01*
X73300Y-40550D02*
X73800Y-40550D01*
X73300Y-48150D02*
X72800Y-48150D01*
X72800Y-48150D02*
X72800Y-48850D01*
X72800Y-48850D02*
X73300Y-48850D01*
X73700Y-48150D02*
X74200Y-48150D01*
X74200Y-48150D02*
X74200Y-48850D01*
X74200Y-48850D02*
X73700Y-48850D01*
X66300Y-43650D02*
X65800Y-43650D01*
X65800Y-43650D02*
X65800Y-44350D01*
X65800Y-44350D02*
X66300Y-44350D01*
X66700Y-43650D02*
X67200Y-43650D01*
X67200Y-43650D02*
X67200Y-44350D01*
X67200Y-44350D02*
X66700Y-44350D01*
X66300Y-44650D02*
X65800Y-44650D01*
X65800Y-44650D02*
X65800Y-45350D01*
X65800Y-45350D02*
X66300Y-45350D01*
X66700Y-44650D02*
X67200Y-44650D01*
X67200Y-44650D02*
X67200Y-45350D01*
X67200Y-45350D02*
X66700Y-45350D01*
X66300Y-42650D02*
X65800Y-42650D01*
X65800Y-42650D02*
X65800Y-43350D01*
X65800Y-43350D02*
X66300Y-43350D01*
X66700Y-42650D02*
X67200Y-42650D01*
X67200Y-42650D02*
X67200Y-43350D01*
X67200Y-43350D02*
X66700Y-43350D01*
X73700Y-49850D02*
X74200Y-49850D01*
X74200Y-49850D02*
X74200Y-49150D01*
X74200Y-49150D02*
X73700Y-49150D01*
X73300Y-49850D02*
X72800Y-49850D01*
X72800Y-49850D02*
X72800Y-49150D01*
X72800Y-49150D02*
X73300Y-49150D01*
X73700Y-50850D02*
X74200Y-50850D01*
X74200Y-50850D02*
X74200Y-50150D01*
X74200Y-50150D02*
X73700Y-50150D01*
X73300Y-50850D02*
X72800Y-50850D01*
X72800Y-50850D02*
X72800Y-50150D01*
X72800Y-50150D02*
X73300Y-50150D01*
X66300Y-41650D02*
X65800Y-41650D01*
X65800Y-41650D02*
X65800Y-42350D01*
X65800Y-42350D02*
X66300Y-42350D01*
X66700Y-41650D02*
X67200Y-41650D01*
X67200Y-41650D02*
X67200Y-42350D01*
X67200Y-42350D02*
X66700Y-42350D01*
X73700Y-51850D02*
X74200Y-51850D01*
X74200Y-51850D02*
X74200Y-51150D01*
X74200Y-51150D02*
X73700Y-51150D01*
X73300Y-51850D02*
X72800Y-51850D01*
X72800Y-51850D02*
X72800Y-51150D01*
X72800Y-51150D02*
X73300Y-51150D01*
X73300Y-46150D02*
X72800Y-46150D01*
X72800Y-46150D02*
X72800Y-46850D01*
X72800Y-46850D02*
X73300Y-46850D01*
X73700Y-46150D02*
X74200Y-46150D01*
X74200Y-46150D02*
X74200Y-46850D01*
X74200Y-46850D02*
X73700Y-46850D01*
X73700Y-47850D02*
X74200Y-47850D01*
X74200Y-47850D02*
X74200Y-47150D01*
X74200Y-47150D02*
X73700Y-47150D01*
X73300Y-47850D02*
X72800Y-47850D01*
X72800Y-47850D02*
X72800Y-47150D01*
X72800Y-47150D02*
X73300Y-47150D01*
G54D12*
X61000Y-59000D02*
X61000Y-49000D01*
X61000Y-49000D02*
X63000Y-49000D01*
X63000Y-49000D02*
X63000Y-59000D01*
X63000Y-59000D02*
X61000Y-59000D01*
X70550Y-47200D02*
X70550Y-49800D01*
X72450Y-49800D02*
X72450Y-47200D01*
X70550Y-49800D02*
X70554Y-49882D01*
X70565Y-49964D01*
X70583Y-50045D01*
X70608Y-50124D01*
X70640Y-50201D01*
X70678Y-50274D01*
X70722Y-50344D01*
X70773Y-50410D01*
X70829Y-50471D01*
X70890Y-50527D01*
X70956Y-50578D01*
X71026Y-50622D01*
X71099Y-50660D01*
X71176Y-50692D01*
X71255Y-50717D01*
X71336Y-50735D01*
X71418Y-50746D01*
X71500Y-50750D01*
X71500Y-50750D02*
X71582Y-50746D01*
X71664Y-50735D01*
X71745Y-50717D01*
X71824Y-50692D01*
X71901Y-50660D01*
X71975Y-50622D01*
X72044Y-50578D01*
X72110Y-50527D01*
X72171Y-50471D01*
X72227Y-50410D01*
X72278Y-50344D01*
X72322Y-50274D01*
X72360Y-50201D01*
X72392Y-50124D01*
X72417Y-50045D01*
X72435Y-49964D01*
X72446Y-49882D01*
X72450Y-49800D01*
X72450Y-47200D02*
X72446Y-47118D01*
X72435Y-47036D01*
X72417Y-46955D01*
X72392Y-46876D01*
X72360Y-46799D01*
X72322Y-46726D01*
X72278Y-46656D01*
X72227Y-46590D01*
X72171Y-46529D01*
X72110Y-46473D01*
X72044Y-46422D01*
X71975Y-46378D01*
X71901Y-46340D01*
X71824Y-46308D01*
X71745Y-46283D01*
X71664Y-46265D01*
X71582Y-46254D01*
X71500Y-46250D01*
X71500Y-46250D02*
X71418Y-46254D01*
X71336Y-46265D01*
X71255Y-46283D01*
X71176Y-46308D01*
X71099Y-46340D01*
X71026Y-46378D01*
X70956Y-46422D01*
X70890Y-46473D01*
X70829Y-46529D01*
X70773Y-46590D01*
X70722Y-46656D01*
X70678Y-46726D01*
X70640Y-46799D01*
X70608Y-46876D01*
X70583Y-46955D01*
X70565Y-47036D01*
X70554Y-47118D01*
X70550Y-47200D01*
G54D15*
X73600Y-44750D02*
X74100Y-44750D01*
X74100Y-44750D02*
X74100Y-44050D01*
X74100Y-44050D02*
X73600Y-44050D01*
X73200Y-44750D02*
X72700Y-44750D01*
X72700Y-44750D02*
X72700Y-44050D01*
X72700Y-44050D02*
X73200Y-44050D01*
X73200Y-43050D02*
X72700Y-43050D01*
X72700Y-43050D02*
X72700Y-43750D01*
X72700Y-43750D02*
X73200Y-43750D01*
X73600Y-43050D02*
X74100Y-43050D01*
X74100Y-43050D02*
X74100Y-43750D01*
X74100Y-43750D02*
X73600Y-43750D01*
G54D12*
X72500Y-44300D02*
X72480Y-44494D01*
X72424Y-44681D01*
X72332Y-44853D01*
X72209Y-45004D01*
X72059Y-45129D01*
X71887Y-45221D01*
X71701Y-45279D01*
X71506Y-45299D01*
X71313Y-45282D01*
X71126Y-45227D01*
X70953Y-45136D01*
X70801Y-45014D01*
X70675Y-44864D01*
X70581Y-44693D01*
X70522Y-44507D01*
X70501Y-44313D01*
X70517Y-44120D01*
X70571Y-43932D01*
X70660Y-43759D01*
X70781Y-43606D01*
X70930Y-43479D01*
X71100Y-43384D01*
X71286Y-43324D01*
X71480Y-43301D01*
X71673Y-43316D01*
X71861Y-43368D01*
X72035Y-43456D01*
X72189Y-43576D01*
X72317Y-43724D01*
X72413Y-43894D01*
X72475Y-44079D01*
X72499Y-44273D01*
X72500Y-44300D01*
G54D15*
X64700Y-51350D02*
X65200Y-51350D01*
X65200Y-51350D02*
X65200Y-50650D01*
X65200Y-50650D02*
X64700Y-50650D01*
X64300Y-51350D02*
X63800Y-51350D01*
X63800Y-51350D02*
X63800Y-50650D01*
X63800Y-50650D02*
X64300Y-50650D01*
X63675Y-51650D02*
X63575Y-51750D01*
X63575Y-51750D02*
X63575Y-52250D01*
X63575Y-52250D02*
X63675Y-52350D01*
X64075Y-51650D02*
X63675Y-51650D01*
X63675Y-51650D02*
X63675Y-52350D01*
X63675Y-52350D02*
X64075Y-52350D01*
X64925Y-51650D02*
X65325Y-51650D01*
X65325Y-51650D02*
X65325Y-52350D01*
X65325Y-52350D02*
X64925Y-52350D01*
X82050Y-44450D02*
X82050Y-48550D01*
X82050Y-48550D02*
X77950Y-48550D01*
X77950Y-48550D02*
X77950Y-44750D01*
X77950Y-44750D02*
X78250Y-44450D01*
X78250Y-44450D02*
X82050Y-44450D01*
X78650Y-44900D02*
X78645Y-44948D01*
X78631Y-44995D01*
X78608Y-45038D01*
X78577Y-45076D01*
X78539Y-45107D01*
X78496Y-45130D01*
X78450Y-45144D01*
X78401Y-45149D01*
X78354Y-45145D01*
X78307Y-45131D01*
X78264Y-45109D01*
X78226Y-45078D01*
X78194Y-45041D01*
X78171Y-44998D01*
X78156Y-44951D01*
X78151Y-44903D01*
X78155Y-44855D01*
X78168Y-44808D01*
X78190Y-44765D01*
X78221Y-44727D01*
X78258Y-44695D01*
X78300Y-44671D01*
X78347Y-44656D01*
X78395Y-44651D01*
X78443Y-44654D01*
X78490Y-44667D01*
X78533Y-44689D01*
X78572Y-44719D01*
X78604Y-44756D01*
X78628Y-44799D01*
X78643Y-44845D01*
X78649Y-44894D01*
X78650Y-44900D01*
X75700Y-52850D02*
X76200Y-52850D01*
X76200Y-52850D02*
X76200Y-52150D01*
X76200Y-52150D02*
X75700Y-52150D01*
X75300Y-52850D02*
X74800Y-52850D01*
X74800Y-52850D02*
X74800Y-52150D01*
X74800Y-52150D02*
X75300Y-52150D01*
X83300Y-51950D02*
X82800Y-51950D01*
X82800Y-51950D02*
X82800Y-52650D01*
X82800Y-52650D02*
X83300Y-52650D01*
X83700Y-51950D02*
X84200Y-51950D01*
X84200Y-51950D02*
X84200Y-52650D01*
X84200Y-52650D02*
X83700Y-52650D01*
X86400Y-45950D02*
X86400Y-46450D01*
X86400Y-46450D02*
X87100Y-46450D01*
X87100Y-46450D02*
X87100Y-45950D01*
X86400Y-45550D02*
X86400Y-45050D01*
X86400Y-45050D02*
X87100Y-45050D01*
X87100Y-45050D02*
X87100Y-45550D01*
X85050Y-43100D02*
X85050Y-43600D01*
X85050Y-43600D02*
X85750Y-43600D01*
X85750Y-43600D02*
X85750Y-43100D01*
X85050Y-42700D02*
X85050Y-42200D01*
X85050Y-42200D02*
X85750Y-42200D01*
X85750Y-42200D02*
X85750Y-42700D01*
X76100Y-41250D02*
X76600Y-41250D01*
X76600Y-41250D02*
X76600Y-40550D01*
X76600Y-40550D02*
X76100Y-40550D01*
X75700Y-41250D02*
X75200Y-41250D01*
X75200Y-41250D02*
X75200Y-40550D01*
X75200Y-40550D02*
X75700Y-40550D01*
G54D10*
X69500Y-42200D02*
X69500Y-41200D01*
X69500Y-41200D02*
X72500Y-41200D01*
X72500Y-41200D02*
X72500Y-42200D01*
X72500Y-42200D02*
X69500Y-42200D01*
X70500Y-41200D02*
X70500Y-42200D01*
X69500Y-43200D02*
X69500Y-42200D01*
X69500Y-42200D02*
X72500Y-42200D01*
X72500Y-42200D02*
X72500Y-43200D01*
X72500Y-43200D02*
X69500Y-43200D01*
X70500Y-42200D02*
X70500Y-43200D01*
G54D12*
X60650Y-46100D02*
X60650Y-46800D01*
X64400Y-46100D02*
X60650Y-46100D01*
X60650Y-42200D02*
X60650Y-42900D01*
X60650Y-42900D02*
X64400Y-42900D01*
X64400Y-43600D02*
X64000Y-43600D01*
X64400Y-42900D02*
X64400Y-43600D01*
X64000Y-43600D02*
X64000Y-45400D01*
X64000Y-45400D02*
X64400Y-45400D01*
X64400Y-45400D02*
X64400Y-46100D01*
X63325Y-36575D02*
X62931Y-36575D01*
X63325Y-33425D02*
X62931Y-33425D01*
X61750Y-33425D02*
X60175Y-33425D01*
X60175Y-33425D02*
X60175Y-36575D01*
X60175Y-36575D02*
X61750Y-36575D01*
X63325Y-33425D02*
X63325Y-36575D01*
X63325Y-41075D02*
X62931Y-41075D01*
X63325Y-37925D02*
X62931Y-37925D01*
X61750Y-37925D02*
X60175Y-37925D01*
X60175Y-37925D02*
X60175Y-41075D01*
X60175Y-41075D02*
X61750Y-41075D01*
X63325Y-37925D02*
X63325Y-41075D01*
X97000Y-36000D02*
X65000Y-36000D01*
X65000Y-36000D02*
X65000Y-34000D01*
X65000Y-34000D02*
X97000Y-34000D01*
X97000Y-34000D02*
X97000Y-36000D01*
X65000Y-57000D02*
X97000Y-57000D01*
X97000Y-57000D02*
X97000Y-59000D01*
X97000Y-59000D02*
X65000Y-59000D01*
X65000Y-59000D02*
X65000Y-57000D01*
G54D15*
X95200Y-43350D02*
X95700Y-43350D01*
X95700Y-43350D02*
X95700Y-42650D01*
X95700Y-42650D02*
X95200Y-42650D01*
X94800Y-43350D02*
X94300Y-43350D01*
X94300Y-43350D02*
X94300Y-42650D01*
X94300Y-42650D02*
X94800Y-42650D01*
X95200Y-42350D02*
X95700Y-42350D01*
X95700Y-42350D02*
X95700Y-41650D01*
X95700Y-41650D02*
X95200Y-41650D01*
X94800Y-42350D02*
X94300Y-42350D01*
X94300Y-42350D02*
X94300Y-41650D01*
X94300Y-41650D02*
X94800Y-41650D01*
G54D13*
X96000Y-43500D02*
X96000Y-41500D01*
X96000Y-41500D02*
X98000Y-41500D01*
X98000Y-41500D02*
X98000Y-43500D01*
X98000Y-43500D02*
X96000Y-43500D01*
G54D16*
G36*
X93566Y-45566D02*
X93566Y-43434D01*
X91434Y-43434D01*
X91434Y-45566D01*
X91865Y-45566D01*
X91865Y-45466D01*
X91861Y-45466D01*
X91660Y-45462D01*
X91558Y-45446D01*
X91521Y-45413D01*
X91519Y-45403D01*
X91511Y-45288D01*
X91506Y-45073D01*
X91502Y-44784D01*
X91500Y-44448D01*
X91501Y-44286D01*
X91502Y-43963D01*
X91507Y-43746D01*
X91516Y-43615D01*
X91529Y-43551D01*
X91549Y-43534D01*
X91585Y-43540D01*
X91625Y-43580D01*
X91650Y-43676D01*
X91661Y-43847D01*
X91661Y-44111D01*
X91652Y-44490D01*
X91643Y-44843D01*
X91642Y-45104D01*
X91649Y-45252D01*
X91664Y-45300D01*
X91678Y-45264D01*
X91691Y-45119D01*
X91698Y-44855D01*
X91700Y-44467D01*
X91700Y-44412D01*
X91702Y-44077D01*
X91706Y-43853D01*
X91715Y-43717D01*
X91729Y-43651D01*
X91749Y-43634D01*
X91768Y-43635D01*
X91812Y-43665D01*
X91841Y-43748D01*
X91857Y-43905D01*
X91862Y-44154D01*
X91860Y-44516D01*
X91858Y-44786D01*
X91858Y-45035D01*
X91861Y-45203D01*
X91867Y-45264D01*
X91872Y-45259D01*
X91935Y-45180D01*
X92056Y-45017D01*
X92222Y-44791D01*
X92417Y-44522D01*
X92498Y-44412D01*
X92697Y-44139D01*
X92842Y-43950D01*
X92947Y-43828D01*
X93027Y-43754D01*
X93098Y-43709D01*
X93169Y-43680D01*
X93317Y-43642D01*
X93445Y-43631D01*
X93500Y-43654D01*
X93493Y-43665D01*
X93430Y-43760D01*
X93311Y-43931D01*
X93152Y-44157D01*
X92969Y-44414D01*
X92777Y-44680D01*
X92595Y-44933D01*
X92437Y-45151D01*
X92318Y-45311D01*
X92256Y-45391D01*
X92235Y-45413D01*
X92173Y-45448D01*
X92064Y-45463D01*
X91865Y-45466D01*
X91865Y-45566D01*
X93566Y-45566D01*
X93566Y-45566D01*
G37*
G54D11*
X75595Y-41743D02*
X75595Y-42229D01*
X75614Y-42286D01*
X75633Y-42314D01*
X75671Y-42343D01*
X75748Y-42343D01*
X75786Y-42314D01*
X75805Y-42286D01*
X75824Y-42229D01*
X75824Y-41743D01*
X76090Y-41743D02*
X76129Y-41743D01*
X76167Y-41771D01*
X76186Y-41800D01*
X76205Y-41857D01*
X76224Y-41971D01*
X76224Y-42114D01*
X76205Y-42229D01*
X76186Y-42286D01*
X76167Y-42314D01*
X76129Y-42343D01*
X76090Y-42343D01*
X76052Y-42314D01*
X76033Y-42286D01*
X76014Y-42229D01*
X75995Y-42114D01*
X75995Y-41971D01*
X76014Y-41857D01*
X76033Y-41800D01*
X76052Y-41771D01*
X76090Y-41743D01*
G54D14*
X65062Y-49305D02*
X65386Y-49305D01*
X65424Y-49286D01*
X65443Y-49267D01*
X65462Y-49229D01*
X65462Y-49152D01*
X65443Y-49114D01*
X65424Y-49095D01*
X65386Y-49076D01*
X65062Y-49076D01*
X65462Y-48676D02*
X65462Y-48905D01*
X65462Y-48791D02*
X65062Y-48791D01*
X65119Y-48829D01*
X65157Y-48867D01*
X65176Y-48905D01*
G54D15*
X65693Y-51550D02*
X65707Y-51564D01*
X65721Y-51607D01*
X65721Y-51636D01*
X65707Y-51679D01*
X65679Y-51707D01*
X65650Y-51722D01*
X65593Y-51736D01*
X65550Y-51736D01*
X65493Y-51722D01*
X65464Y-51707D01*
X65436Y-51679D01*
X65421Y-51636D01*
X65421Y-51607D01*
X65436Y-51564D01*
X65450Y-51550D01*
X65421Y-51364D02*
X65421Y-51336D01*
X65436Y-51307D01*
X65450Y-51293D01*
X65479Y-51279D01*
X65536Y-51264D01*
X65607Y-51264D01*
X65664Y-51279D01*
X65693Y-51293D01*
X65707Y-51307D01*
X65721Y-51336D01*
X65721Y-51364D01*
X65707Y-51393D01*
X65693Y-51407D01*
X65664Y-51422D01*
X65607Y-51436D01*
X65536Y-51436D01*
X65479Y-51422D01*
X65450Y-51407D01*
X65436Y-51393D01*
X65421Y-51364D01*
X65693Y-46550D02*
X65707Y-46564D01*
X65721Y-46607D01*
X65721Y-46636D01*
X65707Y-46679D01*
X65679Y-46707D01*
X65650Y-46722D01*
X65593Y-46736D01*
X65550Y-46736D01*
X65493Y-46722D01*
X65464Y-46707D01*
X65436Y-46679D01*
X65421Y-46636D01*
X65421Y-46607D01*
X65436Y-46564D01*
X65450Y-46550D01*
X65721Y-46264D02*
X65721Y-46436D01*
X65721Y-46350D02*
X65421Y-46350D01*
X65464Y-46379D01*
X65493Y-46407D01*
X65507Y-46436D01*
X74601Y-52541D02*
X74601Y-52660D01*
X74351Y-52660D01*
X74601Y-52328D02*
X74601Y-52470D01*
X74601Y-52399D02*
X74351Y-52399D01*
X74387Y-52423D01*
X74411Y-52447D01*
X74423Y-52470D01*
X73201Y-40942D02*
X73082Y-41025D01*
X73201Y-41084D02*
X72951Y-41084D01*
X72951Y-40989D01*
X72963Y-40965D01*
X72975Y-40954D01*
X72999Y-40942D01*
X73035Y-40942D01*
X73058Y-40954D01*
X73070Y-40965D01*
X73082Y-40989D01*
X73082Y-41084D01*
X72951Y-40858D02*
X72951Y-40692D01*
X73201Y-40799D01*
X74601Y-48142D02*
X74482Y-48225D01*
X74601Y-48284D02*
X74351Y-48284D01*
X74351Y-48189D01*
X74363Y-48165D01*
X74375Y-48154D01*
X74399Y-48142D01*
X74435Y-48142D01*
X74458Y-48154D01*
X74470Y-48165D01*
X74482Y-48189D01*
X74482Y-48284D01*
X74351Y-47915D02*
X74351Y-48034D01*
X74470Y-48046D01*
X74458Y-48034D01*
X74446Y-48011D01*
X74446Y-47951D01*
X74458Y-47927D01*
X74470Y-47915D01*
X74494Y-47904D01*
X74554Y-47904D01*
X74577Y-47915D01*
X74589Y-47927D01*
X74601Y-47951D01*
X74601Y-48011D01*
X74589Y-48034D01*
X74577Y-48046D01*
X65701Y-44042D02*
X65582Y-44125D01*
X65701Y-44184D02*
X65451Y-44184D01*
X65451Y-44089D01*
X65463Y-44065D01*
X65475Y-44054D01*
X65499Y-44042D01*
X65535Y-44042D01*
X65558Y-44054D01*
X65570Y-44065D01*
X65582Y-44089D01*
X65582Y-44184D01*
X65535Y-43827D02*
X65701Y-43827D01*
X65439Y-43887D02*
X65618Y-43946D01*
X65618Y-43792D01*
X65701Y-45042D02*
X65582Y-45125D01*
X65701Y-45184D02*
X65451Y-45184D01*
X65451Y-45089D01*
X65463Y-45065D01*
X65475Y-45054D01*
X65499Y-45042D01*
X65535Y-45042D01*
X65558Y-45054D01*
X65570Y-45065D01*
X65582Y-45089D01*
X65582Y-45184D01*
X65451Y-44958D02*
X65451Y-44804D01*
X65546Y-44887D01*
X65546Y-44851D01*
X65558Y-44827D01*
X65570Y-44815D01*
X65594Y-44804D01*
X65654Y-44804D01*
X65677Y-44815D01*
X65689Y-44827D01*
X65701Y-44851D01*
X65701Y-44923D01*
X65689Y-44946D01*
X65677Y-44958D01*
X65701Y-43042D02*
X65582Y-43125D01*
X65701Y-43184D02*
X65451Y-43184D01*
X65451Y-43089D01*
X65463Y-43065D01*
X65475Y-43054D01*
X65499Y-43042D01*
X65535Y-43042D01*
X65558Y-43054D01*
X65570Y-43065D01*
X65582Y-43089D01*
X65582Y-43184D01*
X65475Y-42946D02*
X65463Y-42934D01*
X65451Y-42911D01*
X65451Y-42851D01*
X65463Y-42827D01*
X65475Y-42815D01*
X65499Y-42804D01*
X65523Y-42804D01*
X65558Y-42815D01*
X65701Y-42958D01*
X65701Y-42804D01*
X74601Y-49542D02*
X74482Y-49625D01*
X74601Y-49684D02*
X74351Y-49684D01*
X74351Y-49589D01*
X74363Y-49565D01*
X74375Y-49554D01*
X74399Y-49542D01*
X74435Y-49542D01*
X74458Y-49554D01*
X74470Y-49565D01*
X74482Y-49589D01*
X74482Y-49684D01*
X74601Y-49304D02*
X74601Y-49446D01*
X74601Y-49375D02*
X74351Y-49375D01*
X74387Y-49399D01*
X74411Y-49423D01*
X74423Y-49446D01*
X74577Y-50542D02*
X74589Y-50554D01*
X74601Y-50589D01*
X74601Y-50613D01*
X74589Y-50649D01*
X74565Y-50673D01*
X74542Y-50684D01*
X74494Y-50696D01*
X74458Y-50696D01*
X74411Y-50684D01*
X74387Y-50673D01*
X74363Y-50649D01*
X74351Y-50613D01*
X74351Y-50589D01*
X74363Y-50554D01*
X74375Y-50542D01*
X74375Y-50446D02*
X74363Y-50434D01*
X74351Y-50411D01*
X74351Y-50351D01*
X74363Y-50327D01*
X74375Y-50315D01*
X74399Y-50304D01*
X74423Y-50304D01*
X74458Y-50315D01*
X74601Y-50458D01*
X74601Y-50304D01*
X66417Y-41370D02*
X66334Y-41370D01*
X66334Y-41501D02*
X66334Y-41251D01*
X66453Y-41251D01*
X66595Y-41251D02*
X66619Y-41251D01*
X66643Y-41263D01*
X66655Y-41275D01*
X66667Y-41299D01*
X66678Y-41346D01*
X66678Y-41406D01*
X66667Y-41454D01*
X66655Y-41477D01*
X66643Y-41489D01*
X66619Y-41501D01*
X66595Y-41501D01*
X66571Y-41489D01*
X66559Y-41477D01*
X66548Y-41454D01*
X66536Y-41406D01*
X66536Y-41346D01*
X66548Y-41299D01*
X66559Y-41275D01*
X66571Y-41263D01*
X66595Y-41251D01*
X74577Y-51542D02*
X74589Y-51554D01*
X74601Y-51589D01*
X74601Y-51613D01*
X74589Y-51649D01*
X74565Y-51673D01*
X74542Y-51684D01*
X74494Y-51696D01*
X74458Y-51696D01*
X74411Y-51684D01*
X74387Y-51673D01*
X74363Y-51649D01*
X74351Y-51613D01*
X74351Y-51589D01*
X74363Y-51554D01*
X74375Y-51542D01*
X74351Y-51458D02*
X74351Y-51304D01*
X74446Y-51387D01*
X74446Y-51351D01*
X74458Y-51327D01*
X74470Y-51315D01*
X74494Y-51304D01*
X74554Y-51304D01*
X74577Y-51315D01*
X74589Y-51327D01*
X74601Y-51351D01*
X74601Y-51423D01*
X74589Y-51446D01*
X74577Y-51458D01*
X73458Y-45977D02*
X73446Y-45989D01*
X73411Y-46001D01*
X73387Y-46001D01*
X73351Y-45989D01*
X73327Y-45965D01*
X73316Y-45942D01*
X73304Y-45894D01*
X73304Y-45858D01*
X73316Y-45811D01*
X73327Y-45787D01*
X73351Y-45763D01*
X73387Y-45751D01*
X73411Y-45751D01*
X73446Y-45763D01*
X73458Y-45775D01*
X73685Y-45751D02*
X73566Y-45751D01*
X73554Y-45870D01*
X73566Y-45858D01*
X73589Y-45846D01*
X73649Y-45846D01*
X73673Y-45858D01*
X73685Y-45870D01*
X73696Y-45894D01*
X73696Y-45954D01*
X73685Y-45977D01*
X73673Y-45989D01*
X73649Y-46001D01*
X73589Y-46001D01*
X73566Y-45989D01*
X73554Y-45977D01*
X74577Y-47542D02*
X74589Y-47554D01*
X74601Y-47589D01*
X74601Y-47613D01*
X74589Y-47649D01*
X74565Y-47673D01*
X74542Y-47684D01*
X74494Y-47696D01*
X74458Y-47696D01*
X74411Y-47684D01*
X74387Y-47673D01*
X74363Y-47649D01*
X74351Y-47613D01*
X74351Y-47589D01*
X74363Y-47554D01*
X74375Y-47542D01*
X74351Y-47327D02*
X74351Y-47375D01*
X74363Y-47399D01*
X74375Y-47411D01*
X74411Y-47434D01*
X74458Y-47446D01*
X74554Y-47446D01*
X74577Y-47434D01*
X74589Y-47423D01*
X74601Y-47399D01*
X74601Y-47351D01*
X74589Y-47327D01*
X74577Y-47315D01*
X74554Y-47304D01*
X74494Y-47304D01*
X74470Y-47315D01*
X74458Y-47327D01*
X74446Y-47351D01*
X74446Y-47399D01*
X74458Y-47423D01*
X74470Y-47434D01*
X74494Y-47446D01*
G54D13*
X61558Y-48743D02*
X61558Y-48143D01*
X61786Y-48143D01*
X61844Y-48171D01*
X61872Y-48200D01*
X61901Y-48257D01*
X61901Y-48343D01*
X61872Y-48400D01*
X61844Y-48429D01*
X61786Y-48457D01*
X61558Y-48457D01*
X62472Y-48743D02*
X62129Y-48743D01*
X62301Y-48743D02*
X62301Y-48143D01*
X62244Y-48229D01*
X62186Y-48286D01*
X62129Y-48314D01*
X69743Y-48985D02*
X70343Y-48585D01*
X69743Y-48585D02*
X70343Y-48985D01*
X69743Y-48243D02*
X69743Y-48186D01*
X69771Y-48129D01*
X69800Y-48100D01*
X69857Y-48071D01*
X69971Y-48043D01*
X70114Y-48043D01*
X70229Y-48071D01*
X70286Y-48100D01*
X70314Y-48129D01*
X70343Y-48186D01*
X70343Y-48243D01*
X70314Y-48300D01*
X70286Y-48329D01*
X70229Y-48357D01*
X70114Y-48386D01*
X69971Y-48386D01*
X69857Y-48357D01*
X69800Y-48329D01*
X69771Y-48300D01*
X69743Y-48243D01*
G54D15*
X74477Y-44442D02*
X74489Y-44454D01*
X74501Y-44489D01*
X74501Y-44513D01*
X74489Y-44549D01*
X74465Y-44573D01*
X74442Y-44584D01*
X74394Y-44596D01*
X74358Y-44596D01*
X74311Y-44584D01*
X74287Y-44573D01*
X74263Y-44549D01*
X74251Y-44513D01*
X74251Y-44489D01*
X74263Y-44454D01*
X74275Y-44442D01*
X74358Y-44299D02*
X74346Y-44323D01*
X74335Y-44334D01*
X74311Y-44346D01*
X74299Y-44346D01*
X74275Y-44334D01*
X74263Y-44323D01*
X74251Y-44299D01*
X74251Y-44251D01*
X74263Y-44227D01*
X74275Y-44215D01*
X74299Y-44204D01*
X74311Y-44204D01*
X74335Y-44215D01*
X74346Y-44227D01*
X74358Y-44251D01*
X74358Y-44299D01*
X74370Y-44323D01*
X74382Y-44334D01*
X74406Y-44346D01*
X74454Y-44346D01*
X74477Y-44334D01*
X74489Y-44323D01*
X74501Y-44299D01*
X74501Y-44251D01*
X74489Y-44227D01*
X74477Y-44215D01*
X74454Y-44204D01*
X74406Y-44204D01*
X74382Y-44215D01*
X74370Y-44227D01*
X74358Y-44251D01*
X74777Y-43442D02*
X74789Y-43454D01*
X74801Y-43489D01*
X74801Y-43513D01*
X74789Y-43549D01*
X74765Y-43573D01*
X74742Y-43584D01*
X74694Y-43596D01*
X74658Y-43596D01*
X74611Y-43584D01*
X74587Y-43573D01*
X74563Y-43549D01*
X74551Y-43513D01*
X74551Y-43489D01*
X74563Y-43454D01*
X74575Y-43442D01*
X74551Y-43358D02*
X74551Y-43192D01*
X74801Y-43299D01*
G54D13*
X71015Y-45443D02*
X71415Y-46043D01*
X71415Y-45443D02*
X71015Y-46043D01*
X71957Y-46043D02*
X71614Y-46043D01*
X71786Y-46043D02*
X71786Y-45443D01*
X71729Y-45529D01*
X71671Y-45586D01*
X71614Y-45614D01*
G54D15*
X65501Y-51042D02*
X65382Y-51125D01*
X65501Y-51184D02*
X65251Y-51184D01*
X65251Y-51089D01*
X65263Y-51065D01*
X65275Y-51054D01*
X65299Y-51042D01*
X65335Y-51042D01*
X65358Y-51054D01*
X65370Y-51065D01*
X65382Y-51089D01*
X65382Y-51184D01*
X65358Y-50899D02*
X65346Y-50923D01*
X65335Y-50934D01*
X65311Y-50946D01*
X65299Y-50946D01*
X65275Y-50934D01*
X65263Y-50923D01*
X65251Y-50899D01*
X65251Y-50851D01*
X65263Y-50827D01*
X65275Y-50815D01*
X65299Y-50804D01*
X65311Y-50804D01*
X65335Y-50815D01*
X65346Y-50827D01*
X65358Y-50851D01*
X65358Y-50899D01*
X65370Y-50923D01*
X65382Y-50934D01*
X65406Y-50946D01*
X65454Y-50946D01*
X65477Y-50934D01*
X65489Y-50923D01*
X65501Y-50899D01*
X65501Y-50851D01*
X65489Y-50827D01*
X65477Y-50815D01*
X65454Y-50804D01*
X65406Y-50804D01*
X65382Y-50815D01*
X65370Y-50827D01*
X65358Y-50851D01*
X65701Y-52184D02*
X65451Y-52184D01*
X65451Y-52125D01*
X65463Y-52089D01*
X65487Y-52065D01*
X65511Y-52054D01*
X65558Y-52042D01*
X65594Y-52042D01*
X65642Y-52054D01*
X65665Y-52065D01*
X65689Y-52089D01*
X65701Y-52125D01*
X65701Y-52184D01*
X65451Y-51887D02*
X65451Y-51863D01*
X65463Y-51839D01*
X65475Y-51827D01*
X65499Y-51815D01*
X65546Y-51804D01*
X65606Y-51804D01*
X65654Y-51815D01*
X65677Y-51827D01*
X65689Y-51839D01*
X65701Y-51863D01*
X65701Y-51887D01*
X65689Y-51911D01*
X65677Y-51923D01*
X65654Y-51934D01*
X65606Y-51946D01*
X65546Y-51946D01*
X65499Y-51934D01*
X65475Y-51923D01*
X65463Y-51911D01*
X65451Y-51887D01*
X76577Y-52661D02*
X76589Y-52673D01*
X76601Y-52708D01*
X76601Y-52732D01*
X76589Y-52768D01*
X76565Y-52792D01*
X76542Y-52803D01*
X76494Y-52815D01*
X76458Y-52815D01*
X76411Y-52803D01*
X76387Y-52792D01*
X76363Y-52768D01*
X76351Y-52732D01*
X76351Y-52708D01*
X76363Y-52673D01*
X76375Y-52661D01*
X76601Y-52423D02*
X76601Y-52565D01*
X76601Y-52494D02*
X76351Y-52494D01*
X76387Y-52518D01*
X76411Y-52542D01*
X76423Y-52565D01*
X76351Y-52268D02*
X76351Y-52244D01*
X76363Y-52220D01*
X76375Y-52208D01*
X76399Y-52196D01*
X76446Y-52185D01*
X76506Y-52185D01*
X76554Y-52196D01*
X76577Y-52208D01*
X76589Y-52220D01*
X76601Y-52244D01*
X76601Y-52268D01*
X76589Y-52292D01*
X76577Y-52304D01*
X76554Y-52315D01*
X76506Y-52327D01*
X76446Y-52327D01*
X76399Y-52315D01*
X76375Y-52304D01*
X76363Y-52292D01*
X76351Y-52268D01*
X84577Y-52461D02*
X84589Y-52473D01*
X84601Y-52508D01*
X84601Y-52532D01*
X84589Y-52568D01*
X84565Y-52592D01*
X84542Y-52603D01*
X84494Y-52615D01*
X84458Y-52615D01*
X84411Y-52603D01*
X84387Y-52592D01*
X84363Y-52568D01*
X84351Y-52532D01*
X84351Y-52508D01*
X84363Y-52473D01*
X84375Y-52461D01*
X84601Y-52223D02*
X84601Y-52365D01*
X84601Y-52294D02*
X84351Y-52294D01*
X84387Y-52318D01*
X84411Y-52342D01*
X84423Y-52365D01*
X84601Y-51985D02*
X84601Y-52127D01*
X84601Y-52056D02*
X84351Y-52056D01*
X84387Y-52080D01*
X84411Y-52104D01*
X84423Y-52127D01*
X86589Y-46827D02*
X86577Y-46839D01*
X86542Y-46851D01*
X86518Y-46851D01*
X86482Y-46839D01*
X86458Y-46815D01*
X86447Y-46792D01*
X86435Y-46744D01*
X86435Y-46708D01*
X86447Y-46661D01*
X86458Y-46637D01*
X86482Y-46613D01*
X86518Y-46601D01*
X86542Y-46601D01*
X86577Y-46613D01*
X86589Y-46625D01*
X86827Y-46851D02*
X86685Y-46851D01*
X86756Y-46851D02*
X86756Y-46601D01*
X86732Y-46637D01*
X86708Y-46661D01*
X86685Y-46673D01*
X86923Y-46625D02*
X86935Y-46613D01*
X86958Y-46601D01*
X87018Y-46601D01*
X87042Y-46613D01*
X87054Y-46625D01*
X87065Y-46649D01*
X87065Y-46673D01*
X87054Y-46708D01*
X86911Y-46851D01*
X87065Y-46851D01*
X85239Y-42077D02*
X85227Y-42089D01*
X85192Y-42101D01*
X85168Y-42101D01*
X85132Y-42089D01*
X85108Y-42065D01*
X85097Y-42042D01*
X85085Y-41994D01*
X85085Y-41958D01*
X85097Y-41911D01*
X85108Y-41887D01*
X85132Y-41863D01*
X85168Y-41851D01*
X85192Y-41851D01*
X85227Y-41863D01*
X85239Y-41875D01*
X85477Y-42101D02*
X85335Y-42101D01*
X85406Y-42101D02*
X85406Y-41851D01*
X85382Y-41887D01*
X85358Y-41911D01*
X85335Y-41923D01*
X85561Y-41851D02*
X85715Y-41851D01*
X85632Y-41946D01*
X85668Y-41946D01*
X85692Y-41958D01*
X85704Y-41970D01*
X85715Y-41994D01*
X85715Y-42054D01*
X85704Y-42077D01*
X85692Y-42089D01*
X85668Y-42101D01*
X85596Y-42101D01*
X85573Y-42089D01*
X85561Y-42077D01*
X75077Y-41061D02*
X75089Y-41073D01*
X75101Y-41108D01*
X75101Y-41132D01*
X75089Y-41168D01*
X75065Y-41192D01*
X75042Y-41203D01*
X74994Y-41215D01*
X74958Y-41215D01*
X74911Y-41203D01*
X74887Y-41192D01*
X74863Y-41168D01*
X74851Y-41132D01*
X74851Y-41108D01*
X74863Y-41073D01*
X74875Y-41061D01*
X75101Y-40823D02*
X75101Y-40965D01*
X75101Y-40894D02*
X74851Y-40894D01*
X74887Y-40918D01*
X74911Y-40942D01*
X74923Y-40965D01*
X74935Y-40608D02*
X75101Y-40608D01*
X74839Y-40668D02*
X75018Y-40727D01*
X75018Y-40573D01*
G54D13*
X62558Y-46993D02*
X62558Y-46393D01*
X62786Y-46393D01*
X62844Y-46421D01*
X62872Y-46450D01*
X62901Y-46507D01*
X62901Y-46593D01*
X62872Y-46650D01*
X62844Y-46679D01*
X62786Y-46707D01*
X62558Y-46707D01*
X63272Y-46393D02*
X63329Y-46393D01*
X63386Y-46421D01*
X63415Y-46450D01*
X63444Y-46507D01*
X63472Y-46621D01*
X63472Y-46764D01*
X63444Y-46879D01*
X63415Y-46936D01*
X63386Y-46964D01*
X63329Y-46993D01*
X63272Y-46993D01*
X63215Y-46964D01*
X63186Y-46936D01*
X63158Y-46879D01*
X63129Y-46764D01*
X63129Y-46621D01*
X63158Y-46507D01*
X63186Y-46450D01*
X63215Y-46421D01*
X63272Y-46393D01*
X60950Y-35214D02*
X61036Y-35243D01*
X61179Y-35243D01*
X61236Y-35214D01*
X61265Y-35186D01*
X61293Y-35129D01*
X61293Y-35071D01*
X61265Y-35014D01*
X61236Y-34986D01*
X61179Y-34957D01*
X61065Y-34929D01*
X61007Y-34900D01*
X60979Y-34871D01*
X60950Y-34814D01*
X60950Y-34757D01*
X60979Y-34700D01*
X61007Y-34671D01*
X61065Y-34643D01*
X61207Y-34643D01*
X61293Y-34671D01*
X61493Y-34643D02*
X61636Y-35243D01*
X61750Y-34814D01*
X61864Y-35243D01*
X62007Y-34643D01*
X62207Y-34700D02*
X62236Y-34671D01*
X62293Y-34643D01*
X62436Y-34643D01*
X62493Y-34671D01*
X62522Y-34700D01*
X62550Y-34757D01*
X62550Y-34814D01*
X62522Y-34900D01*
X62179Y-35243D01*
X62550Y-35243D01*
X60950Y-39714D02*
X61036Y-39743D01*
X61179Y-39743D01*
X61236Y-39714D01*
X61265Y-39686D01*
X61293Y-39629D01*
X61293Y-39571D01*
X61265Y-39514D01*
X61236Y-39486D01*
X61179Y-39457D01*
X61065Y-39429D01*
X61007Y-39400D01*
X60979Y-39371D01*
X60950Y-39314D01*
X60950Y-39257D01*
X60979Y-39200D01*
X61007Y-39171D01*
X61065Y-39143D01*
X61207Y-39143D01*
X61293Y-39171D01*
X61493Y-39143D02*
X61636Y-39743D01*
X61750Y-39314D01*
X61864Y-39743D01*
X62007Y-39143D01*
X62350Y-39143D02*
X62407Y-39143D01*
X62464Y-39171D01*
X62493Y-39200D01*
X62522Y-39257D01*
X62550Y-39371D01*
X62550Y-39514D01*
X62522Y-39629D01*
X62493Y-39686D01*
X62464Y-39714D01*
X62407Y-39743D01*
X62350Y-39743D01*
X62293Y-39714D01*
X62264Y-39686D01*
X62236Y-39629D01*
X62207Y-39514D01*
X62207Y-39371D01*
X62236Y-39257D01*
X62264Y-39200D01*
X62293Y-39171D01*
X62350Y-39143D01*
X97743Y-35728D02*
X97143Y-35728D01*
X97143Y-35500D01*
X97171Y-35442D01*
X97200Y-35414D01*
X97257Y-35385D01*
X97343Y-35385D01*
X97400Y-35414D01*
X97429Y-35442D01*
X97457Y-35500D01*
X97457Y-35728D01*
X97200Y-35157D02*
X97171Y-35128D01*
X97143Y-35071D01*
X97143Y-34928D01*
X97171Y-34871D01*
X97200Y-34842D01*
X97257Y-34814D01*
X97314Y-34814D01*
X97400Y-34842D01*
X97743Y-35185D01*
X97743Y-34814D01*
X97143Y-34443D02*
X97143Y-34386D01*
X97171Y-34329D01*
X97200Y-34300D01*
X97257Y-34271D01*
X97371Y-34243D01*
X97514Y-34243D01*
X97629Y-34271D01*
X97686Y-34300D01*
X97714Y-34329D01*
X97743Y-34386D01*
X97743Y-34443D01*
X97714Y-34500D01*
X97686Y-34529D01*
X97629Y-34557D01*
X97514Y-34586D01*
X97371Y-34586D01*
X97257Y-34557D01*
X97200Y-34529D01*
X97171Y-34500D01*
X97143Y-34443D01*
X64743Y-58728D02*
X64143Y-58728D01*
X64143Y-58500D01*
X64171Y-58442D01*
X64200Y-58414D01*
X64257Y-58385D01*
X64343Y-58385D01*
X64400Y-58414D01*
X64429Y-58442D01*
X64457Y-58500D01*
X64457Y-58728D01*
X64143Y-58185D02*
X64143Y-57814D01*
X64371Y-58014D01*
X64371Y-57928D01*
X64400Y-57871D01*
X64429Y-57842D01*
X64486Y-57814D01*
X64629Y-57814D01*
X64686Y-57842D01*
X64714Y-57871D01*
X64743Y-57928D01*
X64743Y-58100D01*
X64714Y-58157D01*
X64686Y-58185D01*
X64143Y-57443D02*
X64143Y-57386D01*
X64171Y-57329D01*
X64200Y-57300D01*
X64257Y-57271D01*
X64371Y-57243D01*
X64514Y-57243D01*
X64629Y-57271D01*
X64686Y-57300D01*
X64714Y-57329D01*
X64743Y-57386D01*
X64743Y-57443D01*
X64714Y-57500D01*
X64686Y-57529D01*
X64629Y-57557D01*
X64514Y-57586D01*
X64371Y-57586D01*
X64257Y-57557D01*
X64200Y-57529D01*
X64171Y-57500D01*
X64143Y-57443D01*
G54D15*
X94101Y-43161D02*
X93982Y-43244D01*
X94101Y-43303D02*
X93851Y-43303D01*
X93851Y-43208D01*
X93863Y-43184D01*
X93875Y-43173D01*
X93899Y-43161D01*
X93935Y-43161D01*
X93958Y-43173D01*
X93970Y-43184D01*
X93982Y-43208D01*
X93982Y-43303D01*
X94101Y-42923D02*
X94101Y-43065D01*
X94101Y-42994D02*
X93851Y-42994D01*
X93887Y-43018D01*
X93911Y-43042D01*
X93923Y-43065D01*
X93851Y-42768D02*
X93851Y-42744D01*
X93863Y-42720D01*
X93875Y-42708D01*
X93899Y-42696D01*
X93946Y-42685D01*
X94006Y-42685D01*
X94054Y-42696D01*
X94077Y-42708D01*
X94089Y-42720D01*
X94101Y-42744D01*
X94101Y-42768D01*
X94089Y-42792D01*
X94077Y-42804D01*
X94054Y-42815D01*
X94006Y-42827D01*
X93946Y-42827D01*
X93899Y-42815D01*
X93875Y-42804D01*
X93863Y-42792D01*
X93851Y-42768D01*
X94101Y-42161D02*
X93982Y-42244D01*
X94101Y-42303D02*
X93851Y-42303D01*
X93851Y-42208D01*
X93863Y-42184D01*
X93875Y-42173D01*
X93899Y-42161D01*
X93935Y-42161D01*
X93958Y-42173D01*
X93970Y-42184D01*
X93982Y-42208D01*
X93982Y-42303D01*
X94101Y-41923D02*
X94101Y-42065D01*
X94101Y-41994D02*
X93851Y-41994D01*
X93887Y-42018D01*
X93911Y-42042D01*
X93923Y-42065D01*
X94101Y-41685D02*
X94101Y-41827D01*
X94101Y-41756D02*
X93851Y-41756D01*
X93887Y-41780D01*
X93911Y-41804D01*
X93923Y-41827D01*
G54D14*
X96514Y-44162D02*
X96514Y-43762D01*
X96667Y-43762D01*
X96705Y-43781D01*
X96724Y-43800D01*
X96743Y-43838D01*
X96743Y-43895D01*
X96724Y-43933D01*
X96705Y-43952D01*
X96667Y-43971D01*
X96514Y-43971D01*
X97124Y-44162D02*
X96895Y-44162D01*
X97009Y-44162D02*
X97009Y-43762D01*
X96971Y-43819D01*
X96933Y-43857D01*
X96895Y-43876D01*
X97371Y-43762D02*
X97410Y-43762D01*
X97448Y-43781D01*
X97467Y-43800D01*
X97486Y-43838D01*
X97505Y-43914D01*
X97505Y-44010D01*
X97486Y-44086D01*
X97467Y-44124D01*
X97448Y-44143D01*
X97410Y-44162D01*
X97371Y-44162D01*
X97333Y-44143D01*
X97314Y-44124D01*
X97295Y-44086D01*
X97276Y-44010D01*
X97276Y-43914D01*
X97295Y-43838D01*
X97314Y-43800D01*
X97333Y-43781D01*
X97371Y-43762D01*
M02*
