G04 (created by PCBNEW-RS274X (2012-01-19 BZR 3256)-stable) date 16/09/2012 01:08:52*
G01*
G70*
G90*
%MOIN*%
G04 Gerber Fmt 3.4, Leading zero omitted, Abs format*
%FSLAX34Y34*%
G04 APERTURE LIST*
%ADD10C,0.006000*%
%ADD11C,0.080000*%
%ADD12R,0.080000X0.080000*%
%ADD13C,0.106600*%
%ADD14C,0.086900*%
%ADD15R,0.070000X0.035000*%
G04 APERTURE END LIST*
G54D10*
G54D11*
X61500Y-58500D03*
X62500Y-57500D03*
G54D12*
X62500Y-58500D03*
G54D11*
X61500Y-57500D03*
X62500Y-56500D03*
X61500Y-56500D03*
X62500Y-55500D03*
X61500Y-55500D03*
X62500Y-54500D03*
X61500Y-54500D03*
X62500Y-53500D03*
X61500Y-53500D03*
X62500Y-52500D03*
X61500Y-52500D03*
X62500Y-51500D03*
X61500Y-51500D03*
X62500Y-50500D03*
X61500Y-50500D03*
X62500Y-49500D03*
X61500Y-49500D03*
X71500Y-47539D03*
X71500Y-49461D03*
X71000Y-44300D03*
X72000Y-44300D03*
G54D12*
X70000Y-41700D03*
G54D11*
X71000Y-41700D03*
X72000Y-41700D03*
G54D12*
X70000Y-42700D03*
G54D11*
X71000Y-42700D03*
X72000Y-42700D03*
G54D13*
X62341Y-33622D03*
X62341Y-36378D03*
G54D14*
X61258Y-34114D03*
X61258Y-35886D03*
G54D13*
X62341Y-38122D03*
X62341Y-40878D03*
G54D14*
X61258Y-38614D03*
X61258Y-40386D03*
G54D12*
X96500Y-34500D03*
G54D11*
X96500Y-35500D03*
X95500Y-34500D03*
X95500Y-35500D03*
X94500Y-34500D03*
X94500Y-35500D03*
X93500Y-34500D03*
X93500Y-35500D03*
X92500Y-34500D03*
X92500Y-35500D03*
X91500Y-34500D03*
X91500Y-35500D03*
X90500Y-34500D03*
X90500Y-35500D03*
X89500Y-34500D03*
X89500Y-35500D03*
X88500Y-34500D03*
X88500Y-35500D03*
X87500Y-34500D03*
X87500Y-35500D03*
X86500Y-34500D03*
X86500Y-35500D03*
X85500Y-34500D03*
X85500Y-35500D03*
X84500Y-34500D03*
X84500Y-35500D03*
X83500Y-34500D03*
X83500Y-35500D03*
X82500Y-34500D03*
X82500Y-35500D03*
X81500Y-34500D03*
X81500Y-35500D03*
X80500Y-34500D03*
X80500Y-35500D03*
X79500Y-34500D03*
X79500Y-35500D03*
X78500Y-34500D03*
X78500Y-35500D03*
X77500Y-34500D03*
X77500Y-35500D03*
X76500Y-34500D03*
X76500Y-35500D03*
X75500Y-34500D03*
X75500Y-35500D03*
X74500Y-34500D03*
X74500Y-35500D03*
X73500Y-34500D03*
X73500Y-35500D03*
X72500Y-34500D03*
X72500Y-35500D03*
X71500Y-34500D03*
X71500Y-35500D03*
X70500Y-34500D03*
X70500Y-35500D03*
X69500Y-34500D03*
X69500Y-35500D03*
X68500Y-34500D03*
X68500Y-35500D03*
X67500Y-34500D03*
X67500Y-35500D03*
X66500Y-34500D03*
X66500Y-35500D03*
X65500Y-34500D03*
X65500Y-35500D03*
G54D12*
X65500Y-58500D03*
G54D11*
X65500Y-57500D03*
X66500Y-58500D03*
X66500Y-57500D03*
X67500Y-58500D03*
X67500Y-57500D03*
X68500Y-58500D03*
X68500Y-57500D03*
X69500Y-58500D03*
X69500Y-57500D03*
X70500Y-58500D03*
X70500Y-57500D03*
X71500Y-58500D03*
X71500Y-57500D03*
X72500Y-58500D03*
X72500Y-57500D03*
X73500Y-58500D03*
X73500Y-57500D03*
X74500Y-58500D03*
X74500Y-57500D03*
X75500Y-58500D03*
X75500Y-57500D03*
X76500Y-58500D03*
X76500Y-57500D03*
X77500Y-58500D03*
X77500Y-57500D03*
X78500Y-58500D03*
X78500Y-57500D03*
X79500Y-58500D03*
X79500Y-57500D03*
X80500Y-58500D03*
X80500Y-57500D03*
X81500Y-58500D03*
X81500Y-57500D03*
X82500Y-58500D03*
X82500Y-57500D03*
X83500Y-58500D03*
X83500Y-57500D03*
X84500Y-58500D03*
X84500Y-57500D03*
X85500Y-58500D03*
X85500Y-57500D03*
X86500Y-58500D03*
X86500Y-57500D03*
X87500Y-58500D03*
X87500Y-57500D03*
X88500Y-58500D03*
X88500Y-57500D03*
X89500Y-58500D03*
X89500Y-57500D03*
X90500Y-58500D03*
X90500Y-57500D03*
X91500Y-58500D03*
X91500Y-57500D03*
X92500Y-58500D03*
X92500Y-57500D03*
X93500Y-58500D03*
X93500Y-57500D03*
X94500Y-58500D03*
X94500Y-57500D03*
X95500Y-58500D03*
X95500Y-57500D03*
X96500Y-58500D03*
X96500Y-57500D03*
G54D12*
X97500Y-43000D03*
G54D11*
X96500Y-43000D03*
X97500Y-42000D03*
X96500Y-42000D03*
G54D15*
X88398Y-56396D03*
X88398Y-56140D03*
X88398Y-55884D03*
X88398Y-55628D03*
X88398Y-55372D03*
X88398Y-55116D03*
X88398Y-54860D03*
X88398Y-54604D03*
X90602Y-54604D03*
X90602Y-54860D03*
X90602Y-55116D03*
X90602Y-55372D03*
X90602Y-55628D03*
X90602Y-55884D03*
X90602Y-56140D03*
X90602Y-56396D03*
M02*
