G04 (created by PCBNEW-RS274X (2012-01-19 BZR 3256)-stable) date 08/10/2012 04:37:32*
G01*
G70*
G90*
%MOIN*%
G04 Gerber Fmt 3.4, Leading zero omitted, Abs format*
%FSLAX34Y34*%
G04 APERTURE LIST*
%ADD10C,0.006000*%
%ADD11R,0.060000X0.060000*%
%ADD12C,0.060000*%
%ADD13C,0.025000*%
%ADD14C,0.008000*%
%ADD15C,0.020000*%
%ADD16C,0.010000*%
G04 APERTURE END LIST*
G54D10*
G54D11*
X45500Y-16000D03*
G54D12*
X46500Y-16000D03*
X45500Y-17000D03*
X46500Y-17000D03*
X45500Y-18000D03*
X46500Y-18000D03*
X45500Y-19000D03*
X46500Y-19000D03*
X45500Y-20000D03*
X46500Y-20000D03*
X45500Y-21000D03*
X46500Y-21000D03*
G54D11*
X45500Y-11500D03*
G54D12*
X46500Y-11500D03*
X45500Y-12500D03*
X46500Y-12500D03*
X45500Y-13500D03*
X46500Y-13500D03*
X45500Y-14500D03*
X46500Y-14500D03*
G54D11*
X45500Y-07000D03*
G54D12*
X46500Y-07000D03*
X45500Y-08000D03*
X46500Y-08000D03*
X45500Y-09000D03*
X46500Y-09000D03*
X45500Y-10000D03*
X46500Y-10000D03*
G54D11*
X11000Y-27500D03*
G54D12*
X12000Y-27500D03*
X11000Y-28500D03*
X12000Y-28500D03*
X11000Y-29500D03*
X12000Y-29500D03*
X11000Y-30500D03*
X12000Y-30500D03*
G54D11*
X11000Y-23500D03*
G54D12*
X12000Y-23500D03*
X11000Y-24500D03*
X12000Y-24500D03*
X11000Y-25500D03*
X12000Y-25500D03*
X11000Y-26500D03*
X12000Y-26500D03*
G54D11*
X11000Y-19500D03*
G54D12*
X12000Y-19500D03*
X11000Y-20500D03*
X12000Y-20500D03*
X11000Y-21500D03*
X12000Y-21500D03*
X11000Y-22500D03*
X12000Y-22500D03*
G54D11*
X45500Y-34000D03*
G54D12*
X46500Y-34000D03*
X45500Y-35000D03*
X46500Y-35000D03*
X45500Y-36000D03*
X46500Y-36000D03*
X45500Y-37000D03*
X46500Y-37000D03*
G54D11*
X45500Y-29500D03*
G54D12*
X46500Y-29500D03*
X45500Y-30500D03*
X46500Y-30500D03*
X45500Y-31500D03*
X46500Y-31500D03*
X45500Y-32500D03*
X46500Y-32500D03*
G54D11*
X38500Y-22000D03*
G54D12*
X37500Y-22000D03*
G54D11*
X43000Y-10000D03*
G54D12*
X43000Y-11000D03*
X42000Y-10000D03*
X42000Y-11000D03*
X41000Y-10000D03*
X41000Y-11000D03*
X40000Y-10000D03*
X40000Y-11000D03*
X39000Y-10000D03*
X39000Y-11000D03*
X38000Y-10000D03*
X38000Y-11000D03*
X37000Y-10000D03*
X37000Y-11000D03*
X36000Y-10000D03*
X36000Y-11000D03*
X35000Y-10000D03*
X35000Y-11000D03*
X34000Y-10000D03*
X34000Y-11000D03*
X33000Y-10000D03*
X33000Y-11000D03*
X32000Y-10000D03*
X32000Y-11000D03*
X31000Y-10000D03*
X31000Y-11000D03*
X30000Y-10000D03*
X30000Y-11000D03*
X29000Y-10000D03*
X29000Y-11000D03*
X28000Y-10000D03*
X28000Y-11000D03*
X27000Y-10000D03*
X27000Y-11000D03*
X26000Y-10000D03*
X26000Y-11000D03*
X25000Y-10000D03*
X25000Y-11000D03*
X24000Y-10000D03*
X24000Y-11000D03*
X23000Y-10000D03*
X23000Y-11000D03*
X22000Y-10000D03*
X22000Y-11000D03*
X21000Y-10000D03*
X21000Y-11000D03*
X20000Y-10000D03*
X20000Y-11000D03*
X19000Y-10000D03*
X19000Y-11000D03*
X18000Y-10000D03*
X18000Y-11000D03*
X17000Y-10000D03*
X17000Y-11000D03*
X16000Y-10000D03*
X16000Y-11000D03*
X15000Y-10000D03*
X15000Y-11000D03*
X14000Y-10000D03*
X14000Y-11000D03*
X13000Y-10000D03*
X13000Y-11000D03*
X12000Y-10000D03*
X12000Y-11000D03*
G54D11*
X12000Y-34000D03*
G54D12*
X12000Y-33000D03*
X13000Y-34000D03*
X13000Y-33000D03*
X14000Y-34000D03*
X14000Y-33000D03*
X15000Y-34000D03*
X15000Y-33000D03*
X16000Y-34000D03*
X16000Y-33000D03*
X17000Y-34000D03*
X17000Y-33000D03*
X18000Y-34000D03*
X18000Y-33000D03*
X19000Y-34000D03*
X19000Y-33000D03*
X20000Y-34000D03*
X20000Y-33000D03*
X21000Y-34000D03*
X21000Y-33000D03*
X22000Y-34000D03*
X22000Y-33000D03*
X23000Y-34000D03*
X23000Y-33000D03*
X24000Y-34000D03*
X24000Y-33000D03*
X25000Y-34000D03*
X25000Y-33000D03*
X26000Y-34000D03*
X26000Y-33000D03*
X27000Y-34000D03*
X27000Y-33000D03*
X28000Y-34000D03*
X28000Y-33000D03*
X29000Y-34000D03*
X29000Y-33000D03*
X30000Y-34000D03*
X30000Y-33000D03*
X31000Y-34000D03*
X31000Y-33000D03*
X32000Y-34000D03*
X32000Y-33000D03*
X33000Y-34000D03*
X33000Y-33000D03*
X34000Y-34000D03*
X34000Y-33000D03*
X35000Y-34000D03*
X35000Y-33000D03*
X36000Y-34000D03*
X36000Y-33000D03*
X37000Y-34000D03*
X37000Y-33000D03*
X38000Y-34000D03*
X38000Y-33000D03*
X39000Y-34000D03*
X39000Y-33000D03*
X40000Y-34000D03*
X40000Y-33000D03*
X41000Y-34000D03*
X41000Y-33000D03*
X42000Y-34000D03*
X42000Y-33000D03*
X43000Y-34000D03*
X43000Y-33000D03*
G54D11*
X11000Y-13500D03*
G54D12*
X12000Y-13500D03*
X11000Y-14500D03*
X12000Y-14500D03*
X11000Y-15500D03*
X12000Y-15500D03*
X11000Y-16500D03*
X12000Y-16500D03*
X11000Y-17500D03*
X12000Y-17500D03*
G54D13*
X28600Y-12600D03*
X40400Y-30100D03*
X43300Y-31000D03*
X23800Y-32100D03*
X18900Y-27300D03*
X19600Y-23300D03*
X18900Y-26900D03*
X20200Y-23100D03*
X18900Y-26500D03*
X18500Y-26000D03*
X18500Y-26400D03*
X23500Y-27500D03*
X19400Y-18900D03*
X30700Y-16100D03*
X19800Y-18900D03*
X23500Y-27100D03*
X30400Y-16300D03*
X26500Y-26500D03*
X21800Y-15700D03*
X26500Y-26100D03*
X21400Y-15700D03*
X26000Y-25500D03*
X21000Y-15700D03*
X25900Y-25100D03*
X20600Y-15700D03*
X20200Y-15700D03*
X25800Y-24700D03*
X26000Y-24400D03*
X19800Y-15700D03*
X30100Y-16500D03*
X23500Y-26700D03*
X20200Y-18900D03*
X29800Y-16700D03*
X20600Y-18900D03*
X23500Y-26300D03*
X30700Y-18500D03*
X23300Y-25700D03*
X21400Y-18900D03*
X30400Y-18700D03*
X23300Y-25300D03*
X21800Y-18900D03*
X22200Y-18900D03*
X23300Y-24900D03*
X30100Y-18900D03*
X29800Y-19100D03*
X22600Y-18900D03*
X23300Y-24500D03*
X22600Y-15700D03*
X26500Y-27300D03*
X26500Y-26900D03*
X22200Y-15700D03*
X26000Y-13100D03*
X19200Y-15700D03*
X18400Y-15700D03*
X26500Y-27700D03*
X28200Y-32200D03*
X23100Y-31300D03*
X18800Y-15700D03*
X18100Y-26400D03*
X23900Y-29500D03*
X21400Y-18500D03*
X17900Y-25800D03*
X33000Y-16900D03*
X19000Y-18900D03*
X23900Y-29100D03*
X18900Y-20600D03*
X43300Y-14700D03*
X41900Y-11800D03*
X44700Y-36000D03*
X44500Y-35000D03*
X44300Y-34000D03*
X43900Y-31500D03*
X43700Y-30500D03*
X44100Y-32500D03*
X43500Y-29500D03*
X40325Y-25625D03*
X41725Y-25625D03*
X15500Y-08800D03*
X27600Y-17200D03*
X42500Y-21500D03*
X22100Y-29400D03*
X21000Y-18900D03*
X36200Y-17300D03*
X41700Y-26500D03*
X22100Y-27300D03*
X36200Y-16100D03*
X42100Y-28400D03*
X19600Y-14200D03*
X20225Y-20500D03*
X36200Y-17700D03*
X15400Y-26000D03*
X27600Y-17900D03*
X38000Y-20300D03*
X19900Y-13900D03*
X42200Y-14300D03*
X38000Y-14800D03*
X39200Y-28300D03*
G54D14*
X43300Y-31000D02*
X42400Y-30100D01*
X42400Y-30100D02*
X40400Y-30100D01*
X46000Y-31000D02*
X46000Y-34500D01*
X46000Y-34500D02*
X46500Y-35000D01*
X46500Y-30500D02*
X46000Y-31000D01*
X47000Y-30000D02*
X46500Y-29500D01*
X46500Y-34000D02*
X47000Y-33500D01*
X47000Y-33500D02*
X47000Y-30000D01*
X19600Y-23400D02*
X17400Y-25600D01*
X17900Y-26900D02*
X18500Y-26900D01*
X17400Y-26400D02*
X17900Y-26900D01*
X17400Y-25600D02*
X17400Y-26400D01*
X18500Y-26900D02*
X18900Y-27300D01*
X20000Y-28400D02*
X18900Y-27300D01*
X19600Y-23300D02*
X19600Y-23400D01*
X20000Y-33000D02*
X20000Y-28400D01*
X18000Y-26700D02*
X18700Y-26700D01*
X18900Y-26900D02*
X20500Y-28500D01*
X20500Y-33500D02*
X21000Y-34000D01*
X17600Y-26300D02*
X18000Y-26700D01*
X20200Y-23100D02*
X17600Y-25700D01*
X17600Y-25700D02*
X17600Y-26300D01*
X20500Y-28500D02*
X20500Y-33500D01*
X18700Y-26700D02*
X18900Y-26900D01*
X18900Y-26500D02*
X21000Y-28600D01*
X21000Y-28600D02*
X21000Y-33000D01*
X22500Y-33500D02*
X22000Y-34000D01*
X19100Y-26000D02*
X21400Y-28300D01*
X18500Y-26000D02*
X19100Y-26000D01*
X22500Y-32800D02*
X22500Y-33500D01*
X21400Y-31700D02*
X22500Y-32800D01*
X21400Y-28300D02*
X21400Y-31700D01*
X18700Y-26200D02*
X19000Y-26200D01*
X22000Y-33000D02*
X21200Y-32200D01*
X21200Y-28400D02*
X19000Y-26200D01*
X21200Y-32200D02*
X21200Y-28400D01*
X18500Y-26400D02*
X18700Y-26200D01*
X23500Y-27500D02*
X24500Y-28500D01*
X19400Y-18900D02*
X21500Y-21000D01*
X24500Y-28500D02*
X24500Y-33500D01*
X21500Y-25500D02*
X23500Y-27500D01*
X24500Y-33500D02*
X25000Y-34000D01*
X21500Y-25500D02*
X21500Y-21000D01*
X21700Y-25300D02*
X21700Y-20800D01*
X23500Y-27100D02*
X25000Y-28600D01*
X25000Y-33000D02*
X25000Y-28600D01*
X19800Y-18900D02*
X21700Y-20800D01*
X21700Y-25300D02*
X23500Y-27100D01*
X23500Y-23700D02*
X23500Y-15900D01*
X23500Y-15900D02*
X22800Y-15200D01*
X29500Y-29500D02*
X29500Y-33500D01*
X26500Y-26500D02*
X26300Y-26500D01*
X26500Y-26500D02*
X29500Y-29500D01*
X22800Y-15200D02*
X22300Y-15200D01*
X26300Y-26500D02*
X23500Y-23700D01*
X22300Y-15200D02*
X21800Y-15700D01*
X29500Y-33500D02*
X30000Y-34000D01*
X23700Y-15800D02*
X23700Y-23600D01*
X26200Y-26100D02*
X26500Y-26100D01*
X21400Y-15700D02*
X22100Y-15000D01*
X23700Y-23600D02*
X26200Y-26100D01*
X22900Y-15000D02*
X23700Y-15800D01*
X30000Y-29600D02*
X26500Y-26100D01*
X30000Y-33000D02*
X30000Y-29600D01*
X22100Y-15000D02*
X22900Y-15000D01*
X26300Y-25500D02*
X30500Y-29700D01*
X30500Y-29700D02*
X30500Y-33500D01*
X23000Y-14800D02*
X21900Y-14800D01*
X26000Y-25500D02*
X25900Y-25500D01*
X23900Y-15700D02*
X23000Y-14800D01*
X30500Y-33500D02*
X31000Y-34000D01*
X26000Y-25500D02*
X26300Y-25500D01*
X23900Y-23500D02*
X23900Y-15700D01*
X25900Y-25500D02*
X23900Y-23500D01*
X21000Y-15700D02*
X21900Y-14800D01*
X21700Y-14600D02*
X23100Y-14600D01*
X31000Y-33000D02*
X31000Y-29900D01*
X26200Y-25100D02*
X25900Y-25100D01*
X24100Y-23400D02*
X25800Y-25100D01*
X25800Y-25100D02*
X25900Y-25100D01*
X24100Y-15600D02*
X24100Y-23400D01*
X20600Y-15700D02*
X21700Y-14600D01*
X26200Y-25100D02*
X31000Y-29900D01*
X23100Y-14600D02*
X24100Y-15600D01*
X25800Y-24700D02*
X26100Y-24700D01*
X26100Y-24700D02*
X31500Y-30100D01*
X20200Y-15700D02*
X21500Y-14400D01*
X31500Y-33500D02*
X32000Y-34000D01*
X31500Y-30100D02*
X31500Y-33500D01*
X24300Y-15500D02*
X23200Y-14400D01*
X24300Y-23200D02*
X24300Y-15500D01*
X23200Y-14400D02*
X21500Y-14400D01*
X25800Y-24700D02*
X24300Y-23200D01*
X32000Y-33000D02*
X32000Y-30300D01*
X24500Y-15400D02*
X24500Y-22900D01*
X26000Y-24400D02*
X24500Y-22900D01*
X19800Y-15700D02*
X21300Y-14200D01*
X26100Y-24400D02*
X26000Y-24400D01*
X26100Y-24400D02*
X32000Y-30300D01*
X23300Y-14200D02*
X24500Y-15400D01*
X21300Y-14200D02*
X23300Y-14200D01*
X23500Y-26700D02*
X25500Y-28700D01*
X23500Y-26700D02*
X21900Y-25100D01*
X20200Y-18900D02*
X21900Y-20600D01*
X25500Y-28700D02*
X25500Y-33500D01*
X21900Y-25100D02*
X21900Y-20600D01*
X25500Y-33500D02*
X26000Y-34000D01*
X23500Y-26300D02*
X26000Y-28800D01*
X22100Y-24900D02*
X22100Y-20400D01*
X20600Y-18900D02*
X22100Y-20400D01*
X26000Y-33000D02*
X26000Y-28800D01*
X23500Y-26300D02*
X22100Y-24900D01*
X26500Y-29000D02*
X26500Y-33500D01*
X26500Y-33500D02*
X27000Y-34000D01*
X22300Y-24700D02*
X23300Y-25700D01*
X23300Y-25700D02*
X25600Y-28000D01*
X25600Y-28000D02*
X25600Y-28100D01*
X22300Y-19800D02*
X21400Y-18900D01*
X25600Y-28100D02*
X26500Y-29000D01*
X22300Y-24700D02*
X22300Y-19800D01*
X22500Y-24500D02*
X22500Y-19600D01*
X22500Y-24500D02*
X23300Y-25300D01*
X25800Y-27800D02*
X25800Y-28000D01*
X25800Y-28000D02*
X27000Y-29200D01*
X23300Y-25300D02*
X25800Y-27800D01*
X27000Y-33000D02*
X27000Y-29200D01*
X22500Y-19600D02*
X21800Y-18900D01*
X23300Y-24900D02*
X22700Y-24300D01*
X22700Y-24300D02*
X22700Y-19400D01*
X22700Y-19400D02*
X22200Y-18900D01*
X27500Y-33500D02*
X28000Y-34000D01*
X26000Y-27900D02*
X27500Y-29400D01*
X23300Y-24900D02*
X26000Y-27600D01*
X26000Y-27600D02*
X26000Y-27900D01*
X27500Y-29400D02*
X27500Y-33500D01*
X26200Y-27400D02*
X26200Y-27800D01*
X22900Y-24100D02*
X22900Y-19200D01*
X27800Y-32800D02*
X27800Y-29400D01*
X22900Y-19200D02*
X22600Y-18900D01*
X23300Y-24500D02*
X22900Y-24100D01*
X26200Y-27800D02*
X27800Y-29400D01*
X27800Y-32800D02*
X28000Y-33000D01*
X23300Y-24500D02*
X26200Y-27400D01*
X28500Y-29300D02*
X26500Y-27300D01*
X23100Y-23900D02*
X23100Y-16200D01*
X23100Y-16200D02*
X22600Y-15700D01*
X28500Y-33500D02*
X29000Y-34000D01*
X28500Y-29300D02*
X28500Y-33500D01*
X26500Y-27300D02*
X23100Y-23900D01*
X26500Y-26900D02*
X26400Y-26900D01*
X29000Y-33000D02*
X29000Y-29400D01*
X22500Y-15400D02*
X22700Y-15400D01*
X22700Y-15400D02*
X23300Y-16000D01*
X26400Y-26900D02*
X23300Y-23800D01*
X23300Y-16000D02*
X23300Y-23800D01*
X29000Y-29400D02*
X26500Y-26900D01*
X22200Y-15700D02*
X22500Y-15400D01*
X26000Y-13100D02*
X17400Y-13100D01*
X17400Y-13100D02*
X11000Y-19500D01*
X12500Y-25000D02*
X12500Y-28000D01*
X12000Y-24500D02*
X12500Y-25000D01*
X12500Y-28000D02*
X12000Y-28500D01*
X12000Y-23500D02*
X11500Y-24000D01*
X11500Y-27000D02*
X12000Y-27500D01*
X11500Y-24000D02*
X11500Y-27000D01*
X35000Y-32600D02*
X35000Y-33000D01*
X24900Y-22500D02*
X35000Y-32600D01*
X24900Y-15200D02*
X24900Y-22500D01*
X23500Y-13800D02*
X24900Y-15200D01*
X19200Y-15700D02*
X19200Y-15600D01*
X21000Y-13800D02*
X23500Y-13800D01*
X19200Y-15600D02*
X21000Y-13800D01*
X19500Y-15600D02*
X21100Y-14000D01*
X34500Y-33500D02*
X34000Y-34000D01*
X19500Y-15800D02*
X19500Y-15600D01*
X18700Y-16000D02*
X19300Y-16000D01*
X21100Y-14000D02*
X23400Y-14000D01*
X19500Y-15800D02*
X19300Y-16000D01*
X28200Y-29400D02*
X28200Y-32200D01*
X26500Y-27700D02*
X28200Y-29400D01*
X18400Y-15700D02*
X18700Y-16000D01*
X24700Y-22700D02*
X34500Y-32500D01*
X23400Y-14000D02*
X24700Y-15300D01*
X34500Y-32500D02*
X34500Y-33500D01*
X24700Y-15300D02*
X24700Y-22700D01*
X20900Y-13600D02*
X23600Y-13600D01*
X35500Y-32800D02*
X35500Y-33500D01*
X35500Y-33500D02*
X36000Y-34000D01*
X25100Y-15100D02*
X25100Y-22400D01*
X23600Y-13600D02*
X25100Y-15100D01*
X18800Y-15700D02*
X20900Y-13600D01*
X35500Y-32800D02*
X25100Y-22400D01*
X23900Y-29500D02*
X22900Y-29500D01*
X18100Y-26000D02*
X18400Y-25700D01*
X18100Y-26400D02*
X18100Y-26000D01*
X22900Y-29500D02*
X19100Y-25700D01*
X18400Y-25700D02*
X19100Y-25700D01*
X23900Y-29100D02*
X22800Y-29100D01*
X19200Y-25500D02*
X18200Y-25500D01*
X23900Y-28300D02*
X21300Y-25700D01*
X19000Y-18900D02*
X21300Y-21200D01*
X18200Y-25500D02*
X17900Y-25800D01*
X23900Y-29100D02*
X23900Y-28300D01*
X22800Y-29100D02*
X19200Y-25500D01*
X21300Y-25700D02*
X21300Y-21200D01*
X11000Y-23500D02*
X11500Y-23000D01*
X11500Y-23000D02*
X16500Y-23000D01*
X16500Y-23000D02*
X18900Y-20600D01*
X33800Y-11500D02*
X42000Y-11500D01*
X46000Y-16800D02*
X46000Y-18500D01*
X45700Y-16500D02*
X46000Y-16800D01*
X33000Y-10000D02*
X33500Y-10500D01*
X45100Y-16500D02*
X45700Y-16500D01*
X46000Y-18500D02*
X45500Y-19000D01*
X45000Y-16400D02*
X45100Y-16500D01*
X33500Y-11200D02*
X33800Y-11500D01*
X33500Y-10500D02*
X33500Y-11200D01*
X42000Y-11500D02*
X45000Y-14500D01*
X45000Y-14500D02*
X45000Y-16400D01*
X33000Y-11000D02*
X33700Y-11700D01*
X44600Y-14900D02*
X44600Y-16800D01*
X45500Y-18000D02*
X45500Y-17700D01*
X33700Y-11700D02*
X41400Y-11700D01*
X41400Y-11700D02*
X44600Y-14900D01*
X45500Y-17700D02*
X44600Y-16800D01*
X32500Y-10500D02*
X32500Y-11200D01*
X41300Y-11900D02*
X44400Y-15000D01*
X33200Y-11900D02*
X41300Y-11900D01*
X44400Y-15000D02*
X44400Y-18600D01*
X45500Y-20000D02*
X45500Y-19700D01*
X45500Y-19700D02*
X44400Y-18600D01*
X32000Y-10000D02*
X32500Y-10500D01*
X32500Y-11200D02*
X33200Y-11900D01*
X32000Y-11000D02*
X33100Y-12100D01*
X44200Y-15100D02*
X44200Y-19400D01*
X41200Y-12100D02*
X44200Y-15100D01*
X33100Y-12100D02*
X41200Y-12100D01*
X45500Y-20700D02*
X44200Y-19400D01*
X45500Y-21000D02*
X45500Y-20700D01*
X31500Y-10500D02*
X31500Y-11200D01*
X32600Y-12300D02*
X41100Y-12300D01*
X31500Y-11200D02*
X32600Y-12300D01*
X41100Y-12300D02*
X43300Y-14500D01*
X31000Y-10000D02*
X31500Y-10500D01*
X43300Y-14500D02*
X43300Y-14700D01*
X41900Y-11800D02*
X44800Y-14700D01*
X45300Y-17000D02*
X44800Y-16500D01*
X45500Y-17000D02*
X45300Y-17000D01*
X44800Y-14700D02*
X44800Y-16500D01*
X41500Y-09800D02*
X41838Y-09462D01*
X41838Y-09462D02*
X44038Y-09462D01*
X44038Y-09462D02*
X45500Y-08000D01*
X41000Y-11000D02*
X41500Y-10500D01*
X41500Y-10500D02*
X41500Y-09800D01*
X43200Y-09300D02*
X45500Y-07000D01*
X41000Y-10000D02*
X41700Y-09300D01*
X41700Y-09300D02*
X43200Y-09300D01*
X46500Y-07000D02*
X47000Y-07500D01*
X47000Y-07500D02*
X47000Y-11000D01*
X47000Y-11000D02*
X46500Y-11500D01*
X46500Y-11500D02*
X47200Y-12200D01*
X47200Y-18300D02*
X46500Y-19000D01*
X47200Y-12200D02*
X47200Y-18300D01*
X46500Y-18000D02*
X47000Y-17500D01*
X47000Y-13000D02*
X46500Y-12500D01*
X46500Y-08000D02*
X46000Y-08500D01*
X46000Y-12000D02*
X46500Y-12500D01*
X46000Y-08500D02*
X46000Y-12000D01*
X47000Y-17500D02*
X47000Y-13000D01*
G54D15*
X41725Y-25625D02*
X40325Y-25625D01*
G54D10*
G36*
X24210Y-32493D02*
X24109Y-32451D01*
X23932Y-32451D01*
X24012Y-32418D01*
X24117Y-32313D01*
X24175Y-32175D01*
X24175Y-32026D01*
X24118Y-31888D01*
X24013Y-31783D01*
X23875Y-31725D01*
X23726Y-31725D01*
X23588Y-31782D01*
X23483Y-31887D01*
X23475Y-31906D01*
X23475Y-31375D01*
X23475Y-31226D01*
X23418Y-31088D01*
X23313Y-30983D01*
X23175Y-30925D01*
X23026Y-30925D01*
X22888Y-30982D01*
X22783Y-31087D01*
X22725Y-31225D01*
X22725Y-31374D01*
X22782Y-31512D01*
X22887Y-31617D01*
X23025Y-31675D01*
X23174Y-31675D01*
X23312Y-31618D01*
X23417Y-31513D01*
X23475Y-31375D01*
X23475Y-31906D01*
X23425Y-32025D01*
X23425Y-32174D01*
X23482Y-32312D01*
X23587Y-32417D01*
X23725Y-32475D01*
X23833Y-32475D01*
X23689Y-32535D01*
X23535Y-32689D01*
X23500Y-32773D01*
X23465Y-32689D01*
X23311Y-32535D01*
X23109Y-32451D01*
X22891Y-32451D01*
X22689Y-32535D01*
X22667Y-32556D01*
X21690Y-31579D01*
X21690Y-28700D01*
X22695Y-29705D01*
X22789Y-29768D01*
X22900Y-29790D01*
X23660Y-29790D01*
X23687Y-29817D01*
X23825Y-29875D01*
X23974Y-29875D01*
X24112Y-29818D01*
X24210Y-29720D01*
X24210Y-32493D01*
X24210Y-32493D01*
G37*
G54D16*
X24210Y-32493D02*
X24109Y-32451D01*
X23932Y-32451D01*
X24012Y-32418D01*
X24117Y-32313D01*
X24175Y-32175D01*
X24175Y-32026D01*
X24118Y-31888D01*
X24013Y-31783D01*
X23875Y-31725D01*
X23726Y-31725D01*
X23588Y-31782D01*
X23483Y-31887D01*
X23475Y-31906D01*
X23475Y-31375D01*
X23475Y-31226D01*
X23418Y-31088D01*
X23313Y-30983D01*
X23175Y-30925D01*
X23026Y-30925D01*
X22888Y-30982D01*
X22783Y-31087D01*
X22725Y-31225D01*
X22725Y-31374D01*
X22782Y-31512D01*
X22887Y-31617D01*
X23025Y-31675D01*
X23174Y-31675D01*
X23312Y-31618D01*
X23417Y-31513D01*
X23475Y-31375D01*
X23475Y-31906D01*
X23425Y-32025D01*
X23425Y-32174D01*
X23482Y-32312D01*
X23587Y-32417D01*
X23725Y-32475D01*
X23833Y-32475D01*
X23689Y-32535D01*
X23535Y-32689D01*
X23500Y-32773D01*
X23465Y-32689D01*
X23311Y-32535D01*
X23109Y-32451D01*
X22891Y-32451D01*
X22689Y-32535D01*
X22667Y-32556D01*
X21690Y-31579D01*
X21690Y-28700D01*
X22695Y-29705D01*
X22789Y-29768D01*
X22900Y-29790D01*
X23660Y-29790D01*
X23687Y-29817D01*
X23825Y-29875D01*
X23974Y-29875D01*
X24112Y-29818D01*
X24210Y-29720D01*
X24210Y-32493D01*
G54D10*
G36*
X47175Y-37675D02*
X46999Y-37675D01*
X43549Y-37675D01*
X43549Y-34109D01*
X43549Y-33891D01*
X43543Y-33876D01*
X43543Y-33079D01*
X43532Y-32866D01*
X43472Y-32719D01*
X43378Y-32692D01*
X43308Y-32762D01*
X43308Y-32622D01*
X43281Y-32528D01*
X43079Y-32457D01*
X42866Y-32468D01*
X42719Y-32528D01*
X42692Y-32622D01*
X43000Y-32929D01*
X43308Y-32622D01*
X43308Y-32762D01*
X43071Y-33000D01*
X43378Y-33308D01*
X43472Y-33281D01*
X43543Y-33079D01*
X43543Y-33876D01*
X43465Y-33689D01*
X43311Y-33535D01*
X43219Y-33497D01*
X43281Y-33472D01*
X43308Y-33378D01*
X43000Y-33071D01*
X42692Y-33378D01*
X42719Y-33472D01*
X42784Y-33495D01*
X42689Y-33535D01*
X42535Y-33689D01*
X42500Y-33773D01*
X42465Y-33689D01*
X42311Y-33535D01*
X42226Y-33500D01*
X42311Y-33465D01*
X42465Y-33311D01*
X42502Y-33219D01*
X42528Y-33281D01*
X42622Y-33308D01*
X42929Y-33000D01*
X42622Y-32692D01*
X42528Y-32719D01*
X42504Y-32784D01*
X42465Y-32689D01*
X42311Y-32535D01*
X42109Y-32451D01*
X41891Y-32451D01*
X41689Y-32535D01*
X41535Y-32689D01*
X41500Y-32773D01*
X41465Y-32689D01*
X41311Y-32535D01*
X41109Y-32451D01*
X40891Y-32451D01*
X40689Y-32535D01*
X40535Y-32689D01*
X40500Y-32773D01*
X40465Y-32689D01*
X40311Y-32535D01*
X40109Y-32451D01*
X39891Y-32451D01*
X39689Y-32535D01*
X39575Y-32649D01*
X39575Y-28375D01*
X39575Y-28226D01*
X39518Y-28088D01*
X39413Y-27983D01*
X39275Y-27925D01*
X39126Y-27925D01*
X39049Y-27956D01*
X39049Y-22350D01*
X39049Y-22251D01*
X39049Y-21651D01*
X39011Y-21559D01*
X38941Y-21489D01*
X38850Y-21451D01*
X38751Y-21451D01*
X38375Y-21451D01*
X38375Y-20375D01*
X38375Y-20226D01*
X38375Y-14875D01*
X38375Y-14726D01*
X38318Y-14588D01*
X38213Y-14483D01*
X38075Y-14425D01*
X37926Y-14425D01*
X37788Y-14482D01*
X37683Y-14587D01*
X37625Y-14725D01*
X37625Y-14874D01*
X37682Y-15012D01*
X37787Y-15117D01*
X37925Y-15175D01*
X38074Y-15175D01*
X38212Y-15118D01*
X38317Y-15013D01*
X38375Y-14875D01*
X38375Y-20226D01*
X38318Y-20088D01*
X38213Y-19983D01*
X38075Y-19925D01*
X37926Y-19925D01*
X37788Y-19982D01*
X37683Y-20087D01*
X37625Y-20225D01*
X37625Y-20374D01*
X37682Y-20512D01*
X37787Y-20617D01*
X37925Y-20675D01*
X38074Y-20675D01*
X38212Y-20618D01*
X38317Y-20513D01*
X38375Y-20375D01*
X38375Y-21451D01*
X38151Y-21451D01*
X38059Y-21489D01*
X37989Y-21559D01*
X37951Y-21650D01*
X37951Y-21675D01*
X37811Y-21535D01*
X37609Y-21451D01*
X37391Y-21451D01*
X37189Y-21535D01*
X37035Y-21689D01*
X36951Y-21891D01*
X36951Y-22109D01*
X37035Y-22311D01*
X37189Y-22465D01*
X37391Y-22549D01*
X37609Y-22549D01*
X37811Y-22465D01*
X37951Y-22325D01*
X37951Y-22349D01*
X37989Y-22441D01*
X38059Y-22511D01*
X38150Y-22549D01*
X38249Y-22549D01*
X38849Y-22549D01*
X38941Y-22511D01*
X39011Y-22441D01*
X39049Y-22350D01*
X39049Y-27956D01*
X38988Y-27982D01*
X38883Y-28087D01*
X38825Y-28225D01*
X38825Y-28374D01*
X38882Y-28512D01*
X38987Y-28617D01*
X39125Y-28675D01*
X39274Y-28675D01*
X39412Y-28618D01*
X39517Y-28513D01*
X39575Y-28375D01*
X39575Y-32649D01*
X39535Y-32689D01*
X39500Y-32773D01*
X39465Y-32689D01*
X39311Y-32535D01*
X39109Y-32451D01*
X38891Y-32451D01*
X38689Y-32535D01*
X38535Y-32689D01*
X38500Y-32773D01*
X38465Y-32689D01*
X38311Y-32535D01*
X38109Y-32451D01*
X37891Y-32451D01*
X37689Y-32535D01*
X37535Y-32689D01*
X37500Y-32773D01*
X37465Y-32689D01*
X37311Y-32535D01*
X37109Y-32451D01*
X36891Y-32451D01*
X36689Y-32535D01*
X36575Y-32649D01*
X36575Y-17775D01*
X36575Y-17626D01*
X36518Y-17488D01*
X36413Y-17383D01*
X36275Y-17325D01*
X36126Y-17325D01*
X35988Y-17382D01*
X35883Y-17487D01*
X35825Y-17625D01*
X35825Y-17774D01*
X35882Y-17912D01*
X35987Y-18017D01*
X36125Y-18075D01*
X36274Y-18075D01*
X36412Y-18018D01*
X36517Y-17913D01*
X36575Y-17775D01*
X36575Y-32649D01*
X36535Y-32689D01*
X36500Y-32773D01*
X36465Y-32689D01*
X36311Y-32535D01*
X36109Y-32451D01*
X35891Y-32451D01*
X35689Y-32535D01*
X35667Y-32557D01*
X33375Y-30265D01*
X33375Y-16975D01*
X33375Y-16826D01*
X33318Y-16688D01*
X33213Y-16583D01*
X33075Y-16525D01*
X32926Y-16525D01*
X32788Y-16582D01*
X32683Y-16687D01*
X32625Y-16825D01*
X32625Y-16974D01*
X32682Y-17112D01*
X32787Y-17217D01*
X32925Y-17275D01*
X33074Y-17275D01*
X33212Y-17218D01*
X33317Y-17113D01*
X33375Y-16975D01*
X33375Y-30265D01*
X31075Y-27965D01*
X31075Y-18575D01*
X31075Y-18426D01*
X31075Y-16175D01*
X31075Y-16026D01*
X31018Y-15888D01*
X30913Y-15783D01*
X30775Y-15725D01*
X30626Y-15725D01*
X30488Y-15782D01*
X30383Y-15887D01*
X30367Y-15925D01*
X30326Y-15925D01*
X30188Y-15982D01*
X30083Y-16087D01*
X30067Y-16125D01*
X30026Y-16125D01*
X29888Y-16182D01*
X29783Y-16287D01*
X29767Y-16325D01*
X29726Y-16325D01*
X29588Y-16382D01*
X29483Y-16487D01*
X29425Y-16625D01*
X29425Y-16774D01*
X29482Y-16912D01*
X29587Y-17017D01*
X29725Y-17075D01*
X29874Y-17075D01*
X30012Y-17018D01*
X30117Y-16913D01*
X30132Y-16875D01*
X30174Y-16875D01*
X30312Y-16818D01*
X30417Y-16713D01*
X30432Y-16675D01*
X30474Y-16675D01*
X30612Y-16618D01*
X30717Y-16513D01*
X30732Y-16475D01*
X30774Y-16475D01*
X30912Y-16418D01*
X31017Y-16313D01*
X31075Y-16175D01*
X31075Y-18426D01*
X31018Y-18288D01*
X30913Y-18183D01*
X30775Y-18125D01*
X30626Y-18125D01*
X30488Y-18182D01*
X30383Y-18287D01*
X30367Y-18325D01*
X30326Y-18325D01*
X30188Y-18382D01*
X30083Y-18487D01*
X30067Y-18525D01*
X30026Y-18525D01*
X29888Y-18582D01*
X29783Y-18687D01*
X29767Y-18725D01*
X29726Y-18725D01*
X29588Y-18782D01*
X29483Y-18887D01*
X29425Y-19025D01*
X29425Y-19174D01*
X29482Y-19312D01*
X29587Y-19417D01*
X29725Y-19475D01*
X29874Y-19475D01*
X30012Y-19418D01*
X30117Y-19313D01*
X30132Y-19275D01*
X30174Y-19275D01*
X30312Y-19218D01*
X30417Y-19113D01*
X30432Y-19075D01*
X30474Y-19075D01*
X30612Y-19018D01*
X30717Y-18913D01*
X30732Y-18875D01*
X30774Y-18875D01*
X30912Y-18818D01*
X31017Y-18713D01*
X31075Y-18575D01*
X31075Y-27965D01*
X28975Y-25865D01*
X28975Y-12675D01*
X28975Y-12526D01*
X28918Y-12388D01*
X28813Y-12283D01*
X28675Y-12225D01*
X28526Y-12225D01*
X28388Y-12282D01*
X28283Y-12387D01*
X28225Y-12525D01*
X28225Y-12674D01*
X28282Y-12812D01*
X28387Y-12917D01*
X28525Y-12975D01*
X28674Y-12975D01*
X28812Y-12918D01*
X28917Y-12813D01*
X28975Y-12675D01*
X28975Y-25865D01*
X27975Y-24865D01*
X27975Y-17975D01*
X27975Y-17826D01*
X27918Y-17688D01*
X27813Y-17583D01*
X27675Y-17525D01*
X27526Y-17525D01*
X27388Y-17582D01*
X27283Y-17687D01*
X27225Y-17825D01*
X27225Y-17974D01*
X27282Y-18112D01*
X27387Y-18217D01*
X27525Y-18275D01*
X27674Y-18275D01*
X27812Y-18218D01*
X27917Y-18113D01*
X27975Y-17975D01*
X27975Y-24865D01*
X25390Y-22280D01*
X25390Y-15100D01*
X25368Y-14989D01*
X25305Y-14895D01*
X23805Y-13395D01*
X23797Y-13390D01*
X25760Y-13390D01*
X25787Y-13417D01*
X25925Y-13475D01*
X26074Y-13475D01*
X26212Y-13418D01*
X26317Y-13313D01*
X26375Y-13175D01*
X26375Y-13026D01*
X26318Y-12888D01*
X26213Y-12783D01*
X26075Y-12725D01*
X25926Y-12725D01*
X25788Y-12782D01*
X25760Y-12810D01*
X17400Y-12810D01*
X17289Y-12832D01*
X17195Y-12895D01*
X17194Y-12895D01*
X17194Y-12896D01*
X16308Y-13782D01*
X16308Y-11378D01*
X16000Y-11071D01*
X15929Y-11141D01*
X15929Y-11000D01*
X15622Y-10692D01*
X15528Y-10719D01*
X15504Y-10784D01*
X15465Y-10689D01*
X15311Y-10535D01*
X15226Y-10500D01*
X15311Y-10465D01*
X15465Y-10311D01*
X15502Y-10219D01*
X15528Y-10281D01*
X15622Y-10308D01*
X15929Y-10000D01*
X15622Y-09692D01*
X15528Y-09719D01*
X15504Y-09784D01*
X15465Y-09689D01*
X15311Y-09535D01*
X15109Y-09451D01*
X14891Y-09451D01*
X14689Y-09535D01*
X14535Y-09689D01*
X14500Y-09773D01*
X14465Y-09689D01*
X14311Y-09535D01*
X14109Y-09451D01*
X13891Y-09451D01*
X13689Y-09535D01*
X13535Y-09689D01*
X13500Y-09773D01*
X13465Y-09689D01*
X13311Y-09535D01*
X13109Y-09451D01*
X12891Y-09451D01*
X12689Y-09535D01*
X12535Y-09689D01*
X12500Y-09773D01*
X12465Y-09689D01*
X12311Y-09535D01*
X12109Y-09451D01*
X11891Y-09451D01*
X11689Y-09535D01*
X11535Y-09689D01*
X11451Y-09891D01*
X11451Y-10109D01*
X11535Y-10311D01*
X11689Y-10465D01*
X11773Y-10500D01*
X11689Y-10535D01*
X11535Y-10689D01*
X11451Y-10891D01*
X11451Y-11109D01*
X11535Y-11311D01*
X11689Y-11465D01*
X11891Y-11549D01*
X12109Y-11549D01*
X12311Y-11465D01*
X12465Y-11311D01*
X12500Y-11226D01*
X12535Y-11311D01*
X12689Y-11465D01*
X12891Y-11549D01*
X13109Y-11549D01*
X13311Y-11465D01*
X13465Y-11311D01*
X13500Y-11226D01*
X13535Y-11311D01*
X13689Y-11465D01*
X13891Y-11549D01*
X14109Y-11549D01*
X14311Y-11465D01*
X14465Y-11311D01*
X14500Y-11226D01*
X14535Y-11311D01*
X14689Y-11465D01*
X14891Y-11549D01*
X15109Y-11549D01*
X15311Y-11465D01*
X15465Y-11311D01*
X15502Y-11219D01*
X15528Y-11281D01*
X15622Y-11308D01*
X15929Y-11000D01*
X15929Y-11141D01*
X15692Y-11378D01*
X15719Y-11472D01*
X15921Y-11543D01*
X16134Y-11532D01*
X16281Y-11472D01*
X16308Y-11378D01*
X16308Y-13782D01*
X12549Y-17541D01*
X12549Y-17391D01*
X12465Y-17189D01*
X12311Y-17035D01*
X12226Y-17000D01*
X12311Y-16965D01*
X12465Y-16811D01*
X12549Y-16609D01*
X12549Y-16391D01*
X12549Y-14609D01*
X12549Y-14391D01*
X12465Y-14189D01*
X12311Y-14035D01*
X12226Y-14000D01*
X12311Y-13965D01*
X12465Y-13811D01*
X12549Y-13609D01*
X12549Y-13391D01*
X12465Y-13189D01*
X12311Y-13035D01*
X12109Y-12951D01*
X11891Y-12951D01*
X11689Y-13035D01*
X11549Y-13175D01*
X11549Y-13151D01*
X11511Y-13059D01*
X11441Y-12989D01*
X11350Y-12951D01*
X11251Y-12951D01*
X10651Y-12951D01*
X10559Y-12989D01*
X10489Y-13059D01*
X10451Y-13150D01*
X10451Y-13249D01*
X10451Y-13849D01*
X10489Y-13941D01*
X10559Y-14011D01*
X10650Y-14049D01*
X10675Y-14049D01*
X10535Y-14189D01*
X10451Y-14391D01*
X10451Y-14609D01*
X10535Y-14811D01*
X10689Y-14965D01*
X10780Y-15002D01*
X10719Y-15028D01*
X10692Y-15122D01*
X11000Y-15429D01*
X11308Y-15122D01*
X11281Y-15028D01*
X11215Y-15004D01*
X11311Y-14965D01*
X11465Y-14811D01*
X11500Y-14726D01*
X11535Y-14811D01*
X11689Y-14965D01*
X11780Y-15002D01*
X11719Y-15028D01*
X11692Y-15122D01*
X12000Y-15429D01*
X12308Y-15122D01*
X12281Y-15028D01*
X12215Y-15004D01*
X12311Y-14965D01*
X12465Y-14811D01*
X12549Y-14609D01*
X12549Y-16391D01*
X12543Y-16376D01*
X12543Y-15579D01*
X12532Y-15366D01*
X12472Y-15219D01*
X12378Y-15192D01*
X12071Y-15500D01*
X12378Y-15808D01*
X12472Y-15781D01*
X12543Y-15579D01*
X12543Y-16376D01*
X12465Y-16189D01*
X12311Y-16035D01*
X12219Y-15997D01*
X12281Y-15972D01*
X12308Y-15878D01*
X12000Y-15571D01*
X11929Y-15641D01*
X11929Y-15500D01*
X11622Y-15192D01*
X11528Y-15219D01*
X11502Y-15292D01*
X11472Y-15219D01*
X11378Y-15192D01*
X11071Y-15500D01*
X11378Y-15808D01*
X11472Y-15781D01*
X11497Y-15707D01*
X11528Y-15781D01*
X11622Y-15808D01*
X11929Y-15500D01*
X11929Y-15641D01*
X11692Y-15878D01*
X11719Y-15972D01*
X11784Y-15995D01*
X11689Y-16035D01*
X11535Y-16189D01*
X11500Y-16273D01*
X11465Y-16189D01*
X11311Y-16035D01*
X11219Y-15997D01*
X11281Y-15972D01*
X11308Y-15878D01*
X11000Y-15571D01*
X10929Y-15641D01*
X10929Y-15500D01*
X10622Y-15192D01*
X10528Y-15219D01*
X10457Y-15421D01*
X10468Y-15634D01*
X10528Y-15781D01*
X10622Y-15808D01*
X10929Y-15500D01*
X10929Y-15641D01*
X10692Y-15878D01*
X10719Y-15972D01*
X10784Y-15995D01*
X10689Y-16035D01*
X10535Y-16189D01*
X10451Y-16391D01*
X10451Y-16609D01*
X10535Y-16811D01*
X10689Y-16965D01*
X10773Y-17000D01*
X10689Y-17035D01*
X10535Y-17189D01*
X10451Y-17391D01*
X10451Y-17609D01*
X10535Y-17811D01*
X10689Y-17965D01*
X10891Y-18049D01*
X11109Y-18049D01*
X11311Y-17965D01*
X11465Y-17811D01*
X11500Y-17726D01*
X11535Y-17811D01*
X11689Y-17965D01*
X11891Y-18049D01*
X12041Y-18049D01*
X11139Y-18951D01*
X10651Y-18951D01*
X10559Y-18989D01*
X10489Y-19059D01*
X10451Y-19150D01*
X10451Y-19249D01*
X10451Y-19849D01*
X10489Y-19941D01*
X10559Y-20011D01*
X10650Y-20049D01*
X10675Y-20049D01*
X10535Y-20189D01*
X10451Y-20391D01*
X10451Y-20609D01*
X10535Y-20811D01*
X10689Y-20965D01*
X10773Y-21000D01*
X10689Y-21035D01*
X10535Y-21189D01*
X10451Y-21391D01*
X10451Y-21609D01*
X10535Y-21811D01*
X10689Y-21965D01*
X10773Y-22000D01*
X10689Y-22035D01*
X10535Y-22189D01*
X10451Y-22391D01*
X10451Y-22609D01*
X10535Y-22811D01*
X10675Y-22951D01*
X10651Y-22951D01*
X10559Y-22989D01*
X10489Y-23059D01*
X10451Y-23150D01*
X10451Y-23249D01*
X10451Y-23849D01*
X10489Y-23941D01*
X10559Y-24011D01*
X10650Y-24049D01*
X10675Y-24049D01*
X10535Y-24189D01*
X10451Y-24391D01*
X10451Y-24609D01*
X10535Y-24811D01*
X10689Y-24965D01*
X10773Y-25000D01*
X10689Y-25035D01*
X10535Y-25189D01*
X10451Y-25391D01*
X10451Y-25609D01*
X10535Y-25811D01*
X10689Y-25965D01*
X10773Y-26000D01*
X10689Y-26035D01*
X10535Y-26189D01*
X10451Y-26391D01*
X10451Y-26609D01*
X10535Y-26811D01*
X10675Y-26951D01*
X10651Y-26951D01*
X10559Y-26989D01*
X10489Y-27059D01*
X10451Y-27150D01*
X10451Y-27249D01*
X10451Y-27849D01*
X10489Y-27941D01*
X10559Y-28011D01*
X10650Y-28049D01*
X10675Y-28049D01*
X10535Y-28189D01*
X10451Y-28391D01*
X10451Y-28609D01*
X10535Y-28811D01*
X10689Y-28965D01*
X10773Y-29000D01*
X10689Y-29035D01*
X10535Y-29189D01*
X10451Y-29391D01*
X10451Y-29609D01*
X10535Y-29811D01*
X10689Y-29965D01*
X10773Y-30000D01*
X10689Y-30035D01*
X10535Y-30189D01*
X10451Y-30391D01*
X10451Y-30609D01*
X10535Y-30811D01*
X10689Y-30965D01*
X10891Y-31049D01*
X11109Y-31049D01*
X11311Y-30965D01*
X11465Y-30811D01*
X11500Y-30726D01*
X11535Y-30811D01*
X11689Y-30965D01*
X11891Y-31049D01*
X12109Y-31049D01*
X12311Y-30965D01*
X12465Y-30811D01*
X12549Y-30609D01*
X12549Y-30391D01*
X12465Y-30189D01*
X12311Y-30035D01*
X12226Y-30000D01*
X12311Y-29965D01*
X12465Y-29811D01*
X12549Y-29609D01*
X12549Y-29391D01*
X12465Y-29189D01*
X12311Y-29035D01*
X12226Y-29000D01*
X12311Y-28965D01*
X12465Y-28811D01*
X12549Y-28609D01*
X12549Y-28391D01*
X12540Y-28369D01*
X12705Y-28205D01*
X12768Y-28111D01*
X12790Y-28000D01*
X12790Y-25000D01*
X12768Y-24889D01*
X12705Y-24795D01*
X12540Y-24630D01*
X12549Y-24609D01*
X12549Y-24391D01*
X12465Y-24189D01*
X12311Y-24035D01*
X12226Y-24000D01*
X12311Y-23965D01*
X12465Y-23811D01*
X12549Y-23609D01*
X12549Y-23391D01*
X12507Y-23290D01*
X16500Y-23290D01*
X16611Y-23268D01*
X16705Y-23205D01*
X18935Y-20975D01*
X18974Y-20975D01*
X19112Y-20918D01*
X19217Y-20813D01*
X19275Y-20675D01*
X19275Y-20526D01*
X19218Y-20388D01*
X19113Y-20283D01*
X18975Y-20225D01*
X18826Y-20225D01*
X18688Y-20282D01*
X18583Y-20387D01*
X18525Y-20525D01*
X18525Y-20565D01*
X16380Y-22710D01*
X12507Y-22710D01*
X12549Y-22609D01*
X12549Y-22391D01*
X12465Y-22189D01*
X12311Y-22035D01*
X12226Y-22000D01*
X12311Y-21965D01*
X12465Y-21811D01*
X12549Y-21609D01*
X12549Y-21391D01*
X12465Y-21189D01*
X12311Y-21035D01*
X12226Y-21000D01*
X12311Y-20965D01*
X12465Y-20811D01*
X12549Y-20609D01*
X12549Y-20391D01*
X12465Y-20189D01*
X12311Y-20035D01*
X12226Y-20000D01*
X12311Y-19965D01*
X12465Y-19811D01*
X12549Y-19609D01*
X12549Y-19391D01*
X12465Y-19189D01*
X12311Y-19035D01*
X12109Y-18951D01*
X11959Y-18951D01*
X17520Y-13390D01*
X20702Y-13390D01*
X20695Y-13395D01*
X20694Y-13395D01*
X20694Y-13396D01*
X20271Y-13818D01*
X20218Y-13688D01*
X20113Y-13583D01*
X19975Y-13525D01*
X19826Y-13525D01*
X19688Y-13582D01*
X19583Y-13687D01*
X19525Y-13825D01*
X19525Y-13974D01*
X19582Y-14112D01*
X19687Y-14217D01*
X19817Y-14272D01*
X18765Y-15325D01*
X18726Y-15325D01*
X18599Y-15377D01*
X18475Y-15325D01*
X18326Y-15325D01*
X18188Y-15382D01*
X18083Y-15487D01*
X18025Y-15625D01*
X18025Y-15774D01*
X18082Y-15912D01*
X18187Y-16017D01*
X18325Y-16075D01*
X18365Y-16075D01*
X18495Y-16205D01*
X18589Y-16268D01*
X18700Y-16290D01*
X19300Y-16290D01*
X19411Y-16268D01*
X19505Y-16205D01*
X19661Y-16048D01*
X19725Y-16075D01*
X19874Y-16075D01*
X20000Y-16022D01*
X20125Y-16075D01*
X20274Y-16075D01*
X20400Y-16022D01*
X20525Y-16075D01*
X20674Y-16075D01*
X20800Y-16022D01*
X20925Y-16075D01*
X21074Y-16075D01*
X21200Y-16022D01*
X21325Y-16075D01*
X21474Y-16075D01*
X21600Y-16022D01*
X21725Y-16075D01*
X21874Y-16075D01*
X22000Y-16022D01*
X22125Y-16075D01*
X22274Y-16075D01*
X22400Y-16022D01*
X22525Y-16075D01*
X22565Y-16075D01*
X22810Y-16320D01*
X22810Y-18581D01*
X22675Y-18525D01*
X22526Y-18525D01*
X22399Y-18577D01*
X22275Y-18525D01*
X22126Y-18525D01*
X21999Y-18577D01*
X21875Y-18525D01*
X21775Y-18525D01*
X21775Y-18426D01*
X21718Y-18288D01*
X21613Y-18183D01*
X21475Y-18125D01*
X21326Y-18125D01*
X21188Y-18182D01*
X21083Y-18287D01*
X21025Y-18425D01*
X21025Y-18574D01*
X21077Y-18700D01*
X21025Y-18825D01*
X21025Y-18915D01*
X20975Y-18865D01*
X20975Y-18826D01*
X20918Y-18688D01*
X20813Y-18583D01*
X20675Y-18525D01*
X20526Y-18525D01*
X20399Y-18577D01*
X20275Y-18525D01*
X20126Y-18525D01*
X19999Y-18577D01*
X19875Y-18525D01*
X19726Y-18525D01*
X19599Y-18577D01*
X19475Y-18525D01*
X19326Y-18525D01*
X19199Y-18577D01*
X19075Y-18525D01*
X18926Y-18525D01*
X18788Y-18582D01*
X18683Y-18687D01*
X18625Y-18825D01*
X18625Y-18974D01*
X18682Y-19112D01*
X18787Y-19217D01*
X18925Y-19275D01*
X18964Y-19275D01*
X19942Y-20252D01*
X19908Y-20287D01*
X19850Y-20425D01*
X19850Y-20574D01*
X19907Y-20712D01*
X20012Y-20817D01*
X20150Y-20875D01*
X20299Y-20875D01*
X20437Y-20818D01*
X20472Y-20782D01*
X21010Y-21320D01*
X21010Y-25700D01*
X21032Y-25811D01*
X21095Y-25905D01*
X23610Y-28420D01*
X23610Y-28810D01*
X22920Y-28810D01*
X19405Y-25295D01*
X19311Y-25232D01*
X19200Y-25210D01*
X18500Y-25210D01*
X20235Y-23475D01*
X20274Y-23475D01*
X20412Y-23418D01*
X20517Y-23313D01*
X20575Y-23175D01*
X20575Y-23026D01*
X20518Y-22888D01*
X20413Y-22783D01*
X20275Y-22725D01*
X20126Y-22725D01*
X19988Y-22782D01*
X19883Y-22887D01*
X19833Y-23003D01*
X19813Y-22983D01*
X19675Y-22925D01*
X19526Y-22925D01*
X19388Y-22982D01*
X19283Y-23087D01*
X19225Y-23225D01*
X19225Y-23365D01*
X17195Y-25395D01*
X17132Y-25489D01*
X17110Y-25600D01*
X17110Y-26400D01*
X17132Y-26511D01*
X17195Y-26605D01*
X17695Y-27105D01*
X17789Y-27168D01*
X17900Y-27190D01*
X18379Y-27190D01*
X18525Y-27335D01*
X18525Y-27374D01*
X18582Y-27512D01*
X18687Y-27617D01*
X18825Y-27675D01*
X18864Y-27675D01*
X19710Y-28520D01*
X19710Y-32526D01*
X19689Y-32535D01*
X19535Y-32689D01*
X19500Y-32773D01*
X19465Y-32689D01*
X19311Y-32535D01*
X19109Y-32451D01*
X18891Y-32451D01*
X18689Y-32535D01*
X18535Y-32689D01*
X18500Y-32773D01*
X18465Y-32689D01*
X18311Y-32535D01*
X18109Y-32451D01*
X17891Y-32451D01*
X17689Y-32535D01*
X17535Y-32689D01*
X17500Y-32773D01*
X17465Y-32689D01*
X17311Y-32535D01*
X17109Y-32451D01*
X16891Y-32451D01*
X16689Y-32535D01*
X16535Y-32689D01*
X16500Y-32773D01*
X16465Y-32689D01*
X16311Y-32535D01*
X16109Y-32451D01*
X15891Y-32451D01*
X15775Y-32499D01*
X15775Y-26075D01*
X15775Y-25926D01*
X15718Y-25788D01*
X15613Y-25683D01*
X15475Y-25625D01*
X15326Y-25625D01*
X15188Y-25682D01*
X15083Y-25787D01*
X15025Y-25925D01*
X15025Y-26074D01*
X15082Y-26212D01*
X15187Y-26317D01*
X15325Y-26375D01*
X15474Y-26375D01*
X15612Y-26318D01*
X15717Y-26213D01*
X15775Y-26075D01*
X15775Y-32499D01*
X15689Y-32535D01*
X15535Y-32689D01*
X15500Y-32773D01*
X15465Y-32689D01*
X15311Y-32535D01*
X15109Y-32451D01*
X14891Y-32451D01*
X14689Y-32535D01*
X14535Y-32689D01*
X14500Y-32773D01*
X14465Y-32689D01*
X14311Y-32535D01*
X14109Y-32451D01*
X13891Y-32451D01*
X13689Y-32535D01*
X13535Y-32689D01*
X13500Y-32773D01*
X13465Y-32689D01*
X13311Y-32535D01*
X13109Y-32451D01*
X12891Y-32451D01*
X12689Y-32535D01*
X12535Y-32689D01*
X12500Y-32773D01*
X12465Y-32689D01*
X12311Y-32535D01*
X12109Y-32451D01*
X11891Y-32451D01*
X11689Y-32535D01*
X11535Y-32689D01*
X11451Y-32891D01*
X11451Y-33109D01*
X11535Y-33311D01*
X11675Y-33451D01*
X11651Y-33451D01*
X11559Y-33489D01*
X11489Y-33559D01*
X11451Y-33650D01*
X11451Y-33749D01*
X11451Y-34349D01*
X11489Y-34441D01*
X11559Y-34511D01*
X11650Y-34549D01*
X11749Y-34549D01*
X12349Y-34549D01*
X12441Y-34511D01*
X12511Y-34441D01*
X12549Y-34350D01*
X12549Y-34325D01*
X12689Y-34465D01*
X12891Y-34549D01*
X13109Y-34549D01*
X13311Y-34465D01*
X13465Y-34311D01*
X13500Y-34226D01*
X13535Y-34311D01*
X13689Y-34465D01*
X13891Y-34549D01*
X14109Y-34549D01*
X14311Y-34465D01*
X14465Y-34311D01*
X14500Y-34226D01*
X14535Y-34311D01*
X14689Y-34465D01*
X14891Y-34549D01*
X15109Y-34549D01*
X15311Y-34465D01*
X15465Y-34311D01*
X15500Y-34226D01*
X15535Y-34311D01*
X15689Y-34465D01*
X15891Y-34549D01*
X16109Y-34549D01*
X16311Y-34465D01*
X16465Y-34311D01*
X16500Y-34226D01*
X16535Y-34311D01*
X16689Y-34465D01*
X16891Y-34549D01*
X17109Y-34549D01*
X17311Y-34465D01*
X17465Y-34311D01*
X17500Y-34226D01*
X17535Y-34311D01*
X17689Y-34465D01*
X17891Y-34549D01*
X18109Y-34549D01*
X18311Y-34465D01*
X18465Y-34311D01*
X18500Y-34226D01*
X18535Y-34311D01*
X18689Y-34465D01*
X18891Y-34549D01*
X19109Y-34549D01*
X19311Y-34465D01*
X19465Y-34311D01*
X19500Y-34226D01*
X19535Y-34311D01*
X19689Y-34465D01*
X19891Y-34549D01*
X20109Y-34549D01*
X20311Y-34465D01*
X20465Y-34311D01*
X20500Y-34226D01*
X20535Y-34311D01*
X20689Y-34465D01*
X20891Y-34549D01*
X21109Y-34549D01*
X21311Y-34465D01*
X21465Y-34311D01*
X21500Y-34226D01*
X21535Y-34311D01*
X21689Y-34465D01*
X21891Y-34549D01*
X22109Y-34549D01*
X22311Y-34465D01*
X22465Y-34311D01*
X22500Y-34226D01*
X22535Y-34311D01*
X22689Y-34465D01*
X22891Y-34549D01*
X23109Y-34549D01*
X23311Y-34465D01*
X23465Y-34311D01*
X23500Y-34226D01*
X23535Y-34311D01*
X23689Y-34465D01*
X23891Y-34549D01*
X24109Y-34549D01*
X24311Y-34465D01*
X24465Y-34311D01*
X24500Y-34226D01*
X24535Y-34311D01*
X24689Y-34465D01*
X24891Y-34549D01*
X25109Y-34549D01*
X25311Y-34465D01*
X25465Y-34311D01*
X25500Y-34226D01*
X25535Y-34311D01*
X25689Y-34465D01*
X25891Y-34549D01*
X26109Y-34549D01*
X26311Y-34465D01*
X26465Y-34311D01*
X26500Y-34226D01*
X26535Y-34311D01*
X26689Y-34465D01*
X26891Y-34549D01*
X27109Y-34549D01*
X27311Y-34465D01*
X27465Y-34311D01*
X27500Y-34226D01*
X27535Y-34311D01*
X27689Y-34465D01*
X27891Y-34549D01*
X28109Y-34549D01*
X28311Y-34465D01*
X28465Y-34311D01*
X28500Y-34226D01*
X28535Y-34311D01*
X28689Y-34465D01*
X28891Y-34549D01*
X29109Y-34549D01*
X29311Y-34465D01*
X29465Y-34311D01*
X29500Y-34226D01*
X29535Y-34311D01*
X29689Y-34465D01*
X29891Y-34549D01*
X30109Y-34549D01*
X30311Y-34465D01*
X30465Y-34311D01*
X30500Y-34226D01*
X30535Y-34311D01*
X30689Y-34465D01*
X30891Y-34549D01*
X31109Y-34549D01*
X31311Y-34465D01*
X31465Y-34311D01*
X31500Y-34226D01*
X31535Y-34311D01*
X31689Y-34465D01*
X31891Y-34549D01*
X32109Y-34549D01*
X32311Y-34465D01*
X32465Y-34311D01*
X32500Y-34226D01*
X32535Y-34311D01*
X32689Y-34465D01*
X32891Y-34549D01*
X33109Y-34549D01*
X33311Y-34465D01*
X33465Y-34311D01*
X33500Y-34226D01*
X33535Y-34311D01*
X33689Y-34465D01*
X33891Y-34549D01*
X34109Y-34549D01*
X34311Y-34465D01*
X34465Y-34311D01*
X34500Y-34226D01*
X34535Y-34311D01*
X34689Y-34465D01*
X34891Y-34549D01*
X35109Y-34549D01*
X35311Y-34465D01*
X35465Y-34311D01*
X35500Y-34226D01*
X35535Y-34311D01*
X35689Y-34465D01*
X35891Y-34549D01*
X36109Y-34549D01*
X36311Y-34465D01*
X36465Y-34311D01*
X36500Y-34226D01*
X36535Y-34311D01*
X36689Y-34465D01*
X36891Y-34549D01*
X37109Y-34549D01*
X37311Y-34465D01*
X37465Y-34311D01*
X37500Y-34226D01*
X37535Y-34311D01*
X37689Y-34465D01*
X37891Y-34549D01*
X38109Y-34549D01*
X38311Y-34465D01*
X38465Y-34311D01*
X38500Y-34226D01*
X38535Y-34311D01*
X38689Y-34465D01*
X38891Y-34549D01*
X39109Y-34549D01*
X39311Y-34465D01*
X39465Y-34311D01*
X39500Y-34226D01*
X39535Y-34311D01*
X39689Y-34465D01*
X39891Y-34549D01*
X40109Y-34549D01*
X40311Y-34465D01*
X40465Y-34311D01*
X40500Y-34226D01*
X40535Y-34311D01*
X40689Y-34465D01*
X40891Y-34549D01*
X41109Y-34549D01*
X41311Y-34465D01*
X41465Y-34311D01*
X41500Y-34226D01*
X41535Y-34311D01*
X41689Y-34465D01*
X41891Y-34549D01*
X42109Y-34549D01*
X42311Y-34465D01*
X42465Y-34311D01*
X42500Y-34226D01*
X42535Y-34311D01*
X42689Y-34465D01*
X42891Y-34549D01*
X43109Y-34549D01*
X43311Y-34465D01*
X43465Y-34311D01*
X43549Y-34109D01*
X43549Y-37675D01*
X10325Y-37675D01*
X10325Y-06325D01*
X47175Y-06325D01*
X47175Y-07265D01*
X47040Y-07130D01*
X47049Y-07109D01*
X47049Y-06891D01*
X46965Y-06689D01*
X46811Y-06535D01*
X46609Y-06451D01*
X46391Y-06451D01*
X46189Y-06535D01*
X46049Y-06675D01*
X46049Y-06651D01*
X46011Y-06559D01*
X45941Y-06489D01*
X45850Y-06451D01*
X45751Y-06451D01*
X45151Y-06451D01*
X45059Y-06489D01*
X44989Y-06559D01*
X44951Y-06650D01*
X44951Y-06749D01*
X44951Y-07138D01*
X43079Y-09010D01*
X41700Y-09010D01*
X41589Y-09032D01*
X41495Y-09095D01*
X41494Y-09095D01*
X41494Y-09096D01*
X41130Y-09459D01*
X41109Y-09451D01*
X40891Y-09451D01*
X40689Y-09535D01*
X40535Y-09689D01*
X40500Y-09773D01*
X40465Y-09689D01*
X40311Y-09535D01*
X40109Y-09451D01*
X39891Y-09451D01*
X39689Y-09535D01*
X39535Y-09689D01*
X39500Y-09773D01*
X39465Y-09689D01*
X39311Y-09535D01*
X39109Y-09451D01*
X38891Y-09451D01*
X38689Y-09535D01*
X38535Y-09689D01*
X38500Y-09773D01*
X38465Y-09689D01*
X38311Y-09535D01*
X38109Y-09451D01*
X37891Y-09451D01*
X37689Y-09535D01*
X37535Y-09689D01*
X37500Y-09773D01*
X37465Y-09689D01*
X37311Y-09535D01*
X37109Y-09451D01*
X36891Y-09451D01*
X36689Y-09535D01*
X36535Y-09689D01*
X36500Y-09773D01*
X36465Y-09689D01*
X36311Y-09535D01*
X36109Y-09451D01*
X35891Y-09451D01*
X35689Y-09535D01*
X35535Y-09689D01*
X35500Y-09773D01*
X35465Y-09689D01*
X35311Y-09535D01*
X35109Y-09451D01*
X34891Y-09451D01*
X34689Y-09535D01*
X34535Y-09689D01*
X34500Y-09773D01*
X34465Y-09689D01*
X34311Y-09535D01*
X34109Y-09451D01*
X33891Y-09451D01*
X33689Y-09535D01*
X33535Y-09689D01*
X33500Y-09773D01*
X33465Y-09689D01*
X33311Y-09535D01*
X33109Y-09451D01*
X32891Y-09451D01*
X32689Y-09535D01*
X32535Y-09689D01*
X32500Y-09773D01*
X32465Y-09689D01*
X32311Y-09535D01*
X32109Y-09451D01*
X31891Y-09451D01*
X31689Y-09535D01*
X31535Y-09689D01*
X31500Y-09773D01*
X31465Y-09689D01*
X31311Y-09535D01*
X31109Y-09451D01*
X30891Y-09451D01*
X30689Y-09535D01*
X30535Y-09689D01*
X30500Y-09773D01*
X30465Y-09689D01*
X30311Y-09535D01*
X30109Y-09451D01*
X29891Y-09451D01*
X29689Y-09535D01*
X29535Y-09689D01*
X29500Y-09773D01*
X29465Y-09689D01*
X29311Y-09535D01*
X29109Y-09451D01*
X28891Y-09451D01*
X28689Y-09535D01*
X28535Y-09689D01*
X28500Y-09773D01*
X28465Y-09689D01*
X28311Y-09535D01*
X28109Y-09451D01*
X27891Y-09451D01*
X27689Y-09535D01*
X27535Y-09689D01*
X27500Y-09773D01*
X27465Y-09689D01*
X27311Y-09535D01*
X27109Y-09451D01*
X26891Y-09451D01*
X26689Y-09535D01*
X26535Y-09689D01*
X26500Y-09773D01*
X26465Y-09689D01*
X26311Y-09535D01*
X26109Y-09451D01*
X25891Y-09451D01*
X25689Y-09535D01*
X25535Y-09689D01*
X25500Y-09773D01*
X25465Y-09689D01*
X25311Y-09535D01*
X25109Y-09451D01*
X24891Y-09451D01*
X24689Y-09535D01*
X24535Y-09689D01*
X24500Y-09773D01*
X24465Y-09689D01*
X24311Y-09535D01*
X24109Y-09451D01*
X23891Y-09451D01*
X23689Y-09535D01*
X23535Y-09689D01*
X23500Y-09773D01*
X23465Y-09689D01*
X23311Y-09535D01*
X23109Y-09451D01*
X22891Y-09451D01*
X22689Y-09535D01*
X22535Y-09689D01*
X22500Y-09773D01*
X22465Y-09689D01*
X22311Y-09535D01*
X22109Y-09451D01*
X21891Y-09451D01*
X21689Y-09535D01*
X21535Y-09689D01*
X21500Y-09773D01*
X21465Y-09689D01*
X21311Y-09535D01*
X21109Y-09451D01*
X20891Y-09451D01*
X20689Y-09535D01*
X20535Y-09689D01*
X20500Y-09773D01*
X20465Y-09689D01*
X20311Y-09535D01*
X20109Y-09451D01*
X19891Y-09451D01*
X19689Y-09535D01*
X19535Y-09689D01*
X19500Y-09773D01*
X19465Y-09689D01*
X19311Y-09535D01*
X19109Y-09451D01*
X18891Y-09451D01*
X18689Y-09535D01*
X18535Y-09689D01*
X18500Y-09773D01*
X18465Y-09689D01*
X18311Y-09535D01*
X18109Y-09451D01*
X17891Y-09451D01*
X17689Y-09535D01*
X17535Y-09689D01*
X17500Y-09773D01*
X17465Y-09689D01*
X17311Y-09535D01*
X17109Y-09451D01*
X16891Y-09451D01*
X16689Y-09535D01*
X16535Y-09689D01*
X16497Y-09780D01*
X16472Y-09719D01*
X16378Y-09692D01*
X16308Y-09762D01*
X16308Y-09622D01*
X16281Y-09528D01*
X16079Y-09457D01*
X15866Y-09468D01*
X15719Y-09528D01*
X15692Y-09622D01*
X16000Y-09929D01*
X16308Y-09622D01*
X16308Y-09762D01*
X16071Y-10000D01*
X16378Y-10308D01*
X16472Y-10281D01*
X16495Y-10215D01*
X16535Y-10311D01*
X16689Y-10465D01*
X16773Y-10500D01*
X16689Y-10535D01*
X16535Y-10689D01*
X16497Y-10780D01*
X16472Y-10719D01*
X16378Y-10692D01*
X16308Y-10762D01*
X16308Y-10622D01*
X16281Y-10528D01*
X16207Y-10502D01*
X16281Y-10472D01*
X16308Y-10378D01*
X16000Y-10071D01*
X15692Y-10378D01*
X15719Y-10472D01*
X15792Y-10497D01*
X15719Y-10528D01*
X15692Y-10622D01*
X16000Y-10929D01*
X16308Y-10622D01*
X16308Y-10762D01*
X16071Y-11000D01*
X16378Y-11308D01*
X16472Y-11281D01*
X16495Y-11215D01*
X16535Y-11311D01*
X16689Y-11465D01*
X16891Y-11549D01*
X17109Y-11549D01*
X17311Y-11465D01*
X17465Y-11311D01*
X17500Y-11226D01*
X17535Y-11311D01*
X17689Y-11465D01*
X17891Y-11549D01*
X18109Y-11549D01*
X18311Y-11465D01*
X18465Y-11311D01*
X18500Y-11226D01*
X18535Y-11311D01*
X18689Y-11465D01*
X18891Y-11549D01*
X19109Y-11549D01*
X19311Y-11465D01*
X19465Y-11311D01*
X19500Y-11226D01*
X19535Y-11311D01*
X19689Y-11465D01*
X19891Y-11549D01*
X20109Y-11549D01*
X20311Y-11465D01*
X20465Y-11311D01*
X20500Y-11226D01*
X20535Y-11311D01*
X20689Y-11465D01*
X20891Y-11549D01*
X21109Y-11549D01*
X21311Y-11465D01*
X21465Y-11311D01*
X21500Y-11226D01*
X21535Y-11311D01*
X21689Y-11465D01*
X21891Y-11549D01*
X22109Y-11549D01*
X22311Y-11465D01*
X22465Y-11311D01*
X22500Y-11226D01*
X22535Y-11311D01*
X22689Y-11465D01*
X22891Y-11549D01*
X23109Y-11549D01*
X23311Y-11465D01*
X23465Y-11311D01*
X23500Y-11226D01*
X23535Y-11311D01*
X23689Y-11465D01*
X23891Y-11549D01*
X24109Y-11549D01*
X24311Y-11465D01*
X24465Y-11311D01*
X24500Y-11226D01*
X24535Y-11311D01*
X24689Y-11465D01*
X24891Y-11549D01*
X25109Y-11549D01*
X25311Y-11465D01*
X25465Y-11311D01*
X25500Y-11226D01*
X25535Y-11311D01*
X25689Y-11465D01*
X25891Y-11549D01*
X26109Y-11549D01*
X26311Y-11465D01*
X26465Y-11311D01*
X26500Y-11226D01*
X26535Y-11311D01*
X26689Y-11465D01*
X26891Y-11549D01*
X27109Y-11549D01*
X27311Y-11465D01*
X27465Y-11311D01*
X27500Y-11226D01*
X27535Y-11311D01*
X27689Y-11465D01*
X27891Y-11549D01*
X28109Y-11549D01*
X28311Y-11465D01*
X28465Y-11311D01*
X28500Y-11226D01*
X28535Y-11311D01*
X28689Y-11465D01*
X28891Y-11549D01*
X29109Y-11549D01*
X29311Y-11465D01*
X29465Y-11311D01*
X29500Y-11226D01*
X29535Y-11311D01*
X29689Y-11465D01*
X29891Y-11549D01*
X30109Y-11549D01*
X30311Y-11465D01*
X30465Y-11311D01*
X30500Y-11226D01*
X30535Y-11311D01*
X30689Y-11465D01*
X30891Y-11549D01*
X31109Y-11549D01*
X31311Y-11465D01*
X31332Y-11443D01*
X32394Y-12505D01*
X32395Y-12505D01*
X32489Y-12568D01*
X32600Y-12590D01*
X40980Y-12590D01*
X42344Y-13954D01*
X42275Y-13925D01*
X42126Y-13925D01*
X41988Y-13982D01*
X41883Y-14087D01*
X41825Y-14225D01*
X41825Y-14374D01*
X41882Y-14512D01*
X41987Y-14617D01*
X42125Y-14675D01*
X42274Y-14675D01*
X42412Y-14618D01*
X42517Y-14513D01*
X42575Y-14375D01*
X42575Y-14226D01*
X42546Y-14156D01*
X42951Y-14561D01*
X42925Y-14625D01*
X42925Y-14774D01*
X42982Y-14912D01*
X43087Y-15017D01*
X43225Y-15075D01*
X43374Y-15075D01*
X43512Y-15018D01*
X43609Y-14920D01*
X43910Y-15220D01*
X43910Y-19400D01*
X43932Y-19511D01*
X43995Y-19605D01*
X45057Y-20667D01*
X45035Y-20689D01*
X44951Y-20891D01*
X44951Y-21109D01*
X45035Y-21311D01*
X45189Y-21465D01*
X45391Y-21549D01*
X45609Y-21549D01*
X45811Y-21465D01*
X45965Y-21311D01*
X46000Y-21226D01*
X46035Y-21311D01*
X46189Y-21465D01*
X46391Y-21549D01*
X46609Y-21549D01*
X46811Y-21465D01*
X46965Y-21311D01*
X47049Y-21109D01*
X47049Y-20891D01*
X46965Y-20689D01*
X46811Y-20535D01*
X46726Y-20500D01*
X46811Y-20465D01*
X46965Y-20311D01*
X47049Y-20109D01*
X47049Y-19891D01*
X46965Y-19689D01*
X46811Y-19535D01*
X46726Y-19500D01*
X46811Y-19465D01*
X46965Y-19311D01*
X47049Y-19109D01*
X47049Y-18891D01*
X47040Y-18869D01*
X47175Y-18735D01*
X47175Y-29765D01*
X47040Y-29630D01*
X47049Y-29609D01*
X47049Y-29391D01*
X46999Y-29270D01*
X46999Y-27550D01*
X46999Y-26848D01*
X46999Y-24400D01*
X46999Y-23698D01*
X46293Y-23698D01*
X46293Y-24400D01*
X46999Y-24400D01*
X46999Y-26848D01*
X46293Y-26848D01*
X46293Y-27550D01*
X46999Y-27550D01*
X46999Y-29270D01*
X46965Y-29189D01*
X46811Y-29035D01*
X46609Y-28951D01*
X46391Y-28951D01*
X46189Y-29035D01*
X46049Y-29175D01*
X46049Y-29151D01*
X46011Y-29059D01*
X45941Y-28989D01*
X45850Y-28951D01*
X45751Y-28951D01*
X45151Y-28951D01*
X45059Y-28989D01*
X44989Y-29059D01*
X44951Y-29150D01*
X44951Y-29249D01*
X44951Y-29849D01*
X44989Y-29941D01*
X45059Y-30011D01*
X45150Y-30049D01*
X45175Y-30049D01*
X45035Y-30189D01*
X44951Y-30391D01*
X44951Y-30609D01*
X45035Y-30811D01*
X45189Y-30965D01*
X45273Y-31000D01*
X45189Y-31035D01*
X45035Y-31189D01*
X44951Y-31391D01*
X44951Y-31609D01*
X45035Y-31811D01*
X45189Y-31965D01*
X45273Y-32000D01*
X45189Y-32035D01*
X45035Y-32189D01*
X44951Y-32391D01*
X44951Y-32609D01*
X45035Y-32811D01*
X45189Y-32965D01*
X45391Y-33049D01*
X45609Y-33049D01*
X45710Y-33007D01*
X45710Y-33451D01*
X45151Y-33451D01*
X45059Y-33489D01*
X44989Y-33559D01*
X44951Y-33650D01*
X44951Y-33749D01*
X44951Y-34349D01*
X44989Y-34441D01*
X45059Y-34511D01*
X45150Y-34549D01*
X45175Y-34549D01*
X45035Y-34689D01*
X44951Y-34891D01*
X44951Y-35109D01*
X45035Y-35311D01*
X45189Y-35465D01*
X45273Y-35500D01*
X45189Y-35535D01*
X45035Y-35689D01*
X45000Y-35770D01*
X44913Y-35683D01*
X44875Y-35667D01*
X44875Y-35075D01*
X44875Y-34926D01*
X44818Y-34788D01*
X44713Y-34683D01*
X44675Y-34667D01*
X44675Y-34075D01*
X44675Y-33926D01*
X44618Y-33788D01*
X44513Y-33683D01*
X44475Y-33667D01*
X44475Y-32575D01*
X44475Y-32426D01*
X44418Y-32288D01*
X44313Y-32183D01*
X44275Y-32167D01*
X44275Y-31575D01*
X44275Y-31426D01*
X44218Y-31288D01*
X44113Y-31183D01*
X44075Y-31167D01*
X44075Y-30575D01*
X44075Y-30426D01*
X44018Y-30288D01*
X43913Y-30183D01*
X43875Y-30167D01*
X43875Y-29575D01*
X43875Y-29426D01*
X43818Y-29288D01*
X43713Y-29183D01*
X43575Y-29125D01*
X43426Y-29125D01*
X43288Y-29182D01*
X43183Y-29287D01*
X43125Y-29425D01*
X43125Y-29574D01*
X43182Y-29712D01*
X43287Y-29817D01*
X43425Y-29875D01*
X43574Y-29875D01*
X43712Y-29818D01*
X43817Y-29713D01*
X43875Y-29575D01*
X43875Y-30167D01*
X43775Y-30125D01*
X43626Y-30125D01*
X43488Y-30182D01*
X43383Y-30287D01*
X43325Y-30425D01*
X43325Y-30574D01*
X43346Y-30625D01*
X43335Y-30625D01*
X42605Y-29895D01*
X42511Y-29832D01*
X42400Y-29810D01*
X42100Y-29810D01*
X42100Y-25700D01*
X42100Y-25551D01*
X42043Y-25413D01*
X41938Y-25308D01*
X41800Y-25250D01*
X41651Y-25250D01*
X41590Y-25275D01*
X40459Y-25275D01*
X40400Y-25250D01*
X40251Y-25250D01*
X40113Y-25307D01*
X40008Y-25412D01*
X39950Y-25550D01*
X39950Y-25699D01*
X40007Y-25837D01*
X40112Y-25942D01*
X40250Y-26000D01*
X40399Y-26000D01*
X40459Y-25975D01*
X41590Y-25975D01*
X41650Y-26000D01*
X41799Y-26000D01*
X41937Y-25943D01*
X42042Y-25838D01*
X42100Y-25700D01*
X42100Y-29810D01*
X40640Y-29810D01*
X40613Y-29783D01*
X40475Y-29725D01*
X40326Y-29725D01*
X40188Y-29782D01*
X40083Y-29887D01*
X40025Y-30025D01*
X40025Y-30174D01*
X40082Y-30312D01*
X40187Y-30417D01*
X40325Y-30475D01*
X40474Y-30475D01*
X40612Y-30418D01*
X40640Y-30390D01*
X42279Y-30390D01*
X42925Y-31035D01*
X42925Y-31074D01*
X42982Y-31212D01*
X43087Y-31317D01*
X43225Y-31375D01*
X43374Y-31375D01*
X43512Y-31318D01*
X43617Y-31213D01*
X43675Y-31075D01*
X43675Y-30926D01*
X43653Y-30875D01*
X43774Y-30875D01*
X43912Y-30818D01*
X44017Y-30713D01*
X44075Y-30575D01*
X44075Y-31167D01*
X43975Y-31125D01*
X43826Y-31125D01*
X43688Y-31182D01*
X43583Y-31287D01*
X43525Y-31425D01*
X43525Y-31574D01*
X43582Y-31712D01*
X43687Y-31817D01*
X43825Y-31875D01*
X43974Y-31875D01*
X44112Y-31818D01*
X44217Y-31713D01*
X44275Y-31575D01*
X44275Y-32167D01*
X44175Y-32125D01*
X44026Y-32125D01*
X43888Y-32182D01*
X43783Y-32287D01*
X43725Y-32425D01*
X43725Y-32574D01*
X43782Y-32712D01*
X43887Y-32817D01*
X44025Y-32875D01*
X44174Y-32875D01*
X44312Y-32818D01*
X44417Y-32713D01*
X44475Y-32575D01*
X44475Y-33667D01*
X44375Y-33625D01*
X44226Y-33625D01*
X44088Y-33682D01*
X43983Y-33787D01*
X43925Y-33925D01*
X43925Y-34074D01*
X43982Y-34212D01*
X44087Y-34317D01*
X44225Y-34375D01*
X44374Y-34375D01*
X44512Y-34318D01*
X44617Y-34213D01*
X44675Y-34075D01*
X44675Y-34667D01*
X44575Y-34625D01*
X44426Y-34625D01*
X44288Y-34682D01*
X44183Y-34787D01*
X44125Y-34925D01*
X44125Y-35074D01*
X44182Y-35212D01*
X44287Y-35317D01*
X44425Y-35375D01*
X44574Y-35375D01*
X44712Y-35318D01*
X44817Y-35213D01*
X44875Y-35075D01*
X44875Y-35667D01*
X44775Y-35625D01*
X44626Y-35625D01*
X44488Y-35682D01*
X44383Y-35787D01*
X44325Y-35925D01*
X44325Y-36074D01*
X44382Y-36212D01*
X44487Y-36317D01*
X44625Y-36375D01*
X44774Y-36375D01*
X44912Y-36318D01*
X45000Y-36229D01*
X45035Y-36311D01*
X45189Y-36465D01*
X45273Y-36500D01*
X45189Y-36535D01*
X45035Y-36689D01*
X44951Y-36891D01*
X44951Y-37109D01*
X45035Y-37311D01*
X45189Y-37465D01*
X45391Y-37549D01*
X45609Y-37549D01*
X45811Y-37465D01*
X45965Y-37311D01*
X46000Y-37226D01*
X46035Y-37311D01*
X46189Y-37465D01*
X46391Y-37549D01*
X46609Y-37549D01*
X46811Y-37465D01*
X46965Y-37311D01*
X46999Y-37229D01*
X47049Y-37109D01*
X47049Y-36891D01*
X46999Y-36770D01*
X46965Y-36689D01*
X46811Y-36535D01*
X46726Y-36500D01*
X46811Y-36465D01*
X46965Y-36311D01*
X46999Y-36229D01*
X47049Y-36109D01*
X47049Y-35891D01*
X46999Y-35770D01*
X46965Y-35689D01*
X46811Y-35535D01*
X46726Y-35500D01*
X46811Y-35465D01*
X46965Y-35311D01*
X46999Y-35229D01*
X47049Y-35109D01*
X47049Y-34891D01*
X46999Y-34770D01*
X46965Y-34689D01*
X46811Y-34535D01*
X46726Y-34500D01*
X46811Y-34465D01*
X46965Y-34311D01*
X46999Y-34229D01*
X47049Y-34109D01*
X47049Y-33891D01*
X47040Y-33869D01*
X47175Y-33735D01*
X47175Y-37675D01*
X47175Y-37675D01*
G37*
G54D16*
X47175Y-37675D02*
X46999Y-37675D01*
X43549Y-37675D01*
X43549Y-34109D01*
X43549Y-33891D01*
X43543Y-33876D01*
X43543Y-33079D01*
X43532Y-32866D01*
X43472Y-32719D01*
X43378Y-32692D01*
X43308Y-32762D01*
X43308Y-32622D01*
X43281Y-32528D01*
X43079Y-32457D01*
X42866Y-32468D01*
X42719Y-32528D01*
X42692Y-32622D01*
X43000Y-32929D01*
X43308Y-32622D01*
X43308Y-32762D01*
X43071Y-33000D01*
X43378Y-33308D01*
X43472Y-33281D01*
X43543Y-33079D01*
X43543Y-33876D01*
X43465Y-33689D01*
X43311Y-33535D01*
X43219Y-33497D01*
X43281Y-33472D01*
X43308Y-33378D01*
X43000Y-33071D01*
X42692Y-33378D01*
X42719Y-33472D01*
X42784Y-33495D01*
X42689Y-33535D01*
X42535Y-33689D01*
X42500Y-33773D01*
X42465Y-33689D01*
X42311Y-33535D01*
X42226Y-33500D01*
X42311Y-33465D01*
X42465Y-33311D01*
X42502Y-33219D01*
X42528Y-33281D01*
X42622Y-33308D01*
X42929Y-33000D01*
X42622Y-32692D01*
X42528Y-32719D01*
X42504Y-32784D01*
X42465Y-32689D01*
X42311Y-32535D01*
X42109Y-32451D01*
X41891Y-32451D01*
X41689Y-32535D01*
X41535Y-32689D01*
X41500Y-32773D01*
X41465Y-32689D01*
X41311Y-32535D01*
X41109Y-32451D01*
X40891Y-32451D01*
X40689Y-32535D01*
X40535Y-32689D01*
X40500Y-32773D01*
X40465Y-32689D01*
X40311Y-32535D01*
X40109Y-32451D01*
X39891Y-32451D01*
X39689Y-32535D01*
X39575Y-32649D01*
X39575Y-28375D01*
X39575Y-28226D01*
X39518Y-28088D01*
X39413Y-27983D01*
X39275Y-27925D01*
X39126Y-27925D01*
X39049Y-27956D01*
X39049Y-22350D01*
X39049Y-22251D01*
X39049Y-21651D01*
X39011Y-21559D01*
X38941Y-21489D01*
X38850Y-21451D01*
X38751Y-21451D01*
X38375Y-21451D01*
X38375Y-20375D01*
X38375Y-20226D01*
X38375Y-14875D01*
X38375Y-14726D01*
X38318Y-14588D01*
X38213Y-14483D01*
X38075Y-14425D01*
X37926Y-14425D01*
X37788Y-14482D01*
X37683Y-14587D01*
X37625Y-14725D01*
X37625Y-14874D01*
X37682Y-15012D01*
X37787Y-15117D01*
X37925Y-15175D01*
X38074Y-15175D01*
X38212Y-15118D01*
X38317Y-15013D01*
X38375Y-14875D01*
X38375Y-20226D01*
X38318Y-20088D01*
X38213Y-19983D01*
X38075Y-19925D01*
X37926Y-19925D01*
X37788Y-19982D01*
X37683Y-20087D01*
X37625Y-20225D01*
X37625Y-20374D01*
X37682Y-20512D01*
X37787Y-20617D01*
X37925Y-20675D01*
X38074Y-20675D01*
X38212Y-20618D01*
X38317Y-20513D01*
X38375Y-20375D01*
X38375Y-21451D01*
X38151Y-21451D01*
X38059Y-21489D01*
X37989Y-21559D01*
X37951Y-21650D01*
X37951Y-21675D01*
X37811Y-21535D01*
X37609Y-21451D01*
X37391Y-21451D01*
X37189Y-21535D01*
X37035Y-21689D01*
X36951Y-21891D01*
X36951Y-22109D01*
X37035Y-22311D01*
X37189Y-22465D01*
X37391Y-22549D01*
X37609Y-22549D01*
X37811Y-22465D01*
X37951Y-22325D01*
X37951Y-22349D01*
X37989Y-22441D01*
X38059Y-22511D01*
X38150Y-22549D01*
X38249Y-22549D01*
X38849Y-22549D01*
X38941Y-22511D01*
X39011Y-22441D01*
X39049Y-22350D01*
X39049Y-27956D01*
X38988Y-27982D01*
X38883Y-28087D01*
X38825Y-28225D01*
X38825Y-28374D01*
X38882Y-28512D01*
X38987Y-28617D01*
X39125Y-28675D01*
X39274Y-28675D01*
X39412Y-28618D01*
X39517Y-28513D01*
X39575Y-28375D01*
X39575Y-32649D01*
X39535Y-32689D01*
X39500Y-32773D01*
X39465Y-32689D01*
X39311Y-32535D01*
X39109Y-32451D01*
X38891Y-32451D01*
X38689Y-32535D01*
X38535Y-32689D01*
X38500Y-32773D01*
X38465Y-32689D01*
X38311Y-32535D01*
X38109Y-32451D01*
X37891Y-32451D01*
X37689Y-32535D01*
X37535Y-32689D01*
X37500Y-32773D01*
X37465Y-32689D01*
X37311Y-32535D01*
X37109Y-32451D01*
X36891Y-32451D01*
X36689Y-32535D01*
X36575Y-32649D01*
X36575Y-17775D01*
X36575Y-17626D01*
X36518Y-17488D01*
X36413Y-17383D01*
X36275Y-17325D01*
X36126Y-17325D01*
X35988Y-17382D01*
X35883Y-17487D01*
X35825Y-17625D01*
X35825Y-17774D01*
X35882Y-17912D01*
X35987Y-18017D01*
X36125Y-18075D01*
X36274Y-18075D01*
X36412Y-18018D01*
X36517Y-17913D01*
X36575Y-17775D01*
X36575Y-32649D01*
X36535Y-32689D01*
X36500Y-32773D01*
X36465Y-32689D01*
X36311Y-32535D01*
X36109Y-32451D01*
X35891Y-32451D01*
X35689Y-32535D01*
X35667Y-32557D01*
X33375Y-30265D01*
X33375Y-16975D01*
X33375Y-16826D01*
X33318Y-16688D01*
X33213Y-16583D01*
X33075Y-16525D01*
X32926Y-16525D01*
X32788Y-16582D01*
X32683Y-16687D01*
X32625Y-16825D01*
X32625Y-16974D01*
X32682Y-17112D01*
X32787Y-17217D01*
X32925Y-17275D01*
X33074Y-17275D01*
X33212Y-17218D01*
X33317Y-17113D01*
X33375Y-16975D01*
X33375Y-30265D01*
X31075Y-27965D01*
X31075Y-18575D01*
X31075Y-18426D01*
X31075Y-16175D01*
X31075Y-16026D01*
X31018Y-15888D01*
X30913Y-15783D01*
X30775Y-15725D01*
X30626Y-15725D01*
X30488Y-15782D01*
X30383Y-15887D01*
X30367Y-15925D01*
X30326Y-15925D01*
X30188Y-15982D01*
X30083Y-16087D01*
X30067Y-16125D01*
X30026Y-16125D01*
X29888Y-16182D01*
X29783Y-16287D01*
X29767Y-16325D01*
X29726Y-16325D01*
X29588Y-16382D01*
X29483Y-16487D01*
X29425Y-16625D01*
X29425Y-16774D01*
X29482Y-16912D01*
X29587Y-17017D01*
X29725Y-17075D01*
X29874Y-17075D01*
X30012Y-17018D01*
X30117Y-16913D01*
X30132Y-16875D01*
X30174Y-16875D01*
X30312Y-16818D01*
X30417Y-16713D01*
X30432Y-16675D01*
X30474Y-16675D01*
X30612Y-16618D01*
X30717Y-16513D01*
X30732Y-16475D01*
X30774Y-16475D01*
X30912Y-16418D01*
X31017Y-16313D01*
X31075Y-16175D01*
X31075Y-18426D01*
X31018Y-18288D01*
X30913Y-18183D01*
X30775Y-18125D01*
X30626Y-18125D01*
X30488Y-18182D01*
X30383Y-18287D01*
X30367Y-18325D01*
X30326Y-18325D01*
X30188Y-18382D01*
X30083Y-18487D01*
X30067Y-18525D01*
X30026Y-18525D01*
X29888Y-18582D01*
X29783Y-18687D01*
X29767Y-18725D01*
X29726Y-18725D01*
X29588Y-18782D01*
X29483Y-18887D01*
X29425Y-19025D01*
X29425Y-19174D01*
X29482Y-19312D01*
X29587Y-19417D01*
X29725Y-19475D01*
X29874Y-19475D01*
X30012Y-19418D01*
X30117Y-19313D01*
X30132Y-19275D01*
X30174Y-19275D01*
X30312Y-19218D01*
X30417Y-19113D01*
X30432Y-19075D01*
X30474Y-19075D01*
X30612Y-19018D01*
X30717Y-18913D01*
X30732Y-18875D01*
X30774Y-18875D01*
X30912Y-18818D01*
X31017Y-18713D01*
X31075Y-18575D01*
X31075Y-27965D01*
X28975Y-25865D01*
X28975Y-12675D01*
X28975Y-12526D01*
X28918Y-12388D01*
X28813Y-12283D01*
X28675Y-12225D01*
X28526Y-12225D01*
X28388Y-12282D01*
X28283Y-12387D01*
X28225Y-12525D01*
X28225Y-12674D01*
X28282Y-12812D01*
X28387Y-12917D01*
X28525Y-12975D01*
X28674Y-12975D01*
X28812Y-12918D01*
X28917Y-12813D01*
X28975Y-12675D01*
X28975Y-25865D01*
X27975Y-24865D01*
X27975Y-17975D01*
X27975Y-17826D01*
X27918Y-17688D01*
X27813Y-17583D01*
X27675Y-17525D01*
X27526Y-17525D01*
X27388Y-17582D01*
X27283Y-17687D01*
X27225Y-17825D01*
X27225Y-17974D01*
X27282Y-18112D01*
X27387Y-18217D01*
X27525Y-18275D01*
X27674Y-18275D01*
X27812Y-18218D01*
X27917Y-18113D01*
X27975Y-17975D01*
X27975Y-24865D01*
X25390Y-22280D01*
X25390Y-15100D01*
X25368Y-14989D01*
X25305Y-14895D01*
X23805Y-13395D01*
X23797Y-13390D01*
X25760Y-13390D01*
X25787Y-13417D01*
X25925Y-13475D01*
X26074Y-13475D01*
X26212Y-13418D01*
X26317Y-13313D01*
X26375Y-13175D01*
X26375Y-13026D01*
X26318Y-12888D01*
X26213Y-12783D01*
X26075Y-12725D01*
X25926Y-12725D01*
X25788Y-12782D01*
X25760Y-12810D01*
X17400Y-12810D01*
X17289Y-12832D01*
X17195Y-12895D01*
X17194Y-12895D01*
X17194Y-12896D01*
X16308Y-13782D01*
X16308Y-11378D01*
X16000Y-11071D01*
X15929Y-11141D01*
X15929Y-11000D01*
X15622Y-10692D01*
X15528Y-10719D01*
X15504Y-10784D01*
X15465Y-10689D01*
X15311Y-10535D01*
X15226Y-10500D01*
X15311Y-10465D01*
X15465Y-10311D01*
X15502Y-10219D01*
X15528Y-10281D01*
X15622Y-10308D01*
X15929Y-10000D01*
X15622Y-09692D01*
X15528Y-09719D01*
X15504Y-09784D01*
X15465Y-09689D01*
X15311Y-09535D01*
X15109Y-09451D01*
X14891Y-09451D01*
X14689Y-09535D01*
X14535Y-09689D01*
X14500Y-09773D01*
X14465Y-09689D01*
X14311Y-09535D01*
X14109Y-09451D01*
X13891Y-09451D01*
X13689Y-09535D01*
X13535Y-09689D01*
X13500Y-09773D01*
X13465Y-09689D01*
X13311Y-09535D01*
X13109Y-09451D01*
X12891Y-09451D01*
X12689Y-09535D01*
X12535Y-09689D01*
X12500Y-09773D01*
X12465Y-09689D01*
X12311Y-09535D01*
X12109Y-09451D01*
X11891Y-09451D01*
X11689Y-09535D01*
X11535Y-09689D01*
X11451Y-09891D01*
X11451Y-10109D01*
X11535Y-10311D01*
X11689Y-10465D01*
X11773Y-10500D01*
X11689Y-10535D01*
X11535Y-10689D01*
X11451Y-10891D01*
X11451Y-11109D01*
X11535Y-11311D01*
X11689Y-11465D01*
X11891Y-11549D01*
X12109Y-11549D01*
X12311Y-11465D01*
X12465Y-11311D01*
X12500Y-11226D01*
X12535Y-11311D01*
X12689Y-11465D01*
X12891Y-11549D01*
X13109Y-11549D01*
X13311Y-11465D01*
X13465Y-11311D01*
X13500Y-11226D01*
X13535Y-11311D01*
X13689Y-11465D01*
X13891Y-11549D01*
X14109Y-11549D01*
X14311Y-11465D01*
X14465Y-11311D01*
X14500Y-11226D01*
X14535Y-11311D01*
X14689Y-11465D01*
X14891Y-11549D01*
X15109Y-11549D01*
X15311Y-11465D01*
X15465Y-11311D01*
X15502Y-11219D01*
X15528Y-11281D01*
X15622Y-11308D01*
X15929Y-11000D01*
X15929Y-11141D01*
X15692Y-11378D01*
X15719Y-11472D01*
X15921Y-11543D01*
X16134Y-11532D01*
X16281Y-11472D01*
X16308Y-11378D01*
X16308Y-13782D01*
X12549Y-17541D01*
X12549Y-17391D01*
X12465Y-17189D01*
X12311Y-17035D01*
X12226Y-17000D01*
X12311Y-16965D01*
X12465Y-16811D01*
X12549Y-16609D01*
X12549Y-16391D01*
X12549Y-14609D01*
X12549Y-14391D01*
X12465Y-14189D01*
X12311Y-14035D01*
X12226Y-14000D01*
X12311Y-13965D01*
X12465Y-13811D01*
X12549Y-13609D01*
X12549Y-13391D01*
X12465Y-13189D01*
X12311Y-13035D01*
X12109Y-12951D01*
X11891Y-12951D01*
X11689Y-13035D01*
X11549Y-13175D01*
X11549Y-13151D01*
X11511Y-13059D01*
X11441Y-12989D01*
X11350Y-12951D01*
X11251Y-12951D01*
X10651Y-12951D01*
X10559Y-12989D01*
X10489Y-13059D01*
X10451Y-13150D01*
X10451Y-13249D01*
X10451Y-13849D01*
X10489Y-13941D01*
X10559Y-14011D01*
X10650Y-14049D01*
X10675Y-14049D01*
X10535Y-14189D01*
X10451Y-14391D01*
X10451Y-14609D01*
X10535Y-14811D01*
X10689Y-14965D01*
X10780Y-15002D01*
X10719Y-15028D01*
X10692Y-15122D01*
X11000Y-15429D01*
X11308Y-15122D01*
X11281Y-15028D01*
X11215Y-15004D01*
X11311Y-14965D01*
X11465Y-14811D01*
X11500Y-14726D01*
X11535Y-14811D01*
X11689Y-14965D01*
X11780Y-15002D01*
X11719Y-15028D01*
X11692Y-15122D01*
X12000Y-15429D01*
X12308Y-15122D01*
X12281Y-15028D01*
X12215Y-15004D01*
X12311Y-14965D01*
X12465Y-14811D01*
X12549Y-14609D01*
X12549Y-16391D01*
X12543Y-16376D01*
X12543Y-15579D01*
X12532Y-15366D01*
X12472Y-15219D01*
X12378Y-15192D01*
X12071Y-15500D01*
X12378Y-15808D01*
X12472Y-15781D01*
X12543Y-15579D01*
X12543Y-16376D01*
X12465Y-16189D01*
X12311Y-16035D01*
X12219Y-15997D01*
X12281Y-15972D01*
X12308Y-15878D01*
X12000Y-15571D01*
X11929Y-15641D01*
X11929Y-15500D01*
X11622Y-15192D01*
X11528Y-15219D01*
X11502Y-15292D01*
X11472Y-15219D01*
X11378Y-15192D01*
X11071Y-15500D01*
X11378Y-15808D01*
X11472Y-15781D01*
X11497Y-15707D01*
X11528Y-15781D01*
X11622Y-15808D01*
X11929Y-15500D01*
X11929Y-15641D01*
X11692Y-15878D01*
X11719Y-15972D01*
X11784Y-15995D01*
X11689Y-16035D01*
X11535Y-16189D01*
X11500Y-16273D01*
X11465Y-16189D01*
X11311Y-16035D01*
X11219Y-15997D01*
X11281Y-15972D01*
X11308Y-15878D01*
X11000Y-15571D01*
X10929Y-15641D01*
X10929Y-15500D01*
X10622Y-15192D01*
X10528Y-15219D01*
X10457Y-15421D01*
X10468Y-15634D01*
X10528Y-15781D01*
X10622Y-15808D01*
X10929Y-15500D01*
X10929Y-15641D01*
X10692Y-15878D01*
X10719Y-15972D01*
X10784Y-15995D01*
X10689Y-16035D01*
X10535Y-16189D01*
X10451Y-16391D01*
X10451Y-16609D01*
X10535Y-16811D01*
X10689Y-16965D01*
X10773Y-17000D01*
X10689Y-17035D01*
X10535Y-17189D01*
X10451Y-17391D01*
X10451Y-17609D01*
X10535Y-17811D01*
X10689Y-17965D01*
X10891Y-18049D01*
X11109Y-18049D01*
X11311Y-17965D01*
X11465Y-17811D01*
X11500Y-17726D01*
X11535Y-17811D01*
X11689Y-17965D01*
X11891Y-18049D01*
X12041Y-18049D01*
X11139Y-18951D01*
X10651Y-18951D01*
X10559Y-18989D01*
X10489Y-19059D01*
X10451Y-19150D01*
X10451Y-19249D01*
X10451Y-19849D01*
X10489Y-19941D01*
X10559Y-20011D01*
X10650Y-20049D01*
X10675Y-20049D01*
X10535Y-20189D01*
X10451Y-20391D01*
X10451Y-20609D01*
X10535Y-20811D01*
X10689Y-20965D01*
X10773Y-21000D01*
X10689Y-21035D01*
X10535Y-21189D01*
X10451Y-21391D01*
X10451Y-21609D01*
X10535Y-21811D01*
X10689Y-21965D01*
X10773Y-22000D01*
X10689Y-22035D01*
X10535Y-22189D01*
X10451Y-22391D01*
X10451Y-22609D01*
X10535Y-22811D01*
X10675Y-22951D01*
X10651Y-22951D01*
X10559Y-22989D01*
X10489Y-23059D01*
X10451Y-23150D01*
X10451Y-23249D01*
X10451Y-23849D01*
X10489Y-23941D01*
X10559Y-24011D01*
X10650Y-24049D01*
X10675Y-24049D01*
X10535Y-24189D01*
X10451Y-24391D01*
X10451Y-24609D01*
X10535Y-24811D01*
X10689Y-24965D01*
X10773Y-25000D01*
X10689Y-25035D01*
X10535Y-25189D01*
X10451Y-25391D01*
X10451Y-25609D01*
X10535Y-25811D01*
X10689Y-25965D01*
X10773Y-26000D01*
X10689Y-26035D01*
X10535Y-26189D01*
X10451Y-26391D01*
X10451Y-26609D01*
X10535Y-26811D01*
X10675Y-26951D01*
X10651Y-26951D01*
X10559Y-26989D01*
X10489Y-27059D01*
X10451Y-27150D01*
X10451Y-27249D01*
X10451Y-27849D01*
X10489Y-27941D01*
X10559Y-28011D01*
X10650Y-28049D01*
X10675Y-28049D01*
X10535Y-28189D01*
X10451Y-28391D01*
X10451Y-28609D01*
X10535Y-28811D01*
X10689Y-28965D01*
X10773Y-29000D01*
X10689Y-29035D01*
X10535Y-29189D01*
X10451Y-29391D01*
X10451Y-29609D01*
X10535Y-29811D01*
X10689Y-29965D01*
X10773Y-30000D01*
X10689Y-30035D01*
X10535Y-30189D01*
X10451Y-30391D01*
X10451Y-30609D01*
X10535Y-30811D01*
X10689Y-30965D01*
X10891Y-31049D01*
X11109Y-31049D01*
X11311Y-30965D01*
X11465Y-30811D01*
X11500Y-30726D01*
X11535Y-30811D01*
X11689Y-30965D01*
X11891Y-31049D01*
X12109Y-31049D01*
X12311Y-30965D01*
X12465Y-30811D01*
X12549Y-30609D01*
X12549Y-30391D01*
X12465Y-30189D01*
X12311Y-30035D01*
X12226Y-30000D01*
X12311Y-29965D01*
X12465Y-29811D01*
X12549Y-29609D01*
X12549Y-29391D01*
X12465Y-29189D01*
X12311Y-29035D01*
X12226Y-29000D01*
X12311Y-28965D01*
X12465Y-28811D01*
X12549Y-28609D01*
X12549Y-28391D01*
X12540Y-28369D01*
X12705Y-28205D01*
X12768Y-28111D01*
X12790Y-28000D01*
X12790Y-25000D01*
X12768Y-24889D01*
X12705Y-24795D01*
X12540Y-24630D01*
X12549Y-24609D01*
X12549Y-24391D01*
X12465Y-24189D01*
X12311Y-24035D01*
X12226Y-24000D01*
X12311Y-23965D01*
X12465Y-23811D01*
X12549Y-23609D01*
X12549Y-23391D01*
X12507Y-23290D01*
X16500Y-23290D01*
X16611Y-23268D01*
X16705Y-23205D01*
X18935Y-20975D01*
X18974Y-20975D01*
X19112Y-20918D01*
X19217Y-20813D01*
X19275Y-20675D01*
X19275Y-20526D01*
X19218Y-20388D01*
X19113Y-20283D01*
X18975Y-20225D01*
X18826Y-20225D01*
X18688Y-20282D01*
X18583Y-20387D01*
X18525Y-20525D01*
X18525Y-20565D01*
X16380Y-22710D01*
X12507Y-22710D01*
X12549Y-22609D01*
X12549Y-22391D01*
X12465Y-22189D01*
X12311Y-22035D01*
X12226Y-22000D01*
X12311Y-21965D01*
X12465Y-21811D01*
X12549Y-21609D01*
X12549Y-21391D01*
X12465Y-21189D01*
X12311Y-21035D01*
X12226Y-21000D01*
X12311Y-20965D01*
X12465Y-20811D01*
X12549Y-20609D01*
X12549Y-20391D01*
X12465Y-20189D01*
X12311Y-20035D01*
X12226Y-20000D01*
X12311Y-19965D01*
X12465Y-19811D01*
X12549Y-19609D01*
X12549Y-19391D01*
X12465Y-19189D01*
X12311Y-19035D01*
X12109Y-18951D01*
X11959Y-18951D01*
X17520Y-13390D01*
X20702Y-13390D01*
X20695Y-13395D01*
X20694Y-13395D01*
X20694Y-13396D01*
X20271Y-13818D01*
X20218Y-13688D01*
X20113Y-13583D01*
X19975Y-13525D01*
X19826Y-13525D01*
X19688Y-13582D01*
X19583Y-13687D01*
X19525Y-13825D01*
X19525Y-13974D01*
X19582Y-14112D01*
X19687Y-14217D01*
X19817Y-14272D01*
X18765Y-15325D01*
X18726Y-15325D01*
X18599Y-15377D01*
X18475Y-15325D01*
X18326Y-15325D01*
X18188Y-15382D01*
X18083Y-15487D01*
X18025Y-15625D01*
X18025Y-15774D01*
X18082Y-15912D01*
X18187Y-16017D01*
X18325Y-16075D01*
X18365Y-16075D01*
X18495Y-16205D01*
X18589Y-16268D01*
X18700Y-16290D01*
X19300Y-16290D01*
X19411Y-16268D01*
X19505Y-16205D01*
X19661Y-16048D01*
X19725Y-16075D01*
X19874Y-16075D01*
X20000Y-16022D01*
X20125Y-16075D01*
X20274Y-16075D01*
X20400Y-16022D01*
X20525Y-16075D01*
X20674Y-16075D01*
X20800Y-16022D01*
X20925Y-16075D01*
X21074Y-16075D01*
X21200Y-16022D01*
X21325Y-16075D01*
X21474Y-16075D01*
X21600Y-16022D01*
X21725Y-16075D01*
X21874Y-16075D01*
X22000Y-16022D01*
X22125Y-16075D01*
X22274Y-16075D01*
X22400Y-16022D01*
X22525Y-16075D01*
X22565Y-16075D01*
X22810Y-16320D01*
X22810Y-18581D01*
X22675Y-18525D01*
X22526Y-18525D01*
X22399Y-18577D01*
X22275Y-18525D01*
X22126Y-18525D01*
X21999Y-18577D01*
X21875Y-18525D01*
X21775Y-18525D01*
X21775Y-18426D01*
X21718Y-18288D01*
X21613Y-18183D01*
X21475Y-18125D01*
X21326Y-18125D01*
X21188Y-18182D01*
X21083Y-18287D01*
X21025Y-18425D01*
X21025Y-18574D01*
X21077Y-18700D01*
X21025Y-18825D01*
X21025Y-18915D01*
X20975Y-18865D01*
X20975Y-18826D01*
X20918Y-18688D01*
X20813Y-18583D01*
X20675Y-18525D01*
X20526Y-18525D01*
X20399Y-18577D01*
X20275Y-18525D01*
X20126Y-18525D01*
X19999Y-18577D01*
X19875Y-18525D01*
X19726Y-18525D01*
X19599Y-18577D01*
X19475Y-18525D01*
X19326Y-18525D01*
X19199Y-18577D01*
X19075Y-18525D01*
X18926Y-18525D01*
X18788Y-18582D01*
X18683Y-18687D01*
X18625Y-18825D01*
X18625Y-18974D01*
X18682Y-19112D01*
X18787Y-19217D01*
X18925Y-19275D01*
X18964Y-19275D01*
X19942Y-20252D01*
X19908Y-20287D01*
X19850Y-20425D01*
X19850Y-20574D01*
X19907Y-20712D01*
X20012Y-20817D01*
X20150Y-20875D01*
X20299Y-20875D01*
X20437Y-20818D01*
X20472Y-20782D01*
X21010Y-21320D01*
X21010Y-25700D01*
X21032Y-25811D01*
X21095Y-25905D01*
X23610Y-28420D01*
X23610Y-28810D01*
X22920Y-28810D01*
X19405Y-25295D01*
X19311Y-25232D01*
X19200Y-25210D01*
X18500Y-25210D01*
X20235Y-23475D01*
X20274Y-23475D01*
X20412Y-23418D01*
X20517Y-23313D01*
X20575Y-23175D01*
X20575Y-23026D01*
X20518Y-22888D01*
X20413Y-22783D01*
X20275Y-22725D01*
X20126Y-22725D01*
X19988Y-22782D01*
X19883Y-22887D01*
X19833Y-23003D01*
X19813Y-22983D01*
X19675Y-22925D01*
X19526Y-22925D01*
X19388Y-22982D01*
X19283Y-23087D01*
X19225Y-23225D01*
X19225Y-23365D01*
X17195Y-25395D01*
X17132Y-25489D01*
X17110Y-25600D01*
X17110Y-26400D01*
X17132Y-26511D01*
X17195Y-26605D01*
X17695Y-27105D01*
X17789Y-27168D01*
X17900Y-27190D01*
X18379Y-27190D01*
X18525Y-27335D01*
X18525Y-27374D01*
X18582Y-27512D01*
X18687Y-27617D01*
X18825Y-27675D01*
X18864Y-27675D01*
X19710Y-28520D01*
X19710Y-32526D01*
X19689Y-32535D01*
X19535Y-32689D01*
X19500Y-32773D01*
X19465Y-32689D01*
X19311Y-32535D01*
X19109Y-32451D01*
X18891Y-32451D01*
X18689Y-32535D01*
X18535Y-32689D01*
X18500Y-32773D01*
X18465Y-32689D01*
X18311Y-32535D01*
X18109Y-32451D01*
X17891Y-32451D01*
X17689Y-32535D01*
X17535Y-32689D01*
X17500Y-32773D01*
X17465Y-32689D01*
X17311Y-32535D01*
X17109Y-32451D01*
X16891Y-32451D01*
X16689Y-32535D01*
X16535Y-32689D01*
X16500Y-32773D01*
X16465Y-32689D01*
X16311Y-32535D01*
X16109Y-32451D01*
X15891Y-32451D01*
X15775Y-32499D01*
X15775Y-26075D01*
X15775Y-25926D01*
X15718Y-25788D01*
X15613Y-25683D01*
X15475Y-25625D01*
X15326Y-25625D01*
X15188Y-25682D01*
X15083Y-25787D01*
X15025Y-25925D01*
X15025Y-26074D01*
X15082Y-26212D01*
X15187Y-26317D01*
X15325Y-26375D01*
X15474Y-26375D01*
X15612Y-26318D01*
X15717Y-26213D01*
X15775Y-26075D01*
X15775Y-32499D01*
X15689Y-32535D01*
X15535Y-32689D01*
X15500Y-32773D01*
X15465Y-32689D01*
X15311Y-32535D01*
X15109Y-32451D01*
X14891Y-32451D01*
X14689Y-32535D01*
X14535Y-32689D01*
X14500Y-32773D01*
X14465Y-32689D01*
X14311Y-32535D01*
X14109Y-32451D01*
X13891Y-32451D01*
X13689Y-32535D01*
X13535Y-32689D01*
X13500Y-32773D01*
X13465Y-32689D01*
X13311Y-32535D01*
X13109Y-32451D01*
X12891Y-32451D01*
X12689Y-32535D01*
X12535Y-32689D01*
X12500Y-32773D01*
X12465Y-32689D01*
X12311Y-32535D01*
X12109Y-32451D01*
X11891Y-32451D01*
X11689Y-32535D01*
X11535Y-32689D01*
X11451Y-32891D01*
X11451Y-33109D01*
X11535Y-33311D01*
X11675Y-33451D01*
X11651Y-33451D01*
X11559Y-33489D01*
X11489Y-33559D01*
X11451Y-33650D01*
X11451Y-33749D01*
X11451Y-34349D01*
X11489Y-34441D01*
X11559Y-34511D01*
X11650Y-34549D01*
X11749Y-34549D01*
X12349Y-34549D01*
X12441Y-34511D01*
X12511Y-34441D01*
X12549Y-34350D01*
X12549Y-34325D01*
X12689Y-34465D01*
X12891Y-34549D01*
X13109Y-34549D01*
X13311Y-34465D01*
X13465Y-34311D01*
X13500Y-34226D01*
X13535Y-34311D01*
X13689Y-34465D01*
X13891Y-34549D01*
X14109Y-34549D01*
X14311Y-34465D01*
X14465Y-34311D01*
X14500Y-34226D01*
X14535Y-34311D01*
X14689Y-34465D01*
X14891Y-34549D01*
X15109Y-34549D01*
X15311Y-34465D01*
X15465Y-34311D01*
X15500Y-34226D01*
X15535Y-34311D01*
X15689Y-34465D01*
X15891Y-34549D01*
X16109Y-34549D01*
X16311Y-34465D01*
X16465Y-34311D01*
X16500Y-34226D01*
X16535Y-34311D01*
X16689Y-34465D01*
X16891Y-34549D01*
X17109Y-34549D01*
X17311Y-34465D01*
X17465Y-34311D01*
X17500Y-34226D01*
X17535Y-34311D01*
X17689Y-34465D01*
X17891Y-34549D01*
X18109Y-34549D01*
X18311Y-34465D01*
X18465Y-34311D01*
X18500Y-34226D01*
X18535Y-34311D01*
X18689Y-34465D01*
X18891Y-34549D01*
X19109Y-34549D01*
X19311Y-34465D01*
X19465Y-34311D01*
X19500Y-34226D01*
X19535Y-34311D01*
X19689Y-34465D01*
X19891Y-34549D01*
X20109Y-34549D01*
X20311Y-34465D01*
X20465Y-34311D01*
X20500Y-34226D01*
X20535Y-34311D01*
X20689Y-34465D01*
X20891Y-34549D01*
X21109Y-34549D01*
X21311Y-34465D01*
X21465Y-34311D01*
X21500Y-34226D01*
X21535Y-34311D01*
X21689Y-34465D01*
X21891Y-34549D01*
X22109Y-34549D01*
X22311Y-34465D01*
X22465Y-34311D01*
X22500Y-34226D01*
X22535Y-34311D01*
X22689Y-34465D01*
X22891Y-34549D01*
X23109Y-34549D01*
X23311Y-34465D01*
X23465Y-34311D01*
X23500Y-34226D01*
X23535Y-34311D01*
X23689Y-34465D01*
X23891Y-34549D01*
X24109Y-34549D01*
X24311Y-34465D01*
X24465Y-34311D01*
X24500Y-34226D01*
X24535Y-34311D01*
X24689Y-34465D01*
X24891Y-34549D01*
X25109Y-34549D01*
X25311Y-34465D01*
X25465Y-34311D01*
X25500Y-34226D01*
X25535Y-34311D01*
X25689Y-34465D01*
X25891Y-34549D01*
X26109Y-34549D01*
X26311Y-34465D01*
X26465Y-34311D01*
X26500Y-34226D01*
X26535Y-34311D01*
X26689Y-34465D01*
X26891Y-34549D01*
X27109Y-34549D01*
X27311Y-34465D01*
X27465Y-34311D01*
X27500Y-34226D01*
X27535Y-34311D01*
X27689Y-34465D01*
X27891Y-34549D01*
X28109Y-34549D01*
X28311Y-34465D01*
X28465Y-34311D01*
X28500Y-34226D01*
X28535Y-34311D01*
X28689Y-34465D01*
X28891Y-34549D01*
X29109Y-34549D01*
X29311Y-34465D01*
X29465Y-34311D01*
X29500Y-34226D01*
X29535Y-34311D01*
X29689Y-34465D01*
X29891Y-34549D01*
X30109Y-34549D01*
X30311Y-34465D01*
X30465Y-34311D01*
X30500Y-34226D01*
X30535Y-34311D01*
X30689Y-34465D01*
X30891Y-34549D01*
X31109Y-34549D01*
X31311Y-34465D01*
X31465Y-34311D01*
X31500Y-34226D01*
X31535Y-34311D01*
X31689Y-34465D01*
X31891Y-34549D01*
X32109Y-34549D01*
X32311Y-34465D01*
X32465Y-34311D01*
X32500Y-34226D01*
X32535Y-34311D01*
X32689Y-34465D01*
X32891Y-34549D01*
X33109Y-34549D01*
X33311Y-34465D01*
X33465Y-34311D01*
X33500Y-34226D01*
X33535Y-34311D01*
X33689Y-34465D01*
X33891Y-34549D01*
X34109Y-34549D01*
X34311Y-34465D01*
X34465Y-34311D01*
X34500Y-34226D01*
X34535Y-34311D01*
X34689Y-34465D01*
X34891Y-34549D01*
X35109Y-34549D01*
X35311Y-34465D01*
X35465Y-34311D01*
X35500Y-34226D01*
X35535Y-34311D01*
X35689Y-34465D01*
X35891Y-34549D01*
X36109Y-34549D01*
X36311Y-34465D01*
X36465Y-34311D01*
X36500Y-34226D01*
X36535Y-34311D01*
X36689Y-34465D01*
X36891Y-34549D01*
X37109Y-34549D01*
X37311Y-34465D01*
X37465Y-34311D01*
X37500Y-34226D01*
X37535Y-34311D01*
X37689Y-34465D01*
X37891Y-34549D01*
X38109Y-34549D01*
X38311Y-34465D01*
X38465Y-34311D01*
X38500Y-34226D01*
X38535Y-34311D01*
X38689Y-34465D01*
X38891Y-34549D01*
X39109Y-34549D01*
X39311Y-34465D01*
X39465Y-34311D01*
X39500Y-34226D01*
X39535Y-34311D01*
X39689Y-34465D01*
X39891Y-34549D01*
X40109Y-34549D01*
X40311Y-34465D01*
X40465Y-34311D01*
X40500Y-34226D01*
X40535Y-34311D01*
X40689Y-34465D01*
X40891Y-34549D01*
X41109Y-34549D01*
X41311Y-34465D01*
X41465Y-34311D01*
X41500Y-34226D01*
X41535Y-34311D01*
X41689Y-34465D01*
X41891Y-34549D01*
X42109Y-34549D01*
X42311Y-34465D01*
X42465Y-34311D01*
X42500Y-34226D01*
X42535Y-34311D01*
X42689Y-34465D01*
X42891Y-34549D01*
X43109Y-34549D01*
X43311Y-34465D01*
X43465Y-34311D01*
X43549Y-34109D01*
X43549Y-37675D01*
X10325Y-37675D01*
X10325Y-06325D01*
X47175Y-06325D01*
X47175Y-07265D01*
X47040Y-07130D01*
X47049Y-07109D01*
X47049Y-06891D01*
X46965Y-06689D01*
X46811Y-06535D01*
X46609Y-06451D01*
X46391Y-06451D01*
X46189Y-06535D01*
X46049Y-06675D01*
X46049Y-06651D01*
X46011Y-06559D01*
X45941Y-06489D01*
X45850Y-06451D01*
X45751Y-06451D01*
X45151Y-06451D01*
X45059Y-06489D01*
X44989Y-06559D01*
X44951Y-06650D01*
X44951Y-06749D01*
X44951Y-07138D01*
X43079Y-09010D01*
X41700Y-09010D01*
X41589Y-09032D01*
X41495Y-09095D01*
X41494Y-09095D01*
X41494Y-09096D01*
X41130Y-09459D01*
X41109Y-09451D01*
X40891Y-09451D01*
X40689Y-09535D01*
X40535Y-09689D01*
X40500Y-09773D01*
X40465Y-09689D01*
X40311Y-09535D01*
X40109Y-09451D01*
X39891Y-09451D01*
X39689Y-09535D01*
X39535Y-09689D01*
X39500Y-09773D01*
X39465Y-09689D01*
X39311Y-09535D01*
X39109Y-09451D01*
X38891Y-09451D01*
X38689Y-09535D01*
X38535Y-09689D01*
X38500Y-09773D01*
X38465Y-09689D01*
X38311Y-09535D01*
X38109Y-09451D01*
X37891Y-09451D01*
X37689Y-09535D01*
X37535Y-09689D01*
X37500Y-09773D01*
X37465Y-09689D01*
X37311Y-09535D01*
X37109Y-09451D01*
X36891Y-09451D01*
X36689Y-09535D01*
X36535Y-09689D01*
X36500Y-09773D01*
X36465Y-09689D01*
X36311Y-09535D01*
X36109Y-09451D01*
X35891Y-09451D01*
X35689Y-09535D01*
X35535Y-09689D01*
X35500Y-09773D01*
X35465Y-09689D01*
X35311Y-09535D01*
X35109Y-09451D01*
X34891Y-09451D01*
X34689Y-09535D01*
X34535Y-09689D01*
X34500Y-09773D01*
X34465Y-09689D01*
X34311Y-09535D01*
X34109Y-09451D01*
X33891Y-09451D01*
X33689Y-09535D01*
X33535Y-09689D01*
X33500Y-09773D01*
X33465Y-09689D01*
X33311Y-09535D01*
X33109Y-09451D01*
X32891Y-09451D01*
X32689Y-09535D01*
X32535Y-09689D01*
X32500Y-09773D01*
X32465Y-09689D01*
X32311Y-09535D01*
X32109Y-09451D01*
X31891Y-09451D01*
X31689Y-09535D01*
X31535Y-09689D01*
X31500Y-09773D01*
X31465Y-09689D01*
X31311Y-09535D01*
X31109Y-09451D01*
X30891Y-09451D01*
X30689Y-09535D01*
X30535Y-09689D01*
X30500Y-09773D01*
X30465Y-09689D01*
X30311Y-09535D01*
X30109Y-09451D01*
X29891Y-09451D01*
X29689Y-09535D01*
X29535Y-09689D01*
X29500Y-09773D01*
X29465Y-09689D01*
X29311Y-09535D01*
X29109Y-09451D01*
X28891Y-09451D01*
X28689Y-09535D01*
X28535Y-09689D01*
X28500Y-09773D01*
X28465Y-09689D01*
X28311Y-09535D01*
X28109Y-09451D01*
X27891Y-09451D01*
X27689Y-09535D01*
X27535Y-09689D01*
X27500Y-09773D01*
X27465Y-09689D01*
X27311Y-09535D01*
X27109Y-09451D01*
X26891Y-09451D01*
X26689Y-09535D01*
X26535Y-09689D01*
X26500Y-09773D01*
X26465Y-09689D01*
X26311Y-09535D01*
X26109Y-09451D01*
X25891Y-09451D01*
X25689Y-09535D01*
X25535Y-09689D01*
X25500Y-09773D01*
X25465Y-09689D01*
X25311Y-09535D01*
X25109Y-09451D01*
X24891Y-09451D01*
X24689Y-09535D01*
X24535Y-09689D01*
X24500Y-09773D01*
X24465Y-09689D01*
X24311Y-09535D01*
X24109Y-09451D01*
X23891Y-09451D01*
X23689Y-09535D01*
X23535Y-09689D01*
X23500Y-09773D01*
X23465Y-09689D01*
X23311Y-09535D01*
X23109Y-09451D01*
X22891Y-09451D01*
X22689Y-09535D01*
X22535Y-09689D01*
X22500Y-09773D01*
X22465Y-09689D01*
X22311Y-09535D01*
X22109Y-09451D01*
X21891Y-09451D01*
X21689Y-09535D01*
X21535Y-09689D01*
X21500Y-09773D01*
X21465Y-09689D01*
X21311Y-09535D01*
X21109Y-09451D01*
X20891Y-09451D01*
X20689Y-09535D01*
X20535Y-09689D01*
X20500Y-09773D01*
X20465Y-09689D01*
X20311Y-09535D01*
X20109Y-09451D01*
X19891Y-09451D01*
X19689Y-09535D01*
X19535Y-09689D01*
X19500Y-09773D01*
X19465Y-09689D01*
X19311Y-09535D01*
X19109Y-09451D01*
X18891Y-09451D01*
X18689Y-09535D01*
X18535Y-09689D01*
X18500Y-09773D01*
X18465Y-09689D01*
X18311Y-09535D01*
X18109Y-09451D01*
X17891Y-09451D01*
X17689Y-09535D01*
X17535Y-09689D01*
X17500Y-09773D01*
X17465Y-09689D01*
X17311Y-09535D01*
X17109Y-09451D01*
X16891Y-09451D01*
X16689Y-09535D01*
X16535Y-09689D01*
X16497Y-09780D01*
X16472Y-09719D01*
X16378Y-09692D01*
X16308Y-09762D01*
X16308Y-09622D01*
X16281Y-09528D01*
X16079Y-09457D01*
X15866Y-09468D01*
X15719Y-09528D01*
X15692Y-09622D01*
X16000Y-09929D01*
X16308Y-09622D01*
X16308Y-09762D01*
X16071Y-10000D01*
X16378Y-10308D01*
X16472Y-10281D01*
X16495Y-10215D01*
X16535Y-10311D01*
X16689Y-10465D01*
X16773Y-10500D01*
X16689Y-10535D01*
X16535Y-10689D01*
X16497Y-10780D01*
X16472Y-10719D01*
X16378Y-10692D01*
X16308Y-10762D01*
X16308Y-10622D01*
X16281Y-10528D01*
X16207Y-10502D01*
X16281Y-10472D01*
X16308Y-10378D01*
X16000Y-10071D01*
X15692Y-10378D01*
X15719Y-10472D01*
X15792Y-10497D01*
X15719Y-10528D01*
X15692Y-10622D01*
X16000Y-10929D01*
X16308Y-10622D01*
X16308Y-10762D01*
X16071Y-11000D01*
X16378Y-11308D01*
X16472Y-11281D01*
X16495Y-11215D01*
X16535Y-11311D01*
X16689Y-11465D01*
X16891Y-11549D01*
X17109Y-11549D01*
X17311Y-11465D01*
X17465Y-11311D01*
X17500Y-11226D01*
X17535Y-11311D01*
X17689Y-11465D01*
X17891Y-11549D01*
X18109Y-11549D01*
X18311Y-11465D01*
X18465Y-11311D01*
X18500Y-11226D01*
X18535Y-11311D01*
X18689Y-11465D01*
X18891Y-11549D01*
X19109Y-11549D01*
X19311Y-11465D01*
X19465Y-11311D01*
X19500Y-11226D01*
X19535Y-11311D01*
X19689Y-11465D01*
X19891Y-11549D01*
X20109Y-11549D01*
X20311Y-11465D01*
X20465Y-11311D01*
X20500Y-11226D01*
X20535Y-11311D01*
X20689Y-11465D01*
X20891Y-11549D01*
X21109Y-11549D01*
X21311Y-11465D01*
X21465Y-11311D01*
X21500Y-11226D01*
X21535Y-11311D01*
X21689Y-11465D01*
X21891Y-11549D01*
X22109Y-11549D01*
X22311Y-11465D01*
X22465Y-11311D01*
X22500Y-11226D01*
X22535Y-11311D01*
X22689Y-11465D01*
X22891Y-11549D01*
X23109Y-11549D01*
X23311Y-11465D01*
X23465Y-11311D01*
X23500Y-11226D01*
X23535Y-11311D01*
X23689Y-11465D01*
X23891Y-11549D01*
X24109Y-11549D01*
X24311Y-11465D01*
X24465Y-11311D01*
X24500Y-11226D01*
X24535Y-11311D01*
X24689Y-11465D01*
X24891Y-11549D01*
X25109Y-11549D01*
X25311Y-11465D01*
X25465Y-11311D01*
X25500Y-11226D01*
X25535Y-11311D01*
X25689Y-11465D01*
X25891Y-11549D01*
X26109Y-11549D01*
X26311Y-11465D01*
X26465Y-11311D01*
X26500Y-11226D01*
X26535Y-11311D01*
X26689Y-11465D01*
X26891Y-11549D01*
X27109Y-11549D01*
X27311Y-11465D01*
X27465Y-11311D01*
X27500Y-11226D01*
X27535Y-11311D01*
X27689Y-11465D01*
X27891Y-11549D01*
X28109Y-11549D01*
X28311Y-11465D01*
X28465Y-11311D01*
X28500Y-11226D01*
X28535Y-11311D01*
X28689Y-11465D01*
X28891Y-11549D01*
X29109Y-11549D01*
X29311Y-11465D01*
X29465Y-11311D01*
X29500Y-11226D01*
X29535Y-11311D01*
X29689Y-11465D01*
X29891Y-11549D01*
X30109Y-11549D01*
X30311Y-11465D01*
X30465Y-11311D01*
X30500Y-11226D01*
X30535Y-11311D01*
X30689Y-11465D01*
X30891Y-11549D01*
X31109Y-11549D01*
X31311Y-11465D01*
X31332Y-11443D01*
X32394Y-12505D01*
X32395Y-12505D01*
X32489Y-12568D01*
X32600Y-12590D01*
X40980Y-12590D01*
X42344Y-13954D01*
X42275Y-13925D01*
X42126Y-13925D01*
X41988Y-13982D01*
X41883Y-14087D01*
X41825Y-14225D01*
X41825Y-14374D01*
X41882Y-14512D01*
X41987Y-14617D01*
X42125Y-14675D01*
X42274Y-14675D01*
X42412Y-14618D01*
X42517Y-14513D01*
X42575Y-14375D01*
X42575Y-14226D01*
X42546Y-14156D01*
X42951Y-14561D01*
X42925Y-14625D01*
X42925Y-14774D01*
X42982Y-14912D01*
X43087Y-15017D01*
X43225Y-15075D01*
X43374Y-15075D01*
X43512Y-15018D01*
X43609Y-14920D01*
X43910Y-15220D01*
X43910Y-19400D01*
X43932Y-19511D01*
X43995Y-19605D01*
X45057Y-20667D01*
X45035Y-20689D01*
X44951Y-20891D01*
X44951Y-21109D01*
X45035Y-21311D01*
X45189Y-21465D01*
X45391Y-21549D01*
X45609Y-21549D01*
X45811Y-21465D01*
X45965Y-21311D01*
X46000Y-21226D01*
X46035Y-21311D01*
X46189Y-21465D01*
X46391Y-21549D01*
X46609Y-21549D01*
X46811Y-21465D01*
X46965Y-21311D01*
X47049Y-21109D01*
X47049Y-20891D01*
X46965Y-20689D01*
X46811Y-20535D01*
X46726Y-20500D01*
X46811Y-20465D01*
X46965Y-20311D01*
X47049Y-20109D01*
X47049Y-19891D01*
X46965Y-19689D01*
X46811Y-19535D01*
X46726Y-19500D01*
X46811Y-19465D01*
X46965Y-19311D01*
X47049Y-19109D01*
X47049Y-18891D01*
X47040Y-18869D01*
X47175Y-18735D01*
X47175Y-29765D01*
X47040Y-29630D01*
X47049Y-29609D01*
X47049Y-29391D01*
X46999Y-29270D01*
X46999Y-27550D01*
X46999Y-26848D01*
X46999Y-24400D01*
X46999Y-23698D01*
X46293Y-23698D01*
X46293Y-24400D01*
X46999Y-24400D01*
X46999Y-26848D01*
X46293Y-26848D01*
X46293Y-27550D01*
X46999Y-27550D01*
X46999Y-29270D01*
X46965Y-29189D01*
X46811Y-29035D01*
X46609Y-28951D01*
X46391Y-28951D01*
X46189Y-29035D01*
X46049Y-29175D01*
X46049Y-29151D01*
X46011Y-29059D01*
X45941Y-28989D01*
X45850Y-28951D01*
X45751Y-28951D01*
X45151Y-28951D01*
X45059Y-28989D01*
X44989Y-29059D01*
X44951Y-29150D01*
X44951Y-29249D01*
X44951Y-29849D01*
X44989Y-29941D01*
X45059Y-30011D01*
X45150Y-30049D01*
X45175Y-30049D01*
X45035Y-30189D01*
X44951Y-30391D01*
X44951Y-30609D01*
X45035Y-30811D01*
X45189Y-30965D01*
X45273Y-31000D01*
X45189Y-31035D01*
X45035Y-31189D01*
X44951Y-31391D01*
X44951Y-31609D01*
X45035Y-31811D01*
X45189Y-31965D01*
X45273Y-32000D01*
X45189Y-32035D01*
X45035Y-32189D01*
X44951Y-32391D01*
X44951Y-32609D01*
X45035Y-32811D01*
X45189Y-32965D01*
X45391Y-33049D01*
X45609Y-33049D01*
X45710Y-33007D01*
X45710Y-33451D01*
X45151Y-33451D01*
X45059Y-33489D01*
X44989Y-33559D01*
X44951Y-33650D01*
X44951Y-33749D01*
X44951Y-34349D01*
X44989Y-34441D01*
X45059Y-34511D01*
X45150Y-34549D01*
X45175Y-34549D01*
X45035Y-34689D01*
X44951Y-34891D01*
X44951Y-35109D01*
X45035Y-35311D01*
X45189Y-35465D01*
X45273Y-35500D01*
X45189Y-35535D01*
X45035Y-35689D01*
X45000Y-35770D01*
X44913Y-35683D01*
X44875Y-35667D01*
X44875Y-35075D01*
X44875Y-34926D01*
X44818Y-34788D01*
X44713Y-34683D01*
X44675Y-34667D01*
X44675Y-34075D01*
X44675Y-33926D01*
X44618Y-33788D01*
X44513Y-33683D01*
X44475Y-33667D01*
X44475Y-32575D01*
X44475Y-32426D01*
X44418Y-32288D01*
X44313Y-32183D01*
X44275Y-32167D01*
X44275Y-31575D01*
X44275Y-31426D01*
X44218Y-31288D01*
X44113Y-31183D01*
X44075Y-31167D01*
X44075Y-30575D01*
X44075Y-30426D01*
X44018Y-30288D01*
X43913Y-30183D01*
X43875Y-30167D01*
X43875Y-29575D01*
X43875Y-29426D01*
X43818Y-29288D01*
X43713Y-29183D01*
X43575Y-29125D01*
X43426Y-29125D01*
X43288Y-29182D01*
X43183Y-29287D01*
X43125Y-29425D01*
X43125Y-29574D01*
X43182Y-29712D01*
X43287Y-29817D01*
X43425Y-29875D01*
X43574Y-29875D01*
X43712Y-29818D01*
X43817Y-29713D01*
X43875Y-29575D01*
X43875Y-30167D01*
X43775Y-30125D01*
X43626Y-30125D01*
X43488Y-30182D01*
X43383Y-30287D01*
X43325Y-30425D01*
X43325Y-30574D01*
X43346Y-30625D01*
X43335Y-30625D01*
X42605Y-29895D01*
X42511Y-29832D01*
X42400Y-29810D01*
X42100Y-29810D01*
X42100Y-25700D01*
X42100Y-25551D01*
X42043Y-25413D01*
X41938Y-25308D01*
X41800Y-25250D01*
X41651Y-25250D01*
X41590Y-25275D01*
X40459Y-25275D01*
X40400Y-25250D01*
X40251Y-25250D01*
X40113Y-25307D01*
X40008Y-25412D01*
X39950Y-25550D01*
X39950Y-25699D01*
X40007Y-25837D01*
X40112Y-25942D01*
X40250Y-26000D01*
X40399Y-26000D01*
X40459Y-25975D01*
X41590Y-25975D01*
X41650Y-26000D01*
X41799Y-26000D01*
X41937Y-25943D01*
X42042Y-25838D01*
X42100Y-25700D01*
X42100Y-29810D01*
X40640Y-29810D01*
X40613Y-29783D01*
X40475Y-29725D01*
X40326Y-29725D01*
X40188Y-29782D01*
X40083Y-29887D01*
X40025Y-30025D01*
X40025Y-30174D01*
X40082Y-30312D01*
X40187Y-30417D01*
X40325Y-30475D01*
X40474Y-30475D01*
X40612Y-30418D01*
X40640Y-30390D01*
X42279Y-30390D01*
X42925Y-31035D01*
X42925Y-31074D01*
X42982Y-31212D01*
X43087Y-31317D01*
X43225Y-31375D01*
X43374Y-31375D01*
X43512Y-31318D01*
X43617Y-31213D01*
X43675Y-31075D01*
X43675Y-30926D01*
X43653Y-30875D01*
X43774Y-30875D01*
X43912Y-30818D01*
X44017Y-30713D01*
X44075Y-30575D01*
X44075Y-31167D01*
X43975Y-31125D01*
X43826Y-31125D01*
X43688Y-31182D01*
X43583Y-31287D01*
X43525Y-31425D01*
X43525Y-31574D01*
X43582Y-31712D01*
X43687Y-31817D01*
X43825Y-31875D01*
X43974Y-31875D01*
X44112Y-31818D01*
X44217Y-31713D01*
X44275Y-31575D01*
X44275Y-32167D01*
X44175Y-32125D01*
X44026Y-32125D01*
X43888Y-32182D01*
X43783Y-32287D01*
X43725Y-32425D01*
X43725Y-32574D01*
X43782Y-32712D01*
X43887Y-32817D01*
X44025Y-32875D01*
X44174Y-32875D01*
X44312Y-32818D01*
X44417Y-32713D01*
X44475Y-32575D01*
X44475Y-33667D01*
X44375Y-33625D01*
X44226Y-33625D01*
X44088Y-33682D01*
X43983Y-33787D01*
X43925Y-33925D01*
X43925Y-34074D01*
X43982Y-34212D01*
X44087Y-34317D01*
X44225Y-34375D01*
X44374Y-34375D01*
X44512Y-34318D01*
X44617Y-34213D01*
X44675Y-34075D01*
X44675Y-34667D01*
X44575Y-34625D01*
X44426Y-34625D01*
X44288Y-34682D01*
X44183Y-34787D01*
X44125Y-34925D01*
X44125Y-35074D01*
X44182Y-35212D01*
X44287Y-35317D01*
X44425Y-35375D01*
X44574Y-35375D01*
X44712Y-35318D01*
X44817Y-35213D01*
X44875Y-35075D01*
X44875Y-35667D01*
X44775Y-35625D01*
X44626Y-35625D01*
X44488Y-35682D01*
X44383Y-35787D01*
X44325Y-35925D01*
X44325Y-36074D01*
X44382Y-36212D01*
X44487Y-36317D01*
X44625Y-36375D01*
X44774Y-36375D01*
X44912Y-36318D01*
X45000Y-36229D01*
X45035Y-36311D01*
X45189Y-36465D01*
X45273Y-36500D01*
X45189Y-36535D01*
X45035Y-36689D01*
X44951Y-36891D01*
X44951Y-37109D01*
X45035Y-37311D01*
X45189Y-37465D01*
X45391Y-37549D01*
X45609Y-37549D01*
X45811Y-37465D01*
X45965Y-37311D01*
X46000Y-37226D01*
X46035Y-37311D01*
X46189Y-37465D01*
X46391Y-37549D01*
X46609Y-37549D01*
X46811Y-37465D01*
X46965Y-37311D01*
X46999Y-37229D01*
X47049Y-37109D01*
X47049Y-36891D01*
X46999Y-36770D01*
X46965Y-36689D01*
X46811Y-36535D01*
X46726Y-36500D01*
X46811Y-36465D01*
X46965Y-36311D01*
X46999Y-36229D01*
X47049Y-36109D01*
X47049Y-35891D01*
X46999Y-35770D01*
X46965Y-35689D01*
X46811Y-35535D01*
X46726Y-35500D01*
X46811Y-35465D01*
X46965Y-35311D01*
X46999Y-35229D01*
X47049Y-35109D01*
X47049Y-34891D01*
X46999Y-34770D01*
X46965Y-34689D01*
X46811Y-34535D01*
X46726Y-34500D01*
X46811Y-34465D01*
X46965Y-34311D01*
X46999Y-34229D01*
X47049Y-34109D01*
X47049Y-33891D01*
X47040Y-33869D01*
X47175Y-33735D01*
X47175Y-37675D01*
M02*
