G04 (created by PCBNEW-RS274X (2012-01-19 BZR 3256)-stable) date 08/10/2012 04:37:32*
G01*
G70*
G90*
%MOIN*%
G04 Gerber Fmt 3.4, Leading zero omitted, Abs format*
%FSLAX34Y34*%
G04 APERTURE LIST*
%ADD10C,0.006000*%
%ADD11R,0.098700X0.027800*%
%ADD12R,0.065000X0.075000*%
%ADD13R,0.080000X0.080000*%
%ADD14C,0.080000*%
%ADD15R,0.100000X0.164000*%
%ADD16R,0.100000X0.060000*%
%ADD17R,0.090000X0.130000*%
%ADD18R,0.075000X0.065000*%
%ADD19R,0.106600X0.075100*%
%ADD20R,0.075100X0.098700*%
%ADD21R,0.075100X0.075100*%
%ADD22R,0.098700X0.047600*%
%ADD23R,0.095000X0.040000*%
%ADD24R,0.039700X0.098700*%
G04 APERTURE END LIST*
G54D10*
G54D11*
X25037Y-27870D03*
X25037Y-27673D03*
X25037Y-27476D03*
X25037Y-27280D03*
X25037Y-27083D03*
X25037Y-26886D03*
X25037Y-26689D03*
X25037Y-26492D03*
X25037Y-26295D03*
X25037Y-26098D03*
X25037Y-25902D03*
X25037Y-25705D03*
X25037Y-25508D03*
X25037Y-25311D03*
X25037Y-25114D03*
X25037Y-24917D03*
X25037Y-24720D03*
X25037Y-24524D03*
X25037Y-24327D03*
X25037Y-24130D03*
X25037Y-23933D03*
X25037Y-23736D03*
X25037Y-23539D03*
X25037Y-23343D03*
X17163Y-23343D03*
X17163Y-23539D03*
X17163Y-23736D03*
X17163Y-23933D03*
X17163Y-24130D03*
X17163Y-24327D03*
X17163Y-24524D03*
X17163Y-24720D03*
X17163Y-24917D03*
X17163Y-25114D03*
X17163Y-25311D03*
X17163Y-25508D03*
X17163Y-25705D03*
X17163Y-25902D03*
X17163Y-26098D03*
X17163Y-26295D03*
X17163Y-26492D03*
X17163Y-26689D03*
X17163Y-26886D03*
X17163Y-27083D03*
X17163Y-27280D03*
X17163Y-27476D03*
X17163Y-27673D03*
X17163Y-27870D03*
X17163Y-28067D03*
X17163Y-28264D03*
X17163Y-28461D03*
X17163Y-28657D03*
X25037Y-28067D03*
X25037Y-28264D03*
X25037Y-28461D03*
X25037Y-28657D03*
X29063Y-15630D03*
X29063Y-15827D03*
X29063Y-16024D03*
X29063Y-16220D03*
X29063Y-16417D03*
X29063Y-16614D03*
X29063Y-16811D03*
X29063Y-17008D03*
X29063Y-17205D03*
X29063Y-17402D03*
X29063Y-17598D03*
X29063Y-17795D03*
X29063Y-17992D03*
X29063Y-18189D03*
X29063Y-18386D03*
X29063Y-18583D03*
X29063Y-18780D03*
X29063Y-18976D03*
X29063Y-19173D03*
X29063Y-19370D03*
X29063Y-19567D03*
X29063Y-19764D03*
X36937Y-19764D03*
X36937Y-19567D03*
X36937Y-19370D03*
X36937Y-19173D03*
X36937Y-18976D03*
X36937Y-18780D03*
X36937Y-18583D03*
X36937Y-18386D03*
X36937Y-18189D03*
X36937Y-17992D03*
X36937Y-17795D03*
X36937Y-17598D03*
X36937Y-17402D03*
X36937Y-17205D03*
X36937Y-17008D03*
X36937Y-16811D03*
X36937Y-16614D03*
X36937Y-16417D03*
X36937Y-16220D03*
X36937Y-16024D03*
X36937Y-15827D03*
X36937Y-15630D03*
X36937Y-15433D03*
X36937Y-15236D03*
X29063Y-15433D03*
X29063Y-15236D03*
G54D12*
X37825Y-29250D03*
X38675Y-29250D03*
G54D13*
X45500Y-16000D03*
G54D14*
X46500Y-16000D03*
X45500Y-17000D03*
X46500Y-17000D03*
X45500Y-18000D03*
X46500Y-18000D03*
X45500Y-19000D03*
X46500Y-19000D03*
X45500Y-20000D03*
X46500Y-20000D03*
X45500Y-21000D03*
X46500Y-21000D03*
G54D13*
X45500Y-11500D03*
G54D14*
X46500Y-11500D03*
X45500Y-12500D03*
X46500Y-12500D03*
X45500Y-13500D03*
X46500Y-13500D03*
X45500Y-14500D03*
X46500Y-14500D03*
G54D13*
X45500Y-07000D03*
G54D14*
X46500Y-07000D03*
X45500Y-08000D03*
X46500Y-08000D03*
X45500Y-09000D03*
X46500Y-09000D03*
X45500Y-10000D03*
X46500Y-10000D03*
G54D15*
X39700Y-19750D03*
G54D16*
X42300Y-19750D03*
X42300Y-18850D03*
X42300Y-20650D03*
G54D17*
X41700Y-17500D03*
X40300Y-17500D03*
X41700Y-22000D03*
X40300Y-22000D03*
G54D12*
X21525Y-14100D03*
X20675Y-14100D03*
G54D18*
X38000Y-18025D03*
X38000Y-17175D03*
X28100Y-18125D03*
X28100Y-17275D03*
G54D12*
X37825Y-28250D03*
X38675Y-28250D03*
G54D18*
X26900Y-29225D03*
X26900Y-28375D03*
G54D12*
X20875Y-20500D03*
X21725Y-20500D03*
G54D18*
X26000Y-29225D03*
X26000Y-28375D03*
G54D12*
X15475Y-25600D03*
X16325Y-25600D03*
G54D18*
X26500Y-22875D03*
X26500Y-23725D03*
X38000Y-19725D03*
X38000Y-18875D03*
X26500Y-25425D03*
X26500Y-24575D03*
G54D12*
X41175Y-23000D03*
X40325Y-23000D03*
X15475Y-26400D03*
X16325Y-26400D03*
X25175Y-29500D03*
X24325Y-29500D03*
X20225Y-20500D03*
X19375Y-20500D03*
G54D13*
X11000Y-27500D03*
G54D14*
X12000Y-27500D03*
X11000Y-28500D03*
X12000Y-28500D03*
X11000Y-29500D03*
X12000Y-29500D03*
X11000Y-30500D03*
X12000Y-30500D03*
G54D13*
X11000Y-23500D03*
G54D14*
X12000Y-23500D03*
X11000Y-24500D03*
X12000Y-24500D03*
X11000Y-25500D03*
X12000Y-25500D03*
X11000Y-26500D03*
X12000Y-26500D03*
G54D13*
X11000Y-19500D03*
G54D14*
X12000Y-19500D03*
X11000Y-20500D03*
X12000Y-20500D03*
X11000Y-21500D03*
X12000Y-21500D03*
X11000Y-22500D03*
X12000Y-22500D03*
G54D13*
X45500Y-34000D03*
G54D14*
X46500Y-34000D03*
X45500Y-35000D03*
X46500Y-35000D03*
X45500Y-36000D03*
X46500Y-36000D03*
X45500Y-37000D03*
X46500Y-37000D03*
G54D13*
X45500Y-29500D03*
G54D14*
X46500Y-29500D03*
X45500Y-30500D03*
X46500Y-30500D03*
X45500Y-31500D03*
X46500Y-31500D03*
X45500Y-32500D03*
X46500Y-32500D03*
G54D13*
X38500Y-22000D03*
G54D14*
X37500Y-22000D03*
G54D19*
X46488Y-28360D03*
X46488Y-22140D03*
G54D20*
X42709Y-22455D03*
G54D21*
X42709Y-28360D03*
G54D22*
X42433Y-27829D03*
X42433Y-27396D03*
X42433Y-26963D03*
X42433Y-26530D03*
X42433Y-26096D03*
X42433Y-25663D03*
X42433Y-25230D03*
X42433Y-24797D03*
X42433Y-24364D03*
G54D23*
X42400Y-29250D03*
X42400Y-29750D03*
X42400Y-30250D03*
X42400Y-30750D03*
X39600Y-30750D03*
X39600Y-30250D03*
X39600Y-29750D03*
X39600Y-29250D03*
G54D18*
X38000Y-15275D03*
X38000Y-16125D03*
G54D12*
X37925Y-20750D03*
X37075Y-20750D03*
X37825Y-30250D03*
X38675Y-30250D03*
X41175Y-28250D03*
X40325Y-28250D03*
X41175Y-23750D03*
X40325Y-23750D03*
X41175Y-24500D03*
X40325Y-24500D03*
X41175Y-25250D03*
X40325Y-25250D03*
X41175Y-26000D03*
X40325Y-26000D03*
X41175Y-26750D03*
X40325Y-26750D03*
X41175Y-27500D03*
X40325Y-27500D03*
G54D13*
X43000Y-10000D03*
G54D14*
X43000Y-11000D03*
X42000Y-10000D03*
X42000Y-11000D03*
X41000Y-10000D03*
X41000Y-11000D03*
X40000Y-10000D03*
X40000Y-11000D03*
X39000Y-10000D03*
X39000Y-11000D03*
X38000Y-10000D03*
X38000Y-11000D03*
X37000Y-10000D03*
X37000Y-11000D03*
X36000Y-10000D03*
X36000Y-11000D03*
X35000Y-10000D03*
X35000Y-11000D03*
X34000Y-10000D03*
X34000Y-11000D03*
X33000Y-10000D03*
X33000Y-11000D03*
X32000Y-10000D03*
X32000Y-11000D03*
X31000Y-10000D03*
X31000Y-11000D03*
X30000Y-10000D03*
X30000Y-11000D03*
X29000Y-10000D03*
X29000Y-11000D03*
X28000Y-10000D03*
X28000Y-11000D03*
X27000Y-10000D03*
X27000Y-11000D03*
X26000Y-10000D03*
X26000Y-11000D03*
X25000Y-10000D03*
X25000Y-11000D03*
X24000Y-10000D03*
X24000Y-11000D03*
X23000Y-10000D03*
X23000Y-11000D03*
X22000Y-10000D03*
X22000Y-11000D03*
X21000Y-10000D03*
X21000Y-11000D03*
X20000Y-10000D03*
X20000Y-11000D03*
X19000Y-10000D03*
X19000Y-11000D03*
X18000Y-10000D03*
X18000Y-11000D03*
X17000Y-10000D03*
X17000Y-11000D03*
X16000Y-10000D03*
X16000Y-11000D03*
X15000Y-10000D03*
X15000Y-11000D03*
X14000Y-10000D03*
X14000Y-11000D03*
X13000Y-10000D03*
X13000Y-11000D03*
X12000Y-10000D03*
X12000Y-11000D03*
G54D13*
X12000Y-34000D03*
G54D14*
X12000Y-33000D03*
X13000Y-34000D03*
X13000Y-33000D03*
X14000Y-34000D03*
X14000Y-33000D03*
X15000Y-34000D03*
X15000Y-33000D03*
X16000Y-34000D03*
X16000Y-33000D03*
X17000Y-34000D03*
X17000Y-33000D03*
X18000Y-34000D03*
X18000Y-33000D03*
X19000Y-34000D03*
X19000Y-33000D03*
X20000Y-34000D03*
X20000Y-33000D03*
X21000Y-34000D03*
X21000Y-33000D03*
X22000Y-34000D03*
X22000Y-33000D03*
X23000Y-34000D03*
X23000Y-33000D03*
X24000Y-34000D03*
X24000Y-33000D03*
X25000Y-34000D03*
X25000Y-33000D03*
X26000Y-34000D03*
X26000Y-33000D03*
X27000Y-34000D03*
X27000Y-33000D03*
X28000Y-34000D03*
X28000Y-33000D03*
X29000Y-34000D03*
X29000Y-33000D03*
X30000Y-34000D03*
X30000Y-33000D03*
X31000Y-34000D03*
X31000Y-33000D03*
X32000Y-34000D03*
X32000Y-33000D03*
X33000Y-34000D03*
X33000Y-33000D03*
X34000Y-34000D03*
X34000Y-33000D03*
X35000Y-34000D03*
X35000Y-33000D03*
X36000Y-34000D03*
X36000Y-33000D03*
X37000Y-34000D03*
X37000Y-33000D03*
X38000Y-34000D03*
X38000Y-33000D03*
X39000Y-34000D03*
X39000Y-33000D03*
X40000Y-34000D03*
X40000Y-33000D03*
X41000Y-34000D03*
X41000Y-33000D03*
X42000Y-34000D03*
X42000Y-33000D03*
X43000Y-34000D03*
X43000Y-33000D03*
G54D24*
X23777Y-14938D03*
X23462Y-14938D03*
X23147Y-14938D03*
X22832Y-14938D03*
X22517Y-14938D03*
X22202Y-14938D03*
X21887Y-14938D03*
X21572Y-14938D03*
X21257Y-14938D03*
X20943Y-14938D03*
X20628Y-14938D03*
X20313Y-14938D03*
X19998Y-14938D03*
X19683Y-14938D03*
X19368Y-14938D03*
X19053Y-14938D03*
X18738Y-14938D03*
X18423Y-14938D03*
X18108Y-14938D03*
G54D10*
G36*
X17595Y-15431D02*
X17595Y-14445D01*
X17991Y-14445D01*
X17991Y-15431D01*
X17595Y-15431D01*
X17595Y-15431D01*
G37*
G54D24*
X17793Y-19662D03*
X18108Y-19662D03*
X18423Y-19662D03*
X18738Y-19662D03*
X19053Y-19662D03*
X19368Y-19662D03*
X19683Y-19662D03*
X19998Y-19662D03*
X20313Y-19662D03*
X20628Y-19662D03*
X20943Y-19662D03*
X21257Y-19662D03*
X21572Y-19662D03*
X21887Y-19662D03*
X22202Y-19662D03*
X22517Y-19662D03*
X22832Y-19662D03*
X23147Y-19662D03*
X23462Y-19662D03*
X23777Y-19662D03*
X24092Y-19662D03*
X24407Y-19662D03*
X24092Y-14938D03*
X24407Y-14938D03*
G54D12*
X40575Y-13750D03*
X41425Y-13750D03*
G54D13*
X11000Y-13500D03*
G54D14*
X12000Y-13500D03*
X11000Y-14500D03*
X12000Y-14500D03*
X11000Y-15500D03*
X12000Y-15500D03*
X11000Y-16500D03*
X12000Y-16500D03*
X11000Y-17500D03*
X12000Y-17500D03*
G54D23*
X42400Y-14750D03*
X42400Y-15250D03*
X42400Y-15750D03*
X42400Y-16250D03*
X39600Y-16250D03*
X39600Y-15750D03*
X39600Y-15250D03*
X39600Y-14750D03*
M02*
