G04 (created by PCBNEW-RS274X (2012-01-19 BZR 3256)-stable) date 08/10/2012 04:37:32*
G01*
G70*
G90*
%MOIN*%
G04 Gerber Fmt 3.4, Leading zero omitted, Abs format*
%FSLAX34Y34*%
G04 APERTURE LIST*
%ADD10C,0.006000*%
%ADD11C,0.015000*%
%ADD12C,0.010000*%
%ADD13C,0.005000*%
%ADD14C,0.012000*%
%ADD15C,0.008000*%
%ADD16C,0.000100*%
G04 APERTURE END LIST*
G54D10*
G54D11*
X39250Y-11750D02*
X38750Y-11750D01*
G54D12*
X38705Y-11952D02*
X38705Y-12452D01*
X38895Y-11952D02*
X38895Y-12452D01*
X39314Y-11999D02*
X39295Y-11975D01*
X39238Y-11952D01*
X39200Y-11952D01*
X39142Y-11975D01*
X39104Y-12023D01*
X39085Y-12071D01*
X39066Y-12166D01*
X39066Y-12237D01*
X39085Y-12333D01*
X39104Y-12380D01*
X39142Y-12428D01*
X39200Y-12452D01*
X39238Y-12452D01*
X39295Y-12428D01*
X39314Y-12404D01*
X38821Y-08264D02*
X38798Y-08321D01*
X38798Y-08417D01*
X38821Y-08455D01*
X38845Y-08474D01*
X38893Y-08493D01*
X38940Y-08493D01*
X38988Y-08474D01*
X39012Y-08455D01*
X39036Y-08417D01*
X39060Y-08340D01*
X39083Y-08302D01*
X39107Y-08283D01*
X39155Y-08264D01*
X39202Y-08264D01*
X39250Y-08283D01*
X39274Y-08302D01*
X39298Y-08340D01*
X39298Y-08436D01*
X39274Y-08493D01*
X38798Y-08664D02*
X39298Y-08664D01*
X39298Y-08759D01*
X39274Y-08817D01*
X39226Y-08855D01*
X39179Y-08874D01*
X39083Y-08893D01*
X39012Y-08893D01*
X38917Y-08874D01*
X38869Y-08855D01*
X38821Y-08817D01*
X38798Y-08759D01*
X38798Y-08664D01*
X38940Y-09045D02*
X38940Y-09236D01*
X38798Y-09007D02*
X39298Y-09140D01*
X38798Y-09274D01*
X38821Y-06774D02*
X38798Y-06831D01*
X38798Y-06927D01*
X38821Y-06965D01*
X38845Y-06984D01*
X38893Y-07003D01*
X38940Y-07003D01*
X38988Y-06984D01*
X39012Y-06965D01*
X39036Y-06927D01*
X39060Y-06850D01*
X39083Y-06812D01*
X39107Y-06793D01*
X39155Y-06774D01*
X39202Y-06774D01*
X39250Y-06793D01*
X39274Y-06812D01*
X39298Y-06850D01*
X39298Y-06946D01*
X39274Y-07003D01*
X38845Y-07403D02*
X38821Y-07384D01*
X38798Y-07327D01*
X38798Y-07289D01*
X38821Y-07231D01*
X38869Y-07193D01*
X38917Y-07174D01*
X39012Y-07155D01*
X39083Y-07155D01*
X39179Y-07174D01*
X39226Y-07193D01*
X39274Y-07231D01*
X39298Y-07289D01*
X39298Y-07327D01*
X39274Y-07384D01*
X39250Y-07403D01*
X38798Y-07765D02*
X38798Y-07574D01*
X39298Y-07574D01*
X13243Y-27655D02*
X13224Y-27679D01*
X13167Y-27702D01*
X13129Y-27702D01*
X13071Y-27679D01*
X13033Y-27631D01*
X13014Y-27583D01*
X12995Y-27488D01*
X12995Y-27417D01*
X13014Y-27321D01*
X13033Y-27274D01*
X13071Y-27226D01*
X13129Y-27202D01*
X13167Y-27202D01*
X13224Y-27226D01*
X13243Y-27250D01*
X13395Y-27679D02*
X13452Y-27702D01*
X13548Y-27702D01*
X13586Y-27679D01*
X13605Y-27655D01*
X13624Y-27607D01*
X13624Y-27560D01*
X13605Y-27512D01*
X13586Y-27488D01*
X13548Y-27464D01*
X13471Y-27440D01*
X13433Y-27417D01*
X13414Y-27393D01*
X13395Y-27345D01*
X13395Y-27298D01*
X13414Y-27250D01*
X13433Y-27226D01*
X13471Y-27202D01*
X13567Y-27202D01*
X13624Y-27226D01*
X13757Y-27202D02*
X14005Y-27202D01*
X13871Y-27393D01*
X13929Y-27393D01*
X13967Y-27417D01*
X13986Y-27440D01*
X14005Y-27488D01*
X14005Y-27607D01*
X13986Y-27655D01*
X13967Y-27679D01*
X13929Y-27702D01*
X13814Y-27702D01*
X13776Y-27679D01*
X13757Y-27655D01*
X13243Y-28655D02*
X13224Y-28679D01*
X13167Y-28702D01*
X13129Y-28702D01*
X13071Y-28679D01*
X13033Y-28631D01*
X13014Y-28583D01*
X12995Y-28488D01*
X12995Y-28417D01*
X13014Y-28321D01*
X13033Y-28274D01*
X13071Y-28226D01*
X13129Y-28202D01*
X13167Y-28202D01*
X13224Y-28226D01*
X13243Y-28250D01*
X13395Y-28679D02*
X13452Y-28702D01*
X13548Y-28702D01*
X13586Y-28679D01*
X13605Y-28655D01*
X13624Y-28607D01*
X13624Y-28560D01*
X13605Y-28512D01*
X13586Y-28488D01*
X13548Y-28464D01*
X13471Y-28440D01*
X13433Y-28417D01*
X13414Y-28393D01*
X13395Y-28345D01*
X13395Y-28298D01*
X13414Y-28250D01*
X13433Y-28226D01*
X13471Y-28202D01*
X13567Y-28202D01*
X13624Y-28226D01*
X13776Y-28250D02*
X13795Y-28226D01*
X13833Y-28202D01*
X13929Y-28202D01*
X13967Y-28226D01*
X13986Y-28250D01*
X14005Y-28298D01*
X14005Y-28345D01*
X13986Y-28417D01*
X13757Y-28702D01*
X14005Y-28702D01*
X13243Y-29655D02*
X13224Y-29679D01*
X13167Y-29702D01*
X13129Y-29702D01*
X13071Y-29679D01*
X13033Y-29631D01*
X13014Y-29583D01*
X12995Y-29488D01*
X12995Y-29417D01*
X13014Y-29321D01*
X13033Y-29274D01*
X13071Y-29226D01*
X13129Y-29202D01*
X13167Y-29202D01*
X13224Y-29226D01*
X13243Y-29250D01*
X13395Y-29679D02*
X13452Y-29702D01*
X13548Y-29702D01*
X13586Y-29679D01*
X13605Y-29655D01*
X13624Y-29607D01*
X13624Y-29560D01*
X13605Y-29512D01*
X13586Y-29488D01*
X13548Y-29464D01*
X13471Y-29440D01*
X13433Y-29417D01*
X13414Y-29393D01*
X13395Y-29345D01*
X13395Y-29298D01*
X13414Y-29250D01*
X13433Y-29226D01*
X13471Y-29202D01*
X13567Y-29202D01*
X13624Y-29226D01*
X14005Y-29702D02*
X13776Y-29702D01*
X13890Y-29702D02*
X13890Y-29202D01*
X13852Y-29274D01*
X13814Y-29321D01*
X13776Y-29345D01*
X13243Y-30655D02*
X13224Y-30679D01*
X13167Y-30702D01*
X13129Y-30702D01*
X13071Y-30679D01*
X13033Y-30631D01*
X13014Y-30583D01*
X12995Y-30488D01*
X12995Y-30417D01*
X13014Y-30321D01*
X13033Y-30274D01*
X13071Y-30226D01*
X13129Y-30202D01*
X13167Y-30202D01*
X13224Y-30226D01*
X13243Y-30250D01*
X13395Y-30679D02*
X13452Y-30702D01*
X13548Y-30702D01*
X13586Y-30679D01*
X13605Y-30655D01*
X13624Y-30607D01*
X13624Y-30560D01*
X13605Y-30512D01*
X13586Y-30488D01*
X13548Y-30464D01*
X13471Y-30440D01*
X13433Y-30417D01*
X13414Y-30393D01*
X13395Y-30345D01*
X13395Y-30298D01*
X13414Y-30250D01*
X13433Y-30226D01*
X13471Y-30202D01*
X13567Y-30202D01*
X13624Y-30226D01*
X13871Y-30202D02*
X13910Y-30202D01*
X13948Y-30226D01*
X13967Y-30250D01*
X13986Y-30298D01*
X14005Y-30393D01*
X14005Y-30512D01*
X13986Y-30607D01*
X13967Y-30655D01*
X13948Y-30679D01*
X13910Y-30702D01*
X13871Y-30702D01*
X13833Y-30679D01*
X13814Y-30655D01*
X13795Y-30607D01*
X13776Y-30512D01*
X13776Y-30393D01*
X13795Y-30298D01*
X13814Y-30250D01*
X13833Y-30226D01*
X13871Y-30202D01*
X13243Y-23655D02*
X13224Y-23679D01*
X13167Y-23702D01*
X13129Y-23702D01*
X13071Y-23679D01*
X13033Y-23631D01*
X13014Y-23583D01*
X12995Y-23488D01*
X12995Y-23417D01*
X13014Y-23321D01*
X13033Y-23274D01*
X13071Y-23226D01*
X13129Y-23202D01*
X13167Y-23202D01*
X13224Y-23226D01*
X13243Y-23250D01*
X13395Y-23679D02*
X13452Y-23702D01*
X13548Y-23702D01*
X13586Y-23679D01*
X13605Y-23655D01*
X13624Y-23607D01*
X13624Y-23560D01*
X13605Y-23512D01*
X13586Y-23488D01*
X13548Y-23464D01*
X13471Y-23440D01*
X13433Y-23417D01*
X13414Y-23393D01*
X13395Y-23345D01*
X13395Y-23298D01*
X13414Y-23250D01*
X13433Y-23226D01*
X13471Y-23202D01*
X13567Y-23202D01*
X13624Y-23226D01*
X13757Y-23202D02*
X14005Y-23202D01*
X13871Y-23393D01*
X13929Y-23393D01*
X13967Y-23417D01*
X13986Y-23440D01*
X14005Y-23488D01*
X14005Y-23607D01*
X13986Y-23655D01*
X13967Y-23679D01*
X13929Y-23702D01*
X13814Y-23702D01*
X13776Y-23679D01*
X13757Y-23655D01*
X13243Y-24655D02*
X13224Y-24679D01*
X13167Y-24702D01*
X13129Y-24702D01*
X13071Y-24679D01*
X13033Y-24631D01*
X13014Y-24583D01*
X12995Y-24488D01*
X12995Y-24417D01*
X13014Y-24321D01*
X13033Y-24274D01*
X13071Y-24226D01*
X13129Y-24202D01*
X13167Y-24202D01*
X13224Y-24226D01*
X13243Y-24250D01*
X13395Y-24679D02*
X13452Y-24702D01*
X13548Y-24702D01*
X13586Y-24679D01*
X13605Y-24655D01*
X13624Y-24607D01*
X13624Y-24560D01*
X13605Y-24512D01*
X13586Y-24488D01*
X13548Y-24464D01*
X13471Y-24440D01*
X13433Y-24417D01*
X13414Y-24393D01*
X13395Y-24345D01*
X13395Y-24298D01*
X13414Y-24250D01*
X13433Y-24226D01*
X13471Y-24202D01*
X13567Y-24202D01*
X13624Y-24226D01*
X13776Y-24250D02*
X13795Y-24226D01*
X13833Y-24202D01*
X13929Y-24202D01*
X13967Y-24226D01*
X13986Y-24250D01*
X14005Y-24298D01*
X14005Y-24345D01*
X13986Y-24417D01*
X13757Y-24702D01*
X14005Y-24702D01*
X13243Y-25655D02*
X13224Y-25679D01*
X13167Y-25702D01*
X13129Y-25702D01*
X13071Y-25679D01*
X13033Y-25631D01*
X13014Y-25583D01*
X12995Y-25488D01*
X12995Y-25417D01*
X13014Y-25321D01*
X13033Y-25274D01*
X13071Y-25226D01*
X13129Y-25202D01*
X13167Y-25202D01*
X13224Y-25226D01*
X13243Y-25250D01*
X13395Y-25679D02*
X13452Y-25702D01*
X13548Y-25702D01*
X13586Y-25679D01*
X13605Y-25655D01*
X13624Y-25607D01*
X13624Y-25560D01*
X13605Y-25512D01*
X13586Y-25488D01*
X13548Y-25464D01*
X13471Y-25440D01*
X13433Y-25417D01*
X13414Y-25393D01*
X13395Y-25345D01*
X13395Y-25298D01*
X13414Y-25250D01*
X13433Y-25226D01*
X13471Y-25202D01*
X13567Y-25202D01*
X13624Y-25226D01*
X14005Y-25702D02*
X13776Y-25702D01*
X13890Y-25702D02*
X13890Y-25202D01*
X13852Y-25274D01*
X13814Y-25321D01*
X13776Y-25345D01*
X13243Y-26655D02*
X13224Y-26679D01*
X13167Y-26702D01*
X13129Y-26702D01*
X13071Y-26679D01*
X13033Y-26631D01*
X13014Y-26583D01*
X12995Y-26488D01*
X12995Y-26417D01*
X13014Y-26321D01*
X13033Y-26274D01*
X13071Y-26226D01*
X13129Y-26202D01*
X13167Y-26202D01*
X13224Y-26226D01*
X13243Y-26250D01*
X13395Y-26679D02*
X13452Y-26702D01*
X13548Y-26702D01*
X13586Y-26679D01*
X13605Y-26655D01*
X13624Y-26607D01*
X13624Y-26560D01*
X13605Y-26512D01*
X13586Y-26488D01*
X13548Y-26464D01*
X13471Y-26440D01*
X13433Y-26417D01*
X13414Y-26393D01*
X13395Y-26345D01*
X13395Y-26298D01*
X13414Y-26250D01*
X13433Y-26226D01*
X13471Y-26202D01*
X13567Y-26202D01*
X13624Y-26226D01*
X13871Y-26202D02*
X13910Y-26202D01*
X13948Y-26226D01*
X13967Y-26250D01*
X13986Y-26298D01*
X14005Y-26393D01*
X14005Y-26512D01*
X13986Y-26607D01*
X13967Y-26655D01*
X13948Y-26679D01*
X13910Y-26702D01*
X13871Y-26702D01*
X13833Y-26679D01*
X13814Y-26655D01*
X13795Y-26607D01*
X13776Y-26512D01*
X13776Y-26393D01*
X13795Y-26298D01*
X13814Y-26250D01*
X13833Y-26226D01*
X13871Y-26202D01*
X12986Y-19202D02*
X13081Y-19702D01*
X13158Y-19345D01*
X13234Y-19702D01*
X13329Y-19202D01*
X13424Y-19202D02*
X13653Y-19202D01*
X13538Y-19702D02*
X13538Y-19202D01*
X13996Y-19702D02*
X13767Y-19702D01*
X13881Y-19702D02*
X13881Y-19202D01*
X13843Y-19274D01*
X13805Y-19321D01*
X13767Y-19345D01*
X12986Y-20202D02*
X13081Y-20702D01*
X13158Y-20345D01*
X13234Y-20702D01*
X13329Y-20202D01*
X13424Y-20202D02*
X13653Y-20202D01*
X13538Y-20702D02*
X13538Y-20202D01*
X13862Y-20202D02*
X13901Y-20202D01*
X13939Y-20226D01*
X13958Y-20250D01*
X13977Y-20298D01*
X13996Y-20393D01*
X13996Y-20512D01*
X13977Y-20607D01*
X13958Y-20655D01*
X13939Y-20679D01*
X13901Y-20702D01*
X13862Y-20702D01*
X13824Y-20679D01*
X13805Y-20655D01*
X13786Y-20607D01*
X13767Y-20512D01*
X13767Y-20393D01*
X13786Y-20298D01*
X13805Y-20250D01*
X13824Y-20226D01*
X13862Y-20202D01*
X13243Y-21655D02*
X13224Y-21679D01*
X13167Y-21702D01*
X13129Y-21702D01*
X13071Y-21679D01*
X13033Y-21631D01*
X13014Y-21583D01*
X12995Y-21488D01*
X12995Y-21417D01*
X13014Y-21321D01*
X13033Y-21274D01*
X13071Y-21226D01*
X13129Y-21202D01*
X13167Y-21202D01*
X13224Y-21226D01*
X13243Y-21250D01*
X13395Y-21679D02*
X13452Y-21702D01*
X13548Y-21702D01*
X13586Y-21679D01*
X13605Y-21655D01*
X13624Y-21607D01*
X13624Y-21560D01*
X13605Y-21512D01*
X13586Y-21488D01*
X13548Y-21464D01*
X13471Y-21440D01*
X13433Y-21417D01*
X13414Y-21393D01*
X13395Y-21345D01*
X13395Y-21298D01*
X13414Y-21250D01*
X13433Y-21226D01*
X13471Y-21202D01*
X13567Y-21202D01*
X13624Y-21226D01*
X14005Y-21702D02*
X13776Y-21702D01*
X13890Y-21702D02*
X13890Y-21202D01*
X13852Y-21274D01*
X13814Y-21321D01*
X13776Y-21345D01*
X13243Y-22655D02*
X13224Y-22679D01*
X13167Y-22702D01*
X13129Y-22702D01*
X13071Y-22679D01*
X13033Y-22631D01*
X13014Y-22583D01*
X12995Y-22488D01*
X12995Y-22417D01*
X13014Y-22321D01*
X13033Y-22274D01*
X13071Y-22226D01*
X13129Y-22202D01*
X13167Y-22202D01*
X13224Y-22226D01*
X13243Y-22250D01*
X13395Y-22679D02*
X13452Y-22702D01*
X13548Y-22702D01*
X13586Y-22679D01*
X13605Y-22655D01*
X13624Y-22607D01*
X13624Y-22560D01*
X13605Y-22512D01*
X13586Y-22488D01*
X13548Y-22464D01*
X13471Y-22440D01*
X13433Y-22417D01*
X13414Y-22393D01*
X13395Y-22345D01*
X13395Y-22298D01*
X13414Y-22250D01*
X13433Y-22226D01*
X13471Y-22202D01*
X13567Y-22202D01*
X13624Y-22226D01*
X13871Y-22202D02*
X13910Y-22202D01*
X13948Y-22226D01*
X13967Y-22250D01*
X13986Y-22298D01*
X14005Y-22393D01*
X14005Y-22512D01*
X13986Y-22607D01*
X13967Y-22655D01*
X13948Y-22679D01*
X13910Y-22702D01*
X13871Y-22702D01*
X13833Y-22679D01*
X13814Y-22655D01*
X13795Y-22607D01*
X13776Y-22512D01*
X13776Y-22393D01*
X13795Y-22298D01*
X13814Y-22250D01*
X13833Y-22226D01*
X13871Y-22202D01*
G54D11*
X12750Y-30000D02*
X14250Y-30000D01*
X12750Y-29000D02*
X14250Y-29000D01*
X12750Y-28000D02*
X14250Y-28000D01*
X14250Y-31000D02*
X14250Y-27000D01*
X12750Y-31000D02*
X14250Y-31000D01*
X12750Y-27000D02*
X12750Y-31000D01*
X12750Y-26000D02*
X14250Y-26000D01*
X12750Y-25000D02*
X14250Y-25000D01*
X12750Y-24000D02*
X14250Y-24000D01*
X14250Y-27000D02*
X14250Y-23000D01*
X12750Y-27000D02*
X14250Y-27000D01*
X12750Y-23000D02*
X12750Y-27000D01*
X12750Y-22000D02*
X14250Y-22000D01*
X12750Y-21000D02*
X14250Y-21000D01*
X12750Y-20000D02*
X14250Y-20000D01*
X12750Y-23000D02*
X12750Y-19000D01*
X14250Y-23000D02*
X12750Y-23000D01*
X14250Y-19000D02*
X14250Y-23000D01*
X12750Y-19000D02*
X14250Y-19000D01*
X14250Y-14000D02*
X12750Y-14000D01*
X12750Y-15000D02*
X12750Y-13000D01*
X14250Y-15000D02*
X12750Y-15000D01*
X14250Y-13000D02*
X14250Y-15000D01*
X12750Y-13000D02*
X14250Y-13000D01*
G54D12*
X13024Y-14679D02*
X13081Y-14702D01*
X13177Y-14702D01*
X13215Y-14679D01*
X13234Y-14655D01*
X13253Y-14607D01*
X13253Y-14560D01*
X13234Y-14512D01*
X13215Y-14488D01*
X13177Y-14464D01*
X13100Y-14440D01*
X13062Y-14417D01*
X13043Y-14393D01*
X13024Y-14345D01*
X13024Y-14298D01*
X13043Y-14250D01*
X13062Y-14226D01*
X13100Y-14202D01*
X13196Y-14202D01*
X13253Y-14226D01*
X13653Y-14655D02*
X13634Y-14679D01*
X13577Y-14702D01*
X13539Y-14702D01*
X13481Y-14679D01*
X13443Y-14631D01*
X13424Y-14583D01*
X13405Y-14488D01*
X13405Y-14417D01*
X13424Y-14321D01*
X13443Y-14274D01*
X13481Y-14226D01*
X13539Y-14202D01*
X13577Y-14202D01*
X13634Y-14226D01*
X13653Y-14250D01*
X14015Y-14702D02*
X13824Y-14702D01*
X13824Y-14202D01*
X13014Y-13679D02*
X13071Y-13702D01*
X13167Y-13702D01*
X13205Y-13679D01*
X13224Y-13655D01*
X13243Y-13607D01*
X13243Y-13560D01*
X13224Y-13512D01*
X13205Y-13488D01*
X13167Y-13464D01*
X13090Y-13440D01*
X13052Y-13417D01*
X13033Y-13393D01*
X13014Y-13345D01*
X13014Y-13298D01*
X13033Y-13250D01*
X13052Y-13226D01*
X13090Y-13202D01*
X13186Y-13202D01*
X13243Y-13226D01*
X13414Y-13702D02*
X13414Y-13202D01*
X13509Y-13202D01*
X13567Y-13226D01*
X13605Y-13274D01*
X13624Y-13321D01*
X13643Y-13417D01*
X13643Y-13488D01*
X13624Y-13583D01*
X13605Y-13631D01*
X13567Y-13679D01*
X13509Y-13702D01*
X13414Y-13702D01*
X13795Y-13560D02*
X13986Y-13560D01*
X13757Y-13702D02*
X13890Y-13202D01*
X14024Y-13702D01*
X12967Y-17202D02*
X13100Y-17702D01*
X13234Y-17202D01*
X13596Y-17655D02*
X13577Y-17679D01*
X13520Y-17702D01*
X13482Y-17702D01*
X13424Y-17679D01*
X13386Y-17631D01*
X13367Y-17583D01*
X13348Y-17488D01*
X13348Y-17417D01*
X13367Y-17321D01*
X13386Y-17274D01*
X13424Y-17226D01*
X13482Y-17202D01*
X13520Y-17202D01*
X13577Y-17226D01*
X13596Y-17250D01*
X13996Y-17655D02*
X13977Y-17679D01*
X13920Y-17702D01*
X13882Y-17702D01*
X13824Y-17679D01*
X13786Y-17631D01*
X13767Y-17583D01*
X13748Y-17488D01*
X13748Y-17417D01*
X13767Y-17321D01*
X13786Y-17274D01*
X13824Y-17226D01*
X13882Y-17202D01*
X13920Y-17202D01*
X13977Y-17226D01*
X13996Y-17250D01*
X13196Y-15226D02*
X13158Y-15202D01*
X13101Y-15202D01*
X13043Y-15226D01*
X13005Y-15274D01*
X12986Y-15321D01*
X12967Y-15417D01*
X12967Y-15488D01*
X12986Y-15583D01*
X13005Y-15631D01*
X13043Y-15679D01*
X13101Y-15702D01*
X13139Y-15702D01*
X13196Y-15679D01*
X13215Y-15655D01*
X13215Y-15488D01*
X13139Y-15488D01*
X13386Y-15702D02*
X13386Y-15202D01*
X13615Y-15702D01*
X13615Y-15202D01*
X13805Y-15702D02*
X13805Y-15202D01*
X13900Y-15202D01*
X13958Y-15226D01*
X13996Y-15274D01*
X14015Y-15321D01*
X14034Y-15417D01*
X14034Y-15488D01*
X14015Y-15583D01*
X13996Y-15631D01*
X13958Y-15679D01*
X13900Y-15702D01*
X13805Y-15702D01*
X13690Y-16214D02*
X13690Y-16405D01*
X13548Y-16176D02*
X14048Y-16309D01*
X13548Y-16443D01*
X14048Y-16652D02*
X14048Y-16691D01*
X14024Y-16729D01*
X14000Y-16748D01*
X13952Y-16767D01*
X13857Y-16786D01*
X13738Y-16786D01*
X13643Y-16767D01*
X13595Y-16748D01*
X13571Y-16729D01*
X13548Y-16691D01*
X13548Y-16652D01*
X13571Y-16614D01*
X13595Y-16595D01*
X13643Y-16576D01*
X13738Y-16557D01*
X13857Y-16557D01*
X13952Y-16576D01*
X14000Y-16595D01*
X14024Y-16614D01*
X14048Y-16652D01*
X12940Y-16214D02*
X12940Y-16405D01*
X12798Y-16176D02*
X13298Y-16309D01*
X12798Y-16443D01*
X12798Y-16786D02*
X12798Y-16557D01*
X12798Y-16671D02*
X13298Y-16671D01*
X13226Y-16633D01*
X13179Y-16595D01*
X13155Y-16557D01*
X14667Y-16880D02*
X14667Y-16713D01*
X15033Y-16642D02*
X15033Y-16880D01*
X14333Y-16880D01*
X14333Y-16642D01*
X14667Y-16428D02*
X14667Y-16261D01*
X15033Y-16190D02*
X15033Y-16428D01*
X14333Y-16428D01*
X14333Y-16190D01*
X15033Y-15976D02*
X14333Y-15976D01*
X14333Y-15785D01*
X14367Y-15738D01*
X14400Y-15714D01*
X14467Y-15690D01*
X14567Y-15690D01*
X14633Y-15714D01*
X14667Y-15738D01*
X14700Y-15785D01*
X14700Y-15976D01*
X15033Y-15190D02*
X14700Y-15357D01*
X15033Y-15476D02*
X14333Y-15476D01*
X14333Y-15285D01*
X14367Y-15238D01*
X14400Y-15214D01*
X14467Y-15190D01*
X14567Y-15190D01*
X14633Y-15214D01*
X14667Y-15238D01*
X14700Y-15285D01*
X14700Y-15476D01*
X14333Y-14881D02*
X14333Y-14785D01*
X14367Y-14738D01*
X14433Y-14690D01*
X14567Y-14666D01*
X14800Y-14666D01*
X14933Y-14690D01*
X15000Y-14738D01*
X15033Y-14785D01*
X15033Y-14881D01*
X15000Y-14928D01*
X14933Y-14976D01*
X14800Y-15000D01*
X14567Y-15000D01*
X14433Y-14976D01*
X14367Y-14928D01*
X14333Y-14881D01*
X15033Y-14452D02*
X14333Y-14452D01*
X14833Y-14285D01*
X14333Y-14119D01*
X15033Y-14119D01*
G54D11*
X33000Y-36000D02*
X33000Y-37500D01*
X34000Y-34500D02*
X34000Y-36000D01*
X39000Y-36000D02*
X39000Y-37500D01*
X39000Y-34500D02*
X39000Y-36000D01*
G54D12*
X39155Y-37007D02*
X39179Y-37026D01*
X39202Y-37083D01*
X39202Y-37121D01*
X39179Y-37179D01*
X39131Y-37217D01*
X39083Y-37236D01*
X38988Y-37255D01*
X38917Y-37255D01*
X38821Y-37236D01*
X38774Y-37217D01*
X38726Y-37179D01*
X38702Y-37121D01*
X38702Y-37083D01*
X38726Y-37026D01*
X38750Y-37007D01*
X39179Y-36855D02*
X39202Y-36798D01*
X39202Y-36702D01*
X39179Y-36664D01*
X39155Y-36645D01*
X39107Y-36626D01*
X39060Y-36626D01*
X39012Y-36645D01*
X38988Y-36664D01*
X38964Y-36702D01*
X38940Y-36779D01*
X38917Y-36817D01*
X38893Y-36836D01*
X38845Y-36855D01*
X38798Y-36855D01*
X38750Y-36836D01*
X38726Y-36817D01*
X38702Y-36779D01*
X38702Y-36683D01*
X38726Y-36626D01*
X38869Y-36283D02*
X39202Y-36283D01*
X38679Y-36379D02*
X39036Y-36474D01*
X39036Y-36226D01*
X39155Y-35507D02*
X39179Y-35526D01*
X39202Y-35583D01*
X39202Y-35621D01*
X39179Y-35679D01*
X39131Y-35717D01*
X39083Y-35736D01*
X38988Y-35755D01*
X38917Y-35755D01*
X38821Y-35736D01*
X38774Y-35717D01*
X38726Y-35679D01*
X38702Y-35621D01*
X38702Y-35583D01*
X38726Y-35526D01*
X38750Y-35507D01*
X39179Y-35355D02*
X39202Y-35298D01*
X39202Y-35202D01*
X39179Y-35164D01*
X39155Y-35145D01*
X39107Y-35126D01*
X39060Y-35126D01*
X39012Y-35145D01*
X38988Y-35164D01*
X38964Y-35202D01*
X38940Y-35279D01*
X38917Y-35317D01*
X38893Y-35336D01*
X38845Y-35355D01*
X38798Y-35355D01*
X38750Y-35336D01*
X38726Y-35317D01*
X38702Y-35279D01*
X38702Y-35183D01*
X38726Y-35126D01*
X38702Y-34764D02*
X38702Y-34955D01*
X38940Y-34974D01*
X38917Y-34955D01*
X38893Y-34917D01*
X38893Y-34821D01*
X38917Y-34783D01*
X38940Y-34764D01*
X38988Y-34745D01*
X39107Y-34745D01*
X39155Y-34764D01*
X39179Y-34783D01*
X39202Y-34821D01*
X39202Y-34917D01*
X39179Y-34955D01*
X39155Y-34974D01*
X36202Y-37274D02*
X35702Y-37274D01*
X36202Y-37045D01*
X35702Y-37045D01*
X35702Y-36855D02*
X36107Y-36855D01*
X36155Y-36836D01*
X36179Y-36817D01*
X36202Y-36779D01*
X36202Y-36702D01*
X36179Y-36664D01*
X36155Y-36645D01*
X36107Y-36626D01*
X35702Y-36626D01*
X35940Y-36302D02*
X35964Y-36245D01*
X35988Y-36226D01*
X36036Y-36207D01*
X36107Y-36207D01*
X36155Y-36226D01*
X36179Y-36245D01*
X36202Y-36283D01*
X36202Y-36436D01*
X35702Y-36436D01*
X35702Y-36302D01*
X35726Y-36264D01*
X35750Y-36245D01*
X35798Y-36226D01*
X35845Y-36226D01*
X35893Y-36245D01*
X35917Y-36264D01*
X35940Y-36302D01*
X35940Y-36436D01*
X35202Y-35726D02*
X34702Y-35726D01*
X35202Y-35497D01*
X34702Y-35497D01*
X35202Y-35116D02*
X35202Y-35307D01*
X34702Y-35307D01*
X34940Y-34849D02*
X34964Y-34792D01*
X34988Y-34773D01*
X35036Y-34754D01*
X35107Y-34754D01*
X35155Y-34773D01*
X35179Y-34792D01*
X35202Y-34830D01*
X35202Y-34983D01*
X34702Y-34983D01*
X34702Y-34849D01*
X34726Y-34811D01*
X34750Y-34792D01*
X34798Y-34773D01*
X34845Y-34773D01*
X34893Y-34792D01*
X34917Y-34811D01*
X34940Y-34849D01*
X34940Y-34983D01*
X42702Y-37283D02*
X43202Y-37150D01*
X42702Y-37016D01*
X43155Y-36654D02*
X43179Y-36673D01*
X43202Y-36730D01*
X43202Y-36768D01*
X43179Y-36826D01*
X43131Y-36864D01*
X43083Y-36883D01*
X42988Y-36902D01*
X42917Y-36902D01*
X42821Y-36883D01*
X42774Y-36864D01*
X42726Y-36826D01*
X42702Y-36768D01*
X42702Y-36730D01*
X42726Y-36673D01*
X42750Y-36654D01*
X43155Y-36254D02*
X43179Y-36273D01*
X43202Y-36330D01*
X43202Y-36368D01*
X43179Y-36426D01*
X43131Y-36464D01*
X43083Y-36483D01*
X42988Y-36502D01*
X42917Y-36502D01*
X42821Y-36483D01*
X42774Y-36464D01*
X42726Y-36426D01*
X42702Y-36368D01*
X42702Y-36330D01*
X42726Y-36273D01*
X42750Y-36254D01*
X42726Y-35554D02*
X42702Y-35592D01*
X42702Y-35649D01*
X42726Y-35707D01*
X42774Y-35745D01*
X42821Y-35764D01*
X42917Y-35783D01*
X42988Y-35783D01*
X43083Y-35764D01*
X43131Y-35745D01*
X43179Y-35707D01*
X43202Y-35649D01*
X43202Y-35611D01*
X43179Y-35554D01*
X43155Y-35535D01*
X42988Y-35535D01*
X42988Y-35611D01*
X43202Y-35364D02*
X42702Y-35364D01*
X43202Y-35135D01*
X42702Y-35135D01*
X43202Y-34945D02*
X42702Y-34945D01*
X42702Y-34850D01*
X42726Y-34792D01*
X42774Y-34754D01*
X42821Y-34735D01*
X42917Y-34716D01*
X42988Y-34716D01*
X43083Y-34735D01*
X43131Y-34754D01*
X43179Y-34792D01*
X43202Y-34850D01*
X43202Y-34945D01*
X39702Y-35764D02*
X40202Y-35669D01*
X39845Y-35592D01*
X40202Y-35516D01*
X39702Y-35421D01*
X39702Y-35326D02*
X39702Y-35097D01*
X40202Y-35212D02*
X39702Y-35212D01*
X40202Y-34754D02*
X40202Y-34983D01*
X40202Y-34869D02*
X39702Y-34869D01*
X39774Y-34907D01*
X39821Y-34945D01*
X39845Y-34983D01*
X39702Y-37264D02*
X40202Y-37169D01*
X39845Y-37092D01*
X40202Y-37016D01*
X39702Y-36921D01*
X39702Y-36826D02*
X39702Y-36597D01*
X40202Y-36712D02*
X39702Y-36712D01*
X39702Y-36388D02*
X39702Y-36349D01*
X39726Y-36311D01*
X39750Y-36292D01*
X39798Y-36273D01*
X39893Y-36254D01*
X40012Y-36254D01*
X40107Y-36273D01*
X40155Y-36292D01*
X40179Y-36311D01*
X40202Y-36349D01*
X40202Y-36388D01*
X40179Y-36426D01*
X40155Y-36445D01*
X40107Y-36464D01*
X40012Y-36483D01*
X39893Y-36483D01*
X39798Y-36464D01*
X39750Y-36445D01*
X39726Y-36426D01*
X39702Y-36388D01*
X38155Y-35507D02*
X38179Y-35526D01*
X38202Y-35583D01*
X38202Y-35621D01*
X38179Y-35679D01*
X38131Y-35717D01*
X38083Y-35736D01*
X37988Y-35755D01*
X37917Y-35755D01*
X37821Y-35736D01*
X37774Y-35717D01*
X37726Y-35679D01*
X37702Y-35621D01*
X37702Y-35583D01*
X37726Y-35526D01*
X37750Y-35507D01*
X38179Y-35355D02*
X38202Y-35298D01*
X38202Y-35202D01*
X38179Y-35164D01*
X38155Y-35145D01*
X38107Y-35126D01*
X38060Y-35126D01*
X38012Y-35145D01*
X37988Y-35164D01*
X37964Y-35202D01*
X37940Y-35279D01*
X37917Y-35317D01*
X37893Y-35336D01*
X37845Y-35355D01*
X37798Y-35355D01*
X37750Y-35336D01*
X37726Y-35317D01*
X37702Y-35279D01*
X37702Y-35183D01*
X37726Y-35126D01*
X37702Y-34993D02*
X37702Y-34745D01*
X37893Y-34879D01*
X37893Y-34821D01*
X37917Y-34783D01*
X37940Y-34764D01*
X37988Y-34745D01*
X38107Y-34745D01*
X38155Y-34764D01*
X38179Y-34783D01*
X38202Y-34821D01*
X38202Y-34936D01*
X38179Y-34974D01*
X38155Y-34993D01*
X38155Y-37007D02*
X38179Y-37026D01*
X38202Y-37083D01*
X38202Y-37121D01*
X38179Y-37179D01*
X38131Y-37217D01*
X38083Y-37236D01*
X37988Y-37255D01*
X37917Y-37255D01*
X37821Y-37236D01*
X37774Y-37217D01*
X37726Y-37179D01*
X37702Y-37121D01*
X37702Y-37083D01*
X37726Y-37026D01*
X37750Y-37007D01*
X38179Y-36855D02*
X38202Y-36798D01*
X38202Y-36702D01*
X38179Y-36664D01*
X38155Y-36645D01*
X38107Y-36626D01*
X38060Y-36626D01*
X38012Y-36645D01*
X37988Y-36664D01*
X37964Y-36702D01*
X37940Y-36779D01*
X37917Y-36817D01*
X37893Y-36836D01*
X37845Y-36855D01*
X37798Y-36855D01*
X37750Y-36836D01*
X37726Y-36817D01*
X37702Y-36779D01*
X37702Y-36683D01*
X37726Y-36626D01*
X37750Y-36474D02*
X37726Y-36455D01*
X37702Y-36417D01*
X37702Y-36321D01*
X37726Y-36283D01*
X37750Y-36264D01*
X37798Y-36245D01*
X37845Y-36245D01*
X37917Y-36264D01*
X38202Y-36493D01*
X38202Y-36245D01*
X37155Y-37007D02*
X37179Y-37026D01*
X37202Y-37083D01*
X37202Y-37121D01*
X37179Y-37179D01*
X37131Y-37217D01*
X37083Y-37236D01*
X36988Y-37255D01*
X36917Y-37255D01*
X36821Y-37236D01*
X36774Y-37217D01*
X36726Y-37179D01*
X36702Y-37121D01*
X36702Y-37083D01*
X36726Y-37026D01*
X36750Y-37007D01*
X37179Y-36855D02*
X37202Y-36798D01*
X37202Y-36702D01*
X37179Y-36664D01*
X37155Y-36645D01*
X37107Y-36626D01*
X37060Y-36626D01*
X37012Y-36645D01*
X36988Y-36664D01*
X36964Y-36702D01*
X36940Y-36779D01*
X36917Y-36817D01*
X36893Y-36836D01*
X36845Y-36855D01*
X36798Y-36855D01*
X36750Y-36836D01*
X36726Y-36817D01*
X36702Y-36779D01*
X36702Y-36683D01*
X36726Y-36626D01*
X36702Y-36379D02*
X36702Y-36340D01*
X36726Y-36302D01*
X36750Y-36283D01*
X36798Y-36264D01*
X36893Y-36245D01*
X37012Y-36245D01*
X37107Y-36264D01*
X37155Y-36283D01*
X37179Y-36302D01*
X37202Y-36340D01*
X37202Y-36379D01*
X37179Y-36417D01*
X37155Y-36436D01*
X37107Y-36455D01*
X37012Y-36474D01*
X36893Y-36474D01*
X36798Y-36455D01*
X36750Y-36436D01*
X36726Y-36417D01*
X36702Y-36379D01*
X37155Y-35507D02*
X37179Y-35526D01*
X37202Y-35583D01*
X37202Y-35621D01*
X37179Y-35679D01*
X37131Y-35717D01*
X37083Y-35736D01*
X36988Y-35755D01*
X36917Y-35755D01*
X36821Y-35736D01*
X36774Y-35717D01*
X36726Y-35679D01*
X36702Y-35621D01*
X36702Y-35583D01*
X36726Y-35526D01*
X36750Y-35507D01*
X37179Y-35355D02*
X37202Y-35298D01*
X37202Y-35202D01*
X37179Y-35164D01*
X37155Y-35145D01*
X37107Y-35126D01*
X37060Y-35126D01*
X37012Y-35145D01*
X36988Y-35164D01*
X36964Y-35202D01*
X36940Y-35279D01*
X36917Y-35317D01*
X36893Y-35336D01*
X36845Y-35355D01*
X36798Y-35355D01*
X36750Y-35336D01*
X36726Y-35317D01*
X36702Y-35279D01*
X36702Y-35183D01*
X36726Y-35126D01*
X37202Y-34745D02*
X37202Y-34974D01*
X37202Y-34860D02*
X36702Y-34860D01*
X36774Y-34898D01*
X36821Y-34936D01*
X36845Y-34974D01*
X34702Y-37245D02*
X35202Y-37150D01*
X34845Y-37073D01*
X35202Y-36997D01*
X34702Y-36902D01*
X35060Y-36769D02*
X35060Y-36578D01*
X35202Y-36807D02*
X34702Y-36674D01*
X35202Y-36540D01*
X34702Y-36464D02*
X34702Y-36235D01*
X35202Y-36350D02*
X34702Y-36350D01*
X34060Y-35717D02*
X34060Y-35526D01*
X34202Y-35755D02*
X33702Y-35622D01*
X34202Y-35488D01*
X34202Y-35355D02*
X33702Y-35355D01*
X33702Y-35260D01*
X33726Y-35202D01*
X33774Y-35164D01*
X33821Y-35145D01*
X33917Y-35126D01*
X33988Y-35126D01*
X34083Y-35145D01*
X34131Y-35164D01*
X34179Y-35202D01*
X34202Y-35260D01*
X34202Y-35355D01*
X33702Y-35012D02*
X34202Y-34879D01*
X33702Y-34745D01*
X34202Y-37255D02*
X33702Y-37255D01*
X34202Y-37026D01*
X33702Y-37026D01*
X33702Y-36760D02*
X33702Y-36683D01*
X33726Y-36645D01*
X33774Y-36607D01*
X33869Y-36588D01*
X34036Y-36588D01*
X34131Y-36607D01*
X34179Y-36645D01*
X34202Y-36683D01*
X34202Y-36760D01*
X34179Y-36798D01*
X34131Y-36836D01*
X34036Y-36855D01*
X33869Y-36855D01*
X33774Y-36836D01*
X33726Y-36798D01*
X33702Y-36760D01*
X33940Y-36417D02*
X33940Y-36283D01*
X34202Y-36226D02*
X34202Y-36417D01*
X33702Y-36417D01*
X33702Y-36226D01*
X33202Y-35774D02*
X32702Y-35774D01*
X33202Y-35545D01*
X32702Y-35545D01*
X32702Y-35393D02*
X33202Y-35298D01*
X32845Y-35221D01*
X33202Y-35145D01*
X32702Y-35050D01*
X32940Y-34898D02*
X32940Y-34764D01*
X33202Y-34707D02*
X33202Y-34898D01*
X32702Y-34898D01*
X32702Y-34707D01*
X33155Y-36988D02*
X33179Y-37007D01*
X33202Y-37064D01*
X33202Y-37102D01*
X33179Y-37160D01*
X33131Y-37198D01*
X33083Y-37217D01*
X32988Y-37236D01*
X32917Y-37236D01*
X32821Y-37217D01*
X32774Y-37198D01*
X32726Y-37160D01*
X32702Y-37102D01*
X32702Y-37064D01*
X32726Y-37007D01*
X32750Y-36988D01*
X33202Y-36626D02*
X33202Y-36817D01*
X32702Y-36817D01*
X33202Y-36493D02*
X32702Y-36493D01*
X33202Y-36264D02*
X32917Y-36436D01*
X32702Y-36264D02*
X32988Y-36493D01*
X32202Y-35736D02*
X31702Y-35736D01*
X31702Y-35641D01*
X31726Y-35583D01*
X31774Y-35545D01*
X31821Y-35526D01*
X31917Y-35507D01*
X31988Y-35507D01*
X32083Y-35526D01*
X32131Y-35545D01*
X32179Y-35583D01*
X32202Y-35641D01*
X32202Y-35736D01*
X32202Y-35126D02*
X32202Y-35355D01*
X32202Y-35241D02*
X31702Y-35241D01*
X31774Y-35279D01*
X31821Y-35317D01*
X31845Y-35355D01*
X31702Y-34764D02*
X31702Y-34955D01*
X31940Y-34974D01*
X31917Y-34955D01*
X31893Y-34917D01*
X31893Y-34821D01*
X31917Y-34783D01*
X31940Y-34764D01*
X31988Y-34745D01*
X32107Y-34745D01*
X32155Y-34764D01*
X32179Y-34783D01*
X32202Y-34821D01*
X32202Y-34917D01*
X32179Y-34955D01*
X32155Y-34974D01*
X32202Y-37236D02*
X31702Y-37236D01*
X31702Y-37141D01*
X31726Y-37083D01*
X31774Y-37045D01*
X31821Y-37026D01*
X31917Y-37007D01*
X31988Y-37007D01*
X32083Y-37026D01*
X32131Y-37045D01*
X32179Y-37083D01*
X32202Y-37141D01*
X32202Y-37236D01*
X32202Y-36626D02*
X32202Y-36855D01*
X32202Y-36741D02*
X31702Y-36741D01*
X31774Y-36779D01*
X31821Y-36817D01*
X31845Y-36855D01*
X31869Y-36283D02*
X32202Y-36283D01*
X31679Y-36379D02*
X32036Y-36474D01*
X32036Y-36226D01*
X31202Y-35736D02*
X30702Y-35736D01*
X30702Y-35641D01*
X30726Y-35583D01*
X30774Y-35545D01*
X30821Y-35526D01*
X30917Y-35507D01*
X30988Y-35507D01*
X31083Y-35526D01*
X31131Y-35545D01*
X31179Y-35583D01*
X31202Y-35641D01*
X31202Y-35736D01*
X31202Y-35126D02*
X31202Y-35355D01*
X31202Y-35241D02*
X30702Y-35241D01*
X30774Y-35279D01*
X30821Y-35317D01*
X30845Y-35355D01*
X30702Y-34993D02*
X30702Y-34745D01*
X30893Y-34879D01*
X30893Y-34821D01*
X30917Y-34783D01*
X30940Y-34764D01*
X30988Y-34745D01*
X31107Y-34745D01*
X31155Y-34764D01*
X31179Y-34783D01*
X31202Y-34821D01*
X31202Y-34936D01*
X31179Y-34974D01*
X31155Y-34993D01*
X31202Y-37236D02*
X30702Y-37236D01*
X30702Y-37141D01*
X30726Y-37083D01*
X30774Y-37045D01*
X30821Y-37026D01*
X30917Y-37007D01*
X30988Y-37007D01*
X31083Y-37026D01*
X31131Y-37045D01*
X31179Y-37083D01*
X31202Y-37141D01*
X31202Y-37236D01*
X31202Y-36626D02*
X31202Y-36855D01*
X31202Y-36741D02*
X30702Y-36741D01*
X30774Y-36779D01*
X30821Y-36817D01*
X30845Y-36855D01*
X30750Y-36474D02*
X30726Y-36455D01*
X30702Y-36417D01*
X30702Y-36321D01*
X30726Y-36283D01*
X30750Y-36264D01*
X30798Y-36245D01*
X30845Y-36245D01*
X30917Y-36264D01*
X31202Y-36493D01*
X31202Y-36245D01*
X30202Y-35736D02*
X29702Y-35736D01*
X29702Y-35641D01*
X29726Y-35583D01*
X29774Y-35545D01*
X29821Y-35526D01*
X29917Y-35507D01*
X29988Y-35507D01*
X30083Y-35526D01*
X30131Y-35545D01*
X30179Y-35583D01*
X30202Y-35641D01*
X30202Y-35736D01*
X30202Y-35126D02*
X30202Y-35355D01*
X30202Y-35241D02*
X29702Y-35241D01*
X29774Y-35279D01*
X29821Y-35317D01*
X29845Y-35355D01*
X30202Y-34745D02*
X30202Y-34974D01*
X30202Y-34860D02*
X29702Y-34860D01*
X29774Y-34898D01*
X29821Y-34936D01*
X29845Y-34974D01*
X30202Y-37236D02*
X29702Y-37236D01*
X29702Y-37141D01*
X29726Y-37083D01*
X29774Y-37045D01*
X29821Y-37026D01*
X29917Y-37007D01*
X29988Y-37007D01*
X30083Y-37026D01*
X30131Y-37045D01*
X30179Y-37083D01*
X30202Y-37141D01*
X30202Y-37236D01*
X30202Y-36626D02*
X30202Y-36855D01*
X30202Y-36741D02*
X29702Y-36741D01*
X29774Y-36779D01*
X29821Y-36817D01*
X29845Y-36855D01*
X29702Y-36379D02*
X29702Y-36340D01*
X29726Y-36302D01*
X29750Y-36283D01*
X29798Y-36264D01*
X29893Y-36245D01*
X30012Y-36245D01*
X30107Y-36264D01*
X30155Y-36283D01*
X30179Y-36302D01*
X30202Y-36340D01*
X30202Y-36379D01*
X30179Y-36417D01*
X30155Y-36436D01*
X30107Y-36455D01*
X30012Y-36474D01*
X29893Y-36474D01*
X29798Y-36455D01*
X29750Y-36436D01*
X29726Y-36417D01*
X29702Y-36379D01*
X29202Y-35545D02*
X28702Y-35545D01*
X28702Y-35450D01*
X28726Y-35392D01*
X28774Y-35354D01*
X28821Y-35335D01*
X28917Y-35316D01*
X28988Y-35316D01*
X29083Y-35335D01*
X29131Y-35354D01*
X29179Y-35392D01*
X29202Y-35450D01*
X29202Y-35545D01*
X29202Y-35126D02*
X29202Y-35050D01*
X29179Y-35011D01*
X29155Y-34992D01*
X29083Y-34954D01*
X28988Y-34935D01*
X28798Y-34935D01*
X28750Y-34954D01*
X28726Y-34973D01*
X28702Y-35011D01*
X28702Y-35088D01*
X28726Y-35126D01*
X28750Y-35145D01*
X28798Y-35164D01*
X28917Y-35164D01*
X28964Y-35145D01*
X28988Y-35126D01*
X29012Y-35088D01*
X29012Y-35011D01*
X28988Y-34973D01*
X28964Y-34954D01*
X28917Y-34935D01*
X29202Y-37045D02*
X28702Y-37045D01*
X28702Y-36950D01*
X28726Y-36892D01*
X28774Y-36854D01*
X28821Y-36835D01*
X28917Y-36816D01*
X28988Y-36816D01*
X29083Y-36835D01*
X29131Y-36854D01*
X29179Y-36892D01*
X29202Y-36950D01*
X29202Y-37045D01*
X28917Y-36588D02*
X28893Y-36626D01*
X28869Y-36645D01*
X28821Y-36664D01*
X28798Y-36664D01*
X28750Y-36645D01*
X28726Y-36626D01*
X28702Y-36588D01*
X28702Y-36511D01*
X28726Y-36473D01*
X28750Y-36454D01*
X28798Y-36435D01*
X28821Y-36435D01*
X28869Y-36454D01*
X28893Y-36473D01*
X28917Y-36511D01*
X28917Y-36588D01*
X28940Y-36626D01*
X28964Y-36645D01*
X29012Y-36664D01*
X29107Y-36664D01*
X29155Y-36645D01*
X29179Y-36626D01*
X29202Y-36588D01*
X29202Y-36511D01*
X29179Y-36473D01*
X29155Y-36454D01*
X29107Y-36435D01*
X29012Y-36435D01*
X28964Y-36454D01*
X28940Y-36473D01*
X28917Y-36511D01*
X28202Y-35545D02*
X27702Y-35545D01*
X27702Y-35450D01*
X27726Y-35392D01*
X27774Y-35354D01*
X27821Y-35335D01*
X27917Y-35316D01*
X27988Y-35316D01*
X28083Y-35335D01*
X28131Y-35354D01*
X28179Y-35392D01*
X28202Y-35450D01*
X28202Y-35545D01*
X27702Y-35183D02*
X27702Y-34916D01*
X28202Y-35088D01*
X28202Y-37045D02*
X27702Y-37045D01*
X27702Y-36950D01*
X27726Y-36892D01*
X27774Y-36854D01*
X27821Y-36835D01*
X27917Y-36816D01*
X27988Y-36816D01*
X28083Y-36835D01*
X28131Y-36854D01*
X28179Y-36892D01*
X28202Y-36950D01*
X28202Y-37045D01*
X27702Y-36473D02*
X27702Y-36550D01*
X27726Y-36588D01*
X27750Y-36607D01*
X27821Y-36645D01*
X27917Y-36664D01*
X28107Y-36664D01*
X28155Y-36645D01*
X28179Y-36626D01*
X28202Y-36588D01*
X28202Y-36511D01*
X28179Y-36473D01*
X28155Y-36454D01*
X28107Y-36435D01*
X27988Y-36435D01*
X27940Y-36454D01*
X27917Y-36473D01*
X27893Y-36511D01*
X27893Y-36588D01*
X27917Y-36626D01*
X27940Y-36645D01*
X27988Y-36664D01*
X27202Y-35545D02*
X26702Y-35545D01*
X26702Y-35450D01*
X26726Y-35392D01*
X26774Y-35354D01*
X26821Y-35335D01*
X26917Y-35316D01*
X26988Y-35316D01*
X27083Y-35335D01*
X27131Y-35354D01*
X27179Y-35392D01*
X27202Y-35450D01*
X27202Y-35545D01*
X26702Y-34954D02*
X26702Y-35145D01*
X26940Y-35164D01*
X26917Y-35145D01*
X26893Y-35107D01*
X26893Y-35011D01*
X26917Y-34973D01*
X26940Y-34954D01*
X26988Y-34935D01*
X27107Y-34935D01*
X27155Y-34954D01*
X27179Y-34973D01*
X27202Y-35011D01*
X27202Y-35107D01*
X27179Y-35145D01*
X27155Y-35164D01*
X27202Y-37045D02*
X26702Y-37045D01*
X26702Y-36950D01*
X26726Y-36892D01*
X26774Y-36854D01*
X26821Y-36835D01*
X26917Y-36816D01*
X26988Y-36816D01*
X27083Y-36835D01*
X27131Y-36854D01*
X27179Y-36892D01*
X27202Y-36950D01*
X27202Y-37045D01*
X26869Y-36473D02*
X27202Y-36473D01*
X26679Y-36569D02*
X27036Y-36664D01*
X27036Y-36416D01*
X26202Y-35545D02*
X25702Y-35545D01*
X25702Y-35450D01*
X25726Y-35392D01*
X25774Y-35354D01*
X25821Y-35335D01*
X25917Y-35316D01*
X25988Y-35316D01*
X26083Y-35335D01*
X26131Y-35354D01*
X26179Y-35392D01*
X26202Y-35450D01*
X26202Y-35545D01*
X25702Y-35183D02*
X25702Y-34935D01*
X25893Y-35069D01*
X25893Y-35011D01*
X25917Y-34973D01*
X25940Y-34954D01*
X25988Y-34935D01*
X26107Y-34935D01*
X26155Y-34954D01*
X26179Y-34973D01*
X26202Y-35011D01*
X26202Y-35126D01*
X26179Y-35164D01*
X26155Y-35183D01*
X26202Y-37045D02*
X25702Y-37045D01*
X25702Y-36950D01*
X25726Y-36892D01*
X25774Y-36854D01*
X25821Y-36835D01*
X25917Y-36816D01*
X25988Y-36816D01*
X26083Y-36835D01*
X26131Y-36854D01*
X26179Y-36892D01*
X26202Y-36950D01*
X26202Y-37045D01*
X25750Y-36664D02*
X25726Y-36645D01*
X25702Y-36607D01*
X25702Y-36511D01*
X25726Y-36473D01*
X25750Y-36454D01*
X25798Y-36435D01*
X25845Y-36435D01*
X25917Y-36454D01*
X26202Y-36683D01*
X26202Y-36435D01*
X25202Y-35545D02*
X24702Y-35545D01*
X24702Y-35450D01*
X24726Y-35392D01*
X24774Y-35354D01*
X24821Y-35335D01*
X24917Y-35316D01*
X24988Y-35316D01*
X25083Y-35335D01*
X25131Y-35354D01*
X25179Y-35392D01*
X25202Y-35450D01*
X25202Y-35545D01*
X25202Y-34935D02*
X25202Y-35164D01*
X25202Y-35050D02*
X24702Y-35050D01*
X24774Y-35088D01*
X24821Y-35126D01*
X24845Y-35164D01*
X25202Y-37045D02*
X24702Y-37045D01*
X24702Y-36950D01*
X24726Y-36892D01*
X24774Y-36854D01*
X24821Y-36835D01*
X24917Y-36816D01*
X24988Y-36816D01*
X25083Y-36835D01*
X25131Y-36854D01*
X25179Y-36892D01*
X25202Y-36950D01*
X25202Y-37045D01*
X24702Y-36569D02*
X24702Y-36530D01*
X24726Y-36492D01*
X24750Y-36473D01*
X24798Y-36454D01*
X24893Y-36435D01*
X25012Y-36435D01*
X25107Y-36454D01*
X25155Y-36473D01*
X25179Y-36492D01*
X25202Y-36530D01*
X25202Y-36569D01*
X25179Y-36607D01*
X25155Y-36626D01*
X25107Y-36645D01*
X25012Y-36664D01*
X24893Y-36664D01*
X24798Y-36645D01*
X24750Y-36626D01*
X24726Y-36607D01*
X24702Y-36569D01*
X24060Y-35726D02*
X24060Y-35535D01*
X24202Y-35764D02*
X23702Y-35631D01*
X24202Y-35497D01*
X23750Y-35383D02*
X23726Y-35364D01*
X23702Y-35326D01*
X23702Y-35230D01*
X23726Y-35192D01*
X23750Y-35173D01*
X23798Y-35154D01*
X23845Y-35154D01*
X23917Y-35173D01*
X24202Y-35402D01*
X24202Y-35154D01*
X23702Y-34792D02*
X23702Y-34983D01*
X23940Y-35002D01*
X23917Y-34983D01*
X23893Y-34945D01*
X23893Y-34849D01*
X23917Y-34811D01*
X23940Y-34792D01*
X23988Y-34773D01*
X24107Y-34773D01*
X24155Y-34792D01*
X24179Y-34811D01*
X24202Y-34849D01*
X24202Y-34945D01*
X24179Y-34983D01*
X24155Y-35002D01*
X24060Y-37226D02*
X24060Y-37035D01*
X24202Y-37264D02*
X23702Y-37131D01*
X24202Y-36997D01*
X23750Y-36883D02*
X23726Y-36864D01*
X23702Y-36826D01*
X23702Y-36730D01*
X23726Y-36692D01*
X23750Y-36673D01*
X23798Y-36654D01*
X23845Y-36654D01*
X23917Y-36673D01*
X24202Y-36902D01*
X24202Y-36654D01*
X23869Y-36311D02*
X24202Y-36311D01*
X23679Y-36407D02*
X24036Y-36502D01*
X24036Y-36254D01*
X23060Y-35726D02*
X23060Y-35535D01*
X23202Y-35764D02*
X22702Y-35631D01*
X23202Y-35497D01*
X22750Y-35383D02*
X22726Y-35364D01*
X22702Y-35326D01*
X22702Y-35230D01*
X22726Y-35192D01*
X22750Y-35173D01*
X22798Y-35154D01*
X22845Y-35154D01*
X22917Y-35173D01*
X23202Y-35402D01*
X23202Y-35154D01*
X22702Y-35021D02*
X22702Y-34773D01*
X22893Y-34907D01*
X22893Y-34849D01*
X22917Y-34811D01*
X22940Y-34792D01*
X22988Y-34773D01*
X23107Y-34773D01*
X23155Y-34792D01*
X23179Y-34811D01*
X23202Y-34849D01*
X23202Y-34964D01*
X23179Y-35002D01*
X23155Y-35021D01*
X23060Y-37226D02*
X23060Y-37035D01*
X23202Y-37264D02*
X22702Y-37131D01*
X23202Y-36997D01*
X22750Y-36883D02*
X22726Y-36864D01*
X22702Y-36826D01*
X22702Y-36730D01*
X22726Y-36692D01*
X22750Y-36673D01*
X22798Y-36654D01*
X22845Y-36654D01*
X22917Y-36673D01*
X23202Y-36902D01*
X23202Y-36654D01*
X22750Y-36502D02*
X22726Y-36483D01*
X22702Y-36445D01*
X22702Y-36349D01*
X22726Y-36311D01*
X22750Y-36292D01*
X22798Y-36273D01*
X22845Y-36273D01*
X22917Y-36292D01*
X23202Y-36521D01*
X23202Y-36273D01*
X22060Y-35726D02*
X22060Y-35535D01*
X22202Y-35764D02*
X21702Y-35631D01*
X22202Y-35497D01*
X21750Y-35383D02*
X21726Y-35364D01*
X21702Y-35326D01*
X21702Y-35230D01*
X21726Y-35192D01*
X21750Y-35173D01*
X21798Y-35154D01*
X21845Y-35154D01*
X21917Y-35173D01*
X22202Y-35402D01*
X22202Y-35154D01*
X22202Y-34773D02*
X22202Y-35002D01*
X22202Y-34888D02*
X21702Y-34888D01*
X21774Y-34926D01*
X21821Y-34964D01*
X21845Y-35002D01*
X22060Y-37226D02*
X22060Y-37035D01*
X22202Y-37264D02*
X21702Y-37131D01*
X22202Y-36997D01*
X21750Y-36883D02*
X21726Y-36864D01*
X21702Y-36826D01*
X21702Y-36730D01*
X21726Y-36692D01*
X21750Y-36673D01*
X21798Y-36654D01*
X21845Y-36654D01*
X21917Y-36673D01*
X22202Y-36902D01*
X22202Y-36654D01*
X21702Y-36407D02*
X21702Y-36368D01*
X21726Y-36330D01*
X21750Y-36311D01*
X21798Y-36292D01*
X21893Y-36273D01*
X22012Y-36273D01*
X22107Y-36292D01*
X22155Y-36311D01*
X22179Y-36330D01*
X22202Y-36368D01*
X22202Y-36407D01*
X22179Y-36445D01*
X22155Y-36464D01*
X22107Y-36483D01*
X22012Y-36502D01*
X21893Y-36502D01*
X21798Y-36483D01*
X21750Y-36464D01*
X21726Y-36445D01*
X21702Y-36407D01*
X21060Y-35726D02*
X21060Y-35535D01*
X21202Y-35764D02*
X20702Y-35631D01*
X21202Y-35497D01*
X21202Y-35154D02*
X21202Y-35383D01*
X21202Y-35269D02*
X20702Y-35269D01*
X20774Y-35307D01*
X20821Y-35345D01*
X20845Y-35383D01*
X21202Y-34964D02*
X21202Y-34888D01*
X21179Y-34849D01*
X21155Y-34830D01*
X21083Y-34792D01*
X20988Y-34773D01*
X20798Y-34773D01*
X20750Y-34792D01*
X20726Y-34811D01*
X20702Y-34849D01*
X20702Y-34926D01*
X20726Y-34964D01*
X20750Y-34983D01*
X20798Y-35002D01*
X20917Y-35002D01*
X20964Y-34983D01*
X20988Y-34964D01*
X21012Y-34926D01*
X21012Y-34849D01*
X20988Y-34811D01*
X20964Y-34792D01*
X20917Y-34773D01*
X21060Y-37226D02*
X21060Y-37035D01*
X21202Y-37264D02*
X20702Y-37131D01*
X21202Y-36997D01*
X21202Y-36654D02*
X21202Y-36883D01*
X21202Y-36769D02*
X20702Y-36769D01*
X20774Y-36807D01*
X20821Y-36845D01*
X20845Y-36883D01*
X20917Y-36426D02*
X20893Y-36464D01*
X20869Y-36483D01*
X20821Y-36502D01*
X20798Y-36502D01*
X20750Y-36483D01*
X20726Y-36464D01*
X20702Y-36426D01*
X20702Y-36349D01*
X20726Y-36311D01*
X20750Y-36292D01*
X20798Y-36273D01*
X20821Y-36273D01*
X20869Y-36292D01*
X20893Y-36311D01*
X20917Y-36349D01*
X20917Y-36426D01*
X20940Y-36464D01*
X20964Y-36483D01*
X21012Y-36502D01*
X21107Y-36502D01*
X21155Y-36483D01*
X21179Y-36464D01*
X21202Y-36426D01*
X21202Y-36349D01*
X21179Y-36311D01*
X21155Y-36292D01*
X21107Y-36273D01*
X21012Y-36273D01*
X20964Y-36292D01*
X20940Y-36311D01*
X20917Y-36349D01*
X20060Y-35726D02*
X20060Y-35535D01*
X20202Y-35764D02*
X19702Y-35631D01*
X20202Y-35497D01*
X20202Y-35154D02*
X20202Y-35383D01*
X20202Y-35269D02*
X19702Y-35269D01*
X19774Y-35307D01*
X19821Y-35345D01*
X19845Y-35383D01*
X19702Y-35021D02*
X19702Y-34754D01*
X20202Y-34926D01*
X20060Y-37226D02*
X20060Y-37035D01*
X20202Y-37264D02*
X19702Y-37131D01*
X20202Y-36997D01*
X20202Y-36654D02*
X20202Y-36883D01*
X20202Y-36769D02*
X19702Y-36769D01*
X19774Y-36807D01*
X19821Y-36845D01*
X19845Y-36883D01*
X19702Y-36311D02*
X19702Y-36388D01*
X19726Y-36426D01*
X19750Y-36445D01*
X19821Y-36483D01*
X19917Y-36502D01*
X20107Y-36502D01*
X20155Y-36483D01*
X20179Y-36464D01*
X20202Y-36426D01*
X20202Y-36349D01*
X20179Y-36311D01*
X20155Y-36292D01*
X20107Y-36273D01*
X19988Y-36273D01*
X19940Y-36292D01*
X19917Y-36311D01*
X19893Y-36349D01*
X19893Y-36426D01*
X19917Y-36464D01*
X19940Y-36483D01*
X19988Y-36502D01*
X19060Y-35726D02*
X19060Y-35535D01*
X19202Y-35764D02*
X18702Y-35631D01*
X19202Y-35497D01*
X19202Y-35154D02*
X19202Y-35383D01*
X19202Y-35269D02*
X18702Y-35269D01*
X18774Y-35307D01*
X18821Y-35345D01*
X18845Y-35383D01*
X18702Y-34792D02*
X18702Y-34983D01*
X18940Y-35002D01*
X18917Y-34983D01*
X18893Y-34945D01*
X18893Y-34849D01*
X18917Y-34811D01*
X18940Y-34792D01*
X18988Y-34773D01*
X19107Y-34773D01*
X19155Y-34792D01*
X19179Y-34811D01*
X19202Y-34849D01*
X19202Y-34945D01*
X19179Y-34983D01*
X19155Y-35002D01*
X19060Y-37226D02*
X19060Y-37035D01*
X19202Y-37264D02*
X18702Y-37131D01*
X19202Y-36997D01*
X19202Y-36654D02*
X19202Y-36883D01*
X19202Y-36769D02*
X18702Y-36769D01*
X18774Y-36807D01*
X18821Y-36845D01*
X18845Y-36883D01*
X18869Y-36311D02*
X19202Y-36311D01*
X18679Y-36407D02*
X19036Y-36502D01*
X19036Y-36254D01*
X18060Y-35726D02*
X18060Y-35535D01*
X18202Y-35764D02*
X17702Y-35631D01*
X18202Y-35497D01*
X18202Y-35154D02*
X18202Y-35383D01*
X18202Y-35269D02*
X17702Y-35269D01*
X17774Y-35307D01*
X17821Y-35345D01*
X17845Y-35383D01*
X17702Y-35021D02*
X17702Y-34773D01*
X17893Y-34907D01*
X17893Y-34849D01*
X17917Y-34811D01*
X17940Y-34792D01*
X17988Y-34773D01*
X18107Y-34773D01*
X18155Y-34792D01*
X18179Y-34811D01*
X18202Y-34849D01*
X18202Y-34964D01*
X18179Y-35002D01*
X18155Y-35021D01*
X18060Y-37226D02*
X18060Y-37035D01*
X18202Y-37264D02*
X17702Y-37131D01*
X18202Y-36997D01*
X18202Y-36654D02*
X18202Y-36883D01*
X18202Y-36769D02*
X17702Y-36769D01*
X17774Y-36807D01*
X17821Y-36845D01*
X17845Y-36883D01*
X17750Y-36502D02*
X17726Y-36483D01*
X17702Y-36445D01*
X17702Y-36349D01*
X17726Y-36311D01*
X17750Y-36292D01*
X17798Y-36273D01*
X17845Y-36273D01*
X17917Y-36292D01*
X18202Y-36521D01*
X18202Y-36273D01*
X17060Y-35726D02*
X17060Y-35535D01*
X17202Y-35764D02*
X16702Y-35631D01*
X17202Y-35497D01*
X17202Y-35154D02*
X17202Y-35383D01*
X17202Y-35269D02*
X16702Y-35269D01*
X16774Y-35307D01*
X16821Y-35345D01*
X16845Y-35383D01*
X17202Y-34773D02*
X17202Y-35002D01*
X17202Y-34888D02*
X16702Y-34888D01*
X16774Y-34926D01*
X16821Y-34964D01*
X16845Y-35002D01*
X17060Y-37226D02*
X17060Y-37035D01*
X17202Y-37264D02*
X16702Y-37131D01*
X17202Y-36997D01*
X17202Y-36654D02*
X17202Y-36883D01*
X17202Y-36769D02*
X16702Y-36769D01*
X16774Y-36807D01*
X16821Y-36845D01*
X16845Y-36883D01*
X16702Y-36407D02*
X16702Y-36368D01*
X16726Y-36330D01*
X16750Y-36311D01*
X16798Y-36292D01*
X16893Y-36273D01*
X17012Y-36273D01*
X17107Y-36292D01*
X17155Y-36311D01*
X17179Y-36330D01*
X17202Y-36368D01*
X17202Y-36407D01*
X17179Y-36445D01*
X17155Y-36464D01*
X17107Y-36483D01*
X17012Y-36502D01*
X16893Y-36502D01*
X16798Y-36483D01*
X16750Y-36464D01*
X16726Y-36445D01*
X16702Y-36407D01*
X16060Y-35536D02*
X16060Y-35345D01*
X16202Y-35574D02*
X15702Y-35441D01*
X16202Y-35307D01*
X16202Y-35155D02*
X16202Y-35079D01*
X16179Y-35040D01*
X16155Y-35021D01*
X16083Y-34983D01*
X15988Y-34964D01*
X15798Y-34964D01*
X15750Y-34983D01*
X15726Y-35002D01*
X15702Y-35040D01*
X15702Y-35117D01*
X15726Y-35155D01*
X15750Y-35174D01*
X15798Y-35193D01*
X15917Y-35193D01*
X15964Y-35174D01*
X15988Y-35155D01*
X16012Y-35117D01*
X16012Y-35040D01*
X15988Y-35002D01*
X15964Y-34983D01*
X15917Y-34964D01*
X16060Y-37036D02*
X16060Y-36845D01*
X16202Y-37074D02*
X15702Y-36941D01*
X16202Y-36807D01*
X15917Y-36617D02*
X15893Y-36655D01*
X15869Y-36674D01*
X15821Y-36693D01*
X15798Y-36693D01*
X15750Y-36674D01*
X15726Y-36655D01*
X15702Y-36617D01*
X15702Y-36540D01*
X15726Y-36502D01*
X15750Y-36483D01*
X15798Y-36464D01*
X15821Y-36464D01*
X15869Y-36483D01*
X15893Y-36502D01*
X15917Y-36540D01*
X15917Y-36617D01*
X15940Y-36655D01*
X15964Y-36674D01*
X16012Y-36693D01*
X16107Y-36693D01*
X16155Y-36674D01*
X16179Y-36655D01*
X16202Y-36617D01*
X16202Y-36540D01*
X16179Y-36502D01*
X16155Y-36483D01*
X16107Y-36464D01*
X16012Y-36464D01*
X15964Y-36483D01*
X15940Y-36502D01*
X15917Y-36540D01*
X15060Y-35536D02*
X15060Y-35345D01*
X15202Y-35574D02*
X14702Y-35441D01*
X15202Y-35307D01*
X14702Y-35212D02*
X14702Y-34945D01*
X15202Y-35117D01*
X15060Y-37036D02*
X15060Y-36845D01*
X15202Y-37074D02*
X14702Y-36941D01*
X15202Y-36807D01*
X14702Y-36502D02*
X14702Y-36579D01*
X14726Y-36617D01*
X14750Y-36636D01*
X14821Y-36674D01*
X14917Y-36693D01*
X15107Y-36693D01*
X15155Y-36674D01*
X15179Y-36655D01*
X15202Y-36617D01*
X15202Y-36540D01*
X15179Y-36502D01*
X15155Y-36483D01*
X15107Y-36464D01*
X14988Y-36464D01*
X14940Y-36483D01*
X14917Y-36502D01*
X14893Y-36540D01*
X14893Y-36617D01*
X14917Y-36655D01*
X14940Y-36674D01*
X14988Y-36693D01*
X14060Y-35536D02*
X14060Y-35345D01*
X14202Y-35574D02*
X13702Y-35441D01*
X14202Y-35307D01*
X13702Y-34983D02*
X13702Y-35174D01*
X13940Y-35193D01*
X13917Y-35174D01*
X13893Y-35136D01*
X13893Y-35040D01*
X13917Y-35002D01*
X13940Y-34983D01*
X13988Y-34964D01*
X14107Y-34964D01*
X14155Y-34983D01*
X14179Y-35002D01*
X14202Y-35040D01*
X14202Y-35136D01*
X14179Y-35174D01*
X14155Y-35193D01*
X14060Y-37036D02*
X14060Y-36845D01*
X14202Y-37074D02*
X13702Y-36941D01*
X14202Y-36807D01*
X13869Y-36502D02*
X14202Y-36502D01*
X13679Y-36598D02*
X14036Y-36693D01*
X14036Y-36445D01*
X13060Y-35536D02*
X13060Y-35345D01*
X13202Y-35574D02*
X12702Y-35441D01*
X13202Y-35307D01*
X12702Y-35212D02*
X12702Y-34964D01*
X12893Y-35098D01*
X12893Y-35040D01*
X12917Y-35002D01*
X12940Y-34983D01*
X12988Y-34964D01*
X13107Y-34964D01*
X13155Y-34983D01*
X13179Y-35002D01*
X13202Y-35040D01*
X13202Y-35155D01*
X13179Y-35193D01*
X13155Y-35212D01*
X13060Y-37036D02*
X13060Y-36845D01*
X13202Y-37074D02*
X12702Y-36941D01*
X13202Y-36807D01*
X12750Y-36693D02*
X12726Y-36674D01*
X12702Y-36636D01*
X12702Y-36540D01*
X12726Y-36502D01*
X12750Y-36483D01*
X12798Y-36464D01*
X12845Y-36464D01*
X12917Y-36483D01*
X13202Y-36712D01*
X13202Y-36464D01*
X12060Y-35536D02*
X12060Y-35345D01*
X12202Y-35574D02*
X11702Y-35441D01*
X12202Y-35307D01*
X12202Y-34964D02*
X12202Y-35193D01*
X12202Y-35079D02*
X11702Y-35079D01*
X11774Y-35117D01*
X11821Y-35155D01*
X11845Y-35193D01*
X12060Y-37036D02*
X12060Y-36845D01*
X12202Y-37074D02*
X11702Y-36941D01*
X12202Y-36807D01*
X11702Y-36598D02*
X11702Y-36559D01*
X11726Y-36521D01*
X11750Y-36502D01*
X11798Y-36483D01*
X11893Y-36464D01*
X12012Y-36464D01*
X12107Y-36483D01*
X12155Y-36502D01*
X12179Y-36521D01*
X12202Y-36559D01*
X12202Y-36598D01*
X12179Y-36636D01*
X12155Y-36655D01*
X12107Y-36674D01*
X12012Y-36693D01*
X11893Y-36693D01*
X11798Y-36674D01*
X11750Y-36655D01*
X11726Y-36636D01*
X11702Y-36598D01*
G54D11*
X11500Y-36000D02*
X43500Y-36000D01*
G54D12*
X31381Y-12429D02*
X31438Y-12452D01*
X31534Y-12452D01*
X31572Y-12429D01*
X31591Y-12405D01*
X31610Y-12357D01*
X31610Y-12310D01*
X31591Y-12262D01*
X31572Y-12238D01*
X31534Y-12214D01*
X31457Y-12190D01*
X31419Y-12167D01*
X31400Y-12143D01*
X31381Y-12095D01*
X31381Y-12048D01*
X31400Y-12000D01*
X31419Y-11976D01*
X31457Y-11952D01*
X31553Y-11952D01*
X31610Y-11976D01*
X31781Y-12452D02*
X31781Y-11952D01*
X31876Y-11952D01*
X31934Y-11976D01*
X31972Y-12024D01*
X31991Y-12071D01*
X32010Y-12167D01*
X32010Y-12238D01*
X31991Y-12333D01*
X31972Y-12381D01*
X31934Y-12429D01*
X31876Y-12452D01*
X31781Y-12452D01*
X32181Y-12452D02*
X32181Y-11952D01*
X32447Y-11952D02*
X32524Y-11952D01*
X32562Y-11976D01*
X32600Y-12024D01*
X32619Y-12119D01*
X32619Y-12286D01*
X32600Y-12381D01*
X32562Y-12429D01*
X32524Y-12452D01*
X32447Y-12452D01*
X32409Y-12429D01*
X32371Y-12381D01*
X32352Y-12286D01*
X32352Y-12119D01*
X32371Y-12024D01*
X32409Y-11976D01*
X32447Y-11952D01*
G54D11*
X33250Y-11750D02*
X30750Y-11750D01*
G54D12*
X39900Y-12429D02*
X39957Y-12452D01*
X40053Y-12452D01*
X40091Y-12429D01*
X40110Y-12405D01*
X40129Y-12357D01*
X40129Y-12310D01*
X40110Y-12262D01*
X40091Y-12238D01*
X40053Y-12214D01*
X39976Y-12190D01*
X39938Y-12167D01*
X39919Y-12143D01*
X39900Y-12095D01*
X39900Y-12048D01*
X39919Y-12000D01*
X39938Y-11976D01*
X39976Y-11952D01*
X40072Y-11952D01*
X40129Y-11976D01*
X40300Y-12452D02*
X40300Y-11952D01*
X40453Y-11952D01*
X40491Y-11976D01*
X40510Y-12000D01*
X40529Y-12048D01*
X40529Y-12119D01*
X40510Y-12167D01*
X40491Y-12190D01*
X40453Y-12214D01*
X40300Y-12214D01*
X40700Y-12452D02*
X40700Y-11952D01*
X41100Y-12452D02*
X40871Y-12452D01*
X40985Y-12452D02*
X40985Y-11952D01*
X40947Y-12024D01*
X40909Y-12071D01*
X40871Y-12095D01*
X41900Y-12429D02*
X41957Y-12452D01*
X42053Y-12452D01*
X42091Y-12429D01*
X42110Y-12405D01*
X42129Y-12357D01*
X42129Y-12310D01*
X42110Y-12262D01*
X42091Y-12238D01*
X42053Y-12214D01*
X41976Y-12190D01*
X41938Y-12167D01*
X41919Y-12143D01*
X41900Y-12095D01*
X41900Y-12048D01*
X41919Y-12000D01*
X41938Y-11976D01*
X41976Y-11952D01*
X42072Y-11952D01*
X42129Y-11976D01*
X42300Y-12452D02*
X42300Y-11952D01*
X42453Y-11952D01*
X42491Y-11976D01*
X42510Y-12000D01*
X42529Y-12048D01*
X42529Y-12119D01*
X42510Y-12167D01*
X42491Y-12190D01*
X42453Y-12214D01*
X42300Y-12214D01*
X42700Y-12452D02*
X42700Y-11952D01*
X42966Y-11952D02*
X43005Y-11952D01*
X43043Y-11976D01*
X43062Y-12000D01*
X43081Y-12048D01*
X43100Y-12143D01*
X43100Y-12262D01*
X43081Y-12357D01*
X43062Y-12405D01*
X43043Y-12429D01*
X43005Y-12452D01*
X42966Y-12452D01*
X42928Y-12429D01*
X42909Y-12405D01*
X42890Y-12357D01*
X42871Y-12262D01*
X42871Y-12143D01*
X42890Y-12048D01*
X42909Y-12000D01*
X42928Y-11976D01*
X42966Y-11952D01*
G54D11*
X41250Y-11750D02*
X39750Y-11750D01*
X43250Y-11750D02*
X41750Y-11750D01*
X43500Y-08000D02*
X11500Y-08000D01*
G54D12*
X22298Y-08217D02*
X21798Y-08350D01*
X22298Y-08484D01*
X21845Y-08846D02*
X21821Y-08827D01*
X21798Y-08770D01*
X21798Y-08732D01*
X21821Y-08674D01*
X21869Y-08636D01*
X21917Y-08617D01*
X22012Y-08598D01*
X22083Y-08598D01*
X22179Y-08617D01*
X22226Y-08636D01*
X22274Y-08674D01*
X22298Y-08732D01*
X22298Y-08770D01*
X22274Y-08827D01*
X22250Y-08846D01*
X21845Y-09246D02*
X21821Y-09227D01*
X21798Y-09170D01*
X21798Y-09132D01*
X21821Y-09074D01*
X21869Y-09036D01*
X21917Y-09017D01*
X22012Y-08998D01*
X22083Y-08998D01*
X22179Y-09017D01*
X22226Y-09036D01*
X22274Y-09074D01*
X22298Y-09132D01*
X22298Y-09170D01*
X22274Y-09227D01*
X22250Y-09246D01*
X22298Y-07174D02*
X22298Y-06983D01*
X22060Y-06964D01*
X22083Y-06983D01*
X22107Y-07021D01*
X22107Y-07117D01*
X22083Y-07155D01*
X22060Y-07174D01*
X22012Y-07193D01*
X21893Y-07193D01*
X21845Y-07174D01*
X21821Y-07155D01*
X21798Y-07117D01*
X21798Y-07021D01*
X21821Y-06983D01*
X21845Y-06964D01*
X22298Y-07307D02*
X21798Y-07440D01*
X22298Y-07574D01*
X16274Y-08446D02*
X16298Y-08408D01*
X16298Y-08351D01*
X16274Y-08293D01*
X16226Y-08255D01*
X16179Y-08236D01*
X16083Y-08217D01*
X16012Y-08217D01*
X15917Y-08236D01*
X15869Y-08255D01*
X15821Y-08293D01*
X15798Y-08351D01*
X15798Y-08389D01*
X15821Y-08446D01*
X15845Y-08465D01*
X16012Y-08465D01*
X16012Y-08389D01*
X15798Y-08636D02*
X16298Y-08636D01*
X15798Y-08865D01*
X16298Y-08865D01*
X15798Y-09055D02*
X16298Y-09055D01*
X16298Y-09150D01*
X16274Y-09208D01*
X16226Y-09246D01*
X16179Y-09265D01*
X16083Y-09284D01*
X16012Y-09284D01*
X15917Y-09265D01*
X15869Y-09246D01*
X15821Y-09208D01*
X15798Y-09150D01*
X15798Y-09055D01*
X16274Y-06946D02*
X16298Y-06908D01*
X16298Y-06851D01*
X16274Y-06793D01*
X16226Y-06755D01*
X16179Y-06736D01*
X16083Y-06717D01*
X16012Y-06717D01*
X15917Y-06736D01*
X15869Y-06755D01*
X15821Y-06793D01*
X15798Y-06851D01*
X15798Y-06889D01*
X15821Y-06946D01*
X15845Y-06965D01*
X16012Y-06965D01*
X16012Y-06889D01*
X15798Y-07136D02*
X16298Y-07136D01*
X15798Y-07365D01*
X16298Y-07365D01*
X15798Y-07555D02*
X16298Y-07555D01*
X16298Y-07650D01*
X16274Y-07708D01*
X16226Y-07746D01*
X16179Y-07765D01*
X16083Y-07784D01*
X16012Y-07784D01*
X15917Y-07765D01*
X15869Y-07746D01*
X15821Y-07708D01*
X15798Y-07650D01*
X15798Y-07555D01*
X30798Y-08455D02*
X31298Y-08455D01*
X31298Y-08550D01*
X31274Y-08608D01*
X31226Y-08646D01*
X31179Y-08665D01*
X31083Y-08684D01*
X31012Y-08684D01*
X30917Y-08665D01*
X30869Y-08646D01*
X30821Y-08608D01*
X30798Y-08550D01*
X30798Y-08455D01*
X31298Y-08817D02*
X31298Y-09065D01*
X31107Y-08931D01*
X31107Y-08989D01*
X31083Y-09027D01*
X31060Y-09046D01*
X31012Y-09065D01*
X30893Y-09065D01*
X30845Y-09046D01*
X30821Y-09027D01*
X30798Y-08989D01*
X30798Y-08874D01*
X30821Y-08836D01*
X30845Y-08817D01*
X30798Y-06955D02*
X31298Y-06955D01*
X31298Y-07050D01*
X31274Y-07108D01*
X31226Y-07146D01*
X31179Y-07165D01*
X31083Y-07184D01*
X31012Y-07184D01*
X30917Y-07165D01*
X30869Y-07146D01*
X30821Y-07108D01*
X30798Y-07050D01*
X30798Y-06955D01*
X31250Y-07336D02*
X31274Y-07355D01*
X31298Y-07393D01*
X31298Y-07489D01*
X31274Y-07527D01*
X31250Y-07546D01*
X31202Y-07565D01*
X31155Y-07565D01*
X31083Y-07546D01*
X30798Y-07317D01*
X30798Y-07565D01*
X31798Y-08455D02*
X32298Y-08455D01*
X32298Y-08550D01*
X32274Y-08608D01*
X32226Y-08646D01*
X32179Y-08665D01*
X32083Y-08684D01*
X32012Y-08684D01*
X31917Y-08665D01*
X31869Y-08646D01*
X31821Y-08608D01*
X31798Y-08550D01*
X31798Y-08455D01*
X31798Y-09065D02*
X31798Y-08836D01*
X31798Y-08950D02*
X32298Y-08950D01*
X32226Y-08912D01*
X32179Y-08874D01*
X32155Y-08836D01*
X31798Y-06955D02*
X32298Y-06955D01*
X32298Y-07050D01*
X32274Y-07108D01*
X32226Y-07146D01*
X32179Y-07165D01*
X32083Y-07184D01*
X32012Y-07184D01*
X31917Y-07165D01*
X31869Y-07146D01*
X31821Y-07108D01*
X31798Y-07050D01*
X31798Y-06955D01*
X32298Y-07431D02*
X32298Y-07470D01*
X32274Y-07508D01*
X32250Y-07527D01*
X32202Y-07546D01*
X32107Y-07565D01*
X31988Y-07565D01*
X31893Y-07546D01*
X31845Y-07527D01*
X31821Y-07508D01*
X31798Y-07470D01*
X31798Y-07431D01*
X31821Y-07393D01*
X31845Y-07374D01*
X31893Y-07355D01*
X31988Y-07336D01*
X32107Y-07336D01*
X32202Y-07355D01*
X32250Y-07374D01*
X32274Y-07393D01*
X32298Y-07431D01*
X32845Y-08446D02*
X32821Y-08427D01*
X32798Y-08370D01*
X32798Y-08332D01*
X32821Y-08274D01*
X32869Y-08236D01*
X32917Y-08217D01*
X33012Y-08198D01*
X33083Y-08198D01*
X33179Y-08217D01*
X33226Y-08236D01*
X33274Y-08274D01*
X33298Y-08332D01*
X33298Y-08370D01*
X33274Y-08427D01*
X33250Y-08446D01*
X32798Y-08617D02*
X33298Y-08617D01*
X32940Y-08751D01*
X33298Y-08884D01*
X32798Y-08884D01*
X32798Y-09074D02*
X33298Y-09074D01*
X33298Y-09169D01*
X33274Y-09227D01*
X33226Y-09265D01*
X33179Y-09284D01*
X33083Y-09303D01*
X33012Y-09303D01*
X32917Y-09284D01*
X32869Y-09265D01*
X32821Y-09227D01*
X32798Y-09169D01*
X32798Y-09074D01*
X32845Y-07012D02*
X32821Y-06993D01*
X32798Y-06936D01*
X32798Y-06898D01*
X32821Y-06840D01*
X32869Y-06802D01*
X32917Y-06783D01*
X33012Y-06764D01*
X33083Y-06764D01*
X33179Y-06783D01*
X33226Y-06802D01*
X33274Y-06840D01*
X33298Y-06898D01*
X33298Y-06936D01*
X33274Y-06993D01*
X33250Y-07012D01*
X32798Y-07374D02*
X32798Y-07183D01*
X33298Y-07183D01*
X32798Y-07507D02*
X33298Y-07507D01*
X32798Y-07736D02*
X33083Y-07564D01*
X33298Y-07736D02*
X33012Y-07507D01*
X39845Y-08493D02*
X39821Y-08474D01*
X39798Y-08417D01*
X39798Y-08379D01*
X39821Y-08321D01*
X39869Y-08283D01*
X39917Y-08264D01*
X40012Y-08245D01*
X40083Y-08245D01*
X40179Y-08264D01*
X40226Y-08283D01*
X40274Y-08321D01*
X40298Y-08379D01*
X40298Y-08417D01*
X40274Y-08474D01*
X40250Y-08493D01*
X39821Y-08645D02*
X39798Y-08702D01*
X39798Y-08798D01*
X39821Y-08836D01*
X39845Y-08855D01*
X39893Y-08874D01*
X39940Y-08874D01*
X39988Y-08855D01*
X40012Y-08836D01*
X40036Y-08798D01*
X40060Y-08721D01*
X40083Y-08683D01*
X40107Y-08664D01*
X40155Y-08645D01*
X40202Y-08645D01*
X40250Y-08664D01*
X40274Y-08683D01*
X40298Y-08721D01*
X40298Y-08817D01*
X40274Y-08874D01*
X39798Y-09255D02*
X39798Y-09026D01*
X39798Y-09140D02*
X40298Y-09140D01*
X40226Y-09102D01*
X40179Y-09064D01*
X40155Y-09026D01*
X39821Y-06850D02*
X39798Y-06907D01*
X39798Y-07003D01*
X39821Y-07041D01*
X39845Y-07060D01*
X39893Y-07079D01*
X39940Y-07079D01*
X39988Y-07060D01*
X40012Y-07041D01*
X40036Y-07003D01*
X40060Y-06926D01*
X40083Y-06888D01*
X40107Y-06869D01*
X40155Y-06850D01*
X40202Y-06850D01*
X40250Y-06869D01*
X40274Y-06888D01*
X40298Y-06926D01*
X40298Y-07022D01*
X40274Y-07079D01*
X39798Y-07250D02*
X40298Y-07250D01*
X39798Y-07650D02*
X39798Y-07421D01*
X39798Y-07535D02*
X40298Y-07535D01*
X40226Y-07497D01*
X40179Y-07459D01*
X40155Y-07421D01*
X40821Y-08255D02*
X40798Y-08312D01*
X40798Y-08408D01*
X40821Y-08446D01*
X40845Y-08465D01*
X40893Y-08484D01*
X40940Y-08484D01*
X40988Y-08465D01*
X41012Y-08446D01*
X41036Y-08408D01*
X41060Y-08331D01*
X41083Y-08293D01*
X41107Y-08274D01*
X41155Y-08255D01*
X41202Y-08255D01*
X41250Y-08274D01*
X41274Y-08293D01*
X41298Y-08331D01*
X41298Y-08427D01*
X41274Y-08484D01*
X41298Y-08731D02*
X41298Y-08770D01*
X41274Y-08808D01*
X41250Y-08827D01*
X41202Y-08846D01*
X41107Y-08865D01*
X40988Y-08865D01*
X40893Y-08846D01*
X40845Y-08827D01*
X40821Y-08808D01*
X40798Y-08770D01*
X40798Y-08731D01*
X40821Y-08693D01*
X40845Y-08674D01*
X40893Y-08655D01*
X40988Y-08636D01*
X41107Y-08636D01*
X41202Y-08655D01*
X41250Y-08674D01*
X41274Y-08693D01*
X41298Y-08731D01*
X40798Y-09246D02*
X40798Y-09017D01*
X40798Y-09131D02*
X41298Y-09131D01*
X41226Y-09093D01*
X41179Y-09055D01*
X41155Y-09017D01*
X40821Y-06745D02*
X40798Y-06802D01*
X40798Y-06898D01*
X40821Y-06936D01*
X40845Y-06955D01*
X40893Y-06974D01*
X40940Y-06974D01*
X40988Y-06955D01*
X41012Y-06936D01*
X41036Y-06898D01*
X41060Y-06821D01*
X41083Y-06783D01*
X41107Y-06764D01*
X41155Y-06745D01*
X41202Y-06745D01*
X41250Y-06764D01*
X41274Y-06783D01*
X41298Y-06821D01*
X41298Y-06917D01*
X41274Y-06974D01*
X40798Y-07145D02*
X41298Y-07145D01*
X40798Y-07374D02*
X41083Y-07202D01*
X41298Y-07374D02*
X41012Y-07145D01*
X40798Y-07755D02*
X40798Y-07526D01*
X40798Y-07640D02*
X41298Y-07640D01*
X41226Y-07602D01*
X41179Y-07564D01*
X41155Y-07526D01*
X41845Y-08493D02*
X41821Y-08474D01*
X41798Y-08417D01*
X41798Y-08379D01*
X41821Y-08321D01*
X41869Y-08283D01*
X41917Y-08264D01*
X42012Y-08245D01*
X42083Y-08245D01*
X42179Y-08264D01*
X42226Y-08283D01*
X42274Y-08321D01*
X42298Y-08379D01*
X42298Y-08417D01*
X42274Y-08474D01*
X42250Y-08493D01*
X41821Y-08645D02*
X41798Y-08702D01*
X41798Y-08798D01*
X41821Y-08836D01*
X41845Y-08855D01*
X41893Y-08874D01*
X41940Y-08874D01*
X41988Y-08855D01*
X42012Y-08836D01*
X42036Y-08798D01*
X42060Y-08721D01*
X42083Y-08683D01*
X42107Y-08664D01*
X42155Y-08645D01*
X42202Y-08645D01*
X42250Y-08664D01*
X42274Y-08683D01*
X42298Y-08721D01*
X42298Y-08817D01*
X42274Y-08874D01*
X42298Y-09121D02*
X42298Y-09160D01*
X42274Y-09198D01*
X42250Y-09217D01*
X42202Y-09236D01*
X42107Y-09255D01*
X41988Y-09255D01*
X41893Y-09236D01*
X41845Y-09217D01*
X41821Y-09198D01*
X41798Y-09160D01*
X41798Y-09121D01*
X41821Y-09083D01*
X41845Y-09064D01*
X41893Y-09045D01*
X41988Y-09026D01*
X42107Y-09026D01*
X42202Y-09045D01*
X42250Y-09064D01*
X42274Y-09083D01*
X42298Y-09121D01*
X41821Y-06850D02*
X41798Y-06907D01*
X41798Y-07003D01*
X41821Y-07041D01*
X41845Y-07060D01*
X41893Y-07079D01*
X41940Y-07079D01*
X41988Y-07060D01*
X42012Y-07041D01*
X42036Y-07003D01*
X42060Y-06926D01*
X42083Y-06888D01*
X42107Y-06869D01*
X42155Y-06850D01*
X42202Y-06850D01*
X42250Y-06869D01*
X42274Y-06888D01*
X42298Y-06926D01*
X42298Y-07022D01*
X42274Y-07079D01*
X41798Y-07250D02*
X42298Y-07250D01*
X42298Y-07516D02*
X42298Y-07555D01*
X42274Y-07593D01*
X42250Y-07612D01*
X42202Y-07631D01*
X42107Y-07650D01*
X41988Y-07650D01*
X41893Y-07631D01*
X41845Y-07612D01*
X41821Y-07593D01*
X41798Y-07555D01*
X41798Y-07516D01*
X41821Y-07478D01*
X41845Y-07459D01*
X41893Y-07440D01*
X41988Y-07421D01*
X42107Y-07421D01*
X42202Y-07440D01*
X42250Y-07459D01*
X42274Y-07478D01*
X42298Y-07516D01*
X42821Y-08236D02*
X42798Y-08293D01*
X42798Y-08389D01*
X42821Y-08427D01*
X42845Y-08446D01*
X42893Y-08465D01*
X42940Y-08465D01*
X42988Y-08446D01*
X43012Y-08427D01*
X43036Y-08389D01*
X43060Y-08312D01*
X43083Y-08274D01*
X43107Y-08255D01*
X43155Y-08236D01*
X43202Y-08236D01*
X43250Y-08255D01*
X43274Y-08274D01*
X43298Y-08312D01*
X43298Y-08408D01*
X43274Y-08465D01*
X43298Y-08712D02*
X43298Y-08789D01*
X43274Y-08827D01*
X43226Y-08865D01*
X43131Y-08884D01*
X42964Y-08884D01*
X42869Y-08865D01*
X42821Y-08827D01*
X42798Y-08789D01*
X42798Y-08712D01*
X42821Y-08674D01*
X42869Y-08636D01*
X42964Y-08617D01*
X43131Y-08617D01*
X43226Y-08636D01*
X43274Y-08674D01*
X43298Y-08712D01*
X43298Y-09131D02*
X43298Y-09170D01*
X43274Y-09208D01*
X43250Y-09227D01*
X43202Y-09246D01*
X43107Y-09265D01*
X42988Y-09265D01*
X42893Y-09246D01*
X42845Y-09227D01*
X42821Y-09208D01*
X42798Y-09170D01*
X42798Y-09131D01*
X42821Y-09093D01*
X42845Y-09074D01*
X42893Y-09055D01*
X42988Y-09036D01*
X43107Y-09036D01*
X43202Y-09055D01*
X43250Y-09074D01*
X43274Y-09093D01*
X43298Y-09131D01*
X42821Y-06745D02*
X42798Y-06802D01*
X42798Y-06898D01*
X42821Y-06936D01*
X42845Y-06955D01*
X42893Y-06974D01*
X42940Y-06974D01*
X42988Y-06955D01*
X43012Y-06936D01*
X43036Y-06898D01*
X43060Y-06821D01*
X43083Y-06783D01*
X43107Y-06764D01*
X43155Y-06745D01*
X43202Y-06745D01*
X43250Y-06764D01*
X43274Y-06783D01*
X43298Y-06821D01*
X43298Y-06917D01*
X43274Y-06974D01*
X42798Y-07145D02*
X43298Y-07145D01*
X42798Y-07374D02*
X43083Y-07202D01*
X43298Y-07374D02*
X43012Y-07145D01*
X43298Y-07621D02*
X43298Y-07660D01*
X43274Y-07698D01*
X43250Y-07717D01*
X43202Y-07736D01*
X43107Y-07755D01*
X42988Y-07755D01*
X42893Y-07736D01*
X42845Y-07717D01*
X42821Y-07698D01*
X42798Y-07660D01*
X42798Y-07621D01*
X42821Y-07583D01*
X42845Y-07564D01*
X42893Y-07545D01*
X42988Y-07526D01*
X43107Y-07526D01*
X43202Y-07545D01*
X43250Y-07564D01*
X43274Y-07583D01*
X43298Y-07621D01*
G54D11*
X43500Y-06500D02*
X43500Y-09500D01*
X11500Y-06500D02*
X43500Y-06500D01*
X11500Y-09500D02*
X11500Y-06500D01*
X43500Y-37500D02*
X43500Y-34500D01*
X11500Y-37500D02*
X43500Y-37500D01*
X11500Y-34500D02*
X11500Y-37500D01*
G54D12*
X42905Y-29783D02*
X42905Y-29083D01*
X43024Y-29083D01*
X43096Y-29117D01*
X43143Y-29183D01*
X43167Y-29250D01*
X43191Y-29383D01*
X43191Y-29483D01*
X43167Y-29617D01*
X43143Y-29683D01*
X43096Y-29750D01*
X43024Y-29783D01*
X42905Y-29783D01*
X43572Y-29417D02*
X43405Y-29417D01*
X43405Y-29783D02*
X43405Y-29083D01*
X43643Y-29083D01*
G54D11*
X43900Y-29000D02*
X43900Y-37500D01*
X43900Y-06500D02*
X43900Y-21500D01*
G54D12*
X42893Y-20833D02*
X43178Y-20833D01*
X43035Y-21533D02*
X43035Y-20833D01*
X43512Y-21167D02*
X43345Y-21167D01*
X43345Y-21533D02*
X43345Y-20833D01*
X43583Y-20833D01*
X30298Y-24583D02*
X30464Y-25283D01*
X30631Y-24583D01*
X30774Y-25250D02*
X30846Y-25283D01*
X30965Y-25283D01*
X31012Y-25250D01*
X31036Y-25217D01*
X31060Y-25150D01*
X31060Y-25083D01*
X31036Y-25017D01*
X31012Y-24983D01*
X30965Y-24950D01*
X30869Y-24917D01*
X30822Y-24883D01*
X30798Y-24850D01*
X30774Y-24783D01*
X30774Y-24717D01*
X30798Y-24650D01*
X30822Y-24617D01*
X30869Y-24583D01*
X30989Y-24583D01*
X31060Y-24617D01*
X31441Y-24917D02*
X31274Y-24917D01*
X31274Y-25283D02*
X31274Y-24583D01*
X31512Y-24583D01*
X32084Y-24917D02*
X32251Y-24917D01*
X32322Y-25283D02*
X32084Y-25283D01*
X32084Y-24583D01*
X32322Y-24583D01*
X32536Y-25283D02*
X32536Y-24817D01*
X32536Y-24883D02*
X32560Y-24850D01*
X32607Y-24817D01*
X32679Y-24817D01*
X32727Y-24850D01*
X32750Y-24917D01*
X32750Y-25283D01*
X32750Y-24917D02*
X32774Y-24850D01*
X32822Y-24817D01*
X32893Y-24817D01*
X32941Y-24850D01*
X32965Y-24917D01*
X32965Y-25283D01*
X33203Y-25283D02*
X33203Y-24583D01*
X33203Y-24850D02*
X33251Y-24817D01*
X33346Y-24817D01*
X33394Y-24850D01*
X33417Y-24883D01*
X33441Y-24950D01*
X33441Y-25150D01*
X33417Y-25217D01*
X33394Y-25250D01*
X33346Y-25283D01*
X33251Y-25283D01*
X33203Y-25250D01*
X33846Y-25250D02*
X33798Y-25283D01*
X33703Y-25283D01*
X33655Y-25250D01*
X33631Y-25183D01*
X33631Y-24917D01*
X33655Y-24850D01*
X33703Y-24817D01*
X33798Y-24817D01*
X33846Y-24850D01*
X33869Y-24917D01*
X33869Y-24983D01*
X33631Y-25050D01*
X34298Y-25283D02*
X34298Y-24583D01*
X34298Y-25250D02*
X34251Y-25283D01*
X34155Y-25283D01*
X34108Y-25250D01*
X34084Y-25217D01*
X34060Y-25150D01*
X34060Y-24950D01*
X34084Y-24883D01*
X34108Y-24850D01*
X34155Y-24817D01*
X34251Y-24817D01*
X34298Y-24850D01*
X34750Y-25283D02*
X34750Y-24583D01*
X34750Y-25250D02*
X34703Y-25283D01*
X34607Y-25283D01*
X34560Y-25250D01*
X34536Y-25217D01*
X34512Y-25150D01*
X34512Y-24950D01*
X34536Y-24883D01*
X34560Y-24850D01*
X34607Y-24817D01*
X34703Y-24817D01*
X34750Y-24850D01*
X35179Y-25250D02*
X35131Y-25283D01*
X35036Y-25283D01*
X34988Y-25250D01*
X34964Y-25183D01*
X34964Y-24917D01*
X34988Y-24850D01*
X35036Y-24817D01*
X35131Y-24817D01*
X35179Y-24850D01*
X35202Y-24917D01*
X35202Y-24983D01*
X34964Y-25050D01*
X35631Y-25283D02*
X35631Y-24583D01*
X35631Y-25250D02*
X35584Y-25283D01*
X35488Y-25283D01*
X35441Y-25250D01*
X35417Y-25217D01*
X35393Y-25150D01*
X35393Y-24950D01*
X35417Y-24883D01*
X35441Y-24850D01*
X35488Y-24817D01*
X35584Y-24817D01*
X35631Y-24850D01*
X29452Y-25897D02*
X29548Y-26363D01*
X29643Y-26030D01*
X29738Y-26363D01*
X29833Y-25897D01*
X29976Y-25897D02*
X30072Y-26363D01*
X30167Y-26030D01*
X30262Y-26363D01*
X30357Y-25897D01*
X30500Y-25897D02*
X30596Y-26363D01*
X30691Y-26030D01*
X30786Y-26363D01*
X30881Y-25897D01*
X31072Y-26297D02*
X31096Y-26330D01*
X31072Y-26363D01*
X31048Y-26330D01*
X31072Y-26297D01*
X31072Y-26363D01*
X31239Y-25663D02*
X31405Y-26363D01*
X31572Y-25663D01*
X31930Y-26330D02*
X31882Y-26363D01*
X31787Y-26363D01*
X31739Y-26330D01*
X31715Y-26263D01*
X31715Y-25997D01*
X31739Y-25930D01*
X31787Y-25897D01*
X31882Y-25897D01*
X31930Y-25930D01*
X31953Y-25997D01*
X31953Y-26063D01*
X31715Y-26130D01*
X32168Y-26363D02*
X32168Y-25897D01*
X32168Y-26030D02*
X32192Y-25963D01*
X32216Y-25930D01*
X32263Y-25897D01*
X32311Y-25897D01*
X32454Y-26330D02*
X32502Y-26363D01*
X32597Y-26363D01*
X32645Y-26330D01*
X32669Y-26263D01*
X32669Y-26230D01*
X32645Y-26163D01*
X32597Y-26130D01*
X32526Y-26130D01*
X32478Y-26097D01*
X32454Y-26030D01*
X32454Y-25997D01*
X32478Y-25930D01*
X32526Y-25897D01*
X32597Y-25897D01*
X32645Y-25930D01*
X33097Y-26363D02*
X33097Y-25997D01*
X33074Y-25930D01*
X33026Y-25897D01*
X32931Y-25897D01*
X32883Y-25930D01*
X33097Y-26330D02*
X33050Y-26363D01*
X32931Y-26363D01*
X32883Y-26330D01*
X32859Y-26263D01*
X32859Y-26197D01*
X32883Y-26130D01*
X32931Y-26097D01*
X33050Y-26097D01*
X33097Y-26063D01*
X33406Y-26363D02*
X33359Y-26330D01*
X33335Y-26263D01*
X33335Y-25663D01*
X33668Y-26363D02*
X33621Y-26330D01*
X33597Y-26297D01*
X33573Y-26230D01*
X33573Y-26030D01*
X33597Y-25963D01*
X33621Y-25930D01*
X33668Y-25897D01*
X33740Y-25897D01*
X33788Y-25930D01*
X33811Y-25963D01*
X33835Y-26030D01*
X33835Y-26230D01*
X33811Y-26297D01*
X33788Y-26330D01*
X33740Y-26363D01*
X33668Y-26363D01*
X34120Y-26363D02*
X34073Y-26330D01*
X34049Y-26297D01*
X34025Y-26230D01*
X34025Y-26030D01*
X34049Y-25963D01*
X34073Y-25930D01*
X34120Y-25897D01*
X34192Y-25897D01*
X34240Y-25930D01*
X34263Y-25963D01*
X34287Y-26030D01*
X34287Y-26230D01*
X34263Y-26297D01*
X34240Y-26330D01*
X34192Y-26363D01*
X34120Y-26363D01*
X34501Y-25897D02*
X34501Y-26363D01*
X34501Y-25963D02*
X34525Y-25930D01*
X34572Y-25897D01*
X34644Y-25897D01*
X34692Y-25930D01*
X34715Y-25997D01*
X34715Y-26363D01*
X34953Y-26297D02*
X34977Y-26330D01*
X34953Y-26363D01*
X34929Y-26330D01*
X34953Y-26297D01*
X34953Y-26363D01*
X35405Y-26330D02*
X35358Y-26363D01*
X35262Y-26363D01*
X35215Y-26330D01*
X35191Y-26297D01*
X35167Y-26230D01*
X35167Y-26030D01*
X35191Y-25963D01*
X35215Y-25930D01*
X35262Y-25897D01*
X35358Y-25897D01*
X35405Y-25930D01*
X35691Y-26363D02*
X35644Y-26330D01*
X35620Y-26297D01*
X35596Y-26230D01*
X35596Y-26030D01*
X35620Y-25963D01*
X35644Y-25930D01*
X35691Y-25897D01*
X35763Y-25897D01*
X35811Y-25930D01*
X35834Y-25963D01*
X35858Y-26030D01*
X35858Y-26230D01*
X35834Y-26297D01*
X35811Y-26330D01*
X35763Y-26363D01*
X35691Y-26363D01*
X36072Y-26363D02*
X36072Y-25897D01*
X36072Y-25963D02*
X36096Y-25930D01*
X36143Y-25897D01*
X36215Y-25897D01*
X36263Y-25930D01*
X36286Y-25997D01*
X36286Y-26363D01*
X36286Y-25997D02*
X36310Y-25930D01*
X36358Y-25897D01*
X36429Y-25897D01*
X36477Y-25930D01*
X36501Y-25997D01*
X36501Y-26363D01*
X30953Y-27890D02*
X30977Y-27857D01*
X31025Y-27823D01*
X31144Y-27823D01*
X31191Y-27857D01*
X31215Y-27890D01*
X31239Y-27957D01*
X31239Y-28023D01*
X31215Y-28123D01*
X30929Y-28523D01*
X31239Y-28523D01*
X31548Y-27823D02*
X31596Y-27823D01*
X31644Y-27857D01*
X31667Y-27890D01*
X31691Y-27957D01*
X31715Y-28090D01*
X31715Y-28257D01*
X31691Y-28390D01*
X31667Y-28457D01*
X31644Y-28490D01*
X31596Y-28523D01*
X31548Y-28523D01*
X31501Y-28490D01*
X31477Y-28457D01*
X31453Y-28390D01*
X31429Y-28257D01*
X31429Y-28090D01*
X31453Y-27957D01*
X31477Y-27890D01*
X31501Y-27857D01*
X31548Y-27823D01*
X32191Y-28523D02*
X31905Y-28523D01*
X32048Y-28523D02*
X32048Y-27823D01*
X32000Y-27923D01*
X31953Y-27990D01*
X31905Y-28023D01*
X32381Y-27890D02*
X32405Y-27857D01*
X32453Y-27823D01*
X32572Y-27823D01*
X32619Y-27857D01*
X32643Y-27890D01*
X32667Y-27957D01*
X32667Y-28023D01*
X32643Y-28123D01*
X32357Y-28523D01*
X32667Y-28523D01*
X32881Y-28457D02*
X32905Y-28490D01*
X32881Y-28523D01*
X32857Y-28490D01*
X32881Y-28457D01*
X32881Y-28523D01*
X33214Y-27823D02*
X33262Y-27823D01*
X33310Y-27857D01*
X33333Y-27890D01*
X33357Y-27957D01*
X33381Y-28090D01*
X33381Y-28257D01*
X33357Y-28390D01*
X33333Y-28457D01*
X33310Y-28490D01*
X33262Y-28523D01*
X33214Y-28523D01*
X33167Y-28490D01*
X33143Y-28457D01*
X33119Y-28390D01*
X33095Y-28257D01*
X33095Y-28090D01*
X33119Y-27957D01*
X33143Y-27890D01*
X33167Y-27857D01*
X33214Y-27823D01*
X33619Y-28523D02*
X33714Y-28523D01*
X33762Y-28490D01*
X33786Y-28457D01*
X33833Y-28357D01*
X33857Y-28223D01*
X33857Y-27957D01*
X33833Y-27890D01*
X33809Y-27857D01*
X33762Y-27823D01*
X33666Y-27823D01*
X33619Y-27857D01*
X33595Y-27890D01*
X33571Y-27957D01*
X33571Y-28123D01*
X33595Y-28190D01*
X33619Y-28223D01*
X33666Y-28257D01*
X33762Y-28257D01*
X33809Y-28223D01*
X33833Y-28190D01*
X33857Y-28123D01*
X34071Y-28457D02*
X34095Y-28490D01*
X34071Y-28523D01*
X34047Y-28490D01*
X34071Y-28457D01*
X34071Y-28523D01*
X34571Y-28523D02*
X34285Y-28523D01*
X34428Y-28523D02*
X34428Y-27823D01*
X34380Y-27923D01*
X34333Y-27990D01*
X34285Y-28023D01*
X34737Y-27823D02*
X35047Y-27823D01*
X34880Y-28090D01*
X34952Y-28090D01*
X34999Y-28123D01*
X35023Y-28157D01*
X35047Y-28223D01*
X35047Y-28390D01*
X35023Y-28457D01*
X34999Y-28490D01*
X34952Y-28523D01*
X34809Y-28523D01*
X34761Y-28490D01*
X34737Y-28457D01*
X30680Y-29237D02*
X30751Y-29270D01*
X30775Y-29303D01*
X30799Y-29370D01*
X30799Y-29470D01*
X30775Y-29537D01*
X30751Y-29570D01*
X30704Y-29603D01*
X30513Y-29603D01*
X30513Y-28903D01*
X30680Y-28903D01*
X30727Y-28937D01*
X30751Y-28970D01*
X30775Y-29037D01*
X30775Y-29103D01*
X30751Y-29170D01*
X30727Y-29203D01*
X30680Y-29237D01*
X30513Y-29237D01*
X30965Y-29137D02*
X31084Y-29603D01*
X31204Y-29137D02*
X31084Y-29603D01*
X31037Y-29770D01*
X31013Y-29803D01*
X30965Y-29837D01*
X31751Y-29570D02*
X31823Y-29603D01*
X31942Y-29603D01*
X31989Y-29570D01*
X32013Y-29537D01*
X32037Y-29470D01*
X32037Y-29403D01*
X32013Y-29337D01*
X31989Y-29303D01*
X31942Y-29270D01*
X31846Y-29237D01*
X31799Y-29203D01*
X31775Y-29170D01*
X31751Y-29103D01*
X31751Y-29037D01*
X31775Y-28970D01*
X31799Y-28937D01*
X31846Y-28903D01*
X31966Y-28903D01*
X32037Y-28937D01*
X32251Y-29603D02*
X32251Y-29137D01*
X32251Y-28903D02*
X32227Y-28937D01*
X32251Y-28970D01*
X32275Y-28937D01*
X32251Y-28903D01*
X32251Y-28970D01*
X32489Y-29603D02*
X32489Y-29137D01*
X32489Y-29203D02*
X32513Y-29170D01*
X32560Y-29137D01*
X32632Y-29137D01*
X32680Y-29170D01*
X32703Y-29237D01*
X32703Y-29603D01*
X32703Y-29237D02*
X32727Y-29170D01*
X32775Y-29137D01*
X32846Y-29137D01*
X32894Y-29170D01*
X32918Y-29237D01*
X32918Y-29603D01*
X33227Y-29603D02*
X33180Y-29570D01*
X33156Y-29537D01*
X33132Y-29470D01*
X33132Y-29270D01*
X33156Y-29203D01*
X33180Y-29170D01*
X33227Y-29137D01*
X33299Y-29137D01*
X33347Y-29170D01*
X33370Y-29203D01*
X33394Y-29270D01*
X33394Y-29470D01*
X33370Y-29537D01*
X33347Y-29570D01*
X33299Y-29603D01*
X33227Y-29603D01*
X33608Y-29137D02*
X33608Y-29603D01*
X33608Y-29203D02*
X33632Y-29170D01*
X33679Y-29137D01*
X33751Y-29137D01*
X33799Y-29170D01*
X33822Y-29237D01*
X33822Y-29603D01*
X34393Y-29670D02*
X34346Y-29637D01*
X34298Y-29570D01*
X34227Y-29470D01*
X34179Y-29437D01*
X34131Y-29437D01*
X34155Y-29603D02*
X34108Y-29570D01*
X34060Y-29503D01*
X34036Y-29370D01*
X34036Y-29137D01*
X34060Y-29003D01*
X34108Y-28937D01*
X34155Y-28903D01*
X34251Y-28903D01*
X34298Y-28937D01*
X34346Y-29003D01*
X34370Y-29137D01*
X34370Y-29370D01*
X34346Y-29503D01*
X34298Y-29570D01*
X34251Y-29603D01*
X34155Y-29603D01*
X34584Y-29603D02*
X34584Y-29137D01*
X34584Y-28903D02*
X34560Y-28937D01*
X34584Y-28970D01*
X34608Y-28937D01*
X34584Y-28903D01*
X34584Y-28970D01*
X35036Y-29603D02*
X35036Y-29237D01*
X35013Y-29170D01*
X34965Y-29137D01*
X34870Y-29137D01*
X34822Y-29170D01*
X35036Y-29570D02*
X34989Y-29603D01*
X34870Y-29603D01*
X34822Y-29570D01*
X34798Y-29503D01*
X34798Y-29437D01*
X34822Y-29370D01*
X34870Y-29337D01*
X34989Y-29337D01*
X35036Y-29303D01*
X35274Y-29137D02*
X35274Y-29603D01*
X35274Y-29203D02*
X35298Y-29170D01*
X35345Y-29137D01*
X35417Y-29137D01*
X35465Y-29170D01*
X35488Y-29237D01*
X35488Y-29603D01*
X44750Y-37500D02*
X44783Y-37428D01*
X44783Y-37309D01*
X44750Y-37262D01*
X44717Y-37238D01*
X44650Y-37214D01*
X44583Y-37214D01*
X44517Y-37238D01*
X44483Y-37262D01*
X44450Y-37309D01*
X44417Y-37405D01*
X44383Y-37452D01*
X44350Y-37476D01*
X44283Y-37500D01*
X44217Y-37500D01*
X44150Y-37476D01*
X44117Y-37452D01*
X44083Y-37405D01*
X44083Y-37285D01*
X44117Y-37214D01*
X44783Y-37000D02*
X44083Y-37000D01*
X44083Y-36809D01*
X44117Y-36762D01*
X44150Y-36738D01*
X44217Y-36714D01*
X44317Y-36714D01*
X44383Y-36738D01*
X44417Y-36762D01*
X44450Y-36809D01*
X44450Y-37000D01*
X44783Y-36500D02*
X44083Y-36500D01*
X44083Y-36167D02*
X44083Y-36119D01*
X44117Y-36071D01*
X44150Y-36048D01*
X44217Y-36024D01*
X44350Y-36000D01*
X44517Y-36000D01*
X44650Y-36024D01*
X44717Y-36048D01*
X44750Y-36071D01*
X44783Y-36119D01*
X44783Y-36167D01*
X44750Y-36214D01*
X44717Y-36238D01*
X44650Y-36262D01*
X44517Y-36286D01*
X44350Y-36286D01*
X44217Y-36262D01*
X44150Y-36238D01*
X44117Y-36214D01*
X44083Y-36167D01*
X44750Y-30500D02*
X44783Y-30428D01*
X44783Y-30309D01*
X44750Y-30262D01*
X44717Y-30238D01*
X44650Y-30214D01*
X44583Y-30214D01*
X44517Y-30238D01*
X44483Y-30262D01*
X44450Y-30309D01*
X44417Y-30405D01*
X44383Y-30452D01*
X44350Y-30476D01*
X44283Y-30500D01*
X44217Y-30500D01*
X44150Y-30476D01*
X44117Y-30452D01*
X44083Y-30405D01*
X44083Y-30285D01*
X44117Y-30214D01*
X44783Y-30000D02*
X44083Y-30000D01*
X44083Y-29809D01*
X44117Y-29762D01*
X44150Y-29738D01*
X44217Y-29714D01*
X44317Y-29714D01*
X44383Y-29738D01*
X44417Y-29762D01*
X44450Y-29809D01*
X44450Y-30000D01*
X44783Y-29500D02*
X44083Y-29500D01*
X44783Y-29000D02*
X44783Y-29286D01*
X44783Y-29143D02*
X44083Y-29143D01*
X44183Y-29191D01*
X44250Y-29238D01*
X44283Y-29286D01*
X15033Y-21869D02*
X14333Y-21869D01*
X15033Y-21583D01*
X14333Y-21583D01*
X14833Y-21369D02*
X14833Y-21131D01*
X15033Y-21416D02*
X14333Y-21250D01*
X15033Y-21083D01*
X15033Y-20916D02*
X14333Y-20916D01*
X15033Y-20630D01*
X14333Y-20630D01*
X15033Y-20392D02*
X14333Y-20392D01*
X14333Y-20273D01*
X14367Y-20201D01*
X14433Y-20154D01*
X14500Y-20130D01*
X14633Y-20106D01*
X14733Y-20106D01*
X14867Y-20130D01*
X14933Y-20154D01*
X15000Y-20201D01*
X15033Y-20273D01*
X15033Y-20392D01*
X15000Y-25893D02*
X15033Y-25821D01*
X15033Y-25702D01*
X15000Y-25655D01*
X14967Y-25631D01*
X14900Y-25607D01*
X14833Y-25607D01*
X14767Y-25631D01*
X14733Y-25655D01*
X14700Y-25702D01*
X14667Y-25798D01*
X14633Y-25845D01*
X14600Y-25869D01*
X14533Y-25893D01*
X14467Y-25893D01*
X14400Y-25869D01*
X14367Y-25845D01*
X14333Y-25798D01*
X14333Y-25678D01*
X14367Y-25607D01*
X15033Y-25107D02*
X14700Y-25274D01*
X15033Y-25393D02*
X14333Y-25393D01*
X14333Y-25202D01*
X14367Y-25155D01*
X14400Y-25131D01*
X14467Y-25107D01*
X14567Y-25107D01*
X14633Y-25131D01*
X14667Y-25155D01*
X14700Y-25202D01*
X14700Y-25393D01*
X14833Y-24917D02*
X14833Y-24679D01*
X15033Y-24964D02*
X14333Y-24798D01*
X15033Y-24631D01*
X15033Y-24464D02*
X14333Y-24464D01*
X14833Y-24297D01*
X14333Y-24131D01*
X15033Y-24131D01*
X15033Y-29655D02*
X14333Y-29655D01*
X15033Y-29369D01*
X14333Y-29369D01*
X14333Y-29036D02*
X14333Y-28940D01*
X14367Y-28893D01*
X14433Y-28845D01*
X14567Y-28821D01*
X14800Y-28821D01*
X14933Y-28845D01*
X15000Y-28893D01*
X15033Y-28940D01*
X15033Y-29036D01*
X15000Y-29083D01*
X14933Y-29131D01*
X14800Y-29155D01*
X14567Y-29155D01*
X14433Y-29131D01*
X14367Y-29083D01*
X14333Y-29036D01*
X15033Y-28321D02*
X14700Y-28488D01*
X15033Y-28607D02*
X14333Y-28607D01*
X14333Y-28416D01*
X14367Y-28369D01*
X14400Y-28345D01*
X14467Y-28321D01*
X14567Y-28321D01*
X14633Y-28345D01*
X14667Y-28369D01*
X14700Y-28416D01*
X14700Y-28607D01*
X36977Y-23467D02*
X36953Y-23500D01*
X36882Y-23533D01*
X36834Y-23533D01*
X36762Y-23500D01*
X36715Y-23433D01*
X36691Y-23367D01*
X36667Y-23233D01*
X36667Y-23133D01*
X36691Y-23000D01*
X36715Y-22933D01*
X36762Y-22867D01*
X36834Y-22833D01*
X36882Y-22833D01*
X36953Y-22867D01*
X36977Y-22900D01*
X37429Y-23533D02*
X37191Y-23533D01*
X37191Y-22833D01*
X37596Y-23167D02*
X37763Y-23167D01*
X37834Y-23533D02*
X37596Y-23533D01*
X37596Y-22833D01*
X37834Y-22833D01*
X38202Y-23333D02*
X38440Y-23333D01*
X38155Y-23533D02*
X38321Y-22833D01*
X38488Y-23533D01*
X38893Y-23533D02*
X38655Y-23533D01*
X38655Y-22833D01*
X39060Y-23167D02*
X39227Y-23167D01*
X39298Y-23533D02*
X39060Y-23533D01*
X39060Y-22833D01*
X39298Y-22833D01*
X44750Y-21524D02*
X44783Y-21452D01*
X44783Y-21333D01*
X44750Y-21286D01*
X44717Y-21262D01*
X44650Y-21238D01*
X44583Y-21238D01*
X44517Y-21262D01*
X44483Y-21286D01*
X44450Y-21333D01*
X44417Y-21429D01*
X44383Y-21476D01*
X44350Y-21500D01*
X44283Y-21524D01*
X44217Y-21524D01*
X44150Y-21500D01*
X44117Y-21476D01*
X44083Y-21429D01*
X44083Y-21309D01*
X44117Y-21238D01*
X44783Y-21024D02*
X44083Y-21024D01*
X44083Y-20905D01*
X44117Y-20833D01*
X44183Y-20786D01*
X44250Y-20762D01*
X44383Y-20738D01*
X44483Y-20738D01*
X44617Y-20762D01*
X44683Y-20786D01*
X44750Y-20833D01*
X44783Y-20905D01*
X44783Y-21024D01*
X44783Y-20524D02*
X44083Y-20524D01*
X44083Y-20191D02*
X44083Y-20095D01*
X44117Y-20048D01*
X44183Y-20000D01*
X44317Y-19976D01*
X44550Y-19976D01*
X44683Y-20000D01*
X44750Y-20048D01*
X44783Y-20095D01*
X44783Y-20191D01*
X44750Y-20238D01*
X44683Y-20286D01*
X44550Y-20310D01*
X44317Y-20310D01*
X44183Y-20286D01*
X44117Y-20238D01*
X44083Y-20191D01*
X44750Y-15000D02*
X44783Y-14928D01*
X44783Y-14809D01*
X44750Y-14762D01*
X44717Y-14738D01*
X44650Y-14714D01*
X44583Y-14714D01*
X44517Y-14738D01*
X44483Y-14762D01*
X44450Y-14809D01*
X44417Y-14905D01*
X44383Y-14952D01*
X44350Y-14976D01*
X44283Y-15000D01*
X44217Y-15000D01*
X44150Y-14976D01*
X44117Y-14952D01*
X44083Y-14905D01*
X44083Y-14785D01*
X44117Y-14714D01*
X44783Y-14500D02*
X44083Y-14500D01*
X44083Y-14309D01*
X44117Y-14262D01*
X44150Y-14238D01*
X44217Y-14214D01*
X44317Y-14214D01*
X44383Y-14238D01*
X44417Y-14262D01*
X44450Y-14309D01*
X44450Y-14500D01*
X44783Y-14000D02*
X44083Y-14000D01*
X44083Y-13667D02*
X44083Y-13619D01*
X44117Y-13571D01*
X44150Y-13548D01*
X44217Y-13524D01*
X44350Y-13500D01*
X44517Y-13500D01*
X44650Y-13524D01*
X44717Y-13548D01*
X44750Y-13571D01*
X44783Y-13619D01*
X44783Y-13667D01*
X44750Y-13714D01*
X44717Y-13738D01*
X44650Y-13762D01*
X44517Y-13786D01*
X44350Y-13786D01*
X44217Y-13762D01*
X44150Y-13738D01*
X44117Y-13714D01*
X44083Y-13667D01*
X44750Y-10500D02*
X44783Y-10428D01*
X44783Y-10309D01*
X44750Y-10262D01*
X44717Y-10238D01*
X44650Y-10214D01*
X44583Y-10214D01*
X44517Y-10238D01*
X44483Y-10262D01*
X44450Y-10309D01*
X44417Y-10405D01*
X44383Y-10452D01*
X44350Y-10476D01*
X44283Y-10500D01*
X44217Y-10500D01*
X44150Y-10476D01*
X44117Y-10452D01*
X44083Y-10405D01*
X44083Y-10285D01*
X44117Y-10214D01*
X44783Y-10000D02*
X44083Y-10000D01*
X44083Y-09809D01*
X44117Y-09762D01*
X44150Y-09738D01*
X44217Y-09714D01*
X44317Y-09714D01*
X44383Y-09738D01*
X44417Y-09762D01*
X44450Y-09809D01*
X44450Y-10000D01*
X44783Y-09500D02*
X44083Y-09500D01*
X44783Y-09000D02*
X44783Y-09286D01*
X44783Y-09143D02*
X44083Y-09143D01*
X44183Y-09191D01*
X44250Y-09238D01*
X44283Y-09286D01*
X17600Y-28800D02*
X17600Y-23200D01*
X24600Y-23200D02*
X24600Y-28800D01*
X17600Y-23200D02*
X24600Y-23200D01*
X24600Y-28800D02*
X17600Y-28800D01*
X18100Y-23600D02*
X18098Y-23619D01*
X18092Y-23638D01*
X18083Y-23655D01*
X18070Y-23670D01*
X18055Y-23682D01*
X18038Y-23692D01*
X18020Y-23697D01*
X18000Y-23699D01*
X17982Y-23698D01*
X17963Y-23692D01*
X17946Y-23683D01*
X17931Y-23671D01*
X17918Y-23656D01*
X17909Y-23639D01*
X17903Y-23620D01*
X17901Y-23601D01*
X17902Y-23582D01*
X17908Y-23564D01*
X17916Y-23546D01*
X17929Y-23531D01*
X17943Y-23518D01*
X17960Y-23509D01*
X17979Y-23503D01*
X17998Y-23501D01*
X18017Y-23502D01*
X18036Y-23507D01*
X18053Y-23516D01*
X18068Y-23528D01*
X18081Y-23543D01*
X18091Y-23560D01*
X18097Y-23578D01*
X18099Y-23598D01*
X18100Y-23600D01*
X29500Y-15100D02*
X29500Y-19900D01*
X36500Y-19900D02*
X36500Y-15100D01*
X36500Y-15100D02*
X29500Y-15100D01*
X36500Y-19900D02*
X29500Y-19900D01*
X36200Y-19500D02*
X36198Y-19519D01*
X36192Y-19538D01*
X36183Y-19555D01*
X36170Y-19570D01*
X36155Y-19582D01*
X36138Y-19592D01*
X36120Y-19597D01*
X36100Y-19599D01*
X36082Y-19598D01*
X36063Y-19592D01*
X36046Y-19583D01*
X36031Y-19571D01*
X36018Y-19556D01*
X36009Y-19539D01*
X36003Y-19520D01*
X36001Y-19501D01*
X36002Y-19482D01*
X36008Y-19464D01*
X36016Y-19446D01*
X36029Y-19431D01*
X36043Y-19418D01*
X36060Y-19409D01*
X36079Y-19403D01*
X36098Y-19401D01*
X36117Y-19402D01*
X36136Y-19407D01*
X36153Y-19416D01*
X36168Y-19428D01*
X36181Y-19443D01*
X36191Y-19460D01*
X36197Y-19478D01*
X36199Y-19498D01*
X36200Y-19500D01*
G54D13*
X38050Y-28900D02*
X37550Y-28900D01*
X37550Y-28900D02*
X37550Y-29600D01*
X37550Y-29600D02*
X38050Y-29600D01*
X38450Y-28900D02*
X38950Y-28900D01*
X38950Y-28900D02*
X38950Y-29600D01*
X38950Y-29600D02*
X38450Y-29600D01*
G54D14*
X47000Y-15500D02*
X47000Y-21500D01*
X47000Y-21500D02*
X45000Y-21500D01*
X45000Y-21500D02*
X45000Y-15500D01*
X45000Y-15500D02*
X47000Y-15500D01*
X47000Y-11000D02*
X47000Y-15000D01*
X47000Y-15000D02*
X45000Y-15000D01*
X45000Y-15000D02*
X45000Y-11000D01*
X45000Y-11000D02*
X47000Y-11000D01*
X47000Y-06500D02*
X47000Y-10500D01*
X47000Y-10500D02*
X45000Y-10500D01*
X45000Y-10500D02*
X45000Y-06500D01*
X45000Y-06500D02*
X47000Y-06500D01*
G54D15*
X41600Y-21150D02*
X42800Y-21150D01*
X42800Y-21150D02*
X42800Y-18350D01*
X42800Y-18350D02*
X41600Y-18350D01*
X40400Y-21150D02*
X40100Y-21150D01*
X40100Y-21150D02*
X39200Y-20550D01*
X39200Y-20550D02*
X39200Y-18950D01*
X39200Y-18950D02*
X40100Y-18350D01*
X40100Y-18350D02*
X40400Y-18350D01*
G54D13*
X42220Y-16850D02*
X42218Y-16863D01*
X42214Y-16876D01*
X42208Y-16888D01*
X42199Y-16899D01*
X42189Y-16908D01*
X42177Y-16914D01*
X42164Y-16918D01*
X42150Y-16919D01*
X42137Y-16918D01*
X42124Y-16914D01*
X42112Y-16908D01*
X42102Y-16900D01*
X42093Y-16889D01*
X42086Y-16877D01*
X42082Y-16864D01*
X42081Y-16850D01*
X42082Y-16838D01*
X42085Y-16825D01*
X42092Y-16813D01*
X42100Y-16802D01*
X42111Y-16793D01*
X42122Y-16786D01*
X42135Y-16782D01*
X42149Y-16781D01*
X42162Y-16782D01*
X42175Y-16785D01*
X42187Y-16791D01*
X42198Y-16800D01*
X42207Y-16810D01*
X42213Y-16822D01*
X42218Y-16835D01*
X42219Y-16849D01*
X42220Y-16850D01*
X40650Y-16900D02*
X39900Y-16900D01*
X39900Y-16900D02*
X39900Y-18100D01*
X39900Y-18100D02*
X40650Y-18100D01*
X41300Y-18100D02*
X42100Y-18100D01*
X42100Y-18100D02*
X42100Y-16900D01*
X42100Y-16900D02*
X41300Y-16900D01*
X42220Y-21350D02*
X42218Y-21363D01*
X42214Y-21376D01*
X42208Y-21388D01*
X42199Y-21399D01*
X42189Y-21408D01*
X42177Y-21414D01*
X42164Y-21418D01*
X42150Y-21419D01*
X42137Y-21418D01*
X42124Y-21414D01*
X42112Y-21408D01*
X42102Y-21400D01*
X42093Y-21389D01*
X42086Y-21377D01*
X42082Y-21364D01*
X42081Y-21350D01*
X42082Y-21338D01*
X42085Y-21325D01*
X42092Y-21313D01*
X42100Y-21302D01*
X42111Y-21293D01*
X42122Y-21286D01*
X42135Y-21282D01*
X42149Y-21281D01*
X42162Y-21282D01*
X42175Y-21285D01*
X42187Y-21291D01*
X42198Y-21300D01*
X42207Y-21310D01*
X42213Y-21322D01*
X42218Y-21335D01*
X42219Y-21349D01*
X42220Y-21350D01*
X40650Y-21400D02*
X39900Y-21400D01*
X39900Y-21400D02*
X39900Y-22600D01*
X39900Y-22600D02*
X40650Y-22600D01*
X41300Y-22600D02*
X42100Y-22600D01*
X42100Y-22600D02*
X42100Y-21400D01*
X42100Y-21400D02*
X41300Y-21400D01*
X21300Y-14450D02*
X21800Y-14450D01*
X21800Y-14450D02*
X21800Y-13750D01*
X21800Y-13750D02*
X21300Y-13750D01*
X20900Y-14450D02*
X20400Y-14450D01*
X20400Y-14450D02*
X20400Y-13750D01*
X20400Y-13750D02*
X20900Y-13750D01*
X37650Y-17800D02*
X37650Y-18300D01*
X37650Y-18300D02*
X38350Y-18300D01*
X38350Y-18300D02*
X38350Y-17800D01*
X37650Y-17400D02*
X37650Y-16900D01*
X37650Y-16900D02*
X38350Y-16900D01*
X38350Y-16900D02*
X38350Y-17400D01*
X27750Y-17900D02*
X27750Y-18400D01*
X27750Y-18400D02*
X28450Y-18400D01*
X28450Y-18400D02*
X28450Y-17900D01*
X27750Y-17500D02*
X27750Y-17000D01*
X27750Y-17000D02*
X28450Y-17000D01*
X28450Y-17000D02*
X28450Y-17500D01*
X38050Y-27900D02*
X37550Y-27900D01*
X37550Y-27900D02*
X37550Y-28600D01*
X37550Y-28600D02*
X38050Y-28600D01*
X38450Y-27900D02*
X38950Y-27900D01*
X38950Y-27900D02*
X38950Y-28600D01*
X38950Y-28600D02*
X38450Y-28600D01*
X26550Y-29000D02*
X26550Y-29500D01*
X26550Y-29500D02*
X27250Y-29500D01*
X27250Y-29500D02*
X27250Y-29000D01*
X26550Y-28600D02*
X26550Y-28100D01*
X26550Y-28100D02*
X27250Y-28100D01*
X27250Y-28100D02*
X27250Y-28600D01*
X21100Y-20150D02*
X20600Y-20150D01*
X20600Y-20150D02*
X20600Y-20850D01*
X20600Y-20850D02*
X21100Y-20850D01*
X21500Y-20150D02*
X22000Y-20150D01*
X22000Y-20150D02*
X22000Y-20850D01*
X22000Y-20850D02*
X21500Y-20850D01*
X25650Y-29000D02*
X25650Y-29500D01*
X25650Y-29500D02*
X26350Y-29500D01*
X26350Y-29500D02*
X26350Y-29000D01*
X25650Y-28600D02*
X25650Y-28100D01*
X25650Y-28100D02*
X26350Y-28100D01*
X26350Y-28100D02*
X26350Y-28600D01*
X15700Y-25250D02*
X15200Y-25250D01*
X15200Y-25250D02*
X15200Y-25950D01*
X15200Y-25950D02*
X15700Y-25950D01*
X16100Y-25250D02*
X16600Y-25250D01*
X16600Y-25250D02*
X16600Y-25950D01*
X16600Y-25950D02*
X16100Y-25950D01*
X26850Y-23100D02*
X26850Y-22600D01*
X26850Y-22600D02*
X26150Y-22600D01*
X26150Y-22600D02*
X26150Y-23100D01*
X26850Y-23500D02*
X26850Y-24000D01*
X26850Y-24000D02*
X26150Y-24000D01*
X26150Y-24000D02*
X26150Y-23500D01*
X37650Y-19500D02*
X37650Y-20000D01*
X37650Y-20000D02*
X38350Y-20000D01*
X38350Y-20000D02*
X38350Y-19500D01*
X37650Y-19100D02*
X37650Y-18600D01*
X37650Y-18600D02*
X38350Y-18600D01*
X38350Y-18600D02*
X38350Y-19100D01*
X26150Y-25200D02*
X26150Y-25700D01*
X26150Y-25700D02*
X26850Y-25700D01*
X26850Y-25700D02*
X26850Y-25200D01*
X26150Y-24800D02*
X26150Y-24300D01*
X26150Y-24300D02*
X26850Y-24300D01*
X26850Y-24300D02*
X26850Y-24800D01*
X40950Y-23350D02*
X41450Y-23350D01*
X41450Y-23350D02*
X41450Y-22650D01*
X41450Y-22650D02*
X40950Y-22650D01*
X40550Y-23350D02*
X40050Y-23350D01*
X40050Y-23350D02*
X40050Y-22650D01*
X40050Y-22650D02*
X40550Y-22650D01*
X15700Y-26050D02*
X15200Y-26050D01*
X15200Y-26050D02*
X15200Y-26750D01*
X15200Y-26750D02*
X15700Y-26750D01*
X16100Y-26050D02*
X16600Y-26050D01*
X16600Y-26050D02*
X16600Y-26750D01*
X16600Y-26750D02*
X16100Y-26750D01*
X24950Y-29850D02*
X25450Y-29850D01*
X25450Y-29850D02*
X25450Y-29150D01*
X25450Y-29150D02*
X24950Y-29150D01*
X24550Y-29850D02*
X24050Y-29850D01*
X24050Y-29850D02*
X24050Y-29150D01*
X24050Y-29150D02*
X24550Y-29150D01*
X20000Y-20850D02*
X20500Y-20850D01*
X20500Y-20850D02*
X20500Y-20150D01*
X20500Y-20150D02*
X20000Y-20150D01*
X19600Y-20850D02*
X19100Y-20850D01*
X19100Y-20850D02*
X19100Y-20150D01*
X19100Y-20150D02*
X19600Y-20150D01*
G54D14*
X12500Y-27000D02*
X12500Y-31000D01*
X12500Y-31000D02*
X10500Y-31000D01*
X10500Y-31000D02*
X10500Y-27000D01*
X10500Y-27000D02*
X12500Y-27000D01*
X12500Y-23000D02*
X12500Y-27000D01*
X12500Y-27000D02*
X10500Y-27000D01*
X10500Y-27000D02*
X10500Y-23000D01*
X10500Y-23000D02*
X12500Y-23000D01*
X12500Y-19000D02*
X12500Y-23000D01*
X12500Y-23000D02*
X10500Y-23000D01*
X10500Y-23000D02*
X10500Y-19000D01*
X10500Y-19000D02*
X12500Y-19000D01*
X47000Y-33500D02*
X47000Y-37500D01*
X47000Y-37500D02*
X45000Y-37500D01*
X45000Y-37500D02*
X45000Y-33500D01*
X45000Y-33500D02*
X47000Y-33500D01*
X47000Y-29000D02*
X47000Y-33000D01*
X47000Y-33000D02*
X45000Y-33000D01*
X45000Y-33000D02*
X45000Y-29000D01*
X45000Y-29000D02*
X47000Y-29000D01*
G54D10*
X39000Y-21500D02*
X39000Y-22500D01*
X39000Y-22500D02*
X37000Y-22500D01*
X37000Y-22500D02*
X37000Y-21500D01*
X37000Y-21500D02*
X39000Y-21500D01*
G54D13*
X47768Y-28120D02*
X47768Y-25250D01*
X47768Y-25250D02*
X48220Y-24856D01*
X48220Y-22435D02*
X48220Y-24856D01*
X43047Y-22435D02*
X48220Y-22435D01*
X43047Y-22896D02*
X43047Y-22435D01*
X42787Y-22896D02*
X43047Y-22896D01*
X42787Y-27982D02*
X42787Y-22896D01*
X43047Y-27982D02*
X42787Y-27982D01*
X43047Y-28120D02*
X43047Y-27982D01*
X47768Y-28120D02*
X43047Y-28120D01*
X41900Y-29000D02*
X41900Y-31000D01*
X41900Y-31000D02*
X40100Y-31000D01*
X40100Y-31000D02*
X40100Y-29000D01*
X40100Y-29000D02*
X41900Y-29000D01*
X41300Y-29000D02*
X41300Y-29200D01*
X41300Y-29200D02*
X40800Y-29200D01*
X40800Y-29200D02*
X40800Y-29000D01*
X38350Y-15500D02*
X38350Y-15000D01*
X38350Y-15000D02*
X37650Y-15000D01*
X37650Y-15000D02*
X37650Y-15500D01*
X38350Y-15900D02*
X38350Y-16400D01*
X38350Y-16400D02*
X37650Y-16400D01*
X37650Y-16400D02*
X37650Y-15900D01*
X37700Y-21100D02*
X38200Y-21100D01*
X38200Y-21100D02*
X38200Y-20400D01*
X38200Y-20400D02*
X37700Y-20400D01*
X37300Y-21100D02*
X36800Y-21100D01*
X36800Y-21100D02*
X36800Y-20400D01*
X36800Y-20400D02*
X37300Y-20400D01*
X38050Y-29900D02*
X37550Y-29900D01*
X37550Y-29900D02*
X37550Y-30600D01*
X37550Y-30600D02*
X38050Y-30600D01*
X38450Y-29900D02*
X38950Y-29900D01*
X38950Y-29900D02*
X38950Y-30600D01*
X38950Y-30600D02*
X38450Y-30600D01*
X40950Y-28600D02*
X41450Y-28600D01*
X41450Y-28600D02*
X41450Y-27900D01*
X41450Y-27900D02*
X40950Y-27900D01*
X40550Y-28600D02*
X40050Y-28600D01*
X40050Y-28600D02*
X40050Y-27900D01*
X40050Y-27900D02*
X40550Y-27900D01*
X40950Y-24100D02*
X41450Y-24100D01*
X41450Y-24100D02*
X41450Y-23400D01*
X41450Y-23400D02*
X40950Y-23400D01*
X40550Y-24100D02*
X40050Y-24100D01*
X40050Y-24100D02*
X40050Y-23400D01*
X40050Y-23400D02*
X40550Y-23400D01*
X40950Y-24850D02*
X41450Y-24850D01*
X41450Y-24850D02*
X41450Y-24150D01*
X41450Y-24150D02*
X40950Y-24150D01*
X40550Y-24850D02*
X40050Y-24850D01*
X40050Y-24850D02*
X40050Y-24150D01*
X40050Y-24150D02*
X40550Y-24150D01*
X40950Y-25600D02*
X41450Y-25600D01*
X41450Y-25600D02*
X41450Y-24900D01*
X41450Y-24900D02*
X40950Y-24900D01*
X40550Y-25600D02*
X40050Y-25600D01*
X40050Y-25600D02*
X40050Y-24900D01*
X40050Y-24900D02*
X40550Y-24900D01*
X40950Y-26350D02*
X41450Y-26350D01*
X41450Y-26350D02*
X41450Y-25650D01*
X41450Y-25650D02*
X40950Y-25650D01*
X40550Y-26350D02*
X40050Y-26350D01*
X40050Y-26350D02*
X40050Y-25650D01*
X40050Y-25650D02*
X40550Y-25650D01*
X40950Y-27100D02*
X41450Y-27100D01*
X41450Y-27100D02*
X41450Y-26400D01*
X41450Y-26400D02*
X40950Y-26400D01*
X40550Y-27100D02*
X40050Y-27100D01*
X40050Y-27100D02*
X40050Y-26400D01*
X40050Y-26400D02*
X40550Y-26400D01*
X40950Y-27850D02*
X41450Y-27850D01*
X41450Y-27850D02*
X41450Y-27150D01*
X41450Y-27150D02*
X40950Y-27150D01*
X40550Y-27850D02*
X40050Y-27850D01*
X40050Y-27850D02*
X40050Y-27150D01*
X40050Y-27150D02*
X40550Y-27150D01*
G54D11*
X43500Y-11500D02*
X11500Y-11500D01*
X11500Y-11500D02*
X11500Y-09500D01*
X11500Y-09500D02*
X43500Y-09500D01*
X43500Y-09500D02*
X43500Y-11500D01*
X11500Y-32500D02*
X43500Y-32500D01*
X43500Y-32500D02*
X43500Y-34500D01*
X43500Y-34500D02*
X11500Y-34500D01*
X11500Y-34500D02*
X11500Y-32500D01*
G54D16*
G36*
X34066Y-23566D02*
X34066Y-21434D01*
X31934Y-21434D01*
X31934Y-23566D01*
X32365Y-23566D01*
X32365Y-23466D01*
X32361Y-23466D01*
X32160Y-23462D01*
X32058Y-23446D01*
X32021Y-23413D01*
X32019Y-23403D01*
X32011Y-23288D01*
X32006Y-23073D01*
X32002Y-22784D01*
X32000Y-22448D01*
X32001Y-22286D01*
X32002Y-21963D01*
X32007Y-21746D01*
X32016Y-21615D01*
X32029Y-21551D01*
X32049Y-21534D01*
X32085Y-21540D01*
X32125Y-21580D01*
X32150Y-21676D01*
X32161Y-21847D01*
X32161Y-22111D01*
X32152Y-22490D01*
X32143Y-22843D01*
X32142Y-23104D01*
X32149Y-23252D01*
X32164Y-23300D01*
X32178Y-23264D01*
X32191Y-23119D01*
X32198Y-22855D01*
X32200Y-22467D01*
X32200Y-22412D01*
X32202Y-22077D01*
X32206Y-21853D01*
X32215Y-21717D01*
X32229Y-21651D01*
X32249Y-21634D01*
X32268Y-21635D01*
X32312Y-21665D01*
X32341Y-21748D01*
X32357Y-21905D01*
X32362Y-22154D01*
X32360Y-22516D01*
X32358Y-22786D01*
X32358Y-23035D01*
X32361Y-23203D01*
X32367Y-23264D01*
X32372Y-23259D01*
X32435Y-23180D01*
X32556Y-23017D01*
X32722Y-22791D01*
X32917Y-22522D01*
X32998Y-22412D01*
X33197Y-22139D01*
X33342Y-21950D01*
X33447Y-21828D01*
X33527Y-21754D01*
X33598Y-21709D01*
X33669Y-21680D01*
X33817Y-21642D01*
X33945Y-21631D01*
X34000Y-21654D01*
X33993Y-21665D01*
X33930Y-21760D01*
X33811Y-21931D01*
X33652Y-22157D01*
X33469Y-22414D01*
X33277Y-22680D01*
X33095Y-22933D01*
X32937Y-23151D01*
X32818Y-23311D01*
X32756Y-23391D01*
X32735Y-23413D01*
X32673Y-23448D01*
X32564Y-23463D01*
X32365Y-23466D01*
X32365Y-23566D01*
X34066Y-23566D01*
X34066Y-23566D01*
G37*
G54D12*
X17400Y-20100D02*
X24800Y-20100D01*
X17400Y-20100D02*
X17400Y-14500D01*
X17400Y-14500D02*
X24800Y-14500D01*
X24800Y-14500D02*
X24800Y-20100D01*
X17900Y-18900D02*
X17898Y-18919D01*
X17892Y-18938D01*
X17883Y-18955D01*
X17870Y-18970D01*
X17855Y-18982D01*
X17838Y-18992D01*
X17820Y-18997D01*
X17800Y-18999D01*
X17782Y-18998D01*
X17763Y-18992D01*
X17746Y-18983D01*
X17731Y-18971D01*
X17718Y-18956D01*
X17709Y-18939D01*
X17703Y-18920D01*
X17701Y-18901D01*
X17702Y-18882D01*
X17708Y-18864D01*
X17716Y-18846D01*
X17729Y-18831D01*
X17743Y-18818D01*
X17760Y-18809D01*
X17779Y-18803D01*
X17798Y-18801D01*
X17817Y-18802D01*
X17836Y-18807D01*
X17853Y-18816D01*
X17868Y-18828D01*
X17881Y-18843D01*
X17891Y-18860D01*
X17897Y-18878D01*
X17899Y-18898D01*
X17900Y-18900D01*
G54D13*
X40800Y-13400D02*
X40300Y-13400D01*
X40300Y-13400D02*
X40300Y-14100D01*
X40300Y-14100D02*
X40800Y-14100D01*
X41200Y-13400D02*
X41700Y-13400D01*
X41700Y-13400D02*
X41700Y-14100D01*
X41700Y-14100D02*
X41200Y-14100D01*
G54D14*
X12500Y-13000D02*
X12500Y-18000D01*
X12500Y-18000D02*
X10500Y-18000D01*
X10500Y-18000D02*
X10500Y-13000D01*
X10500Y-13000D02*
X12500Y-13000D01*
G54D13*
X41900Y-14500D02*
X41900Y-16500D01*
X41900Y-16500D02*
X40100Y-16500D01*
X40100Y-16500D02*
X40100Y-14500D01*
X40100Y-14500D02*
X41900Y-14500D01*
X41300Y-14500D02*
X41300Y-14700D01*
X41300Y-14700D02*
X40800Y-14700D01*
X40800Y-14700D02*
X40800Y-14500D01*
G54D14*
X17543Y-22393D02*
X17543Y-22879D01*
X17571Y-22936D01*
X17600Y-22964D01*
X17657Y-22993D01*
X17771Y-22993D01*
X17829Y-22964D01*
X17857Y-22936D01*
X17886Y-22879D01*
X17886Y-22393D01*
X18286Y-22393D02*
X18343Y-22393D01*
X18400Y-22421D01*
X18429Y-22450D01*
X18458Y-22507D01*
X18486Y-22621D01*
X18486Y-22764D01*
X18458Y-22879D01*
X18429Y-22936D01*
X18400Y-22964D01*
X18343Y-22993D01*
X18286Y-22993D01*
X18229Y-22964D01*
X18200Y-22936D01*
X18172Y-22879D01*
X18143Y-22764D01*
X18143Y-22621D01*
X18172Y-22507D01*
X18200Y-22450D01*
X18229Y-22421D01*
X18286Y-22393D01*
X34793Y-20143D02*
X34793Y-20629D01*
X34821Y-20686D01*
X34850Y-20714D01*
X34907Y-20743D01*
X35021Y-20743D01*
X35079Y-20714D01*
X35107Y-20686D01*
X35136Y-20629D01*
X35136Y-20143D01*
X35393Y-20200D02*
X35422Y-20171D01*
X35479Y-20143D01*
X35622Y-20143D01*
X35679Y-20171D01*
X35708Y-20200D01*
X35736Y-20257D01*
X35736Y-20314D01*
X35708Y-20400D01*
X35365Y-20743D01*
X35736Y-20743D01*
G54D13*
X37351Y-29411D02*
X37232Y-29494D01*
X37351Y-29553D02*
X37101Y-29553D01*
X37101Y-29458D01*
X37113Y-29434D01*
X37125Y-29423D01*
X37149Y-29411D01*
X37185Y-29411D01*
X37208Y-29423D01*
X37220Y-29434D01*
X37232Y-29458D01*
X37232Y-29553D01*
X37351Y-29173D02*
X37351Y-29315D01*
X37351Y-29244D02*
X37101Y-29244D01*
X37137Y-29268D01*
X37161Y-29292D01*
X37173Y-29315D01*
X37101Y-29018D02*
X37101Y-28994D01*
X37113Y-28970D01*
X37125Y-28958D01*
X37149Y-28946D01*
X37196Y-28935D01*
X37256Y-28935D01*
X37304Y-28946D01*
X37327Y-28958D01*
X37339Y-28970D01*
X37351Y-28994D01*
X37351Y-29018D01*
X37339Y-29042D01*
X37327Y-29054D01*
X37304Y-29065D01*
X37256Y-29077D01*
X37196Y-29077D01*
X37149Y-29065D01*
X37125Y-29054D01*
X37113Y-29042D01*
X37101Y-29018D01*
G54D15*
X44662Y-07486D02*
X44262Y-07486D01*
X44262Y-07333D01*
X44281Y-07295D01*
X44300Y-07276D01*
X44338Y-07257D01*
X44395Y-07257D01*
X44433Y-07276D01*
X44452Y-07295D01*
X44471Y-07333D01*
X44471Y-07486D01*
X44662Y-06876D02*
X44662Y-07105D01*
X44662Y-06991D02*
X44262Y-06991D01*
X44319Y-07029D01*
X44357Y-07067D01*
X44376Y-07105D01*
X44300Y-06724D02*
X44281Y-06705D01*
X44262Y-06667D01*
X44262Y-06571D01*
X44281Y-06533D01*
X44300Y-06514D01*
X44338Y-06495D01*
X44376Y-06495D01*
X44433Y-06514D01*
X44662Y-06743D01*
X44662Y-06495D01*
X43012Y-20055D02*
X43336Y-20055D01*
X43374Y-20036D01*
X43393Y-20017D01*
X43412Y-19979D01*
X43412Y-19902D01*
X43393Y-19864D01*
X43374Y-19845D01*
X43336Y-19826D01*
X43012Y-19826D01*
X43145Y-19464D02*
X43412Y-19464D01*
X42993Y-19560D02*
X43279Y-19655D01*
X43279Y-19407D01*
G54D13*
X42593Y-17550D02*
X42607Y-17564D01*
X42621Y-17607D01*
X42621Y-17636D01*
X42607Y-17679D01*
X42579Y-17707D01*
X42550Y-17722D01*
X42493Y-17736D01*
X42450Y-17736D01*
X42393Y-17722D01*
X42364Y-17707D01*
X42336Y-17679D01*
X42321Y-17636D01*
X42321Y-17607D01*
X42336Y-17564D01*
X42350Y-17550D01*
X42450Y-17379D02*
X42436Y-17407D01*
X42421Y-17422D01*
X42393Y-17436D01*
X42379Y-17436D01*
X42350Y-17422D01*
X42336Y-17407D01*
X42321Y-17379D01*
X42321Y-17322D01*
X42336Y-17293D01*
X42350Y-17279D01*
X42379Y-17264D01*
X42393Y-17264D01*
X42421Y-17279D01*
X42436Y-17293D01*
X42450Y-17322D01*
X42450Y-17379D01*
X42464Y-17407D01*
X42479Y-17422D01*
X42507Y-17436D01*
X42564Y-17436D01*
X42593Y-17422D01*
X42607Y-17407D01*
X42621Y-17379D01*
X42621Y-17322D01*
X42607Y-17293D01*
X42593Y-17279D01*
X42564Y-17264D01*
X42507Y-17264D01*
X42479Y-17279D01*
X42464Y-17293D01*
X42450Y-17322D01*
X42593Y-22050D02*
X42607Y-22064D01*
X42621Y-22107D01*
X42621Y-22136D01*
X42607Y-22179D01*
X42579Y-22207D01*
X42550Y-22222D01*
X42493Y-22236D01*
X42450Y-22236D01*
X42393Y-22222D01*
X42364Y-22207D01*
X42336Y-22179D01*
X42321Y-22136D01*
X42321Y-22107D01*
X42336Y-22064D01*
X42350Y-22050D01*
X42621Y-21907D02*
X42621Y-21850D01*
X42607Y-21822D01*
X42593Y-21807D01*
X42550Y-21779D01*
X42493Y-21764D01*
X42379Y-21764D01*
X42350Y-21779D01*
X42336Y-21793D01*
X42321Y-21822D01*
X42321Y-21879D01*
X42336Y-21907D01*
X42350Y-21922D01*
X42379Y-21936D01*
X42450Y-21936D01*
X42479Y-21922D01*
X42493Y-21907D01*
X42507Y-21879D01*
X42507Y-21822D01*
X42493Y-21793D01*
X42479Y-21779D01*
X42450Y-21764D01*
X22177Y-14142D02*
X22189Y-14154D01*
X22201Y-14189D01*
X22201Y-14213D01*
X22189Y-14249D01*
X22165Y-14273D01*
X22142Y-14284D01*
X22094Y-14296D01*
X22058Y-14296D01*
X22011Y-14284D01*
X21987Y-14273D01*
X21963Y-14249D01*
X21951Y-14213D01*
X21951Y-14189D01*
X21963Y-14154D01*
X21975Y-14142D01*
X21951Y-14058D02*
X21951Y-13904D01*
X22046Y-13987D01*
X22046Y-13951D01*
X22058Y-13927D01*
X22070Y-13915D01*
X22094Y-13904D01*
X22154Y-13904D01*
X22177Y-13915D01*
X22189Y-13927D01*
X22201Y-13951D01*
X22201Y-14023D01*
X22189Y-14046D01*
X22177Y-14058D01*
X38677Y-17642D02*
X38689Y-17654D01*
X38701Y-17689D01*
X38701Y-17713D01*
X38689Y-17749D01*
X38665Y-17773D01*
X38642Y-17784D01*
X38594Y-17796D01*
X38558Y-17796D01*
X38511Y-17784D01*
X38487Y-17773D01*
X38463Y-17749D01*
X38451Y-17713D01*
X38451Y-17689D01*
X38463Y-17654D01*
X38475Y-17642D01*
X38535Y-17427D02*
X38701Y-17427D01*
X38439Y-17487D02*
X38618Y-17546D01*
X38618Y-17392D01*
X28058Y-18777D02*
X28046Y-18789D01*
X28011Y-18801D01*
X27987Y-18801D01*
X27951Y-18789D01*
X27927Y-18765D01*
X27916Y-18742D01*
X27904Y-18694D01*
X27904Y-18658D01*
X27916Y-18611D01*
X27927Y-18587D01*
X27951Y-18563D01*
X27987Y-18551D01*
X28011Y-18551D01*
X28046Y-18563D01*
X28058Y-18575D01*
X28285Y-18551D02*
X28166Y-18551D01*
X28154Y-18670D01*
X28166Y-18658D01*
X28189Y-18646D01*
X28249Y-18646D01*
X28273Y-18658D01*
X28285Y-18670D01*
X28296Y-18694D01*
X28296Y-18754D01*
X28285Y-18777D01*
X28273Y-18789D01*
X28249Y-18801D01*
X28189Y-18801D01*
X28166Y-18789D01*
X28154Y-18777D01*
X37327Y-28292D02*
X37339Y-28304D01*
X37351Y-28339D01*
X37351Y-28363D01*
X37339Y-28399D01*
X37315Y-28423D01*
X37292Y-28434D01*
X37244Y-28446D01*
X37208Y-28446D01*
X37161Y-28434D01*
X37137Y-28423D01*
X37113Y-28399D01*
X37101Y-28363D01*
X37101Y-28339D01*
X37113Y-28304D01*
X37125Y-28292D01*
X37101Y-28077D02*
X37101Y-28125D01*
X37113Y-28149D01*
X37125Y-28161D01*
X37161Y-28184D01*
X37208Y-28196D01*
X37304Y-28196D01*
X37327Y-28184D01*
X37339Y-28173D01*
X37351Y-28149D01*
X37351Y-28101D01*
X37339Y-28077D01*
X37327Y-28065D01*
X37304Y-28054D01*
X37244Y-28054D01*
X37220Y-28065D01*
X37208Y-28077D01*
X37196Y-28101D01*
X37196Y-28149D01*
X37208Y-28173D01*
X37220Y-28184D01*
X37244Y-28196D01*
X26858Y-29877D02*
X26846Y-29889D01*
X26811Y-29901D01*
X26787Y-29901D01*
X26751Y-29889D01*
X26727Y-29865D01*
X26716Y-29842D01*
X26704Y-29794D01*
X26704Y-29758D01*
X26716Y-29711D01*
X26727Y-29687D01*
X26751Y-29663D01*
X26787Y-29651D01*
X26811Y-29651D01*
X26846Y-29663D01*
X26858Y-29675D01*
X27013Y-29651D02*
X27037Y-29651D01*
X27061Y-29663D01*
X27073Y-29675D01*
X27085Y-29699D01*
X27096Y-29746D01*
X27096Y-29806D01*
X27085Y-29854D01*
X27073Y-29877D01*
X27061Y-29889D01*
X27037Y-29901D01*
X27013Y-29901D01*
X26989Y-29889D01*
X26977Y-29877D01*
X26966Y-29854D01*
X26954Y-29806D01*
X26954Y-29746D01*
X26966Y-29699D01*
X26977Y-29675D01*
X26989Y-29663D01*
X27013Y-29651D01*
X21258Y-21177D02*
X21246Y-21189D01*
X21211Y-21201D01*
X21187Y-21201D01*
X21151Y-21189D01*
X21127Y-21165D01*
X21116Y-21142D01*
X21104Y-21094D01*
X21104Y-21058D01*
X21116Y-21011D01*
X21127Y-20987D01*
X21151Y-20963D01*
X21187Y-20951D01*
X21211Y-20951D01*
X21246Y-20963D01*
X21258Y-20975D01*
X21354Y-20975D02*
X21366Y-20963D01*
X21389Y-20951D01*
X21449Y-20951D01*
X21473Y-20963D01*
X21485Y-20975D01*
X21496Y-20999D01*
X21496Y-21023D01*
X21485Y-21058D01*
X21342Y-21201D01*
X21496Y-21201D01*
X25958Y-29901D02*
X25875Y-29782D01*
X25816Y-29901D02*
X25816Y-29651D01*
X25911Y-29651D01*
X25935Y-29663D01*
X25946Y-29675D01*
X25958Y-29699D01*
X25958Y-29735D01*
X25946Y-29758D01*
X25935Y-29770D01*
X25911Y-29782D01*
X25816Y-29782D01*
X26113Y-29651D02*
X26137Y-29651D01*
X26161Y-29663D01*
X26173Y-29675D01*
X26185Y-29699D01*
X26196Y-29746D01*
X26196Y-29806D01*
X26185Y-29854D01*
X26173Y-29877D01*
X26161Y-29889D01*
X26137Y-29901D01*
X26113Y-29901D01*
X26089Y-29889D01*
X26077Y-29877D01*
X26066Y-29854D01*
X26054Y-29806D01*
X26054Y-29746D01*
X26066Y-29699D01*
X26077Y-29675D01*
X26089Y-29663D01*
X26113Y-29651D01*
X15001Y-25642D02*
X14882Y-25725D01*
X15001Y-25784D02*
X14751Y-25784D01*
X14751Y-25689D01*
X14763Y-25665D01*
X14775Y-25654D01*
X14799Y-25642D01*
X14835Y-25642D01*
X14858Y-25654D01*
X14870Y-25665D01*
X14882Y-25689D01*
X14882Y-25784D01*
X15001Y-25404D02*
X15001Y-25546D01*
X15001Y-25475D02*
X14751Y-25475D01*
X14787Y-25499D01*
X14811Y-25523D01*
X14823Y-25546D01*
X27201Y-23342D02*
X27082Y-23425D01*
X27201Y-23484D02*
X26951Y-23484D01*
X26951Y-23389D01*
X26963Y-23365D01*
X26975Y-23354D01*
X26999Y-23342D01*
X27035Y-23342D01*
X27058Y-23354D01*
X27070Y-23365D01*
X27082Y-23389D01*
X27082Y-23484D01*
X26975Y-23246D02*
X26963Y-23234D01*
X26951Y-23211D01*
X26951Y-23151D01*
X26963Y-23127D01*
X26975Y-23115D01*
X26999Y-23104D01*
X27023Y-23104D01*
X27058Y-23115D01*
X27201Y-23258D01*
X27201Y-23104D01*
X38701Y-19342D02*
X38582Y-19425D01*
X38701Y-19484D02*
X38451Y-19484D01*
X38451Y-19389D01*
X38463Y-19365D01*
X38475Y-19354D01*
X38499Y-19342D01*
X38535Y-19342D01*
X38558Y-19354D01*
X38570Y-19365D01*
X38582Y-19389D01*
X38582Y-19484D01*
X38451Y-19127D02*
X38451Y-19175D01*
X38463Y-19199D01*
X38475Y-19211D01*
X38511Y-19234D01*
X38558Y-19246D01*
X38654Y-19246D01*
X38677Y-19234D01*
X38689Y-19223D01*
X38701Y-19199D01*
X38701Y-19151D01*
X38689Y-19127D01*
X38677Y-19115D01*
X38654Y-19104D01*
X38594Y-19104D01*
X38570Y-19115D01*
X38558Y-19127D01*
X38546Y-19151D01*
X38546Y-19199D01*
X38558Y-19223D01*
X38570Y-19234D01*
X38594Y-19246D01*
X27177Y-25042D02*
X27189Y-25054D01*
X27201Y-25089D01*
X27201Y-25113D01*
X27189Y-25149D01*
X27165Y-25173D01*
X27142Y-25184D01*
X27094Y-25196D01*
X27058Y-25196D01*
X27011Y-25184D01*
X26987Y-25173D01*
X26963Y-25149D01*
X26951Y-25113D01*
X26951Y-25089D01*
X26963Y-25054D01*
X26975Y-25042D01*
X27201Y-24804D02*
X27201Y-24946D01*
X27201Y-24875D02*
X26951Y-24875D01*
X26987Y-24899D01*
X27011Y-24923D01*
X27023Y-24946D01*
X39877Y-23161D02*
X39889Y-23173D01*
X39901Y-23208D01*
X39901Y-23232D01*
X39889Y-23268D01*
X39865Y-23292D01*
X39842Y-23303D01*
X39794Y-23315D01*
X39758Y-23315D01*
X39711Y-23303D01*
X39687Y-23292D01*
X39663Y-23268D01*
X39651Y-23232D01*
X39651Y-23208D01*
X39663Y-23173D01*
X39675Y-23161D01*
X39901Y-22923D02*
X39901Y-23065D01*
X39901Y-22994D02*
X39651Y-22994D01*
X39687Y-23018D01*
X39711Y-23042D01*
X39723Y-23065D01*
X39651Y-22768D02*
X39651Y-22744D01*
X39663Y-22720D01*
X39675Y-22708D01*
X39699Y-22696D01*
X39746Y-22685D01*
X39806Y-22685D01*
X39854Y-22696D01*
X39877Y-22708D01*
X39889Y-22720D01*
X39901Y-22744D01*
X39901Y-22768D01*
X39889Y-22792D01*
X39877Y-22804D01*
X39854Y-22815D01*
X39806Y-22827D01*
X39746Y-22827D01*
X39699Y-22815D01*
X39675Y-22804D01*
X39663Y-22792D01*
X39651Y-22768D01*
X15001Y-26442D02*
X14882Y-26525D01*
X15001Y-26584D02*
X14751Y-26584D01*
X14751Y-26489D01*
X14763Y-26465D01*
X14775Y-26454D01*
X14799Y-26442D01*
X14835Y-26442D01*
X14858Y-26454D01*
X14870Y-26465D01*
X14882Y-26489D01*
X14882Y-26584D01*
X14751Y-26358D02*
X14751Y-26204D01*
X14846Y-26287D01*
X14846Y-26251D01*
X14858Y-26227D01*
X14870Y-26215D01*
X14894Y-26204D01*
X14954Y-26204D01*
X14977Y-26215D01*
X14989Y-26227D01*
X15001Y-26251D01*
X15001Y-26323D01*
X14989Y-26346D01*
X14977Y-26358D01*
X24708Y-30251D02*
X24625Y-30132D01*
X24566Y-30251D02*
X24566Y-30001D01*
X24661Y-30001D01*
X24685Y-30013D01*
X24696Y-30025D01*
X24708Y-30049D01*
X24708Y-30085D01*
X24696Y-30108D01*
X24685Y-30120D01*
X24661Y-30132D01*
X24566Y-30132D01*
X24923Y-30085D02*
X24923Y-30251D01*
X24863Y-29989D02*
X24804Y-30168D01*
X24958Y-30168D01*
X19758Y-21201D02*
X19675Y-21082D01*
X19616Y-21201D02*
X19616Y-20951D01*
X19711Y-20951D01*
X19735Y-20963D01*
X19746Y-20975D01*
X19758Y-20999D01*
X19758Y-21035D01*
X19746Y-21058D01*
X19735Y-21070D01*
X19711Y-21082D01*
X19616Y-21082D01*
X19985Y-20951D02*
X19866Y-20951D01*
X19854Y-21070D01*
X19866Y-21058D01*
X19889Y-21046D01*
X19949Y-21046D01*
X19973Y-21058D01*
X19985Y-21070D01*
X19996Y-21094D01*
X19996Y-21154D01*
X19985Y-21177D01*
X19973Y-21189D01*
X19949Y-21201D01*
X19889Y-21201D01*
X19866Y-21189D01*
X19854Y-21177D01*
G54D10*
X36135Y-22121D02*
X36135Y-21821D01*
X36250Y-21821D01*
X36278Y-21836D01*
X36293Y-21850D01*
X36307Y-21879D01*
X36307Y-21921D01*
X36293Y-21950D01*
X36278Y-21964D01*
X36250Y-21979D01*
X36135Y-21979D01*
X36493Y-21821D02*
X36521Y-21821D01*
X36550Y-21836D01*
X36564Y-21850D01*
X36578Y-21879D01*
X36593Y-21936D01*
X36593Y-22007D01*
X36578Y-22064D01*
X36564Y-22093D01*
X36550Y-22107D01*
X36521Y-22121D01*
X36493Y-22121D01*
X36464Y-22107D01*
X36450Y-22093D01*
X36435Y-22064D01*
X36421Y-22007D01*
X36421Y-21936D01*
X36435Y-21879D01*
X36450Y-21850D01*
X36464Y-21836D01*
X36493Y-21821D01*
X36850Y-21921D02*
X36850Y-22121D01*
X36779Y-21807D02*
X36707Y-22021D01*
X36893Y-22021D01*
G54D13*
X42643Y-23992D02*
X42043Y-23992D01*
X42043Y-23764D01*
X42071Y-23706D01*
X42100Y-23678D01*
X42157Y-23649D01*
X42243Y-23649D01*
X42300Y-23678D01*
X42329Y-23706D01*
X42357Y-23764D01*
X42357Y-23992D01*
X42043Y-23278D02*
X42043Y-23221D01*
X42071Y-23164D01*
X42100Y-23135D01*
X42157Y-23106D01*
X42271Y-23078D01*
X42414Y-23078D01*
X42529Y-23106D01*
X42586Y-23135D01*
X42614Y-23164D01*
X42643Y-23221D01*
X42643Y-23278D01*
X42614Y-23335D01*
X42586Y-23364D01*
X42529Y-23392D01*
X42414Y-23421D01*
X42271Y-23421D01*
X42157Y-23392D01*
X42100Y-23364D01*
X42071Y-23335D01*
X42043Y-23278D01*
X39195Y-28482D02*
X39195Y-28846D01*
X39214Y-28889D01*
X39233Y-28911D01*
X39271Y-28932D01*
X39348Y-28932D01*
X39386Y-28911D01*
X39405Y-28889D01*
X39424Y-28846D01*
X39424Y-28482D01*
X39576Y-28482D02*
X39824Y-28482D01*
X39690Y-28654D01*
X39748Y-28654D01*
X39786Y-28675D01*
X39805Y-28696D01*
X39824Y-28739D01*
X39824Y-28846D01*
X39805Y-28889D01*
X39786Y-28911D01*
X39748Y-28932D01*
X39633Y-28932D01*
X39595Y-28911D01*
X39576Y-28889D01*
X38701Y-15742D02*
X38582Y-15825D01*
X38701Y-15884D02*
X38451Y-15884D01*
X38451Y-15789D01*
X38463Y-15765D01*
X38475Y-15754D01*
X38499Y-15742D01*
X38535Y-15742D01*
X38558Y-15754D01*
X38570Y-15765D01*
X38582Y-15789D01*
X38582Y-15884D01*
X38451Y-15658D02*
X38451Y-15492D01*
X38701Y-15599D01*
X38601Y-20792D02*
X38482Y-20875D01*
X38601Y-20934D02*
X38351Y-20934D01*
X38351Y-20839D01*
X38363Y-20815D01*
X38375Y-20804D01*
X38399Y-20792D01*
X38435Y-20792D01*
X38458Y-20804D01*
X38470Y-20815D01*
X38482Y-20839D01*
X38482Y-20934D01*
X38458Y-20649D02*
X38446Y-20673D01*
X38435Y-20684D01*
X38411Y-20696D01*
X38399Y-20696D01*
X38375Y-20684D01*
X38363Y-20673D01*
X38351Y-20649D01*
X38351Y-20601D01*
X38363Y-20577D01*
X38375Y-20565D01*
X38399Y-20554D01*
X38411Y-20554D01*
X38435Y-20565D01*
X38446Y-20577D01*
X38458Y-20601D01*
X38458Y-20649D01*
X38470Y-20673D01*
X38482Y-20684D01*
X38506Y-20696D01*
X38554Y-20696D01*
X38577Y-20684D01*
X38589Y-20673D01*
X38601Y-20649D01*
X38601Y-20601D01*
X38589Y-20577D01*
X38577Y-20565D01*
X38554Y-20554D01*
X38506Y-20554D01*
X38482Y-20565D01*
X38470Y-20577D01*
X38458Y-20601D01*
X37351Y-30292D02*
X37232Y-30375D01*
X37351Y-30434D02*
X37101Y-30434D01*
X37101Y-30339D01*
X37113Y-30315D01*
X37125Y-30304D01*
X37149Y-30292D01*
X37185Y-30292D01*
X37208Y-30304D01*
X37220Y-30315D01*
X37232Y-30339D01*
X37232Y-30434D01*
X37351Y-30173D02*
X37351Y-30125D01*
X37339Y-30101D01*
X37327Y-30089D01*
X37292Y-30065D01*
X37244Y-30054D01*
X37149Y-30054D01*
X37125Y-30065D01*
X37113Y-30077D01*
X37101Y-30101D01*
X37101Y-30149D01*
X37113Y-30173D01*
X37125Y-30184D01*
X37149Y-30196D01*
X37208Y-30196D01*
X37232Y-30184D01*
X37244Y-30173D01*
X37256Y-30149D01*
X37256Y-30101D01*
X37244Y-30077D01*
X37232Y-30065D01*
X37208Y-30054D01*
X41851Y-28411D02*
X41732Y-28494D01*
X41851Y-28553D02*
X41601Y-28553D01*
X41601Y-28458D01*
X41613Y-28434D01*
X41625Y-28423D01*
X41649Y-28411D01*
X41685Y-28411D01*
X41708Y-28423D01*
X41720Y-28434D01*
X41732Y-28458D01*
X41732Y-28553D01*
X41625Y-28315D02*
X41613Y-28303D01*
X41601Y-28280D01*
X41601Y-28220D01*
X41613Y-28196D01*
X41625Y-28184D01*
X41649Y-28173D01*
X41673Y-28173D01*
X41708Y-28184D01*
X41851Y-28327D01*
X41851Y-28173D01*
X41601Y-28018D02*
X41601Y-27994D01*
X41613Y-27970D01*
X41625Y-27958D01*
X41649Y-27946D01*
X41696Y-27935D01*
X41756Y-27935D01*
X41804Y-27946D01*
X41827Y-27958D01*
X41839Y-27970D01*
X41851Y-27994D01*
X41851Y-28018D01*
X41839Y-28042D01*
X41827Y-28054D01*
X41804Y-28065D01*
X41756Y-28077D01*
X41696Y-28077D01*
X41649Y-28065D01*
X41625Y-28054D01*
X41613Y-28042D01*
X41601Y-28018D01*
X41851Y-23911D02*
X41732Y-23994D01*
X41851Y-24053D02*
X41601Y-24053D01*
X41601Y-23958D01*
X41613Y-23934D01*
X41625Y-23923D01*
X41649Y-23911D01*
X41685Y-23911D01*
X41708Y-23923D01*
X41720Y-23934D01*
X41732Y-23958D01*
X41732Y-24053D01*
X41625Y-23815D02*
X41613Y-23803D01*
X41601Y-23780D01*
X41601Y-23720D01*
X41613Y-23696D01*
X41625Y-23684D01*
X41649Y-23673D01*
X41673Y-23673D01*
X41708Y-23684D01*
X41851Y-23827D01*
X41851Y-23673D01*
X41851Y-23435D02*
X41851Y-23577D01*
X41851Y-23506D02*
X41601Y-23506D01*
X41637Y-23530D01*
X41661Y-23554D01*
X41673Y-23577D01*
X39851Y-24661D02*
X39732Y-24744D01*
X39851Y-24803D02*
X39601Y-24803D01*
X39601Y-24708D01*
X39613Y-24684D01*
X39625Y-24673D01*
X39649Y-24661D01*
X39685Y-24661D01*
X39708Y-24673D01*
X39720Y-24684D01*
X39732Y-24708D01*
X39732Y-24803D01*
X39625Y-24565D02*
X39613Y-24553D01*
X39601Y-24530D01*
X39601Y-24470D01*
X39613Y-24446D01*
X39625Y-24434D01*
X39649Y-24423D01*
X39673Y-24423D01*
X39708Y-24434D01*
X39851Y-24577D01*
X39851Y-24423D01*
X39625Y-24327D02*
X39613Y-24315D01*
X39601Y-24292D01*
X39601Y-24232D01*
X39613Y-24208D01*
X39625Y-24196D01*
X39649Y-24185D01*
X39673Y-24185D01*
X39708Y-24196D01*
X39851Y-24339D01*
X39851Y-24185D01*
X41851Y-25161D02*
X41732Y-25244D01*
X41851Y-25303D02*
X41601Y-25303D01*
X41601Y-25208D01*
X41613Y-25184D01*
X41625Y-25173D01*
X41649Y-25161D01*
X41685Y-25161D01*
X41708Y-25173D01*
X41720Y-25184D01*
X41732Y-25208D01*
X41732Y-25303D01*
X41625Y-25065D02*
X41613Y-25053D01*
X41601Y-25030D01*
X41601Y-24970D01*
X41613Y-24946D01*
X41625Y-24934D01*
X41649Y-24923D01*
X41673Y-24923D01*
X41708Y-24934D01*
X41851Y-25077D01*
X41851Y-24923D01*
X41601Y-24839D02*
X41601Y-24685D01*
X41696Y-24768D01*
X41696Y-24732D01*
X41708Y-24708D01*
X41720Y-24696D01*
X41744Y-24685D01*
X41804Y-24685D01*
X41827Y-24696D01*
X41839Y-24708D01*
X41851Y-24732D01*
X41851Y-24804D01*
X41839Y-24827D01*
X41827Y-24839D01*
X39851Y-26161D02*
X39732Y-26244D01*
X39851Y-26303D02*
X39601Y-26303D01*
X39601Y-26208D01*
X39613Y-26184D01*
X39625Y-26173D01*
X39649Y-26161D01*
X39685Y-26161D01*
X39708Y-26173D01*
X39720Y-26184D01*
X39732Y-26208D01*
X39732Y-26303D01*
X39625Y-26065D02*
X39613Y-26053D01*
X39601Y-26030D01*
X39601Y-25970D01*
X39613Y-25946D01*
X39625Y-25934D01*
X39649Y-25923D01*
X39673Y-25923D01*
X39708Y-25934D01*
X39851Y-26077D01*
X39851Y-25923D01*
X39685Y-25708D02*
X39851Y-25708D01*
X39589Y-25768D02*
X39768Y-25827D01*
X39768Y-25673D01*
X41851Y-27161D02*
X41732Y-27244D01*
X41851Y-27303D02*
X41601Y-27303D01*
X41601Y-27208D01*
X41613Y-27184D01*
X41625Y-27173D01*
X41649Y-27161D01*
X41685Y-27161D01*
X41708Y-27173D01*
X41720Y-27184D01*
X41732Y-27208D01*
X41732Y-27303D01*
X41625Y-27065D02*
X41613Y-27053D01*
X41601Y-27030D01*
X41601Y-26970D01*
X41613Y-26946D01*
X41625Y-26934D01*
X41649Y-26923D01*
X41673Y-26923D01*
X41708Y-26934D01*
X41851Y-27077D01*
X41851Y-26923D01*
X41601Y-26696D02*
X41601Y-26815D01*
X41720Y-26827D01*
X41708Y-26815D01*
X41696Y-26792D01*
X41696Y-26732D01*
X41708Y-26708D01*
X41720Y-26696D01*
X41744Y-26685D01*
X41804Y-26685D01*
X41827Y-26696D01*
X41839Y-26708D01*
X41851Y-26732D01*
X41851Y-26792D01*
X41839Y-26815D01*
X41827Y-26827D01*
X39851Y-27661D02*
X39732Y-27744D01*
X39851Y-27803D02*
X39601Y-27803D01*
X39601Y-27708D01*
X39613Y-27684D01*
X39625Y-27673D01*
X39649Y-27661D01*
X39685Y-27661D01*
X39708Y-27673D01*
X39720Y-27684D01*
X39732Y-27708D01*
X39732Y-27803D01*
X39625Y-27565D02*
X39613Y-27553D01*
X39601Y-27530D01*
X39601Y-27470D01*
X39613Y-27446D01*
X39625Y-27434D01*
X39649Y-27423D01*
X39673Y-27423D01*
X39708Y-27434D01*
X39851Y-27577D01*
X39851Y-27423D01*
X39601Y-27208D02*
X39601Y-27256D01*
X39613Y-27280D01*
X39625Y-27292D01*
X39661Y-27315D01*
X39708Y-27327D01*
X39804Y-27327D01*
X39827Y-27315D01*
X39839Y-27304D01*
X39851Y-27280D01*
X39851Y-27232D01*
X39839Y-27208D01*
X39827Y-27196D01*
X39804Y-27185D01*
X39744Y-27185D01*
X39720Y-27196D01*
X39708Y-27208D01*
X39696Y-27232D01*
X39696Y-27280D01*
X39708Y-27304D01*
X39720Y-27315D01*
X39744Y-27327D01*
G54D14*
X11243Y-11228D02*
X10643Y-11228D01*
X10643Y-11000D01*
X10671Y-10942D01*
X10700Y-10914D01*
X10757Y-10885D01*
X10843Y-10885D01*
X10900Y-10914D01*
X10929Y-10942D01*
X10957Y-11000D01*
X10957Y-11228D01*
X10700Y-10657D02*
X10671Y-10628D01*
X10643Y-10571D01*
X10643Y-10428D01*
X10671Y-10371D01*
X10700Y-10342D01*
X10757Y-10314D01*
X10814Y-10314D01*
X10900Y-10342D01*
X11243Y-10685D01*
X11243Y-10314D01*
X10643Y-09943D02*
X10643Y-09886D01*
X10671Y-09829D01*
X10700Y-09800D01*
X10757Y-09771D01*
X10871Y-09743D01*
X11014Y-09743D01*
X11129Y-09771D01*
X11186Y-09800D01*
X11214Y-09829D01*
X11243Y-09886D01*
X11243Y-09943D01*
X11214Y-10000D01*
X11186Y-10029D01*
X11129Y-10057D01*
X11014Y-10086D01*
X10871Y-10086D01*
X10757Y-10057D01*
X10700Y-10029D01*
X10671Y-10000D01*
X10643Y-09943D01*
X11243Y-34228D02*
X10643Y-34228D01*
X10643Y-34000D01*
X10671Y-33942D01*
X10700Y-33914D01*
X10757Y-33885D01*
X10843Y-33885D01*
X10900Y-33914D01*
X10929Y-33942D01*
X10957Y-34000D01*
X10957Y-34228D01*
X10643Y-33685D02*
X10643Y-33314D01*
X10871Y-33514D01*
X10871Y-33428D01*
X10900Y-33371D01*
X10929Y-33342D01*
X10986Y-33314D01*
X11129Y-33314D01*
X11186Y-33342D01*
X11214Y-33371D01*
X11243Y-33428D01*
X11243Y-33600D01*
X11214Y-33657D01*
X11186Y-33685D01*
X10643Y-32943D02*
X10643Y-32886D01*
X10671Y-32829D01*
X10700Y-32800D01*
X10757Y-32771D01*
X10871Y-32743D01*
X11014Y-32743D01*
X11129Y-32771D01*
X11186Y-32800D01*
X11214Y-32829D01*
X11243Y-32886D01*
X11243Y-32943D01*
X11214Y-33000D01*
X11186Y-33029D01*
X11129Y-33057D01*
X11014Y-33086D01*
X10871Y-33086D01*
X10757Y-33057D01*
X10700Y-33029D01*
X10671Y-33000D01*
X10643Y-32943D01*
X16643Y-19957D02*
X17129Y-19957D01*
X17186Y-19929D01*
X17214Y-19900D01*
X17243Y-19843D01*
X17243Y-19729D01*
X17214Y-19671D01*
X17186Y-19643D01*
X17129Y-19614D01*
X16643Y-19614D01*
X17243Y-19014D02*
X17243Y-19357D01*
X17243Y-19185D02*
X16643Y-19185D01*
X16729Y-19242D01*
X16786Y-19300D01*
X16814Y-19357D01*
G54D13*
X40958Y-13827D02*
X40946Y-13839D01*
X40911Y-13851D01*
X40887Y-13851D01*
X40851Y-13839D01*
X40827Y-13815D01*
X40816Y-13792D01*
X40804Y-13744D01*
X40804Y-13708D01*
X40816Y-13661D01*
X40827Y-13637D01*
X40851Y-13613D01*
X40887Y-13601D01*
X40911Y-13601D01*
X40946Y-13613D01*
X40958Y-13625D01*
X41042Y-13601D02*
X41208Y-13601D01*
X41101Y-13851D01*
X42445Y-16482D02*
X42445Y-16846D01*
X42464Y-16889D01*
X42483Y-16911D01*
X42521Y-16932D01*
X42598Y-16932D01*
X42636Y-16911D01*
X42655Y-16889D01*
X42674Y-16846D01*
X42674Y-16482D01*
X43055Y-16482D02*
X42864Y-16482D01*
X42845Y-16696D01*
X42864Y-16675D01*
X42902Y-16654D01*
X42998Y-16654D01*
X43036Y-16675D01*
X43055Y-16696D01*
X43074Y-16739D01*
X43074Y-16846D01*
X43055Y-16889D01*
X43036Y-16911D01*
X42998Y-16932D01*
X42902Y-16932D01*
X42864Y-16911D01*
X42845Y-16889D01*
M02*
