G04 (created by PCBNEW-RS274X (2012-01-19 BZR 3256)-stable) date 08/10/2012 04:37:32*
G01*
G70*
G90*
%MOIN*%
G04 Gerber Fmt 3.4, Leading zero omitted, Abs format*
%FSLAX34Y34*%
G04 APERTURE LIST*
%ADD10C,0.006000*%
%ADD11R,0.078700X0.007800*%
%ADD12R,0.045000X0.055000*%
%ADD13R,0.080000X0.144000*%
%ADD14R,0.080000X0.040000*%
%ADD15R,0.070000X0.110000*%
%ADD16R,0.055000X0.045000*%
%ADD17R,0.086600X0.055100*%
%ADD18R,0.055100X0.078700*%
%ADD19R,0.055100X0.055100*%
%ADD20R,0.078700X0.027600*%
%ADD21R,0.075000X0.020000*%
%ADD22R,0.019700X0.078700*%
G04 APERTURE END LIST*
G54D10*
G54D11*
X25037Y-27870D03*
X25037Y-27673D03*
X25037Y-27476D03*
X25037Y-27280D03*
X25037Y-27083D03*
X25037Y-26886D03*
X25037Y-26689D03*
X25037Y-26492D03*
X25037Y-26295D03*
X25037Y-26098D03*
X25037Y-25902D03*
X25037Y-25705D03*
X25037Y-25508D03*
X25037Y-25311D03*
X25037Y-25114D03*
X25037Y-24917D03*
X25037Y-24720D03*
X25037Y-24524D03*
X25037Y-24327D03*
X25037Y-24130D03*
X25037Y-23933D03*
X25037Y-23736D03*
X25037Y-23539D03*
X25037Y-23343D03*
X17163Y-23343D03*
X17163Y-23539D03*
X17163Y-23736D03*
X17163Y-23933D03*
X17163Y-24130D03*
X17163Y-24327D03*
X17163Y-24524D03*
X17163Y-24720D03*
X17163Y-24917D03*
X17163Y-25114D03*
X17163Y-25311D03*
X17163Y-25508D03*
X17163Y-25705D03*
X17163Y-25902D03*
X17163Y-26098D03*
X17163Y-26295D03*
X17163Y-26492D03*
X17163Y-26689D03*
X17163Y-26886D03*
X17163Y-27083D03*
X17163Y-27280D03*
X17163Y-27476D03*
X17163Y-27673D03*
X17163Y-27870D03*
X17163Y-28067D03*
X17163Y-28264D03*
X17163Y-28461D03*
X17163Y-28657D03*
X25037Y-28067D03*
X25037Y-28264D03*
X25037Y-28461D03*
X25037Y-28657D03*
X29063Y-15630D03*
X29063Y-15827D03*
X29063Y-16024D03*
X29063Y-16220D03*
X29063Y-16417D03*
X29063Y-16614D03*
X29063Y-16811D03*
X29063Y-17008D03*
X29063Y-17205D03*
X29063Y-17402D03*
X29063Y-17598D03*
X29063Y-17795D03*
X29063Y-17992D03*
X29063Y-18189D03*
X29063Y-18386D03*
X29063Y-18583D03*
X29063Y-18780D03*
X29063Y-18976D03*
X29063Y-19173D03*
X29063Y-19370D03*
X29063Y-19567D03*
X29063Y-19764D03*
X36937Y-19764D03*
X36937Y-19567D03*
X36937Y-19370D03*
X36937Y-19173D03*
X36937Y-18976D03*
X36937Y-18780D03*
X36937Y-18583D03*
X36937Y-18386D03*
X36937Y-18189D03*
X36937Y-17992D03*
X36937Y-17795D03*
X36937Y-17598D03*
X36937Y-17402D03*
X36937Y-17205D03*
X36937Y-17008D03*
X36937Y-16811D03*
X36937Y-16614D03*
X36937Y-16417D03*
X36937Y-16220D03*
X36937Y-16024D03*
X36937Y-15827D03*
X36937Y-15630D03*
X36937Y-15433D03*
X36937Y-15236D03*
X29063Y-15433D03*
X29063Y-15236D03*
G54D12*
X37825Y-29250D03*
X38675Y-29250D03*
G54D13*
X39700Y-19750D03*
G54D14*
X42300Y-19750D03*
X42300Y-18850D03*
X42300Y-20650D03*
G54D15*
X41700Y-17500D03*
X40300Y-17500D03*
X41700Y-22000D03*
X40300Y-22000D03*
G54D12*
X21525Y-14100D03*
X20675Y-14100D03*
G54D16*
X38000Y-18025D03*
X38000Y-17175D03*
X28100Y-18125D03*
X28100Y-17275D03*
G54D12*
X37825Y-28250D03*
X38675Y-28250D03*
G54D16*
X26900Y-29225D03*
X26900Y-28375D03*
G54D12*
X20875Y-20500D03*
X21725Y-20500D03*
G54D16*
X26000Y-29225D03*
X26000Y-28375D03*
G54D12*
X15475Y-25600D03*
X16325Y-25600D03*
G54D16*
X26500Y-22875D03*
X26500Y-23725D03*
X38000Y-19725D03*
X38000Y-18875D03*
X26500Y-25425D03*
X26500Y-24575D03*
G54D12*
X41175Y-23000D03*
X40325Y-23000D03*
X15475Y-26400D03*
X16325Y-26400D03*
X25175Y-29500D03*
X24325Y-29500D03*
X20225Y-20500D03*
X19375Y-20500D03*
G54D17*
X46488Y-28360D03*
X46488Y-22140D03*
G54D18*
X42709Y-22455D03*
G54D19*
X42709Y-28360D03*
G54D20*
X42433Y-27829D03*
X42433Y-27396D03*
X42433Y-26963D03*
X42433Y-26530D03*
X42433Y-26096D03*
X42433Y-25663D03*
X42433Y-25230D03*
X42433Y-24797D03*
X42433Y-24364D03*
G54D21*
X42400Y-29250D03*
X42400Y-29750D03*
X42400Y-30250D03*
X42400Y-30750D03*
X39600Y-30750D03*
X39600Y-30250D03*
X39600Y-29750D03*
X39600Y-29250D03*
G54D16*
X38000Y-15275D03*
X38000Y-16125D03*
G54D12*
X37925Y-20750D03*
X37075Y-20750D03*
X37825Y-30250D03*
X38675Y-30250D03*
X41175Y-28250D03*
X40325Y-28250D03*
X41175Y-23750D03*
X40325Y-23750D03*
X41175Y-24500D03*
X40325Y-24500D03*
X41175Y-25250D03*
X40325Y-25250D03*
X41175Y-26000D03*
X40325Y-26000D03*
X41175Y-26750D03*
X40325Y-26750D03*
X41175Y-27500D03*
X40325Y-27500D03*
G54D22*
X23777Y-14938D03*
X23462Y-14938D03*
X23147Y-14938D03*
X22832Y-14938D03*
X22517Y-14938D03*
X22202Y-14938D03*
X21887Y-14938D03*
X21572Y-14938D03*
X21257Y-14938D03*
X20943Y-14938D03*
X20628Y-14938D03*
X20313Y-14938D03*
X19998Y-14938D03*
X19683Y-14938D03*
X19368Y-14938D03*
X19053Y-14938D03*
X18738Y-14938D03*
X18423Y-14938D03*
X18108Y-14938D03*
G54D10*
G36*
X17695Y-15331D02*
X17695Y-14545D01*
X17891Y-14545D01*
X17891Y-15331D01*
X17695Y-15331D01*
X17695Y-15331D01*
G37*
G54D22*
X17793Y-19662D03*
X18108Y-19662D03*
X18423Y-19662D03*
X18738Y-19662D03*
X19053Y-19662D03*
X19368Y-19662D03*
X19683Y-19662D03*
X19998Y-19662D03*
X20313Y-19662D03*
X20628Y-19662D03*
X20943Y-19662D03*
X21257Y-19662D03*
X21572Y-19662D03*
X21887Y-19662D03*
X22202Y-19662D03*
X22517Y-19662D03*
X22832Y-19662D03*
X23147Y-19662D03*
X23462Y-19662D03*
X23777Y-19662D03*
X24092Y-19662D03*
X24407Y-19662D03*
X24092Y-14938D03*
X24407Y-14938D03*
G54D12*
X40575Y-13750D03*
X41425Y-13750D03*
G54D21*
X42400Y-14750D03*
X42400Y-15250D03*
X42400Y-15750D03*
X42400Y-16250D03*
X39600Y-16250D03*
X39600Y-15750D03*
X39600Y-15250D03*
X39600Y-14750D03*
M02*
