G04 (created by PCBNEW-RS274X (2012-01-19 BZR 3256)-stable) date 08/10/2012 04:37:32*
G01*
G70*
G90*
%MOIN*%
G04 Gerber Fmt 3.4, Leading zero omitted, Abs format*
%FSLAX34Y34*%
G04 APERTURE LIST*
%ADD10C,0.006000*%
%ADD11R,0.060000X0.060000*%
%ADD12C,0.060000*%
%ADD13C,0.025000*%
%ADD14C,0.015000*%
%ADD15C,0.008000*%
%ADD16C,0.020000*%
%ADD17C,0.010000*%
G04 APERTURE END LIST*
G54D10*
G54D11*
X45500Y-16000D03*
G54D12*
X46500Y-16000D03*
X45500Y-17000D03*
X46500Y-17000D03*
X45500Y-18000D03*
X46500Y-18000D03*
X45500Y-19000D03*
X46500Y-19000D03*
X45500Y-20000D03*
X46500Y-20000D03*
X45500Y-21000D03*
X46500Y-21000D03*
G54D11*
X45500Y-11500D03*
G54D12*
X46500Y-11500D03*
X45500Y-12500D03*
X46500Y-12500D03*
X45500Y-13500D03*
X46500Y-13500D03*
X45500Y-14500D03*
X46500Y-14500D03*
G54D11*
X45500Y-07000D03*
G54D12*
X46500Y-07000D03*
X45500Y-08000D03*
X46500Y-08000D03*
X45500Y-09000D03*
X46500Y-09000D03*
X45500Y-10000D03*
X46500Y-10000D03*
G54D11*
X11000Y-27500D03*
G54D12*
X12000Y-27500D03*
X11000Y-28500D03*
X12000Y-28500D03*
X11000Y-29500D03*
X12000Y-29500D03*
X11000Y-30500D03*
X12000Y-30500D03*
G54D11*
X11000Y-23500D03*
G54D12*
X12000Y-23500D03*
X11000Y-24500D03*
X12000Y-24500D03*
X11000Y-25500D03*
X12000Y-25500D03*
X11000Y-26500D03*
X12000Y-26500D03*
G54D11*
X11000Y-19500D03*
G54D12*
X12000Y-19500D03*
X11000Y-20500D03*
X12000Y-20500D03*
X11000Y-21500D03*
X12000Y-21500D03*
X11000Y-22500D03*
X12000Y-22500D03*
G54D11*
X45500Y-34000D03*
G54D12*
X46500Y-34000D03*
X45500Y-35000D03*
X46500Y-35000D03*
X45500Y-36000D03*
X46500Y-36000D03*
X45500Y-37000D03*
X46500Y-37000D03*
G54D11*
X45500Y-29500D03*
G54D12*
X46500Y-29500D03*
X45500Y-30500D03*
X46500Y-30500D03*
X45500Y-31500D03*
X46500Y-31500D03*
X45500Y-32500D03*
X46500Y-32500D03*
G54D11*
X38500Y-22000D03*
G54D12*
X37500Y-22000D03*
G54D11*
X43000Y-10000D03*
G54D12*
X43000Y-11000D03*
X42000Y-10000D03*
X42000Y-11000D03*
X41000Y-10000D03*
X41000Y-11000D03*
X40000Y-10000D03*
X40000Y-11000D03*
X39000Y-10000D03*
X39000Y-11000D03*
X38000Y-10000D03*
X38000Y-11000D03*
X37000Y-10000D03*
X37000Y-11000D03*
X36000Y-10000D03*
X36000Y-11000D03*
X35000Y-10000D03*
X35000Y-11000D03*
X34000Y-10000D03*
X34000Y-11000D03*
X33000Y-10000D03*
X33000Y-11000D03*
X32000Y-10000D03*
X32000Y-11000D03*
X31000Y-10000D03*
X31000Y-11000D03*
X30000Y-10000D03*
X30000Y-11000D03*
X29000Y-10000D03*
X29000Y-11000D03*
X28000Y-10000D03*
X28000Y-11000D03*
X27000Y-10000D03*
X27000Y-11000D03*
X26000Y-10000D03*
X26000Y-11000D03*
X25000Y-10000D03*
X25000Y-11000D03*
X24000Y-10000D03*
X24000Y-11000D03*
X23000Y-10000D03*
X23000Y-11000D03*
X22000Y-10000D03*
X22000Y-11000D03*
X21000Y-10000D03*
X21000Y-11000D03*
X20000Y-10000D03*
X20000Y-11000D03*
X19000Y-10000D03*
X19000Y-11000D03*
X18000Y-10000D03*
X18000Y-11000D03*
X17000Y-10000D03*
X17000Y-11000D03*
X16000Y-10000D03*
X16000Y-11000D03*
X15000Y-10000D03*
X15000Y-11000D03*
X14000Y-10000D03*
X14000Y-11000D03*
X13000Y-10000D03*
X13000Y-11000D03*
X12000Y-10000D03*
X12000Y-11000D03*
G54D11*
X12000Y-34000D03*
G54D12*
X12000Y-33000D03*
X13000Y-34000D03*
X13000Y-33000D03*
X14000Y-34000D03*
X14000Y-33000D03*
X15000Y-34000D03*
X15000Y-33000D03*
X16000Y-34000D03*
X16000Y-33000D03*
X17000Y-34000D03*
X17000Y-33000D03*
X18000Y-34000D03*
X18000Y-33000D03*
X19000Y-34000D03*
X19000Y-33000D03*
X20000Y-34000D03*
X20000Y-33000D03*
X21000Y-34000D03*
X21000Y-33000D03*
X22000Y-34000D03*
X22000Y-33000D03*
X23000Y-34000D03*
X23000Y-33000D03*
X24000Y-34000D03*
X24000Y-33000D03*
X25000Y-34000D03*
X25000Y-33000D03*
X26000Y-34000D03*
X26000Y-33000D03*
X27000Y-34000D03*
X27000Y-33000D03*
X28000Y-34000D03*
X28000Y-33000D03*
X29000Y-34000D03*
X29000Y-33000D03*
X30000Y-34000D03*
X30000Y-33000D03*
X31000Y-34000D03*
X31000Y-33000D03*
X32000Y-34000D03*
X32000Y-33000D03*
X33000Y-34000D03*
X33000Y-33000D03*
X34000Y-34000D03*
X34000Y-33000D03*
X35000Y-34000D03*
X35000Y-33000D03*
X36000Y-34000D03*
X36000Y-33000D03*
X37000Y-34000D03*
X37000Y-33000D03*
X38000Y-34000D03*
X38000Y-33000D03*
X39000Y-34000D03*
X39000Y-33000D03*
X40000Y-34000D03*
X40000Y-33000D03*
X41000Y-34000D03*
X41000Y-33000D03*
X42000Y-34000D03*
X42000Y-33000D03*
X43000Y-34000D03*
X43000Y-33000D03*
G54D11*
X11000Y-13500D03*
G54D12*
X12000Y-13500D03*
X11000Y-14500D03*
X12000Y-14500D03*
X11000Y-15500D03*
X12000Y-15500D03*
X11000Y-16500D03*
X12000Y-16500D03*
X11000Y-17500D03*
X12000Y-17500D03*
G54D13*
X28600Y-12600D03*
X40400Y-30100D03*
X43300Y-31000D03*
X23800Y-32100D03*
X18900Y-27300D03*
X19600Y-23300D03*
X18900Y-26900D03*
X20200Y-23100D03*
X18900Y-26500D03*
X18500Y-26000D03*
X18500Y-26400D03*
X23500Y-27500D03*
X19400Y-18900D03*
X30700Y-16100D03*
X19800Y-18900D03*
X23500Y-27100D03*
X30400Y-16300D03*
X26500Y-26500D03*
X21800Y-15700D03*
X26500Y-26100D03*
X21400Y-15700D03*
X26000Y-25500D03*
X21000Y-15700D03*
X25900Y-25100D03*
X20600Y-15700D03*
X20200Y-15700D03*
X25800Y-24700D03*
X26000Y-24400D03*
X19800Y-15700D03*
X30100Y-16500D03*
X23500Y-26700D03*
X20200Y-18900D03*
X29800Y-16700D03*
X20600Y-18900D03*
X23500Y-26300D03*
X30700Y-18500D03*
X23300Y-25700D03*
X21400Y-18900D03*
X30400Y-18700D03*
X23300Y-25300D03*
X21800Y-18900D03*
X22200Y-18900D03*
X23300Y-24900D03*
X30100Y-18900D03*
X29800Y-19100D03*
X22600Y-18900D03*
X23300Y-24500D03*
X22600Y-15700D03*
X26500Y-27300D03*
X26500Y-26900D03*
X22200Y-15700D03*
X26000Y-13100D03*
X19200Y-15700D03*
X18400Y-15700D03*
X26500Y-27700D03*
X28200Y-32200D03*
X23100Y-31300D03*
X18800Y-15700D03*
X18100Y-26400D03*
X23900Y-29500D03*
X21400Y-18500D03*
X17900Y-25800D03*
X33000Y-16900D03*
X19000Y-18900D03*
X23900Y-29100D03*
X18900Y-20600D03*
X43300Y-14700D03*
X41900Y-11800D03*
X44700Y-36000D03*
X44500Y-35000D03*
X44300Y-34000D03*
X43900Y-31500D03*
X43700Y-30500D03*
X44100Y-32500D03*
X43500Y-29500D03*
X40325Y-25625D03*
X41725Y-25625D03*
X15500Y-08800D03*
X27600Y-17200D03*
X42500Y-21500D03*
X22100Y-29400D03*
X21000Y-18900D03*
X36200Y-17300D03*
X41700Y-26500D03*
X22100Y-27300D03*
X36200Y-16100D03*
X42100Y-28400D03*
X19600Y-14200D03*
X20225Y-20500D03*
X36200Y-17700D03*
X15400Y-26000D03*
X27600Y-17900D03*
X38000Y-20300D03*
X19900Y-13900D03*
X42200Y-14300D03*
X38000Y-14800D03*
X39200Y-28300D03*
G54D14*
X22500Y-11300D02*
X22700Y-11500D01*
X22500Y-10500D02*
X22500Y-11300D01*
X22700Y-11500D02*
X27500Y-11500D01*
X28600Y-12600D02*
X27500Y-11500D01*
X22000Y-10000D02*
X22500Y-10500D01*
G54D15*
X23800Y-32100D02*
X23400Y-32500D01*
X12800Y-32500D02*
X12500Y-32800D01*
X12500Y-32800D02*
X12500Y-33500D01*
X12500Y-33500D02*
X12000Y-34000D01*
X23400Y-32500D02*
X12800Y-32500D01*
X19400Y-18900D02*
X22300Y-16000D01*
X22300Y-16000D02*
X30600Y-16000D01*
X30600Y-16000D02*
X30700Y-16100D01*
X22500Y-16200D02*
X30300Y-16200D01*
X22500Y-16200D02*
X19800Y-18900D01*
X30400Y-16300D02*
X30300Y-16200D01*
X22700Y-16400D02*
X30000Y-16400D01*
X20200Y-18900D02*
X22700Y-16400D01*
X30000Y-16400D02*
X30100Y-16500D01*
X29700Y-16600D02*
X29800Y-16700D01*
X22900Y-16600D02*
X29700Y-16600D01*
X20600Y-18900D02*
X22900Y-16600D01*
X30400Y-18200D02*
X22100Y-18200D01*
X22100Y-18200D02*
X21400Y-18900D01*
X30700Y-18500D02*
X30400Y-18200D01*
X30100Y-18400D02*
X30400Y-18700D01*
X21800Y-18900D02*
X22300Y-18400D01*
X22300Y-18400D02*
X30100Y-18400D01*
X30100Y-18900D02*
X29800Y-18600D01*
X22500Y-18600D02*
X22200Y-18900D01*
X29800Y-18600D02*
X22500Y-18600D01*
X29500Y-18800D02*
X22700Y-18800D01*
X22700Y-18800D02*
X22600Y-18900D01*
X29800Y-19100D02*
X29500Y-18800D01*
X34700Y-31000D02*
X12500Y-31000D01*
X12500Y-31000D02*
X12000Y-30500D01*
X37000Y-34000D02*
X36500Y-33500D01*
X36500Y-32800D02*
X34700Y-31000D01*
X36500Y-33500D02*
X36500Y-32800D01*
X13300Y-30800D02*
X34800Y-30800D01*
X12000Y-29500D02*
X13300Y-30800D01*
X34800Y-30800D02*
X37000Y-33000D01*
X14100Y-30600D02*
X12000Y-28500D01*
X35300Y-30600D02*
X14100Y-30600D01*
X35300Y-30600D02*
X37500Y-32800D01*
X37500Y-32800D02*
X37500Y-33500D01*
X38000Y-34000D02*
X37500Y-33500D01*
X12000Y-27500D02*
X14900Y-30400D01*
X35400Y-30400D02*
X38000Y-33000D01*
X14900Y-30400D02*
X35400Y-30400D01*
X23100Y-31300D02*
X23000Y-31200D01*
X11700Y-31200D02*
X11000Y-30500D01*
X23000Y-31200D02*
X11700Y-31200D01*
X23000Y-31200D02*
X23100Y-31300D01*
X39500Y-33500D02*
X38800Y-33500D01*
X38500Y-32800D02*
X35900Y-30200D01*
X38500Y-33200D02*
X38500Y-32800D01*
X38800Y-33500D02*
X38500Y-33200D01*
X40000Y-34000D02*
X39500Y-33500D01*
X12500Y-21000D02*
X12000Y-20500D01*
X15000Y-30200D02*
X12500Y-27700D01*
X12500Y-27700D02*
X12500Y-21000D01*
X35900Y-30200D02*
X15000Y-30200D01*
X15100Y-30000D02*
X36000Y-30000D01*
X12700Y-27600D02*
X15100Y-30000D01*
X12700Y-20200D02*
X12700Y-27600D01*
X36000Y-30000D02*
X38500Y-32500D01*
X38500Y-32500D02*
X39500Y-32500D01*
X12000Y-19500D02*
X12700Y-20200D01*
X39500Y-32500D02*
X40000Y-33000D01*
X29500Y-16800D02*
X23100Y-16800D01*
X23100Y-16800D02*
X21400Y-18500D01*
X29700Y-17000D02*
X32900Y-17000D01*
X32900Y-17000D02*
X33000Y-16900D01*
X29500Y-16800D02*
X29700Y-17000D01*
X44800Y-35900D02*
X44700Y-36000D01*
X44800Y-14200D02*
X44800Y-35900D01*
X45500Y-13500D02*
X44800Y-14200D01*
X45500Y-12500D02*
X44600Y-13400D01*
X44600Y-13400D02*
X44600Y-34900D01*
X44600Y-34900D02*
X44500Y-35000D01*
X45000Y-15000D02*
X45000Y-36500D01*
X45500Y-14500D02*
X45000Y-15000D01*
X45000Y-36500D02*
X45500Y-37000D01*
X45500Y-11500D02*
X44400Y-12600D01*
X44400Y-12600D02*
X44400Y-33900D01*
X44400Y-33900D02*
X44300Y-34000D01*
X44000Y-31400D02*
X43900Y-31500D01*
X44000Y-10500D02*
X44000Y-31400D01*
X45500Y-09000D02*
X44000Y-10500D01*
X43700Y-30500D02*
X43800Y-30400D01*
X43800Y-30400D02*
X43800Y-09700D01*
X43800Y-09700D02*
X45500Y-08000D01*
X45500Y-10000D02*
X44200Y-11300D01*
X44200Y-11300D02*
X44200Y-32400D01*
X44200Y-32400D02*
X44100Y-32500D01*
X43500Y-29500D02*
X43600Y-29400D01*
X43600Y-08900D02*
X45500Y-07000D01*
X43600Y-29400D02*
X43600Y-08900D01*
G54D16*
X22000Y-11000D02*
X19900Y-13100D01*
X20225Y-21175D02*
X15400Y-26000D01*
X43600Y-32700D02*
X43600Y-33400D01*
X19900Y-13100D02*
X19900Y-13900D01*
X31500Y-14600D02*
X24100Y-14600D01*
X39200Y-28300D02*
X43600Y-32700D01*
X20225Y-20500D02*
X20225Y-21175D01*
X36200Y-17700D02*
X36200Y-18500D01*
G54D15*
X11000Y-17500D02*
X12000Y-17500D01*
X12000Y-17500D02*
X15600Y-13900D01*
G54D16*
X34600Y-17700D02*
X31500Y-14600D01*
X24100Y-14600D02*
X22000Y-12500D01*
X22000Y-12500D02*
X22000Y-11000D01*
X36200Y-17700D02*
X34600Y-17700D01*
X41700Y-14800D02*
X42200Y-14300D01*
X38000Y-14800D02*
X41700Y-14800D01*
G54D15*
X15600Y-13900D02*
X19900Y-13900D01*
G54D16*
X27800Y-17700D02*
X27600Y-17900D01*
X43600Y-33400D02*
X43000Y-34000D01*
X36200Y-18500D02*
X38000Y-20300D01*
X38000Y-20300D02*
X38000Y-14800D01*
X36200Y-17700D02*
X27800Y-17700D01*
G54D10*
G36*
X47175Y-37675D02*
X47049Y-37675D01*
X47049Y-37109D01*
X47049Y-36891D01*
X46999Y-36770D01*
X46965Y-36689D01*
X46811Y-36535D01*
X46726Y-36500D01*
X46811Y-36465D01*
X46965Y-36311D01*
X46999Y-36229D01*
X47049Y-36109D01*
X47049Y-35891D01*
X46999Y-35770D01*
X46965Y-35689D01*
X46811Y-35535D01*
X46726Y-35500D01*
X46811Y-35465D01*
X46965Y-35311D01*
X46999Y-35229D01*
X47049Y-35109D01*
X47049Y-34891D01*
X46999Y-34770D01*
X46965Y-34689D01*
X46811Y-34535D01*
X46726Y-34500D01*
X46811Y-34465D01*
X46965Y-34311D01*
X46999Y-34229D01*
X47049Y-34109D01*
X47049Y-33891D01*
X46999Y-33770D01*
X46965Y-33689D01*
X46811Y-33535D01*
X46609Y-33451D01*
X46391Y-33451D01*
X46189Y-33535D01*
X46049Y-33675D01*
X46049Y-33651D01*
X46011Y-33559D01*
X45941Y-33489D01*
X45850Y-33451D01*
X45751Y-33451D01*
X45290Y-33451D01*
X45290Y-33007D01*
X45391Y-33049D01*
X45609Y-33049D01*
X45811Y-32965D01*
X45965Y-32811D01*
X46000Y-32726D01*
X46035Y-32811D01*
X46189Y-32965D01*
X46391Y-33049D01*
X46609Y-33049D01*
X46811Y-32965D01*
X46965Y-32811D01*
X46999Y-32729D01*
X47049Y-32609D01*
X47049Y-32391D01*
X46999Y-32270D01*
X46965Y-32189D01*
X46811Y-32035D01*
X46726Y-32000D01*
X46811Y-31965D01*
X46965Y-31811D01*
X46999Y-31729D01*
X47049Y-31609D01*
X47049Y-31391D01*
X46999Y-31270D01*
X46965Y-31189D01*
X46811Y-31035D01*
X46726Y-31000D01*
X46811Y-30965D01*
X46965Y-30811D01*
X46999Y-30729D01*
X47049Y-30609D01*
X47049Y-30391D01*
X46999Y-30270D01*
X46965Y-30189D01*
X46811Y-30035D01*
X46726Y-30000D01*
X46811Y-29965D01*
X46965Y-29811D01*
X46999Y-29729D01*
X47049Y-29609D01*
X47049Y-29391D01*
X46999Y-29270D01*
X46999Y-27550D01*
X46999Y-26848D01*
X46999Y-24400D01*
X46999Y-23698D01*
X46293Y-23698D01*
X46293Y-24400D01*
X46999Y-24400D01*
X46999Y-26848D01*
X46293Y-26848D01*
X46293Y-27550D01*
X46999Y-27550D01*
X46999Y-29270D01*
X46965Y-29189D01*
X46811Y-29035D01*
X46609Y-28951D01*
X46391Y-28951D01*
X46189Y-29035D01*
X46049Y-29175D01*
X46049Y-29151D01*
X46011Y-29059D01*
X45941Y-28989D01*
X45850Y-28951D01*
X45751Y-28951D01*
X45290Y-28951D01*
X45290Y-21507D01*
X45391Y-21549D01*
X45609Y-21549D01*
X45811Y-21465D01*
X45965Y-21311D01*
X46000Y-21226D01*
X46035Y-21311D01*
X46189Y-21465D01*
X46391Y-21549D01*
X46609Y-21549D01*
X46811Y-21465D01*
X46965Y-21311D01*
X47049Y-21109D01*
X47049Y-20891D01*
X46965Y-20689D01*
X46811Y-20535D01*
X46726Y-20500D01*
X46811Y-20465D01*
X46965Y-20311D01*
X47049Y-20109D01*
X47049Y-19891D01*
X46965Y-19689D01*
X46811Y-19535D01*
X46726Y-19500D01*
X46811Y-19465D01*
X46965Y-19311D01*
X47049Y-19109D01*
X47049Y-18891D01*
X46965Y-18689D01*
X46811Y-18535D01*
X46726Y-18500D01*
X46811Y-18465D01*
X46965Y-18311D01*
X47049Y-18109D01*
X47049Y-17891D01*
X46965Y-17689D01*
X46811Y-17535D01*
X46726Y-17500D01*
X46811Y-17465D01*
X46965Y-17311D01*
X47049Y-17109D01*
X47049Y-16891D01*
X46965Y-16689D01*
X46811Y-16535D01*
X46726Y-16500D01*
X46811Y-16465D01*
X46965Y-16311D01*
X47049Y-16109D01*
X47049Y-15891D01*
X46965Y-15689D01*
X46811Y-15535D01*
X46609Y-15451D01*
X46391Y-15451D01*
X46189Y-15535D01*
X46049Y-15675D01*
X46049Y-15651D01*
X46011Y-15559D01*
X45941Y-15489D01*
X45850Y-15451D01*
X45751Y-15451D01*
X45290Y-15451D01*
X45290Y-15120D01*
X45369Y-15040D01*
X45391Y-15049D01*
X45609Y-15049D01*
X45811Y-14965D01*
X45965Y-14811D01*
X46000Y-14726D01*
X46035Y-14811D01*
X46189Y-14965D01*
X46391Y-15049D01*
X46609Y-15049D01*
X46811Y-14965D01*
X46965Y-14811D01*
X47049Y-14609D01*
X47049Y-14391D01*
X46965Y-14189D01*
X46811Y-14035D01*
X46726Y-14000D01*
X46811Y-13965D01*
X46965Y-13811D01*
X47049Y-13609D01*
X47049Y-13391D01*
X46965Y-13189D01*
X46811Y-13035D01*
X46726Y-13000D01*
X46811Y-12965D01*
X46965Y-12811D01*
X47049Y-12609D01*
X47049Y-12391D01*
X46965Y-12189D01*
X46811Y-12035D01*
X46726Y-12000D01*
X46811Y-11965D01*
X46965Y-11811D01*
X47049Y-11609D01*
X47049Y-11391D01*
X46965Y-11189D01*
X46811Y-11035D01*
X46609Y-10951D01*
X46391Y-10951D01*
X46189Y-11035D01*
X46049Y-11175D01*
X46049Y-11151D01*
X46011Y-11059D01*
X45941Y-10989D01*
X45850Y-10951D01*
X45751Y-10951D01*
X45151Y-10951D01*
X45059Y-10989D01*
X44989Y-11059D01*
X44951Y-11150D01*
X44951Y-11249D01*
X44951Y-11638D01*
X44490Y-12099D01*
X44490Y-11420D01*
X45369Y-10540D01*
X45391Y-10549D01*
X45609Y-10549D01*
X45811Y-10465D01*
X45965Y-10311D01*
X46000Y-10226D01*
X46035Y-10311D01*
X46189Y-10465D01*
X46391Y-10549D01*
X46609Y-10549D01*
X46811Y-10465D01*
X46965Y-10311D01*
X47049Y-10109D01*
X47049Y-09891D01*
X46965Y-09689D01*
X46811Y-09535D01*
X46726Y-09500D01*
X46811Y-09465D01*
X46965Y-09311D01*
X47049Y-09109D01*
X47049Y-08891D01*
X46965Y-08689D01*
X46811Y-08535D01*
X46726Y-08500D01*
X46811Y-08465D01*
X46965Y-08311D01*
X47049Y-08109D01*
X47049Y-07891D01*
X46965Y-07689D01*
X46811Y-07535D01*
X46726Y-07500D01*
X46811Y-07465D01*
X46965Y-07311D01*
X47049Y-07109D01*
X47049Y-06891D01*
X46965Y-06689D01*
X46811Y-06535D01*
X46609Y-06451D01*
X46391Y-06451D01*
X46189Y-06535D01*
X46049Y-06675D01*
X46049Y-06651D01*
X46011Y-06559D01*
X45941Y-06489D01*
X45850Y-06451D01*
X45751Y-06451D01*
X45151Y-06451D01*
X45059Y-06489D01*
X44989Y-06559D01*
X44951Y-06650D01*
X44951Y-06749D01*
X44951Y-07139D01*
X43395Y-08695D01*
X43332Y-08789D01*
X43310Y-08900D01*
X43310Y-09451D01*
X43251Y-09451D01*
X42651Y-09451D01*
X42559Y-09489D01*
X42489Y-09559D01*
X42451Y-09650D01*
X42451Y-09675D01*
X42311Y-09535D01*
X42109Y-09451D01*
X41891Y-09451D01*
X41689Y-09535D01*
X41535Y-09689D01*
X41500Y-09773D01*
X41465Y-09689D01*
X41311Y-09535D01*
X41109Y-09451D01*
X40891Y-09451D01*
X40689Y-09535D01*
X40535Y-09689D01*
X40500Y-09773D01*
X40465Y-09689D01*
X40311Y-09535D01*
X40109Y-09451D01*
X39891Y-09451D01*
X39689Y-09535D01*
X39535Y-09689D01*
X39500Y-09773D01*
X39465Y-09689D01*
X39311Y-09535D01*
X39109Y-09451D01*
X38891Y-09451D01*
X38689Y-09535D01*
X38535Y-09689D01*
X38500Y-09773D01*
X38465Y-09689D01*
X38311Y-09535D01*
X38109Y-09451D01*
X37891Y-09451D01*
X37689Y-09535D01*
X37535Y-09689D01*
X37500Y-09773D01*
X37465Y-09689D01*
X37311Y-09535D01*
X37109Y-09451D01*
X36891Y-09451D01*
X36689Y-09535D01*
X36535Y-09689D01*
X36500Y-09773D01*
X36465Y-09689D01*
X36311Y-09535D01*
X36109Y-09451D01*
X35891Y-09451D01*
X35689Y-09535D01*
X35535Y-09689D01*
X35500Y-09773D01*
X35465Y-09689D01*
X35311Y-09535D01*
X35109Y-09451D01*
X34891Y-09451D01*
X34689Y-09535D01*
X34535Y-09689D01*
X34500Y-09773D01*
X34465Y-09689D01*
X34311Y-09535D01*
X34109Y-09451D01*
X33891Y-09451D01*
X33689Y-09535D01*
X33535Y-09689D01*
X33500Y-09773D01*
X33465Y-09689D01*
X33311Y-09535D01*
X33109Y-09451D01*
X32891Y-09451D01*
X32689Y-09535D01*
X32535Y-09689D01*
X32500Y-09773D01*
X32465Y-09689D01*
X32311Y-09535D01*
X32109Y-09451D01*
X31891Y-09451D01*
X31689Y-09535D01*
X31535Y-09689D01*
X31500Y-09773D01*
X31465Y-09689D01*
X31311Y-09535D01*
X31109Y-09451D01*
X30891Y-09451D01*
X30689Y-09535D01*
X30535Y-09689D01*
X30500Y-09773D01*
X30465Y-09689D01*
X30311Y-09535D01*
X30109Y-09451D01*
X29891Y-09451D01*
X29689Y-09535D01*
X29535Y-09689D01*
X29500Y-09773D01*
X29465Y-09689D01*
X29311Y-09535D01*
X29109Y-09451D01*
X28891Y-09451D01*
X28689Y-09535D01*
X28535Y-09689D01*
X28500Y-09773D01*
X28465Y-09689D01*
X28311Y-09535D01*
X28109Y-09451D01*
X27891Y-09451D01*
X27689Y-09535D01*
X27535Y-09689D01*
X27500Y-09773D01*
X27465Y-09689D01*
X27311Y-09535D01*
X27109Y-09451D01*
X26891Y-09451D01*
X26689Y-09535D01*
X26535Y-09689D01*
X26500Y-09773D01*
X26465Y-09689D01*
X26311Y-09535D01*
X26109Y-09451D01*
X25891Y-09451D01*
X25689Y-09535D01*
X25535Y-09689D01*
X25500Y-09773D01*
X25465Y-09689D01*
X25311Y-09535D01*
X25109Y-09451D01*
X24891Y-09451D01*
X24689Y-09535D01*
X24535Y-09689D01*
X24500Y-09773D01*
X24465Y-09689D01*
X24311Y-09535D01*
X24109Y-09451D01*
X23891Y-09451D01*
X23689Y-09535D01*
X23535Y-09689D01*
X23500Y-09773D01*
X23465Y-09689D01*
X23311Y-09535D01*
X23109Y-09451D01*
X22891Y-09451D01*
X22689Y-09535D01*
X22535Y-09689D01*
X22500Y-09773D01*
X22465Y-09689D01*
X22311Y-09535D01*
X22109Y-09451D01*
X21891Y-09451D01*
X21689Y-09535D01*
X21535Y-09689D01*
X21500Y-09773D01*
X21465Y-09689D01*
X21311Y-09535D01*
X21109Y-09451D01*
X20891Y-09451D01*
X20689Y-09535D01*
X20535Y-09689D01*
X20500Y-09773D01*
X20465Y-09689D01*
X20311Y-09535D01*
X20109Y-09451D01*
X19891Y-09451D01*
X19689Y-09535D01*
X19535Y-09689D01*
X19500Y-09773D01*
X19465Y-09689D01*
X19311Y-09535D01*
X19109Y-09451D01*
X18891Y-09451D01*
X18689Y-09535D01*
X18535Y-09689D01*
X18500Y-09773D01*
X18465Y-09689D01*
X18311Y-09535D01*
X18109Y-09451D01*
X17891Y-09451D01*
X17689Y-09535D01*
X17535Y-09689D01*
X17500Y-09773D01*
X17465Y-09689D01*
X17311Y-09535D01*
X17109Y-09451D01*
X16891Y-09451D01*
X16689Y-09535D01*
X16535Y-09689D01*
X16500Y-09773D01*
X16465Y-09689D01*
X16311Y-09535D01*
X16109Y-09451D01*
X15891Y-09451D01*
X15875Y-09457D01*
X15875Y-08875D01*
X15875Y-08726D01*
X15818Y-08588D01*
X15713Y-08483D01*
X15575Y-08425D01*
X15426Y-08425D01*
X15288Y-08482D01*
X15183Y-08587D01*
X15125Y-08725D01*
X15125Y-08874D01*
X15182Y-09012D01*
X15287Y-09117D01*
X15425Y-09175D01*
X15574Y-09175D01*
X15712Y-09118D01*
X15817Y-09013D01*
X15875Y-08875D01*
X15875Y-09457D01*
X15689Y-09535D01*
X15535Y-09689D01*
X15500Y-09773D01*
X15465Y-09689D01*
X15311Y-09535D01*
X15109Y-09451D01*
X14891Y-09451D01*
X14689Y-09535D01*
X14535Y-09689D01*
X14500Y-09773D01*
X14465Y-09689D01*
X14311Y-09535D01*
X14109Y-09451D01*
X13891Y-09451D01*
X13689Y-09535D01*
X13535Y-09689D01*
X13500Y-09773D01*
X13465Y-09689D01*
X13311Y-09535D01*
X13109Y-09451D01*
X12891Y-09451D01*
X12689Y-09535D01*
X12535Y-09689D01*
X12500Y-09773D01*
X12465Y-09689D01*
X12311Y-09535D01*
X12109Y-09451D01*
X11891Y-09451D01*
X11689Y-09535D01*
X11535Y-09689D01*
X11451Y-09891D01*
X11451Y-10109D01*
X11535Y-10311D01*
X11689Y-10465D01*
X11773Y-10500D01*
X11689Y-10535D01*
X11535Y-10689D01*
X11451Y-10891D01*
X11451Y-11109D01*
X11535Y-11311D01*
X11689Y-11465D01*
X11891Y-11549D01*
X12109Y-11549D01*
X12311Y-11465D01*
X12465Y-11311D01*
X12500Y-11226D01*
X12535Y-11311D01*
X12689Y-11465D01*
X12891Y-11549D01*
X13109Y-11549D01*
X13311Y-11465D01*
X13465Y-11311D01*
X13500Y-11226D01*
X13535Y-11311D01*
X13689Y-11465D01*
X13891Y-11549D01*
X14109Y-11549D01*
X14311Y-11465D01*
X14465Y-11311D01*
X14500Y-11226D01*
X14535Y-11311D01*
X14689Y-11465D01*
X14891Y-11549D01*
X15109Y-11549D01*
X15311Y-11465D01*
X15465Y-11311D01*
X15500Y-11226D01*
X15535Y-11311D01*
X15689Y-11465D01*
X15891Y-11549D01*
X16109Y-11549D01*
X16311Y-11465D01*
X16465Y-11311D01*
X16500Y-11226D01*
X16535Y-11311D01*
X16689Y-11465D01*
X16891Y-11549D01*
X17109Y-11549D01*
X17311Y-11465D01*
X17465Y-11311D01*
X17500Y-11226D01*
X17535Y-11311D01*
X17689Y-11465D01*
X17891Y-11549D01*
X18109Y-11549D01*
X18311Y-11465D01*
X18465Y-11311D01*
X18500Y-11226D01*
X18535Y-11311D01*
X18689Y-11465D01*
X18891Y-11549D01*
X19109Y-11549D01*
X19311Y-11465D01*
X19465Y-11311D01*
X19500Y-11226D01*
X19535Y-11311D01*
X19689Y-11465D01*
X19891Y-11549D01*
X20109Y-11549D01*
X20311Y-11465D01*
X20465Y-11311D01*
X20500Y-11226D01*
X20535Y-11311D01*
X20689Y-11465D01*
X20891Y-11549D01*
X21109Y-11549D01*
X21311Y-11465D01*
X21465Y-11311D01*
X21502Y-11219D01*
X21528Y-11281D01*
X21622Y-11308D01*
X21929Y-11000D01*
X21622Y-10692D01*
X21528Y-10719D01*
X21504Y-10784D01*
X21465Y-10689D01*
X21311Y-10535D01*
X21226Y-10500D01*
X21311Y-10465D01*
X21465Y-10311D01*
X21500Y-10226D01*
X21535Y-10311D01*
X21689Y-10465D01*
X21780Y-10502D01*
X21719Y-10528D01*
X21692Y-10622D01*
X21965Y-10894D01*
X22000Y-10929D01*
X22071Y-11000D01*
X22000Y-11071D01*
X21692Y-11378D01*
X21719Y-11472D01*
X21921Y-11543D01*
X22134Y-11532D01*
X22242Y-11487D01*
X22270Y-11530D01*
X22468Y-11727D01*
X22470Y-11730D01*
X22575Y-11799D01*
X22576Y-11800D01*
X22674Y-11819D01*
X22699Y-11825D01*
X22699Y-11824D01*
X22700Y-11825D01*
X27365Y-11825D01*
X28232Y-12691D01*
X28282Y-12812D01*
X28387Y-12917D01*
X28525Y-12975D01*
X28674Y-12975D01*
X28812Y-12918D01*
X28917Y-12813D01*
X28975Y-12675D01*
X28975Y-12526D01*
X28918Y-12388D01*
X28813Y-12283D01*
X28690Y-12231D01*
X28008Y-11549D01*
X28109Y-11549D01*
X28311Y-11465D01*
X28465Y-11311D01*
X28500Y-11226D01*
X28535Y-11311D01*
X28689Y-11465D01*
X28891Y-11549D01*
X29109Y-11549D01*
X29311Y-11465D01*
X29465Y-11311D01*
X29500Y-11226D01*
X29535Y-11311D01*
X29689Y-11465D01*
X29891Y-11549D01*
X30109Y-11549D01*
X30311Y-11465D01*
X30465Y-11311D01*
X30500Y-11226D01*
X30535Y-11311D01*
X30689Y-11465D01*
X30891Y-11549D01*
X31109Y-11549D01*
X31311Y-11465D01*
X31465Y-11311D01*
X31500Y-11226D01*
X31535Y-11311D01*
X31689Y-11465D01*
X31891Y-11549D01*
X32109Y-11549D01*
X32311Y-11465D01*
X32465Y-11311D01*
X32500Y-11226D01*
X32535Y-11311D01*
X32689Y-11465D01*
X32891Y-11549D01*
X33109Y-11549D01*
X33311Y-11465D01*
X33465Y-11311D01*
X33500Y-11226D01*
X33535Y-11311D01*
X33689Y-11465D01*
X33891Y-11549D01*
X34109Y-11549D01*
X34311Y-11465D01*
X34465Y-11311D01*
X34500Y-11226D01*
X34535Y-11311D01*
X34689Y-11465D01*
X34891Y-11549D01*
X35109Y-11549D01*
X35311Y-11465D01*
X35465Y-11311D01*
X35500Y-11226D01*
X35535Y-11311D01*
X35689Y-11465D01*
X35891Y-11549D01*
X36109Y-11549D01*
X36311Y-11465D01*
X36465Y-11311D01*
X36500Y-11226D01*
X36535Y-11311D01*
X36689Y-11465D01*
X36891Y-11549D01*
X37109Y-11549D01*
X37311Y-11465D01*
X37465Y-11311D01*
X37500Y-11226D01*
X37535Y-11311D01*
X37689Y-11465D01*
X37891Y-11549D01*
X38109Y-11549D01*
X38311Y-11465D01*
X38465Y-11311D01*
X38500Y-11226D01*
X38535Y-11311D01*
X38689Y-11465D01*
X38891Y-11549D01*
X39109Y-11549D01*
X39311Y-11465D01*
X39465Y-11311D01*
X39500Y-11226D01*
X39535Y-11311D01*
X39689Y-11465D01*
X39891Y-11549D01*
X40109Y-11549D01*
X40311Y-11465D01*
X40465Y-11311D01*
X40500Y-11226D01*
X40535Y-11311D01*
X40689Y-11465D01*
X40891Y-11549D01*
X41109Y-11549D01*
X41311Y-11465D01*
X41465Y-11311D01*
X41500Y-11226D01*
X41535Y-11311D01*
X41689Y-11465D01*
X41709Y-11473D01*
X41688Y-11482D01*
X41583Y-11587D01*
X41525Y-11725D01*
X41525Y-11874D01*
X41582Y-12012D01*
X41687Y-12117D01*
X41825Y-12175D01*
X41974Y-12175D01*
X42112Y-12118D01*
X42217Y-12013D01*
X42275Y-11875D01*
X42275Y-11726D01*
X42218Y-11588D01*
X42158Y-11528D01*
X42311Y-11465D01*
X42465Y-11311D01*
X42500Y-11226D01*
X42535Y-11311D01*
X42689Y-11465D01*
X42891Y-11549D01*
X43109Y-11549D01*
X43310Y-11465D01*
X43310Y-14325D01*
X43226Y-14325D01*
X43088Y-14382D01*
X42983Y-14487D01*
X42925Y-14625D01*
X42925Y-14774D01*
X42982Y-14912D01*
X43087Y-15017D01*
X43225Y-15075D01*
X43310Y-15075D01*
X43310Y-29172D01*
X43288Y-29182D01*
X43183Y-29287D01*
X43125Y-29425D01*
X43125Y-29574D01*
X43182Y-29712D01*
X43287Y-29817D01*
X43425Y-29875D01*
X43510Y-29875D01*
X43510Y-30172D01*
X43488Y-30182D01*
X43383Y-30287D01*
X43325Y-30425D01*
X43325Y-30574D01*
X43346Y-30625D01*
X43226Y-30625D01*
X43088Y-30682D01*
X42983Y-30787D01*
X42925Y-30925D01*
X42925Y-31074D01*
X42982Y-31212D01*
X43087Y-31317D01*
X43225Y-31375D01*
X43374Y-31375D01*
X43512Y-31318D01*
X43617Y-31213D01*
X43675Y-31075D01*
X43675Y-30926D01*
X43653Y-30875D01*
X43710Y-30875D01*
X43710Y-31172D01*
X43688Y-31182D01*
X43583Y-31287D01*
X43525Y-31425D01*
X43525Y-31574D01*
X43582Y-31712D01*
X43687Y-31817D01*
X43825Y-31875D01*
X43910Y-31875D01*
X43910Y-32172D01*
X43888Y-32182D01*
X43783Y-32287D01*
X43725Y-32425D01*
X43725Y-32574D01*
X43782Y-32712D01*
X43887Y-32817D01*
X44025Y-32875D01*
X44110Y-32875D01*
X44110Y-33672D01*
X44088Y-33682D01*
X43983Y-33787D01*
X43925Y-33925D01*
X43925Y-34074D01*
X43982Y-34212D01*
X44087Y-34317D01*
X44225Y-34375D01*
X44310Y-34375D01*
X44310Y-34672D01*
X44288Y-34682D01*
X44183Y-34787D01*
X44125Y-34925D01*
X44125Y-35074D01*
X44182Y-35212D01*
X44287Y-35317D01*
X44425Y-35375D01*
X44510Y-35375D01*
X44510Y-35672D01*
X44488Y-35682D01*
X44383Y-35787D01*
X44325Y-35925D01*
X44325Y-36074D01*
X44382Y-36212D01*
X44487Y-36317D01*
X44625Y-36375D01*
X44710Y-36375D01*
X44710Y-36500D01*
X44732Y-36611D01*
X44795Y-36705D01*
X44959Y-36869D01*
X44951Y-36891D01*
X44951Y-37109D01*
X45035Y-37311D01*
X45189Y-37465D01*
X45391Y-37549D01*
X45609Y-37549D01*
X45811Y-37465D01*
X45965Y-37311D01*
X46000Y-37226D01*
X46035Y-37311D01*
X46189Y-37465D01*
X46391Y-37549D01*
X46609Y-37549D01*
X46811Y-37465D01*
X46965Y-37311D01*
X46999Y-37229D01*
X47049Y-37109D01*
X47049Y-37675D01*
X46999Y-37675D01*
X43549Y-37675D01*
X43549Y-33109D01*
X43549Y-32891D01*
X43465Y-32689D01*
X43311Y-32535D01*
X43109Y-32451D01*
X42891Y-32451D01*
X42875Y-32457D01*
X42875Y-21575D01*
X42875Y-21426D01*
X42818Y-21288D01*
X42713Y-21183D01*
X42575Y-21125D01*
X42426Y-21125D01*
X42288Y-21182D01*
X42183Y-21287D01*
X42125Y-21425D01*
X42125Y-21574D01*
X42182Y-21712D01*
X42287Y-21817D01*
X42425Y-21875D01*
X42574Y-21875D01*
X42712Y-21818D01*
X42817Y-21713D01*
X42875Y-21575D01*
X42875Y-32457D01*
X42689Y-32535D01*
X42535Y-32689D01*
X42500Y-32773D01*
X42475Y-32713D01*
X42475Y-28475D01*
X42475Y-28326D01*
X42418Y-28188D01*
X42313Y-28083D01*
X42175Y-28025D01*
X42100Y-28025D01*
X42100Y-25700D01*
X42100Y-25551D01*
X42043Y-25413D01*
X41938Y-25308D01*
X41800Y-25250D01*
X41651Y-25250D01*
X41513Y-25307D01*
X41408Y-25412D01*
X41350Y-25550D01*
X41350Y-25699D01*
X41407Y-25837D01*
X41512Y-25942D01*
X41650Y-26000D01*
X41799Y-26000D01*
X41937Y-25943D01*
X42042Y-25838D01*
X42100Y-25700D01*
X42100Y-28025D01*
X42075Y-28025D01*
X42075Y-26575D01*
X42075Y-26426D01*
X42018Y-26288D01*
X41913Y-26183D01*
X41775Y-26125D01*
X41626Y-26125D01*
X41488Y-26182D01*
X41383Y-26287D01*
X41325Y-26425D01*
X41325Y-26574D01*
X41382Y-26712D01*
X41487Y-26817D01*
X41625Y-26875D01*
X41774Y-26875D01*
X41912Y-26818D01*
X42017Y-26713D01*
X42075Y-26575D01*
X42075Y-28025D01*
X42026Y-28025D01*
X41888Y-28082D01*
X41783Y-28187D01*
X41725Y-28325D01*
X41725Y-28474D01*
X41782Y-28612D01*
X41887Y-28717D01*
X42025Y-28775D01*
X42174Y-28775D01*
X42312Y-28718D01*
X42417Y-28613D01*
X42475Y-28475D01*
X42475Y-32713D01*
X42465Y-32689D01*
X42311Y-32535D01*
X42109Y-32451D01*
X41891Y-32451D01*
X41689Y-32535D01*
X41535Y-32689D01*
X41500Y-32773D01*
X41465Y-32689D01*
X41311Y-32535D01*
X41109Y-32451D01*
X40891Y-32451D01*
X40775Y-32499D01*
X40775Y-30175D01*
X40775Y-30026D01*
X40718Y-29888D01*
X40700Y-29870D01*
X40700Y-25700D01*
X40700Y-25551D01*
X40643Y-25413D01*
X40538Y-25308D01*
X40400Y-25250D01*
X40251Y-25250D01*
X40113Y-25307D01*
X40008Y-25412D01*
X39950Y-25550D01*
X39950Y-25699D01*
X40007Y-25837D01*
X40112Y-25942D01*
X40250Y-26000D01*
X40399Y-26000D01*
X40537Y-25943D01*
X40642Y-25838D01*
X40700Y-25700D01*
X40700Y-29870D01*
X40613Y-29783D01*
X40475Y-29725D01*
X40326Y-29725D01*
X40188Y-29782D01*
X40083Y-29887D01*
X40025Y-30025D01*
X40025Y-30174D01*
X40082Y-30312D01*
X40187Y-30417D01*
X40325Y-30475D01*
X40474Y-30475D01*
X40612Y-30418D01*
X40717Y-30313D01*
X40775Y-30175D01*
X40775Y-32499D01*
X40689Y-32535D01*
X40535Y-32689D01*
X40500Y-32773D01*
X40465Y-32689D01*
X40311Y-32535D01*
X40109Y-32451D01*
X39891Y-32451D01*
X39869Y-32459D01*
X39705Y-32295D01*
X39611Y-32232D01*
X39500Y-32210D01*
X39049Y-32210D01*
X39049Y-22350D01*
X39049Y-22251D01*
X39049Y-21651D01*
X39011Y-21559D01*
X38941Y-21489D01*
X38850Y-21451D01*
X38751Y-21451D01*
X38151Y-21451D01*
X38059Y-21489D01*
X37989Y-21559D01*
X37951Y-21650D01*
X37951Y-21675D01*
X37811Y-21535D01*
X37609Y-21451D01*
X37391Y-21451D01*
X37189Y-21535D01*
X37035Y-21689D01*
X36951Y-21891D01*
X36951Y-22109D01*
X37035Y-22311D01*
X37189Y-22465D01*
X37391Y-22549D01*
X37609Y-22549D01*
X37811Y-22465D01*
X37951Y-22325D01*
X37951Y-22349D01*
X37989Y-22441D01*
X38059Y-22511D01*
X38150Y-22549D01*
X38249Y-22549D01*
X38849Y-22549D01*
X38941Y-22511D01*
X39011Y-22441D01*
X39049Y-22350D01*
X39049Y-32210D01*
X38620Y-32210D01*
X36575Y-30165D01*
X36575Y-17375D01*
X36575Y-17226D01*
X36575Y-16175D01*
X36575Y-16026D01*
X36518Y-15888D01*
X36413Y-15783D01*
X36275Y-15725D01*
X36126Y-15725D01*
X35988Y-15782D01*
X35883Y-15887D01*
X35825Y-16025D01*
X35825Y-16174D01*
X35882Y-16312D01*
X35987Y-16417D01*
X36125Y-16475D01*
X36274Y-16475D01*
X36412Y-16418D01*
X36517Y-16313D01*
X36575Y-16175D01*
X36575Y-17226D01*
X36518Y-17088D01*
X36413Y-16983D01*
X36275Y-16925D01*
X36126Y-16925D01*
X35988Y-16982D01*
X35883Y-17087D01*
X35825Y-17225D01*
X35825Y-17374D01*
X35882Y-17512D01*
X35987Y-17617D01*
X36125Y-17675D01*
X36274Y-17675D01*
X36412Y-17618D01*
X36517Y-17513D01*
X36575Y-17375D01*
X36575Y-30165D01*
X36205Y-29795D01*
X36111Y-29732D01*
X36000Y-29710D01*
X33375Y-29710D01*
X33375Y-16975D01*
X33375Y-16826D01*
X33318Y-16688D01*
X33213Y-16583D01*
X33075Y-16525D01*
X32926Y-16525D01*
X32788Y-16582D01*
X32683Y-16687D01*
X32673Y-16710D01*
X30418Y-16710D01*
X30432Y-16675D01*
X30474Y-16675D01*
X30612Y-16618D01*
X30717Y-16513D01*
X30732Y-16475D01*
X30774Y-16475D01*
X30912Y-16418D01*
X31017Y-16313D01*
X31075Y-16175D01*
X31075Y-16026D01*
X31018Y-15888D01*
X30913Y-15783D01*
X30775Y-15725D01*
X30675Y-15725D01*
X30600Y-15710D01*
X26375Y-15710D01*
X26375Y-13175D01*
X26375Y-13026D01*
X26318Y-12888D01*
X26213Y-12783D01*
X26075Y-12725D01*
X25926Y-12725D01*
X25788Y-12782D01*
X25683Y-12887D01*
X25625Y-13025D01*
X25625Y-13174D01*
X25682Y-13312D01*
X25787Y-13417D01*
X25925Y-13475D01*
X26074Y-13475D01*
X26212Y-13418D01*
X26317Y-13313D01*
X26375Y-13175D01*
X26375Y-15710D01*
X22975Y-15710D01*
X22975Y-15626D01*
X22918Y-15488D01*
X22813Y-15383D01*
X22675Y-15325D01*
X22526Y-15325D01*
X22399Y-15377D01*
X22275Y-15325D01*
X22126Y-15325D01*
X21999Y-15377D01*
X21875Y-15325D01*
X21726Y-15325D01*
X21599Y-15377D01*
X21475Y-15325D01*
X21326Y-15325D01*
X21199Y-15377D01*
X21075Y-15325D01*
X20926Y-15325D01*
X20799Y-15377D01*
X20675Y-15325D01*
X20526Y-15325D01*
X20399Y-15377D01*
X20275Y-15325D01*
X20126Y-15325D01*
X19999Y-15377D01*
X19975Y-15366D01*
X19975Y-14275D01*
X19975Y-14126D01*
X19918Y-13988D01*
X19813Y-13883D01*
X19675Y-13825D01*
X19526Y-13825D01*
X19388Y-13882D01*
X19283Y-13987D01*
X19225Y-14125D01*
X19225Y-14274D01*
X19282Y-14412D01*
X19387Y-14517D01*
X19525Y-14575D01*
X19674Y-14575D01*
X19812Y-14518D01*
X19917Y-14413D01*
X19975Y-14275D01*
X19975Y-15366D01*
X19875Y-15325D01*
X19726Y-15325D01*
X19588Y-15382D01*
X19500Y-15470D01*
X19413Y-15383D01*
X19275Y-15325D01*
X19126Y-15325D01*
X18999Y-15377D01*
X18875Y-15325D01*
X18726Y-15325D01*
X18599Y-15377D01*
X18475Y-15325D01*
X18326Y-15325D01*
X18188Y-15382D01*
X18083Y-15487D01*
X18025Y-15625D01*
X18025Y-15774D01*
X18082Y-15912D01*
X18187Y-16017D01*
X18325Y-16075D01*
X18474Y-16075D01*
X18600Y-16022D01*
X18725Y-16075D01*
X18874Y-16075D01*
X19000Y-16022D01*
X19125Y-16075D01*
X19274Y-16075D01*
X19412Y-16018D01*
X19500Y-15930D01*
X19587Y-16017D01*
X19725Y-16075D01*
X19874Y-16075D01*
X20000Y-16022D01*
X20125Y-16075D01*
X20274Y-16075D01*
X20400Y-16022D01*
X20525Y-16075D01*
X20674Y-16075D01*
X20800Y-16022D01*
X20925Y-16075D01*
X21074Y-16075D01*
X21200Y-16022D01*
X21325Y-16075D01*
X21474Y-16075D01*
X21600Y-16022D01*
X21725Y-16075D01*
X21815Y-16075D01*
X19365Y-18525D01*
X19326Y-18525D01*
X19199Y-18577D01*
X19075Y-18525D01*
X18926Y-18525D01*
X18788Y-18582D01*
X18683Y-18687D01*
X18625Y-18825D01*
X18625Y-18974D01*
X18682Y-19112D01*
X18787Y-19217D01*
X18925Y-19275D01*
X19074Y-19275D01*
X19200Y-19222D01*
X19325Y-19275D01*
X19474Y-19275D01*
X19600Y-19222D01*
X19725Y-19275D01*
X19874Y-19275D01*
X20000Y-19222D01*
X20125Y-19275D01*
X20274Y-19275D01*
X20400Y-19222D01*
X20525Y-19275D01*
X20674Y-19275D01*
X20800Y-19222D01*
X20925Y-19275D01*
X21074Y-19275D01*
X21200Y-19222D01*
X21325Y-19275D01*
X21474Y-19275D01*
X21600Y-19222D01*
X21725Y-19275D01*
X21874Y-19275D01*
X22000Y-19222D01*
X22125Y-19275D01*
X22274Y-19275D01*
X22400Y-19222D01*
X22525Y-19275D01*
X22674Y-19275D01*
X22812Y-19218D01*
X22917Y-19113D01*
X22926Y-19090D01*
X29380Y-19090D01*
X29425Y-19135D01*
X29425Y-19174D01*
X29482Y-19312D01*
X29587Y-19417D01*
X29725Y-19475D01*
X29874Y-19475D01*
X30012Y-19418D01*
X30117Y-19313D01*
X30132Y-19275D01*
X30174Y-19275D01*
X30312Y-19218D01*
X30417Y-19113D01*
X30432Y-19075D01*
X30474Y-19075D01*
X30612Y-19018D01*
X30717Y-18913D01*
X30732Y-18875D01*
X30774Y-18875D01*
X30912Y-18818D01*
X31017Y-18713D01*
X31075Y-18575D01*
X31075Y-18426D01*
X31018Y-18288D01*
X30913Y-18183D01*
X30775Y-18125D01*
X30735Y-18125D01*
X30605Y-17995D01*
X30511Y-17932D01*
X30400Y-17910D01*
X22400Y-17910D01*
X23220Y-17090D01*
X27239Y-17090D01*
X27225Y-17125D01*
X27225Y-17274D01*
X27282Y-17412D01*
X27387Y-17517D01*
X27525Y-17575D01*
X27674Y-17575D01*
X27812Y-17518D01*
X27917Y-17413D01*
X27975Y-17275D01*
X27975Y-17126D01*
X27960Y-17090D01*
X29380Y-17090D01*
X29494Y-17204D01*
X29495Y-17205D01*
X29588Y-17267D01*
X29589Y-17268D01*
X29699Y-17289D01*
X29700Y-17290D01*
X32900Y-17290D01*
X32975Y-17275D01*
X33074Y-17275D01*
X33212Y-17218D01*
X33317Y-17113D01*
X33375Y-16975D01*
X33375Y-29710D01*
X26875Y-29710D01*
X26875Y-27775D01*
X26875Y-27626D01*
X26822Y-27499D01*
X26875Y-27375D01*
X26875Y-27226D01*
X26822Y-27099D01*
X26875Y-26975D01*
X26875Y-26826D01*
X26822Y-26699D01*
X26875Y-26575D01*
X26875Y-26426D01*
X26822Y-26299D01*
X26875Y-26175D01*
X26875Y-26026D01*
X26818Y-25888D01*
X26713Y-25783D01*
X26575Y-25725D01*
X26426Y-25725D01*
X26375Y-25746D01*
X26375Y-25575D01*
X26375Y-25426D01*
X26318Y-25288D01*
X26254Y-25224D01*
X26275Y-25175D01*
X26275Y-25026D01*
X26218Y-24888D01*
X26154Y-24824D01*
X26175Y-24775D01*
X26175Y-24733D01*
X26212Y-24718D01*
X26317Y-24613D01*
X26375Y-24475D01*
X26375Y-24326D01*
X26318Y-24188D01*
X26213Y-24083D01*
X26075Y-24025D01*
X25926Y-24025D01*
X25788Y-24082D01*
X25683Y-24187D01*
X25625Y-24325D01*
X25625Y-24366D01*
X25588Y-24382D01*
X25483Y-24487D01*
X25425Y-24625D01*
X25425Y-24774D01*
X25482Y-24912D01*
X25545Y-24975D01*
X25525Y-25025D01*
X25525Y-25174D01*
X25582Y-25312D01*
X25645Y-25375D01*
X25625Y-25425D01*
X25625Y-25574D01*
X25682Y-25712D01*
X25787Y-25817D01*
X25925Y-25875D01*
X26074Y-25875D01*
X26212Y-25818D01*
X26317Y-25713D01*
X26375Y-25575D01*
X26375Y-25746D01*
X26288Y-25782D01*
X26183Y-25887D01*
X26125Y-26025D01*
X26125Y-26174D01*
X26177Y-26300D01*
X26125Y-26425D01*
X26125Y-26574D01*
X26177Y-26700D01*
X26125Y-26825D01*
X26125Y-26974D01*
X26177Y-27100D01*
X26125Y-27225D01*
X26125Y-27374D01*
X26177Y-27500D01*
X26125Y-27625D01*
X26125Y-27774D01*
X26182Y-27912D01*
X26287Y-28017D01*
X26425Y-28075D01*
X26574Y-28075D01*
X26712Y-28018D01*
X26817Y-27913D01*
X26875Y-27775D01*
X26875Y-29710D01*
X24218Y-29710D01*
X24275Y-29575D01*
X24275Y-29426D01*
X24222Y-29299D01*
X24275Y-29175D01*
X24275Y-29026D01*
X24218Y-28888D01*
X24113Y-28783D01*
X23975Y-28725D01*
X23875Y-28725D01*
X23875Y-27575D01*
X23875Y-27426D01*
X23822Y-27299D01*
X23875Y-27175D01*
X23875Y-27026D01*
X23822Y-26899D01*
X23875Y-26775D01*
X23875Y-26626D01*
X23822Y-26499D01*
X23875Y-26375D01*
X23875Y-26226D01*
X23818Y-26088D01*
X23713Y-25983D01*
X23596Y-25933D01*
X23617Y-25913D01*
X23675Y-25775D01*
X23675Y-25626D01*
X23622Y-25499D01*
X23675Y-25375D01*
X23675Y-25226D01*
X23622Y-25099D01*
X23675Y-24975D01*
X23675Y-24826D01*
X23622Y-24699D01*
X23675Y-24575D01*
X23675Y-24426D01*
X23618Y-24288D01*
X23513Y-24183D01*
X23375Y-24125D01*
X23226Y-24125D01*
X23088Y-24182D01*
X22983Y-24287D01*
X22925Y-24425D01*
X22925Y-24574D01*
X22977Y-24700D01*
X22925Y-24825D01*
X22925Y-24974D01*
X22977Y-25100D01*
X22925Y-25225D01*
X22925Y-25374D01*
X22977Y-25500D01*
X22925Y-25625D01*
X22925Y-25774D01*
X22982Y-25912D01*
X23087Y-26017D01*
X23203Y-26066D01*
X23183Y-26087D01*
X23125Y-26225D01*
X23125Y-26374D01*
X23177Y-26500D01*
X23125Y-26625D01*
X23125Y-26774D01*
X23177Y-26900D01*
X23125Y-27025D01*
X23125Y-27174D01*
X23177Y-27300D01*
X23125Y-27425D01*
X23125Y-27574D01*
X23182Y-27712D01*
X23287Y-27817D01*
X23425Y-27875D01*
X23574Y-27875D01*
X23712Y-27818D01*
X23817Y-27713D01*
X23875Y-27575D01*
X23875Y-28725D01*
X23826Y-28725D01*
X23688Y-28782D01*
X23583Y-28887D01*
X23525Y-29025D01*
X23525Y-29174D01*
X23577Y-29300D01*
X23525Y-29425D01*
X23525Y-29574D01*
X23581Y-29710D01*
X22320Y-29710D01*
X22417Y-29613D01*
X22475Y-29475D01*
X22475Y-29326D01*
X22475Y-27375D01*
X22475Y-27226D01*
X22418Y-27088D01*
X22313Y-26983D01*
X22175Y-26925D01*
X22026Y-26925D01*
X21888Y-26982D01*
X21783Y-27087D01*
X21725Y-27225D01*
X21725Y-27374D01*
X21782Y-27512D01*
X21887Y-27617D01*
X22025Y-27675D01*
X22174Y-27675D01*
X22312Y-27618D01*
X22417Y-27513D01*
X22475Y-27375D01*
X22475Y-29326D01*
X22418Y-29188D01*
X22313Y-29083D01*
X22175Y-29025D01*
X22026Y-29025D01*
X21888Y-29082D01*
X21783Y-29187D01*
X21725Y-29325D01*
X21725Y-29474D01*
X21782Y-29612D01*
X21880Y-29710D01*
X20575Y-29710D01*
X20575Y-23175D01*
X20575Y-23026D01*
X20518Y-22888D01*
X20413Y-22783D01*
X20275Y-22725D01*
X20126Y-22725D01*
X19988Y-22782D01*
X19883Y-22887D01*
X19833Y-23003D01*
X19813Y-22983D01*
X19675Y-22925D01*
X19526Y-22925D01*
X19388Y-22982D01*
X19283Y-23087D01*
X19275Y-23106D01*
X19275Y-20675D01*
X19275Y-20526D01*
X19218Y-20388D01*
X19113Y-20283D01*
X18975Y-20225D01*
X18826Y-20225D01*
X18688Y-20282D01*
X18583Y-20387D01*
X18525Y-20525D01*
X18525Y-20674D01*
X18582Y-20812D01*
X18687Y-20917D01*
X18825Y-20975D01*
X18974Y-20975D01*
X19112Y-20918D01*
X19217Y-20813D01*
X19275Y-20675D01*
X19275Y-23106D01*
X19225Y-23225D01*
X19225Y-23374D01*
X19282Y-23512D01*
X19387Y-23617D01*
X19525Y-23675D01*
X19674Y-23675D01*
X19812Y-23618D01*
X19917Y-23513D01*
X19966Y-23396D01*
X19987Y-23417D01*
X20125Y-23475D01*
X20274Y-23475D01*
X20412Y-23418D01*
X20517Y-23313D01*
X20575Y-23175D01*
X20575Y-29710D01*
X19275Y-29710D01*
X19275Y-27375D01*
X19275Y-27226D01*
X19222Y-27099D01*
X19275Y-26975D01*
X19275Y-26826D01*
X19222Y-26699D01*
X19275Y-26575D01*
X19275Y-26426D01*
X19218Y-26288D01*
X19113Y-26183D01*
X18975Y-26125D01*
X18853Y-26125D01*
X18875Y-26075D01*
X18875Y-25926D01*
X18818Y-25788D01*
X18713Y-25683D01*
X18575Y-25625D01*
X18426Y-25625D01*
X18288Y-25682D01*
X18265Y-25704D01*
X18218Y-25588D01*
X18113Y-25483D01*
X17975Y-25425D01*
X17826Y-25425D01*
X17688Y-25482D01*
X17583Y-25587D01*
X17525Y-25725D01*
X17525Y-25874D01*
X17582Y-26012D01*
X17687Y-26117D01*
X17803Y-26166D01*
X17783Y-26187D01*
X17725Y-26325D01*
X17725Y-26474D01*
X17782Y-26612D01*
X17887Y-26717D01*
X18025Y-26775D01*
X18174Y-26775D01*
X18300Y-26722D01*
X18425Y-26775D01*
X18546Y-26775D01*
X18525Y-26825D01*
X18525Y-26974D01*
X18577Y-27100D01*
X18525Y-27225D01*
X18525Y-27374D01*
X18582Y-27512D01*
X18687Y-27617D01*
X18825Y-27675D01*
X18974Y-27675D01*
X19112Y-27618D01*
X19217Y-27513D01*
X19275Y-27375D01*
X19275Y-29710D01*
X15220Y-29710D01*
X12990Y-27480D01*
X12990Y-20200D01*
X12989Y-20199D01*
X12968Y-20089D01*
X12967Y-20088D01*
X12905Y-19995D01*
X12904Y-19994D01*
X12540Y-19630D01*
X12549Y-19609D01*
X12549Y-19391D01*
X12549Y-16609D01*
X12549Y-16391D01*
X12465Y-16189D01*
X12311Y-16035D01*
X12226Y-16000D01*
X12311Y-15965D01*
X12465Y-15811D01*
X12549Y-15609D01*
X12549Y-15391D01*
X12465Y-15189D01*
X12311Y-15035D01*
X12226Y-15000D01*
X12311Y-14965D01*
X12465Y-14811D01*
X12549Y-14609D01*
X12549Y-14391D01*
X12465Y-14189D01*
X12311Y-14035D01*
X12226Y-14000D01*
X12311Y-13965D01*
X12465Y-13811D01*
X12549Y-13609D01*
X12549Y-13391D01*
X12465Y-13189D01*
X12311Y-13035D01*
X12109Y-12951D01*
X11891Y-12951D01*
X11689Y-13035D01*
X11549Y-13175D01*
X11549Y-13151D01*
X11511Y-13059D01*
X11441Y-12989D01*
X11350Y-12951D01*
X11251Y-12951D01*
X10651Y-12951D01*
X10559Y-12989D01*
X10489Y-13059D01*
X10451Y-13150D01*
X10451Y-13249D01*
X10451Y-13849D01*
X10489Y-13941D01*
X10559Y-14011D01*
X10650Y-14049D01*
X10675Y-14049D01*
X10535Y-14189D01*
X10451Y-14391D01*
X10451Y-14609D01*
X10535Y-14811D01*
X10689Y-14965D01*
X10773Y-15000D01*
X10689Y-15035D01*
X10535Y-15189D01*
X10451Y-15391D01*
X10451Y-15609D01*
X10535Y-15811D01*
X10689Y-15965D01*
X10773Y-16000D01*
X10689Y-16035D01*
X10535Y-16189D01*
X10451Y-16391D01*
X10451Y-16609D01*
X10535Y-16811D01*
X10689Y-16965D01*
X10780Y-17002D01*
X10719Y-17028D01*
X10692Y-17122D01*
X11000Y-17429D01*
X11308Y-17122D01*
X11281Y-17028D01*
X11215Y-17004D01*
X11311Y-16965D01*
X11465Y-16811D01*
X11500Y-16726D01*
X11535Y-16811D01*
X11689Y-16965D01*
X11780Y-17002D01*
X11719Y-17028D01*
X11692Y-17122D01*
X12000Y-17429D01*
X12308Y-17122D01*
X12281Y-17028D01*
X12215Y-17004D01*
X12311Y-16965D01*
X12465Y-16811D01*
X12549Y-16609D01*
X12549Y-19391D01*
X12543Y-19376D01*
X12543Y-17579D01*
X12532Y-17366D01*
X12472Y-17219D01*
X12378Y-17192D01*
X12071Y-17500D01*
X12378Y-17808D01*
X12472Y-17781D01*
X12543Y-17579D01*
X12543Y-19376D01*
X12465Y-19189D01*
X12311Y-19035D01*
X12308Y-19033D01*
X12308Y-17878D01*
X12000Y-17571D01*
X11929Y-17641D01*
X11929Y-17500D01*
X11622Y-17192D01*
X11528Y-17219D01*
X11502Y-17292D01*
X11472Y-17219D01*
X11378Y-17192D01*
X11071Y-17500D01*
X11378Y-17808D01*
X11472Y-17781D01*
X11497Y-17707D01*
X11528Y-17781D01*
X11622Y-17808D01*
X11929Y-17500D01*
X11929Y-17641D01*
X11692Y-17878D01*
X11719Y-17972D01*
X11921Y-18043D01*
X12134Y-18032D01*
X12281Y-17972D01*
X12308Y-17878D01*
X12308Y-19033D01*
X12109Y-18951D01*
X11891Y-18951D01*
X11689Y-19035D01*
X11549Y-19175D01*
X11549Y-19151D01*
X11511Y-19059D01*
X11441Y-18989D01*
X11350Y-18951D01*
X11308Y-18951D01*
X11308Y-17878D01*
X11000Y-17571D01*
X10929Y-17641D01*
X10929Y-17500D01*
X10622Y-17192D01*
X10528Y-17219D01*
X10457Y-17421D01*
X10468Y-17634D01*
X10528Y-17781D01*
X10622Y-17808D01*
X10929Y-17500D01*
X10929Y-17641D01*
X10692Y-17878D01*
X10719Y-17972D01*
X10921Y-18043D01*
X11134Y-18032D01*
X11281Y-17972D01*
X11308Y-17878D01*
X11308Y-18951D01*
X11251Y-18951D01*
X10651Y-18951D01*
X10559Y-18989D01*
X10489Y-19059D01*
X10451Y-19150D01*
X10451Y-19249D01*
X10451Y-19849D01*
X10489Y-19941D01*
X10559Y-20011D01*
X10650Y-20049D01*
X10675Y-20049D01*
X10535Y-20189D01*
X10451Y-20391D01*
X10451Y-20609D01*
X10535Y-20811D01*
X10689Y-20965D01*
X10773Y-21000D01*
X10689Y-21035D01*
X10535Y-21189D01*
X10451Y-21391D01*
X10451Y-21609D01*
X10535Y-21811D01*
X10689Y-21965D01*
X10773Y-22000D01*
X10689Y-22035D01*
X10535Y-22189D01*
X10451Y-22391D01*
X10451Y-22609D01*
X10535Y-22811D01*
X10675Y-22951D01*
X10651Y-22951D01*
X10559Y-22989D01*
X10489Y-23059D01*
X10451Y-23150D01*
X10451Y-23249D01*
X10451Y-23849D01*
X10489Y-23941D01*
X10559Y-24011D01*
X10650Y-24049D01*
X10675Y-24049D01*
X10535Y-24189D01*
X10451Y-24391D01*
X10451Y-24609D01*
X10535Y-24811D01*
X10689Y-24965D01*
X10773Y-25000D01*
X10689Y-25035D01*
X10535Y-25189D01*
X10451Y-25391D01*
X10451Y-25609D01*
X10535Y-25811D01*
X10689Y-25965D01*
X10773Y-26000D01*
X10689Y-26035D01*
X10535Y-26189D01*
X10451Y-26391D01*
X10451Y-26609D01*
X10535Y-26811D01*
X10675Y-26951D01*
X10651Y-26951D01*
X10559Y-26989D01*
X10489Y-27059D01*
X10451Y-27150D01*
X10451Y-27249D01*
X10451Y-27849D01*
X10489Y-27941D01*
X10559Y-28011D01*
X10650Y-28049D01*
X10675Y-28049D01*
X10535Y-28189D01*
X10451Y-28391D01*
X10451Y-28609D01*
X10535Y-28811D01*
X10689Y-28965D01*
X10773Y-29000D01*
X10689Y-29035D01*
X10535Y-29189D01*
X10451Y-29391D01*
X10451Y-29609D01*
X10535Y-29811D01*
X10689Y-29965D01*
X10773Y-30000D01*
X10689Y-30035D01*
X10535Y-30189D01*
X10451Y-30391D01*
X10451Y-30609D01*
X10535Y-30811D01*
X10689Y-30965D01*
X10891Y-31049D01*
X11109Y-31049D01*
X11130Y-31040D01*
X11494Y-31404D01*
X11495Y-31405D01*
X11588Y-31467D01*
X11589Y-31468D01*
X11699Y-31489D01*
X11700Y-31490D01*
X22772Y-31490D01*
X22782Y-31512D01*
X22887Y-31617D01*
X23025Y-31675D01*
X23174Y-31675D01*
X23312Y-31618D01*
X23417Y-31513D01*
X23475Y-31375D01*
X23475Y-31290D01*
X34580Y-31290D01*
X35785Y-32495D01*
X35689Y-32535D01*
X35535Y-32689D01*
X35500Y-32773D01*
X35465Y-32689D01*
X35311Y-32535D01*
X35109Y-32451D01*
X34891Y-32451D01*
X34689Y-32535D01*
X34535Y-32689D01*
X34500Y-32773D01*
X34465Y-32689D01*
X34311Y-32535D01*
X34109Y-32451D01*
X33891Y-32451D01*
X33689Y-32535D01*
X33535Y-32689D01*
X33500Y-32773D01*
X33465Y-32689D01*
X33311Y-32535D01*
X33109Y-32451D01*
X32891Y-32451D01*
X32689Y-32535D01*
X32535Y-32689D01*
X32500Y-32773D01*
X32465Y-32689D01*
X32311Y-32535D01*
X32109Y-32451D01*
X31891Y-32451D01*
X31689Y-32535D01*
X31535Y-32689D01*
X31500Y-32773D01*
X31465Y-32689D01*
X31311Y-32535D01*
X31109Y-32451D01*
X30891Y-32451D01*
X30689Y-32535D01*
X30535Y-32689D01*
X30500Y-32773D01*
X30465Y-32689D01*
X30311Y-32535D01*
X30109Y-32451D01*
X29891Y-32451D01*
X29689Y-32535D01*
X29535Y-32689D01*
X29500Y-32773D01*
X29465Y-32689D01*
X29311Y-32535D01*
X29109Y-32451D01*
X28891Y-32451D01*
X28689Y-32535D01*
X28535Y-32689D01*
X28500Y-32773D01*
X28465Y-32689D01*
X28328Y-32552D01*
X28412Y-32518D01*
X28517Y-32413D01*
X28575Y-32275D01*
X28575Y-32126D01*
X28518Y-31988D01*
X28413Y-31883D01*
X28275Y-31825D01*
X28126Y-31825D01*
X27988Y-31882D01*
X27883Y-31987D01*
X27825Y-32125D01*
X27825Y-32274D01*
X27882Y-32412D01*
X27921Y-32451D01*
X27891Y-32451D01*
X27689Y-32535D01*
X27535Y-32689D01*
X27500Y-32773D01*
X27465Y-32689D01*
X27311Y-32535D01*
X27109Y-32451D01*
X26891Y-32451D01*
X26689Y-32535D01*
X26535Y-32689D01*
X26500Y-32773D01*
X26465Y-32689D01*
X26311Y-32535D01*
X26109Y-32451D01*
X25891Y-32451D01*
X25689Y-32535D01*
X25535Y-32689D01*
X25500Y-32773D01*
X25465Y-32689D01*
X25311Y-32535D01*
X25109Y-32451D01*
X24891Y-32451D01*
X24689Y-32535D01*
X24535Y-32689D01*
X24500Y-32773D01*
X24465Y-32689D01*
X24311Y-32535D01*
X24109Y-32451D01*
X23932Y-32451D01*
X24012Y-32418D01*
X24117Y-32313D01*
X24175Y-32175D01*
X24175Y-32026D01*
X24118Y-31888D01*
X24013Y-31783D01*
X23875Y-31725D01*
X23726Y-31725D01*
X23588Y-31782D01*
X23483Y-31887D01*
X23425Y-32025D01*
X23425Y-32064D01*
X23279Y-32210D01*
X12800Y-32210D01*
X12689Y-32232D01*
X12595Y-32295D01*
X12333Y-32557D01*
X12311Y-32535D01*
X12109Y-32451D01*
X11891Y-32451D01*
X11689Y-32535D01*
X11535Y-32689D01*
X11451Y-32891D01*
X11451Y-33109D01*
X11535Y-33311D01*
X11675Y-33451D01*
X11651Y-33451D01*
X11559Y-33489D01*
X11489Y-33559D01*
X11451Y-33650D01*
X11451Y-33749D01*
X11451Y-34349D01*
X11489Y-34441D01*
X11559Y-34511D01*
X11650Y-34549D01*
X11749Y-34549D01*
X12349Y-34549D01*
X12441Y-34511D01*
X12511Y-34441D01*
X12549Y-34350D01*
X12549Y-34325D01*
X12689Y-34465D01*
X12891Y-34549D01*
X13109Y-34549D01*
X13311Y-34465D01*
X13465Y-34311D01*
X13500Y-34226D01*
X13535Y-34311D01*
X13689Y-34465D01*
X13891Y-34549D01*
X14109Y-34549D01*
X14311Y-34465D01*
X14465Y-34311D01*
X14500Y-34226D01*
X14535Y-34311D01*
X14689Y-34465D01*
X14891Y-34549D01*
X15109Y-34549D01*
X15311Y-34465D01*
X15465Y-34311D01*
X15500Y-34226D01*
X15535Y-34311D01*
X15689Y-34465D01*
X15891Y-34549D01*
X16109Y-34549D01*
X16311Y-34465D01*
X16465Y-34311D01*
X16500Y-34226D01*
X16535Y-34311D01*
X16689Y-34465D01*
X16891Y-34549D01*
X17109Y-34549D01*
X17311Y-34465D01*
X17465Y-34311D01*
X17500Y-34226D01*
X17535Y-34311D01*
X17689Y-34465D01*
X17891Y-34549D01*
X18109Y-34549D01*
X18311Y-34465D01*
X18465Y-34311D01*
X18500Y-34226D01*
X18535Y-34311D01*
X18689Y-34465D01*
X18891Y-34549D01*
X19109Y-34549D01*
X19311Y-34465D01*
X19465Y-34311D01*
X19500Y-34226D01*
X19535Y-34311D01*
X19689Y-34465D01*
X19891Y-34549D01*
X20109Y-34549D01*
X20311Y-34465D01*
X20465Y-34311D01*
X20500Y-34226D01*
X20535Y-34311D01*
X20689Y-34465D01*
X20891Y-34549D01*
X21109Y-34549D01*
X21311Y-34465D01*
X21465Y-34311D01*
X21500Y-34226D01*
X21535Y-34311D01*
X21689Y-34465D01*
X21891Y-34549D01*
X22109Y-34549D01*
X22311Y-34465D01*
X22465Y-34311D01*
X22500Y-34226D01*
X22535Y-34311D01*
X22689Y-34465D01*
X22891Y-34549D01*
X23109Y-34549D01*
X23311Y-34465D01*
X23465Y-34311D01*
X23500Y-34226D01*
X23535Y-34311D01*
X23689Y-34465D01*
X23891Y-34549D01*
X24109Y-34549D01*
X24311Y-34465D01*
X24465Y-34311D01*
X24500Y-34226D01*
X24535Y-34311D01*
X24689Y-34465D01*
X24891Y-34549D01*
X25109Y-34549D01*
X25311Y-34465D01*
X25465Y-34311D01*
X25500Y-34226D01*
X25535Y-34311D01*
X25689Y-34465D01*
X25891Y-34549D01*
X26109Y-34549D01*
X26311Y-34465D01*
X26465Y-34311D01*
X26500Y-34226D01*
X26535Y-34311D01*
X26689Y-34465D01*
X26891Y-34549D01*
X27109Y-34549D01*
X27311Y-34465D01*
X27465Y-34311D01*
X27500Y-34226D01*
X27535Y-34311D01*
X27689Y-34465D01*
X27891Y-34549D01*
X28109Y-34549D01*
X28311Y-34465D01*
X28465Y-34311D01*
X28500Y-34226D01*
X28535Y-34311D01*
X28689Y-34465D01*
X28891Y-34549D01*
X29109Y-34549D01*
X29311Y-34465D01*
X29465Y-34311D01*
X29500Y-34226D01*
X29535Y-34311D01*
X29689Y-34465D01*
X29891Y-34549D01*
X30109Y-34549D01*
X30311Y-34465D01*
X30465Y-34311D01*
X30500Y-34226D01*
X30535Y-34311D01*
X30689Y-34465D01*
X30891Y-34549D01*
X31109Y-34549D01*
X31311Y-34465D01*
X31465Y-34311D01*
X31500Y-34226D01*
X31535Y-34311D01*
X31689Y-34465D01*
X31891Y-34549D01*
X32109Y-34549D01*
X32311Y-34465D01*
X32465Y-34311D01*
X32500Y-34226D01*
X32535Y-34311D01*
X32689Y-34465D01*
X32891Y-34549D01*
X33109Y-34549D01*
X33311Y-34465D01*
X33465Y-34311D01*
X33500Y-34226D01*
X33535Y-34311D01*
X33689Y-34465D01*
X33891Y-34549D01*
X34109Y-34549D01*
X34311Y-34465D01*
X34465Y-34311D01*
X34500Y-34226D01*
X34535Y-34311D01*
X34689Y-34465D01*
X34891Y-34549D01*
X35109Y-34549D01*
X35311Y-34465D01*
X35465Y-34311D01*
X35500Y-34226D01*
X35535Y-34311D01*
X35689Y-34465D01*
X35891Y-34549D01*
X36109Y-34549D01*
X36311Y-34465D01*
X36465Y-34311D01*
X36500Y-34226D01*
X36535Y-34311D01*
X36689Y-34465D01*
X36891Y-34549D01*
X37109Y-34549D01*
X37311Y-34465D01*
X37465Y-34311D01*
X37500Y-34226D01*
X37535Y-34311D01*
X37689Y-34465D01*
X37891Y-34549D01*
X38109Y-34549D01*
X38311Y-34465D01*
X38465Y-34311D01*
X38500Y-34226D01*
X38535Y-34311D01*
X38689Y-34465D01*
X38891Y-34549D01*
X39109Y-34549D01*
X39311Y-34465D01*
X39465Y-34311D01*
X39500Y-34226D01*
X39535Y-34311D01*
X39689Y-34465D01*
X39891Y-34549D01*
X40109Y-34549D01*
X40311Y-34465D01*
X40465Y-34311D01*
X40500Y-34226D01*
X40535Y-34311D01*
X40689Y-34465D01*
X40891Y-34549D01*
X41109Y-34549D01*
X41311Y-34465D01*
X41465Y-34311D01*
X41500Y-34226D01*
X41535Y-34311D01*
X41689Y-34465D01*
X41891Y-34549D01*
X42109Y-34549D01*
X42311Y-34465D01*
X42465Y-34311D01*
X42502Y-34219D01*
X42528Y-34281D01*
X42622Y-34308D01*
X42929Y-34000D01*
X42622Y-33692D01*
X42528Y-33719D01*
X42504Y-33784D01*
X42465Y-33689D01*
X42311Y-33535D01*
X42226Y-33500D01*
X42311Y-33465D01*
X42465Y-33311D01*
X42500Y-33226D01*
X42535Y-33311D01*
X42689Y-33465D01*
X42780Y-33502D01*
X42719Y-33528D01*
X42692Y-33622D01*
X43000Y-33929D01*
X43308Y-33622D01*
X43281Y-33528D01*
X43215Y-33504D01*
X43311Y-33465D01*
X43465Y-33311D01*
X43549Y-33109D01*
X43549Y-37675D01*
X43543Y-37675D01*
X43543Y-34079D01*
X43532Y-33866D01*
X43472Y-33719D01*
X43378Y-33692D01*
X43071Y-34000D01*
X43378Y-34308D01*
X43472Y-34281D01*
X43543Y-34079D01*
X43543Y-37675D01*
X43308Y-37675D01*
X43308Y-34378D01*
X43000Y-34071D01*
X42692Y-34378D01*
X42719Y-34472D01*
X42921Y-34543D01*
X43134Y-34532D01*
X43281Y-34472D01*
X43308Y-34378D01*
X43308Y-37675D01*
X10325Y-37675D01*
X10325Y-06325D01*
X47175Y-06325D01*
X47175Y-37675D01*
X47175Y-37675D01*
G37*
G54D17*
X47175Y-37675D02*
X47049Y-37675D01*
X47049Y-37109D01*
X47049Y-36891D01*
X46999Y-36770D01*
X46965Y-36689D01*
X46811Y-36535D01*
X46726Y-36500D01*
X46811Y-36465D01*
X46965Y-36311D01*
X46999Y-36229D01*
X47049Y-36109D01*
X47049Y-35891D01*
X46999Y-35770D01*
X46965Y-35689D01*
X46811Y-35535D01*
X46726Y-35500D01*
X46811Y-35465D01*
X46965Y-35311D01*
X46999Y-35229D01*
X47049Y-35109D01*
X47049Y-34891D01*
X46999Y-34770D01*
X46965Y-34689D01*
X46811Y-34535D01*
X46726Y-34500D01*
X46811Y-34465D01*
X46965Y-34311D01*
X46999Y-34229D01*
X47049Y-34109D01*
X47049Y-33891D01*
X46999Y-33770D01*
X46965Y-33689D01*
X46811Y-33535D01*
X46609Y-33451D01*
X46391Y-33451D01*
X46189Y-33535D01*
X46049Y-33675D01*
X46049Y-33651D01*
X46011Y-33559D01*
X45941Y-33489D01*
X45850Y-33451D01*
X45751Y-33451D01*
X45290Y-33451D01*
X45290Y-33007D01*
X45391Y-33049D01*
X45609Y-33049D01*
X45811Y-32965D01*
X45965Y-32811D01*
X46000Y-32726D01*
X46035Y-32811D01*
X46189Y-32965D01*
X46391Y-33049D01*
X46609Y-33049D01*
X46811Y-32965D01*
X46965Y-32811D01*
X46999Y-32729D01*
X47049Y-32609D01*
X47049Y-32391D01*
X46999Y-32270D01*
X46965Y-32189D01*
X46811Y-32035D01*
X46726Y-32000D01*
X46811Y-31965D01*
X46965Y-31811D01*
X46999Y-31729D01*
X47049Y-31609D01*
X47049Y-31391D01*
X46999Y-31270D01*
X46965Y-31189D01*
X46811Y-31035D01*
X46726Y-31000D01*
X46811Y-30965D01*
X46965Y-30811D01*
X46999Y-30729D01*
X47049Y-30609D01*
X47049Y-30391D01*
X46999Y-30270D01*
X46965Y-30189D01*
X46811Y-30035D01*
X46726Y-30000D01*
X46811Y-29965D01*
X46965Y-29811D01*
X46999Y-29729D01*
X47049Y-29609D01*
X47049Y-29391D01*
X46999Y-29270D01*
X46999Y-27550D01*
X46999Y-26848D01*
X46999Y-24400D01*
X46999Y-23698D01*
X46293Y-23698D01*
X46293Y-24400D01*
X46999Y-24400D01*
X46999Y-26848D01*
X46293Y-26848D01*
X46293Y-27550D01*
X46999Y-27550D01*
X46999Y-29270D01*
X46965Y-29189D01*
X46811Y-29035D01*
X46609Y-28951D01*
X46391Y-28951D01*
X46189Y-29035D01*
X46049Y-29175D01*
X46049Y-29151D01*
X46011Y-29059D01*
X45941Y-28989D01*
X45850Y-28951D01*
X45751Y-28951D01*
X45290Y-28951D01*
X45290Y-21507D01*
X45391Y-21549D01*
X45609Y-21549D01*
X45811Y-21465D01*
X45965Y-21311D01*
X46000Y-21226D01*
X46035Y-21311D01*
X46189Y-21465D01*
X46391Y-21549D01*
X46609Y-21549D01*
X46811Y-21465D01*
X46965Y-21311D01*
X47049Y-21109D01*
X47049Y-20891D01*
X46965Y-20689D01*
X46811Y-20535D01*
X46726Y-20500D01*
X46811Y-20465D01*
X46965Y-20311D01*
X47049Y-20109D01*
X47049Y-19891D01*
X46965Y-19689D01*
X46811Y-19535D01*
X46726Y-19500D01*
X46811Y-19465D01*
X46965Y-19311D01*
X47049Y-19109D01*
X47049Y-18891D01*
X46965Y-18689D01*
X46811Y-18535D01*
X46726Y-18500D01*
X46811Y-18465D01*
X46965Y-18311D01*
X47049Y-18109D01*
X47049Y-17891D01*
X46965Y-17689D01*
X46811Y-17535D01*
X46726Y-17500D01*
X46811Y-17465D01*
X46965Y-17311D01*
X47049Y-17109D01*
X47049Y-16891D01*
X46965Y-16689D01*
X46811Y-16535D01*
X46726Y-16500D01*
X46811Y-16465D01*
X46965Y-16311D01*
X47049Y-16109D01*
X47049Y-15891D01*
X46965Y-15689D01*
X46811Y-15535D01*
X46609Y-15451D01*
X46391Y-15451D01*
X46189Y-15535D01*
X46049Y-15675D01*
X46049Y-15651D01*
X46011Y-15559D01*
X45941Y-15489D01*
X45850Y-15451D01*
X45751Y-15451D01*
X45290Y-15451D01*
X45290Y-15120D01*
X45369Y-15040D01*
X45391Y-15049D01*
X45609Y-15049D01*
X45811Y-14965D01*
X45965Y-14811D01*
X46000Y-14726D01*
X46035Y-14811D01*
X46189Y-14965D01*
X46391Y-15049D01*
X46609Y-15049D01*
X46811Y-14965D01*
X46965Y-14811D01*
X47049Y-14609D01*
X47049Y-14391D01*
X46965Y-14189D01*
X46811Y-14035D01*
X46726Y-14000D01*
X46811Y-13965D01*
X46965Y-13811D01*
X47049Y-13609D01*
X47049Y-13391D01*
X46965Y-13189D01*
X46811Y-13035D01*
X46726Y-13000D01*
X46811Y-12965D01*
X46965Y-12811D01*
X47049Y-12609D01*
X47049Y-12391D01*
X46965Y-12189D01*
X46811Y-12035D01*
X46726Y-12000D01*
X46811Y-11965D01*
X46965Y-11811D01*
X47049Y-11609D01*
X47049Y-11391D01*
X46965Y-11189D01*
X46811Y-11035D01*
X46609Y-10951D01*
X46391Y-10951D01*
X46189Y-11035D01*
X46049Y-11175D01*
X46049Y-11151D01*
X46011Y-11059D01*
X45941Y-10989D01*
X45850Y-10951D01*
X45751Y-10951D01*
X45151Y-10951D01*
X45059Y-10989D01*
X44989Y-11059D01*
X44951Y-11150D01*
X44951Y-11249D01*
X44951Y-11638D01*
X44490Y-12099D01*
X44490Y-11420D01*
X45369Y-10540D01*
X45391Y-10549D01*
X45609Y-10549D01*
X45811Y-10465D01*
X45965Y-10311D01*
X46000Y-10226D01*
X46035Y-10311D01*
X46189Y-10465D01*
X46391Y-10549D01*
X46609Y-10549D01*
X46811Y-10465D01*
X46965Y-10311D01*
X47049Y-10109D01*
X47049Y-09891D01*
X46965Y-09689D01*
X46811Y-09535D01*
X46726Y-09500D01*
X46811Y-09465D01*
X46965Y-09311D01*
X47049Y-09109D01*
X47049Y-08891D01*
X46965Y-08689D01*
X46811Y-08535D01*
X46726Y-08500D01*
X46811Y-08465D01*
X46965Y-08311D01*
X47049Y-08109D01*
X47049Y-07891D01*
X46965Y-07689D01*
X46811Y-07535D01*
X46726Y-07500D01*
X46811Y-07465D01*
X46965Y-07311D01*
X47049Y-07109D01*
X47049Y-06891D01*
X46965Y-06689D01*
X46811Y-06535D01*
X46609Y-06451D01*
X46391Y-06451D01*
X46189Y-06535D01*
X46049Y-06675D01*
X46049Y-06651D01*
X46011Y-06559D01*
X45941Y-06489D01*
X45850Y-06451D01*
X45751Y-06451D01*
X45151Y-06451D01*
X45059Y-06489D01*
X44989Y-06559D01*
X44951Y-06650D01*
X44951Y-06749D01*
X44951Y-07139D01*
X43395Y-08695D01*
X43332Y-08789D01*
X43310Y-08900D01*
X43310Y-09451D01*
X43251Y-09451D01*
X42651Y-09451D01*
X42559Y-09489D01*
X42489Y-09559D01*
X42451Y-09650D01*
X42451Y-09675D01*
X42311Y-09535D01*
X42109Y-09451D01*
X41891Y-09451D01*
X41689Y-09535D01*
X41535Y-09689D01*
X41500Y-09773D01*
X41465Y-09689D01*
X41311Y-09535D01*
X41109Y-09451D01*
X40891Y-09451D01*
X40689Y-09535D01*
X40535Y-09689D01*
X40500Y-09773D01*
X40465Y-09689D01*
X40311Y-09535D01*
X40109Y-09451D01*
X39891Y-09451D01*
X39689Y-09535D01*
X39535Y-09689D01*
X39500Y-09773D01*
X39465Y-09689D01*
X39311Y-09535D01*
X39109Y-09451D01*
X38891Y-09451D01*
X38689Y-09535D01*
X38535Y-09689D01*
X38500Y-09773D01*
X38465Y-09689D01*
X38311Y-09535D01*
X38109Y-09451D01*
X37891Y-09451D01*
X37689Y-09535D01*
X37535Y-09689D01*
X37500Y-09773D01*
X37465Y-09689D01*
X37311Y-09535D01*
X37109Y-09451D01*
X36891Y-09451D01*
X36689Y-09535D01*
X36535Y-09689D01*
X36500Y-09773D01*
X36465Y-09689D01*
X36311Y-09535D01*
X36109Y-09451D01*
X35891Y-09451D01*
X35689Y-09535D01*
X35535Y-09689D01*
X35500Y-09773D01*
X35465Y-09689D01*
X35311Y-09535D01*
X35109Y-09451D01*
X34891Y-09451D01*
X34689Y-09535D01*
X34535Y-09689D01*
X34500Y-09773D01*
X34465Y-09689D01*
X34311Y-09535D01*
X34109Y-09451D01*
X33891Y-09451D01*
X33689Y-09535D01*
X33535Y-09689D01*
X33500Y-09773D01*
X33465Y-09689D01*
X33311Y-09535D01*
X33109Y-09451D01*
X32891Y-09451D01*
X32689Y-09535D01*
X32535Y-09689D01*
X32500Y-09773D01*
X32465Y-09689D01*
X32311Y-09535D01*
X32109Y-09451D01*
X31891Y-09451D01*
X31689Y-09535D01*
X31535Y-09689D01*
X31500Y-09773D01*
X31465Y-09689D01*
X31311Y-09535D01*
X31109Y-09451D01*
X30891Y-09451D01*
X30689Y-09535D01*
X30535Y-09689D01*
X30500Y-09773D01*
X30465Y-09689D01*
X30311Y-09535D01*
X30109Y-09451D01*
X29891Y-09451D01*
X29689Y-09535D01*
X29535Y-09689D01*
X29500Y-09773D01*
X29465Y-09689D01*
X29311Y-09535D01*
X29109Y-09451D01*
X28891Y-09451D01*
X28689Y-09535D01*
X28535Y-09689D01*
X28500Y-09773D01*
X28465Y-09689D01*
X28311Y-09535D01*
X28109Y-09451D01*
X27891Y-09451D01*
X27689Y-09535D01*
X27535Y-09689D01*
X27500Y-09773D01*
X27465Y-09689D01*
X27311Y-09535D01*
X27109Y-09451D01*
X26891Y-09451D01*
X26689Y-09535D01*
X26535Y-09689D01*
X26500Y-09773D01*
X26465Y-09689D01*
X26311Y-09535D01*
X26109Y-09451D01*
X25891Y-09451D01*
X25689Y-09535D01*
X25535Y-09689D01*
X25500Y-09773D01*
X25465Y-09689D01*
X25311Y-09535D01*
X25109Y-09451D01*
X24891Y-09451D01*
X24689Y-09535D01*
X24535Y-09689D01*
X24500Y-09773D01*
X24465Y-09689D01*
X24311Y-09535D01*
X24109Y-09451D01*
X23891Y-09451D01*
X23689Y-09535D01*
X23535Y-09689D01*
X23500Y-09773D01*
X23465Y-09689D01*
X23311Y-09535D01*
X23109Y-09451D01*
X22891Y-09451D01*
X22689Y-09535D01*
X22535Y-09689D01*
X22500Y-09773D01*
X22465Y-09689D01*
X22311Y-09535D01*
X22109Y-09451D01*
X21891Y-09451D01*
X21689Y-09535D01*
X21535Y-09689D01*
X21500Y-09773D01*
X21465Y-09689D01*
X21311Y-09535D01*
X21109Y-09451D01*
X20891Y-09451D01*
X20689Y-09535D01*
X20535Y-09689D01*
X20500Y-09773D01*
X20465Y-09689D01*
X20311Y-09535D01*
X20109Y-09451D01*
X19891Y-09451D01*
X19689Y-09535D01*
X19535Y-09689D01*
X19500Y-09773D01*
X19465Y-09689D01*
X19311Y-09535D01*
X19109Y-09451D01*
X18891Y-09451D01*
X18689Y-09535D01*
X18535Y-09689D01*
X18500Y-09773D01*
X18465Y-09689D01*
X18311Y-09535D01*
X18109Y-09451D01*
X17891Y-09451D01*
X17689Y-09535D01*
X17535Y-09689D01*
X17500Y-09773D01*
X17465Y-09689D01*
X17311Y-09535D01*
X17109Y-09451D01*
X16891Y-09451D01*
X16689Y-09535D01*
X16535Y-09689D01*
X16500Y-09773D01*
X16465Y-09689D01*
X16311Y-09535D01*
X16109Y-09451D01*
X15891Y-09451D01*
X15875Y-09457D01*
X15875Y-08875D01*
X15875Y-08726D01*
X15818Y-08588D01*
X15713Y-08483D01*
X15575Y-08425D01*
X15426Y-08425D01*
X15288Y-08482D01*
X15183Y-08587D01*
X15125Y-08725D01*
X15125Y-08874D01*
X15182Y-09012D01*
X15287Y-09117D01*
X15425Y-09175D01*
X15574Y-09175D01*
X15712Y-09118D01*
X15817Y-09013D01*
X15875Y-08875D01*
X15875Y-09457D01*
X15689Y-09535D01*
X15535Y-09689D01*
X15500Y-09773D01*
X15465Y-09689D01*
X15311Y-09535D01*
X15109Y-09451D01*
X14891Y-09451D01*
X14689Y-09535D01*
X14535Y-09689D01*
X14500Y-09773D01*
X14465Y-09689D01*
X14311Y-09535D01*
X14109Y-09451D01*
X13891Y-09451D01*
X13689Y-09535D01*
X13535Y-09689D01*
X13500Y-09773D01*
X13465Y-09689D01*
X13311Y-09535D01*
X13109Y-09451D01*
X12891Y-09451D01*
X12689Y-09535D01*
X12535Y-09689D01*
X12500Y-09773D01*
X12465Y-09689D01*
X12311Y-09535D01*
X12109Y-09451D01*
X11891Y-09451D01*
X11689Y-09535D01*
X11535Y-09689D01*
X11451Y-09891D01*
X11451Y-10109D01*
X11535Y-10311D01*
X11689Y-10465D01*
X11773Y-10500D01*
X11689Y-10535D01*
X11535Y-10689D01*
X11451Y-10891D01*
X11451Y-11109D01*
X11535Y-11311D01*
X11689Y-11465D01*
X11891Y-11549D01*
X12109Y-11549D01*
X12311Y-11465D01*
X12465Y-11311D01*
X12500Y-11226D01*
X12535Y-11311D01*
X12689Y-11465D01*
X12891Y-11549D01*
X13109Y-11549D01*
X13311Y-11465D01*
X13465Y-11311D01*
X13500Y-11226D01*
X13535Y-11311D01*
X13689Y-11465D01*
X13891Y-11549D01*
X14109Y-11549D01*
X14311Y-11465D01*
X14465Y-11311D01*
X14500Y-11226D01*
X14535Y-11311D01*
X14689Y-11465D01*
X14891Y-11549D01*
X15109Y-11549D01*
X15311Y-11465D01*
X15465Y-11311D01*
X15500Y-11226D01*
X15535Y-11311D01*
X15689Y-11465D01*
X15891Y-11549D01*
X16109Y-11549D01*
X16311Y-11465D01*
X16465Y-11311D01*
X16500Y-11226D01*
X16535Y-11311D01*
X16689Y-11465D01*
X16891Y-11549D01*
X17109Y-11549D01*
X17311Y-11465D01*
X17465Y-11311D01*
X17500Y-11226D01*
X17535Y-11311D01*
X17689Y-11465D01*
X17891Y-11549D01*
X18109Y-11549D01*
X18311Y-11465D01*
X18465Y-11311D01*
X18500Y-11226D01*
X18535Y-11311D01*
X18689Y-11465D01*
X18891Y-11549D01*
X19109Y-11549D01*
X19311Y-11465D01*
X19465Y-11311D01*
X19500Y-11226D01*
X19535Y-11311D01*
X19689Y-11465D01*
X19891Y-11549D01*
X20109Y-11549D01*
X20311Y-11465D01*
X20465Y-11311D01*
X20500Y-11226D01*
X20535Y-11311D01*
X20689Y-11465D01*
X20891Y-11549D01*
X21109Y-11549D01*
X21311Y-11465D01*
X21465Y-11311D01*
X21502Y-11219D01*
X21528Y-11281D01*
X21622Y-11308D01*
X21929Y-11000D01*
X21622Y-10692D01*
X21528Y-10719D01*
X21504Y-10784D01*
X21465Y-10689D01*
X21311Y-10535D01*
X21226Y-10500D01*
X21311Y-10465D01*
X21465Y-10311D01*
X21500Y-10226D01*
X21535Y-10311D01*
X21689Y-10465D01*
X21780Y-10502D01*
X21719Y-10528D01*
X21692Y-10622D01*
X21965Y-10894D01*
X22000Y-10929D01*
X22071Y-11000D01*
X22000Y-11071D01*
X21692Y-11378D01*
X21719Y-11472D01*
X21921Y-11543D01*
X22134Y-11532D01*
X22242Y-11487D01*
X22270Y-11530D01*
X22468Y-11727D01*
X22470Y-11730D01*
X22575Y-11799D01*
X22576Y-11800D01*
X22674Y-11819D01*
X22699Y-11825D01*
X22699Y-11824D01*
X22700Y-11825D01*
X27365Y-11825D01*
X28232Y-12691D01*
X28282Y-12812D01*
X28387Y-12917D01*
X28525Y-12975D01*
X28674Y-12975D01*
X28812Y-12918D01*
X28917Y-12813D01*
X28975Y-12675D01*
X28975Y-12526D01*
X28918Y-12388D01*
X28813Y-12283D01*
X28690Y-12231D01*
X28008Y-11549D01*
X28109Y-11549D01*
X28311Y-11465D01*
X28465Y-11311D01*
X28500Y-11226D01*
X28535Y-11311D01*
X28689Y-11465D01*
X28891Y-11549D01*
X29109Y-11549D01*
X29311Y-11465D01*
X29465Y-11311D01*
X29500Y-11226D01*
X29535Y-11311D01*
X29689Y-11465D01*
X29891Y-11549D01*
X30109Y-11549D01*
X30311Y-11465D01*
X30465Y-11311D01*
X30500Y-11226D01*
X30535Y-11311D01*
X30689Y-11465D01*
X30891Y-11549D01*
X31109Y-11549D01*
X31311Y-11465D01*
X31465Y-11311D01*
X31500Y-11226D01*
X31535Y-11311D01*
X31689Y-11465D01*
X31891Y-11549D01*
X32109Y-11549D01*
X32311Y-11465D01*
X32465Y-11311D01*
X32500Y-11226D01*
X32535Y-11311D01*
X32689Y-11465D01*
X32891Y-11549D01*
X33109Y-11549D01*
X33311Y-11465D01*
X33465Y-11311D01*
X33500Y-11226D01*
X33535Y-11311D01*
X33689Y-11465D01*
X33891Y-11549D01*
X34109Y-11549D01*
X34311Y-11465D01*
X34465Y-11311D01*
X34500Y-11226D01*
X34535Y-11311D01*
X34689Y-11465D01*
X34891Y-11549D01*
X35109Y-11549D01*
X35311Y-11465D01*
X35465Y-11311D01*
X35500Y-11226D01*
X35535Y-11311D01*
X35689Y-11465D01*
X35891Y-11549D01*
X36109Y-11549D01*
X36311Y-11465D01*
X36465Y-11311D01*
X36500Y-11226D01*
X36535Y-11311D01*
X36689Y-11465D01*
X36891Y-11549D01*
X37109Y-11549D01*
X37311Y-11465D01*
X37465Y-11311D01*
X37500Y-11226D01*
X37535Y-11311D01*
X37689Y-11465D01*
X37891Y-11549D01*
X38109Y-11549D01*
X38311Y-11465D01*
X38465Y-11311D01*
X38500Y-11226D01*
X38535Y-11311D01*
X38689Y-11465D01*
X38891Y-11549D01*
X39109Y-11549D01*
X39311Y-11465D01*
X39465Y-11311D01*
X39500Y-11226D01*
X39535Y-11311D01*
X39689Y-11465D01*
X39891Y-11549D01*
X40109Y-11549D01*
X40311Y-11465D01*
X40465Y-11311D01*
X40500Y-11226D01*
X40535Y-11311D01*
X40689Y-11465D01*
X40891Y-11549D01*
X41109Y-11549D01*
X41311Y-11465D01*
X41465Y-11311D01*
X41500Y-11226D01*
X41535Y-11311D01*
X41689Y-11465D01*
X41709Y-11473D01*
X41688Y-11482D01*
X41583Y-11587D01*
X41525Y-11725D01*
X41525Y-11874D01*
X41582Y-12012D01*
X41687Y-12117D01*
X41825Y-12175D01*
X41974Y-12175D01*
X42112Y-12118D01*
X42217Y-12013D01*
X42275Y-11875D01*
X42275Y-11726D01*
X42218Y-11588D01*
X42158Y-11528D01*
X42311Y-11465D01*
X42465Y-11311D01*
X42500Y-11226D01*
X42535Y-11311D01*
X42689Y-11465D01*
X42891Y-11549D01*
X43109Y-11549D01*
X43310Y-11465D01*
X43310Y-14325D01*
X43226Y-14325D01*
X43088Y-14382D01*
X42983Y-14487D01*
X42925Y-14625D01*
X42925Y-14774D01*
X42982Y-14912D01*
X43087Y-15017D01*
X43225Y-15075D01*
X43310Y-15075D01*
X43310Y-29172D01*
X43288Y-29182D01*
X43183Y-29287D01*
X43125Y-29425D01*
X43125Y-29574D01*
X43182Y-29712D01*
X43287Y-29817D01*
X43425Y-29875D01*
X43510Y-29875D01*
X43510Y-30172D01*
X43488Y-30182D01*
X43383Y-30287D01*
X43325Y-30425D01*
X43325Y-30574D01*
X43346Y-30625D01*
X43226Y-30625D01*
X43088Y-30682D01*
X42983Y-30787D01*
X42925Y-30925D01*
X42925Y-31074D01*
X42982Y-31212D01*
X43087Y-31317D01*
X43225Y-31375D01*
X43374Y-31375D01*
X43512Y-31318D01*
X43617Y-31213D01*
X43675Y-31075D01*
X43675Y-30926D01*
X43653Y-30875D01*
X43710Y-30875D01*
X43710Y-31172D01*
X43688Y-31182D01*
X43583Y-31287D01*
X43525Y-31425D01*
X43525Y-31574D01*
X43582Y-31712D01*
X43687Y-31817D01*
X43825Y-31875D01*
X43910Y-31875D01*
X43910Y-32172D01*
X43888Y-32182D01*
X43783Y-32287D01*
X43725Y-32425D01*
X43725Y-32574D01*
X43782Y-32712D01*
X43887Y-32817D01*
X44025Y-32875D01*
X44110Y-32875D01*
X44110Y-33672D01*
X44088Y-33682D01*
X43983Y-33787D01*
X43925Y-33925D01*
X43925Y-34074D01*
X43982Y-34212D01*
X44087Y-34317D01*
X44225Y-34375D01*
X44310Y-34375D01*
X44310Y-34672D01*
X44288Y-34682D01*
X44183Y-34787D01*
X44125Y-34925D01*
X44125Y-35074D01*
X44182Y-35212D01*
X44287Y-35317D01*
X44425Y-35375D01*
X44510Y-35375D01*
X44510Y-35672D01*
X44488Y-35682D01*
X44383Y-35787D01*
X44325Y-35925D01*
X44325Y-36074D01*
X44382Y-36212D01*
X44487Y-36317D01*
X44625Y-36375D01*
X44710Y-36375D01*
X44710Y-36500D01*
X44732Y-36611D01*
X44795Y-36705D01*
X44959Y-36869D01*
X44951Y-36891D01*
X44951Y-37109D01*
X45035Y-37311D01*
X45189Y-37465D01*
X45391Y-37549D01*
X45609Y-37549D01*
X45811Y-37465D01*
X45965Y-37311D01*
X46000Y-37226D01*
X46035Y-37311D01*
X46189Y-37465D01*
X46391Y-37549D01*
X46609Y-37549D01*
X46811Y-37465D01*
X46965Y-37311D01*
X46999Y-37229D01*
X47049Y-37109D01*
X47049Y-37675D01*
X46999Y-37675D01*
X43549Y-37675D01*
X43549Y-33109D01*
X43549Y-32891D01*
X43465Y-32689D01*
X43311Y-32535D01*
X43109Y-32451D01*
X42891Y-32451D01*
X42875Y-32457D01*
X42875Y-21575D01*
X42875Y-21426D01*
X42818Y-21288D01*
X42713Y-21183D01*
X42575Y-21125D01*
X42426Y-21125D01*
X42288Y-21182D01*
X42183Y-21287D01*
X42125Y-21425D01*
X42125Y-21574D01*
X42182Y-21712D01*
X42287Y-21817D01*
X42425Y-21875D01*
X42574Y-21875D01*
X42712Y-21818D01*
X42817Y-21713D01*
X42875Y-21575D01*
X42875Y-32457D01*
X42689Y-32535D01*
X42535Y-32689D01*
X42500Y-32773D01*
X42475Y-32713D01*
X42475Y-28475D01*
X42475Y-28326D01*
X42418Y-28188D01*
X42313Y-28083D01*
X42175Y-28025D01*
X42100Y-28025D01*
X42100Y-25700D01*
X42100Y-25551D01*
X42043Y-25413D01*
X41938Y-25308D01*
X41800Y-25250D01*
X41651Y-25250D01*
X41513Y-25307D01*
X41408Y-25412D01*
X41350Y-25550D01*
X41350Y-25699D01*
X41407Y-25837D01*
X41512Y-25942D01*
X41650Y-26000D01*
X41799Y-26000D01*
X41937Y-25943D01*
X42042Y-25838D01*
X42100Y-25700D01*
X42100Y-28025D01*
X42075Y-28025D01*
X42075Y-26575D01*
X42075Y-26426D01*
X42018Y-26288D01*
X41913Y-26183D01*
X41775Y-26125D01*
X41626Y-26125D01*
X41488Y-26182D01*
X41383Y-26287D01*
X41325Y-26425D01*
X41325Y-26574D01*
X41382Y-26712D01*
X41487Y-26817D01*
X41625Y-26875D01*
X41774Y-26875D01*
X41912Y-26818D01*
X42017Y-26713D01*
X42075Y-26575D01*
X42075Y-28025D01*
X42026Y-28025D01*
X41888Y-28082D01*
X41783Y-28187D01*
X41725Y-28325D01*
X41725Y-28474D01*
X41782Y-28612D01*
X41887Y-28717D01*
X42025Y-28775D01*
X42174Y-28775D01*
X42312Y-28718D01*
X42417Y-28613D01*
X42475Y-28475D01*
X42475Y-32713D01*
X42465Y-32689D01*
X42311Y-32535D01*
X42109Y-32451D01*
X41891Y-32451D01*
X41689Y-32535D01*
X41535Y-32689D01*
X41500Y-32773D01*
X41465Y-32689D01*
X41311Y-32535D01*
X41109Y-32451D01*
X40891Y-32451D01*
X40775Y-32499D01*
X40775Y-30175D01*
X40775Y-30026D01*
X40718Y-29888D01*
X40700Y-29870D01*
X40700Y-25700D01*
X40700Y-25551D01*
X40643Y-25413D01*
X40538Y-25308D01*
X40400Y-25250D01*
X40251Y-25250D01*
X40113Y-25307D01*
X40008Y-25412D01*
X39950Y-25550D01*
X39950Y-25699D01*
X40007Y-25837D01*
X40112Y-25942D01*
X40250Y-26000D01*
X40399Y-26000D01*
X40537Y-25943D01*
X40642Y-25838D01*
X40700Y-25700D01*
X40700Y-29870D01*
X40613Y-29783D01*
X40475Y-29725D01*
X40326Y-29725D01*
X40188Y-29782D01*
X40083Y-29887D01*
X40025Y-30025D01*
X40025Y-30174D01*
X40082Y-30312D01*
X40187Y-30417D01*
X40325Y-30475D01*
X40474Y-30475D01*
X40612Y-30418D01*
X40717Y-30313D01*
X40775Y-30175D01*
X40775Y-32499D01*
X40689Y-32535D01*
X40535Y-32689D01*
X40500Y-32773D01*
X40465Y-32689D01*
X40311Y-32535D01*
X40109Y-32451D01*
X39891Y-32451D01*
X39869Y-32459D01*
X39705Y-32295D01*
X39611Y-32232D01*
X39500Y-32210D01*
X39049Y-32210D01*
X39049Y-22350D01*
X39049Y-22251D01*
X39049Y-21651D01*
X39011Y-21559D01*
X38941Y-21489D01*
X38850Y-21451D01*
X38751Y-21451D01*
X38151Y-21451D01*
X38059Y-21489D01*
X37989Y-21559D01*
X37951Y-21650D01*
X37951Y-21675D01*
X37811Y-21535D01*
X37609Y-21451D01*
X37391Y-21451D01*
X37189Y-21535D01*
X37035Y-21689D01*
X36951Y-21891D01*
X36951Y-22109D01*
X37035Y-22311D01*
X37189Y-22465D01*
X37391Y-22549D01*
X37609Y-22549D01*
X37811Y-22465D01*
X37951Y-22325D01*
X37951Y-22349D01*
X37989Y-22441D01*
X38059Y-22511D01*
X38150Y-22549D01*
X38249Y-22549D01*
X38849Y-22549D01*
X38941Y-22511D01*
X39011Y-22441D01*
X39049Y-22350D01*
X39049Y-32210D01*
X38620Y-32210D01*
X36575Y-30165D01*
X36575Y-17375D01*
X36575Y-17226D01*
X36575Y-16175D01*
X36575Y-16026D01*
X36518Y-15888D01*
X36413Y-15783D01*
X36275Y-15725D01*
X36126Y-15725D01*
X35988Y-15782D01*
X35883Y-15887D01*
X35825Y-16025D01*
X35825Y-16174D01*
X35882Y-16312D01*
X35987Y-16417D01*
X36125Y-16475D01*
X36274Y-16475D01*
X36412Y-16418D01*
X36517Y-16313D01*
X36575Y-16175D01*
X36575Y-17226D01*
X36518Y-17088D01*
X36413Y-16983D01*
X36275Y-16925D01*
X36126Y-16925D01*
X35988Y-16982D01*
X35883Y-17087D01*
X35825Y-17225D01*
X35825Y-17374D01*
X35882Y-17512D01*
X35987Y-17617D01*
X36125Y-17675D01*
X36274Y-17675D01*
X36412Y-17618D01*
X36517Y-17513D01*
X36575Y-17375D01*
X36575Y-30165D01*
X36205Y-29795D01*
X36111Y-29732D01*
X36000Y-29710D01*
X33375Y-29710D01*
X33375Y-16975D01*
X33375Y-16826D01*
X33318Y-16688D01*
X33213Y-16583D01*
X33075Y-16525D01*
X32926Y-16525D01*
X32788Y-16582D01*
X32683Y-16687D01*
X32673Y-16710D01*
X30418Y-16710D01*
X30432Y-16675D01*
X30474Y-16675D01*
X30612Y-16618D01*
X30717Y-16513D01*
X30732Y-16475D01*
X30774Y-16475D01*
X30912Y-16418D01*
X31017Y-16313D01*
X31075Y-16175D01*
X31075Y-16026D01*
X31018Y-15888D01*
X30913Y-15783D01*
X30775Y-15725D01*
X30675Y-15725D01*
X30600Y-15710D01*
X26375Y-15710D01*
X26375Y-13175D01*
X26375Y-13026D01*
X26318Y-12888D01*
X26213Y-12783D01*
X26075Y-12725D01*
X25926Y-12725D01*
X25788Y-12782D01*
X25683Y-12887D01*
X25625Y-13025D01*
X25625Y-13174D01*
X25682Y-13312D01*
X25787Y-13417D01*
X25925Y-13475D01*
X26074Y-13475D01*
X26212Y-13418D01*
X26317Y-13313D01*
X26375Y-13175D01*
X26375Y-15710D01*
X22975Y-15710D01*
X22975Y-15626D01*
X22918Y-15488D01*
X22813Y-15383D01*
X22675Y-15325D01*
X22526Y-15325D01*
X22399Y-15377D01*
X22275Y-15325D01*
X22126Y-15325D01*
X21999Y-15377D01*
X21875Y-15325D01*
X21726Y-15325D01*
X21599Y-15377D01*
X21475Y-15325D01*
X21326Y-15325D01*
X21199Y-15377D01*
X21075Y-15325D01*
X20926Y-15325D01*
X20799Y-15377D01*
X20675Y-15325D01*
X20526Y-15325D01*
X20399Y-15377D01*
X20275Y-15325D01*
X20126Y-15325D01*
X19999Y-15377D01*
X19975Y-15366D01*
X19975Y-14275D01*
X19975Y-14126D01*
X19918Y-13988D01*
X19813Y-13883D01*
X19675Y-13825D01*
X19526Y-13825D01*
X19388Y-13882D01*
X19283Y-13987D01*
X19225Y-14125D01*
X19225Y-14274D01*
X19282Y-14412D01*
X19387Y-14517D01*
X19525Y-14575D01*
X19674Y-14575D01*
X19812Y-14518D01*
X19917Y-14413D01*
X19975Y-14275D01*
X19975Y-15366D01*
X19875Y-15325D01*
X19726Y-15325D01*
X19588Y-15382D01*
X19500Y-15470D01*
X19413Y-15383D01*
X19275Y-15325D01*
X19126Y-15325D01*
X18999Y-15377D01*
X18875Y-15325D01*
X18726Y-15325D01*
X18599Y-15377D01*
X18475Y-15325D01*
X18326Y-15325D01*
X18188Y-15382D01*
X18083Y-15487D01*
X18025Y-15625D01*
X18025Y-15774D01*
X18082Y-15912D01*
X18187Y-16017D01*
X18325Y-16075D01*
X18474Y-16075D01*
X18600Y-16022D01*
X18725Y-16075D01*
X18874Y-16075D01*
X19000Y-16022D01*
X19125Y-16075D01*
X19274Y-16075D01*
X19412Y-16018D01*
X19500Y-15930D01*
X19587Y-16017D01*
X19725Y-16075D01*
X19874Y-16075D01*
X20000Y-16022D01*
X20125Y-16075D01*
X20274Y-16075D01*
X20400Y-16022D01*
X20525Y-16075D01*
X20674Y-16075D01*
X20800Y-16022D01*
X20925Y-16075D01*
X21074Y-16075D01*
X21200Y-16022D01*
X21325Y-16075D01*
X21474Y-16075D01*
X21600Y-16022D01*
X21725Y-16075D01*
X21815Y-16075D01*
X19365Y-18525D01*
X19326Y-18525D01*
X19199Y-18577D01*
X19075Y-18525D01*
X18926Y-18525D01*
X18788Y-18582D01*
X18683Y-18687D01*
X18625Y-18825D01*
X18625Y-18974D01*
X18682Y-19112D01*
X18787Y-19217D01*
X18925Y-19275D01*
X19074Y-19275D01*
X19200Y-19222D01*
X19325Y-19275D01*
X19474Y-19275D01*
X19600Y-19222D01*
X19725Y-19275D01*
X19874Y-19275D01*
X20000Y-19222D01*
X20125Y-19275D01*
X20274Y-19275D01*
X20400Y-19222D01*
X20525Y-19275D01*
X20674Y-19275D01*
X20800Y-19222D01*
X20925Y-19275D01*
X21074Y-19275D01*
X21200Y-19222D01*
X21325Y-19275D01*
X21474Y-19275D01*
X21600Y-19222D01*
X21725Y-19275D01*
X21874Y-19275D01*
X22000Y-19222D01*
X22125Y-19275D01*
X22274Y-19275D01*
X22400Y-19222D01*
X22525Y-19275D01*
X22674Y-19275D01*
X22812Y-19218D01*
X22917Y-19113D01*
X22926Y-19090D01*
X29380Y-19090D01*
X29425Y-19135D01*
X29425Y-19174D01*
X29482Y-19312D01*
X29587Y-19417D01*
X29725Y-19475D01*
X29874Y-19475D01*
X30012Y-19418D01*
X30117Y-19313D01*
X30132Y-19275D01*
X30174Y-19275D01*
X30312Y-19218D01*
X30417Y-19113D01*
X30432Y-19075D01*
X30474Y-19075D01*
X30612Y-19018D01*
X30717Y-18913D01*
X30732Y-18875D01*
X30774Y-18875D01*
X30912Y-18818D01*
X31017Y-18713D01*
X31075Y-18575D01*
X31075Y-18426D01*
X31018Y-18288D01*
X30913Y-18183D01*
X30775Y-18125D01*
X30735Y-18125D01*
X30605Y-17995D01*
X30511Y-17932D01*
X30400Y-17910D01*
X22400Y-17910D01*
X23220Y-17090D01*
X27239Y-17090D01*
X27225Y-17125D01*
X27225Y-17274D01*
X27282Y-17412D01*
X27387Y-17517D01*
X27525Y-17575D01*
X27674Y-17575D01*
X27812Y-17518D01*
X27917Y-17413D01*
X27975Y-17275D01*
X27975Y-17126D01*
X27960Y-17090D01*
X29380Y-17090D01*
X29494Y-17204D01*
X29495Y-17205D01*
X29588Y-17267D01*
X29589Y-17268D01*
X29699Y-17289D01*
X29700Y-17290D01*
X32900Y-17290D01*
X32975Y-17275D01*
X33074Y-17275D01*
X33212Y-17218D01*
X33317Y-17113D01*
X33375Y-16975D01*
X33375Y-29710D01*
X26875Y-29710D01*
X26875Y-27775D01*
X26875Y-27626D01*
X26822Y-27499D01*
X26875Y-27375D01*
X26875Y-27226D01*
X26822Y-27099D01*
X26875Y-26975D01*
X26875Y-26826D01*
X26822Y-26699D01*
X26875Y-26575D01*
X26875Y-26426D01*
X26822Y-26299D01*
X26875Y-26175D01*
X26875Y-26026D01*
X26818Y-25888D01*
X26713Y-25783D01*
X26575Y-25725D01*
X26426Y-25725D01*
X26375Y-25746D01*
X26375Y-25575D01*
X26375Y-25426D01*
X26318Y-25288D01*
X26254Y-25224D01*
X26275Y-25175D01*
X26275Y-25026D01*
X26218Y-24888D01*
X26154Y-24824D01*
X26175Y-24775D01*
X26175Y-24733D01*
X26212Y-24718D01*
X26317Y-24613D01*
X26375Y-24475D01*
X26375Y-24326D01*
X26318Y-24188D01*
X26213Y-24083D01*
X26075Y-24025D01*
X25926Y-24025D01*
X25788Y-24082D01*
X25683Y-24187D01*
X25625Y-24325D01*
X25625Y-24366D01*
X25588Y-24382D01*
X25483Y-24487D01*
X25425Y-24625D01*
X25425Y-24774D01*
X25482Y-24912D01*
X25545Y-24975D01*
X25525Y-25025D01*
X25525Y-25174D01*
X25582Y-25312D01*
X25645Y-25375D01*
X25625Y-25425D01*
X25625Y-25574D01*
X25682Y-25712D01*
X25787Y-25817D01*
X25925Y-25875D01*
X26074Y-25875D01*
X26212Y-25818D01*
X26317Y-25713D01*
X26375Y-25575D01*
X26375Y-25746D01*
X26288Y-25782D01*
X26183Y-25887D01*
X26125Y-26025D01*
X26125Y-26174D01*
X26177Y-26300D01*
X26125Y-26425D01*
X26125Y-26574D01*
X26177Y-26700D01*
X26125Y-26825D01*
X26125Y-26974D01*
X26177Y-27100D01*
X26125Y-27225D01*
X26125Y-27374D01*
X26177Y-27500D01*
X26125Y-27625D01*
X26125Y-27774D01*
X26182Y-27912D01*
X26287Y-28017D01*
X26425Y-28075D01*
X26574Y-28075D01*
X26712Y-28018D01*
X26817Y-27913D01*
X26875Y-27775D01*
X26875Y-29710D01*
X24218Y-29710D01*
X24275Y-29575D01*
X24275Y-29426D01*
X24222Y-29299D01*
X24275Y-29175D01*
X24275Y-29026D01*
X24218Y-28888D01*
X24113Y-28783D01*
X23975Y-28725D01*
X23875Y-28725D01*
X23875Y-27575D01*
X23875Y-27426D01*
X23822Y-27299D01*
X23875Y-27175D01*
X23875Y-27026D01*
X23822Y-26899D01*
X23875Y-26775D01*
X23875Y-26626D01*
X23822Y-26499D01*
X23875Y-26375D01*
X23875Y-26226D01*
X23818Y-26088D01*
X23713Y-25983D01*
X23596Y-25933D01*
X23617Y-25913D01*
X23675Y-25775D01*
X23675Y-25626D01*
X23622Y-25499D01*
X23675Y-25375D01*
X23675Y-25226D01*
X23622Y-25099D01*
X23675Y-24975D01*
X23675Y-24826D01*
X23622Y-24699D01*
X23675Y-24575D01*
X23675Y-24426D01*
X23618Y-24288D01*
X23513Y-24183D01*
X23375Y-24125D01*
X23226Y-24125D01*
X23088Y-24182D01*
X22983Y-24287D01*
X22925Y-24425D01*
X22925Y-24574D01*
X22977Y-24700D01*
X22925Y-24825D01*
X22925Y-24974D01*
X22977Y-25100D01*
X22925Y-25225D01*
X22925Y-25374D01*
X22977Y-25500D01*
X22925Y-25625D01*
X22925Y-25774D01*
X22982Y-25912D01*
X23087Y-26017D01*
X23203Y-26066D01*
X23183Y-26087D01*
X23125Y-26225D01*
X23125Y-26374D01*
X23177Y-26500D01*
X23125Y-26625D01*
X23125Y-26774D01*
X23177Y-26900D01*
X23125Y-27025D01*
X23125Y-27174D01*
X23177Y-27300D01*
X23125Y-27425D01*
X23125Y-27574D01*
X23182Y-27712D01*
X23287Y-27817D01*
X23425Y-27875D01*
X23574Y-27875D01*
X23712Y-27818D01*
X23817Y-27713D01*
X23875Y-27575D01*
X23875Y-28725D01*
X23826Y-28725D01*
X23688Y-28782D01*
X23583Y-28887D01*
X23525Y-29025D01*
X23525Y-29174D01*
X23577Y-29300D01*
X23525Y-29425D01*
X23525Y-29574D01*
X23581Y-29710D01*
X22320Y-29710D01*
X22417Y-29613D01*
X22475Y-29475D01*
X22475Y-29326D01*
X22475Y-27375D01*
X22475Y-27226D01*
X22418Y-27088D01*
X22313Y-26983D01*
X22175Y-26925D01*
X22026Y-26925D01*
X21888Y-26982D01*
X21783Y-27087D01*
X21725Y-27225D01*
X21725Y-27374D01*
X21782Y-27512D01*
X21887Y-27617D01*
X22025Y-27675D01*
X22174Y-27675D01*
X22312Y-27618D01*
X22417Y-27513D01*
X22475Y-27375D01*
X22475Y-29326D01*
X22418Y-29188D01*
X22313Y-29083D01*
X22175Y-29025D01*
X22026Y-29025D01*
X21888Y-29082D01*
X21783Y-29187D01*
X21725Y-29325D01*
X21725Y-29474D01*
X21782Y-29612D01*
X21880Y-29710D01*
X20575Y-29710D01*
X20575Y-23175D01*
X20575Y-23026D01*
X20518Y-22888D01*
X20413Y-22783D01*
X20275Y-22725D01*
X20126Y-22725D01*
X19988Y-22782D01*
X19883Y-22887D01*
X19833Y-23003D01*
X19813Y-22983D01*
X19675Y-22925D01*
X19526Y-22925D01*
X19388Y-22982D01*
X19283Y-23087D01*
X19275Y-23106D01*
X19275Y-20675D01*
X19275Y-20526D01*
X19218Y-20388D01*
X19113Y-20283D01*
X18975Y-20225D01*
X18826Y-20225D01*
X18688Y-20282D01*
X18583Y-20387D01*
X18525Y-20525D01*
X18525Y-20674D01*
X18582Y-20812D01*
X18687Y-20917D01*
X18825Y-20975D01*
X18974Y-20975D01*
X19112Y-20918D01*
X19217Y-20813D01*
X19275Y-20675D01*
X19275Y-23106D01*
X19225Y-23225D01*
X19225Y-23374D01*
X19282Y-23512D01*
X19387Y-23617D01*
X19525Y-23675D01*
X19674Y-23675D01*
X19812Y-23618D01*
X19917Y-23513D01*
X19966Y-23396D01*
X19987Y-23417D01*
X20125Y-23475D01*
X20274Y-23475D01*
X20412Y-23418D01*
X20517Y-23313D01*
X20575Y-23175D01*
X20575Y-29710D01*
X19275Y-29710D01*
X19275Y-27375D01*
X19275Y-27226D01*
X19222Y-27099D01*
X19275Y-26975D01*
X19275Y-26826D01*
X19222Y-26699D01*
X19275Y-26575D01*
X19275Y-26426D01*
X19218Y-26288D01*
X19113Y-26183D01*
X18975Y-26125D01*
X18853Y-26125D01*
X18875Y-26075D01*
X18875Y-25926D01*
X18818Y-25788D01*
X18713Y-25683D01*
X18575Y-25625D01*
X18426Y-25625D01*
X18288Y-25682D01*
X18265Y-25704D01*
X18218Y-25588D01*
X18113Y-25483D01*
X17975Y-25425D01*
X17826Y-25425D01*
X17688Y-25482D01*
X17583Y-25587D01*
X17525Y-25725D01*
X17525Y-25874D01*
X17582Y-26012D01*
X17687Y-26117D01*
X17803Y-26166D01*
X17783Y-26187D01*
X17725Y-26325D01*
X17725Y-26474D01*
X17782Y-26612D01*
X17887Y-26717D01*
X18025Y-26775D01*
X18174Y-26775D01*
X18300Y-26722D01*
X18425Y-26775D01*
X18546Y-26775D01*
X18525Y-26825D01*
X18525Y-26974D01*
X18577Y-27100D01*
X18525Y-27225D01*
X18525Y-27374D01*
X18582Y-27512D01*
X18687Y-27617D01*
X18825Y-27675D01*
X18974Y-27675D01*
X19112Y-27618D01*
X19217Y-27513D01*
X19275Y-27375D01*
X19275Y-29710D01*
X15220Y-29710D01*
X12990Y-27480D01*
X12990Y-20200D01*
X12989Y-20199D01*
X12968Y-20089D01*
X12967Y-20088D01*
X12905Y-19995D01*
X12904Y-19994D01*
X12540Y-19630D01*
X12549Y-19609D01*
X12549Y-19391D01*
X12549Y-16609D01*
X12549Y-16391D01*
X12465Y-16189D01*
X12311Y-16035D01*
X12226Y-16000D01*
X12311Y-15965D01*
X12465Y-15811D01*
X12549Y-15609D01*
X12549Y-15391D01*
X12465Y-15189D01*
X12311Y-15035D01*
X12226Y-15000D01*
X12311Y-14965D01*
X12465Y-14811D01*
X12549Y-14609D01*
X12549Y-14391D01*
X12465Y-14189D01*
X12311Y-14035D01*
X12226Y-14000D01*
X12311Y-13965D01*
X12465Y-13811D01*
X12549Y-13609D01*
X12549Y-13391D01*
X12465Y-13189D01*
X12311Y-13035D01*
X12109Y-12951D01*
X11891Y-12951D01*
X11689Y-13035D01*
X11549Y-13175D01*
X11549Y-13151D01*
X11511Y-13059D01*
X11441Y-12989D01*
X11350Y-12951D01*
X11251Y-12951D01*
X10651Y-12951D01*
X10559Y-12989D01*
X10489Y-13059D01*
X10451Y-13150D01*
X10451Y-13249D01*
X10451Y-13849D01*
X10489Y-13941D01*
X10559Y-14011D01*
X10650Y-14049D01*
X10675Y-14049D01*
X10535Y-14189D01*
X10451Y-14391D01*
X10451Y-14609D01*
X10535Y-14811D01*
X10689Y-14965D01*
X10773Y-15000D01*
X10689Y-15035D01*
X10535Y-15189D01*
X10451Y-15391D01*
X10451Y-15609D01*
X10535Y-15811D01*
X10689Y-15965D01*
X10773Y-16000D01*
X10689Y-16035D01*
X10535Y-16189D01*
X10451Y-16391D01*
X10451Y-16609D01*
X10535Y-16811D01*
X10689Y-16965D01*
X10780Y-17002D01*
X10719Y-17028D01*
X10692Y-17122D01*
X11000Y-17429D01*
X11308Y-17122D01*
X11281Y-17028D01*
X11215Y-17004D01*
X11311Y-16965D01*
X11465Y-16811D01*
X11500Y-16726D01*
X11535Y-16811D01*
X11689Y-16965D01*
X11780Y-17002D01*
X11719Y-17028D01*
X11692Y-17122D01*
X12000Y-17429D01*
X12308Y-17122D01*
X12281Y-17028D01*
X12215Y-17004D01*
X12311Y-16965D01*
X12465Y-16811D01*
X12549Y-16609D01*
X12549Y-19391D01*
X12543Y-19376D01*
X12543Y-17579D01*
X12532Y-17366D01*
X12472Y-17219D01*
X12378Y-17192D01*
X12071Y-17500D01*
X12378Y-17808D01*
X12472Y-17781D01*
X12543Y-17579D01*
X12543Y-19376D01*
X12465Y-19189D01*
X12311Y-19035D01*
X12308Y-19033D01*
X12308Y-17878D01*
X12000Y-17571D01*
X11929Y-17641D01*
X11929Y-17500D01*
X11622Y-17192D01*
X11528Y-17219D01*
X11502Y-17292D01*
X11472Y-17219D01*
X11378Y-17192D01*
X11071Y-17500D01*
X11378Y-17808D01*
X11472Y-17781D01*
X11497Y-17707D01*
X11528Y-17781D01*
X11622Y-17808D01*
X11929Y-17500D01*
X11929Y-17641D01*
X11692Y-17878D01*
X11719Y-17972D01*
X11921Y-18043D01*
X12134Y-18032D01*
X12281Y-17972D01*
X12308Y-17878D01*
X12308Y-19033D01*
X12109Y-18951D01*
X11891Y-18951D01*
X11689Y-19035D01*
X11549Y-19175D01*
X11549Y-19151D01*
X11511Y-19059D01*
X11441Y-18989D01*
X11350Y-18951D01*
X11308Y-18951D01*
X11308Y-17878D01*
X11000Y-17571D01*
X10929Y-17641D01*
X10929Y-17500D01*
X10622Y-17192D01*
X10528Y-17219D01*
X10457Y-17421D01*
X10468Y-17634D01*
X10528Y-17781D01*
X10622Y-17808D01*
X10929Y-17500D01*
X10929Y-17641D01*
X10692Y-17878D01*
X10719Y-17972D01*
X10921Y-18043D01*
X11134Y-18032D01*
X11281Y-17972D01*
X11308Y-17878D01*
X11308Y-18951D01*
X11251Y-18951D01*
X10651Y-18951D01*
X10559Y-18989D01*
X10489Y-19059D01*
X10451Y-19150D01*
X10451Y-19249D01*
X10451Y-19849D01*
X10489Y-19941D01*
X10559Y-20011D01*
X10650Y-20049D01*
X10675Y-20049D01*
X10535Y-20189D01*
X10451Y-20391D01*
X10451Y-20609D01*
X10535Y-20811D01*
X10689Y-20965D01*
X10773Y-21000D01*
X10689Y-21035D01*
X10535Y-21189D01*
X10451Y-21391D01*
X10451Y-21609D01*
X10535Y-21811D01*
X10689Y-21965D01*
X10773Y-22000D01*
X10689Y-22035D01*
X10535Y-22189D01*
X10451Y-22391D01*
X10451Y-22609D01*
X10535Y-22811D01*
X10675Y-22951D01*
X10651Y-22951D01*
X10559Y-22989D01*
X10489Y-23059D01*
X10451Y-23150D01*
X10451Y-23249D01*
X10451Y-23849D01*
X10489Y-23941D01*
X10559Y-24011D01*
X10650Y-24049D01*
X10675Y-24049D01*
X10535Y-24189D01*
X10451Y-24391D01*
X10451Y-24609D01*
X10535Y-24811D01*
X10689Y-24965D01*
X10773Y-25000D01*
X10689Y-25035D01*
X10535Y-25189D01*
X10451Y-25391D01*
X10451Y-25609D01*
X10535Y-25811D01*
X10689Y-25965D01*
X10773Y-26000D01*
X10689Y-26035D01*
X10535Y-26189D01*
X10451Y-26391D01*
X10451Y-26609D01*
X10535Y-26811D01*
X10675Y-26951D01*
X10651Y-26951D01*
X10559Y-26989D01*
X10489Y-27059D01*
X10451Y-27150D01*
X10451Y-27249D01*
X10451Y-27849D01*
X10489Y-27941D01*
X10559Y-28011D01*
X10650Y-28049D01*
X10675Y-28049D01*
X10535Y-28189D01*
X10451Y-28391D01*
X10451Y-28609D01*
X10535Y-28811D01*
X10689Y-28965D01*
X10773Y-29000D01*
X10689Y-29035D01*
X10535Y-29189D01*
X10451Y-29391D01*
X10451Y-29609D01*
X10535Y-29811D01*
X10689Y-29965D01*
X10773Y-30000D01*
X10689Y-30035D01*
X10535Y-30189D01*
X10451Y-30391D01*
X10451Y-30609D01*
X10535Y-30811D01*
X10689Y-30965D01*
X10891Y-31049D01*
X11109Y-31049D01*
X11130Y-31040D01*
X11494Y-31404D01*
X11495Y-31405D01*
X11588Y-31467D01*
X11589Y-31468D01*
X11699Y-31489D01*
X11700Y-31490D01*
X22772Y-31490D01*
X22782Y-31512D01*
X22887Y-31617D01*
X23025Y-31675D01*
X23174Y-31675D01*
X23312Y-31618D01*
X23417Y-31513D01*
X23475Y-31375D01*
X23475Y-31290D01*
X34580Y-31290D01*
X35785Y-32495D01*
X35689Y-32535D01*
X35535Y-32689D01*
X35500Y-32773D01*
X35465Y-32689D01*
X35311Y-32535D01*
X35109Y-32451D01*
X34891Y-32451D01*
X34689Y-32535D01*
X34535Y-32689D01*
X34500Y-32773D01*
X34465Y-32689D01*
X34311Y-32535D01*
X34109Y-32451D01*
X33891Y-32451D01*
X33689Y-32535D01*
X33535Y-32689D01*
X33500Y-32773D01*
X33465Y-32689D01*
X33311Y-32535D01*
X33109Y-32451D01*
X32891Y-32451D01*
X32689Y-32535D01*
X32535Y-32689D01*
X32500Y-32773D01*
X32465Y-32689D01*
X32311Y-32535D01*
X32109Y-32451D01*
X31891Y-32451D01*
X31689Y-32535D01*
X31535Y-32689D01*
X31500Y-32773D01*
X31465Y-32689D01*
X31311Y-32535D01*
X31109Y-32451D01*
X30891Y-32451D01*
X30689Y-32535D01*
X30535Y-32689D01*
X30500Y-32773D01*
X30465Y-32689D01*
X30311Y-32535D01*
X30109Y-32451D01*
X29891Y-32451D01*
X29689Y-32535D01*
X29535Y-32689D01*
X29500Y-32773D01*
X29465Y-32689D01*
X29311Y-32535D01*
X29109Y-32451D01*
X28891Y-32451D01*
X28689Y-32535D01*
X28535Y-32689D01*
X28500Y-32773D01*
X28465Y-32689D01*
X28328Y-32552D01*
X28412Y-32518D01*
X28517Y-32413D01*
X28575Y-32275D01*
X28575Y-32126D01*
X28518Y-31988D01*
X28413Y-31883D01*
X28275Y-31825D01*
X28126Y-31825D01*
X27988Y-31882D01*
X27883Y-31987D01*
X27825Y-32125D01*
X27825Y-32274D01*
X27882Y-32412D01*
X27921Y-32451D01*
X27891Y-32451D01*
X27689Y-32535D01*
X27535Y-32689D01*
X27500Y-32773D01*
X27465Y-32689D01*
X27311Y-32535D01*
X27109Y-32451D01*
X26891Y-32451D01*
X26689Y-32535D01*
X26535Y-32689D01*
X26500Y-32773D01*
X26465Y-32689D01*
X26311Y-32535D01*
X26109Y-32451D01*
X25891Y-32451D01*
X25689Y-32535D01*
X25535Y-32689D01*
X25500Y-32773D01*
X25465Y-32689D01*
X25311Y-32535D01*
X25109Y-32451D01*
X24891Y-32451D01*
X24689Y-32535D01*
X24535Y-32689D01*
X24500Y-32773D01*
X24465Y-32689D01*
X24311Y-32535D01*
X24109Y-32451D01*
X23932Y-32451D01*
X24012Y-32418D01*
X24117Y-32313D01*
X24175Y-32175D01*
X24175Y-32026D01*
X24118Y-31888D01*
X24013Y-31783D01*
X23875Y-31725D01*
X23726Y-31725D01*
X23588Y-31782D01*
X23483Y-31887D01*
X23425Y-32025D01*
X23425Y-32064D01*
X23279Y-32210D01*
X12800Y-32210D01*
X12689Y-32232D01*
X12595Y-32295D01*
X12333Y-32557D01*
X12311Y-32535D01*
X12109Y-32451D01*
X11891Y-32451D01*
X11689Y-32535D01*
X11535Y-32689D01*
X11451Y-32891D01*
X11451Y-33109D01*
X11535Y-33311D01*
X11675Y-33451D01*
X11651Y-33451D01*
X11559Y-33489D01*
X11489Y-33559D01*
X11451Y-33650D01*
X11451Y-33749D01*
X11451Y-34349D01*
X11489Y-34441D01*
X11559Y-34511D01*
X11650Y-34549D01*
X11749Y-34549D01*
X12349Y-34549D01*
X12441Y-34511D01*
X12511Y-34441D01*
X12549Y-34350D01*
X12549Y-34325D01*
X12689Y-34465D01*
X12891Y-34549D01*
X13109Y-34549D01*
X13311Y-34465D01*
X13465Y-34311D01*
X13500Y-34226D01*
X13535Y-34311D01*
X13689Y-34465D01*
X13891Y-34549D01*
X14109Y-34549D01*
X14311Y-34465D01*
X14465Y-34311D01*
X14500Y-34226D01*
X14535Y-34311D01*
X14689Y-34465D01*
X14891Y-34549D01*
X15109Y-34549D01*
X15311Y-34465D01*
X15465Y-34311D01*
X15500Y-34226D01*
X15535Y-34311D01*
X15689Y-34465D01*
X15891Y-34549D01*
X16109Y-34549D01*
X16311Y-34465D01*
X16465Y-34311D01*
X16500Y-34226D01*
X16535Y-34311D01*
X16689Y-34465D01*
X16891Y-34549D01*
X17109Y-34549D01*
X17311Y-34465D01*
X17465Y-34311D01*
X17500Y-34226D01*
X17535Y-34311D01*
X17689Y-34465D01*
X17891Y-34549D01*
X18109Y-34549D01*
X18311Y-34465D01*
X18465Y-34311D01*
X18500Y-34226D01*
X18535Y-34311D01*
X18689Y-34465D01*
X18891Y-34549D01*
X19109Y-34549D01*
X19311Y-34465D01*
X19465Y-34311D01*
X19500Y-34226D01*
X19535Y-34311D01*
X19689Y-34465D01*
X19891Y-34549D01*
X20109Y-34549D01*
X20311Y-34465D01*
X20465Y-34311D01*
X20500Y-34226D01*
X20535Y-34311D01*
X20689Y-34465D01*
X20891Y-34549D01*
X21109Y-34549D01*
X21311Y-34465D01*
X21465Y-34311D01*
X21500Y-34226D01*
X21535Y-34311D01*
X21689Y-34465D01*
X21891Y-34549D01*
X22109Y-34549D01*
X22311Y-34465D01*
X22465Y-34311D01*
X22500Y-34226D01*
X22535Y-34311D01*
X22689Y-34465D01*
X22891Y-34549D01*
X23109Y-34549D01*
X23311Y-34465D01*
X23465Y-34311D01*
X23500Y-34226D01*
X23535Y-34311D01*
X23689Y-34465D01*
X23891Y-34549D01*
X24109Y-34549D01*
X24311Y-34465D01*
X24465Y-34311D01*
X24500Y-34226D01*
X24535Y-34311D01*
X24689Y-34465D01*
X24891Y-34549D01*
X25109Y-34549D01*
X25311Y-34465D01*
X25465Y-34311D01*
X25500Y-34226D01*
X25535Y-34311D01*
X25689Y-34465D01*
X25891Y-34549D01*
X26109Y-34549D01*
X26311Y-34465D01*
X26465Y-34311D01*
X26500Y-34226D01*
X26535Y-34311D01*
X26689Y-34465D01*
X26891Y-34549D01*
X27109Y-34549D01*
X27311Y-34465D01*
X27465Y-34311D01*
X27500Y-34226D01*
X27535Y-34311D01*
X27689Y-34465D01*
X27891Y-34549D01*
X28109Y-34549D01*
X28311Y-34465D01*
X28465Y-34311D01*
X28500Y-34226D01*
X28535Y-34311D01*
X28689Y-34465D01*
X28891Y-34549D01*
X29109Y-34549D01*
X29311Y-34465D01*
X29465Y-34311D01*
X29500Y-34226D01*
X29535Y-34311D01*
X29689Y-34465D01*
X29891Y-34549D01*
X30109Y-34549D01*
X30311Y-34465D01*
X30465Y-34311D01*
X30500Y-34226D01*
X30535Y-34311D01*
X30689Y-34465D01*
X30891Y-34549D01*
X31109Y-34549D01*
X31311Y-34465D01*
X31465Y-34311D01*
X31500Y-34226D01*
X31535Y-34311D01*
X31689Y-34465D01*
X31891Y-34549D01*
X32109Y-34549D01*
X32311Y-34465D01*
X32465Y-34311D01*
X32500Y-34226D01*
X32535Y-34311D01*
X32689Y-34465D01*
X32891Y-34549D01*
X33109Y-34549D01*
X33311Y-34465D01*
X33465Y-34311D01*
X33500Y-34226D01*
X33535Y-34311D01*
X33689Y-34465D01*
X33891Y-34549D01*
X34109Y-34549D01*
X34311Y-34465D01*
X34465Y-34311D01*
X34500Y-34226D01*
X34535Y-34311D01*
X34689Y-34465D01*
X34891Y-34549D01*
X35109Y-34549D01*
X35311Y-34465D01*
X35465Y-34311D01*
X35500Y-34226D01*
X35535Y-34311D01*
X35689Y-34465D01*
X35891Y-34549D01*
X36109Y-34549D01*
X36311Y-34465D01*
X36465Y-34311D01*
X36500Y-34226D01*
X36535Y-34311D01*
X36689Y-34465D01*
X36891Y-34549D01*
X37109Y-34549D01*
X37311Y-34465D01*
X37465Y-34311D01*
X37500Y-34226D01*
X37535Y-34311D01*
X37689Y-34465D01*
X37891Y-34549D01*
X38109Y-34549D01*
X38311Y-34465D01*
X38465Y-34311D01*
X38500Y-34226D01*
X38535Y-34311D01*
X38689Y-34465D01*
X38891Y-34549D01*
X39109Y-34549D01*
X39311Y-34465D01*
X39465Y-34311D01*
X39500Y-34226D01*
X39535Y-34311D01*
X39689Y-34465D01*
X39891Y-34549D01*
X40109Y-34549D01*
X40311Y-34465D01*
X40465Y-34311D01*
X40500Y-34226D01*
X40535Y-34311D01*
X40689Y-34465D01*
X40891Y-34549D01*
X41109Y-34549D01*
X41311Y-34465D01*
X41465Y-34311D01*
X41500Y-34226D01*
X41535Y-34311D01*
X41689Y-34465D01*
X41891Y-34549D01*
X42109Y-34549D01*
X42311Y-34465D01*
X42465Y-34311D01*
X42502Y-34219D01*
X42528Y-34281D01*
X42622Y-34308D01*
X42929Y-34000D01*
X42622Y-33692D01*
X42528Y-33719D01*
X42504Y-33784D01*
X42465Y-33689D01*
X42311Y-33535D01*
X42226Y-33500D01*
X42311Y-33465D01*
X42465Y-33311D01*
X42500Y-33226D01*
X42535Y-33311D01*
X42689Y-33465D01*
X42780Y-33502D01*
X42719Y-33528D01*
X42692Y-33622D01*
X43000Y-33929D01*
X43308Y-33622D01*
X43281Y-33528D01*
X43215Y-33504D01*
X43311Y-33465D01*
X43465Y-33311D01*
X43549Y-33109D01*
X43549Y-37675D01*
X43543Y-37675D01*
X43543Y-34079D01*
X43532Y-33866D01*
X43472Y-33719D01*
X43378Y-33692D01*
X43071Y-34000D01*
X43378Y-34308D01*
X43472Y-34281D01*
X43543Y-34079D01*
X43543Y-37675D01*
X43308Y-37675D01*
X43308Y-34378D01*
X43000Y-34071D01*
X42692Y-34378D01*
X42719Y-34472D01*
X42921Y-34543D01*
X43134Y-34532D01*
X43281Y-34472D01*
X43308Y-34378D01*
X43308Y-37675D01*
X10325Y-37675D01*
X10325Y-06325D01*
X47175Y-06325D01*
X47175Y-37675D01*
M02*
