G04 (created by PCBNEW-RS274X (2012-01-19 BZR 3256)-stable) date 08/10/2012 04:37:32*
G01*
G70*
G90*
%MOIN*%
G04 Gerber Fmt 3.4, Leading zero omitted, Abs format*
%FSLAX34Y34*%
G04 APERTURE LIST*
%ADD10C,0.006000*%
%ADD11C,0.015000*%
%ADD12C,0.005000*%
G04 APERTURE END LIST*
G54D10*
G54D11*
X47500Y-06000D02*
X47500Y-38000D01*
X10000Y-06000D02*
X47500Y-06000D01*
X10000Y-38000D02*
X10000Y-06000D01*
X10000Y-38000D02*
X47500Y-38000D01*
G54D12*
X46843Y-24049D02*
X46839Y-24087D01*
X46828Y-24124D01*
X46810Y-24158D01*
X46785Y-24187D01*
X46756Y-24212D01*
X46722Y-24230D01*
X46685Y-24241D01*
X46647Y-24245D01*
X46610Y-24242D01*
X46573Y-24231D01*
X46539Y-24213D01*
X46509Y-24189D01*
X46484Y-24160D01*
X46465Y-24126D01*
X46454Y-24089D01*
X46450Y-24051D01*
X46453Y-24014D01*
X46463Y-23977D01*
X46481Y-23943D01*
X46505Y-23913D01*
X46534Y-23888D01*
X46568Y-23869D01*
X46604Y-23857D01*
X46642Y-23853D01*
X46680Y-23855D01*
X46717Y-23866D01*
X46751Y-23883D01*
X46781Y-23907D01*
X46806Y-23936D01*
X46825Y-23969D01*
X46838Y-24006D01*
X46842Y-24044D01*
X46843Y-24049D01*
X46843Y-27199D02*
X46839Y-27237D01*
X46828Y-27274D01*
X46810Y-27308D01*
X46785Y-27337D01*
X46756Y-27362D01*
X46722Y-27380D01*
X46685Y-27391D01*
X46647Y-27395D01*
X46610Y-27392D01*
X46573Y-27381D01*
X46539Y-27363D01*
X46509Y-27339D01*
X46484Y-27310D01*
X46465Y-27276D01*
X46454Y-27239D01*
X46450Y-27201D01*
X46453Y-27164D01*
X46463Y-27127D01*
X46481Y-27093D01*
X46505Y-27063D01*
X46534Y-27038D01*
X46568Y-27019D01*
X46604Y-27007D01*
X46642Y-27003D01*
X46680Y-27005D01*
X46717Y-27016D01*
X46751Y-27033D01*
X46781Y-27057D01*
X46806Y-27086D01*
X46825Y-27119D01*
X46838Y-27156D01*
X46842Y-27194D01*
X46843Y-27199D01*
M02*
