M48
;DRILL file {Pcbnew (2012-01-19 BZR 3256)-stable} date 08/10/2012 04:37:35
;FORMAT={-:-/ absolute / inch / decimal}
FMAT,2
INCH,TZ
T1C0.015
T2C0.032
T3C0.040
%
G90
G05
M72
T1
X1.540Y2.600
X1.550Y0.880
X1.790Y2.580
X1.810Y2.640
X1.840Y1.570
X1.850Y2.600
X1.850Y2.640
X1.880Y1.570
X1.890Y2.060
X1.890Y2.650
X1.890Y2.690
X1.890Y2.730
X1.900Y1.890
X1.920Y1.570
X1.940Y1.890
X1.960Y1.420
X1.960Y2.330
X1.980Y1.570
X1.980Y1.890
X1.990Y1.390
X2.020Y1.570
X2.020Y1.890
X2.020Y2.310
X2.023Y2.050
X2.060Y1.570
X2.060Y1.890
X2.100Y1.570
X2.100Y1.890
X2.140Y1.570
X2.140Y1.850
X2.140Y1.890
X2.180Y1.570
X2.180Y1.890
X2.210Y2.730
X2.210Y2.940
X2.220Y1.570
X2.220Y1.890
X2.260Y1.570
X2.260Y1.890
X2.310Y3.130
X2.330Y2.450
X2.330Y2.490
X2.330Y2.530
X2.330Y2.570
X2.350Y2.630
X2.350Y2.670
X2.350Y2.710
X2.350Y2.750
X2.380Y3.210
X2.390Y2.910
X2.390Y2.950
X2.580Y2.470
X2.590Y2.510
X2.600Y1.310
X2.600Y2.440
X2.600Y2.550
X2.650Y2.610
X2.650Y2.650
X2.650Y2.690
X2.650Y2.730
X2.650Y2.770
X2.760Y1.720
X2.760Y1.790
X2.820Y3.220
X2.860Y1.260
X2.980Y1.670
X2.980Y1.910
X3.010Y1.650
X3.010Y1.890
X3.040Y1.630
X3.040Y1.870
X3.070Y1.610
X3.070Y1.850
X3.300Y1.690
X3.620Y1.610
X3.620Y1.730
X3.620Y1.770
X3.800Y1.480
X3.800Y2.030
X3.920Y2.830
X4.032Y2.563
X4.040Y3.010
X4.170Y2.650
X4.173Y2.563
X4.190Y1.180
X4.210Y2.840
X4.220Y1.430
X4.250Y2.150
X4.330Y1.470
X4.330Y3.100
X4.350Y2.950
X4.370Y3.050
X4.390Y3.150
X4.410Y3.250
X4.430Y3.400
X4.450Y3.500
X4.470Y3.600
T2
X1.200Y1.000
X1.200Y1.100
X1.200Y3.300
X1.200Y3.400
X1.300Y1.000
X1.300Y1.100
X1.300Y3.300
X1.300Y3.400
X1.400Y1.000
X1.400Y1.100
X1.400Y3.300
X1.400Y3.400
X1.500Y1.000
X1.500Y1.100
X1.500Y3.300
X1.500Y3.400
X1.600Y1.000
X1.600Y1.100
X1.600Y3.300
X1.600Y3.400
X1.700Y1.000
X1.700Y1.100
X1.700Y3.300
X1.700Y3.400
X1.800Y1.000
X1.800Y1.100
X1.800Y3.300
X1.800Y3.400
X1.900Y1.000
X1.900Y1.100
X1.900Y3.300
X1.900Y3.400
X2.000Y1.000
X2.000Y1.100
X2.000Y3.300
X2.000Y3.400
X2.100Y1.000
X2.100Y1.100
X2.100Y3.300
X2.100Y3.400
X2.200Y1.000
X2.200Y1.100
X2.200Y3.300
X2.200Y3.400
X2.300Y1.000
X2.300Y1.100
X2.300Y3.300
X2.300Y3.400
X2.400Y1.000
X2.400Y1.100
X2.400Y3.300
X2.400Y3.400
X2.500Y1.000
X2.500Y1.100
X2.500Y3.300
X2.500Y3.400
X2.600Y1.000
X2.600Y1.100
X2.600Y3.300
X2.600Y3.400
X2.700Y1.000
X2.700Y1.100
X2.700Y3.300
X2.700Y3.400
X2.800Y1.000
X2.800Y1.100
X2.800Y3.300
X2.800Y3.400
X2.900Y1.000
X2.900Y1.100
X2.900Y3.300
X2.900Y3.400
X3.000Y1.000
X3.000Y1.100
X3.000Y3.300
X3.000Y3.400
X3.100Y1.000
X3.100Y1.100
X3.100Y3.300
X3.100Y3.400
X3.200Y1.000
X3.200Y1.100
X3.200Y3.300
X3.200Y3.400
X3.300Y1.000
X3.300Y1.100
X3.300Y3.300
X3.300Y3.400
X3.400Y1.000
X3.400Y1.100
X3.400Y3.300
X3.400Y3.400
X3.500Y1.000
X3.500Y1.100
X3.500Y3.300
X3.500Y3.400
X3.600Y1.000
X3.600Y1.100
X3.600Y3.300
X3.600Y3.400
X3.700Y1.000
X3.700Y1.100
X3.700Y3.300
X3.700Y3.400
X3.800Y1.000
X3.800Y1.100
X3.800Y3.300
X3.800Y3.400
X3.900Y1.000
X3.900Y1.100
X3.900Y3.300
X3.900Y3.400
X4.000Y1.000
X4.000Y1.100
X4.000Y3.300
X4.000Y3.400
X4.100Y1.000
X4.100Y1.100
X4.100Y3.300
X4.100Y3.400
X4.200Y1.000
X4.200Y1.100
X4.200Y3.300
X4.200Y3.400
X4.300Y1.000
X4.300Y1.100
X4.300Y3.300
X4.300Y3.400
T3
X1.100Y1.350
X1.100Y1.450
X1.100Y1.550
X1.100Y1.650
X1.100Y1.750
X1.100Y1.950
X1.100Y2.050
X1.100Y2.150
X1.100Y2.250
X1.100Y2.350
X1.100Y2.450
X1.100Y2.550
X1.100Y2.650
X1.100Y2.750
X1.100Y2.850
X1.100Y2.950
X1.100Y3.050
X1.200Y1.350
X1.200Y1.450
X1.200Y1.550
X1.200Y1.650
X1.200Y1.750
X1.200Y1.950
X1.200Y2.050
X1.200Y2.150
X1.200Y2.250
X1.200Y2.350
X1.200Y2.450
X1.200Y2.550
X1.200Y2.650
X1.200Y2.750
X1.200Y2.850
X1.200Y2.950
X1.200Y3.050
X3.750Y2.200
X3.850Y2.200
X4.550Y0.700
X4.550Y0.800
X4.550Y0.900
X4.550Y1.000
X4.550Y1.150
X4.550Y1.250
X4.550Y1.350
X4.550Y1.450
X4.550Y1.600
X4.550Y1.700
X4.550Y1.800
X4.550Y1.900
X4.550Y2.000
X4.550Y2.100
X4.550Y2.950
X4.550Y3.050
X4.550Y3.150
X4.550Y3.250
X4.550Y3.400
X4.550Y3.500
X4.550Y3.600
X4.550Y3.700
X4.650Y0.700
X4.650Y0.800
X4.650Y0.900
X4.650Y1.000
X4.650Y1.150
X4.650Y1.250
X4.650Y1.350
X4.650Y1.450
X4.650Y1.600
X4.650Y1.700
X4.650Y1.800
X4.650Y1.900
X4.650Y2.000
X4.650Y2.100
X4.650Y2.950
X4.650Y3.050
X4.650Y3.150
X4.650Y3.250
X4.650Y3.400
X4.650Y3.500
X4.650Y3.600
X4.650Y3.700
T0
M30
